<?xml version="1.0" encoding="utf-8"?>
<!-- Generator: Adobe Illustrator 24.1.2, SVG Export Plug-In . SVG Version: 6.00 Build 0)  -->
<svg version="1.1"
	 id="svg27947" xmlns:cc="http://creativecommons.org/ns#" xmlns:dc="http://purl.org/dc/elements/1.1/" xmlns:inkscape="http://www.inkscape.org/namespaces/inkscape" xmlns:rdf="http://www.w3.org/1999/02/22-rdf-syntax-ns#" xmlns:sodipodi="http://sodipodi.sourceforge.net/DTD/sodipodi-0.dtd" xmlns:svg="http://www.w3.org/2000/svg"
	 xmlns="http://www.w3.org/2000/svg" xmlns:xlink="http://www.w3.org/1999/xlink" x="0px" y="0px" viewBox="0 0 1 1"
	 enable-background="new 0 0 1 1" xml:space="preserve">
<g id="layer1" transform="translate(-259.91532,-107.12366)" inkscape:groupmode="layer" inkscape:label="Layer 1">
	
		<g id="g21516" transform="matrix(0,-0.04858588,0.04858588,0,315.03859,33.587549)" inkscape:export-filename="C:\Users\Donatas\Documents\ShareX\Screenshots\2019-01\BSMGWaterTileSet.png" inkscape:export-xdpi="450" inkscape:export-ydpi="450">
		<path id="path21502" inkscape:connector-curvature="0" fill="#6D446A" d="M-1513.513-1113.959v-14.129
			c0-3.575-2.876-6.453-6.452-6.453h-14.13v20.582H-1513.513z"/>
		<path id="path21504" inkscape:connector-curvature="0" fill="#6D446A" d="M-1515.476-1113.959v-13.669
			c0-2.741-2.208-4.949-4.949-4.949h-13.669v18.618C-1534.094-1113.959-1515.476-1113.959-1515.476-1113.959z"/>
		<path id="path21506" inkscape:connector-curvature="0" fill="#573758" d="M-1517.439-1113.959v-12.662
			c0-2.212-1.781-3.992-3.993-3.992h-12.662v16.654C-1534.094-1113.959-1517.439-1113.959-1517.439-1113.959z"/>
		<path id="path21508" inkscape:connector-curvature="0" fill="#FF913D" d="M-1519.404-1113.959v-11.957
			c0-1.515-1.22-2.735-2.735-2.735h-11.957v14.69h14.692V-1113.959z"/>
		<path id="path21510" inkscape:connector-curvature="0" fill="#573758" d="M-1534.094-1119.85c3.253,0,5.89,2.637,5.89,5.889
			c0,0,0,0,0,0.001h-5.89V-1119.85z"/>
		<path id="path21512" inkscape:connector-curvature="0" fill="#6D446A" d="M-1534.094-1117.887c2.169,0,3.928,1.759,3.928,3.928
			l0,0h-3.928V-1117.887z"/>
		<path id="path21514" inkscape:connector-curvature="0" fill="#6D446A" d="M-1534.094-1115.923c1.084,0,1.963,0.879,1.963,1.963
			c0,0,0,0,0,0.001h-1.963V-1115.923z"/>
	</g>
</g>
</svg>
