<?xml version="1.0" encoding="utf-8"?>
<!-- Generator: Adobe Illustrator 24.1.2, SVG Export Plug-In . SVG Version: 6.00 Build 0)  -->
<svg version="1.1"
	 id="svg22119" xmlns:cc="http://creativecommons.org/ns#" xmlns:dc="http://purl.org/dc/elements/1.1/" xmlns:inkscape="http://www.inkscape.org/namespaces/inkscape" xmlns:rdf="http://www.w3.org/1999/02/22-rdf-syntax-ns#" xmlns:sodipodi="http://sodipodi.sourceforge.net/DTD/sodipodi-0.dtd" xmlns:svg="http://www.w3.org/2000/svg"
	 xmlns="http://www.w3.org/2000/svg" xmlns:xlink="http://www.w3.org/1999/xlink" x="0px" y="0px" viewBox="0 0 1 1"
	 enable-background="new 0 0 1 1" xml:space="preserve">
<g id="layer1" transform="translate(505.10848,185.42991)" inkscape:groupmode="layer" inkscape:label="Layer 1">
	
		<g id="g21117" transform="matrix(0,0.04858588,-0.04858588,0,-559.7448,-108.15134)" inkscape:export-filename="C:\Users\Donatas\Documents\ShareX\Screenshots\2019-01\BSMGWaterTileSet.png" inkscape:export-xdpi="450" inkscape:export-ydpi="450">
		<path id="path21108" inkscape:connector-curvature="0" fill="#6D446A" d="M-1590.544-1145.104v14.129
			c0,3.575,2.876,6.453,6.451,6.453h14.13v-20.582H-1590.544z"/>
		<path id="path21111" inkscape:connector-curvature="0" fill="#6D446A" d="M-1588.58-1145.104v13.669
			c0,2.741,2.208,4.949,4.949,4.949h13.669v-18.618C-1569.962-1145.104-1588.58-1145.104-1588.58-1145.104z"/>
		<path id="path21113" inkscape:connector-curvature="0" fill="#573758" d="M-1586.618-1145.104v12.662
			c0,2.212,1.781,3.992,3.995,3.992h12.662v-16.654C-1569.961-1145.104-1586.618-1145.104-1586.618-1145.104z"/>
		<path id="path21115" inkscape:connector-curvature="0" fill="#FF913D" d="M-1584.654-1145.104v11.957
			c0,1.515,1.22,2.735,2.735,2.735h11.957v-14.692H-1584.654z"/>
	</g>
</g>
</svg>
