<?xml version="1.0" encoding="utf-8"?>
<!-- Generator: Adobe Illustrator 24.1.2, SVG Export Plug-In . SVG Version: 6.00 Build 0)  -->
<svg version="1.1"
	 id="svg34955" xmlns:cc="http://creativecommons.org/ns#" xmlns:dc="http://purl.org/dc/elements/1.1/" xmlns:inkscape="http://www.inkscape.org/namespaces/inkscape" xmlns:rdf="http://www.w3.org/1999/02/22-rdf-syntax-ns#" xmlns:sodipodi="http://sodipodi.sourceforge.net/DTD/sodipodi-0.dtd" xmlns:svg="http://www.w3.org/2000/svg"
	 xmlns="http://www.w3.org/2000/svg" xmlns:xlink="http://www.w3.org/1999/xlink" x="0px" y="0px" viewBox="0 0 1 1"
	 enable-background="new 0 0 1 1" xml:space="preserve">
<g id="layer1" transform="translate(-130.64747,-181.96294)" inkscape:groupmode="layer" inkscape:label="Layer 1">
	
		<g id="g21500" transform="matrix(0,0.04858588,0.04858588,0,185.77074,256.05346)" inkscape:export-filename="C:\Users\Donatas\Documents\ShareX\Screenshots\2019-01\BSMGWaterTileSet.png" inkscape:export-xdpi="450" inkscape:export-ydpi="450">
		<path id="path21480" inkscape:connector-curvature="0" fill="#6D446A" d="M-1504.341-1113.96v-20.582h-20.581v20.582H-1504.341z"
			/>
		<path id="path21482" inkscape:connector-curvature="0" fill="#6D446A" d="M-1504.341-1113.96v-18.619h-20.581v18.619H-1504.341z"
			/>
		<path id="path21484" inkscape:connector-curvature="0" fill="#573758" d="M-1504.341-1113.96v-16.654h-20.581v16.654H-1504.341z"
			/>
		<path id="path21486" inkscape:connector-curvature="0" fill="#FF913D" d="M-1504.341-1113.96v-14.692h-20.581v14.692H-1504.341z"
			/>
		<path id="path21488" inkscape:connector-curvature="0" fill="#573758" d="M-1524.924-1119.852c3.253,0,5.89,2.637,5.89,5.889
			c0,0,0,0,0,0.001h-5.89V-1119.852z"/>
		<path id="path21490" inkscape:connector-curvature="0" fill="#6D446A" d="M-1524.924-1117.889c2.169,0,3.928,1.759,3.928,3.928
			l0,0h-3.928V-1117.889z"/>
		<path id="path21492" inkscape:connector-curvature="0" fill="#6D446A" d="M-1524.924-1115.924c1.084,0,1.963,0.879,1.963,1.963
			c0,0,0,0,0,0.001h-1.963V-1115.924z"/>
		<path id="path21494" inkscape:connector-curvature="0" fill="#573758" d="M-1504.341-1119.852c-3.253,0-5.891,2.636-5.891,5.889
			c0,0,0,0,0,0.001h5.891V-1119.852z"/>
		<path id="path21496" inkscape:connector-curvature="0" fill="#6D446A" d="M-1504.341-1117.889c-2.169,0-3.928,1.759-3.928,3.928
			l0,0h3.928V-1117.889z"/>
		<path id="path21498" inkscape:connector-curvature="0" fill="#6D446A" d="M-1504.341-1115.925c-1.084,0-1.963,0.879-1.963,1.963
			c0,0,0,0,0,0.001h1.963V-1115.925z"/>
	</g>
</g>
</svg>
