<?xml version="1.0" encoding="utf-8"?>
<!-- Generator: Adobe Illustrator 24.1.2, SVG Export Plug-In . SVG Version: 6.00 Build 0)  -->
<svg version="1.1"
	 id="svg26171" xmlns:cc="http://creativecommons.org/ns#" xmlns:dc="http://purl.org/dc/elements/1.1/" xmlns:inkscape="http://www.inkscape.org/namespaces/inkscape" xmlns:rdf="http://www.w3.org/1999/02/22-rdf-syntax-ns#" xmlns:sodipodi="http://sodipodi.sourceforge.net/DTD/sodipodi-0.dtd" xmlns:svg="http://www.w3.org/2000/svg"
	 xmlns="http://www.w3.org/2000/svg" xmlns:xlink="http://www.w3.org/1999/xlink" x="0px" y="0px" viewBox="0 0 1 1"
	 enable-background="new 0 0 1 1" xml:space="preserve">
<g id="layer1" transform="translate(-34.641514,-70.837949)" inkscape:groupmode="layer" inkscape:label="Layer 1">
	
		<g id="g21291" transform="matrix(0.04858588,0,0,0.04858588,109.89132,125.96121)" inkscape:export-filename="C:\Users\Donatas\Documents\ShareX\Screenshots\2019-01\BSMGWaterTileSet.png" inkscape:export-xdpi="450" inkscape:export-ydpi="450">
		<path id="path21271" inkscape:connector-curvature="0" fill="#FF913D" d="M-1528.202-1113.962v-20.579h-20.581v20.579H-1528.202z"
			/>
		<path id="path21273" inkscape:connector-curvature="0" fill="#573758" d="M-1548.784-1128.65c3.253,0,5.891-2.637,5.891-5.889
			c0,0,0,0,0-0.001h-5.891V-1128.65z"/>
		<path id="path21275" inkscape:connector-curvature="0" fill="#6D446A" d="M-1548.784-1130.613c2.169,0,3.928-1.759,3.928-3.928
			l0,0h-3.928V-1130.613z"/>
		<path id="path21277" inkscape:connector-curvature="0" fill="#6D446A" d="M-1548.784-1132.578c1.084,0,1.963-0.879,1.963-1.963
			c0,0,0,0,0-0.001h-1.963V-1132.578z"/>
		<path id="path21279" inkscape:connector-curvature="0" fill="#573758" d="M-1528.202-1128.65c-3.253,0-5.891-2.637-5.891-5.889
			c0,0,0,0,0-0.001h5.891V-1128.65z"/>
		<path id="path21281" inkscape:connector-curvature="0" fill="#6D446A" d="M-1528.202-1130.613c-2.169,0-3.928-1.759-3.928-3.928
			l0,0h3.928V-1130.613z"/>
		<path id="path21283" inkscape:connector-curvature="0" fill="#6D446A" d="M-1528.202-1132.577c-1.084,0-1.963-0.879-1.963-1.963
			c0,0,0,0,0-0.001h1.963V-1132.577z"/>
		<path id="path21285" inkscape:connector-curvature="0" fill="#573758" d="M-1548.783-1119.852c3.253,0,5.89,2.637,5.89,5.889
			c0,0,0,0,0,0.001h-5.89V-1119.852z"/>
		<path id="path21287" inkscape:connector-curvature="0" fill="#6D446A" d="M-1548.783-1117.889c2.169,0,3.928,1.759,3.928,3.928
			l0,0h-3.928V-1117.889z"/>
		<path id="path21289" inkscape:connector-curvature="0" fill="#6D446A" d="M-1548.783-1115.924c1.084,0,1.963,0.879,1.963,1.963
			c0,0,0,0,0,0.001h-1.963V-1115.924z"/>
	</g>
</g>
</svg>
