<?xml version="1.0" encoding="utf-8"?>
<!-- Generator: Adobe Illustrator 24.1.2, SVG Export Plug-In . SVG Version: 6.00 Build 0)  -->
<svg version="1.1"
	 id="svg43152" xmlns:cc="http://creativecommons.org/ns#" xmlns:dc="http://purl.org/dc/elements/1.1/" xmlns:inkscape="http://www.inkscape.org/namespaces/inkscape" xmlns:rdf="http://www.w3.org/1999/02/22-rdf-syntax-ns#" xmlns:sodipodi="http://sodipodi.sourceforge.net/DTD/sodipodi-0.dtd" xmlns:svg="http://www.w3.org/2000/svg"
	 xmlns="http://www.w3.org/2000/svg" xmlns:xlink="http://www.w3.org/1999/xlink" x="0px" y="0px" viewBox="0 0 1 1"
	 enable-background="new 0 0 1 1" xml:space="preserve">
<g id="layer1" transform="translate(-8.1831845,-261.33795)" inkscape:groupmode="layer" inkscape:label="Layer 1">
	
		<g id="g21532" transform="matrix(0,0.04858588,-0.04858588,0,-46.675497,335.13864)" inkscape:export-filename="C:\Users\Donatas\Documents\ShareX\Screenshots\2019-01\BSMGWaterTileSet.png" inkscape:export-xdpi="450" inkscape:export-ydpi="450">
		<path id="path21518" inkscape:connector-curvature="0" fill="#6D446A" d="M-1498.377-1129.096v-14.129
			c0-3.575-2.876-6.453-6.452-6.453h-14.13v20.582H-1498.377z"/>
		<path id="path21520" inkscape:connector-curvature="0" fill="#6D446A" d="M-1500.34-1129.096v-13.669
			c0-2.741-2.208-4.949-4.949-4.949h-13.669v18.618C-1518.958-1129.096-1500.34-1129.096-1500.34-1129.096z"/>
		<path id="path21522" inkscape:connector-curvature="0" fill="#573758" d="M-1502.304-1129.096v-12.662
			c0-2.212-1.781-3.992-3.993-3.992h-12.662v16.654C-1518.959-1129.096-1502.304-1129.096-1502.304-1129.096z"/>
		<path id="path21524" inkscape:connector-curvature="0" fill="#FF913D" d="M-1504.268-1129.096v-11.957
			c0-1.515-1.22-2.734-2.734-2.734h-11.957v14.69h14.691V-1129.096z"/>
		<path id="path21526" inkscape:connector-curvature="0" fill="#573758" d="M-1518.958-1134.987c3.253,0,5.89,2.637,5.89,5.889
			c0,0,0,0,0,0.001h-5.89V-1134.987z"/>
		<path id="path21528" inkscape:connector-curvature="0" fill="#6D446A" d="M-1518.958-1133.024c2.169,0,3.928,1.759,3.928,3.928
			l0,0h-3.928V-1133.024z"/>
		<path id="path21530" inkscape:connector-curvature="0" fill="#6D446A" d="M-1518.958-1131.06c1.084,0,1.963,0.879,1.963,1.963
			c0,0,0,0,0,0.001h-1.963V-1131.06z"/>
	</g>
</g>
</svg>
