<?xml version="1.0" encoding="utf-8"?>
<!-- Generator: Adobe Illustrator 24.1.2, SVG Export Plug-In . SVG Version: 6.00 Build 0)  -->
<svg version="1.1"
	 id="svg33766" xmlns:cc="http://creativecommons.org/ns#" xmlns:dc="http://purl.org/dc/elements/1.1/" xmlns:inkscape="http://www.inkscape.org/namespaces/inkscape" xmlns:rdf="http://www.w3.org/1999/02/22-rdf-syntax-ns#" xmlns:sodipodi="http://sodipodi.sourceforge.net/DTD/sodipodi-0.dtd" xmlns:svg="http://www.w3.org/2000/svg"
	 xmlns="http://www.w3.org/2000/svg" xmlns:xlink="http://www.w3.org/1999/xlink" x="0px" y="0px" viewBox="0 0 1 1"
	 enable-background="new 0 0 1 1" xml:space="preserve">
<g id="layer1" transform="translate(-158.61772,-243.95103)" inkscape:groupmode="layer" inkscape:label="Layer 1">
	
		<g id="g21396" transform="matrix(0.04858588,0,0,0.04858588,233.57769,298.78448)" inkscape:export-filename="C:\Users\Donatas\Documents\ShareX\Screenshots\2019-01\BSMGWaterTileSet.png" inkscape:export-xdpi="450" inkscape:export-ydpi="450">
		<path id="path21370" inkscape:connector-curvature="0" fill="#FF913D" d="M-1522.239-1107.994h-20.579v-20.581h20.579V-1107.994z"
			/>
		<path id="path21372" inkscape:connector-curvature="0" fill="#573758" d="M-1536.928-1128.576c0,3.253-2.637,5.89-5.889,5.89
			c0,0,0,0-0.001,0v-5.89H-1536.928z"/>
		<path id="path21374" inkscape:connector-curvature="0" fill="#6D446A" d="M-1538.891-1128.576c0,2.169-1.759,3.928-3.928,3.928
			l0,0v-3.928H-1538.891z"/>
		<path id="path21376" inkscape:connector-curvature="0" fill="#6D446A" d="M-1540.856-1128.576c0,1.084-0.879,1.963-1.963,1.963
			c0,0,0,0-0.001,0v-1.963H-1540.856z"/>
		<path id="path21378" inkscape:connector-curvature="0" fill="#573758" d="M-1536.928-1107.994c0-3.253-2.636-5.891-5.889-5.891
			c0,0,0,0-0.001,0v5.891H-1536.928z"/>
		<path id="path21380" inkscape:connector-curvature="0" fill="#6D446A" d="M-1538.891-1107.994c0-2.169-1.759-3.928-3.928-3.928
			l0,0v3.928H-1538.891z"/>
		<path id="path21382" inkscape:connector-curvature="0" fill="#6D446A" d="M-1540.855-1107.994c0-1.084-0.879-1.963-1.963-1.963
			c0,0,0,0-0.001,0v1.963H-1540.855z"/>
		<path id="path21384" inkscape:connector-curvature="0" fill="#573758" d="M-1528.13-1128.575c0,3.253,2.637,5.891,5.889,5.891
			c0,0,0,0,0.001,0v-5.891H-1528.13z"/>
		<path id="path21386" inkscape:connector-curvature="0" fill="#6D446A" d="M-1526.166-1128.575c0,2.169,1.759,3.928,3.928,3.928
			l0,0v-3.928H-1526.166z"/>
		<path id="path21388" inkscape:connector-curvature="0" fill="#6D446A" d="M-1524.202-1128.575c0,1.084,0.879,1.963,1.963,1.963
			c0,0,0,0,0.001,0v-1.963H-1524.202z"/>
		<path id="path21390" inkscape:connector-curvature="0" fill="#573758" d="M-1528.13-1107.993c0-3.253,2.637-5.891,5.889-5.891
			c0,0,0,0,0.001,0v5.891H-1528.13z"/>
		<path id="path21392" inkscape:connector-curvature="0" fill="#6D446A" d="M-1526.167-1107.993c0-2.169,1.759-3.928,3.928-3.928
			l0,0v3.928H-1526.167z"/>
		<path id="path21394" inkscape:connector-curvature="0" fill="#6D446A" d="M-1524.202-1107.993c0-1.084,0.879-1.963,1.963-1.963
			c0,0,0,0,0.001,0v1.963H-1524.202z"/>
	</g>
</g>
</svg>
