<?xml version="1.0" encoding="utf-8"?>
<!-- Generator: Adobe Illustrator 24.1.2, SVG Export Plug-In . SVG Version: 6.00 Build 0)  -->
<svg version="1.1"
	 id="svg40786" xmlns:cc="http://creativecommons.org/ns#" xmlns:dc="http://purl.org/dc/elements/1.1/" xmlns:inkscape="http://www.inkscape.org/namespaces/inkscape" xmlns:rdf="http://www.w3.org/1999/02/22-rdf-syntax-ns#" xmlns:sodipodi="http://sodipodi.sourceforge.net/DTD/sodipodi-0.dtd" xmlns:svg="http://www.w3.org/2000/svg"
	 xmlns="http://www.w3.org/2000/svg" xmlns:xlink="http://www.w3.org/1999/xlink" x="0px" y="0px" viewBox="0 0 1 1"
	 enable-background="new 0 0 1 1" xml:space="preserve">
<g id="layer1" transform="translate(-126.8677,-256.04629)" inkscape:groupmode="layer" inkscape:label="Layer 1">
	
		<g id="g20999" transform="matrix(0.04858588,0,0,-0.04858588,202.11751,201.1876)" inkscape:export-filename="C:\Users\Donatas\Documents\ShareX\Screenshots\2019-01\BSMGWaterTileSet.png" inkscape:export-xdpi="450" inkscape:export-ydpi="450">
		<path id="path20980" inkscape:connector-curvature="0" fill="#FF913D" d="M-1528.201-1129.096v-20.581h-20.582v20.581H-1528.201z"
			/>
		<path id="path20986" inkscape:connector-curvature="0" fill="#573758" d="M-1548.784-1143.787c3.253,0,5.891-2.637,5.891-5.889
			c0,0,0,0,0-0.001h-5.891V-1143.787z"/>
		<path id="path20989" inkscape:connector-curvature="0" fill="#6D446A" d="M-1548.784-1145.75c2.169,0,3.928-1.759,3.928-3.928l0,0
			h-3.928V-1145.75z"/>
		<path id="path20991" inkscape:connector-curvature="0" fill="#6D446A" d="M-1548.784-1147.714c1.084,0,1.963-0.879,1.963-1.963
			c0,0,0,0,0-0.001h-1.963V-1147.714z"/>
		<path id="path20993" inkscape:connector-curvature="0" fill="#573758" d="M-1528.201-1143.786c-3.253,0-5.891-2.637-5.891-5.89
			c0,0,0,0,0-0.001h5.891V-1143.786z"/>
		<path id="path20995" inkscape:connector-curvature="0" fill="#6D446A" d="M-1528.201-1145.749c-2.169,0-3.928-1.759-3.928-3.928
			l0,0h3.928V-1145.749z"/>
		<path id="path20997" inkscape:connector-curvature="0" fill="#6D446A" d="M-1528.201-1147.714c-1.084,0-1.963-0.879-1.963-1.963
			c0,0,0,0,0-0.001h1.963V-1147.714z"/>
	</g>
</g>
</svg>
