<?xml version="1.0" ?>
<svg xmlns="http://www.w3.org/2000/svg" xmlns:inkscape="http://www.inkscape.org/namespaces/inkscape" xmlns:sodipodi="http://sodipodi.sourceforge.net/DTD/sodipodi-0.dtd" width="1.2" height="1.2" viewBox="0 0 1.2 1.2" version="1.1" id="svg5" sodipodi:docname="00000000.svg" inkscape:version="1.1 (c68e22c387, 2021-05-23)">
   
  
   <sodipodi:namedview id="namedview7" pagecolor="#171717" bordercolor="#999999" borderopacity="1" inkscape:pageshadow="0" inkscape:pageopacity="0" inkscape:pagecheckerboard="0" inkscape:document-units="px" showgrid="false" units="px" inkscape:zoom="132.81822" inkscape:cx="0.3538671" inkscape:cy="2.2775489" inkscape:window-width="1284" inkscape:window-height="1041" inkscape:window-x="208" inkscape:window-y="0" inkscape:window-maximized="0" inkscape:current-layer="layer1" inkscape:object-paths="true" inkscape:snap-intersection-paths="true" inkscape:snap-smooth-nodes="true" inkscape:snap-midpoints="true" inkscape:snap-object-midpoints="true">
      
    
      <inkscape:grid type="xygrid" id="grid836" originx="-505.57902" originy="275.52767"/>
      
  
   </sodipodi:namedview>
   
  
   <defs id="defs2"/>
   
  
   <g inkscape:label="Layer 1" inkscape:groupmode="layer" id="layer1">
      
    
      <rect style="fill:#002450;fill-opacity:1;stroke:none;stroke-width:37.7953;stroke-linecap:round;stroke-linejoin:round;paint-order:markers stroke fill" id="rect6310-1" width=".7" height=".7" x="0.25" y="0.25"/>
      
    
      <path id="path6312-5" style="fill:#5c4000;fill-opacity:1;stroke:none;stroke-width:37.7953;stroke-linecap:round;stroke-linejoin:round;paint-order:markers stroke fill" d="M 0.2,0 V 0.1 H 0.1 V 0.2 H 0 V 1 H 0.1 V 1.1 H 0.2 V 1.2 H 1 V 1.1 H 1.1 V 1 H 1.2 V 0.2 H 1.1 V 0.1 H 1 V 0 Z m 0,0.2 H 1 V 1 H 0.2 Z" sodipodi:nodetypes="cccccccccccccccccccccccccc"/>
      
    
      <path id="path6314-2" style="fill:#a46c1c;fill-opacity:1;stroke:none;stroke-width:37.7953;stroke-linecap:round;stroke-linejoin:round;paint-order:markers stroke fill" d="M 0.1,0.6 V 0.8 H 0.3 V 0.6 Z m 0.8,0 V 0.8 H 1.1 V 0.6 Z M 0.5,0.9 V 1.1 H 0.7 V 0.9 Z" sodipodi:nodetypes="ccccccccccccccc"/>
      
    
      <path id="path6968-6" style="fill:#a46c1c;fill-opacity:1;stroke:none;stroke-width:37.7953;stroke-linecap:round;stroke-linejoin:round;paint-order:markers stroke fill" d="M 0.5,0.1 0.1,0.4 V 0.8 H 0.3 V 0.45 H 0.9 V 0.8 H 1.1 V 0.4 L 0.7,0.1 Z m 0,0.8 V 1.1 H 0.7 V 0.9 Z" sodipodi:nodetypes="cccccccccccccccc"/>
      
    
      <path id="path7186-2" style="fill:#ff9024;fill-opacity:1;stroke:none;stroke-width:37.7953;stroke-linecap:round;stroke-linejoin:round;paint-order:markers stroke fill" d="M 0.2,0.1 V 0.2 H 0.1 V 0.55 H 0.3 V 0.3 H 0.55 V 0.1 Z m 0.45,0 V 0.3 H 0.9 V 0.55 H 1.1 V 0.2 H 1 V 0.1 Z M 0.1,0.65 V 1 H 0.2 V 1.1 H 0.55 V 0.9 H 0.3 V 0.65 Z m 0.8,0 V 0.9 H 0.65 V 1.1 H 1 V 1 H 1.1 V 0.65 Z"/>
      
    
      <rect style="fill:#602800;fill-opacity:1;stroke-width:37.7953;stroke-linecap:round;stroke-linejoin:round;paint-order:markers stroke fill" id="rect8625-4" width="0.1" height=".15" x=".55" y=".3"/>
      
  
   </g>
   

</svg>
