<?xml version="1.0" encoding="utf-8"?>
<!-- Generator: Adobe Illustrator 24.1.2, SVG Export Plug-In . SVG Version: 6.00 Build 0)  -->
<svg version="1.1" id="Capa_1" xmlns="http://www.w3.org/2000/svg" xmlns:xlink="http://www.w3.org/1999/xlink" x="0px" y="0px"
	 width="1px" height="1.8px" viewBox="0 0 1 1.8" enable-background="new 0 0 1 1.8" xml:space="preserve">
<path id="rect10315" fill="#0A0F32" fill-opacity="0.2" d="M0.1,1.4h0.8C0.955,1.4,1,1.445,1,1.5v0.2c0,0.055-0.045,0.1-0.1,0.1H0.1
	C0.045,1.8,0,1.755,0,1.7V1.5C0,1.445,0.045,1.4,0.1,1.4z"/>
<g>
	<path fill="#413482" d="M1,0.225v1.05C1,1.399,0.899,1.5,0.775,1.5h-0.55C0.101,1.5,0,1.399,0,1.275v-1.05C0,0.101,0.101,0,0.225,0
		h0.55C0.899,0,1,0.101,1,0.225z"/>
	<path fill="#686CB6" d="M0.9,0.25v1.025C0.9,1.343,0.844,1.4,0.775,1.4h-0.55C0.156,1.4,0.1,1.343,0.1,1.275V0.25
		c0-0.083,0.067-0.15,0.15-0.15h0.5C0.833,0.1,0.9,0.167,0.9,0.25z"/>
	<path fill="#50538C" d="M0.9,0.9V1c0,0.082-0.067,0.15-0.15,0.15h-0.5C0.167,1.15,0.1,1.082,0.1,1V0.9
		c0,0.082,0.067,0.15,0.15,0.15h0.5C0.833,1.05,0.9,0.982,0.9,0.9z"/>
	<path fill="#E08E00" d="M0.9,0.25V0.9c0,0.082-0.067,0.15-0.15,0.15h-0.5C0.167,1.05,0.1,0.982,0.1,0.9V0.25
		c0-0.083,0.067-0.15,0.15-0.15h0.5C0.833,0.1,0.9,0.167,0.9,0.25z"/>
	<path fill="#FFD23A" d="M0.9,0.25v0.4c0,0.082-0.067,0.15-0.15,0.15h-0.5C0.167,0.8,0.1,0.732,0.1,0.65v-0.4
		c0-0.083,0.067-0.15,0.15-0.15h0.5C0.833,0.1,0.9,0.167,0.9,0.25z"/>
	<ellipse fill="#6969B2" cx="0.5" cy="0.463" rx="0.35" ry="0.287"/>
	<ellipse fill="#7E8EF1" cx="0.5" cy="0.387" rx="0.35" ry="0.287"/>
	<path fill="#34395D" d="M0.7,0.375c0,0.013-0.002,0.026-0.005,0.037C0.676,0.491,0.595,0.55,0.5,0.55S0.324,0.491,0.305,0.412
		C0.302,0.401,0.3,0.388,0.3,0.375C0.3,0.279,0.389,0.2,0.5,0.2S0.7,0.279,0.7,0.375z"/>
	<ellipse fill="#434A77" cx="0.5" cy="0.412" rx="0.195" ry="0.138"/>
	<ellipse fill="#717ED4" cx="0.5" cy="0.4" rx="0.063" ry="0.05"/>
</g>
</svg>
