<?xml version="1.0" ?>
<svg xmlns="http://www.w3.org/2000/svg" xmlns:xlink="http://www.w3.org/1999/xlink" width="0.9500000000000001" height="1.72236445" viewBox="0 0 0.9500000000000001 1.72236445" version="1.1" id="svg5" xml:space="preserve">
   <defs id="defs2">
      <linearGradient id="linearGradient136242">
         <stop style="stop-color:#000000;stop-opacity:1;" offset="0" id="stop136238"/>
         <stop style="stop-color:#000000;stop-opacity:0;" offset="1" id="stop136240"/>
      </linearGradient>
      <filter style="color-interpolation-filters:sRGB" id="filter134034" x="-0.077976942" y="-0.069468468" width="1.1559539" height="1.1389369">
         <feGaussianBlur stdDeviation="0.5134405" id="feGaussianBlur134036"/>
      </filter>
      <filter style="color-interpolation-filters:sRGB" id="filter134038" x="-0.059217419" y="-0.043234374" width="1.1184348" height="1.0864688">
         <feGaussianBlur stdDeviation="0.46808948" id="feGaussianBlur134040"/>
      </filter>
      <filter style="color-interpolation-filters:sRGB" id="filter134042" x="-0.083560698" y="-0.079058729" width="1.1671214" height="1.1581175">
         <feGaussianBlur stdDeviation="0.56007044" id="feGaussianBlur134044"/>
      </filter>
      <filter style="color-interpolation-filters:sRGB" id="filter134050" x="-0.058636598" y="-0.035117444" width="1.1172732" height="1.0702349">
         <feGaussianBlur stdDeviation="0.43181836" id="feGaussianBlur134052"/>
      </filter>
      <filter style="color-interpolation-filters:sRGB" id="filter134054" x="-0.10042555" y="-0.083337545" width="1.2008511" height="1.1666751">
         <feGaussianBlur stdDeviation="0.543086" id="feGaussianBlur134056"/>
      </filter>
      <linearGradient xlink:href="#linearGradient136242" id="linearGradient136244" x1="444.15146" y1="92.316895" x2="443.56683" y2="93.740456" gradientUnits="userSpaceOnUse"/>
      <linearGradient xlink:href="#linearGradient136242" id="linearGradient136266" x1="442.1875" y1="102.61717" x2="441.70117" y2="103.0202" gradientUnits="userSpaceOnUse"/>
      <linearGradient xlink:href="#linearGradient136242" id="linearGradient136274" x1="445.16791" y1="96.293579" x2="445.5" y2="97.155365" gradientUnits="userSpaceOnUse"/>
      <clipPath clipPathUnits="userSpaceOnUse" id="clipPath136277">
         <path id="path136279" style="opacity:1;fill:#2c4068;fill-opacity:1;stroke:none;stroke-width:4;stroke-linejoin:miter;stroke-dasharray:none;paint-order:markers stroke fill" d="m 442.88672,83.162107 c -1.81994,0.0041 -3.21833,1.113182 -3.57813,2.837896 -0.4592,2.218247 0.90769,4.83658 3.19141,6.113284 v 0.636707 l -1.60547,-0.802728 c -0.0755,-0.190287 -0.18917,-0.363104 -0.33398,-0.507809 -0.58576,-0.58564 -1.53534,-0.58564 -2.1211,0 -0.58564,0.585761 -0.58564,1.535333 0,2.121094 0.38013,0.378518 0.93345,0.525224 1.45118,0.384758 l 2.60937,1.30469 v 7.828121 c -1.37488,-1.01329 -2.6214,-2.43638 -3.67773,-4.285149 -0.0694,-0.13006 -0.15759,-0.24918 -0.26173,-0.353518 -0.58576,-0.585633 -1.53533,-0.585633 -2.12109,0 -0.47058,0.470656 -0.57476,1.195115 -0.25586,1.779297 0.56796,1.44546 2.82416,4.78642 5.81641,6.78125 3,1.99999 7.52344,1.90625 10.02344,0.90625 l -0.002,-0.004 c 0.58675,-0.21754 0.97681,-0.77647 0.97856,-1.40225 0,-0.82843 -0.67157,-1.5 -1.5,-1.5 -0.13065,6.5e-4 -0.26066,0.0184 -0.38672,0.0527 v -0.002 c -0.004,0.002 -0.008,0.002 -0.0117,0.004 -0.0994,0.0284 -0.19563,0.067 -0.28711,0.11523 -1.59346,0.56253 -3.60835,0.13917 -5.32226,-0.51562 0.005,-0.0505 0.008,-0.10237 0.008,-0.1543 v -7.750002 l 2.60742,1.30469 c 0.0752,0.189424 0.18815,0.361545 0.33204,0.505857 0.58576,0.585633 1.53533,0.585633 2.12109,0 0.58564,-0.585761 0.58564,-1.535333 0,-2.121094 -0.37972,-0.377816 -0.9321,-0.524469 -1.44922,-0.384758 l -3.61132,-1.804692 -1e-5,-1.431644 c 1.63815,-0.151167 2.85716,-1.228346 3.18945,-2.81835 0.50736,-2.432195 -1.18006,-5.299067 -3.76953,-6.404309 -0.67287,-0.287206 -1.3663,-0.435083 -2.0332,-0.433591 z m 0.0742,3.738283 c 0,-0.275524 0.56195,0.06092 0.83985,0.17969 1.03022,0.442268 1.72008,1.563711 1.57031,2.552733 -0.41837,0.148462 -0.91433,0.117855 -1.39258,-0.08594 -1.02876,-0.442787 -1.71736,-1.562725 -1.56836,-2.550781 0.17103,-0.06183 0.55078,0.09836 0.55078,-0.0957 z"/>
      </clipPath>
      <linearGradient xlink:href="#linearGradient136242" id="linearGradient136712" x1="442.5" y1="94.940132" x2="441.6687" y2="94.834351" gradientUnits="userSpaceOnUse"/>
      <linearGradient xlink:href="#linearGradient136242" id="linearGradient137147" x1="445.27722" y1="89.601906" x2="444.41016" y2="90.074219" gradientUnits="userSpaceOnUse"/>
      <clipPath clipPathUnits="userSpaceOnUse" id="clipPath137884">
         <path id="path137886" style="opacity:1;fill:#2c4068;fill-opacity:1;stroke:none;stroke-width:4;stroke-linejoin:miter;stroke-dasharray:none;paint-order:markers stroke fill" d="m 442.88672,83.162107 c -1.81994,0.0041 -3.21833,1.113184 -3.57813,2.837896 -0.45919,2.21825 0.90769,4.836575 3.19141,6.113284 v 0.636707 l -1.60547,-0.802728 c -0.0755,-0.190318 -0.18917,-0.363107 -0.33398,-0.507809 -0.58576,-0.585633 -1.53534,-0.585633 -2.1211,0 -0.58563,0.58576 -0.58563,1.535334 0,2.121094 0.38003,0.378613 0.93345,0.525225 1.45118,0.384758 l 2.60937,1.30469 v 7.828121 c -1.37488,-1.01329 -2.6214,-2.43638 -3.67773,-4.285149 -0.0694,-0.130065 -0.15756,-0.249198 -0.26173,-0.353511 -0.58576,-0.585632 -1.53534,-0.585632 -2.1211,0 -0.47058,0.470651 -0.57475,1.195117 -0.25586,1.77929 0.56797,1.44547 2.82417,4.78643 5.81641,6.78126 3,1.99999 7.52345,1.90624 10.02344,0.90625 l -0.002,-0.004 c 0.58677,-0.21757 0.97681,-0.77655 0.97851,-1.40235 0,-0.82843 -0.67157,-1.5 -1.5,-1.5 -0.1306,6.4e-4 -0.26066,0.0184 -0.38672,0.0527 v -0.001 c -0.004,0.002 -0.008,0.002 -0.012,0.004 -0.0994,0.0284 -0.1956,0.0671 -0.28711,0.11523 -1.59346,0.56252 -3.60835,0.13917 -5.32227,-0.51562 0.005,-0.0505 0.008,-0.10239 0.008,-0.1543 v -7.750004 l 2.60742,1.30469 c 0.0752,0.189427 0.18815,0.361543 0.33203,0.505857 0.58576,0.585633 1.53534,0.585633 2.1211,0 0.58563,-0.58576 0.58563,-1.535334 0,-2.121094 -0.37948,-0.378062 -0.9321,-0.524468 -1.44922,-0.384758 l -3.61133,-1.804692 v -1.431644 c 1.63815,-0.151165 2.85716,-1.228344 3.18945,-2.818351 0.50737,-2.432193 -1.18005,-5.299065 -3.76953,-6.404309 -0.67287,-0.287205 -1.3663,-0.435089 -2.03321,-0.43359 z m 0.0742,3.738283 c 0.27552,-3.61e-4 0.56194,0.06092 0.83985,0.17969 1.03021,0.442267 1.72006,1.56371 1.5703,2.552733 -0.41836,0.148464 -0.91432,0.117854 -1.39257,-0.08594 -1.02877,-0.442783 -1.71736,-1.562727 -1.56836,-2.550781 0.17101,-0.06184 0.35673,-0.09409 0.55078,-0.0957 z"/>
      </clipPath>
   </defs>
   <g id="layer1" transform="scale(0.05) translate(-435,-80.552711)">
      <g id="g1546">
         <circle style="fill:#0a0f32;fill-opacity:0.2;stroke:none;stroke-width:4;stroke-linejoin:miter;stroke-dasharray:none;paint-order:markers stroke fill" id="path107774-8" cx="444.5" cy="105.5" r="9.5"/>
         <path id="path140794" style="color:#000000;fill:#202054;fill-opacity:1;stroke-linejoin:round;paint-order:markers stroke fill" d="m 442.88281,82.162109 c -2.22506,0.005 -4.10465,1.486889 -4.55273,3.634766 -0.30769,1.486415 0.0557,3.0089 0.83594,4.347656 -0.51579,0.07422 -1.04122,0.197548 -1.4336,0.589844 -0.96768,0.967894 -0.96768,2.567262 0,3.535156 a 1.0001,1.0001 0 0 0 0.004,0 c 0.49423,0.492811 1.16976,0.665397 1.85156,0.642578 L 441.5,95.869141 v 4.912109 c -0.63575,-0.70273 -1.24212,-1.499719 -1.79297,-2.458984 l -0.004,-0.0059 c -0.11508,-0.214275 -0.26337,-0.411588 -0.43554,-0.583984 -0.9679,-0.967688 -2.56726,-0.967688 -3.53516,0 -0.77113,0.771241 -0.93828,1.962385 -0.43359,2.925778 0.73064,1.80838 2.95441,5.04448 6.14844,7.17383 3.39205,2.26137 8.09645,2.23188 10.97265,0.99414 1.01421,-0.43646 1.58008,-1.45181 1.58008,-2.32422 0,-1.36886 -1.13114,-2.5 -2.5,-2.5 a 1.0001,1.0001 0 0 0 -0.006,0 c -0.21799,0.001 -0.42839,0.029 -0.63672,0.0859 -0.13736,0.0375 -0.26928,0.088 -0.39258,0.14453 -1.03748,0.35891 -2.53955,0.11163 -3.96484,-0.34375 v -5.519529 l 0.95508,0.480468 c 0.0923,0.140275 0.15428,0.298454 0.27344,0.417969 a 1.0001,1.0001 0 0 0 0.002,0.002 c 0.9679,0.967682 2.56726,0.967682 3.53515,0 0.96768,-0.967894 0.96768,-2.569216 0,-3.537109 -0.49445,-0.493051 -1.17167,-0.667667 -1.85351,-0.644531 L 446.5,93.632812 v -0.207031 c 1.54607,-0.494684 2.8252,-1.580592 3.16797,-3.220703 0.47246,-2.26489 -0.51515,-4.641659 -2.3125,-6.232422 -0.59912,-0.530251 -1.2881,-0.974689 -2.04297,-1.296875 -0.78702,-0.335931 -1.6134,-0.515504 -2.42969,-0.513672 z"/>
         <path id="circle124493" style="opacity:1;fill:#2c4068;fill-opacity:1;stroke:none;stroke-width:4;stroke-linejoin:miter;stroke-dasharray:none;paint-order:markers stroke fill" d="m 371.97269,-254.36371 c -1.284,1.28978 -1.48856,3.06284 -0.52342,4.53681 1.24384,1.89324 4.06181,2.77814 6.57941,2.06608 l 0.45022,0.45022 -1.70285,0.56762 c -0.18795,-0.0812 -0.39052,-0.12299 -0.59524,-0.12291 -0.8283,9e-5 -1.49975,0.67154 -1.49984,1.49984 9e-5,0.8283 0.67154,1.49975 1.49984,1.49984 0.53644,-0.001 1.03144,-0.28866 1.2982,-0.75407 l 2.76766,-0.92255 5.53532,5.53532 c -1.68869,0.25568 -3.57639,0.13083 -5.63061,-0.42951 -0.14104,-0.0429 -0.28762,-0.0648 -0.43504,-0.0649 -0.8283,9e-5 -1.49975,0.67154 -1.49984,1.49984 5e-5,0.66555 0.43866,1.25149 1.07723,1.43907 1.42371,0.62049 5.3815,1.38753 8.90789,0.68225 3.53553,-0.70711 6.6678,-3.97196 7.72846,-6.44683 l -0.004,-0.001 c 0.26106,-0.56875 0.1416,-1.23981 -0.2997,-1.68352 -0.58579,-0.58579 -1.53553,-0.58579 -2.12132,0 -0.0919,0.0928 -0.17131,0.19732 -0.23616,0.31074 l -10e-4,-0.001 c -10e-4,0.004 -0.004,0.007 -0.006,0.011 -0.0502,0.0904 -0.0909,0.18573 -0.12154,0.2845 -0.72898,1.52451 -2.45308,2.6499 -4.12801,3.39881 -0.0321,-0.0393 -0.0669,-0.0779 -0.10358,-0.11463 l -5.48008,-5.48008 2.76628,-0.92117 c 0.18709,0.0808 0.38869,0.12261 0.59248,0.12291 0.8283,-9e-5 1.49975,-0.67154 1.49984,-1.49984 -9e-5,-0.8283 -0.67154,-1.49975 -1.49984,-1.49984 -0.53566,0.001 -1.02995,0.28824 -1.29682,0.75269 l -3.8297,1.27748 -1.01233,-1.01232 c 1.05146,-1.26524 1.15175,-2.88889 0.26241,-4.24816 -1.36106,-2.07858 -4.58143,-2.91258 -7.19399,-1.86307 -0.67888,0.27271 -1.27378,0.65847 -1.74429,1.1311 z m 2.69585,2.59088 c 0.19457,-0.19508 0.44043,-0.35427 0.72092,-0.4668 1.0412,-0.41574 2.32198,-0.11056 2.91543,0.69468 -0.19085,0.40081 -0.56319,0.72986 -1.04547,0.92393 -1.04054,0.41435 -2.31937,0.10934 -2.91267,-0.69468 0.0772,-0.16465 0.18571,-0.31878 0.32179,-0.45713 z" transform="rotate(45)"/>
         <g id="g133942" clip-path="url(#clipPath136277)">
            <path id="path125476" style="opacity:1;mix-blend-mode:normal;fill:#586890;fill-opacity:1;stroke:none;stroke-width:4;stroke-linejoin:miter;stroke-dasharray:none;paint-order:markers stroke fill;filter:url(#filter134042)" d="m 441.28125,87.28125 c 0,0 -0.60955,0.971327 -0.375,1.71875 0.23455,0.747423 1.35936,1.853221 2.15625,2 0.79689,0.146779 1.78125,-0.71875 1.78125,-0.71875 z m -1.59375,3.375 c -0.65584,0 -1.1875,0.531662 -1.1875,1.1875 0,0.655838 0.53166,1.1875 1.1875,1.1875 0.65584,0 1.1875,-0.531662 1.1875,-1.1875 0,-0.655838 -0.53166,-1.1875 -1.1875,-1.1875 z m 10.1875,4.40625 c -0.75939,0 -1.375,0.608613 -1.375,1.359375 0,0.750762 0.61561,1.359375 1.375,1.359375 0.75939,0 1.375,-0.608613 1.375,-1.359375 0,-0.750762 -0.61561,-1.359375 -1.375,-1.359375 z m -12.70508,0.933594 c -0.76617,0.01715 -1.44376,0.28048 -1.82617,0.898437 -0.87408,1.412474 1.67075,3.089839 2.625,4.343749 0.95425,1.25391 2.65312,3.38891 3.24219,2.99805 0.58907,-0.39086 0.61098,-0.60083 0.82031,-1.99805 0.20933,-1.39722 -0.41555,-4.305582 -1.90625,-5.312499 -0.83852,-0.566391 -1.97,-0.951734 -2.95508,-0.929687 z" clip-path="none"/>
            <path id="path128349" style="opacity:1;fill:#384864;fill-opacity:1;stroke:none;stroke-width:4;stroke-linejoin:miter;stroke-dasharray:none;paint-order:markers stroke fill;filter:url(#filter134050)" d="m 439.59375,80.5625 c -1.90955,1.187649 -2.51499,3.418927 -1.78125,4.53125 0.73374,1.112323 1.97875,0.365056 3.125,0.09375 1.14625,-0.271306 2.74548,-0.264986 3.75,0.28125 1.00452,0.546236 1.66417,1.340368 2.07387,2.424556 0.4097,1.084188 1.34004,3.268812 -0.74572,3.778569 -2.08577,0.509757 -1.58518,2.679048 -0.40625,2.5625 1.17892,-0.116548 3.77656,-1.963448 4.79687,-3.140625 1.02031,-1.177177 1.43099,-2.38242 1.1875,-4.1875 -0.24349,-1.80508 -1.25304,-4.290378 -3.40625,-5.625 -2.15321,-1.334622 -6.6842,-1.906399 -8.59375,-0.71875 z m -1.14683,9.679917 c -0.38042,0.476213 1.35717,1.439505 1.64683,2.163833 0.28966,0.724328 2.10913,1.612117 2.36206,0.712738 0.25292,-0.89938 0.0556,-0.575058 -0.45581,-0.743988 -0.51143,-0.16893 -3.17266,-2.608796 -3.55308,-2.132583 z M 449.625,96.65625 c -1.00575,0.50486 -1.79054,1.462987 -1.5625,2.40625 0.22804,0.94326 1.32184,1.70724 2.5625,1.46875 1.24066,-0.23849 3.45063,-2.328776 2.875,-3.625 -0.57563,-1.296224 -2.86925,-0.75486 -3.875,-0.25 z m -3.6875,0.5 c -0.90282,-0.569348 -1.47184,-0.67153 -1.46875,0.3125 0.003,0.98403 -0.39892,8.43557 0.5,9.1875 0.89892,0.75193 2.392,-0.48162 1.46875,-1.0625 -0.92325,-0.58088 0.40282,-7.868152 -0.5,-8.4375 z m 7.15625,6.5625 c -0.92808,-0.0504 -4.06875,0.64867 -2.6875,1.46875 1.38125,0.82008 1.21389,1.01447 1.21875,1.53125 0.005,0.51678 -0.39505,0.99305 -2,2.0625 -1.60495,1.06945 2.27498,0.62559 3.375,0 1.10002,-0.62559 2.39315,-2.52832 2.15625,-3.625 -0.2369,-1.09668 -1.13442,-1.38709 -2.0625,-1.4375 z"/>
            <path id="path127991" style="opacity:1;fill:#3c5888;fill-opacity:1;stroke:none;stroke-width:4;stroke-linejoin:miter;stroke-dasharray:none;paint-order:markers stroke fill;filter:url(#filter134034)" d="m 437.58203,89.332031 c -0.43133,0.0025 0.35742,0.588916 0.23047,1.511719 -0.13541,0.984323 3.30559,3.443338 3.59375,2.6875 0.28816,-0.755838 -1.608,-1.139387 -1.48828,-2.474609 0.11973,-1.335222 -1.58864,-1.635394 -2.23242,-1.716797 -0.0402,-0.0051 -0.0748,-0.008 -0.10352,-0.0078 z m 6.84375,0.265625 c -0.216,0.01032 -0.42908,0.1143 -0.61328,0.277344 -0.29472,0.260871 -0.75959,0.866086 -0.40625,1.28125 0.35334,0.415164 1.64329,0.185688 1.90625,-0.28125 0.26296,-0.466938 -0.16153,-1.005458 -0.5,-1.1875 -0.12693,-0.06827 -0.25712,-0.09604 -0.38672,-0.08984 z m 1.64258,4.138672 c -0.0651,0.0018 -0.11551,0.0057 -0.14648,0.01367 -0.49564,0.128061 -0.32791,1.002592 -0.34571,1.742188 -0.0178,0.739595 4.90838,3.408147 6.4961,2.861328 1.58771,-0.54682 0.93075,-1.146872 0.20898,-2.603516 -0.67666,-1.365603 -5.23698,-2.040093 -6.21289,-2.013672 z m -4.4375,7.962892 c -0.0549,0.002 -0.12677,0.0607 -0.28711,0.14453 -0.3665,0.19172 -0.66205,1.30055 -0.53125,1.8125 0.1308,0.51195 0.30947,1.12797 0.90625,0.90625 0.59678,-0.22172 0.47678,-2.09691 0.1875,-2.53125 -0.16272,-0.24432 -0.20484,-0.33465 -0.27539,-0.33203 z m 7.28906,1.46289 c -1.30198,-2.4e-4 -2.47761,0.18577 -2.76172,0.49805 -0.64939,0.71377 -0.76726,1.52284 -0.87695,2.27734 -0.10969,0.7545 0.98573,0.87933 2.125,1.0625 1.13927,0.18317 3.57076,0.024 4.5,-0.65625 0.92924,-0.68022 1.85059,-0.79697 1.03125,-2.125 -0.46088,-0.74702 -2.3436,-1.05633 -4.01758,-1.05664 z" clip-path="none"/>
            <path id="path129314" style="opacity:1;fill:#2c3058;fill-opacity:1;stroke:none;stroke-width:4;stroke-linejoin:miter;stroke-dasharray:none;paint-order:markers stroke fill;filter:url(#filter134038)" d="m 438.98047,85.449219 c -1.07492,0.03502 -2.0202,1.538625 -1.90039,2.607422 0.23203,2.069852 3.0813,2.807401 4.70703,4.109375 0.4279,0.342686 1.0868,0.819673 1.16992,0.550781 0.0684,-0.221193 0.10638,-0.863757 0.01,-1.013672 -0.15663,-0.24302 -1.2168,-0.849203 -1.79883,-1.658203 -0.39826,-0.55356 -0.92323,-0.991657 -1.10352,-1.847656 -0.13533,-0.642552 0.10182,-1.503772 -0.16992,-2.101563 -0.1666,-0.366529 -0.51166,-0.659592 -0.91406,-0.646484 z m 3.85547,0.06641 c -0.47128,-0.0028 -0.87661,0.09418 -1.08594,0.328125 -0.55822,0.623854 -0.47666,1.672332 0.34375,1.59375 0.82041,-0.07858 2.6793,2.037793 2.78125,2.71875 0.10195,0.680957 0.82,0.155975 1.125,-0.09375 0.305,-0.249725 0.39395,-0.491444 0.34375,-1.1875 -0.0502,-0.696056 -0.36031,-2.070398 -1.21875,-2.6875 -0.53652,-0.385689 -1.5036,-0.66726 -2.28906,-0.671875 z m -6.01367,3.654297 c -0.19562,9.17e-4 -0.38092,0.161721 -0.54102,0.548828 -0.85388,2.064573 4.33872,7.346872 5.43555,8.931641 1.09683,1.584765 0.40006,4.331055 0.88086,4.335935 0.4808,0.005 0.83746,1.09609 0.89648,-0.44727 0.059,-1.54336 0.0506,-7.248849 -0.27539,-7.664056 -0.32603,-0.415207 -4.09796,-1.311532 -4.31641,-2.082031 -0.17749,-0.626031 -1.23242,-3.62702 -2.08007,-3.623047 z m 9.06054,6.68164 c -0.26161,-0.0362 -0.10626,1.228704 -0.008,1.648438 0.11251,0.479697 1.62419,1.972463 2.53125,1.90625 0.90706,-0.06621 1.46986,-1.351582 0.28125,-2.0625 -1.18861,-0.710918 -2.2196,-0.874391 -2.66602,-1.390625 -0.0558,-0.06453 -0.10129,-0.09639 -0.13867,-0.101563 z m -10.03515,3.609376 c -0.57193,0.07312 -0.11557,1.546118 -1,2.593748 -1.08854,1.28939 -0.43557,1.5854 1.80859,4.03906 2.24415,2.45366 7.90668,4.06449 11.59375,4.3125 3.68707,0.24801 3.4823,2.26801 3.7793,-0.14648 0.297,-2.4145 2.34779,-3.27908 0.5332,-3.63477 -1.81459,-0.35569 -2.94457,0.78528 -4.96875,0.59375 -2.02418,-0.19153 -4.2978,-0.61301 -6.125,-1.875 -1.8272,-1.26199 -3.58901,-4.86248 -5.03125,-5.687496 -0.27042,-0.15469 -0.45786,-0.212187 -0.58984,-0.195312 z"/>
            <path id="path130679" style="opacity:1;mix-blend-mode:screen;fill:#7c7c8c;fill-opacity:1;stroke:none;stroke-width:4;stroke-linejoin:miter;stroke-dasharray:none;paint-order:markers stroke fill;filter:url(#filter134054)" d="m 443.9375,84.78125 c -0.59126,0.489016 -0.18887,0.76226 0.3125,1.53125 0.50137,0.76899 2.30341,2.919971 3.21875,2.28125 0.91534,-0.638721 -0.0803,-1.932019 -0.71875,-2.65625 -0.63842,-0.724231 -2.22124,-1.645266 -2.8125,-1.15625 z M 448.875,96.75 c -0.21967,0.250058 -0.0364,0.405444 0.15625,0.625 0.19266,0.219556 0.74064,0.568578 1.03125,0.40625 0.29061,-0.162328 0.37912,-0.575145 0.15625,-0.875 -0.22287,-0.299855 -1.12408,-0.406308 -1.34375,-0.15625 z m -11.1875,2.0625 c -0.3236,0.164235 -0.39684,0.616795 -0.25,0.9375 0.14684,0.3207 0.69216,0.64102 1.03125,0.5 0.33909,-0.14102 0.50259,-0.657636 0.34375,-1 -0.15884,-0.342364 -0.8014,-0.601735 -1.125,-0.4375 z"/>
         </g>
         <path id="path141611" style="color:#000000;fill:#202054;fill-opacity:1;paint-order:markers stroke fill" d="m 443.81836,80.552734 c -0.16123,5.25e-4 -0.32427,0.0083 -0.48828,0.02539 -0.65605,0.06837 -1.32748,0.274566 -1.96094,0.666016 l -0.0996,0.0625 -0.082,0.08203 c -1,0.999998 -2.29297,2.373702 -2.29297,4.707031 0,0.842101 0.40591,1.541443 0.89844,2.089844 0.49252,0.5484 1.09999,0.975259 1.73437,1.269531 0.63439,0.294272 1.28583,0.490634 2.01368,0.355469 0.36392,-0.06758 0.76822,-0.254406 1.05273,-0.597656 C 444.87822,88.86964 445,88.421051 445,88 c 0,-0.49621 0.0968,-0.66976 0.3457,-0.972656 0.24893,-0.302897 0.70817,-0.676919 1.25586,-1.22461 0.50592,-0.505913 0.88096,-0.854277 1.16211,-1.359375 0.28116,-0.505096 0.27835,-1.293601 0.0234,-1.798828 -0.48375,-0.958957 -1.43556,-1.577218 -2.58594,-1.902343 -0.43139,-0.121922 -0.89912,-0.191026 -1.38281,-0.189454 z"/>
         <path style="color:#000000;fill:#38a8f0;stroke-width:2;paint-order:markers stroke fill" d="m 444,88 c 0,2 -4.10524,0.0957 -4.10524,-1.904297 0,-2 1,-3 2,-4 2.00144,-1.236807 4.42566,-0.138528 5,1 0.31848,0.631327 0,1 -1,2 -1,1 -1.89476,1.490083 -1.89476,2.904297 z" id="path141613"/>
         <g id="g137880" clip-path="url(#clipPath137884)" style="opacity:0.701531;mix-blend-mode:soft-light">
            <path style="opacity:1;fill:url(#linearGradient136244);fill-opacity:1;stroke:none;stroke-width:4;stroke-linejoin:miter;stroke-dasharray:none;paint-order:markers stroke fill" d="m 442.5,92.113287 c 1.30588,0.670131 2.0746,0.700595 3,0.70507 l 10e-6,1.431644 c -0.44496,0.140149 -0.63057,0.602681 -0.70775,0.922152 -1.57975,-0.846204 -1.61779,-0.07728 -2.29226,-1.245489 z" id="path135510"/>
            <path style="opacity:1;fill:url(#linearGradient136274);fill-opacity:1;stroke:none;stroke-width:4;stroke-linejoin:miter;stroke-dasharray:none;paint-order:markers stroke fill" d="m 445.50001,98.630347 -0.67234,1.369773 -0.041,-4.267172 c 0.0369,0.413302 0.43643,0.95267 0.71326,1.01705 z" id="path136256"/>
            <path style="opacity:1;fill:url(#linearGradient136266);fill-opacity:1;stroke:none;stroke-width:4;stroke-linejoin:miter;stroke-dasharray:none;paint-order:markers stroke fill" d="m 442.5,103.07812 v 0 0.875 c 0,0.55555 0.33102,0.91579 0.70693,1.13282 l -1.75381,-0.24219 -0.96093,-1.64063 -0.1718,-2.2174 z" id="path136258"/>
            <path style="opacity:1;fill:url(#linearGradient136712);fill-opacity:1;stroke:none;stroke-width:4;stroke-linejoin:miter;stroke-dasharray:none;paint-order:markers stroke fill" d="M 442.5,95.249999 V 94.50701 c -0.3341,0.279055 -1.08039,0.07145 -1.95604,-0.235039 z" id="path136704"/>
            <path style="opacity:1;fill:url(#linearGradient137147);fill-opacity:1;stroke:none;stroke-width:4;stroke-linejoin:miter;stroke-dasharray:none;paint-order:markers stroke fill" d="M 445.37108,89.632813 C 445.27764,90 444.86601,90.220207 444.42433,90.36458 l -1.74074,-0.52083 1.39453,-0.636719 z" id="path137139"/>
         </g>
      </g>
   </g>
</svg>
