<?xml version="1.0" encoding="UTF-8" standalone="no"?>
<!-- Created with Inkscape (http://www.inkscape.org/) -->

<svg
   width="1"
   height="1.875"
   viewBox="0 0 1 1.875"
   version="1.1"
   id="svg5"
   sodipodi:docname="biodome_wall_2.svg"
   inkscape:version="1.1 (c68e22c387, 2021-05-23)"
   xmlns:inkscape="http://www.inkscape.org/namespaces/inkscape"
   xmlns:sodipodi="http://sodipodi.sourceforge.net/DTD/sodipodi-0.dtd"
   xmlns:xlink="http://www.w3.org/1999/xlink"
   xmlns="http://www.w3.org/2000/svg"
   xmlns:svg="http://www.w3.org/2000/svg">
  <sodipodi:namedview
     id="namedview7"
     pagecolor="#171717"
     bordercolor="#999999"
     borderopacity="1"
     inkscape:pageshadow="0"
     inkscape:pageopacity="0"
     inkscape:pagecheckerboard="0"
     inkscape:document-units="px"
     showgrid="false"
     units="px"
     inkscape:zoom="256"
     inkscape:cx="0.4609375"
     inkscape:cy="1.2949219"
     inkscape:window-width="1284"
     inkscape:window-height="1041"
     inkscape:window-x="208"
     inkscape:window-y="0"
     inkscape:window-maximized="0"
     inkscape:current-layer="layer1"
     inkscape:object-paths="true"
     inkscape:snap-intersection-paths="true"
     inkscape:snap-smooth-nodes="true"
     inkscape:snap-midpoints="true"
     inkscape:snap-object-midpoints="true">
    <inkscape:grid
       type="xygrid"
       id="grid836"
       originx="-3.2807045e-16"
       originy="0" />
  </sodipodi:namedview>
  <defs
     id="defs2">
    <linearGradient
       inkscape:collect="always"
       xlink:href="#linearGradient3381"
       id="linearGradient71517"
       gradientUnits="userSpaceOnUse"
       gradientTransform="translate(-10,-117.5)"
       x1="20"
       y1="142"
       x2="20"
       y2="136" />
    <linearGradient
       inkscape:collect="always"
       id="linearGradient3381">
      <stop
         style="stop-color:#086ca0;stop-opacity:1"
         offset="0"
         id="stop3377" />
      <stop
         style="stop-color:#38ace8;stop-opacity:1"
         offset="1"
         id="stop3379" />
    </linearGradient>
  </defs>
  <g
     inkscape:label="Layer 1"
     inkscape:groupmode="layer"
     id="layer1">
    <g
       id="g156378"
       transform="scale(0.05)"
       style="stroke-width:20">
      <rect
         style="fill:#0a0f32;fill-opacity:0.2;stroke:none;stroke-width:80;stroke-linecap:square;stroke-linejoin:round;stroke-miterlimit:4;stroke-dasharray:none;paint-order:markers stroke fill"
         id="rect71497"
         width="20"
         height="13"
         x="3.6313665e-08"
         y="24.5"
         ry="2" />
      <path
         id="path71499"
         style="color:#000000;fill:#002c64;fill-opacity:1;stroke-width:80;-inkscape-stroke:none"
         d="M 2,7.5 C 0.89543104,7.5 3.6313665e-8,8.39543 3.6313665e-8,9.5 v 10 L 8.0918,32.5 h 3.81641 L 20,19.5 v -10 c 0,-1.10457 -0.89543,-2 -2,-2 z"
         sodipodi:nodetypes="csccccscc" />
      <path
         style="fill:url(#linearGradient71517);fill-opacity:1;stroke:none;stroke-width:20px;stroke-linecap:butt;stroke-linejoin:miter;stroke-opacity:1"
         d="m 9,30.5 h 2 l 7,-8 v -11 H 2 v 11 z"
         id="path71501" />
      <path
         id="path71503"
         style="color:#000000;fill:#00441c;fill-opacity:1;stroke-width:20;stroke-linejoin:round;-inkscape-stroke:none;paint-order:markers stroke fill"
         d="M 10,0.5 C 8.61667,0.5 7.23676,0.63168 5.97852,0.92773 4.720262,1.22379 3.557341,1.61453 2.585938,2.58594 0.99668404,4.17519 0.70625304,6.40159 1.027344,8.32812 1.348435,10.25467 2.232386,12.06051 3.585938,13.41406 5.29304,15.12117 7.66667,15.5 10,15.5 c 2.33333,0 4.70696,-0.37883 6.41406,-2.08594 1.35355,-1.35355 2.23751,-3.15939 2.5586,-5.08594 0.32109,-1.92653 0.0307,-4.15293 -1.5586,-5.74218 C 16.44266,1.61453 15.27973,1.22379 14.02148,0.92773 12.76324,0.63168 11.38333,0.5 10,0.5 Z m 7.98633,15.99805 c -0.34855,0.002 -0.70609,0.0967 -1.03906,0.30273 C 13.58592,18.88341 11.24405,21.88686 10,25.54102 8.75595,21.88686 6.41409,18.88341 3.052734,16.80078 2.750016,16.61343 2.40278,16.51027 2.046875,16.50195 c -0.35604,-0.009 -0.708005,0.0774 -1.019531,0.25 C 0.39305604,17.10503 -1.3796369e-4,17.77406 3.6313665e-8,18.5 v 7 C 3.6313665e-8,27.44444 0.68187704,29.26 1.960938,30.53906 3.239997,31.81812 5.05556,32.5 7,32.5 H 9 C 9.40357,32.4891 9.79439,32.35633 10.12109,32.11914 10.37889,32.3154 10.68051,32.4461 11,32.5 h 2 c 1.94444,0 3.76,-0.68188 5.03906,-1.96094 C 19.31812,29.26 20,27.44444 20,25.5 v -7 c -7.5e-4,-1.17471 -0.96803,-2.00705 -2.01367,-2.00195 z" />
      <path
         style="fill:#00b030;fill-opacity:1;stroke:none;stroke-width:20px;stroke-linecap:butt;stroke-linejoin:miter;stroke-opacity:1"
         d="m 2,18.5 v 7 c 0,3 1.999997,5 5,5 H 9 C 8.67674,25.10766 6.27982,21.1517 2,18.5 Z"
         id="path71505"
         sodipodi:nodetypes="ccccc" />
      <path
         style="fill:#08c04c;fill-opacity:1;stroke:none;stroke-width:20px;stroke-linecap:butt;stroke-linejoin:miter;stroke-opacity:1"
         d="m 18,18.5 v 7 c 0,3 -2,5 -5,5 h -2 c 0.32327,-5.39234 2.72019,-9.3483 7,-12 z"
         id="path71507"
         sodipodi:nodetypes="ccccc" />
      <path
         id="path71519"
         style="fill:#00b030;fill-opacity:1;stroke:none;stroke-width:20px;stroke-linecap:butt;stroke-linejoin:miter;stroke-opacity:1"
         d="M 10,2.5 C 7.5,2.5 5,3 4,4 c -2,2 -1,6 1,8 2,2 8,2 10,0 2,-2 3,-6 1,-8 C 15,3 12.5,2.5 10,2.5 Z m 0,3.75 c 1.06699,0 2.13397,0.25 3,0.75 1.73205,1 0,2.73205 -1,3 -1,0.26795 -3,0.26795 -4,0 C 7,9.73205 5.26795,8 7,7 7.86603,6.5 8.93301,6.25 10,6.25 Z" />
      <rect
         style="fill:#901084;fill-opacity:1;stroke:none;stroke-width:60;stroke-linecap:square;stroke-linejoin:round;stroke-miterlimit:4;stroke-dasharray:none;paint-order:markers stroke fill"
         id="rect71523"
         width="6"
         height="9"
         x="7"
         y="0"
         ry="3" />
      <rect
         style="fill:#a408c0;fill-opacity:1;stroke:none;stroke-width:60;stroke-linecap:square;stroke-linejoin:round;stroke-miterlimit:4;stroke-dasharray:none;paint-order:markers stroke fill"
         id="rect71525"
         width="2"
         height="5"
         x="9"
         y="2"
         ry="1" />
      <path
         id="rect71527"
         style="fill:#c818e8;fill-opacity:1;stroke:none;stroke-width:60;stroke-linecap:square;stroke-linejoin:round;stroke-miterlimit:4;stroke-dasharray:none;paint-order:markers stroke fill"
         d="M 10,2 C 9.446,2 9,2.446 9,3 h 2 C 11,2.446 10.554,2 10,2 Z" />
    </g>
  </g>
</svg>
