<?xml version="1.0" encoding="utf-8"?>
<!-- Generator: Adobe Illustrator 24.1.2, SVG Export Plug-In . SVG Version: 6.00 Build 0)  -->
<svg version="1.1" id="Capa_1" xmlns="http://www.w3.org/2000/svg" xmlns:xlink="http://www.w3.org/1999/xlink" x="0px" y="0px"
	 width="1px" height="1.7px" viewBox="0 0 1 1.7" enable-background="new 0 0 1 1.7" xml:space="preserve">
<g>
	<g>
		<circle id="circle16099" fill="#0A0F32" fill-opacity="0.2" cx="0.5" cy="1.2" r="0.5"/>
	</g>
</g>
<g>
	<path id="path16824" fill="#24226A" d="M0.5,0C0.111,0,0,0.403,0,0.65v0.1C0,0.997,0.111,1.4,0.5,1.4C0.889,1.4,1,0.997,1,0.75
		v-0.1C1,0.403,0.889,0,0.5,0z"/>
	<path id="path16838" fill="#324195" d="M0.5,0.1c-0.128,0-0.246,0.07-0.307,0.183C0.129,0.392,0.1,0.541,0.1,0.65v0.1
		c0,0.109,0.027,0.258,0.091,0.368C0.255,1.227,0.34,1.3,0.5,1.3s0.246-0.073,0.309-0.182C0.873,1.008,0.9,0.859,0.9,0.75v-0.1
		c0-0.106-0.028-0.25-0.088-0.359C0.752,0.174,0.632,0.1,0.5,0.1z"/>
	<path fill="#4E50A0" d="M0.85,0.449c0,0.001,0,0.001,0,0.001c0,0.193-0.157,0.35-0.35,0.35S0.15,0.643,0.15,0.45
		c0-0.141,0.083-0.262,0.203-0.318c0.033-0.016,0.07-0.026,0.109-0.03C0.474,0.101,0.487,0.1,0.5,0.1
		c0.154,0,0.284,0.098,0.331,0.236C0.843,0.371,0.85,0.41,0.85,0.449z"/>
	<ellipse id="ellipse16830" fill="#473C93" cx="0.5" cy="0.45" rx="0.2" ry="0.2"/>
	<path id="path16832" fill="#3A338D" d="M0.5,0.25c-0.11,0-0.2,0.09-0.2,0.2c0,0.026,0.005,0.051,0.015,0.075
		C0.345,0.45,0.419,0.4,0.5,0.4c0.081,0,0.155,0.05,0.185,0.125C0.695,0.501,0.7,0.476,0.7,0.45C0.7,0.34,0.61,0.25,0.5,0.25
		L0.5,0.25z"/>
	<path id="path6400" fill="#2B2C8A" d="M0.11,0.585C0.103,0.625,0.1,0.665,0.1,0.7v0.017C0.16,0.886,0.32,1,0.5,1
		c0.18,0,0.34-0.114,0.4-0.283V0.7c0-0.035-0.003-0.074-0.01-0.115C0.851,0.769,0.688,0.9,0.5,0.9C0.312,0.9,0.149,0.769,0.11,0.585
		L0.11,0.585z"/>
	<path id="ellipse16901" fill="#403D75" d="M0.11,0.535C0.103,0.575,0.1,0.615,0.1,0.65v0.017C0.16,0.836,0.32,0.95,0.5,0.95
		c0.18,0,0.34-0.114,0.4-0.283V0.65c0-0.035-0.003-0.074-0.01-0.115C0.851,0.719,0.688,0.85,0.5,0.85
		C0.312,0.85,0.149,0.719,0.11,0.535L0.11,0.535z"/>
	<path id="path6402" fill="#2B2C8A" d="M0.113,0.65C0.109,0.66,0.104,0.671,0.101,0.682C0.1,0.688,0.1,0.694,0.1,0.7v0.05
		C0.1,0.716,0.105,0.682,0.113,0.65L0.113,0.65z M0.887,0.652C0.896,0.684,0.9,0.717,0.9,0.75c0,0.221-0.179,0.4-0.4,0.4
		c0,0,0,0,0,0c-0.21,0-0.384-0.162-0.399-0.372c0.004,0.104,0.031,0.235,0.088,0.335C0.269,1.201,0.382,1.25,0.5,1.25
		c0.118,0,0.231-0.05,0.312-0.137C0.874,1.004,0.9,0.858,0.9,0.75V0.7c0-0.005,0-0.011-0.001-0.017
		C0.896,0.673,0.892,0.662,0.887,0.652L0.887,0.652z"/>
	<path id="path16905" fill="#403D75" d="M0.113,0.6C0.109,0.61,0.104,0.621,0.101,0.632C0.1,0.638,0.1,0.644,0.1,0.65V0.7
		C0.1,0.666,0.105,0.632,0.113,0.6L0.113,0.6z M0.1,0.7v0.05C0.1,0.823,0.113,0.915,0.14,1C0.218,1.124,0.354,1.2,0.5,1.2
		c0.146,0,0.282-0.075,0.36-0.199C0.887,0.915,0.9,0.823,0.9,0.75v-0.1c0-0.005,0-0.011-0.001-0.017
		C0.896,0.622,0.892,0.612,0.887,0.601C0.896,0.633,0.9,0.667,0.9,0.7c0,0.221-0.179,0.4-0.4,0.4c0,0,0,0,0,0
		C0.279,1.1,0.1,0.921,0.1,0.7L0.1,0.7L0.1,0.7z"/>
	<path fill="#7995CC" d="M0.85,0.449C0.799,0.481,0.739,0.5,0.675,0.5c-0.18,0-0.325-0.146-0.325-0.325
		c0-0.015,0.001-0.029,0.003-0.043c0.033-0.016,0.07-0.026,0.109-0.03C0.474,0.101,0.487,0.1,0.5,0.1
		c0.154,0,0.284,0.098,0.331,0.236C0.843,0.371,0.85,0.41,0.85,0.449z"/>
	<path fill="#B6C7E6" d="M0.831,0.336C0.791,0.376,0.736,0.4,0.675,0.4C0.551,0.4,0.45,0.299,0.45,0.175
		c0-0.026,0.004-0.049,0.012-0.073C0.474,0.101,0.487,0.1,0.5,0.1C0.654,0.1,0.784,0.198,0.831,0.336z"/>
</g>
</svg>
