<?xml version="1.0" encoding="UTF-8" standalone="no"?>
<!-- Created with Inkscape (http://www.inkscape.org/) -->

<svg
   width="1.0000082"
   height="1.5500001"
   viewBox="0 0 1.0000082 1.5500001"
   version="1.1"
   id="svg5"
   sodipodi:docname="blue_bucket.svg"
   inkscape:version="1.2 (dc2aedaf03, 2022-05-15)"
   xml:space="preserve"
   xmlns:inkscape="http://www.inkscape.org/namespaces/inkscape"
   xmlns:sodipodi="http://sodipodi.sourceforge.net/DTD/sodipodi-0.dtd"
   xmlns="http://www.w3.org/2000/svg"
   xmlns:svg="http://www.w3.org/2000/svg"><sodipodi:namedview
     id="namedview7"
     pagecolor="#171717"
     bordercolor="#999999"
     borderopacity="1"
     inkscape:pageshadow="0"
     inkscape:pageopacity="0"
     inkscape:pagecheckerboard="0"
     inkscape:document-units="px"
     showgrid="true"
     units="px"
     inkscape:zoom="187.83334"
     inkscape:cx="0.37000886"
     inkscape:cy="1.2617568"
     inkscape:window-width="3440"
     inkscape:window-height="1417"
     inkscape:window-x="-8"
     inkscape:window-y="-8"
     inkscape:window-maximized="1"
     inkscape:current-layer="layer1"
     inkscape:object-paths="true"
     inkscape:snap-intersection-paths="true"
     inkscape:snap-smooth-nodes="true"
     inkscape:snap-midpoints="true"
     inkscape:snap-object-midpoints="true"
     showguides="true"
     inkscape:snap-global="true"
     inkscape:showpageshadow="0"
     inkscape:deskcolor="#171717"><inkscape:grid
       type="xygrid"
       id="grid836"
       originx="0"
       originy="0" /></sodipodi:namedview><defs
     id="defs2"><linearGradient
       id="linearGradient48485"
       inkscape:swatch="solid"><stop
         style="stop-color:#ffa420;stop-opacity:1;"
         offset="0"
         id="stop48483" /></linearGradient></defs><g
     inkscape:label="Layer 1"
     inkscape:groupmode="layer"
     id="layer1"><g
       id="g13248"
       transform="scale(0.05)"><ellipse
         style="fill:#0a0f32;fill-opacity:0.2;fill-rule:nonzero;stroke:none;stroke-width:3.99999;stroke-linecap:round;stroke-linejoin:round;stroke-miterlimit:4;stroke-dasharray:none;stroke-dashoffset:0;stroke-opacity:1;paint-order:markers fill stroke"
         id="ellipse3144-2-1-6-2"
         cx="10.000126"
         cy="21.000034"
         rx="10.000038"
         ry="9.9999676" /><path
         id="path92718"
         style="color:#000000;fill:#281840;fill-opacity:1;stroke-width:3.99999;stroke-linecap:round;stroke-linejoin:round;paint-order:markers fill stroke"
         d="M 7.000024,0 C 3.156624,0 0,3.156601 0,6.999999 V 13.5 v 3 c 0,1.43602 0.398704,2.7759 1.000024,3.996094 v 0.004 c 0,4.75373 4.13027,8.49975 9,8.49999 4.86969,-2.4e-4 9,-3.74626 9,-8.49999 v -0.004 C 19.601314,19.2759 20.000014,17.93602 20.000014,16.5 v -3 -6.500001 C 20.000014,3.156601 16.843384,0 13.000024,0 Z" /><path
         id="ellipse71558"
         style="fill:#201c50;fill-opacity:1;stroke:none;stroke-width:3.99999;stroke-linecap:round;stroke-linejoin:round;stroke-miterlimit:4;stroke-dasharray:none;paint-order:markers fill stroke"
         d="m 3.000004,17.935548 v 2.564446 c 0,3.58972 3.1339,6.49981 7.00002,6.50001 3.86608,-2e-4 6.99999,-2.91029 6.99999,-6.50001 v -2.564446 z"
         sodipodi:nodetypes="cssscc" /><path
         id="ellipse71556"
         style="fill:#443478;fill-opacity:1;stroke:none;stroke-width:3.99999;stroke-linecap:round;stroke-linejoin:round;stroke-miterlimit:4;stroke-dasharray:none;paint-order:markers fill stroke"
         d="m 2.000014,13.5 v 3 c 0,4.141984 3.58171,7.499804 8.00001,7.500004 4.41827,-2e-4 7.99998,-3.35802 7.99998,-7.500004 v -3 z"
         sodipodi:nodetypes="cssscc" /><path
         id="rect71562"
         style="fill:#007cb8;fill-opacity:1;stroke:none;stroke-width:3.99999;stroke-linecap:round;stroke-linejoin:round;stroke-miterlimit:4;stroke-dasharray:none;paint-order:markers fill stroke"
         d="m 7.000024,2.000001 c -2.77002,0 -5.00001,2.229997 -5.00001,4.999998 l 7e-5,6.500009 h 3 l -7e-5,-6.500009 c 0,-1.107999 0.892,-1.999998 2.00001,-1.999998 h 6 c 1.10797,0 1.99998,0.891999 1.99998,1.999998 l 1.1e-4,6.500009 h 3 l -1.1e-4,-6.500009 c 0,-2.770001 -2.23,-4.999998 -4.99998,-4.999998 z"
         sodipodi:nodetypes="ssccssssccsss" /><path
         id="path73281"
         style="fill:#005c8c;fill-opacity:1;stroke:none;stroke-width:3.99999;stroke-linecap:round;stroke-linejoin:round;stroke-miterlimit:4;stroke-dasharray:none;paint-order:markers fill stroke"
         d="m 7.000024,3.999999 c -1.10801,0 -2.00001,0.892002 -2.00001,2.000001 v 0.999999 c 0,-1.107999 0.892,-1.999998 2.00001,-1.999998 h 6 c 1.10797,0 1.99998,0.891999 1.99998,1.999998 V 6 c 0,-1.107999 -0.89201,-2.000001 -1.99998,-2.000001 z" /><ellipse
         style="fill:#503c98;fill-opacity:1;stroke:none;stroke-width:3.99999;stroke-linecap:round;stroke-linejoin:round;stroke-miterlimit:4;stroke-dasharray:none;paint-order:markers fill stroke"
         id="ellipse71550"
         cx="9.9996605"
         cy="13.500004"
         rx="8.0003929"
         ry="7.5000019" /><path
         id="ellipse71552"
         style="fill:#241848;fill-opacity:1;stroke:none;stroke-width:3.99999;stroke-linecap:round;stroke-linejoin:round;stroke-miterlimit:4;stroke-dasharray:none;paint-order:markers fill stroke"
         d="M 10.000024,8.812498 A 5.0000242,4.6872933 0 0 0 5.000014,13.5 a 5.0000242,4.6872933 0 0 0 0.25776,1.476559 5.0000242,4.6872933 0 0 1 4.74221,-3.208981 5.0000242,4.6872933 0 0 1 4.74218,3.207031 A 5.0000242,4.6872933 0 0 0 14.999924,13.5 5.0000242,4.6872933 0 0 0 9.999944,8.812498 Z" /><path
         id="ellipse82562"
         style="fill:#00a420;fill-opacity:1;stroke:none;stroke-width:3.99999;stroke-linecap:round;stroke-linejoin:round;stroke-miterlimit:4;stroke-dasharray:none;paint-order:markers fill stroke"
         d="m 10.000024,11.767578 a 5.0000242,4.6872933 0 0 0 -4.74221,3.208981 5.0000242,4.6872933 0 0 0 4.74221,3.210939 5.0000242,4.6872933 0 0 0 4.74217,-3.212889 5.0000242,4.6872933 0 0 0 -4.74217,-3.207031 z" /></g></g></svg>
