<?xml version="1.0" encoding="utf-8"?>
<!-- Generator: Adobe Illustrator 24.1.2, SVG Export Plug-In . SVG Version: 6.00 Build 0)  -->
<svg version="1.1" id="Capa_1" xmlns="http://www.w3.org/2000/svg" xmlns:xlink="http://www.w3.org/1999/xlink" x="0px" y="0px"
	 width="1px" height="1.55px" viewBox="0 0 1 1.55" enable-background="new 0 0 1 1.55" xml:space="preserve">
<g>
	<g>
		<circle id="circle16099" fill="#0A0F32" fill-opacity="0.2" cx="0.5" cy="1.05" r="0.5"/>
	</g>
</g>
<g>
	<path fill="#2D2A3D" d="M1,0.75c0,0.276-0.224,0.5-0.5,0.5S0,1.026,0,0.75c0-0.187,0.103-0.351,0.255-0.436
		C0.31,0.245,0.399,0.2,0.5,0.2s0.19,0.045,0.245,0.114C0.897,0.399,1,0.563,1,0.75z"/>
	<path fill="#68638D" d="M0.9,0.75c0,0.104-0.039,0.198-0.104,0.268c0,0,0,0-0.001,0.001C0.723,1.099,0.617,1.15,0.5,1.15
		c-0.221,0-0.4-0.179-0.4-0.4c0-0.196,0.142-0.36,0.329-0.393C0.452,0.352,0.476,0.35,0.5,0.35C0.721,0.35,0.9,0.529,0.9,0.75z"/>
	<path fill="#8680B3" d="M0.9,0.75c0,0.104-0.039,0.198-0.104,0.268c0,0,0,0-0.001,0.001C0.773,1.023,0.749,1.025,0.725,1.025
		c-0.221,0-0.4-0.179-0.4-0.4c0-0.104,0.039-0.198,0.104-0.268C0.452,0.352,0.476,0.35,0.5,0.35C0.721,0.35,0.9,0.529,0.9,0.75z"/>
	<path fill="#A09AD0" d="M0.775,0.65c0,0.055-0.045,0.1-0.1,0.1c-0.024,0-0.046-0.009-0.064-0.024
		c0.066-0.029,0.115-0.083,0.132-0.149C0.762,0.595,0.775,0.621,0.775,0.65z"/>
	<path fill="#595478" d="M0.75,0.525c0,0.018-0.002,0.035-0.007,0.052c-0.017,0.065-0.066,0.12-0.132,0.149
		C0.577,0.741,0.54,0.75,0.5,0.75c-0.138,0-0.25-0.101-0.25-0.225S0.362,0.3,0.5,0.3S0.75,0.401,0.75,0.525z"/>
	<ellipse fill="#68638D" cx="0.5" cy="0.5" rx="0.225" ry="0.2"/>
	<ellipse fill="#8680B3" cx="0.5" cy="0.463" rx="0.2" ry="0.162"/>
	<ellipse fill="#595379" cx="0.5" cy="0.4" rx="0.125" ry="0.1"/>
	<g>
		<path fill="#9E682D" d="M0.746,0.07c0.01,0.035,0.002,0.069-0.019,0.093C0.72,0.17,0.713,0.176,0.707,0.182
			c-0.001,0-0.001,0-0.001,0.001C0.655,0.233,0.618,0.296,0.598,0.367c-0.002,0.005-0.003,0.01-0.004,0.015
			C0.581,0.421,0.544,0.45,0.5,0.45c-0.052,0-0.095-0.04-0.1-0.09V0.358c0-0.009,0.001-0.017,0.002-0.026
			C0.402,0.33,0.402,0.329,0.402,0.328c0.014-0.126,0.083-0.236,0.183-0.304c0-0.001,0.002-0.001,0.002-0.001
			c0.008-0.005,0.016-0.01,0.024-0.015h0.001c0.015-0.007,0.033-0.009,0.05-0.007C0.7,0.005,0.735,0.033,0.746,0.07z"/>
		<path fill="#EEAA66" d="M0.695,0.106c0,0.014-0.005,0.026-0.014,0.035C0.679,0.143,0.677,0.145,0.673,0.147
			c-0.06,0.049-0.105,0.121-0.124,0.207v0.001C0.548,0.356,0.548,0.359,0.548,0.362v0.001C0.541,0.383,0.523,0.398,0.5,0.398
			c-0.028,0-0.05-0.022-0.05-0.05c0-0.004,0.001-0.007,0.001-0.01C0.466,0.219,0.53,0.12,0.619,0.068
			c0.003-0.003,0.006-0.004,0.009-0.006C0.629,0.062,0.629,0.062,0.63,0.062c0.005-0.002,0.012-0.004,0.018-0.004
			C0.674,0.058,0.695,0.079,0.695,0.106z"/>
	</g>
</g>
</svg>
