<?xml version="1.0" encoding="utf-8"?>
<!-- Generator: Adobe Illustrator 24.1.2, SVG Export Plug-In . SVG Version: 6.00 Build 0)  -->
<svg version="1.1" id="Capa_1" xmlns="http://www.w3.org/2000/svg" xmlns:xlink="http://www.w3.org/1999/xlink" x="0px" y="0px"
	 viewBox="0 0 1 1.75" enable-background="new 0 0 1 1.75" xml:space="preserve">
<g>
	<g>
		<g>
			<circle id="circle16099" fill="#0A0F32" fill-opacity="0.2" cx="0.5" cy="1.25" r="0.5"/>
		</g>
	</g>
	<ellipse fill="#824D0C" cx="0.5" cy="1.025" rx="0.45" ry="0.425"/>
	<path fill="#BD8637" d="M0.85,1.025c0,0.179-0.157,0.325-0.35,0.325S0.15,1.204,0.15,1.025c0-0.017,0.002-0.034,0.005-0.05
		C0.18,0.819,0.325,0.7,0.5,0.7s0.32,0.119,0.345,0.275C0.848,0.991,0.85,1.008,0.85,1.025z"/>
	<ellipse fill="#FFD150" cx="0.5" cy="0.975" rx="0.345" ry="0.275"/>
	<ellipse fill="#313131" cx="0.5" cy="0.925" rx="0.2" ry="0.175"/>
	<path fill="#69798E" d="M0.575,0.85v0.1c0,0.023-0.016,0.043-0.037,0.048C0.533,0.999,0.53,1,0.525,1h-0.05
		c-0.027,0-0.05-0.023-0.05-0.05v-0.1c0-0.027,0.023-0.05,0.05-0.05h0.05c0.005,0,0.008,0.001,0.013,0.002
		C0.559,0.807,0.575,0.827,0.575,0.85z"/>
	<path fill="#788D8E" d="M0.575,0.85v0.1c0,0.023-0.016,0.043-0.037,0.048C0.516,0.993,0.5,0.973,0.5,0.95v-0.1
		c0-0.023,0.016-0.043,0.038-0.048C0.559,0.807,0.575,0.827,0.575,0.85z"/>
	<path fill="#671F24" d="M0.153,0.35C0.153,0.35,0,0.341,0,0.576C0,0.737,0.301,0.75,0.301,0.75S0.262,0.9,0.514,0.9
		s0.284-0.112,0.284-0.282S0.766,0.35,0.153,0.35z"/>
	<path fill="#671F24" d="M0.153,0.35C0.153,0.35,0.096,0,0.5,0S1,0.073,1,0.35s-0.304,0.3-0.425,0.3s-0.278,0.003-0.278-0.1
		S0.153,0.415,0.153,0.35z"/>
	<path fill="#A4323B" d="M0.575,0.85c-0.146,0-0.203-0.011-0.223-0.073C0.346,0.757,0.344,0.732,0.344,0.7
		c0,0-0.011-0.001-0.028-0.002C0.268,0.693,0.213,0.69,0.136,0.655c-0.001,0-0.046-0.021-0.065-0.059
		c-0.005-0.01-0.008-0.021-0.008-0.033c0-0.155,0.075-0.163,0.11-0.169C0.185,0.392,0.214,0.4,0.214,0.4
		c0.015,0.007,0.052,0.03,0.073,0.07v0.001c0.01,0.017,0.016,0.037,0.017,0.061c0.003,0.058,0.041,0.081,0.079,0.09
		c0.081,0.02,0.214,0.035,0.352,0.013l0.009-0.002C0.743,0.633,0.768,0.85,0.575,0.85z"/>
	<path fill="#A4313C" d="M0.932,0.345c0,0.037-0.007,0.07-0.02,0.096c-0.054,0.12-0.208,0.143-0.301,0.147
		C0.6,0.59,0.589,0.59,0.58,0.59c-0.1,0-0.216,0.001-0.23-0.082C0.33,0.39,0.229,0.379,0.229,0.325c0,0-0.027-0.164,0.123-0.234
		C0.392,0.072,0.446,0.06,0.518,0.06H0.54C0.856,0.063,0.932,0.124,0.932,0.345z"/>
	<path fill="#EB4451" d="M0.287,0.485c0,0.076-0.061,0.137-0.137,0.137c-0.03,0-0.057-0.01-0.08-0.026
		c-0.005-0.01-0.008-0.021-0.008-0.033c0-0.155,0.075-0.163,0.11-0.169C0.184,0.392,0.213,0.4,0.213,0.4
		c0.015,0.007,0.052,0.03,0.073,0.07v0.001C0.287,0.476,0.287,0.48,0.287,0.485z"/>
	<path fill="#F14652" d="M0.932,0.345c0,0.037-0.007,0.07-0.02,0.096c-0.054,0.12-0.208,0.143-0.301,0.147
		C0.448,0.55,0.327,0.402,0.327,0.226c0-0.048,0.009-0.093,0.025-0.135C0.392,0.072,0.446,0.06,0.518,0.06H0.54
		C0.856,0.063,0.932,0.124,0.932,0.345z"/>
	<path fill="#F2848A" d="M0.932,0.345c0,0.037-0.007,0.07-0.02,0.096c-0.04,0.024-0.087,0.037-0.137,0.037
		C0.623,0.479,0.5,0.355,0.5,0.204c0-0.053,0.015-0.102,0.04-0.143C0.856,0.063,0.932,0.124,0.932,0.345z"/>
	<ellipse transform="matrix(0.5 -0.866 0.866 0.5 0.2351 0.757)" fill="#F2D2D8" cx="0.773" cy="0.175" rx="0.05" ry="0.075"/>
</g>
</svg>
