<?xml version="1.0" encoding="utf-8"?>
<!-- Generator: Adobe Illustrator 24.1.2, SVG Export Plug-In . SVG Version: 6.00 Build 0)  -->
<svg version="1.1" id="Capa_1" xmlns="http://www.w3.org/2000/svg" xmlns:xlink="http://www.w3.org/1999/xlink" x="0px" y="0px"
	 width="1px" height="1.5px" viewBox="0 0 1 1.5" enable-background="new 0 0 1 1.5" xml:space="preserve">
<g>
	<path fill="#270D75" d="M0,0.35L0,1.5h1V0.75c0-0.221-0.179-0.4-0.4-0.4H0z"/>
	<path fill="#6666D1" d="M0,0.4L0,1c0.027,0,0.052,0.011,0.07,0.029C0.089,1.048,0.1,1.073,0.1,1.1v0.4h0.8V0.8
		c0-0.221-0.159-0.4-0.355-0.4H0z"/>
	<path fill="#3031A4" d="M0,1l0,0.15c0.027,0,0.052,0.011,0.07,0.029C0.089,1.198,0.1,1.223,0.1,1.25V1.1
		c0-0.027-0.011-0.052-0.03-0.071C0.052,1.011,0.027,1,0,1z"/>
	<path fill="#46479D" d="M0,0.95L0,1h0.05c0.027,0,0.052,0.011,0.07,0.029C0.139,1.048,0.15,1.073,0.15,1.1V0.95H0z"/>
	<path fill="#004546" d="M0,0l0,0.95h0.15V1.5h0.7V0.45C0.85,0.201,0.648,0,0.4,0L0,0z"/>
	<path fill="#00815C" d="M0,0.1l0,0.75h0.25V1.5h0.5V0.45c0-0.054-0.012-0.105-0.034-0.15C0.674,0.211,0.595,0.143,0.5,0.114
		C0.468,0.105,0.435,0.1,0.4,0.1H0z"/>
	
		<linearGradient id="SVGID_1_" gradientUnits="userSpaceOnUse" x1="0.5" y1="1.175" x2="0.75" y2="1.175" gradientTransform="matrix(-1 0 0 1 1 0)">
		<stop  offset="0" style="stop-color:#00815C;stop-opacity:0"/>
		<stop  offset="1" style="stop-color:#00544D"/>
	</linearGradient>
	<polygon fill="url(#SVGID_1_)" points="0.25,1.5 0.5,1.5 0.5,0.85 0.25,0.85 	"/>
	
		<linearGradient id="SVGID_2_" gradientUnits="userSpaceOnUse" x1="0.25" y1="0.975" x2="0.5" y2="0.975" gradientTransform="matrix(-1 0 0 1 1 0)">
		<stop  offset="0" style="stop-color:#00544D"/>
		<stop  offset="1" style="stop-color:#00815C;stop-opacity:0"/>
	</linearGradient>
	<rect x="0.5" y="0.45" fill="url(#SVGID_2_)" width="0.25" height="1.05"/>
	
		<linearGradient id="SVGID_3_" gradientUnits="userSpaceOnUse" x1="0.642" y1="0.3" x2="0.642" y2="0.1" gradientTransform="matrix(-1 0 0 1 1 0)">
		<stop  offset="0" style="stop-color:#00815C;stop-opacity:0"/>
		<stop  offset="1" style="stop-color:#008D6A"/>
	</linearGradient>
	<path fill="url(#SVGID_3_)" d="M0,0.1l0,0.2h0.716C0.674,0.211,0.595,0.143,0.5,0.114C0.468,0.105,0.435,0.1,0.4,0.1H0z"/>
	
		<radialGradient id="SVGID_4_" cx="-941.7485" cy="-126.8476" r="0.3313" gradientTransform="matrix(1.028679e-13 -1 -0.68 -6.995016e-14 -86.0048 -940.9009)" gradientUnits="userSpaceOnUse">
		<stop  offset="0" style="stop-color:#00544D"/>
		<stop  offset="1" style="stop-color:#00815C;stop-opacity:0"/>
	</radialGradient>
	<path fill="url(#SVGID_4_)" d="M0.25,0.85V0.5h0c0.193,0,0.35,0.157,0.35,0.35v0H0.25z"/>
	
		<linearGradient id="SVGID_5_" gradientUnits="userSpaceOnUse" x1="0.875" y1="0.5" x2="0.875" y2="0.85" gradientTransform="matrix(-1 0 0 1 1 0)">
		<stop  offset="0" style="stop-color:#00815C;stop-opacity:0"/>
		<stop  offset="1" style="stop-color:#00544D"/>
	</linearGradient>
	<polygon fill="url(#SVGID_5_)" points="0,0.5 0.25,0.5 0.25,0.85 0,0.85 	"/>
	
		<linearGradient id="SVGID_6_" gradientUnits="userSpaceOnUse" x1="0.25" y1="0.2822" x2="0.5" y2="0.2822" gradientTransform="matrix(-1 0 0 1 1 0)">
		<stop  offset="0" style="stop-color:#00544D"/>
		<stop  offset="1" style="stop-color:#00815C;stop-opacity:0"/>
	</linearGradient>
	<path fill="url(#SVGID_6_)" d="M0.5,0.114V0.45h0.25C0.75,0.291,0.645,0.157,0.5,0.114z"/>
	<g>
		<path opacity="0.15" d="M0.36,0.403c0.022,0.002,0.042-0.01,0.051-0.03C0.432,0.326,0.46,0.239,0.413,0.173
			C0.364,0.105,0.28,0.097,0.236,0.097c-0.018,0-0.035,0.01-0.043,0.026C0.17,0.163,0.135,0.246,0.185,0.316
			C0.231,0.382,0.313,0.398,0.36,0.403z"/>
		
			<linearGradient id="SVGID_7_" gradientUnits="userSpaceOnUse" x1="-33.6202" y1="62.6748" x2="-33.6202" y2="62.961" gradientTransform="matrix(-0.9859 -0.1671 -0.1671 0.9859 -22.3903 -67.3338)">
			<stop  offset="0" style="stop-color:#009874"/>
			<stop  offset="1" style="stop-color:#00815C"/>
		</linearGradient>
		<path fill="url(#SVGID_7_)" d="M0.12,0.218c0.002,0.023,0.009,0.047,0.025,0.069C0.191,0.353,0.273,0.37,0.32,0.374
			c0.021,0.002,0.042-0.01,0.051-0.03c0.004-0.009,0.008-0.019,0.012-0.03C0.4,0.265,0.411,0.198,0.373,0.144
			C0.324,0.076,0.239,0.068,0.196,0.069c-0.018,0-0.035,0.01-0.043,0.026C0.137,0.121,0.116,0.169,0.12,0.218z"/>
		<path fill="#00805C" d="M0.12,0.218c0.002,0.023,0.009,0.047,0.025,0.069C0.191,0.353,0.273,0.37,0.32,0.374
			c0.021,0.002,0.042-0.01,0.051-0.03c0.004-0.009,0.008-0.019,0.012-0.03c0-0.028-0.007-0.058-0.026-0.084
			C0.31,0.161,0.225,0.153,0.181,0.153c-0.018,0-0.035,0.01-0.043,0.026C0.132,0.19,0.125,0.203,0.12,0.218z"/>
	</g>
	<g>
		<path opacity="0.2" d="M0.676,0.983C0.655,0.989,0.633,0.98,0.621,0.962C0.593,0.92,0.552,0.838,0.588,0.765
			C0.625,0.69,0.707,0.668,0.751,0.662c0.018-0.003,0.036,0.005,0.047,0.019C0.826,0.717,0.874,0.793,0.836,0.87
			C0.8,0.942,0.722,0.972,0.676,0.983z"/>
		
			<linearGradient id="SVGID_8_" gradientUnits="userSpaceOnUse" x1="-889.2327" y1="-146.7219" x2="-889.2327" y2="-146.4357" gradientTransform="matrix(0.9466 -0.3224 0.3224 0.9466 889.6798 -147.1269)">
			<stop  offset="0" style="stop-color:#009874"/>
			<stop  offset="1" style="stop-color:#00815C"/>
		</linearGradient>
		<path fill="url(#SVGID_8_)" d="M0.806,0.767C0.808,0.79,0.805,0.814,0.793,0.839c-0.036,0.072-0.114,0.102-0.16,0.114
			C0.612,0.958,0.589,0.949,0.577,0.931C0.572,0.923,0.566,0.914,0.56,0.903C0.537,0.858,0.516,0.793,0.545,0.734
			C0.582,0.66,0.664,0.638,0.707,0.632C0.725,0.629,0.743,0.636,0.754,0.65C0.774,0.674,0.802,0.718,0.806,0.767z"/>
		<path fill="#00805C" d="M0.806,0.767C0.808,0.79,0.805,0.814,0.793,0.839c-0.036,0.072-0.114,0.102-0.16,0.114
			C0.612,0.958,0.589,0.949,0.577,0.931C0.572,0.923,0.566,0.914,0.56,0.903C0.556,0.875,0.558,0.844,0.572,0.815
			c0.037-0.074,0.119-0.096,0.163-0.102C0.753,0.71,0.771,0.717,0.782,0.732C0.789,0.741,0.798,0.753,0.806,0.767z"/>
	</g>
	<g>
		<path opacity="0.2" d="M0.269,1.208c0,0.012,0.001,0.025,0.003,0.038c0.006,0.04,0.022,0.083,0.059,0.12
			c0.064,0.065,0.148,0.06,0.195,0.049C0.552,1.41,0.572,1.392,0.58,1.367c0.001-0.002,0.001-0.004,0.002-0.005
			c0.014-0.048,0.023-0.129-0.048-0.201C0.476,1.104,0.409,1.098,0.358,1.106C0.307,1.113,0.269,1.157,0.269,1.208z"/>
		
			<linearGradient id="SVGID_9_" gradientUnits="userSpaceOnUse" x1="0.6086" y1="1.0442" x2="0.6086" y2="1.3628" gradientTransform="matrix(-1 0 0 1 1 0)">
			<stop  offset="0" style="stop-color:#009874"/>
			<stop  offset="1" style="stop-color:#00815C"/>
		</linearGradient>
		<path fill="url(#SVGID_9_)" d="M0.23,1.149c0,0.012,0.001,0.025,0.003,0.038c0.006,0.04,0.022,0.083,0.059,0.12
			c0.064,0.065,0.148,0.06,0.195,0.049c0.026-0.005,0.046-0.024,0.054-0.048c0.001-0.002,0.001-0.004,0.002-0.005
			c0.014-0.048,0.023-0.129-0.048-0.201C0.437,1.045,0.37,1.039,0.319,1.047C0.268,1.054,0.23,1.098,0.23,1.149z"/>
		<path fill="#00805C" d="M0.233,1.187c0.006,0.04,0.022,0.083,0.059,0.12c0.064,0.065,0.148,0.06,0.195,0.049
			c0.026-0.005,0.046-0.024,0.054-0.048c0.001-0.002,0.001-0.004,0.002-0.005C0.539,1.266,0.524,1.226,0.486,1.188
			C0.428,1.131,0.361,1.125,0.31,1.132C0.276,1.137,0.248,1.158,0.233,1.187z"/>
	</g>
</g>
</svg>
