<?xml version="1.0" encoding="utf-8"?>
<!-- Generator: Adobe Illustrator 24.1.2, SVG Export Plug-In . SVG Version: 6.00 Build 0)  -->
<svg version="1.1" id="Capa_1" xmlns="http://www.w3.org/2000/svg" xmlns:xlink="http://www.w3.org/1999/xlink" x="0px" y="0px"
	 width="1px" height="1.8px" viewBox="0 0 1 1.8" enable-background="new 0 0 1 1.8" xml:space="preserve">
<g>
	<path fill="#0A0F32" fill-opacity="0.2" d="M0,1.8h0.8c0.055,0,0.1-0.045,0.1-0.1V1.45c0-0.055-0.045-0.1-0.1-0.1H0V1.8z"/>
</g>
<g>
	<path fill="#270D75" d="M0,0.45L0,1.5h0.65c0.138,0,0.25-0.112,0.25-0.25v-0.1C0.961,1.104,1,1.032,1,0.95V0.7
		c0-0.102-0.062-0.19-0.15-0.229C0.82,0.457,0.786,0.45,0.75,0.45H0z"/>
	<path fill="#2E1790" d="M0,1.15L0,1.4h0.65c0.083,0,0.15-0.068,0.15-0.15V1.099c-0.01,0.008-0.02,0.014-0.031,0.02
		C0.734,1.139,0.693,1.15,0.65,1.15H0z"/>
	<path fill="#3031A4" d="M0,0.55l0,0.6h0.65c0.043,0,0.084-0.011,0.119-0.031C0.78,1.113,0.79,1.107,0.8,1.099
		c0.016-0.011,0.03-0.025,0.042-0.04l0.001-0.001C0.879,1.015,0.9,0.96,0.9,0.9V0.7c0-0.044-0.02-0.084-0.05-0.112
		C0.823,0.564,0.788,0.55,0.75,0.55H0z"/>
	<path fill="#251182" d="M0,1.15l0,0.1h0.6c0.043,0,0.084-0.011,0.119-0.031C0.73,1.213,0.74,1.207,0.75,1.199
		c0.016-0.011,0.03-0.025,0.042-0.04l0.001-0.001C0.795,1.155,0.798,1.152,0.8,1.149v-0.05c-0.01,0.008-0.02,0.014-0.031,0.02
		C0.734,1.139,0.693,1.15,0.65,1.15H0z"/>
	<path fill="#6168D2" d="M0,0.55L0,1h0.65C0.788,1,0.9,0.887,0.9,0.75V0.7c0-0.044-0.02-0.084-0.05-0.112
		C0.823,0.564,0.788,0.55,0.75,0.55H0z"/>
	<path fill="#46479D" d="M0,0.95L0,1h0.55c0.082,0,0.154-0.04,0.199-0.101C0.708,0.932,0.657,0.95,0.6,0.95H0z"/>
	<path fill="#004546" d="M0,0l0,0.95h0.6c0.057,0,0.108-0.018,0.149-0.051C0.811,0.854,0.85,0.782,0.85,0.7V0.25
		C0.85,0.112,0.738,0,0.6,0L0,0z"/>
	<path fill="#00815C" d="M0,0.1l0,0.75h0.6c0.083,0,0.15-0.068,0.15-0.15V0.25c0-0.083-0.067-0.15-0.15-0.15H0z"/>
	
		<linearGradient id="SVGID_1_" gradientUnits="userSpaceOnUse" x1="0.625" y1="0.3" x2="0.625" y2="0.1" gradientTransform="matrix(-1 0 0 1 1 0)">
		<stop  offset="0" style="stop-color:#00815C;stop-opacity:0"/>
		<stop  offset="1" style="stop-color:#008D6A"/>
	</linearGradient>
	<path fill="url(#SVGID_1_)" d="M0,0.1l0,0.2h0.75V0.25c0-0.083-0.067-0.15-0.15-0.15H0z"/>
	
		<linearGradient id="SVGID_2_" gradientUnits="userSpaceOnUse" x1="0.625" y1="0.5" x2="0.625" y2="0.85" gradientTransform="matrix(-1 0 0 1 1 0)">
		<stop  offset="0" style="stop-color:#00815C;stop-opacity:0"/>
		<stop  offset="1" style="stop-color:#00544C"/>
	</linearGradient>
	<path fill="url(#SVGID_2_)" d="M0,0.5l0,0.35h0.6c0.083,0,0.15-0.067,0.15-0.15V0.5H0z"/>
	<g>
		<path opacity="0.2" d="M0.314,0.52c0.003,0.01,0.01,0.018,0.02,0.023c0.001,0.001,0.002,0.002,0.004,0.002
			c0.046,0.019,0.179,0.06,0.276-0.037C0.684,0.438,0.699,0.351,0.7,0.291c0-0.017-0.001-0.031-0.002-0.043
			C0.696,0.231,0.684,0.217,0.667,0.214C0.606,0.2,0.456,0.18,0.365,0.27C0.274,0.361,0.299,0.476,0.314,0.52z"/>
		
			<linearGradient id="SVGID_3_" gradientUnits="userSpaceOnUse" x1="0.5451" y1="0.1637" x2="0.5451" y2="0.5322" gradientTransform="matrix(-1 0 0 1 1 0)">
			<stop  offset="0" style="stop-color:#009874"/>
			<stop  offset="1" style="stop-color:#00815C"/>
		</linearGradient>
		<path fill="url(#SVGID_3_)" d="M0.269,0.482c0.003,0.01,0.01,0.018,0.02,0.023C0.29,0.506,0.291,0.507,0.293,0.507
			c0.046,0.019,0.179,0.06,0.276-0.037C0.639,0.4,0.654,0.313,0.655,0.253c0-0.017-0.001-0.031-0.002-0.043
			C0.652,0.193,0.639,0.179,0.622,0.176C0.561,0.162,0.411,0.142,0.321,0.232C0.23,0.323,0.255,0.438,0.269,0.482z"/>
		<path fill="#00815C" d="M0.289,0.505C0.29,0.506,0.291,0.507,0.293,0.507c0.046,0.019,0.179,0.06,0.276-0.037
			C0.639,0.4,0.654,0.313,0.655,0.253C0.655,0.252,0.654,0.252,0.654,0.252C0.593,0.239,0.442,0.218,0.352,0.308
			C0.287,0.373,0.281,0.45,0.289,0.505z"/>
	</g>
	<g>
		<path opacity="0.2" d="M0.32,0.849C0.342,0.847,0.36,0.832,0.366,0.81c0.013-0.049,0.025-0.139-0.032-0.197
			C0.275,0.555,0.19,0.561,0.146,0.569C0.129,0.572,0.114,0.584,0.108,0.602C0.092,0.645,0.072,0.732,0.133,0.793
			C0.19,0.85,0.273,0.853,0.32,0.849z"/>
		
			<linearGradient id="SVGID_4_" gradientUnits="userSpaceOnUse" x1="0.7932" y1="0.5207" x2="0.7932" y2="0.8069" gradientTransform="matrix(-1 0 0 1 1 0)">
			<stop  offset="0" style="stop-color:#009874"/>
			<stop  offset="1" style="stop-color:#00815C"/>
		</linearGradient>
		<path fill="url(#SVGID_4_)" d="M0.069,0.686C0.075,0.708,0.086,0.73,0.105,0.75c0.057,0.057,0.141,0.06,0.188,0.056
			c0.021-0.002,0.04-0.017,0.046-0.039c0.002-0.01,0.005-0.02,0.007-0.032c0.007-0.05,0.007-0.118-0.04-0.164
			C0.247,0.512,0.162,0.518,0.119,0.526C0.101,0.529,0.087,0.541,0.081,0.559C0.07,0.588,0.057,0.638,0.069,0.686z"/>
		<path fill="#00805C" d="M0.069,0.686C0.075,0.708,0.086,0.73,0.105,0.75c0.057,0.057,0.141,0.06,0.188,0.056
			c0.021-0.002,0.04-0.017,0.046-0.039c0.002-0.01,0.005-0.02,0.007-0.032c-0.005-0.028-0.017-0.056-0.04-0.079
			C0.247,0.598,0.162,0.604,0.119,0.612C0.101,0.615,0.087,0.627,0.081,0.645C0.077,0.656,0.072,0.67,0.069,0.686z"/>
	</g>
</g>
</svg>
