<?xml version="1.0" encoding="utf-8"?>
<!-- Generator: Adobe Illustrator 24.1.2, SVG Export Plug-In . SVG Version: 6.00 Build 0)  -->
<svg version="1.1" id="Capa_1" xmlns="http://www.w3.org/2000/svg" xmlns:xlink="http://www.w3.org/1999/xlink" x="0px" y="0px"
	 width="1px" height="1.8px" viewBox="0 0 1 1.8" enable-background="new 0 0 1 1.8" xml:space="preserve">
<g>
	<g>
		<rect y="1.35" fill="#0A0F32" fill-opacity="0.2" width="1" height="0.45"/>
	</g>
</g>
<g>
	<rect y="0.45" fill="#270D75" width="1" height="1.05"/>
	<rect y="0.95" fill="#2E1790" width="1" height="0.45"/>
	<rect y="0.95" fill="#251182" width="1" height="0.3"/>
	<rect y="0.95" fill="#3031A4" width="1" height="0.2"/>
	<rect y="0.95" fill="#46479D" width="1" height="0.05"/>
	<rect fill="#004546" width="1" height="0.95"/>
	<rect y="0.1" fill="#00815C" width="1" height="0.75"/>
	<linearGradient id="SVGID_1_" gradientUnits="userSpaceOnUse" x1="0.5" y1="0.5" x2="0.5" y2="0.85">
		<stop  offset="0" style="stop-color:#00815C;stop-opacity:0"/>
		<stop  offset="1" style="stop-color:#00544D"/>
	</linearGradient>
	<rect y="0.5" fill="url(#SVGID_1_)" width="1" height="0.35"/>
	<linearGradient id="SVGID_2_" gradientUnits="userSpaceOnUse" x1="0.5" y1="0.3" x2="0.5" y2="0.1">
		<stop  offset="0" style="stop-color:#00815C;stop-opacity:0"/>
		<stop  offset="1" style="stop-color:#008D6A"/>
	</linearGradient>
	<rect y="0.1" fill="url(#SVGID_2_)" width="1" height="0.2"/>
	<g>
		<path opacity="0.2" d="M0.536,0.412c-0.003,0.01-0.01,0.018-0.02,0.023C0.515,0.436,0.514,0.436,0.512,0.437
			C0.466,0.456,0.334,0.497,0.237,0.4C0.166,0.329,0.151,0.242,0.15,0.182c0-0.017,0.001-0.031,0.002-0.043
			c0.002-0.017,0.014-0.031,0.031-0.035c0.061-0.013,0.211-0.034,0.302,0.056C0.576,0.252,0.551,0.368,0.536,0.412z"/>
		<linearGradient id="SVGID_3_" gradientUnits="userSpaceOnUse" x1="0.3951" y1="0.055" x2="0.3951" y2="0.4235">
			<stop  offset="0" style="stop-color:#009874"/>
			<stop  offset="1" style="stop-color:#00815C"/>
		</linearGradient>
		<path fill="url(#SVGID_3_)" d="M0.581,0.373c-0.003,0.01-0.01,0.018-0.02,0.023C0.56,0.397,0.559,0.398,0.557,0.398
			c-0.046,0.019-0.179,0.06-0.276-0.037c-0.071-0.07-0.086-0.157-0.087-0.217c0-0.017,0.001-0.031,0.002-0.043
			C0.198,0.084,0.211,0.07,0.228,0.067c0.061-0.013,0.211-0.034,0.302,0.056C0.62,0.214,0.595,0.329,0.581,0.373z"/>
		<path fill="#00815C" d="M0.561,0.396C0.56,0.397,0.559,0.398,0.557,0.398c-0.046,0.019-0.179,0.06-0.276-0.037
			c-0.071-0.07-0.086-0.157-0.087-0.217c0.001-0.001,0.001-0.001,0.001-0.001C0.257,0.13,0.408,0.109,0.498,0.199
			C0.563,0.264,0.569,0.341,0.561,0.396z"/>
	</g>
	<g>
		<path opacity="0.2" d="M0.634,0.587C0.612,0.585,0.594,0.57,0.588,0.549C0.576,0.5,0.563,0.409,0.621,0.352
			C0.68,0.293,0.764,0.299,0.808,0.307C0.826,0.31,0.84,0.323,0.846,0.34c0.016,0.043,0.036,0.131-0.025,0.191
			C0.765,0.588,0.681,0.591,0.634,0.587z"/>
		<linearGradient id="SVGID_4_" gradientUnits="userSpaceOnUse" x1="0.7473" y1="0.2589" x2="0.7473" y2="0.5451">
			<stop  offset="0" style="stop-color:#009874"/>
			<stop  offset="1" style="stop-color:#00815C"/>
		</linearGradient>
		<path fill="url(#SVGID_4_)" d="M0.885,0.424C0.879,0.446,0.868,0.468,0.849,0.488c-0.057,0.057-0.141,0.06-0.188,0.056
			c-0.021-0.002-0.04-0.017-0.046-0.039c-0.002-0.01-0.005-0.02-0.007-0.032c-0.007-0.05-0.007-0.118,0.04-0.164
			C0.707,0.25,0.792,0.256,0.835,0.264c0.018,0.003,0.033,0.015,0.039,0.033C0.884,0.326,0.897,0.376,0.885,0.424z"/>
		<path fill="#00805C" d="M0.885,0.424C0.879,0.446,0.868,0.468,0.849,0.488c-0.057,0.057-0.141,0.06-0.188,0.056
			c-0.021-0.002-0.04-0.017-0.046-0.039c-0.002-0.01-0.005-0.02-0.007-0.032c0.005-0.028,0.017-0.056,0.04-0.079
			C0.707,0.336,0.792,0.342,0.835,0.35c0.018,0.003,0.033,0.015,0.039,0.033C0.877,0.394,0.882,0.408,0.885,0.424z"/>
	</g>
</g>
</svg>
