<?xml version="1.0" encoding="utf-8"?>
<!-- Generator: Adobe Illustrator 24.1.2, SVG Export Plug-In . SVG Version: 6.00 Build 0)  -->
<svg version="1.1" id="Capa_1" xmlns="http://www.w3.org/2000/svg" xmlns:xlink="http://www.w3.org/1999/xlink" x="0px" y="0px"
	 width="1px" height="2.3px" viewBox="0 0 1 2.3" enable-background="new 0 0 1 2.3" xml:space="preserve">
<g>
	<path fill="#0A0F32" fill-opacity="0.2" d="M0.187,2.3H1V1.5H0.1v0.713C0.1,2.261,0.139,2.3,0.187,2.3z"/>
</g>
<g>
	<path fill="#270D75" d="M0,0l0,1.45c0,0.082,0.039,0.154,0.1,0.2v0.1C0.1,1.888,0.213,2,0.35,2H1V0L0,0z"/>
	<path fill="#2E1790" d="M0.2,1.599V1.75c0,0.082,0.067,0.15,0.15,0.15H1V1.65H0.35c-0.043,0-0.084-0.011-0.119-0.031
		C0.22,1.613,0.21,1.607,0.2,1.599z"/>
	<path fill="#251182" d="M0.2,1.599v0.05c0.002,0.003,0.005,0.006,0.007,0.009l0.001,0.001C0.22,1.674,0.234,1.688,0.25,1.699
		c0.01,0.008,0.02,0.014,0.031,0.02C0.316,1.739,0.357,1.75,0.4,1.75H1v-0.1H0.35c-0.043,0-0.084-0.011-0.119-0.031
		C0.22,1.613,0.21,1.607,0.2,1.599z"/>
	<path fill="#3031A4" d="M0.1,1v0.4c0,0.06,0.021,0.115,0.057,0.158l0.001,0.001C0.17,1.574,0.184,1.587,0.2,1.599
		c0.01,0.008,0.02,0.014,0.031,0.02C0.266,1.639,0.307,1.65,0.35,1.65H1V1H0.1z"/>
	<path fill="#6168D2" d="M0.1,0v1.15c0,0.192,0.158,0.35,0.35,0.35H1V1.05H0.9V0L0.1,0z"/>
	<path fill="#46479D" d="M0.28,1.37C0.343,1.449,0.441,1.5,0.55,1.5H1V1.45H0.5C0.417,1.45,0.339,1.42,0.28,1.37z"/>
	<path fill="#004546" d="M0.15,0v1.1c0,0.109,0.051,0.207,0.13,0.27c0.06,0.05,0.137,0.08,0.22,0.08H1V0.5H0.85V0L0.15,0z"/>
	<path fill="#00815C" d="M0.25,0v1.1c0,0.138,0.112,0.25,0.25,0.25H1V0.6H0.75V0L0.25,0z"/>
	<rect x="0.25" transform="matrix(-1 -4.365587e-11 4.365587e-11 -1 1 0.6)" fill="#00815C" width="0.5" height="0.6"/>
	
		<linearGradient id="SVGID_1_" gradientUnits="userSpaceOnUse" x1="0.5" y1="0.5" x2="0.75" y2="0.5" gradientTransform="matrix(-1 0 0 1 1 0)">
		<stop  offset="0" style="stop-color:#00815C;stop-opacity:0"/>
		<stop  offset="1" style="stop-color:#00544D"/>
	</linearGradient>
	<polygon fill="url(#SVGID_1_)" points="0.25,1 0.5,1 0.5,0 0.25,0 	"/>
	
		<radialGradient id="SVGID_2_" cx="0.4959" cy="-16.5698" r="0.2526" gradientTransform="matrix(-1 0 0 1.3615 0.9964 23.5629)" gradientUnits="userSpaceOnUse">
		<stop  offset="0" style="stop-color:#00815C;stop-opacity:0"/>
		<stop  offset="1" style="stop-color:#00544D"/>
	</radialGradient>
	<path fill="url(#SVGID_2_)" d="M0.5,1v0.35h0c-0.138,0-0.25-0.112-0.25-0.25V1H0.5z"/>
	
		<radialGradient id="SVGID_3_" cx="0.2495" cy="0.6017" r="0.2485" gradientTransform="matrix(-1 0 0 1 1 0)" gradientUnits="userSpaceOnUse">
		<stop  offset="0" style="stop-color:#00544D"/>
		<stop  offset="1" style="stop-color:#00815C;stop-opacity:0"/>
	</radialGradient>
	<path fill="url(#SVGID_3_)" d="M0.75,0.6v0.25h0C0.612,0.85,0.5,0.738,0.5,0.6v0H0.75z"/>
	
		<linearGradient id="SVGID_4_" gradientUnits="userSpaceOnUse" x1="0.125" y1="0.8" x2="0.125" y2="0.6" gradientTransform="matrix(-1 0 0 1 1 0)">
		<stop  offset="0" style="stop-color:#00815C;stop-opacity:0"/>
		<stop  offset="1" style="stop-color:#008D6A"/>
	</linearGradient>
	<rect x="0.75" y="0.6" fill="url(#SVGID_4_)" width="0.25" height="0.2"/>
	
		<radialGradient id="SVGID_5_" cx="-1057.2505" cy="0.6017" r="0.2485" gradientTransform="matrix(1 0 0 1 1058 0)" gradientUnits="userSpaceOnUse">
		<stop  offset="0" style="stop-color:#00544D"/>
		<stop  offset="1" style="stop-color:#00815C;stop-opacity:0"/>
	</radialGradient>
	<path fill="url(#SVGID_5_)" d="M0.75,0.6v0.25h0C0.888,0.85,1,0.738,1,0.6v0H0.75z"/>
	
		<linearGradient id="SVGID_6_" gradientUnits="userSpaceOnUse" x1="0.25" y1="0.3" x2="0.5" y2="0.3" gradientTransform="matrix(-1 0 0 1 1 0)">
		<stop  offset="0" style="stop-color:#00544D"/>
		<stop  offset="1" style="stop-color:#00815C;stop-opacity:0"/>
	</linearGradient>
	<rect x="0.5" y="0" fill="url(#SVGID_6_)" width="0.25" height="0.6"/>
	
		<linearGradient id="SVGID_7_" gradientUnits="userSpaceOnUse" x1="-1047.25" y1="1" x2="-1047.25" y2="1.35" gradientTransform="matrix(1 0 0 1 1048 0)">
		<stop  offset="0" style="stop-color:#00815C;stop-opacity:0"/>
		<stop  offset="1" style="stop-color:#00544D"/>
	</linearGradient>
	<rect x="0.5" y="1" fill="url(#SVGID_7_)" width="0.5" height="0.35"/>
	<g>
		<path opacity="0.2" d="M0.34,1.288c0.005,0.009,0.013,0.016,0.023,0.019c0.001,0.001,0.003,0.001,0.004,0.001
			c0.049,0.01,0.186,0.027,0.264-0.086c0.057-0.082,0.056-0.17,0.046-0.23c-0.003-0.016-0.007-0.03-0.01-0.041
			C0.664,0.934,0.649,0.923,0.631,0.922C0.569,0.92,0.417,0.927,0.345,1.032C0.272,1.138,0.318,1.247,0.34,1.288z"/>
		
			<linearGradient id="SVGID_8_" gradientUnits="userSpaceOnUse" x1="23.8145" y1="-77.4307" x2="23.8145" y2="-77.0621" gradientTransform="matrix(-0.9834 0.1812 0.1812 0.9834 37.868 72.7431)">
			<stop  offset="0" style="stop-color:#009874"/>
			<stop  offset="1" style="stop-color:#00815C"/>
		</linearGradient>
		<path fill="url(#SVGID_8_)" d="M0.289,1.258c0.005,0.009,0.013,0.016,0.023,0.019c0.001,0.001,0.003,0.001,0.004,0.001
			c0.049,0.01,0.186,0.027,0.264-0.086c0.057-0.082,0.056-0.17,0.046-0.23c-0.003-0.016-0.007-0.03-0.01-0.041
			C0.612,0.904,0.598,0.893,0.58,0.893c-0.062-0.002-0.214,0.005-0.286,0.11C0.221,1.109,0.267,1.218,0.289,1.258z"/>
		<path fill="#00815C" d="M0.312,1.277c0.001,0.001,0.003,0.001,0.004,0.001c0.049,0.01,0.186,0.027,0.264-0.086
			c0.057-0.082,0.056-0.17,0.046-0.23c-0.001,0-0.001,0-0.002,0C0.563,0.96,0.411,0.967,0.339,1.072
			C0.287,1.148,0.295,1.225,0.312,1.277z"/>
	</g>
	<g>
		<path opacity="0.2" d="M0.633,0.592C0.611,0.597,0.589,0.588,0.577,0.57C0.55,0.528,0.508,0.446,0.544,0.373
			C0.581,0.298,0.663,0.277,0.707,0.27c0.018-0.003,0.036,0.005,0.047,0.019C0.783,0.325,0.83,0.401,0.792,0.478
			C0.757,0.55,0.678,0.58,0.633,0.592z"/>
		
			<linearGradient id="SVGID_9_" gradientUnits="userSpaceOnUse" x1="-889.1478" y1="-147.1068" x2="-889.1478" y2="-146.8206" gradientTransform="matrix(0.9466 -0.3224 0.3224 0.9466 889.6798 -147.1269)">
			<stop  offset="0" style="stop-color:#009874"/>
			<stop  offset="1" style="stop-color:#00815C"/>
		</linearGradient>
		<path fill="url(#SVGID_9_)" d="M0.762,0.375c0.002,0.023-0.001,0.047-0.013,0.072C0.713,0.52,0.635,0.55,0.589,0.561
			C0.568,0.566,0.546,0.558,0.534,0.539C0.528,0.531,0.522,0.522,0.517,0.511C0.493,0.466,0.472,0.402,0.501,0.343
			C0.538,0.268,0.62,0.246,0.664,0.24c0.018-0.003,0.036,0.004,0.047,0.019C0.73,0.283,0.758,0.326,0.762,0.375z"/>
		<path fill="#00805C" d="M0.762,0.375c0.002,0.023-0.001,0.047-0.013,0.072C0.713,0.52,0.635,0.55,0.589,0.561
			C0.568,0.566,0.546,0.558,0.534,0.539C0.528,0.531,0.522,0.522,0.517,0.511C0.512,0.483,0.515,0.453,0.529,0.424
			c0.037-0.074,0.119-0.096,0.163-0.102C0.709,0.318,0.727,0.325,0.738,0.34C0.746,0.349,0.754,0.361,0.762,0.375z"/>
	</g>
</g>
</svg>
