<?xml version="1.0" encoding="utf-8"?>
<!-- Generator: Adobe Illustrator 24.1.2, SVG Export Plug-In . SVG Version: 6.00 Build 0)  -->
<svg version="1.1" id="Capa_1" xmlns="http://www.w3.org/2000/svg" xmlns:xlink="http://www.w3.org/1999/xlink" x="0px" y="0px"
	 width="1px" height="1.6px" viewBox="0 0 1 1.6" enable-background="new 0 0 1 1.6" xml:space="preserve">
<g>
	<path fill="#251181" d="M1,1.6H0V0.7c0-0.275,0.225-0.5,0.5-0.5h0C0.775,0.2,1,0.425,1,0.7V1.6z"/>
	<path fill="#6666D1" d="M0.9,1.6H0.1V0.7c0-0.22,0.18-0.4,0.4-0.4h0c0.22,0,0.4,0.18,0.4,0.4V1.6z"/>
	<path fill="#004546" d="M0.85,1.6h-0.7V0.35C0.15,0.157,0.307,0,0.5,0h0c0.193,0,0.35,0.157,0.35,0.35L0.85,1.6z"/>
	<path fill="#00815C" d="M0.75,0.35V1.6h-0.5V0.35c0-0.137,0.113-0.25,0.25-0.25c0.069,0,0.131,0.028,0.177,0.073
		C0.722,0.219,0.75,0.281,0.75,0.35z"/>
	<linearGradient id="SVGID_1_" gradientUnits="userSpaceOnUse" x1="0.5" y1="0.85" x2="0.75" y2="0.85">
		<stop  offset="0" style="stop-color:#00815C;stop-opacity:0"/>
		<stop  offset="1" style="stop-color:#00544D"/>
	</linearGradient>
	<path fill="url(#SVGID_1_)" d="M0.75,0.35V1.6H0.5V0.1c0.069,0,0.131,0.028,0.177,0.073C0.722,0.219,0.75,0.281,0.75,0.35z"/>
	<linearGradient id="SVGID_2_" gradientUnits="userSpaceOnUse" x1="0.25" y1="0.85" x2="0.5" y2="0.85">
		<stop  offset="0" style="stop-color:#00544D"/>
		<stop  offset="1" style="stop-color:#00815C;stop-opacity:0"/>
	</linearGradient>
	<path fill="url(#SVGID_2_)" d="M0.5,0.1v1.5H0.25V0.35C0.25,0.213,0.363,0.1,0.5,0.1z"/>
	<linearGradient id="SVGID_3_" gradientUnits="userSpaceOnUse" x1="0.5" y1="0.4" x2="0.5" y2="0.1">
		<stop  offset="0" style="stop-color:#00815C;stop-opacity:0"/>
		<stop  offset="1" style="stop-color:#008D6A"/>
	</linearGradient>
	<path fill="url(#SVGID_3_)" d="M0.7,0.35V0.4H0.3V0.35c0-0.137,0.09-0.25,0.2-0.25c0.055,0,0.105,0.028,0.141,0.073
		C0.678,0.219,0.7,0.281,0.7,0.35z"/>
	<g>
		<path opacity="0.2" d="M0.415,0.538c0.021-0.002,0.038-0.016,0.043-0.036C0.469,0.455,0.481,0.37,0.427,0.316
			C0.372,0.26,0.292,0.266,0.251,0.274c-0.017,0.003-0.03,0.015-0.036,0.031C0.2,0.346,0.181,0.428,0.238,0.485
			C0.292,0.539,0.371,0.541,0.415,0.538z"/>
		
			<linearGradient id="SVGID_4_" gradientUnits="userSpaceOnUse" x1="-825.546" y1="0.2424" x2="-825.546" y2="0.512" gradientTransform="matrix(-1 0 0 1 -825.1802 0)">
			<stop  offset="0" style="stop-color:#009874"/>
			<stop  offset="1" style="stop-color:#00815C"/>
		</linearGradient>
		<path fill="url(#SVGID_4_)" d="M0.236,0.398C0.241,0.419,0.252,0.44,0.27,0.458c0.054,0.054,0.133,0.057,0.177,0.053
			c0.02-0.001,0.038-0.016,0.043-0.036c0.002-0.009,0.005-0.019,0.007-0.03C0.504,0.397,0.503,0.333,0.459,0.29
			C0.404,0.234,0.324,0.24,0.283,0.247C0.266,0.25,0.253,0.262,0.247,0.278C0.237,0.306,0.225,0.353,0.236,0.398z"/>
		<path fill="#00805C" d="M0.236,0.398C0.241,0.419,0.252,0.44,0.27,0.458c0.054,0.054,0.133,0.057,0.177,0.053
			c0.02-0.001,0.038-0.016,0.043-0.036c0.002-0.009,0.005-0.019,0.007-0.03C0.492,0.418,0.481,0.392,0.459,0.37
			C0.404,0.315,0.324,0.321,0.283,0.328C0.266,0.331,0.253,0.343,0.247,0.359C0.243,0.37,0.239,0.383,0.236,0.398z"/>
	</g>
	<g>
		<path opacity="0.15" d="M0.41,0.882c0,0.005,0.001,0.01,0.003,0.014C0.419,0.92,0.437,0.94,0.461,0.948
			c0.045,0.015,0.117,0.022,0.182-0.044c0.042-0.042,0.059-0.09,0.066-0.134c0.004-0.022,0.004-0.043,0.003-0.06
			C0.709,0.672,0.68,0.641,0.642,0.639c-0.048-0.003-0.115,0.006-0.169,0.06C0.413,0.759,0.407,0.834,0.41,0.882z"/>
		
			<linearGradient id="SVGID_5_" gradientUnits="userSpaceOnUse" x1="-812.113" y1="0.6006" x2="-812.113" y2="0.9198" gradientTransform="matrix(-1 0 0 1 -811.5155 0)">
			<stop  offset="0" style="stop-color:#009874"/>
			<stop  offset="1" style="stop-color:#00815C"/>
		</linearGradient>
		<path fill="url(#SVGID_5_)" d="M0.447,0.844c0,0.005,0.001,0.01,0.003,0.014C0.456,0.882,0.473,0.902,0.498,0.91
			C0.543,0.925,0.614,0.932,0.68,0.866c0.042-0.042,0.059-0.09,0.066-0.134c0.004-0.022,0.004-0.043,0.003-0.06
			c-0.002-0.038-0.032-0.069-0.07-0.071C0.631,0.598,0.564,0.607,0.51,0.661C0.45,0.721,0.444,0.797,0.447,0.844z"/>
		<path fill="#00805C" d="M0.45,0.858C0.456,0.882,0.473,0.902,0.498,0.91C0.543,0.925,0.614,0.932,0.68,0.866
			c0.042-0.042,0.059-0.09,0.066-0.134C0.738,0.701,0.711,0.678,0.679,0.676C0.631,0.674,0.564,0.683,0.51,0.737
			C0.472,0.775,0.456,0.819,0.45,0.858z"/>
	</g>
</g>
</svg>
