<?xml version="1.0" encoding="utf-8"?>
<!-- Generator: Adobe Illustrator 24.1.2, SVG Export Plug-In . SVG Version: 6.00 Build 0)  -->
<svg version="1.1" id="Capa_1" xmlns="http://www.w3.org/2000/svg" xmlns:xlink="http://www.w3.org/1999/xlink" x="0px" y="0px"
	 width="1px" height="1px" viewBox="0 0 1 1" enable-background="new 0 0 1 1" xml:space="preserve">
<g>
	<rect fill="#270D75" width="1" height="1"/>
	<rect x="0.1" fill="#6168D2" width="0.8" height="1"/>
	<rect x="0.15" fill="#004546" width="0.7" height="1"/>
	<rect x="0.25" fill="#00815C" width="0.5" height="1"/>
	<linearGradient id="SVGID_1_" gradientUnits="userSpaceOnUse" x1="0.5" y1="0.5" x2="0.75" y2="0.5">
		<stop  offset="0" style="stop-color:#00815C;stop-opacity:0"/>
		<stop  offset="1" style="stop-color:#00544D"/>
	</linearGradient>
	<rect x="0.5" fill="url(#SVGID_1_)" width="0.25" height="1"/>
	<linearGradient id="SVGID_2_" gradientUnits="userSpaceOnUse" x1="0.25" y1="0.5" x2="0.5" y2="0.5">
		<stop  offset="0" style="stop-color:#00544D"/>
		<stop  offset="1" style="stop-color:#00815C;stop-opacity:0"/>
	</linearGradient>
	<rect x="0.25" y="0" fill="url(#SVGID_2_)" width="0.25" height="1"/>
	<g>
		<path opacity="0.15" d="M0.574,0.876c-0.021,0.002-0.041-0.011-0.049-0.03C0.505,0.801,0.48,0.715,0.527,0.652
			C0.575,0.586,0.657,0.58,0.7,0.581c0.018,0.001,0.033,0.01,0.042,0.026c0.021,0.039,0.054,0.12,0.005,0.187
			C0.7,0.858,0.619,0.873,0.574,0.876z"/>
		
			<linearGradient id="SVGID_3_" gradientUnits="userSpaceOnUse" x1="-20.9573" y1="65.4974" x2="-20.9573" y2="65.7756" gradientTransform="matrix(0.9885 -0.1512 0.1512 0.9885 11.4704 -67.3666)">
			<stop  offset="0" style="stop-color:#009874"/>
			<stop  offset="1" style="stop-color:#00815C"/>
		</linearGradient>
		<path fill="url(#SVGID_3_)" d="M0.813,0.685C0.811,0.707,0.803,0.73,0.788,0.751C0.741,0.815,0.661,0.83,0.615,0.833
			c-0.021,0.002-0.041-0.01-0.049-0.03c-0.004-0.009-0.008-0.018-0.011-0.03C0.54,0.726,0.53,0.66,0.568,0.609
			c0.048-0.065,0.131-0.072,0.173-0.071c0.018,0,0.034,0.01,0.042,0.026C0.797,0.591,0.817,0.637,0.813,0.685z"/>
		<path fill="#00805C" d="M0.813,0.685C0.811,0.707,0.803,0.73,0.788,0.751C0.741,0.815,0.661,0.83,0.615,0.833
			c-0.021,0.002-0.041-0.01-0.049-0.03c-0.004-0.009-0.008-0.018-0.011-0.03c0.001-0.028,0.008-0.056,0.026-0.082
			c0.048-0.065,0.131-0.072,0.173-0.07c0.018,0,0.034,0.01,0.042,0.026C0.801,0.657,0.807,0.67,0.813,0.685z"/>
	</g>
	<g>
		<path opacity="0.2" d="M0.538,0.366C0.537,0.371,0.536,0.377,0.535,0.382C0.528,0.409,0.508,0.431,0.48,0.44
			C0.43,0.457,0.349,0.465,0.275,0.391C0.228,0.344,0.208,0.289,0.201,0.24C0.197,0.215,0.197,0.192,0.198,0.172
			C0.2,0.129,0.234,0.094,0.276,0.092C0.33,0.089,0.406,0.099,0.467,0.16C0.534,0.227,0.541,0.312,0.538,0.366z"/>
		<linearGradient id="SVGID_4_" gradientUnits="userSpaceOnUse" x1="0.4073" y1="0.0487" x2="0.4073" y2="0.4088">
			<stop  offset="0" style="stop-color:#009874"/>
			<stop  offset="1" style="stop-color:#00815C"/>
		</linearGradient>
		<path fill="url(#SVGID_4_)" d="M0.577,0.323C0.577,0.329,0.576,0.334,0.574,0.339C0.567,0.366,0.547,0.389,0.52,0.398
			c-0.051,0.016-0.132,0.024-0.206-0.05C0.267,0.301,0.247,0.247,0.24,0.197C0.236,0.173,0.236,0.149,0.237,0.129
			c0.002-0.043,0.036-0.078,0.079-0.08c0.054-0.003,0.129,0.007,0.19,0.068C0.574,0.185,0.581,0.27,0.577,0.323z"/>
		<path fill="#00805C" d="M0.574,0.339C0.567,0.366,0.547,0.389,0.52,0.398c-0.051,0.016-0.132,0.024-0.206-0.05
			C0.267,0.301,0.247,0.247,0.24,0.197c0.009-0.035,0.039-0.061,0.076-0.063c0.054-0.002,0.129,0.008,0.19,0.068
			C0.549,0.245,0.567,0.295,0.574,0.339z"/>
	</g>
</g>
</svg>
