<?xml version="1.0" encoding="utf-8"?>
<!-- Generator: Adobe Illustrator 24.1.2, SVG Export Plug-In . SVG Version: 6.00 Build 0)  -->
<svg version="1.1" id="Capa_1" xmlns="http://www.w3.org/2000/svg" xmlns:xlink="http://www.w3.org/1999/xlink" x="0px" y="0px"
	 width="1px" height="1.8px" viewBox="0 0 1 1.8" enable-background="new 0 0 1 1.8" xml:space="preserve">
<g>
	<path fill="#0A0F32" fill-opacity="0.2" d="M0.8,1.8H0.2c-0.055,0-0.1-0.045-0.1-0.1V1h0.8v0.7C0.9,1.755,0.855,1.8,0.8,1.8z"/>
</g>
<g>
	<path fill="#251181" d="M1,0v0.9c0,0.088-0.039,0.168-0.1,0.223V1.2c0,0.165-0.135,0.3-0.3,0.3H0.4c-0.165,0-0.3-0.135-0.3-0.3
		V1.123C0.039,1.068,0,0.988,0,0.9V0H1z"/>
	<path fill="#2E1790" d="M0.8,1.073V1.2c0,0.11-0.09,0.2-0.2,0.2H0.4c-0.11,0-0.2-0.09-0.2-0.2V1.073
		C0.254,1.12,0.323,1.15,0.4,1.15h0.2C0.677,1.15,0.746,1.12,0.8,1.073z"/>
	<path fill="#3031A4" d="M0.9,0.15v0.7c0,0.088-0.039,0.168-0.1,0.223L0.798,1.074C0.745,1.121,0.676,1.15,0.6,1.15H0.4
		c-0.076,0-0.145-0.029-0.198-0.076L0.2,1.073C0.139,1.018,0.1,0.938,0.1,0.85v-0.7H0.9z"/>
	<path fill="#6666D1" d="M0.5,1L0.5,1C0.28,1,0.1,0.82,0.1,0.6V0h0.8v0.6C0.9,0.82,0.72,1,0.5,1z"/>
	<path fill="#004546" d="M0.85,0v0.6c0,0.192-0.158,0.35-0.35,0.35S0.15,0.792,0.15,0.6V0H0.85z"/>
	<path fill="#00815C" d="M0.75,0v0.6c0,0.137-0.113,0.25-0.25,0.25S0.25,0.738,0.25,0.6V0H0.75z"/>
	<path fill="#251182" d="M0.798,1.074C0.793,1.12,0.772,1.16,0.741,1.191C0.705,1.227,0.655,1.25,0.6,1.25H0.4
		c-0.102,0-0.186-0.077-0.198-0.176C0.255,1.121,0.324,1.15,0.4,1.15h0.2C0.676,1.15,0.745,1.121,0.798,1.074z"/>
	<linearGradient id="SVGID_1_" gradientUnits="userSpaceOnUse" x1="0.25" y1="0.425" x2="0.5" y2="0.425">
		<stop  offset="0" style="stop-color:#00544D"/>
		<stop  offset="1" style="stop-color:#00815C;stop-opacity:0"/>
	</linearGradient>
	<path fill="url(#SVGID_1_)" d="M0.5,0v0.85c-0.069,0-0.131-0.028-0.177-0.074C0.278,0.731,0.25,0.669,0.25,0.6V0H0.5z"/>
	<linearGradient id="SVGID_2_" gradientUnits="userSpaceOnUse" x1="0.5" y1="0.425" x2="0.75" y2="0.425">
		<stop  offset="0" style="stop-color:#00815C;stop-opacity:0"/>
		<stop  offset="1" style="stop-color:#00544D"/>
	</linearGradient>
	<path fill="url(#SVGID_2_)" d="M0.75,0v0.6c0,0.137-0.113,0.25-0.25,0.25V0H0.75z"/>
	<radialGradient id="SVGID_3_" cx="0.5" cy="0.279" r="0.3836" gradientUnits="userSpaceOnUse">
		<stop  offset="0" style="stop-color:#00815C;stop-opacity:0"/>
		<stop  offset="1" style="stop-color:#00544D;stop-opacity:0.7"/>
	</radialGradient>
	<circle fill="url(#SVGID_3_)" cx="0.5" cy="0.6" r="0.25"/>
	
		<linearGradient id="SVGID_4_" gradientUnits="userSpaceOnUse" x1="0.5" y1="-209.25" x2="0.5" y2="-209.55" gradientTransform="matrix(1 0 0 -1 0 -209)">
		<stop  offset="0" style="stop-color:#00815C;stop-opacity:0"/>
		<stop  offset="1" style="stop-color:#008D6A;stop-opacity:0.6"/>
	</linearGradient>
	<path fill="url(#SVGID_4_)" d="M0.7,0.3V0.25H0.3V0.3c0,0.137,0.09,0.25,0.2,0.25c0.055,0,0.105-0.028,0.141-0.073
		C0.678,0.431,0.7,0.369,0.7,0.3z"/>
	<g>
		<path opacity="0.2" d="M0.276,0.414C0.254,0.412,0.236,0.396,0.23,0.375C0.218,0.326,0.205,0.236,0.263,0.178
			C0.322,0.119,0.407,0.125,0.45,0.133c0.018,0.003,0.032,0.016,0.039,0.033C0.504,0.21,0.524,0.297,0.464,0.357
			C0.407,0.414,0.323,0.417,0.276,0.414z"/>
		<linearGradient id="SVGID_5_" gradientUnits="userSpaceOnUse" x1="0.3894" y1="0.0854" x2="0.3894" y2="0.3716">
			<stop  offset="0" style="stop-color:#009874"/>
			<stop  offset="1" style="stop-color:#00815C"/>
		</linearGradient>
		<path fill="url(#SVGID_5_)" d="M0.527,0.25C0.522,0.273,0.511,0.295,0.491,0.314C0.434,0.371,0.35,0.374,0.303,0.37
			c-0.021-0.002-0.04-0.017-0.046-0.039C0.255,0.322,0.253,0.312,0.251,0.3C0.243,0.25,0.244,0.182,0.29,0.135
			C0.349,0.076,0.434,0.082,0.477,0.09C0.495,0.093,0.51,0.106,0.516,0.123C0.526,0.152,0.539,0.202,0.527,0.25z"/>
		<path fill="#00805C" d="M0.527,0.25C0.522,0.273,0.511,0.295,0.491,0.314C0.434,0.371,0.35,0.374,0.303,0.37
			c-0.021-0.002-0.04-0.017-0.046-0.039C0.255,0.322,0.253,0.312,0.251,0.3c0.005-0.028,0.017-0.056,0.04-0.079
			c0.059-0.059,0.144-0.053,0.187-0.045C0.495,0.179,0.51,0.192,0.516,0.209C0.52,0.22,0.524,0.234,0.527,0.25z"/>
	</g>
</g>
</svg>
