<?xml version="1.0" encoding="utf-8"?>
<!-- Generator: Adobe Illustrator 24.1.2, SVG Export Plug-In . SVG Version: 6.00 Build 0)  -->
<svg version="1.1" id="Capa_1" xmlns="http://www.w3.org/2000/svg" xmlns:xlink="http://www.w3.org/1999/xlink" x="0px" y="0px"
	 width="1px" height="1.5px" viewBox="0 0 1 1.5" enable-background="new 0 0 1 1.5" xml:space="preserve">
<g>
	<path fill="#270D75" d="M1,0.35V1.5H0V0.75c0-0.221,0.179-0.4,0.4-0.4H1z"/>
	<path fill="#6666D1" d="M1,0.4V1C0.973,1,0.948,1.011,0.93,1.029C0.911,1.048,0.9,1.073,0.9,1.1v0.4H0.1V0.8
		c0-0.221,0.159-0.4,0.355-0.4H1z"/>
	<path fill="#3031A4" d="M1,1v0.15c-0.027,0-0.052,0.011-0.07,0.029C0.911,1.198,0.9,1.223,0.9,1.25V1.1
		c0-0.027,0.011-0.052,0.03-0.071C0.948,1.011,0.973,1,1,1z"/>
	<path fill="#46479D" d="M1,0.95V1H0.95C0.923,1,0.898,1.011,0.88,1.029C0.861,1.048,0.85,1.073,0.85,1.1V0.95H1z"/>
	<path fill="#004546" d="M1,0v0.95H0.85V1.5h-0.7V0.45C0.15,0.201,0.352,0,0.6,0H1z"/>
	<path fill="#00815C" d="M1,0.1v0.75H0.75V1.5h-0.5V0.45c0-0.054,0.012-0.105,0.034-0.15C0.326,0.211,0.405,0.143,0.5,0.114
		C0.532,0.105,0.565,0.1,0.6,0.1H1z"/>
	<linearGradient id="SVGID_1_" gradientUnits="userSpaceOnUse" x1="0.5" y1="1.175" x2="0.75" y2="1.175">
		<stop  offset="0" style="stop-color:#00815C;stop-opacity:0"/>
		<stop  offset="1" style="stop-color:#00544D"/>
	</linearGradient>
	<rect x="0.5" y="0.85" fill="url(#SVGID_1_)" width="0.25" height="0.65"/>
	<linearGradient id="SVGID_2_" gradientUnits="userSpaceOnUse" x1="0.25" y1="0.975" x2="0.5" y2="0.975">
		<stop  offset="0" style="stop-color:#00544D"/>
		<stop  offset="1" style="stop-color:#00815C;stop-opacity:0"/>
	</linearGradient>
	<rect x="0.25" y="0.45" fill="url(#SVGID_2_)" width="0.25" height="1.05"/>
	<linearGradient id="SVGID_3_" gradientUnits="userSpaceOnUse" x1="0.642" y1="0.3" x2="0.642" y2="0.1">
		<stop  offset="0" style="stop-color:#00815C;stop-opacity:0"/>
		<stop  offset="1" style="stop-color:#008D6A"/>
	</linearGradient>
	<path fill="url(#SVGID_3_)" d="M1,0.1v0.2H0.284C0.326,0.211,0.405,0.143,0.5,0.114C0.532,0.105,0.565,0.1,0.6,0.1H1z"/>
	
		<radialGradient id="SVGID_4_" cx="-941.7485" cy="-126.8476" r="0.3313" gradientTransform="matrix(-1.028679e-13 -1 0.68 -6.995016e-14 87.0048 -940.9009)" gradientUnits="userSpaceOnUse">
		<stop  offset="0" style="stop-color:#00544D"/>
		<stop  offset="1" style="stop-color:#00815C;stop-opacity:0"/>
	</radialGradient>
	<path fill="url(#SVGID_4_)" d="M0.75,0.85V0.5h0C0.557,0.5,0.4,0.657,0.4,0.85v0H0.75z"/>
	<linearGradient id="SVGID_5_" gradientUnits="userSpaceOnUse" x1="0.875" y1="0.5" x2="0.875" y2="0.85">
		<stop  offset="0" style="stop-color:#00815C;stop-opacity:0"/>
		<stop  offset="1" style="stop-color:#00544D"/>
	</linearGradient>
	<rect x="0.75" y="0.5" fill="url(#SVGID_5_)" width="0.25" height="0.35"/>
	<linearGradient id="SVGID_6_" gradientUnits="userSpaceOnUse" x1="0.25" y1="0.2822" x2="0.5" y2="0.2822">
		<stop  offset="0" style="stop-color:#00544D"/>
		<stop  offset="1" style="stop-color:#00815C;stop-opacity:0"/>
	</linearGradient>
	<path fill="url(#SVGID_6_)" d="M0.5,0.114V0.45H0.25C0.25,0.291,0.355,0.157,0.5,0.114z"/>
	<g>
		<path opacity="0.15" d="M0.64,0.403c-0.022,0.002-0.042-0.01-0.051-0.03C0.568,0.326,0.54,0.239,0.587,0.173
			C0.636,0.105,0.72,0.097,0.764,0.097c0.018,0,0.035,0.01,0.043,0.026c0.023,0.04,0.057,0.123,0.008,0.193
			C0.769,0.382,0.687,0.398,0.64,0.403z"/>
		
			<linearGradient id="SVGID_7_" gradientUnits="userSpaceOnUse" x1="-33.6202" y1="62.6748" x2="-33.6202" y2="62.961" gradientTransform="matrix(0.9859 -0.1671 0.1671 0.9859 23.3903 -67.3338)">
			<stop  offset="0" style="stop-color:#009874"/>
			<stop  offset="1" style="stop-color:#00815C"/>
		</linearGradient>
		<path fill="url(#SVGID_7_)" d="M0.88,0.218C0.879,0.241,0.872,0.265,0.856,0.287C0.809,0.353,0.727,0.37,0.68,0.374
			c-0.021,0.002-0.042-0.01-0.051-0.03C0.624,0.334,0.62,0.324,0.616,0.313C0.6,0.265,0.589,0.198,0.627,0.144
			c0.048-0.068,0.133-0.076,0.177-0.076c0.018,0,0.035,0.01,0.043,0.026C0.863,0.121,0.884,0.169,0.88,0.218z"/>
		<path fill="#00805C" d="M0.88,0.218C0.879,0.241,0.872,0.265,0.856,0.287C0.809,0.353,0.727,0.37,0.68,0.374
			c-0.021,0.002-0.042-0.01-0.051-0.03C0.624,0.334,0.62,0.324,0.616,0.313c0-0.028,0.007-0.058,0.026-0.084
			C0.69,0.161,0.775,0.153,0.819,0.153c0.018,0,0.035,0.01,0.043,0.026C0.868,0.19,0.875,0.203,0.88,0.218z"/>
	</g>
	<g>
		<path opacity="0.2" d="M0.324,0.983C0.345,0.989,0.367,0.98,0.379,0.962C0.407,0.92,0.448,0.838,0.412,0.765
			C0.375,0.69,0.293,0.668,0.249,0.662C0.231,0.659,0.214,0.667,0.202,0.681C0.174,0.717,0.126,0.793,0.164,0.87
			C0.2,0.942,0.278,0.972,0.324,0.983z"/>
		
			<linearGradient id="SVGID_8_" gradientUnits="userSpaceOnUse" x1="-889.2327" y1="-146.7219" x2="-889.2327" y2="-146.4357" gradientTransform="matrix(-0.9466 -0.3224 -0.3224 0.9466 -888.6798 -147.1269)">
			<stop  offset="0" style="stop-color:#009874"/>
			<stop  offset="1" style="stop-color:#00815C"/>
		</linearGradient>
		<path fill="url(#SVGID_8_)" d="M0.194,0.767C0.192,0.79,0.195,0.814,0.207,0.839c0.036,0.072,0.114,0.102,0.16,0.114
			c0.021,0.006,0.043-0.003,0.055-0.022C0.428,0.923,0.434,0.914,0.44,0.903c0.023-0.045,0.045-0.109,0.016-0.168
			C0.418,0.66,0.336,0.638,0.293,0.632C0.275,0.629,0.257,0.636,0.246,0.65C0.226,0.674,0.198,0.718,0.194,0.767z"/>
		<path fill="#00805C" d="M0.194,0.767C0.192,0.79,0.195,0.814,0.207,0.839c0.036,0.072,0.114,0.102,0.16,0.114
			c0.021,0.006,0.043-0.003,0.055-0.022C0.428,0.923,0.434,0.914,0.44,0.903c0.004-0.028,0.002-0.058-0.012-0.088
			C0.391,0.741,0.308,0.719,0.265,0.713C0.247,0.71,0.229,0.717,0.218,0.732C0.211,0.741,0.202,0.753,0.194,0.767z"/>
	</g>
	<g>
		<path opacity="0.2" d="M0.731,1.208c0,0.012-0.001,0.025-0.003,0.038c-0.006,0.04-0.022,0.083-0.059,0.12
			c-0.064,0.065-0.148,0.06-0.195,0.049C0.448,1.41,0.428,1.392,0.42,1.367C0.419,1.366,0.419,1.364,0.418,1.362
			C0.404,1.314,0.395,1.233,0.466,1.161c0.058-0.057,0.124-0.063,0.176-0.055C0.693,1.113,0.731,1.157,0.731,1.208z"/>
		<linearGradient id="SVGID_9_" gradientUnits="userSpaceOnUse" x1="0.6086" y1="1.0442" x2="0.6086" y2="1.3628">
			<stop  offset="0" style="stop-color:#009874"/>
			<stop  offset="1" style="stop-color:#00815C"/>
		</linearGradient>
		<path fill="url(#SVGID_9_)" d="M0.77,1.149c0,0.012-0.001,0.025-0.003,0.038c-0.006,0.04-0.022,0.083-0.059,0.12
			C0.644,1.372,0.56,1.367,0.512,1.357C0.487,1.351,0.467,1.333,0.459,1.308C0.458,1.307,0.458,1.305,0.457,1.303
			C0.443,1.255,0.434,1.174,0.505,1.102C0.563,1.045,0.63,1.039,0.681,1.047C0.732,1.054,0.77,1.098,0.77,1.149z"/>
		<path fill="#00805C" d="M0.767,1.187c-0.006,0.04-0.022,0.083-0.059,0.12C0.644,1.372,0.56,1.367,0.512,1.357
			C0.487,1.351,0.467,1.333,0.459,1.308C0.458,1.307,0.458,1.305,0.457,1.303c0.004-0.037,0.019-0.077,0.057-0.115
			C0.572,1.131,0.639,1.125,0.69,1.132C0.724,1.137,0.752,1.158,0.767,1.187z"/>
	</g>
</g>
</svg>
