<?xml version="1.0" encoding="utf-8"?>
<!-- Generator: Adobe Illustrator 24.1.2, SVG Export Plug-In . SVG Version: 6.00 Build 0)  -->
<svg version="1.1" id="Capa_1" xmlns="http://www.w3.org/2000/svg" xmlns:xlink="http://www.w3.org/1999/xlink" x="0px" y="0px"
	 width="1px" height="1.8px" viewBox="0 0 1 1.8" enable-background="new 0 0 1 1.8" xml:space="preserve">
<g>
	<path fill="#0A0F32" fill-opacity="0.2" d="M1,1.8H0.2c-0.055,0-0.1-0.045-0.1-0.1V1.45c0-0.055,0.045-0.1,0.1-0.1H1V1.8z"/>
</g>
<g>
	<path fill="#270D75" d="M1,0.45V1.5H0.35C0.213,1.5,0.1,1.388,0.1,1.25v-0.1C0.039,1.104,0,1.032,0,0.95V0.7
		c0-0.102,0.062-0.19,0.15-0.229C0.18,0.457,0.214,0.45,0.25,0.45H1z"/>
	<path fill="#2E1790" d="M1,1.15V1.4H0.35C0.267,1.4,0.2,1.332,0.2,1.25V1.099c0.01,0.008,0.02,0.014,0.031,0.02
		C0.266,1.139,0.307,1.15,0.35,1.15H1z"/>
	<path fill="#3031A4" d="M1,0.55v0.6H0.35c-0.043,0-0.084-0.011-0.119-0.031C0.22,1.113,0.21,1.107,0.2,1.099
		c-0.016-0.011-0.03-0.025-0.042-0.04L0.157,1.058C0.121,1.015,0.1,0.96,0.1,0.9V0.7c0-0.044,0.02-0.084,0.05-0.112
		C0.177,0.564,0.212,0.55,0.25,0.55H1z"/>
	<path fill="#251182" d="M1,1.15v0.1H0.4c-0.043,0-0.084-0.011-0.119-0.031C0.27,1.213,0.26,1.207,0.25,1.199
		c-0.016-0.011-0.03-0.025-0.042-0.04L0.207,1.158C0.205,1.155,0.202,1.152,0.2,1.149v-0.05c0.01,0.008,0.02,0.014,0.031,0.02
		C0.266,1.139,0.307,1.15,0.35,1.15H1z"/>
	<path fill="#6168D2" d="M1,0.55V1H0.35C0.213,1,0.1,0.887,0.1,0.75V0.7c0-0.044,0.02-0.084,0.05-0.112
		C0.177,0.564,0.212,0.55,0.25,0.55H1z"/>
	<path fill="#46479D" d="M1,0.95V1H0.45C0.368,1,0.296,0.96,0.251,0.899C0.292,0.932,0.343,0.95,0.4,0.95H1z"/>
	<path fill="#004546" d="M1,0v0.95H0.4c-0.057,0-0.108-0.018-0.149-0.051C0.189,0.854,0.15,0.782,0.15,0.7V0.25
		C0.15,0.112,0.262,0,0.4,0H1z"/>
	<path fill="#00815C" d="M1,0.1v0.75H0.4c-0.083,0-0.15-0.068-0.15-0.15V0.25c0-0.083,0.067-0.15,0.15-0.15H1z"/>
	<linearGradient id="SVGID_1_" gradientUnits="userSpaceOnUse" x1="0.625" y1="0.3" x2="0.625" y2="0.1">
		<stop  offset="0" style="stop-color:#00815C;stop-opacity:0"/>
		<stop  offset="1" style="stop-color:#008D6A"/>
	</linearGradient>
	<path fill="url(#SVGID_1_)" d="M1,0.1v0.2H0.25V0.25c0-0.083,0.067-0.15,0.15-0.15H1z"/>
	<linearGradient id="SVGID_2_" gradientUnits="userSpaceOnUse" x1="0.625" y1="0.5" x2="0.625" y2="0.85">
		<stop  offset="0" style="stop-color:#00815C;stop-opacity:0"/>
		<stop  offset="1" style="stop-color:#00544C"/>
	</linearGradient>
	<path fill="url(#SVGID_2_)" d="M1,0.5v0.35H0.4c-0.083,0-0.15-0.067-0.15-0.15V0.5H1z"/>
	<g>
		<path opacity="0.2" d="M0.686,0.52c-0.003,0.01-0.01,0.018-0.02,0.023C0.665,0.544,0.664,0.545,0.663,0.545
			c-0.046,0.019-0.179,0.06-0.276-0.037C0.316,0.438,0.301,0.351,0.3,0.291c0-0.017,0.001-0.031,0.002-0.043
			c0.002-0.017,0.014-0.031,0.031-0.035C0.394,0.2,0.544,0.18,0.635,0.27C0.726,0.361,0.701,0.476,0.686,0.52z"/>
		<linearGradient id="SVGID_3_" gradientUnits="userSpaceOnUse" x1="0.5451" y1="0.1637" x2="0.5451" y2="0.5322">
			<stop  offset="0" style="stop-color:#009874"/>
			<stop  offset="1" style="stop-color:#00815C"/>
		</linearGradient>
		<path fill="url(#SVGID_3_)" d="M0.731,0.482c-0.003,0.01-0.01,0.018-0.02,0.023C0.71,0.506,0.709,0.507,0.707,0.507
			C0.661,0.526,0.529,0.567,0.432,0.47C0.361,0.4,0.346,0.313,0.345,0.253c0-0.017,0.001-0.031,0.002-0.043
			c0.002-0.017,0.014-0.031,0.031-0.035c0.061-0.013,0.211-0.034,0.302,0.056C0.77,0.323,0.745,0.438,0.731,0.482z"/>
		<path fill="#00815C" d="M0.711,0.505C0.71,0.506,0.709,0.507,0.707,0.507C0.661,0.526,0.529,0.567,0.432,0.47
			C0.361,0.4,0.346,0.313,0.345,0.253c0.001-0.001,0.001-0.001,0.001-0.001c0.061-0.014,0.212-0.034,0.302,0.056
			C0.713,0.373,0.719,0.45,0.711,0.505z"/>
	</g>
	<g>
		<path opacity="0.2" d="M0.68,0.849C0.658,0.847,0.64,0.832,0.634,0.81C0.622,0.762,0.609,0.671,0.667,0.614
			C0.725,0.555,0.81,0.561,0.854,0.569c0.018,0.003,0.032,0.016,0.039,0.033c0.016,0.043,0.036,0.131-0.025,0.191
			C0.81,0.85,0.727,0.853,0.68,0.849z"/>
		<linearGradient id="SVGID_4_" gradientUnits="userSpaceOnUse" x1="0.7932" y1="0.5207" x2="0.7932" y2="0.8069">
			<stop  offset="0" style="stop-color:#009874"/>
			<stop  offset="1" style="stop-color:#00815C"/>
		</linearGradient>
		<path fill="url(#SVGID_4_)" d="M0.931,0.686C0.925,0.708,0.914,0.73,0.895,0.75C0.838,0.807,0.754,0.81,0.707,0.806
			c-0.021-0.002-0.04-0.017-0.046-0.039c-0.002-0.01-0.005-0.02-0.007-0.032c-0.007-0.05-0.007-0.118,0.04-0.164
			c0.059-0.059,0.144-0.053,0.187-0.045c0.018,0.003,0.033,0.015,0.039,0.033C0.93,0.588,0.943,0.638,0.931,0.686z"/>
		<path fill="#00805C" d="M0.931,0.686C0.925,0.708,0.914,0.73,0.895,0.75C0.838,0.807,0.754,0.81,0.707,0.806
			c-0.021-0.002-0.04-0.017-0.046-0.039c-0.002-0.01-0.005-0.02-0.007-0.032c0.005-0.028,0.017-0.056,0.04-0.079
			c0.059-0.059,0.144-0.053,0.187-0.045c0.018,0.003,0.033,0.015,0.039,0.033C0.923,0.656,0.928,0.67,0.931,0.686z"/>
	</g>
</g>
</svg>
