<?xml version="1.0" encoding="utf-8"?>
<!-- Generator: Adobe Illustrator 24.1.2, SVG Export Plug-In . SVG Version: 6.00 Build 0)  -->
<svg version="1.1" id="Capa_1" xmlns="http://www.w3.org/2000/svg" xmlns:xlink="http://www.w3.org/1999/xlink" x="0px" y="0px"
	 width="1px" height="1.3px" viewBox="0 0 1 1.3" enable-background="new 0 0 1 1.3" xml:space="preserve">
<path fill="#0A0F32" fill-opacity="0.2" d="M1,1.3H0.5C0.224,1.3,0,1.076,0,0.8L0,0h1V1.3z"/>
<g>
	<path id="path2027_2_" fill="#A8013F" d="M1,1H0.95C0.425,1,0,0.575,0,0.05V0h1V1z"/>
	
		<radialGradient id="SVGID_1_" cx="-762.7985" cy="1059.2007" r="0.9014" gradientTransform="matrix(1 0 0 1 763.8 -1059.2)" gradientUnits="userSpaceOnUse">
		<stop  offset="0" style="stop-color:#E11462"/>
		<stop  offset="0.5" style="stop-color:#F72B78"/>
		<stop  offset="1" style="stop-color:#E11462"/>
	</radialGradient>
	<path fill="url(#SVGID_1_)" d="M1,0v0.9H0.946c-0.016,0-0.033-0.001-0.05-0.002c-0.118-0.007-0.23-0.039-0.33-0.09
		c-0.1-0.051-0.189-0.121-0.261-0.206C0.275,0.569,0.25,0.533,0.226,0.497C0.217,0.482,0.208,0.466,0.199,0.45
		c-0.056-0.106-0.09-0.226-0.098-0.352C0.1,0.082,0.1,0.066,0.1,0.05V0H1z"/>
	<g id="g2034_2_">
		<path id="path2030_2_" fill="#CE024F" d="M1,0.675C0.662,0.506,0.386,0.378,0.575,0h0.1C0.548,0.254,0.619,0.384,1,0.575V0.675z"
			/>
		<path id="path2031_2_" fill="#CE024F" d="M1,0.425C0.721,0.285,0.74,0.17,0.825,0h0.1C0.847,0.156,0.836,0.243,1,0.325V0.425z"/>
		<path fill="#CE024F" d="M1,0.825V0.9H0.946C0.667,0.777,0.043,0.565,0.325,0h0.1C0.209,0.431,0.507,0.578,1,0.825z"/>
		<path id="path2033_2_" fill="#CE024F" d="M0.175,0H0.1v0.05c0,0.016,0,0.032,0.001,0.047c0.003,0.058,0.012,0.114,0.026,0.168
			C0.131,0.184,0.127,0.096,0.175,0L0.175,0z"/>
		<path fill="#CE024F" d="M1,0.075v0.1C0.944,0.148,0.95,0.136,0.95,0L1,0.075z"/>
	</g>
	<path id="path2029_2_" fill="#A8013F" d="M1,0v0.1c-0.032,0-0.061-0.015-0.079-0.039C0.912,0.05,0.906,0.038,0.903,0.025V0.024
		c0-0.002-0.001-0.003-0.001-0.005C0.9,0.013,0.9,0.007,0.9,0H1z"/>
</g>
</svg>
