<?xml version="1.0" encoding="utf-8"?>
<!-- Generator: Adobe Illustrator 24.1.2, SVG Export Plug-In . SVG Version: 6.00 Build 0)  -->
<svg version="1.1"
	 id="svg3893" xmlns:cc="http://creativecommons.org/ns#" xmlns:dc="http://purl.org/dc/elements/1.1/" xmlns:inkscape="http://www.inkscape.org/namespaces/inkscape" xmlns:rdf="http://www.w3.org/1999/02/22-rdf-syntax-ns#" xmlns:sodipodi="http://sodipodi.sourceforge.net/DTD/sodipodi-0.dtd" xmlns:svg="http://www.w3.org/2000/svg"
	 xmlns="http://www.w3.org/2000/svg" xmlns:xlink="http://www.w3.org/1999/xlink" x="0px" y="0px" width="1.1px" height="2.4px"
	 viewBox="0 0 1.1 2.4" enable-background="new 0 0 1.1 2.4" xml:space="preserve">
<g>
	<g>
		<ellipse id="ellipse4999" fill-opacity="0.18" cx="0.55" cy="1.9" rx="0.5" ry="0.5"/>
	</g>
	<g>
		<g id="layer1" transform="translate(-58.076041,-83.563447)" inkscape:groupmode="layer" inkscape:label="Layer 1">
			<g id="g5189" transform="matrix(0.04999992,0,0,0.04999992,48.987619,88.425163)">
				<g id="g5167">
					<path id="path5163" sodipodi:nodetypes="sssssss" fill="#A77F1B" d="M192.77-97.234c-1.637,0-3.003,1.364-3.003,3v15.999
						c0,1.636,1.366,3.001,3.003,3.001s2.996-1.365,2.996-3.001v-15.999C195.765-95.87,194.407-97.234,192.77-97.234z"/>
					<path id="path5165" sodipodi:nodetypes="sssssss" fill="#E6C267" d="M192.766-95.734c0.832,0,1.501,0.669,1.501,1.5v16.002
						c0,0.831-0.669,1.5-1.501,1.5s-1.501-0.669-1.501-1.5v-16.002C191.265-95.065,191.935-95.734,192.766-95.734z"/>
				</g>
			</g>
		</g>
	</g>
	<path fill="#13343A" d="M0.75,0.975V1.9c0,0.054-0.021,0.104-0.059,0.141C0.654,2.079,0.604,2.1,0.55,2.1
		c-0.111,0-0.2-0.09-0.2-0.2V1.232C0.347,1.235,0.345,1.238,0.342,1.241c-0.03,0.03-0.068,0.049-0.11,0.056
		C0.221,1.299,0.211,1.3,0.2,1.3C0.089,1.3,0,1.21,0,1.1V0.975c0-0.149,0.088-0.283,0.223-0.343C0.272,0.611,0.323,0.6,0.375,0.6
		c0.12,0,0.23,0.055,0.301,0.151C0.724,0.816,0.75,0.893,0.75,0.975z"/>
	<g>
		<polygon fill="#B488A3" points="0.65,1.25 0.65,1.5 0.45,1.6 0.45,1.35 		"/>
		<path fill="#B488A3" d="M0.65,1.75V1.9c0,0.027-0.011,0.052-0.03,0.07C0.602,1.989,0.577,2,0.55,2c-0.055,0-0.1-0.045-0.1-0.1
			V1.85L0.65,1.75z"/>
		<path fill="#B488A3" d="M0.45,1.1V0.975c0-0.008-0.001-0.015-0.004-0.021L0.47,0.929C0.512,0.956,0.542,1,0.548,1.051L0.45,1.1z"
			/>
		<path fill="#B488A3" d="M0.35,0.701V0.73C0.268,0.772,0.21,0.854,0.202,0.95C0.201,0.958,0.2,0.966,0.2,0.975L0.1,1V0.975
			c0-0.113,0.067-0.209,0.164-0.252C0.29,0.711,0.32,0.704,0.35,0.701z"/>
	</g>
	<g>
		<polygon fill="#FFD6EF" points="0.65,1.35 0.65,1.5 0.55,1.55 0.55,1.35 		"/>
		<path fill="#FFD6EF" d="M0.55,1.8l0.1-0.05V1.9c0,0.027-0.011,0.052-0.03,0.07C0.602,1.989,0.577,2,0.55,2V1.8z"/>
		<path fill="#FFD6EF" d="M0.65,0.975V1H0.533C0.52,0.971,0.498,0.946,0.471,0.929l0.013-0.013L0.55,0.85l0.042-0.043
			C0.593,0.808,0.595,0.81,0.595,0.811C0.63,0.857,0.65,0.913,0.65,0.975z"/>
		<path fill="#FFD6EF" d="M0.35,0.73v0.174C0.329,0.911,0.313,0.928,0.305,0.949L0.2,0.975c0-0.009,0.001-0.017,0.002-0.025
			C0.21,0.854,0.268,0.772,0.35,0.73z"/>
	</g>
	<g>
		<path fill="#97385D" d="M0.23,1.195C0.225,1.197,0.22,1.198,0.215,1.198C0.211,1.199,0.205,1.2,0.2,1.2
			c-0.055,0-0.1-0.045-0.1-0.1V1l0.1-0.025V1.15C0.2,1.17,0.212,1.187,0.23,1.195z"/>
		<polygon fill="#97385D" points="0.65,1 0.65,1.25 0.45,1.35 0.45,1.1 		"/>
		<polygon fill="#97385D" points="0.65,1.5 0.65,1.75 0.45,1.85 0.45,1.6 		"/>
		<path fill="#97385D" d="M0.592,0.807L0.55,0.85L0.484,0.916L0.471,0.929C0.447,0.913,0.418,0.902,0.387,0.901
			C0.383,0.901,0.379,0.9,0.375,0.9c-0.009,0-0.017,0.001-0.025,0.004V0.701c0.008,0,0.017-0.001,0.025-0.001
			c0.017,0,0.033,0.001,0.049,0.005C0.492,0.716,0.552,0.754,0.592,0.807z"/>
		<path fill="#97385D" d="M0.471,0.929L0.446,0.954c-0.008-0.027-0.03-0.048-0.059-0.053C0.418,0.902,0.447,0.913,0.471,0.929z"/>
	</g>
	<g>
		<polygon fill="#DF4175" points="0.65,1 0.65,1.25 0.55,1.3 0.55,1.05 		"/>
		<polygon fill="#DF4175" points="0.55,1.55 0.65,1.5 0.65,1.75 0.55,1.8 		"/>
		<path fill="#DF4175" d="M0.305,0.949C0.302,0.957,0.3,0.966,0.3,0.975V1.1c0,0.045-0.03,0.083-0.07,0.095
			C0.212,1.187,0.2,1.17,0.2,1.15V0.975L0.3,0.95L0.305,0.949z"/>
		<path fill="#DF4175" d="M0.592,0.807L0.55,0.85L0.484,0.916L0.471,0.929C0.447,0.913,0.418,0.902,0.387,0.901
			C0.383,0.901,0.379,0.9,0.375,0.9c-0.009,0-0.017,0.001-0.025,0.004V0.73c0.023-0.012,0.048-0.02,0.074-0.025
			C0.492,0.716,0.552,0.754,0.592,0.807z"/>
	</g>
	<rect x="0.45" y="1" fill="#7E6311" width="0.05" height="0.1"/>
	<rect x="0.5" y="1" fill="#956D09" width="0.15" height="0.1"/>
	<rect x="0.45" y="1.1" fill="#D69F0A" width="0.05" height="0.15"/>
	<rect x="0.5" y="1.1" fill="#FFB600" width="0.15" height="0.15"/>
	<rect x="0.45" y="1.25" fill="#7E6311" width="0.05" height="0.1"/>
	<rect x="0.5" y="1.25" fill="#956D09" width="0.15" height="0.1"/>
</g>
</svg>
