<?xml version="1.0" encoding="utf-8"?>
<!-- Generator: Adobe Illustrator 24.1.2, SVG Export Plug-In . SVG Version: 6.00 Build 0)  -->
<svg version="1.1" id="Capa_1" xmlns="http://www.w3.org/2000/svg" xmlns:xlink="http://www.w3.org/1999/xlink" x="0px" y="0px"
	 viewBox="0 0 1 1.3" enable-background="new 0 0 1 1.3" xml:space="preserve">
<g>
	<g>
		<g>
			<rect y="0.85" fill="#0A0F32" fill-opacity="0.2" width="1" height="0.45"/>
		</g>
	</g>
	<rect fill="#A8013F" width="1" height="1"/>
	<linearGradient id="SVGID_1_" gradientUnits="userSpaceOnUse" x1="0.5" y1="0.9" x2="0.5" y2="0.1">
		<stop  offset="0" style="stop-color:#E11462"/>
		<stop  offset="0.5" style="stop-color:#F72B78"/>
		<stop  offset="1" style="stop-color:#E11462"/>
	</linearGradient>
	<rect y="0.1" fill="url(#SVGID_1_)" width="1" height="0.8"/>
	<g>
		<polygon fill="#CE024F" points="1,0.325 1,0.425 0.35,0.1 0.55,0.1 		"/>
		<polygon fill="#CE024F" points="1,0.575 1,0.675 0,0.175 0,0.1 0.05,0.1 		"/>
		<polygon fill="#CE024F" points="1,0.825 1,0.9 0.95,0.9 0,0.425 0,0.325 		"/>
		<polygon fill="#CE024F" points="0.65,0.9 0.45,0.9 0,0.675 0,0.575 		"/>
		<polygon fill="#CE024F" points="0.15,0.9 0,0.9 0,0.825 		"/>
		<polygon fill="#CE024F" points="1,0.1 1,0.175 0.85,0.1 		"/>
	</g>
</g>
</svg>
