<?xml version="1.0" encoding="UTF-8" standalone="no"?>
<!-- Generator: Adobe Illustrator 24.1.2, SVG Export Plug-In . SVG Version: 6.00 Build 0)  -->

<svg
   version="1.1"
   id="Capa_1"
   x="0px"
   y="0px"
   width="1px"
   height="1.3px"
   viewBox="0 0 1 1.3"
   enable-background="new 0 0 1 1.3"
   xml:space="preserve"
   sodipodi:docname="candy_fence_l.svg"
   inkscape:version="1.3.2 (091e20e, 2023-11-25, custom)"
   xmlns:inkscape="http://www.inkscape.org/namespaces/inkscape"
   xmlns:sodipodi="http://sodipodi.sourceforge.net/DTD/sodipodi-0.dtd"
   xmlns="http://www.w3.org/2000/svg"
   xmlns:svg="http://www.w3.org/2000/svg"><defs
   id="defs18"><inkscape:path-effect
     effect="fillet_chamfer"
     id="path-effect78-4"
     is_visible="true"
     lpeversion="1"
     nodesatellites_param="F,0,0,1,0,0,0,1 @ F,0,0,1,0,0,0,1 @ F,0,0,1,0,0.91874226,0,1 @ F,0,0,1,0,0,0,1 @ F,0,0,1,0,0,0,1 @ F,0,1,1,0,1.523203,0,1 @ F,0,0,1,0,0,0,1 @ F,0,0,1,0,0,0,1 @ F,0,0,1,0,0.91874226,0,1 @ F,0,0,1,0,0,0,1 @ F,0,0,1,0,0,0,1 @ F,0,0,1,0,0,0,1 @ F,0,0,1,0,0.91874226,0,1 @ F,0,0,1,0,0,0,1 @ F,0,0,1,0,0,0,1 @ F,0,0,1,0,1.523203,0,1 @ F,0,0,1,0,0,0,1 @ F,0,0,1,0,0,0,1 @ F,0,0,1,0,0.91874226,0,1 @ F,0,0,1,0,0,0,1"
     radius="0"
     unit="px"
     method="auto"
     mode="F"
     chamfer_steps="1"
     flexible="false"
     use_knot_distance="true"
     apply_no_radius="true"
     apply_with_radius="true"
     only_selected="false"
     hide_knots="false" /></defs><sodipodi:namedview
   id="namedview18"
   pagecolor="#505050"
   bordercolor="#eeeeee"
   borderopacity="1"
   inkscape:showpageshadow="0"
   inkscape:pageopacity="0"
   inkscape:pagecheckerboard="0"
   inkscape:deskcolor="#505050"
   inkscape:lockguides="true"
   showgrid="false"
   inkscape:zoom="256"
   inkscape:cx="0.13085938"
   inkscape:cy="0.35351562"
   inkscape:window-width="3440"
   inkscape:window-height="1417"
   inkscape:window-x="-8"
   inkscape:window-y="-8"
   inkscape:window-maximized="1"
   inkscape:current-layer="Capa_1"><inkscape:grid
     id="grid19"
     units="px"
     originx="0"
     originy="0"
     spacingx="1"
     spacingy="1"
     empcolor="#0099e5"
     empopacity="0.30196078"
     color="#0099e5"
     opacity="0.14901961"
     empspacing="5"
     dotted="false"
     gridanglex="30"
     gridanglez="30"
     visible="false" /></sodipodi:namedview>
<g
   id="g18"
   style="stroke-width:1">
	<g
   id="g1"
   style="stroke-width:1">
		<path
   fill="#0a0f32"
   fill-opacity="0.2"
   d="M 0,1.3 V 0.85 H 0.9 C 0.95,0.85 1,0.9 1,0.96 V 1.19 C 1,1.25 0.95,1.3 0.9,1.3 Z"
   id="path1"
   style="stroke-width:1" />
	</g><path
   id="path93"
   style="color:#000000;fill:#a8013f;fill-opacity:1;stroke-width:20;-inkscape-stroke:none"
   d="m 0.65039062,0 c 0.0609543,2e-8 0.11403466,0.02953609 0.1484375,0.07226562 0.0243934,0.03029743 0.027659,0.06396525 0.0332031,0.09570313 0.0434342,0.008965 0.0885913,0.0191699 0.1171875,0.0546875 C 0.98313618,0.26478401 1,0.31865401 1,0.375 1,0.42315775 0.97885625,0.46300894 0.95507813,0.5 0.97885851,0.53699326 1,0.57684495 1,0.625 1,0.6813456 0.9831374,0.73521545 0.9492187,0.77734375 0.9235071,0.80927865 0.8799242,0.82135685 0.83789057,0.83203125 0.82908357,0.86653265 0.81995767,0.90149065 0.79882807,0.92773435 0.76442522,0.97046395 0.71095422,0.99999995 0.65,0.99999995 H 0 V 0 Z"
   sodipodi:nodetypes="csccscsscssccc" />
	
	
		<linearGradient
   id="SVGID_1_"
   gradientUnits="userSpaceOnUse"
   x1="-1363.45"
   y1="767.09998"
   x2="-1363.45"
   y2="767.90002"
   gradientTransform="matrix(-1,0,0,1,-1363,-767)">
		<stop
   offset="0"
   style="stop-color:#E11462"
   id="stop2" />
		<stop
   offset="0.5"
   style="stop-color:#F72B78"
   id="stop3" />
		<stop
   offset="1"
   style="stop-color:#E11462"
   id="stop4" />
	</linearGradient>
	<path
   id="path4"
   style="fill:url(#SVGID_1_);stroke-width:1"
   d="m 0,0.1 v 0.8 h 0.65 3.9062e-4 V 0.1 H 0.65 Z" />
	<g
   id="g7"
   style="stroke-width:1">
		<polygon
   fill="#ce024f"
   points="0,0.675 0,0.575 0.65,0.9 0.45,0.9 "
   id="polygon4"
   style="stroke-width:1" />
		<path
   id="path5"
   style="fill:#ce024f;fill-opacity:1;stroke-width:1"
   d="m 0,0.325 v 0.1 L 0.65039062,0.75058594 V 0.65019531 Z" />
		<path
   id="path6"
   style="fill:#ce024f;fill-opacity:1;stroke-width:1"
   d="M 0,0.1 V 0.175 L 0.65039062,0.49990234 V 0.39980469 L 0.05,0.1 Z" />
		<path
   id="path7"
   style="fill:#ce024f;fill-opacity:1;stroke-width:1"
   d="M 0.35,0.1 0.65039062,0.25019531 V 0.15039062 L 0.55,0.1 Z" />
		<polygon
   fill="#ce024f"
   points="0.15,0.9 0,0.9 0,0.825 "
   id="polygon7"
   style="stroke-width:1" />
	</g>
	
<path
   id="path74"
   style="fill:#f92d7b;fill-opacity:1;stroke-width:140;stroke-linecap:round;paint-order:fill markers stroke"
   d="m -30,2 c -1.104569,0 -2,1.1192881 -2,2.5 8.7e-5,0.019794 3.61e-4,0.039575 8.23e-4,0.05934 0.01181,0.5053301 -0.157814,0.5892083 -0.647723,0.4796959 C -32.762879,5.0131098 -32.88102,4.9999226 -33,5 c -1.104569,0 -2,1.1192881 -2,2.5 0,0.7402327 0.257373,1.4053246 0.666362,1.8630811 0.543831,0.6086761 0.543919,0.6651439 9.8e-5,1.2737279 C -34.742586,11.094569 -35,11.759708 -35,12.5 c 0,1.380712 0.895431,2.5 2,2.5 0.120853,-6.01e-4 0.240788,-0.01488 0.358421,-0.04228 0.488949,-0.113897 0.655344,-0.03244 0.642563,0.472876 -5.85e-4,0.02311 -9.13e-4,0.04625 -9.84e-4,0.06941 0,1.380712 0.895431,2.5 2,2.5 1.104569,0 2,-1.119288 2,-2.5 -2.6e-5,-0.02099 -2.64e-4,-0.04196 -7.12e-4,-0.06292 -0.01081,-0.505354 0.158691,-0.588672 0.64822,-0.477399 0.115751,0.02631 0.233687,0.03993 0.352492,0.04032 1.104569,0 2,-1.119288 2,-2.5 0,-0.740233 -0.257373,-1.405325 -0.666362,-1.863081 -0.543831,-0.608676 -0.543919,-0.6651435 -9.8e-5,-1.2737277 C -25.257414,8.9054314 -25,8.2402921 -25,7.5 -25,6.1192881 -25.895431,5 -27,5 c -0.120853,6.015e-4 -0.240788,0.014884 -0.358421,0.042285 -0.488949,0.1138963 -0.655344,0.032436 -0.642563,-0.4728758 C -28.000399,4.5462948 -28.000071,4.5231561 -28,4.5 -28,3.1192881 -28.895431,2 -30,2 Z"
   transform="matrix(0.05,0,0,0.05,2.15,0)"
   inkscape:original-d="m -30,2 a 2,2.5 0 0 0 -2,2.5 2,2.5 0 0 0 0.158203,0.9609375 A 2,2.5 0 0 0 -33,5 a 2,2.5 0 0 0 -2,2.5 2,2.5 0 0 0 2,2.5 2,2.5 0 0 0 -2,2.5 2,2.5 0 0 0 2,2.5 2,2.5 0 0 0 1.160156,-0.470703 A 2,2.5 0 0 0 -32,15.5 2,2.5 0 0 0 -30,18 2,2.5 0 0 0 -28,15.5 2,2.5 0 0 0 -28.15625,14.535156 2,2.5 0 0 0 -27,15 2,2.5 0 0 0 -25,12.5 2,2.5 0 0 0 -27,10 2,2.5 0 0 0 -25,7.5 2,2.5 0 0 0 -27,5 2,2.5 0 0 0 -28.160156,5.4707031 2,2.5 0 0 0 -28,4.5 2,2.5 0 0 0 -30,2 Z"
   inkscape:path-effect="#path-effect78-4" /><path
   id="path75"
   style="fill:#ff3a84;fill-opacity:1;stroke-width:7;stroke-linecap:round;paint-order:fill markers stroke"
   d="M 0.8341797,0.25761719 C 0.8441607,0.27706579 0.85,0.30017779 0.85,0.32499999 c 0,0.0370146 -0.0128485,0.0702761 -0.0333008,0.0931641 -0.027191,0.0304292 -0.0271915,0.0332381 0,0.0636719 C 0.8371486,0.50472379 0.85,0.53798839 0.85,0.57499999 c 0,0.0690355 -0.0447716,0.125 -0.1,0.125 -0.00594,-1.975e-5 -0.0117906,-7.35e-4 -0.0175781,-0.002051 C 0.7079455,0.69238499 0.6994597,0.69660699 0.7,0.72187479 c 2.24e-5,0.001048 -1.3e-6,0.002076 0,0.003125 0,0.0690355 -0.0447716,0.125 -0.1,0.125 -0.0119996,0 -0.0235193,-0.002773 -0.0341797,-0.007617 0.0177785,0.034642 0.0488091,0.0576172 0.0841797,0.0576172 0.0552284,0 0.1,-0.0559645 0.1,-0.125 -1.3e-6,-0.00105 2.24e-5,-0.002077 0,-0.003125 -5.405e-4,-0.0252677 0.007945,-0.0294894 0.0324219,-0.0239258 0.005787,0.001316 0.0116378,0.002031 0.0175781,0.002051 0.0552284,0 0.1,-0.0559645 0.1,-0.125 0,-0.0370116 -0.0128514,-0.0702762 -0.0333008,-0.093164 -0.0271915,-0.0304338 -0.027191,-0.0332427 0,-0.0636719 C 0.8871515,0.44527609 0.9,0.41201459 0.9,0.37499999 0.9,0.32096399 0.8725838,0.27506749 0.8341797,0.25761719 Z"
   sodipodi:nodetypes="cssssccscscsccccssssc" /><path
   id="path76"
   style="fill:#ef2270;fill-opacity:1;stroke-width:7;stroke-linecap:round;paint-order:fill markers stroke"
   d="m 0.65,0.1 c -0.0552284,0 -0.1,0.0559645 -0.1,0.125 4.35e-6,9.897e-4 -2.31e-5,0.001941 0,0.00293 C 0.5505905,0.2531965 0.542171,0.2574291 0.5176758,0.2519534 0.5118768,0.2506564 0.505949,0.2499964 0.5,0.2500004 c -0.0552284,0 -0.1,0.0559645 -0.1,0.125 0,0.0370116 0.0128514,0.0702763 0.0333008,0.0931641 0.0271915,0.0304338 0.027191,0.0332427 0,0.0636719 C 0.4128485,0.5547243 0.4,0.5879859 0.4,0.6250004 0.4,0.6790364 0.4274162,0.724933 0.4658203,0.7423832 0.4558393,0.7229345 0.45,0.6998226 0.45,0.6750004 c 0,-0.0370145 0.0128485,-0.0702761 0.0333008,-0.0931641 0.027191,-0.0304292 0.0271915,-0.0332381 0,-0.0636719 C 0.4628513,0.4952767 0.45,0.462012 0.45,0.4250004 c 0,-0.0690355 0.0447716,-0.125 0.1,-0.125 0.005949,-3.87e-6 0.0118768,6.5685e-4 0.0176758,0.001953 C 0.5921712,0.3074294 0.6005904,0.3031964 0.6,0.27793 c -2.31e-5,-9.882e-4 4.35e-6,-0.00194 0,-0.00293 0,-0.0690355 0.0447716,-0.12500001 0.1,-0.12500001 0.0119996,0 0.0235193,0.002773 0.0341797,0.007617 C 0.7164012,0.12297569 0.6853706,0.10000039 0.65,0.1 Z"
   sodipodi:nodetypes="cccccsssscsscsccscscc" /><path
   id="path77"
   style="fill:#b10046;fill-opacity:1;stroke-width:7;stroke-linecap:round;paint-order:fill markers stroke"
   d="M 0.65,0.1625 A 0.05,0.0625 0 0 0 0.6,0.225 0.05,0.0625 0 0 0 0.65,0.2875 0.05,0.0625 0 0 0 0.7,0.225 0.05,0.0625 0 0 0 0.65,0.1625 Z M 0.5,0.3125 A 0.05,0.0625 0 0 0 0.45,0.375 0.05,0.0625 0 0 0 0.5,0.4375 0.05,0.0625 0 0 0 0.55,0.375 0.05,0.0625 0 0 0 0.5,0.3125 Z m 0.3,0 A 0.05,0.0625 0 0 0 0.75,0.375 0.05,0.0625 0 0 0 0.8,0.4375 0.05,0.0625 0 0 0 0.85,0.375 0.05,0.0625 0 0 0 0.8,0.3125 Z M 0.65,0.4375 A 0.05,0.0625 0 0 0 0.6,0.5 0.05,0.0625 0 0 0 0.65,0.5625 0.05,0.0625 0 0 0 0.7,0.5 0.05,0.0625 0 0 0 0.65,0.4375 Z M 0.5,0.5625 A 0.05,0.0625 0 0 0 0.45,0.625 0.05,0.0625 0 0 0 0.5,0.6875 0.05,0.0625 0 0 0 0.55,0.625 0.05,0.0625 0 0 0 0.5,0.5625 Z m 0.3,0 A 0.05,0.0625 0 0 0 0.75,0.625 0.05,0.0625 0 0 0 0.8,0.6875 0.05,0.0625 0 0 0 0.85,0.625 0.05,0.0625 0 0 0 0.8,0.5625 Z m -0.15,0.15 A 0.05,0.0625 0 0 0 0.6,0.775 0.05,0.0625 0 0 0 0.65,0.8375 0.05,0.0625 0 0 0 0.7,0.775 0.05,0.0625 0 0 0 0.65,0.7125 Z" /></g>
</svg>
