<?xml version="1.0" encoding="UTF-8" standalone="no"?>
<!-- Generator: Adobe Illustrator 24.1.2, SVG Export Plug-In . SVG Version: 6.00 Build 0)  -->

<svg
   version="1.1"
   id="Capa_1"
   x="0px"
   y="0px"
   width="1px"
   height="1.3px"
   viewBox="0 0 1 1.3"
   enable-background="new 0 0 1 1.3"
   xml:space="preserve"
   sodipodi:docname="candy_fence_b.svg"
   inkscape:version="1.3.2 (091e20e, 2023-11-25, custom)"
   xmlns:inkscape="http://www.inkscape.org/namespaces/inkscape"
   xmlns:sodipodi="http://sodipodi.sourceforge.net/DTD/sodipodi-0.dtd"
   xmlns="http://www.w3.org/2000/svg"
   xmlns:svg="http://www.w3.org/2000/svg"><defs
   id="defs18"><inkscape:path-effect
   effect="fillet_chamfer"
   id="path-effect78-4"
   is_visible="true"
   lpeversion="1"
   nodesatellites_param="F,0,0,1,0,0,0,1 @ F,0,0,1,0,0,0,1 @ F,0,0,1,0,0.91874226,0,1 @ F,0,0,1,0,0,0,1 @ F,0,0,1,0,0,0,1 @ F,0,1,1,0,1.523203,0,1 @ F,0,0,1,0,0,0,1 @ F,0,0,1,0,0,0,1 @ F,0,0,1,0,0.91874226,0,1 @ F,0,0,1,0,0,0,1 @ F,0,0,1,0,0,0,1 @ F,0,0,1,0,0,0,1 @ F,0,0,1,0,0.91874226,0,1 @ F,0,0,1,0,0,0,1 @ F,0,0,1,0,0,0,1 @ F,0,0,1,0,1.523203,0,1 @ F,0,0,1,0,0,0,1 @ F,0,0,1,0,0,0,1 @ F,0,0,1,0,0.91874226,0,1 @ F,0,0,1,0,0,0,1"
   radius="0"
   unit="px"
   method="auto"
   mode="F"
   chamfer_steps="1"
   flexible="false"
   use_knot_distance="true"
   apply_no_radius="true"
   apply_with_radius="true"
   only_selected="false"
   hide_knots="false" />
	
	
		<linearGradient
   id="SVGID_1_"
   gradientUnits="userSpaceOnUse"
   x1="-1283.45"
   y1="-217.89999"
   x2="-1283.45"
   y2="-217.10001"
   gradientTransform="matrix(0,-20,-20,0,-4340,-25660)">
		<stop
   offset="0"
   style="stop-color:#E11462"
   id="stop2" />
		<stop
   offset="0.5"
   style="stop-color:#F72B78"
   id="stop3" />
		<stop
   offset="1"
   style="stop-color:#E11462"
   id="stop4" />
	</linearGradient>
	
	
	
</defs><sodipodi:namedview
   id="namedview18"
   pagecolor="#505050"
   bordercolor="#eeeeee"
   borderopacity="1"
   inkscape:showpageshadow="0"
   inkscape:pageopacity="0"
   inkscape:pagecheckerboard="0"
   inkscape:deskcolor="#505050"
   showgrid="true"
   inkscape:zoom="256"
   inkscape:cx="2.8847656"
   inkscape:cy="1.3183594"
   inkscape:window-width="3440"
   inkscape:window-height="1417"
   inkscape:window-x="-8"
   inkscape:window-y="-8"
   inkscape:window-maximized="1"
   inkscape:current-layer="g20"><inkscape:grid
     id="grid19"
     units="px"
     originx="0"
     originy="0"
     spacingx="1"
     spacingy="1"
     empcolor="#0099e5"
     empopacity="0.30196078"
     color="#0099e5"
     opacity="0.14901961"
     empspacing="5"
     dotted="false"
     gridanglex="30"
     gridanglez="30"
     visible="true" /></sodipodi:namedview>
<path
   fill="#0a0f32"
   fill-opacity="0.2"
   d="m 0.5,1.3 v 0 C 0.224,1.3 0,1.076 0,0.8 V 0 H 1 V 0.8 C 1,1.076 0.776,1.3 0.5,1.3 Z"
   id="path1"
   style="stroke-width:1" />

<g
   id="g20"
   transform="scale(0.05)"
   style="stroke-width:20"><path
     id="path93"
     style="color:#000000;fill:#a8013f;fill-opacity:1;stroke-width:400;-inkscape-stroke:none"
     d="m 5e-7,13.007812 c 4e-7,1.219087 0.5907218,2.280694 1.4453124,2.96875 0.6059486,0.487868 1.279305,0.553181 1.9140626,0.664063 0.1792998,0.868683 0.3833988,1.771827 1.09375,2.34375 C 5.2956807,19.662724 6.3730807,20 7.5000005,20 8.4631555,20 9.2601793,19.577125 10.000001,19.101563 10.739866,19.57717 11.5369,20 12.500001,20 c 1.126912,0 2.204309,-0.337251 3.046875,-1.015625 0.638697,-0.514233 0.880261,-1.38589 1.093749,-2.226563 0.690028,-0.17614 1.389188,-0.358658 1.914062,-0.78125 C 19.409279,15.288504 20,14.219084 20,13 V 0 H 5e-7 Z"
     sodipodi:nodetypes="csccscsscssccc" /><path
     id="path4"
     style="fill:url(#SVGID_1_);stroke-width:20"
     d="M 2,0 V 13 H 18 V 0 Z" /><g
     id="g7"
     style="stroke-width:1"
     transform="scale(20)">
		<polygon
   fill="#ce024f"
   points="0.1,0.65 0.1,0.45 0.325,0 0.425,0 "
   id="polygon4"
   style="stroke-width:1" />
		<path
   id="path5"
   style="fill:#ce024f;fill-opacity:1;stroke-width:1"
   d="M 0.575,0 0.24960938,0.65 H 0.35 L 0.675,0 Z" />
		<path
   id="path6"
   style="fill:#ce024f;fill-opacity:1;stroke-width:1"
   d="M 0.825,0 0.50029297,0.65 H 0.60039063 L 0.9,0.05 V 0 Z" />
		<path
   id="path7"
   style="fill:#ce024f;fill-opacity:1;stroke-width:1"
   d="m 0.9,0.35 -0.15,0.3 h 0.1 L 0.9,0.55 Z" />
		<polygon
   fill="#ce024f"
   points="0.175,0 0.1,0.15 0.1,0 "
   id="polygon7"
   style="stroke-width:1" />
	</g><path
     id="path74"
     style="fill:#f92d7b;fill-opacity:1;stroke-width:140;stroke-linecap:round;paint-order:fill markers stroke"
     d="m -30,2 c -1.104569,0 -2,1.1192881 -2,2.5 8.7e-5,0.019794 3.61e-4,0.039575 8.23e-4,0.05934 0.01181,0.5053301 -0.157814,0.5892083 -0.647723,0.4796959 C -32.762879,5.0131098 -32.88102,4.9999226 -33,5 c -1.104569,0 -2,1.1192881 -2,2.5 0,0.7402327 0.257373,1.4053246 0.666362,1.8630811 0.543831,0.6086761 0.543919,0.6651439 9.8e-5,1.2737279 C -34.742586,11.094569 -35,11.759708 -35,12.5 c 0,1.380712 0.895431,2.5 2,2.5 0.120853,-6.01e-4 0.240788,-0.01488 0.358421,-0.04228 0.488949,-0.113897 0.655344,-0.03244 0.642563,0.472876 -5.85e-4,0.02311 -9.13e-4,0.04625 -9.84e-4,0.06941 0,1.380712 0.895431,2.5 2,2.5 1.104569,0 2,-1.119288 2,-2.5 -2.6e-5,-0.02099 -2.64e-4,-0.04196 -7.12e-4,-0.06292 -0.01081,-0.505354 0.158691,-0.588672 0.64822,-0.477399 0.115751,0.02631 0.233687,0.03993 0.352492,0.04032 1.104569,0 2,-1.119288 2,-2.5 0,-0.740233 -0.257373,-1.405325 -0.666362,-1.863081 -0.543831,-0.608676 -0.543919,-0.6651435 -9.8e-5,-1.2737277 C -25.257414,8.9054314 -25,8.2402921 -25,7.5 -25,6.1192881 -25.895431,5 -27,5 c -0.120853,6.015e-4 -0.240788,0.014884 -0.358421,0.042285 -0.488949,0.1138963 -0.655344,0.032436 -0.642563,-0.4728758 C -28.000399,4.5462948 -28.000071,4.5231561 -28,4.5 -28,3.1192881 -28.895431,2 -30,2 Z"
     inkscape:path-effect="#path-effect78-4"
     inkscape:original-d="m -30,2 a 2,2.5 0 0 0 -2,2.5 2,2.5 0 0 0 0.158203,0.9609375 A 2,2.5 0 0 0 -33,5 a 2,2.5 0 0 0 -2,2.5 2,2.5 0 0 0 2,2.5 2,2.5 0 0 0 -2,2.5 2,2.5 0 0 0 2,2.5 2,2.5 0 0 0 1.160156,-0.470703 A 2,2.5 0 0 0 -32,15.5 2,2.5 0 0 0 -30,18 2,2.5 0 0 0 -28,15.5 2,2.5 0 0 0 -28.15625,14.535156 2,2.5 0 0 0 -27,15 2,2.5 0 0 0 -25,12.5 2,2.5 0 0 0 -27,10 2,2.5 0 0 0 -25,7.5 2,2.5 0 0 0 -27,5 2,2.5 0 0 0 -28.160156,5.4707031 2,2.5 0 0 0 -28,4.5 2,2.5 0 0 0 -30,2 Z"
     transform="matrix(0,1,1,0,4e-7,43)" /><path
     id="path75"
     style="fill:#ff3a84;fill-opacity:1;stroke-width:140;stroke-linecap:round;paint-order:fill markers stroke"
     d="M 5.1523443,16.683594 C 5.5413163,16.883214 6.0035563,17 6.5000003,17 c 0.740292,0 1.405522,-0.25697 1.863282,-0.666016 0.608584,-0.54382 0.664762,-0.54383 1.273438,0 C 10.094476,16.742972 10.759768,17 11.5,17 12.88071,17 14,16.104568 14,15 13.999605,14.8812 13.9853,14.764188 13.95898,14.648438 13.8477,14.15891 13.93214,13.989194 14.437496,14 c 0.02096,4.48e-4 0.04152,-2.6e-5 0.0625,0 1.38071,0 2.5,-0.895432 2.5,-2 0,-0.239992 -0.05546,-0.470386 -0.15234,-0.683594 C 17.540496,11.671976 18,12.292588 18,13 c 0,1.104568 -1.11929,2 -2.5,2 -0.021,-2.6e-5 -0.04154,4.48e-4 -0.0625,0 -0.505354,-0.01081 -0.589788,0.1589 -0.478516,0.648438 0.02632,0.11574 0.04062,0.232756 0.04102,0.351562 0,1.104568 -1.11929,2 -2.5,2 -0.740232,0 -1.405524,-0.257028 -1.86328,-0.666016 -0.608676,-0.54383 -0.6648537,-0.54382 -1.2734377,0 C 8.9055223,17.74303 8.2402923,18 7.5000003,18 c -1.08072,0 -1.99865,-0.548324 -2.347656,-1.316406 z"
     sodipodi:nodetypes="cssssccscscsccccssssc" /><path
     id="path76"
     style="fill:#ef2270;fill-opacity:1;stroke-width:140;stroke-linecap:round;paint-order:fill markers stroke"
     d="m 2.0000005,13 c 0,-1.104568 1.11929,-2 2.5,-2 0.019794,8.7e-5 0.03882,-4.62e-4 0.0586,0 0.50533,0.01181 0.589982,-0.15658 0.480468,-0.646484 -0.02594,-0.11598 -0.03914,-0.234536 -0.03906,-0.353516 0,-1.104568 1.11929,-2 2.5,-2 0.740232,0 1.405526,0.257028 1.863282,0.666016 0.608676,0.54383 0.6648545,0.54382 1.2734385,0 C 11.094487,8.25697 11.759719,8 12.500009,8 13.580729,8 14.498661,8.548324 14.847665,9.316406 14.458691,9.116786 13.996453,9 13.500009,9 c -0.74029,0 -1.405522,0.25697 -1.863282,0.666016 -0.608584,0.54382 -0.664763,0.54383 -1.273439,0 C 9.9055345,9.257026 9.2402405,9 8.5000085,9 c -1.38071,0 -2.5,0.895432 -2.5,2 -7.74e-5,0.11898 0.013137,0.237536 0.03906,0.353516 0.10952,0.489908 0.02486,0.658292 -0.480468,0.646484 -0.019764,-4.62e-4 -0.0388,8.7e-5 -0.0586,0 -1.38071,0 -2.5000002,0.895432 -2.5000002,2 0,0.239992 0.05546,0.470386 0.15234,0.683594 C 2.4595143,14.328024 2.0000083,13.707412 2.0000005,13 Z"
     sodipodi:nodetypes="cccccsssscsscsccscscc" /><path
     id="path77"
     style="fill:#b10046;fill-opacity:1;stroke-width:140;stroke-linecap:round;paint-order:fill markers stroke"
     d="m 3.2500005,13 a 1.25,1 0 0 1 1.25,-1 1.25,1 0 0 1 1.25,1 1.25,1 0 0 1 -1.25,1 1.25,1 0 0 1 -1.25,-1 z m 3,-3 a 1.25,1 0 0 1 1.25,-1 1.25,1 0 0 1 1.25,1 1.25,1 0 0 1 -1.25,1 1.25,1 0 0 1 -1.25,-1 z m 0,6 a 1.25,1 0 0 1 1.25,-1 1.25,1 0 0 1 1.25,1 1.25,1 0 0 1 -1.25,1 1.25,1 0 0 1 -1.25,-1 z m 2.5,-3 a 1.25,1 0 0 1 1.2500005,-1 1.25,1 0 0 1 1.25,1 1.25,1 0 0 1 -1.25,1 1.25,1 0 0 1 -1.2500005,-1 z m 2.5000005,-3 a 1.25,1 0 0 1 1.25,-1 1.25,1 0 0 1 1.25,1 1.25,1 0 0 1 -1.25,1 1.25,1 0 0 1 -1.25,-1 z m 0,6 a 1.25,1 0 0 1 1.25,-1 1.25,1 0 0 1 1.25,1 1.25,1 0 0 1 -1.25,1 1.25,1 0 0 1 -1.25,-1 z m 3,-3 a 1.25,1 0 0 1 1.25,-1 1.25,1 0 0 1 1.249999,1 1.25,1 0 0 1 -1.249999,1 1.25,1 0 0 1 -1.25,-1 z" /></g></svg>
