<?xml version="1.0" encoding="utf-8"?>
<!-- Generator: Adobe Illustrator 24.1.2, SVG Export Plug-In . SVG Version: 6.00 Build 0)  -->
<svg version="1.1" id="Capa_1" xmlns="http://www.w3.org/2000/svg" xmlns:xlink="http://www.w3.org/1999/xlink" x="0px" y="0px"
	 width="1px" height="1px" viewBox="0 0 1 1" enable-background="new 0 0 1 1" xml:space="preserve">
<g>
	<path id="path2027_2_" fill="#A8013F" d="M0,0h0.05C0.575,0,1,0.425,1,0.95V1H0V0z"/>
	
		<radialGradient id="SVGID_1_" cx="-762.7985" cy="-291.2007" r="0.9014" gradientTransform="matrix(-1 0 0 1 -762.8 292.2)" gradientUnits="userSpaceOnUse">
		<stop  offset="0" style="stop-color:#E11462"/>
		<stop  offset="0.5" style="stop-color:#F72B78"/>
		<stop  offset="1" style="stop-color:#E11462"/>
	</radialGradient>
	<path fill="url(#SVGID_1_)" d="M0,1V0.1h0.054c0.016,0,0.033,0.001,0.05,0.002c0.118,0.007,0.23,0.039,0.33,0.09
		c0.1,0.051,0.189,0.121,0.261,0.206c0.03,0.033,0.055,0.069,0.079,0.105C0.783,0.518,0.792,0.534,0.801,0.55
		c0.056,0.106,0.09,0.226,0.098,0.352C0.9,0.918,0.9,0.934,0.9,0.95V1H0z"/>
	<g id="g2034_2_">
		<path id="path2030_2_" fill="#CE024F" d="M0,0.325C0.338,0.494,0.614,0.622,0.425,1h-0.1C0.452,0.746,0.381,0.616,0,0.425V0.325z"
			/>
		<path id="path2031_2_" fill="#CE024F" d="M0,0.575C0.279,0.715,0.26,0.83,0.175,1h-0.1C0.153,0.844,0.164,0.757,0,0.675V0.575z"/>
		<path fill="#CE024F" d="M0,0.175V0.1h0.054C0.333,0.223,0.957,0.435,0.675,1h-0.1C0.791,0.569,0.493,0.422,0,0.175z"/>
		<path id="path2033_2_" fill="#CE024F" d="M0.825,1H0.9V0.95c0-0.016,0-0.032-0.001-0.047C0.896,0.845,0.887,0.789,0.873,0.735
			C0.869,0.816,0.873,0.904,0.825,1L0.825,1z"/>
		<path fill="#CE024F" d="M0,0.925v-0.1C0.056,0.852,0.05,0.864,0.05,1L0,0.925z"/>
	</g>
	<path id="path2029_2_" fill="#A8013F" d="M0,1V0.9c0.032,0,0.061,0.015,0.079,0.039C0.088,0.95,0.094,0.962,0.097,0.975v0.001
		c0,0.002,0.001,0.003,0.001,0.005C0.1,0.987,0.1,0.993,0.1,1H0z"/>
</g>
</svg>
