<?xml version="1.0" encoding="utf-8"?>
<!-- Generator: Adobe Illustrator 24.1.2, SVG Export Plug-In . SVG Version: 6.00 Build 0)  -->
<svg version="1.1" id="Capa_1" xmlns="http://www.w3.org/2000/svg" xmlns:xlink="http://www.w3.org/1999/xlink" x="0px" y="0px"
	 width="1px" height="1.3px" viewBox="0 0 1 1.3" enable-background="new 0 0 1 1.3" xml:space="preserve">
<path fill="#0A0F32" fill-opacity="0.2" d="M0,1.3h0.5C0.776,1.3,1,1.076,1,0.8V0L0,0L0,1.3z"/>
<g>
	<path id="path2027_2_" fill="#A8013F" d="M1,0v0.05C1,0.575,0.575,1,0.05,1H0V0H1z"/>
	
		<radialGradient id="SVGID_1_" cx="-762.7985" cy="1059.2007" r="0.9014" gradientTransform="matrix(-1.836970e-16 -1 1 -1.836970e-16 -1059.2 -762.8)" gradientUnits="userSpaceOnUse">
		<stop  offset="0" style="stop-color:#E11462"/>
		<stop  offset="0.5" style="stop-color:#F72B78"/>
		<stop  offset="1" style="stop-color:#E11462"/>
	</radialGradient>
	<path fill="url(#SVGID_1_)" d="M0,0h0.9v0.054c0,0.016-0.001,0.033-0.002,0.05c-0.007,0.118-0.039,0.23-0.09,0.33
		c-0.051,0.1-0.121,0.189-0.206,0.261C0.569,0.725,0.533,0.75,0.497,0.774C0.482,0.783,0.466,0.792,0.45,0.801
		c-0.106,0.056-0.226,0.09-0.352,0.098C0.082,0.9,0.066,0.9,0.05,0.9H0V0z"/>
	<g id="g2034_2_">
		<path id="path2030_2_" fill="#CE024F" d="M0.675,0C0.506,0.338,0.378,0.614,0,0.425v-0.1C0.254,0.452,0.384,0.381,0.575,0H0.675z"
			/>
		<path id="path2031_2_" fill="#CE024F" d="M0.425,0C0.285,0.279,0.17,0.26,0,0.175v-0.1C0.156,0.153,0.243,0.164,0.325,0H0.425z"/>
		<path fill="#CE024F" d="M0.825,0H0.9v0.054C0.777,0.333,0.565,0.957,0,0.675v-0.1C0.431,0.791,0.578,0.493,0.825,0z"/>
		<path id="path2033_2_" fill="#CE024F" d="M0,0.825V0.9h0.05c0.016,0,0.032,0,0.047-0.001c0.058-0.003,0.114-0.012,0.168-0.026
			C0.184,0.869,0.096,0.873,0,0.825L0,0.825z"/>
		<path fill="#CE024F" d="M0.075,0h0.1C0.148,0.056,0.136,0.05,0,0.05L0.075,0z"/>
	</g>
	<path id="path2029_2_" fill="#A8013F" d="M0,0h0.1c0,0.032-0.015,0.061-0.039,0.079C0.05,0.088,0.038,0.094,0.025,0.097H0.024
		c-0.002,0-0.003,0.001-0.005,0.001C0.013,0.1,0.007,0.1,0,0.1V0z"/>
</g>
</svg>
