<?xml version="1.0" encoding="UTF-8" standalone="no"?>
<!-- Generator: Adobe Illustrator 24.1.2, SVG Export Plug-In . SVG Version: 6.00 Build 0)  -->

<svg
   version="1.1"
   id="Capa_1"
   x="0px"
   y="0px"
   viewBox="0 0 1 1"
   enable-background="new 0 0 1 1"
   xml:space="preserve"
   sodipodi:docname="candy_fence_t.svg"
   inkscape:version="1.3.2 (091e20e, 2023-11-25, custom)"
   xmlns:inkscape="http://www.inkscape.org/namespaces/inkscape"
   xmlns:sodipodi="http://sodipodi.sourceforge.net/DTD/sodipodi-0.dtd"
   xmlns="http://www.w3.org/2000/svg"
   xmlns:svg="http://www.w3.org/2000/svg"><defs
   id="defs17"><inkscape:path-effect
   effect="fillet_chamfer"
   id="path-effect78-4"
   is_visible="true"
   lpeversion="1"
   nodesatellites_param="F,0,0,1,0,0,0,1 @ F,0,0,1,0,0,0,1 @ F,0,0,1,0,0.91874226,0,1 @ F,0,0,1,0,0,0,1 @ F,0,0,1,0,0,0,1 @ F,0,1,1,0,1.523203,0,1 @ F,0,0,1,0,0,0,1 @ F,0,0,1,0,0,0,1 @ F,0,0,1,0,0.91874226,0,1 @ F,0,0,1,0,0,0,1 @ F,0,0,1,0,0,0,1 @ F,0,0,1,0,0,0,1 @ F,0,0,1,0,0.91874226,0,1 @ F,0,0,1,0,0,0,1 @ F,0,0,1,0,0,0,1 @ F,0,0,1,0,1.523203,0,1 @ F,0,0,1,0,0,0,1 @ F,0,0,1,0,0,0,1 @ F,0,0,1,0,0.91874226,0,1 @ F,0,0,1,0,0,0,1"
   radius="0"
   unit="px"
   method="auto"
   mode="F"
   chamfer_steps="1"
   flexible="false"
   use_knot_distance="true"
   apply_no_radius="true"
   apply_with_radius="true"
   only_selected="false"
   hide_knots="false" />
	
	
		<linearGradient
   id="SVGID_1_"
   gradientUnits="userSpaceOnUse"
   x1="-218.45"
   y1="-79.099998"
   x2="-218.45"
   y2="-79.900002"
   gradientTransform="matrix(0,20,-20,0,-1580,4380)">
		<stop
   offset="0"
   style="stop-color:#E11462"
   id="stop1" />
		<stop
   offset="0.5"
   style="stop-color:#F72B78"
   id="stop2" />
		<stop
   offset="1"
   style="stop-color:#E11462"
   id="stop3" />
	</linearGradient>
	
	
	
</defs><sodipodi:namedview
   id="namedview17"
   pagecolor="#505050"
   bordercolor="#eeeeee"
   borderopacity="1"
   inkscape:showpageshadow="0"
   inkscape:pageopacity="0"
   inkscape:pagecheckerboard="0"
   inkscape:deskcolor="#505050"
   showgrid="false"
   inkscape:zoom="64"
   inkscape:cx="0.7734375"
   inkscape:cy="-1.4140625"
   inkscape:window-width="3440"
   inkscape:window-height="1417"
   inkscape:window-x="-8"
   inkscape:window-y="-8"
   inkscape:window-maximized="1"
   inkscape:current-layer="Capa_1"><inkscape:grid
     id="grid18"
     units="px"
     originx="0"
     originy="0"
     spacingx="1"
     spacingy="1"
     empcolor="#0099e5"
     empopacity="0.30196078"
     color="#0099e5"
     opacity="0.14901961"
     empspacing="5"
     dotted="false"
     gridanglex="30"
     gridanglez="30"
     visible="false" /></sodipodi:namedview>

<g
   id="g21"
   transform="scale(0.05)"
   style="stroke-width:20"><path
     id="path93"
     style="color:#000000;fill:#a8013f;fill-opacity:1;stroke-width:400;-inkscape-stroke:none"
     d="M 0,6.992188 C 0,5.773108 0.59072,4.711494 1.44532,4.023438 2.05126,3.535578 2.72462,3.470258 3.35938,3.359378 3.53858,2.490698 3.74278,1.587558 4.45312,1.015628 5.29568,0.337276 6.37308,0 7.5,0 8.463156,0 9.26018,0.422874 10.000002,0.898436 10.739866,0.42283 11.5369,0 12.500002,0 c 1.12692,0 2.204308,0.33726 3.046874,1.01562 0.6387,0.51424 0.88026,1.38588 1.09374,2.226564 0.69002,0.1762 1.38918,0.35866 1.91406,0.78126 C 19.409278,4.711496 20,5.780916 20,7 V 20 H 0 Z"
     sodipodi:nodetypes="csccscsscssccc" /><path
     id="path3"
     style="fill:url(#SVGID_1_);stroke-width:20"
     d="M 2,7 V 20 H 18 V 7 Z" /><g
     id="g6"
     style="stroke-width:1"
     transform="scale(20)">
		<polygon
   fill="#ce024f"
   points="0.9,0.35 0.9,0.55 0.675,1 0.575,1 "
   id="polygon3"
   style="stroke-width:1" />
		<path
   id="path4"
   style="fill:#ce024f;fill-opacity:1;stroke-width:1"
   d="M 0.65,0.35 0.325,1 h 0.1 L 0.75,0.35 Z" />
		<path
   id="path5"
   style="fill:#ce024f;fill-opacity:1;stroke-width:1"
   d="M 0.39960938,0.35 0.1,0.95 V 1 H 0.175 L 0.49970703,0.35 Z" />
		<path
   id="path6"
   style="fill:#ce024f;fill-opacity:1;stroke-width:1"
   d="M 0.15019531,0.35 0.1,0.45 v 0.2 l 0.15,-0.3 z" />
		<polygon
   fill="#ce024f"
   points="0.825,1 0.9,0.85 0.9,1 "
   id="polygon6"
   style="stroke-width:1" />
	</g><path
     id="path74"
     style="fill:#f92d7b;fill-opacity:1;stroke-width:140;stroke-linecap:round;paint-order:fill markers stroke"
     d="m -30,2 c -1.104569,0 -2,1.1192881 -2,2.5 8.7e-5,0.019794 3.61e-4,0.039575 8.23e-4,0.05934 0.01181,0.5053301 -0.157814,0.5892083 -0.647723,0.4796959 C -32.762879,5.0131098 -32.88102,4.9999226 -33,5 c -1.104569,0 -2,1.1192881 -2,2.5 0,0.7402327 0.257373,1.4053246 0.666362,1.8630811 0.543831,0.6086761 0.543919,0.6651439 9.8e-5,1.2737279 C -34.742586,11.094569 -35,11.759708 -35,12.5 c 0,1.380712 0.895431,2.5 2,2.5 0.120853,-6.01e-4 0.240788,-0.01488 0.358421,-0.04228 0.488949,-0.113897 0.655344,-0.03244 0.642563,0.472876 -5.85e-4,0.02311 -9.13e-4,0.04625 -9.84e-4,0.06941 0,1.380712 0.895431,2.5 2,2.5 1.104569,0 2,-1.119288 2,-2.5 -2.6e-5,-0.02099 -2.64e-4,-0.04196 -7.12e-4,-0.06292 -0.01081,-0.505354 0.158691,-0.588672 0.64822,-0.477399 0.115751,0.02631 0.233687,0.03993 0.352492,0.04032 1.104569,0 2,-1.119288 2,-2.5 0,-0.740233 -0.257373,-1.405325 -0.666362,-1.863081 -0.543831,-0.608676 -0.543919,-0.6651435 -9.8e-5,-1.2737277 C -25.257414,8.9054314 -25,8.2402921 -25,7.5 -25,6.1192881 -25.895431,5 -27,5 c -0.120853,6.015e-4 -0.240788,0.014884 -0.358421,0.042285 -0.488949,0.1138963 -0.655344,0.032436 -0.642563,-0.4728758 C -28.000399,4.5462948 -28.000071,4.5231561 -28,4.5 -28,3.1192881 -28.895431,2 -30,2 Z"
     inkscape:path-effect="#path-effect78-4"
     inkscape:original-d="m -30,2 a 2,2.5 0 0 0 -2,2.5 2,2.5 0 0 0 0.158203,0.9609375 A 2,2.5 0 0 0 -33,5 a 2,2.5 0 0 0 -2,2.5 2,2.5 0 0 0 2,2.5 2,2.5 0 0 0 -2,2.5 2,2.5 0 0 0 2,2.5 2,2.5 0 0 0 1.160156,-0.470703 A 2,2.5 0 0 0 -32,15.5 2,2.5 0 0 0 -30,18 2,2.5 0 0 0 -28,15.5 2,2.5 0 0 0 -28.15625,14.535156 2,2.5 0 0 0 -27,15 2,2.5 0 0 0 -25,12.5 2,2.5 0 0 0 -27,10 2,2.5 0 0 0 -25,7.5 2,2.5 0 0 0 -27,5 2,2.5 0 0 0 -28.160156,5.4707031 2,2.5 0 0 0 -28,4.5 2,2.5 0 0 0 -30,2 Z"
     transform="matrix(0,1,1,0,0,37)" /><path
     id="path75"
     style="fill:#ff3a84;fill-opacity:1;stroke-width:140;stroke-linecap:round;paint-order:fill markers stroke"
     d="M 5.152344,10.683594 C 5.541316,10.883214 6.003556,11 6.5,11 c 0.7403,0 1.40552,-0.25698 1.86328,-0.66602 0.60858,-0.54382 0.66476,-0.54384 1.27344,0 C 10.094476,10.742972 10.759768,11 11.5,11 12.88071,11 14,10.104568 14,9 13.999604,8.8812 13.9853,8.764188 13.95898,8.648438 13.8477,8.15891 13.93214,7.989194 14.437496,8 c 0.021,4.48e-4 0.0416,-2.6e-5 0.0626,0 1.38072,0 2.5,-0.89544 2.5,-2 0,-0.24 -0.0554,-0.47038 -0.1524,-0.6836 C 17.540496,5.671976 18,6.292588 18,7 c 0,1.10456 -1.11928,2 -2.5,2 -0.021,-2.6e-5 -0.0416,4.48e-4 -0.0626,0 -0.50536,-0.01081 -0.58978,0.1588 -0.47852,0.64844 0.0264,0.1158 0.0406,0.23276 0.041,0.35156 0,1.10456 -1.11928,2 -2.5,2 -0.74024,0 -1.40552,-0.25702 -1.86328,-0.66602 -0.60868,-0.54382 -0.66486,-0.54382 -1.27344,0 C 8.905522,11.74303 8.240292,12 7.5,12 6.41928,12 5.50135,11.451676 5.152344,10.683594 Z"
     sodipodi:nodetypes="cssssccscscsccccssssc" /><path
     id="path76"
     style="fill:#ef2270;fill-opacity:1;stroke-width:140;stroke-linecap:round;paint-order:fill markers stroke"
     d="M 2,7 C 2,5.89544 3.11928,5 4.5,5 4.51979,5.000088 4.5388,4.999538 4.5586,5 5.06392,5.01181 5.14858,4.8434 5.03906,4.35352 5.01306,4.23752 4.99986,4.11898 5.00006,4 c 0,-1.10456 1.11928,-2 2.5,-2 0.74024,0 1.40552,0.25702 1.86328,0.66602 0.60868,0.54384 0.66486,0.54382 1.27344,0 C 11.094488,2.25697 11.75972,2 12.50001,2 13.58073,2 14.49867,2.54832 14.847666,3.3164 14.458692,3.116786 13.996454,3 13.50001,3 c -0.74028,0 -1.40552,0.25698 -1.86328,0.66602 -0.60858,0.54382 -0.66476,0.54382 -1.27344,0 C 9.905534,3.257026 9.24024,3 8.500008,3 c -1.38072,0 -2.5,0.89544 -2.5,2 -7.6e-5,0.119 0.01314,0.23754 0.039,0.35352 0.1096,0.4899 0.0248,0.6583 -0.48046,0.64648 -0.01976,-4.62e-4 -0.0388,8.8e-5 -0.0586,0 -1.38072,0 -2.5,0.89544 -2.5,2 0,0.24 0.0554,0.47038 0.1524,0.6836 C 2.459514,8.328024 2.000008,7.707412 2,7 Z"
     sodipodi:nodetypes="cccccsssscsscsccscscc" /><path
     id="path77"
     style="fill:#b10046;fill-opacity:1;stroke-width:140;stroke-linecap:round;paint-order:fill markers stroke"
     d="M 3.25,7 A 1.25,1 0 0 1 4.5,6 1.25,1 0 0 1 5.75,7 1.25,1 0 0 1 4.5,8 1.25,1 0 0 1 3.25,7 Z m 3,-3 A 1.25,1 0 0 1 7.5,3 1.25,1 0 0 1 8.75,4 1.25,1 0 0 1 7.5,5 1.25,1 0 0 1 6.25,4 Z m 0,6 A 1.25,1 0 0 1 7.5,9 1.25,1 0 0 1 8.75,10 1.25,1 0 0 1 7.5,11 1.25,1 0 0 1 6.25,10 Z M 8.75,7 A 1.25,1 0 0 1 10,6 1.25,1 0 0 1 11.25,7 1.25,1 0 0 1 10,8 1.25,1 0 0 1 8.75,7 Z m 2.500002,-3 a 1.25,1 0 0 1 1.25,-1 1.25,1 0 0 1 1.25,1 1.25,1 0 0 1 -1.25,1 1.25,1 0 0 1 -1.25,-1 z m 0,6 a 1.25,1 0 0 1 1.25,-1 1.25,1 0 0 1 1.25,1 1.25,1 0 0 1 -1.25,1 1.25,1 0 0 1 -1.25,-1 z M 14.25,7 A 1.25,1 0 0 1 15.5,6 1.25,1 0 0 1 16.75,7 1.25,1 0 0 1 15.5,8 1.25,1 0 0 1 14.25,7 Z" /></g></svg>
