<?xml version="1.0" encoding="UTF-8" standalone="no"?>
<!-- Generator: Adobe Illustrator 24.1.2, SVG Export Plug-In . SVG Version: 6.00 Build 0)  -->

<svg
   version="1.1"
   id="Capa_1"
   x="0px"
   y="0px"
   width="1px"
   height="1.3px"
   viewBox="0 0 1 1.3"
   enable-background="new 0 0 1 1.3"
   xml:space="preserve"
   sodipodi:docname="candy_fence_r.svg"
   inkscape:version="1.3.2 (091e20e, 2023-11-25, custom)"
   xmlns:inkscape="http://www.inkscape.org/namespaces/inkscape"
   xmlns:sodipodi="http://sodipodi.sourceforge.net/DTD/sodipodi-0.dtd"
   xmlns:xlink="http://www.w3.org/1999/xlink"
   xmlns="http://www.w3.org/2000/svg"
   xmlns:svg="http://www.w3.org/2000/svg"><defs
   id="defs18"><inkscape:path-effect
     effect="fillet_chamfer"
     id="path-effect83"
     is_visible="true"
     lpeversion="1"
     nodesatellites_param="F,0,0,1,0,0,0,1 @ F,0,0,1,0,0,0,1 @ F,0,0,1,0,0.91874226,0,1 @ F,0,0,1,0,0,0,1 @ F,0,0,1,0,0,0,1 @ F,0,1,1,0,1.523203,0,1 @ F,0,0,1,0,0,0,1 @ F,0,0,1,0,0,0,1 @ F,0,0,1,0,0.91874226,0,1 @ F,0,0,1,0,0,0,1 @ F,0,0,1,0,0,0,1 @ F,0,0,1,0,0,0,1 @ F,0,0,1,0,0.91874226,0,1 @ F,0,0,1,0,0,0,1 @ F,0,0,1,0,0,0,1 @ F,0,0,1,0,1.523203,0,1 @ F,0,0,1,0,0,0,1 @ F,0,0,1,0,0,0,1 @ F,0,0,1,0,0.91874226,0,1 @ F,0,0,1,0,0,0,1"
     radius="0"
     unit="px"
     method="auto"
     mode="F"
     chamfer_steps="1"
     flexible="false"
     use_knot_distance="true"
     apply_no_radius="true"
     apply_with_radius="true"
     only_selected="false"
     hide_knots="false" /><inkscape:path-effect
     effect="fillet_chamfer"
     id="path-effect78"
     is_visible="true"
     lpeversion="1"
     nodesatellites_param="F,0,0,1,0,0,0,1 @ F,0,0,1,0,0,0,1 @ F,0,0,1,0,0.91874226,0,1 @ F,0,0,1,0,0,0,1 @ F,0,0,1,0,0,0,1 @ F,0,1,1,0,1.523203,0,1 @ F,0,0,1,0,0,0,1 @ F,0,0,1,0,0,0,1 @ F,0,0,1,0,0.91874226,0,1 @ F,0,0,1,0,0,0,1 @ F,0,0,1,0,0,0,1 @ F,0,0,1,0,0,0,1 @ F,0,0,1,0,0.91874226,0,1 @ F,0,0,1,0,0,0,1 @ F,0,0,1,0,0,0,1 @ F,0,0,1,0,1.523203,0,1 @ F,0,0,1,0,0,0,1 @ F,0,0,1,0,0,0,1 @ F,0,0,1,0,0.91874226,0,1 @ F,0,0,1,0,0,0,1"
     radius="0"
     unit="px"
     method="auto"
     mode="F"
     chamfer_steps="1"
     flexible="false"
     use_knot_distance="true"
     apply_no_radius="true"
     apply_with_radius="true"
     only_selected="false"
     hide_knots="false" /><inkscape:path-effect
     effect="fillet_chamfer"
     id="path-effect74"
     is_visible="true"
     lpeversion="1"
     nodesatellites_param="F,0,0,1,0,0,0,1 @ F,0,0,1,0,0,0,1 @ F,0,0,1,0,0.91874226,0,1 @ F,0,0,1,0,0,0,1 @ F,0,0,1,0,0,0,1 @ F,0,1,1,0,1.523203,0,1 @ F,0,0,1,0,0,0,1 @ F,0,0,1,0,0,0,1 @ F,0,0,1,0,0.91874226,0,1 @ F,0,0,1,0,0,0,1 @ F,0,0,1,0,0,0,1 @ F,0,0,1,0,0,0,1 @ F,0,0,1,0,0.91874226,0,1 @ F,0,0,1,0,0,0,1 @ F,0,0,1,0,0,0,1 @ F,0,0,1,0,1.523203,0,1 @ F,0,0,1,0,0,0,1 @ F,0,0,1,0,0,0,1 @ F,0,0,1,0,0.91874226,0,1 @ F,0,0,1,0,0,0,1"
     radius="0"
     unit="px"
     method="auto"
     mode="F"
     chamfer_steps="1"
     flexible="false"
     use_knot_distance="true"
     apply_no_radius="true"
     apply_with_radius="true"
     only_selected="false"
     hide_knots="false" /><inkscape:path-effect
     effect="fillet_chamfer"
     id="path-effect72"
     is_visible="true"
     lpeversion="1"
     nodesatellites_param="F,0,0,1,0,0,0,1 @ F,0,0,1,0,0,0,1 @ F,0,0,1,0,0.91874226,0,1 @ F,0,0,1,0,0,0,1 @ F,0,0,1,0,0,0,1 @ F,0,1,1,0,1.523203,0,1 @ F,0,0,1,0,0,0,1 @ F,0,0,1,0,0,0,1 @ F,0,0,1,0,0.91874226,0,1 @ F,0,0,1,0,0,0,1 @ F,0,0,1,0,0,0,1 @ F,0,0,1,0,0,0,1 @ F,0,0,1,0,0.91874226,0,1 @ F,0,0,1,0,0,0,1 @ F,0,0,1,0,0,0,1 @ F,0,0,1,0,1.523203,0,1 @ F,0,0,1,0,0,0,1 @ F,0,0,1,0,0,0,1 @ F,0,0,1,0,0.91874226,0,1 @ F,0,0,1,0,0,0,1"
     radius="0"
     unit="px"
     method="auto"
     mode="F"
     chamfer_steps="1"
     flexible="false"
     use_knot_distance="true"
     apply_no_radius="true"
     apply_with_radius="true"
     only_selected="false"
     hide_knots="false" /><inkscape:path-effect
     effect="fillet_chamfer"
     id="path-effect70"
     is_visible="true"
     lpeversion="1"
     nodesatellites_param="F,0,0,1,0,0,0,1 @ F,0,0,1,0,0,0,1 @ F,0,0,1,0,0.91874226,0,1 @ F,0,0,1,0,0,0,1 @ F,0,0,1,0,0,0,1 @ F,0,1,1,0,1.523203,0,1 @ F,0,0,1,0,0,0,1 @ F,0,0,1,0,0,0,1 @ F,0,0,1,0,0.91874226,0,1 @ F,0,0,1,0,0,0,1 @ F,0,0,1,0,0,0,1 @ F,0,0,1,0,0,0,1 @ F,0,0,1,0,0.91874226,0,1 @ F,0,0,1,0,0,0,1 @ F,0,0,1,0,0,0,1 @ F,0,0,1,0,1.523203,0,1 @ F,0,0,1,0,0,0,1 @ F,0,0,1,0,0,0,1 @ F,0,0,1,0,0.91874226,0,1 @ F,0,0,1,0,0,0,1"
     radius="0"
     unit="px"
     method="auto"
     mode="F"
     chamfer_steps="1"
     flexible="false"
     use_knot_distance="true"
     apply_no_radius="true"
     apply_with_radius="true"
     only_selected="false"
     hide_knots="false" /><inkscape:path-effect
     effect="fillet_chamfer"
     id="path-effect68"
     is_visible="true"
     lpeversion="1"
     nodesatellites_param="F,0,0,1,0,0,0,1 @ F,0,0,1,0,0,0,1 @ F,0,0,1,0,0.91874226,0,1 @ F,0,0,1,0,0,0,1 @ F,0,0,1,0,0,0,1 @ F,0,1,1,0,1.523203,0,1 @ F,0,0,1,0,0,0,1 @ F,0,0,1,0,0,0,1 @ F,0,0,1,0,0.91874226,0,1 @ F,0,0,1,0,0,0,1 @ F,0,0,1,0,0,0,1 @ F,0,0,1,0,0,0,1 @ F,0,0,1,0,0.91874226,0,1 @ F,0,0,1,0,0,0,1 @ F,0,0,1,0,0,0,1 @ F,0,0,1,0,1.523203,0,1 @ F,0,0,1,0,0,0,1 @ F,0,0,1,0,0,0,1 @ F,0,0,1,0,0.91874226,0,1 @ F,0,0,1,0,0,0,1"
     radius="0"
     unit="px"
     method="auto"
     mode="F"
     chamfer_steps="1"
     flexible="false"
     use_knot_distance="true"
     apply_no_radius="true"
     apply_with_radius="true"
     only_selected="false"
     hide_knots="false" /><inkscape:path-effect
     effect="fillet_chamfer"
     id="path-effect50"
     is_visible="true"
     lpeversion="1"
     nodesatellites_param="F,0,0,1,0,0,0,1 @ F,0,0,1,0,0,0,1 @ F,0,0,1,0,0.91874226,0,1 @ F,0,0,1,0,0,0,1 @ F,0,0,1,0,0,0,1 @ F,0,1,1,0,1.523203,0,1 @ F,0,0,1,0,0,0,1 @ F,0,0,1,0,0,0,1 @ F,0,0,1,0,0.91874226,0,1 @ F,0,0,1,0,0,0,1 @ F,0,0,1,0,0,0,1 @ F,0,0,1,0,0,0,1 @ F,0,0,1,0,0.91874226,0,1 @ F,0,0,1,0,0,0,1 @ F,0,0,1,0,0,0,1 @ F,0,0,1,0,1.523203,0,1 @ F,0,0,1,0,0,0,1 @ F,0,0,1,0,0,0,1 @ F,0,0,1,0,0.91874226,0,1 @ F,0,0,1,0,0,0,1"
     radius="0"
     unit="px"
     method="auto"
     mode="F"
     chamfer_steps="1"
     flexible="false"
     use_knot_distance="true"
     apply_no_radius="true"
     apply_with_radius="true"
     only_selected="false"
     hide_knots="false" /><clipPath
     id="SVGID_4_">
			<use
   xlink:href="#SVGID_3_"
   overflow="visible"
   id="use4" />
		</clipPath><rect
     id="SVGID_3_"
     x="51"
     y="57"
     width="21"
     height="20" /><inkscape:path-effect
     effect="fillet_chamfer"
     id="path-effect78-4"
     is_visible="true"
     lpeversion="1"
     nodesatellites_param="F,0,0,1,0,0,0,1 @ F,0,0,1,0,0,0,1 @ F,0,0,1,0,0.91874226,0,1 @ F,0,0,1,0,0,0,1 @ F,0,0,1,0,0,0,1 @ F,0,1,1,0,1.523203,0,1 @ F,0,0,1,0,0,0,1 @ F,0,0,1,0,0,0,1 @ F,0,0,1,0,0.91874226,0,1 @ F,0,0,1,0,0,0,1 @ F,0,0,1,0,0,0,1 @ F,0,0,1,0,0,0,1 @ F,0,0,1,0,0.91874226,0,1 @ F,0,0,1,0,0,0,1 @ F,0,0,1,0,0,0,1 @ F,0,0,1,0,1.523203,0,1 @ F,0,0,1,0,0,0,1 @ F,0,0,1,0,0,0,1 @ F,0,0,1,0,0.91874226,0,1 @ F,0,0,1,0,0,0,1"
     radius="0"
     unit="px"
     method="auto"
     mode="F"
     chamfer_steps="1"
     flexible="false"
     use_knot_distance="true"
     apply_no_radius="true"
     apply_with_radius="true"
     only_selected="false"
     hide_knots="false" /><inkscape:path-effect
     effect="fillet_chamfer"
     id="path-effect78-4-5"
     is_visible="true"
     lpeversion="1"
     nodesatellites_param="F,0,0,1,0,0,0,1 @ F,0,0,1,0,0,0,1 @ F,0,0,1,0,0.91874226,0,1 @ F,0,0,1,0,0,0,1 @ F,0,0,1,0,0,0,1 @ F,0,1,1,0,1.523203,0,1 @ F,0,0,1,0,0,0,1 @ F,0,0,1,0,0,0,1 @ F,0,0,1,0,0.91874226,0,1 @ F,0,0,1,0,0,0,1 @ F,0,0,1,0,0,0,1 @ F,0,0,1,0,0,0,1 @ F,0,0,1,0,0.91874226,0,1 @ F,0,0,1,0,0,0,1 @ F,0,0,1,0,0,0,1 @ F,0,0,1,0,1.523203,0,1 @ F,0,0,1,0,0,0,1 @ F,0,0,1,0,0,0,1 @ F,0,0,1,0,0.91874226,0,1 @ F,0,0,1,0,0,0,1"
     radius="0"
     unit="px"
     method="auto"
     mode="F"
     chamfer_steps="1"
     flexible="false"
     use_knot_distance="true"
     apply_no_radius="true"
     apply_with_radius="true"
     only_selected="false"
     hide_knots="false" /></defs><sodipodi:namedview
   id="namedview18"
   pagecolor="#505050"
   bordercolor="#eeeeee"
   borderopacity="1"
   inkscape:showpageshadow="0"
   inkscape:pageopacity="0"
   inkscape:pagecheckerboard="0"
   inkscape:deskcolor="#505050"
   showgrid="false"
   inkscape:zoom="256"
   inkscape:cx="2.1503906"
   inkscape:cy="0.72460938"
   inkscape:window-width="3440"
   inkscape:window-height="1417"
   inkscape:window-x="-8"
   inkscape:window-y="-8"
   inkscape:window-maximized="1"
   inkscape:current-layer="g18"><inkscape:grid
     id="grid18"
     units="px"
     originx="0"
     originy="0"
     spacingx="1"
     spacingy="1"
     empcolor="#0099e5"
     empopacity="0.30196078"
     color="#0099e5"
     opacity="0.14901961"
     empspacing="5"
     dotted="false"
     gridanglex="30"
     gridanglez="30"
     visible="false" /></sodipodi:namedview>
<g
   id="g18"
   style="stroke-width:1">
	<g
   id="g1"
   style="stroke-width:1">
		<path
   fill="#0a0f32"
   fill-opacity="0.2"
   d="M 0.1,1.3 C 0.05,1.3 0,1.25 0,1.19 V 0.96 C 0,0.9 0.05,0.85 0.1,0.85 H 1 V 1.3 Z"
   id="path1"
   style="stroke-width:1" />
	</g><path
   id="path93"
   style="color:#000000;fill:#a8013f;fill-opacity:1;stroke-width:20;-inkscape-stroke:none"
   d="M 0.34960938,0 C 0.28865504,2e-8 0.23557472,0.02953609 0.20117188,0.07226562 0.1767785,0.10256305 0.17351284,0.13623087 0.16796875,0.16796875 0.12453459,0.17693374 0.0793774,0.18713869 0.05078125,0.22265625 0.01686382,0.26478401 0,0.31865401 0,0.375 0,0.42315775 0.02114375,0.46300894 0.04492187,0.5 0.02114149,0.53699326 0,0.57684495 0,0.625 c 0,0.0563456 0.01686256,0.11021545 0.05078125,0.15234375 0.02571165,0.0319349 0.06929452,0.0440131 0.11132813,0.0546875 0.008807,0.0345014 0.0179329,0.0694594 0.0390625,0.0957031 0.0344029,0.0427296 0.0878739,0.0722656 0.14882812,0.0722656 H 1 V 0 Z"
   sodipodi:nodetypes="csccscsscssccc" />
	
	
		<linearGradient
   id="SVGID_1_"
   gradientUnits="userSpaceOnUse"
   x1="-1363.45"
   y1="767.09998"
   x2="-1363.45"
   y2="767.90002"
   gradientTransform="matrix(1,0,0,-1,1364,768)">
		<stop
   offset="0"
   style="stop-color:#E11462"
   id="stop2" />
		<stop
   offset="0.5"
   style="stop-color:#F72B78"
   id="stop3" />
		<stop
   offset="1"
   style="stop-color:#E11462"
   id="stop4" />
	</linearGradient>
	<path
   id="path4"
   style="fill:url(#SVGID_1_);stroke-width:1"
   d="m 0.35,0.1 c -0.0552284,0 -0.1,0.0559645 -0.1,0.125 4.33e-6,9.8971e-4 -2.309e-5,0.001941 0,0.00293 C 0.25059042,0.2531965 0.242171,0.2574291 0.2176758,0.2519534 0.21187682,0.25065685 0.20594899,0.24999613 0.2,0.25 c -0.0552284,0 -0.1,0.0559645 -0.1,0.125 0,0.0370116 0.0128513,0.0702763 0.0333008,0.0931641 0.0271915,0.0304338 0.027191,0.0332427 0,0.0636719 C 0.11284848,0.55472391 0.1,0.58798543 0.1,0.625 0.1,0.6940355 0.1447716,0.75 0.2,0.75 0.206043,0.74996993 0.2120871,0.74922165 0.2179687,0.747852 0.2424161,0.742157 0.2507366,0.746219 0.2500976,0.7714848 0.25006842,0.7726401 0.25000355,0.7738422 0.25,0.775 0.25,0.84403552 0.29477158,0.9 0.35,0.9 H 1 V 0.1 Z" />
	<g
   id="g7"
   style="stroke-width:1">
		<polygon
   fill="#ce024f"
   points="1,0.325 1,0.425 0.35,0.1 0.55,0.1 "
   id="polygon4"
   style="stroke-width:1" />
		<path
   id="path5"
   style="fill:#ce024f;fill-opacity:1;stroke-width:1"
   d="M 0.35,0.24960938 V 0.35 L 1,0.675 v -0.1 z" />
		<path
   id="path6"
   style="fill:#ce024f;fill-opacity:1;stroke-width:1"
   d="M 0.35,0.50029297 V 0.60039063 L 0.95,0.9 H 1 V 0.825 Z" />
		<path
   id="path7"
   style="fill:#ce024f;fill-opacity:1;stroke-width:1"
   d="M 0.35,0.75 V 0.8498047 L 0.45,0.9 h 0.2 z" />
		<polygon
   fill="#ce024f"
   points="0.85,0.1 1,0.1 1,0.175 "
   id="polygon7"
   style="stroke-width:1" />
	</g>
	<path
   id="path74"
   style="fill:#f92d7b;fill-opacity:1;stroke-width:140;stroke-linecap:round;paint-order:fill markers stroke"
   d="m -30,2 c -1.104569,0 -2,1.1192881 -2,2.5 8.7e-5,0.019794 3.61e-4,0.039575 8.23e-4,0.05934 0.01181,0.5053301 -0.157814,0.5892083 -0.647723,0.4796959 C -32.762879,5.0131098 -32.88102,4.9999226 -33,5 c -1.104569,0 -2,1.1192881 -2,2.5 0,0.7402327 0.257373,1.4053246 0.666362,1.8630811 0.543831,0.6086761 0.543919,0.6651439 9.8e-5,1.2737279 C -34.742586,11.094569 -35,11.759708 -35,12.5 c 0,1.380712 0.895431,2.5 2,2.5 0.120853,-6.01e-4 0.240788,-0.01488 0.358421,-0.04228 0.488949,-0.113897 0.655344,-0.03244 0.642563,0.472876 -5.85e-4,0.02311 -9.13e-4,0.04625 -9.84e-4,0.06941 0,1.380712 0.895431,2.5 2,2.5 1.104569,0 2,-1.119288 2,-2.5 -2.6e-5,-0.02099 -2.64e-4,-0.04196 -7.12e-4,-0.06292 -0.01081,-0.505354 0.158691,-0.588672 0.64822,-0.477399 0.115751,0.02631 0.233687,0.03993 0.352492,0.04032 1.104569,0 2,-1.119288 2,-2.5 0,-0.740233 -0.257373,-1.405325 -0.666362,-1.863081 -0.543831,-0.608676 -0.543919,-0.6651435 -9.8e-5,-1.2737277 C -25.257414,8.9054314 -25,8.2402921 -25,7.5 -25,6.1192881 -25.895431,5 -27,5 c -0.120853,6.015e-4 -0.240788,0.014884 -0.358421,0.042285 -0.488949,0.1138963 -0.655344,0.032436 -0.642563,-0.4728758 C -28.000399,4.5462948 -28.000071,4.5231561 -28,4.5 -28,3.1192881 -28.895431,2 -30,2 Z"
   inkscape:path-effect="#path-effect78-4"
   inkscape:original-d="m -30,2 a 2,2.5 0 0 0 -2,2.5 2,2.5 0 0 0 0.158203,0.9609375 A 2,2.5 0 0 0 -33,5 a 2,2.5 0 0 0 -2,2.5 2,2.5 0 0 0 2,2.5 2,2.5 0 0 0 -2,2.5 2,2.5 0 0 0 2,2.5 2,2.5 0 0 0 1.160156,-0.470703 A 2,2.5 0 0 0 -32,15.5 2,2.5 0 0 0 -30,18 2,2.5 0 0 0 -28,15.5 2,2.5 0 0 0 -28.15625,14.535156 2,2.5 0 0 0 -27,15 2,2.5 0 0 0 -25,12.5 2,2.5 0 0 0 -27,10 2,2.5 0 0 0 -25,7.5 2,2.5 0 0 0 -27,5 2,2.5 0 0 0 -28.160156,5.4707031 2,2.5 0 0 0 -28,4.5 2,2.5 0 0 0 -30,2 Z"
   transform="matrix(0.05,0,0,0.05,1.85,0)" /><path
   id="path75"
   style="fill:#ff3a84;fill-opacity:1;stroke-width:7;stroke-linecap:round;paint-order:fill markers stroke"
   d="M 0.5341797,0.25761719 C 0.5441607,0.27706579 0.55,0.30017779 0.55,0.32499999 c 0,0.0370146 -0.0128485,0.0702761 -0.0333008,0.0931641 -0.027191,0.0304292 -0.0271915,0.0332381 0,0.0636719 C 0.5371486,0.50472379 0.55,0.53798839 0.55,0.57499999 c 0,0.0690355 -0.0447716,0.125 -0.1,0.125 -0.00594,-1.975e-5 -0.0117906,-7.35e-4 -0.0175781,-0.002051 C 0.4079455,0.69238499 0.3994597,0.69660699 0.4,0.72187479 c 2.24e-5,0.001048 -1.3e-6,0.002076 0,0.003125 0,0.0690355 -0.0447716,0.125 -0.1,0.125 -0.0119996,0 -0.0235193,-0.002773 -0.0341797,-0.007617 0.0177785,0.034642 0.0488091,0.0576172 0.0841797,0.0576172 0.0552284,0 0.1,-0.0559645 0.1,-0.125 -1.3e-6,-0.00105 2.24e-5,-0.002077 0,-0.003125 -5.405e-4,-0.0252677 0.007945,-0.0294894 0.0324219,-0.0239258 0.005787,0.001316 0.0116378,0.002031 0.0175781,0.002051 0.0552284,0 0.1,-0.0559645 0.1,-0.125 0,-0.0370116 -0.0128514,-0.0702762 -0.0333008,-0.093164 -0.0271915,-0.0304338 -0.027191,-0.0332427 0,-0.0636719 C 0.5871515,0.44527609 0.6,0.41201459 0.6,0.37499999 0.6,0.32096399 0.5725838,0.27506749 0.5341797,0.25761719 Z"
   sodipodi:nodetypes="cssssccscscsccccssssc" /><path
   id="path76"
   style="fill:#ef2270;fill-opacity:1;stroke-width:7;stroke-linecap:round;paint-order:fill markers stroke"
   d="m 0.35,0.1 c -0.0552284,0 -0.1,0.0559645 -0.1,0.125 4.35e-6,9.897e-4 -2.31e-5,0.001941 0,0.00293 C 0.2505905,0.2531965 0.242171,0.2574291 0.2176758,0.2519534 0.2118768,0.2506564 0.205949,0.2499964 0.2,0.2500004 c -0.0552284,0 -0.1,0.0559645 -0.1,0.125 0,0.0370116 0.0128514,0.0702763 0.0333008,0.0931641 0.0271915,0.0304338 0.027191,0.0332427 0,0.0636719 C 0.1128485,0.5547243 0.1,0.5879859 0.1,0.6250004 0.1,0.6790364 0.1274162,0.724933 0.1658203,0.7423832 0.1558393,0.7229345 0.15,0.6998226 0.15,0.6750004 c 0,-0.0370145 0.0128485,-0.0702761 0.0333008,-0.0931641 0.027191,-0.0304292 0.0271915,-0.0332381 0,-0.0636719 C 0.1628513,0.4952767 0.15,0.462012 0.15,0.4250004 c 0,-0.0690355 0.0447716,-0.125 0.1,-0.125 0.005949,-3.87e-6 0.0118768,6.5685e-4 0.0176758,0.001953 C 0.2921712,0.3074294 0.3005904,0.3031964 0.3,0.27793 c -2.31e-5,-9.882e-4 4.35e-6,-0.00194 0,-0.00293 0,-0.0690355 0.0447716,-0.12500001 0.1,-0.12500001 0.0119996,0 0.0235193,0.002773 0.0341797,0.007617 C 0.4164012,0.12297569 0.3853706,0.10000039 0.35,0.1 Z"
   sodipodi:nodetypes="cccccsssscsscsccscscc" /><path
   id="path77"
   style="fill:#b10046;fill-opacity:1;stroke-width:7;stroke-linecap:round;paint-order:fill markers stroke"
   d="M 0.35,0.1625 A 0.05,0.0625 0 0 0 0.3,0.225 0.05,0.0625 0 0 0 0.35,0.2875 0.05,0.0625 0 0 0 0.4,0.225 0.05,0.0625 0 0 0 0.35,0.1625 Z M 0.2,0.3125 A 0.05,0.0625 0 0 0 0.15,0.375 0.05,0.0625 0 0 0 0.2,0.4375 0.05,0.0625 0 0 0 0.25,0.375 0.05,0.0625 0 0 0 0.2,0.3125 Z m 0.3,0 A 0.05,0.0625 0 0 0 0.45,0.375 0.05,0.0625 0 0 0 0.5,0.4375 0.05,0.0625 0 0 0 0.55,0.375 0.05,0.0625 0 0 0 0.5,0.3125 Z M 0.35,0.4375 A 0.05,0.0625 0 0 0 0.3,0.5 0.05,0.0625 0 0 0 0.35,0.5625 0.05,0.0625 0 0 0 0.4,0.5 0.05,0.0625 0 0 0 0.35,0.4375 Z M 0.2,0.5625 A 0.05,0.0625 0 0 0 0.15,0.625 0.05,0.0625 0 0 0 0.2,0.6875 0.05,0.0625 0 0 0 0.25,0.625 0.05,0.0625 0 0 0 0.2,0.5625 Z m 0.3,0 A 0.05,0.0625 0 0 0 0.45,0.625 0.05,0.0625 0 0 0 0.5,0.6875 0.05,0.0625 0 0 0 0.55,0.625 0.05,0.0625 0 0 0 0.5,0.5625 Z m -0.15,0.15 A 0.05,0.0625 0 0 0 0.3,0.775 0.05,0.0625 0 0 0 0.35,0.8375 0.05,0.0625 0 0 0 0.4,0.775 0.05,0.0625 0 0 0 0.35,0.7125 Z" />
</g>
</svg>
