<?xml version="1.0" encoding="utf-8"?>
<!-- Generator: Adobe Illustrator 24.1.2, SVG Export Plug-In . SVG Version: 6.00 Build 0)  -->
<svg version="1.1"
	 id="svg3893" xmlns:cc="http://creativecommons.org/ns#" xmlns:dc="http://purl.org/dc/elements/1.1/" xmlns:inkscape="http://www.inkscape.org/namespaces/inkscape" xmlns:rdf="http://www.w3.org/1999/02/22-rdf-syntax-ns#" xmlns:sodipodi="http://sodipodi.sourceforge.net/DTD/sodipodi-0.dtd" xmlns:svg="http://www.w3.org/2000/svg"
	 xmlns="http://www.w3.org/2000/svg" xmlns:xlink="http://www.w3.org/1999/xlink" x="0px" y="0px" viewBox="0 0 1.5 1.8"
	 enable-background="new 0 0 1.5 1.8" xml:space="preserve">
<g>
	<g id="g5195">
		<path id="path5191" fill="#A77F1B" d="M0.65,0.4C0.606,0.399,0.563,0.419,0.535,0.451C0.482,0.511,0.49,0.605,0.551,0.656
			C0.689,0.772,0.839,0.8,1,0.8s0.312-0.028,0.449-0.144C1.51,0.604,1.518,0.511,1.465,0.451c-0.053-0.06-0.148-0.068-0.209-0.016
			C1.168,0.507,1.137,0.51,1,0.51S0.831,0.509,0.744,0.435C0.719,0.413,0.685,0.4,0.65,0.4z"/>
		<path id="path5193" fill="#E6C267" d="M0.648,0.474c-0.023,0-0.043,0.009-0.057,0.026C0.564,0.528,0.568,0.576,0.599,0.601l0,0
			C0.723,0.703,0.847,0.728,1,0.728s0.277-0.024,0.401-0.126C1.432,0.576,1.436,0.53,1.409,0.499l0,0
			C1.382,0.468,1.336,0.464,1.303,0.49l0,0C1.205,0.572,1.141,0.581,0.999,0.581S0.792,0.572,0.695,0.49
			C0.683,0.478,0.666,0.474,0.648,0.474z"/>
	</g>
	<g>
		<ellipse id="ellipse4999" fill-opacity="0.18" cx="0.55" cy="1.3" rx="0.5" ry="0.5"/>
	</g>
</g>
<g>
	<path fill="#13343A" d="M0.75,0.375V1.3c0,0.054-0.021,0.104-0.059,0.141C0.654,1.479,0.604,1.5,0.55,1.5
		c-0.111,0-0.2-0.09-0.2-0.2V0.632C0.347,0.635,0.345,0.638,0.342,0.641c-0.03,0.03-0.068,0.049-0.11,0.056
		C0.221,0.699,0.211,0.7,0.2,0.7C0.089,0.7,0,0.61,0,0.5V0.375c0-0.149,0.088-0.283,0.223-0.343C0.272,0.011,0.323,0,0.375,0
		c0.12,0,0.23,0.055,0.301,0.151C0.724,0.216,0.75,0.293,0.75,0.375z"/>
	<g>
		<polygon fill="#B488A3" points="0.65,0.65 0.65,0.9 0.45,1 0.45,0.75 		"/>
		<path fill="#B488A3" d="M0.65,1.15V1.3c0,0.027-0.011,0.052-0.03,0.07C0.602,1.389,0.577,1.4,0.55,1.4c-0.055,0-0.1-0.045-0.1-0.1
			V1.25L0.65,1.15z"/>
		<path fill="#B488A3" d="M0.45,0.5V0.375c0-0.008-0.001-0.015-0.004-0.021l0.024-0.025C0.512,0.356,0.542,0.4,0.548,0.451L0.45,0.5
			z"/>
		<path fill="#B488A3" d="M0.35,0.101V0.13C0.268,0.172,0.21,0.254,0.202,0.35C0.201,0.358,0.2,0.366,0.2,0.375L0.1,0.4V0.375
			c0-0.113,0.067-0.209,0.164-0.252C0.29,0.111,0.32,0.104,0.35,0.101z"/>
	</g>
	<g>
		<polygon fill="#FFD6EF" points="0.65,0.75 0.65,0.9 0.55,0.95 0.55,0.75 		"/>
		<path fill="#FFD6EF" d="M0.55,1.2l0.1-0.05V1.3c0,0.027-0.011,0.052-0.03,0.07C0.602,1.389,0.577,1.4,0.55,1.4V1.2z"/>
		<path fill="#FFD6EF" d="M0.65,0.375V0.4H0.533C0.52,0.371,0.498,0.346,0.471,0.329l0.013-0.013L0.55,0.25l0.042-0.043
			C0.593,0.208,0.595,0.21,0.595,0.211C0.63,0.257,0.65,0.313,0.65,0.375z"/>
		<path fill="#FFD6EF" d="M0.35,0.13v0.174C0.329,0.311,0.313,0.328,0.305,0.349L0.2,0.375c0-0.009,0.001-0.017,0.002-0.025
			C0.21,0.254,0.268,0.172,0.35,0.13z"/>
	</g>
	<g>
		<path fill="#97385D" d="M0.23,0.595C0.225,0.597,0.22,0.598,0.215,0.598C0.211,0.599,0.205,0.6,0.2,0.6
			c-0.055,0-0.1-0.045-0.1-0.1V0.4l0.1-0.025V0.55C0.2,0.57,0.212,0.587,0.23,0.595z"/>
		<polygon fill="#97385D" points="0.65,0.4 0.65,0.65 0.45,0.75 0.45,0.5 		"/>
		<polygon fill="#97385D" points="0.65,0.9 0.65,1.15 0.45,1.25 0.45,1 		"/>
		<path fill="#97385D" d="M0.592,0.207L0.55,0.25L0.484,0.316L0.471,0.329C0.447,0.313,0.418,0.302,0.387,0.301
			C0.383,0.301,0.379,0.3,0.375,0.3c-0.009,0-0.017,0.001-0.025,0.004V0.101C0.358,0.101,0.367,0.1,0.375,0.1
			c0.017,0,0.033,0.001,0.049,0.005C0.492,0.116,0.552,0.154,0.592,0.207z"/>
		<path fill="#97385D" d="M0.471,0.329L0.446,0.354c-0.008-0.027-0.03-0.048-0.059-0.053C0.418,0.302,0.447,0.313,0.471,0.329z"/>
	</g>
	<g>
		<polygon fill="#DF4175" points="0.65,0.4 0.65,0.65 0.55,0.7 0.55,0.45 		"/>
		<polygon fill="#DF4175" points="0.55,0.95 0.65,0.9 0.65,1.15 0.55,1.2 		"/>
		<path fill="#DF4175" d="M0.305,0.349C0.302,0.357,0.3,0.366,0.3,0.375V0.5c0,0.045-0.03,0.083-0.07,0.095
			C0.212,0.587,0.2,0.57,0.2,0.55V0.375L0.3,0.35L0.305,0.349z"/>
		<path fill="#DF4175" d="M0.592,0.207L0.55,0.25L0.484,0.316L0.471,0.329C0.447,0.313,0.418,0.302,0.387,0.301
			C0.383,0.301,0.379,0.3,0.375,0.3c-0.009,0-0.017,0.001-0.025,0.004V0.13C0.373,0.118,0.398,0.11,0.424,0.105
			C0.492,0.116,0.552,0.154,0.592,0.207z"/>
	</g>
	<rect x="0.45" y="0.4" fill="#7E6311" width="0.05" height="0.1"/>
	<rect x="0.5" y="0.4" fill="#956D09" width="0.15" height="0.1"/>
	<rect x="0.45" y="0.5" fill="#D69F0A" width="0.05" height="0.15"/>
	<rect x="0.5" y="0.5" fill="#FFB600" width="0.15" height="0.15"/>
	<rect x="0.45" y="0.65" fill="#7E6311" width="0.05" height="0.1"/>
	<rect x="0.5" y="0.65" fill="#956D09" width="0.15" height="0.1"/>
</g>
</svg>
