<?xml version="1.0" encoding="utf-8"?>
<!-- Generator: Adobe Illustrator 24.1.2, SVG Export Plug-In . SVG Version: 6.00 Build 0)  -->
<svg version="1.1"
	 id="svg5" xmlns:inkscape="http://www.inkscape.org/namespaces/inkscape" xmlns:sodipodi="http://sodipodi.sourceforge.net/DTD/sodipodi-0.dtd" xmlns:svg="http://www.w3.org/2000/svg"
	 xmlns="http://www.w3.org/2000/svg" xmlns:xlink="http://www.w3.org/1999/xlink" x="0px" y="0px" viewBox="0 0 1 1.8"
	 enable-background="new 0 0 1 1.8" xml:space="preserve">
<g>
	<path fill="#73112B" d="M1,1.5H0V0.4C0,0.179,0.179,0,0.4,0h0.2C0.821,0,1,0.179,1,0.4V1.5z"/>
	<path fill="#7F0E31" d="M0.188,0.65L0.1,1.1V0.4c0-0.014,0.001-0.027,0.003-0.04c0.003-0.022,0.008-0.043,0.016-0.063L0.188,0.65z"
		/>
	<path fill="#7F0E31" d="M0.9,0.4v0.7L0.813,0.65l0.068-0.353c0.008,0.02,0.013,0.041,0.016,0.063C0.899,0.373,0.9,0.386,0.9,0.4z"
		/>
	<path fill="#B87100" d="M0.9,1.1v0.4H0.1V1.1l0.087-0.45L0.119,0.297C0.16,0.182,0.27,0.1,0.4,0.1h0.2
		c0.13,0,0.24,0.082,0.281,0.197L0.813,0.65L0.9,1.1z"/>
	<path fill="#F2B038" d="M0.8,0.3v1.2H0.2V0.3c0-0.111,0.089-0.2,0.2-0.2h0.2C0.711,0.1,0.8,0.189,0.8,0.3z"/>
	<rect x="0.3" y="0.3" fill="#F79304" width="0.4" height="1.2"/>
	<circle fill="#B23400" cx="0.5" cy="0.4" r="0.25"/>
	<path fill="#FFCF9C" d="M0.663,0.4c0,0.058-0.03,0.108-0.076,0.137C0.562,0.553,0.532,0.563,0.5,0.563
		c-0.089,0-0.162-0.073-0.162-0.162c0-0.032,0.01-0.062,0.026-0.087C0.392,0.267,0.442,0.237,0.5,0.237
		C0.589,0.237,0.663,0.311,0.663,0.4z"/>
	<path fill="#FFBD6E" d="M0.613,0.45c0,0.032-0.01,0.062-0.026,0.087C0.562,0.553,0.532,0.563,0.5,0.563
		c-0.089,0-0.162-0.073-0.162-0.162c0-0.032,0.01-0.062,0.026-0.087C0.388,0.297,0.418,0.287,0.45,0.287
		C0.539,0.287,0.613,0.361,0.613,0.45z"/>
	<circle fill="#B23400" cx="0.5" cy="0.9" r="0.25"/>
	<path fill="#FFCF9C" d="M0.663,0.9c0,0.058-0.03,0.108-0.076,0.137C0.562,1.053,0.532,1.063,0.5,1.063
		c-0.089,0-0.162-0.073-0.162-0.163c0-0.032,0.01-0.062,0.026-0.087C0.392,0.767,0.442,0.738,0.5,0.738
		C0.589,0.738,0.663,0.811,0.663,0.9z"/>
	<path fill="#FFBD6E" d="M0.613,0.95c0,0.032-0.01,0.062-0.026,0.087C0.562,1.053,0.532,1.063,0.5,1.063
		c-0.089,0-0.162-0.073-0.162-0.163c0-0.032,0.01-0.062,0.026-0.087C0.388,0.797,0.418,0.788,0.45,0.788
		C0.539,0.788,0.613,0.861,0.613,0.95z"/>
</g>
</svg>
