<?xml version="1.0" encoding="utf-8"?>
<!-- Generator: Adobe Illustrator 24.1.2, SVG Export Plug-In . SVG Version: 6.00 Build 0)  -->
<svg version="1.1"
	 id="svg5" xmlns:inkscape="http://www.inkscape.org/namespaces/inkscape" xmlns:sodipodi="http://sodipodi.sourceforge.net/DTD/sodipodi-0.dtd" xmlns:svg="http://www.w3.org/2000/svg"
	 xmlns="http://www.w3.org/2000/svg" xmlns:xlink="http://www.w3.org/1999/xlink" x="0px" y="0px" viewBox="0 0 1 1.45"
	 enable-background="new 0 0 1 1.45" xml:space="preserve">
<g>
	<rect y="0.25" fill="#73112B" width="1" height="1.2"/>
	<polygon fill="#7F0E31" points="0.188,0.5 0.1,0.95 0.1,0.05 	"/>
	<polygon fill="#7F0E31" points="0.9,0.05 0.9,0.95 0.813,0.5 	"/>
	<polygon fill="#B87100" points="0.9,0.05 0.813,0.5 0.9,0.95 0.9,1.45 0.1,1.45 0.1,0.95 0.188,0.5 0.1,0.05 0.1,0 0.9,0 	"/>
	<rect x="0.2" fill="#F2B038" width="0.6" height="1.45"/>
	<rect x="0.3" fill="#F79304" width="0.4" height="1.45"/>
	<circle fill="#B23400" cx="0.5" cy="0.75" r="0.25"/>
	<path fill="#FFCF9C" d="M0.663,0.75c0,0.058-0.03,0.108-0.076,0.137C0.562,0.903,0.532,0.913,0.5,0.913
		c-0.089,0-0.162-0.073-0.162-0.163c0-0.032,0.01-0.062,0.026-0.087C0.392,0.617,0.442,0.587,0.5,0.587
		C0.589,0.587,0.663,0.661,0.663,0.75z"/>
	<path fill="#FFBD6E" d="M0.613,0.8c0,0.032-0.01,0.062-0.026,0.087C0.562,0.903,0.532,0.913,0.5,0.913
		c-0.089,0-0.162-0.073-0.162-0.163c0-0.032,0.01-0.062,0.026-0.087C0.388,0.647,0.418,0.637,0.45,0.637
		C0.539,0.637,0.613,0.711,0.613,0.8z"/>
	<circle fill="#B23400" cx="0.5" cy="0.25" r="0.25"/>
	<path fill="#FFCF9C" d="M0.663,0.25c0,0.058-0.03,0.108-0.076,0.137C0.562,0.403,0.532,0.412,0.5,0.412
		c-0.089,0-0.162-0.073-0.162-0.162c0-0.032,0.01-0.062,0.026-0.087C0.392,0.117,0.442,0.087,0.5,0.087
		C0.589,0.087,0.663,0.161,0.663,0.25z"/>
	<path fill="#FFBD6E" d="M0.613,0.3c0,0.032-0.01,0.062-0.026,0.087C0.562,0.403,0.532,0.412,0.5,0.412
		c-0.089,0-0.162-0.073-0.162-0.162c0-0.032,0.01-0.062,0.026-0.087C0.388,0.147,0.418,0.138,0.45,0.138
		C0.539,0.138,0.613,0.211,0.613,0.3z"/>
</g>
</svg>
