<?xml version="1.0" encoding="utf-8"?>
<!-- Generator: Adobe Illustrator 24.1.2, SVG Export Plug-In . SVG Version: 6.00 Build 0)  -->
<svg version="1.1"
	 id="svg5" xmlns:inkscape="http://www.inkscape.org/namespaces/inkscape" xmlns:sodipodi="http://sodipodi.sourceforge.net/DTD/sodipodi-0.dtd" xmlns:svg="http://www.w3.org/2000/svg"
	 xmlns="http://www.w3.org/2000/svg" xmlns:xlink="http://www.w3.org/1999/xlink" x="0px" y="0px" viewBox="0 0 1 1.45"
	 enable-background="new 0 0 1 1.45" xml:space="preserve">
<g>
	<path fill="#73112B" d="M1,0.1v1.35H0V0.6c0-0.276,0.224-0.5,0.5-0.5h0.005C0.568,0.038,0.655,0,0.75,0s0.182,0.038,0.245,0.1H1z"
		/>
	<path fill="#7F0E31" d="M0.188,0.8L0.1,1.1V0.6c0-0.026,0.002-0.051,0.007-0.076L0.188,0.8z"/>
	<path fill="#B87100" d="M1,0.2v1.25H0.1V1.1l0.087-0.3l-0.08-0.276C0.142,0.339,0.305,0.2,0.5,0.2H1z"/>
	<path fill="#F2B038" d="M1,0.2v0.55H0.875C0.833,0.75,0.8,0.783,0.8,0.825V1.45H0.2v-0.9c0-0.192,0.158-0.35,0.35-0.35H1z"/>
	<path fill="#F79304" d="M1,0.25v0.4H0.849c-0.057,0-0.106,0.032-0.131,0.078C0.707,0.749,0.7,0.773,0.7,0.799V1.45H0.3v-0.9
		c0-0.136,0.092-0.252,0.216-0.288C0.542,0.254,0.571,0.25,0.6,0.25H1z"/>
	<circle fill="#B23400" cx="0.75" cy="0.35" r="0.25"/>
	<path fill="#FFCF9C" d="M0.913,0.35c0,0.058-0.03,0.108-0.076,0.137C0.812,0.503,0.782,0.512,0.75,0.512
		c-0.089,0-0.163-0.073-0.163-0.162c0-0.032,0.01-0.062,0.026-0.087C0.642,0.217,0.692,0.188,0.75,0.188
		C0.839,0.188,0.913,0.261,0.913,0.35z"/>
	<path fill="#FFBD6E" d="M0.863,0.4c0,0.032-0.01,0.062-0.026,0.087C0.812,0.503,0.782,0.512,0.75,0.512
		c-0.089,0-0.163-0.073-0.163-0.162c0-0.032,0.01-0.062,0.026-0.087C0.638,0.247,0.668,0.237,0.7,0.237
		C0.789,0.237,0.863,0.311,0.863,0.4z"/>
	<circle fill="#B23400" cx="0.5" cy="0.85" r="0.25"/>
	<path fill="#FFCF9C" d="M0.663,0.85c0,0.058-0.03,0.108-0.076,0.137C0.562,1.003,0.532,1.013,0.5,1.013
		c-0.089,0-0.162-0.073-0.162-0.163c0-0.032,0.01-0.062,0.026-0.087C0.392,0.717,0.442,0.688,0.5,0.688
		C0.589,0.688,0.663,0.761,0.663,0.85z"/>
	<path fill="#FFBD6E" d="M0.613,0.9c0,0.032-0.01,0.062-0.026,0.087C0.562,1.003,0.532,1.013,0.5,1.013
		c-0.089,0-0.162-0.073-0.162-0.163c0-0.032,0.01-0.062,0.026-0.087C0.388,0.747,0.418,0.738,0.45,0.738
		C0.539,0.738,0.613,0.811,0.613,0.9z"/>
</g>
</svg>
