<?xml version="1.0" encoding="utf-8"?>
<!-- Generator: Adobe Illustrator 24.1.2, SVG Export Plug-In . SVG Version: 6.00 Build 0)  -->
<svg version="1.1"
	 id="svg5" xmlns:inkscape="http://www.inkscape.org/namespaces/inkscape" xmlns:sodipodi="http://sodipodi.sourceforge.net/DTD/sodipodi-0.dtd" xmlns:svg="http://www.w3.org/2000/svg"
	 xmlns="http://www.w3.org/2000/svg" xmlns:xlink="http://www.w3.org/1999/xlink" x="0px" y="0px" viewBox="0 0 1 1.8"
	 enable-background="new 0 0 1 1.8" xml:space="preserve">
<g>
	<rect y="1.35" fill="#0A0F32" fill-opacity="0.2" width="1" height="0.45"/>
	<path fill="#73112B" d="M1,0.15V1.5H0V0.15h0.005c0.063-0.062,0.149-0.1,0.245-0.1s0.182,0.038,0.245,0.1h0.011
		c0.063-0.062,0.149-0.1,0.245-0.1s0.182,0.038,0.245,0.1H1z"/>
	<polygon fill="#7F0E31" points="0.975,1.4 0.025,1.4 0.5,0.9 	"/>
	<polygon fill="#B87100" points="1,0.8 1,1.4 0.975,1.4 0.5,0.9 0.025,1.4 0,1.4 0,0.8 	"/>
	<rect y="0.25" fill="#F2B038" width="1" height="0.55"/>
	<rect y="0.3" fill="#F79304" width="1" height="0.4"/>
	<circle fill="#B23400" cx="0.25" cy="0.4" r="0.25"/>
	<circle fill="#B23400" cx="0.75" cy="0.4" r="0.25"/>
	<path fill="#FFCF9C" d="M0.412,0.4c0,0.058-0.03,0.108-0.076,0.137C0.312,0.553,0.282,0.563,0.25,0.563
		c-0.089,0-0.162-0.073-0.162-0.162c0-0.032,0.01-0.062,0.026-0.087C0.142,0.267,0.192,0.237,0.25,0.237
		C0.339,0.237,0.412,0.311,0.412,0.4z"/>
	<path fill="#FFBD6E" d="M0.363,0.45c0,0.032-0.01,0.062-0.026,0.087C0.312,0.553,0.282,0.563,0.25,0.563
		c-0.089,0-0.162-0.073-0.162-0.162c0-0.032,0.01-0.062,0.026-0.087C0.138,0.297,0.168,0.287,0.2,0.287
		C0.289,0.287,0.363,0.361,0.363,0.45z"/>
	<path fill="#FFCF9C" d="M0.913,0.4c0,0.058-0.03,0.108-0.076,0.137C0.812,0.553,0.782,0.563,0.75,0.563
		c-0.089,0-0.163-0.073-0.163-0.162c0-0.032,0.01-0.062,0.026-0.087C0.642,0.267,0.692,0.237,0.75,0.237
		C0.839,0.237,0.913,0.311,0.913,0.4z"/>
	<path fill="#FFBD6E" d="M0.863,0.45c0,0.032-0.01,0.062-0.026,0.087C0.812,0.553,0.782,0.563,0.75,0.563
		c-0.089,0-0.163-0.073-0.163-0.162c0-0.032,0.01-0.062,0.026-0.087C0.638,0.297,0.668,0.287,0.7,0.287
		C0.789,0.287,0.863,0.361,0.863,0.45z"/>
</g>
</svg>
