<?xml version="1.0" encoding="utf-8"?>
<!-- Generator: Adobe Illustrator 24.1.2, SVG Export Plug-In . SVG Version: 6.00 Build 0)  -->
<svg version="1.1"
	 id="svg5" xmlns:inkscape="http://www.inkscape.org/namespaces/inkscape" xmlns:sodipodi="http://sodipodi.sourceforge.net/DTD/sodipodi-0.dtd" xmlns:svg="http://www.w3.org/2000/svg"
	 xmlns="http://www.w3.org/2000/svg" xmlns:xlink="http://www.w3.org/1999/xlink" x="0px" y="0px" viewBox="0 0 1 1.65"
	 enable-background="new 0 0 1 1.65" xml:space="preserve">
<g>
	<path fill="#0A0F32" fill-opacity="0.2" d="M0,1.55v-0.9h1v0.9c0,0.055-0.045,0.1-0.1,0.1H0.1C0.045,1.65,0,1.605,0,1.55z"/>
	<path fill="#73112B" d="M0.75,1.35h-0.5C0.112,1.35,0,1.237,0,1.1V0.25h1V1.1C1,1.237,0.887,1.35,0.75,1.35z"/>
	<path fill="#7F0E31" d="M0.5,1.25L0.5,1.25c-0.22,0-0.4-0.18-0.4-0.4V0h0.8v0.85C0.9,1.07,0.72,1.25,0.5,1.25z"/>
	<path fill="#B87100" d="M0.9,0.05L0.813,0.5L0.9,0.95V1.1c0,0.083-0.067,0.15-0.15,0.15h-0.5C0.167,1.25,0.1,1.183,0.1,1.1V0.95
		L0.188,0.5L0.1,0.05V0h0.8C0.9,0,0.9,0.05,0.9,0.05z"/>
	<path fill="#F2B038" d="M0.6,0.85H0.4c-0.11,0-0.2-0.09-0.2-0.2V0h0.6v0.65C0.8,0.76,0.71,0.85,0.6,0.85z"/>
	<rect x="0.3" y="0" fill="#F79304" width="0.4" height="0.7"/>
	<circle fill="#B23400" cx="0.5" cy="0.25" r="0.25"/>
	<path fill="#FFCF9C" d="M0.663,0.25c0,0.058-0.03,0.108-0.076,0.137C0.562,0.403,0.532,0.412,0.5,0.412
		c-0.089,0-0.162-0.073-0.162-0.162c0-0.032,0.01-0.062,0.026-0.087C0.392,0.117,0.442,0.087,0.5,0.087
		C0.589,0.087,0.663,0.161,0.663,0.25z"/>
	<path fill="#FFBD6E" d="M0.613,0.3c0,0.032-0.01,0.062-0.026,0.087C0.562,0.403,0.532,0.412,0.5,0.412
		c-0.089,0-0.162-0.073-0.162-0.162c0-0.032,0.01-0.062,0.026-0.087C0.388,0.147,0.418,0.138,0.45,0.138
		C0.539,0.138,0.613,0.211,0.613,0.3z"/>
	<circle fill="#B23400" cx="0.5" cy="0.75" r="0.25"/>
	<path fill="#FFCF9C" d="M0.663,0.75c0,0.058-0.03,0.108-0.076,0.137C0.562,0.903,0.532,0.913,0.5,0.913
		c-0.089,0-0.162-0.073-0.162-0.163c0-0.032,0.01-0.062,0.026-0.087C0.392,0.617,0.442,0.587,0.5,0.587
		C0.589,0.587,0.663,0.661,0.663,0.75z"/>
	<path fill="#FFBD6E" d="M0.613,0.8c0,0.032-0.01,0.062-0.026,0.087C0.562,0.903,0.532,0.913,0.5,0.913
		c-0.089,0-0.162-0.073-0.162-0.163c0-0.032,0.01-0.062,0.026-0.087C0.388,0.647,0.418,0.637,0.45,0.637
		C0.539,0.637,0.613,0.711,0.613,0.8z"/>
</g>
</svg>
