<?xml version="1.0" encoding="utf-8"?>
<!-- Generator: Adobe Illustrator 24.1.2, SVG Export Plug-In . SVG Version: 6.00 Build 0)  -->
<svg version="1.1"
	 id="svg5" xmlns:inkscape="http://www.inkscape.org/namespaces/inkscape" xmlns:sodipodi="http://sodipodi.sourceforge.net/DTD/sodipodi-0.dtd" xmlns:svg="http://www.w3.org/2000/svg"
	 xmlns="http://www.w3.org/2000/svg" xmlns:xlink="http://www.w3.org/1999/xlink" x="0px" y="0px" viewBox="0 0 1.1 1.8"
	 enable-background="new 0 0 1.1 1.8" xml:space="preserve">
<g>
	<path fill="#0A0F32" fill-opacity="0.2" d="M1.1,1.35V1.8H0.11C0.044,1.8,0,1.75,0,1.69V1.46C0,1.4,0.044,1.35,0.11,1.35H1.1z"/>
	<path fill="#73112B" d="M1.1,0.15V1.5H0.3c-0.138,0-0.25-0.112-0.25-0.25l0.026-0.633C0.028,0.557,0,0.482,0,0.4
		c0-0.103,0.045-0.196,0.115-0.26C0.177,0.084,0.26,0.05,0.35,0.05c0.095,0,0.182,0.038,0.245,0.1h0.011
		c0.063-0.062,0.149-0.1,0.245-0.1s0.182,0.038,0.245,0.1H1.1z"/>
	<path fill="#7F0E31" d="M1.075,1.4H0.3c-0.045,0-0.086-0.02-0.112-0.052C0.186,1.346,0.183,1.343,0.182,1.341L0.6,0.9L1.075,1.4z"
		/>
	<path fill="#B87100" d="M1.1,0.8v0.6H1.075L0.6,0.9L0.182,1.341C0.161,1.316,0.15,1.284,0.15,1.25l0.035-0.8v0.2
		c0,0.083,0.067,0.15,0.15,0.15C0.335,0.8,1.1,0.8,1.1,0.8z"/>
	<path fill="#F2B038" d="M1.1,0.25V0.8H0.335c-0.083,0-0.15-0.067-0.15-0.15V0.4c0-0.011,0.001-0.021,0.004-0.032
		C0.203,0.301,0.264,0.25,0.335,0.25H1.1z"/>
	<path fill="#F79304" d="M1.1,0.3v0.4H0.36c-0.041,0-0.075-0.034-0.075-0.075v-0.25C0.285,0.334,0.319,0.3,0.36,0.3H1.1z"/>
	<circle fill="#B23400" cx="0.35" cy="0.4" r="0.25"/>
	<circle fill="#B23400" cx="0.85" cy="0.4" r="0.25"/>
	<path fill="#FFCF9C" d="M0.512,0.4c0,0.058-0.03,0.108-0.076,0.137C0.412,0.553,0.382,0.563,0.35,0.563
		c-0.089,0-0.163-0.073-0.163-0.162c0-0.032,0.01-0.062,0.026-0.087C0.242,0.267,0.292,0.237,0.35,0.237
		C0.439,0.237,0.512,0.311,0.512,0.4z"/>
	<path fill="#FFBD6E" d="M0.463,0.45c0,0.032-0.01,0.062-0.026,0.087C0.412,0.553,0.382,0.563,0.35,0.563
		c-0.089,0-0.163-0.073-0.163-0.162c0-0.032,0.01-0.062,0.026-0.087C0.238,0.297,0.268,0.287,0.3,0.287
		C0.389,0.287,0.463,0.361,0.463,0.45z"/>
	<path fill="#FFCF9C" d="M1.013,0.4c0,0.058-0.03,0.108-0.076,0.137C0.912,0.553,0.882,0.563,0.85,0.563
		c-0.089,0-0.163-0.073-0.163-0.162c0-0.032,0.01-0.062,0.026-0.087C0.742,0.267,0.792,0.237,0.85,0.237
		C0.939,0.237,1.013,0.311,1.013,0.4z"/>
	<path fill="#FFBD6E" d="M0.963,0.45c0,0.032-0.01,0.062-0.026,0.087C0.912,0.553,0.882,0.563,0.85,0.563
		c-0.089,0-0.163-0.073-0.163-0.162c0-0.032,0.01-0.062,0.026-0.087C0.738,0.297,0.768,0.287,0.8,0.287
		C0.889,0.287,0.963,0.361,0.963,0.45z"/>
</g>
</svg>
