<?xml version="1.0" encoding="utf-8"?>
<!-- Generator: Adobe Illustrator 24.1.2, SVG Export Plug-In . SVG Version: 6.00 Build 0)  -->
<svg version="1.1"
	 id="svg5" xmlns:inkscape="http://www.inkscape.org/namespaces/inkscape" xmlns:sodipodi="http://sodipodi.sourceforge.net/DTD/sodipodi-0.dtd" xmlns:svg="http://www.w3.org/2000/svg"
	 xmlns="http://www.w3.org/2000/svg" xmlns:xlink="http://www.w3.org/1999/xlink" x="0px" y="0px" viewBox="0 0 1 1.8"
	 enable-background="new 0 0 1 1.8" xml:space="preserve">
<g>
	<path fill="#0A0F32" fill-opacity="0.2" d="M0.9,1.8H0v-1h0.9C0.955,0.8,1,0.845,1,0.9v0.8C1,1.755,0.955,1.8,0.9,1.8z"/>
	<path fill="#73112B" d="M1,0.4V1c0,0.275-0.225,0.5-0.5,0.5H0V0.15h0.9V0.4H1z"/>
	<path fill="#7F0E31" d="M0.899,0.999C0.886,1.222,0.7,1.4,0.474,1.4H0.1l0.6-0.6L0.899,0.999z"/>
	<path fill="#7F0E31" d="M0.9,0.4v0.574c0,0.008,0,0.016-0.001,0.024L0.813,0.7L0.9,0.4z"/>
	<polygon fill="#B87100" points="0.9,0.4 0.813,0.7 0.899,0.998 0.899,0.999 0.7,0.8 0.1,1.4 0,1.4 0,0.25 0.1,0.25 0.1,0.15 
		0.9,0.15 	"/>
	<path fill="#F2B038" d="M0.8,0.15v0.225C0.8,0.608,0.608,0.8,0.375,0.8H0V0.25h0.2v-0.1H0.8z"/>
	<path fill="#F79304" d="M0.7,0.15v0.225C0.7,0.554,0.554,0.7,0.375,0.7H0V0.3h0.3V0.15H0.7z"/>
	<circle fill="#B23400" cx="0.25" cy="0.4" r="0.25"/>
	<path fill="#FFCF9C" d="M0.412,0.4c0,0.058-0.03,0.108-0.076,0.137C0.312,0.553,0.282,0.563,0.25,0.563
		c-0.089,0-0.162-0.073-0.162-0.162c0-0.032,0.01-0.062,0.026-0.087C0.142,0.267,0.192,0.237,0.25,0.237
		C0.339,0.237,0.412,0.311,0.412,0.4z"/>
	<path fill="#FFBD6E" d="M0.363,0.45c0,0.032-0.01,0.062-0.026,0.087C0.312,0.553,0.282,0.563,0.25,0.563
		c-0.089,0-0.162-0.073-0.162-0.162c0-0.032,0.01-0.062,0.026-0.087C0.138,0.297,0.168,0.287,0.2,0.287
		C0.289,0.287,0.363,0.361,0.363,0.45z"/>
</g>
</svg>
