<?xml version="1.0" encoding="utf-8"?>
<!-- Generator: Adobe Illustrator 24.1.2, SVG Export Plug-In . SVG Version: 6.00 Build 0)  -->
<svg version="1.1"
	 id="svg5" xmlns:inkscape="http://www.inkscape.org/namespaces/inkscape" xmlns:sodipodi="http://sodipodi.sourceforge.net/DTD/sodipodi-0.dtd" xmlns:svg="http://www.w3.org/2000/svg"
	 xmlns="http://www.w3.org/2000/svg" xmlns:xlink="http://www.w3.org/1999/xlink" x="0px" y="0px" viewBox="0 0 1.1 1.8"
	 enable-background="new 0 0 1.1 1.8" xml:space="preserve">
<g>
	<path fill="#0A0F32" fill-opacity="0.2" d="M0.99,1.35c0.066,0,0.11,0.05,0.11,0.11v0.23c0,0.06-0.044,0.11-0.11,0.11H0V1.35H0.99z
		"/>
	<path fill="#73112B" d="M0,0.15V1.5h0.8c0.137,0,0.25-0.112,0.25-0.25L1.024,0.617C1.072,0.557,1.1,0.482,1.1,0.4
		c0-0.103-0.045-0.196-0.115-0.26C0.923,0.084,0.84,0.05,0.75,0.05c-0.095,0-0.182,0.038-0.245,0.1h-0.01
		c-0.063-0.062-0.149-0.1-0.245-0.1s-0.182,0.038-0.245,0.1H0z"/>
	<path fill="#7F0E31" d="M0.025,1.4H0.8c0.045,0,0.086-0.02,0.113-0.052c0.002-0.002,0.004-0.005,0.006-0.007L0.5,0.9L0.025,1.4z"/>
	<path fill="#B87100" d="M0,0.8v0.6h0.025L0.5,0.9l0.418,0.441C0.939,1.316,0.95,1.284,0.95,1.25l-0.035-0.8v0.2
		c0,0.083-0.067,0.15-0.15,0.15C0.765,0.8,0,0.8,0,0.8z"/>
	<path fill="#F2B038" d="M0,0.25V0.8h0.765c0.083,0,0.15-0.067,0.15-0.15V0.4c0-0.011-0.001-0.021-0.004-0.032
		C0.897,0.301,0.836,0.25,0.765,0.25H0z"/>
	<path fill="#F79304" d="M0,0.3v0.4h0.74c0.041,0,0.075-0.034,0.075-0.075v-0.25C0.815,0.334,0.781,0.3,0.74,0.3H0z"/>
	<circle fill="#B23400" cx="0.75" cy="0.4" r="0.25"/>
	<circle fill="#B23400" cx="0.25" cy="0.4" r="0.25"/>
	<path fill="#FFCF9C" d="M0.75,0.237c-0.058,0-0.108,0.03-0.137,0.077C0.597,0.339,0.587,0.369,0.587,0.401
		c0,0.089,0.074,0.162,0.163,0.162c0.032,0,0.062-0.01,0.086-0.026C0.882,0.508,0.912,0.458,0.912,0.4
		C0.912,0.311,0.839,0.237,0.75,0.237z"/>
	<path fill="#FFBD6E" d="M0.7,0.287c-0.032,0-0.062,0.01-0.087,0.027C0.597,0.339,0.587,0.369,0.587,0.401
		c0,0.089,0.074,0.162,0.163,0.162c0.032,0,0.062-0.01,0.087-0.026C0.853,0.512,0.863,0.482,0.863,0.45
		C0.863,0.361,0.789,0.287,0.7,0.287z"/>
	<path fill="#FFCF9C" d="M0.25,0.237c-0.058,0-0.108,0.03-0.137,0.077C0.097,0.339,0.087,0.369,0.087,0.401
		c0,0.089,0.074,0.162,0.163,0.162c0.032,0,0.062-0.01,0.086-0.026C0.382,0.508,0.412,0.458,0.412,0.4
		C0.412,0.311,0.339,0.237,0.25,0.237z"/>
	<path fill="#FFBD6E" d="M0.2,0.287c-0.032,0-0.062,0.01-0.087,0.027C0.097,0.339,0.087,0.369,0.087,0.401
		c0,0.089,0.074,0.162,0.163,0.162c0.032,0,0.062-0.01,0.086-0.026C0.352,0.512,0.362,0.482,0.362,0.45
		C0.362,0.361,0.289,0.287,0.2,0.287z"/>
</g>
</svg>
