<?xml version="1.0" encoding="utf-8"?>
<!-- Generator: Adobe Illustrator 24.1.2, SVG Export Plug-In . SVG Version: 6.00 Build 0)  -->
<svg version="1.1"
	 id="svg5" xmlns:inkscape="http://www.inkscape.org/namespaces/inkscape" xmlns:sodipodi="http://sodipodi.sourceforge.net/DTD/sodipodi-0.dtd" xmlns:svg="http://www.w3.org/2000/svg"
	 xmlns="http://www.w3.org/2000/svg" xmlns:xlink="http://www.w3.org/1999/xlink" x="0px" y="0px" viewBox="0 0 1 1.8"
	 enable-background="new 0 0 1 1.8" xml:space="preserve">
<g>
	<path fill="#0A0F32" fill-opacity="0.2" d="M0,1.7l0-0.8c0-0.055,0.045-0.1,0.1-0.1H1v1H0.1C0.045,1.8,0,1.755,0,1.7z"/>
	<path fill="#73112B" d="M0.1,0.4V0.15H1V1.5H0.5C0.225,1.5,0,1.275,0,1l0-0.6H0.1z"/>
	<path fill="#7F0E31" d="M0.3,0.8l0.6,0.6H0.526C0.3,1.4,0.114,1.222,0.101,0.999L0.3,0.8z"/>
	<path fill="#7F0E31" d="M0.187,0.7L0.101,0.998C0.1,0.99,0.1,0.982,0.1,0.974V0.4L0.187,0.7z"/>
	<polygon fill="#B87100" points="0.1,0.15 0.9,0.15 0.9,0.25 1,0.25 1,1.4 0.9,1.4 0.3,0.8 0.101,0.999 0.101,0.998 0.187,0.7 
		0.1,0.4 	"/>
	<path fill="#F2B038" d="M0.8,0.15v0.1H1V0.8H0.625C0.392,0.8,0.2,0.608,0.2,0.375V0.15H0.8z"/>
	<path fill="#F79304" d="M0.7,0.15V0.3H1v0.4H0.625C0.446,0.7,0.3,0.554,0.3,0.375V0.15H0.7z"/>
	<circle fill="#B23400" cx="0.75" cy="0.4" r="0.25"/>
	<path fill="#FFCF9C" d="M0.912,0.4c0,0.058-0.03,0.108-0.076,0.137C0.812,0.553,0.782,0.563,0.75,0.563
		c-0.089,0-0.162-0.073-0.162-0.162c0-0.032,0.01-0.062,0.026-0.087C0.642,0.267,0.692,0.237,0.75,0.237
		C0.839,0.237,0.912,0.311,0.912,0.4z"/>
	<path fill="#FFBD6E" d="M0.863,0.45c0,0.032-0.01,0.062-0.026,0.087C0.812,0.553,0.782,0.563,0.75,0.563
		c-0.089,0-0.162-0.073-0.162-0.162c0-0.032,0.01-0.062,0.026-0.087C0.638,0.297,0.668,0.287,0.7,0.287
		C0.789,0.287,0.863,0.361,0.863,0.45z"/>
</g>
</svg>
