<?xml version="1.0" encoding="UTF-8" standalone="no"?>
<!-- Created with Inkscape (http://www.inkscape.org/) -->

<svg
   width="0.26458335mm"
   height="0.46301788mm"
   viewBox="0 0 0.26458335 0.46301788"
   version="1.1"
   id="svg6129"
   inkscape:version="1.1 (c68e22c387, 2021-05-23)"
   sodipodi:docname="case_brawlywood.svg"
   xmlns:inkscape="http://www.inkscape.org/namespaces/inkscape"
   xmlns:sodipodi="http://sodipodi.sourceforge.net/DTD/sodipodi-0.dtd"
   xmlns="http://www.w3.org/2000/svg"
   xmlns:svg="http://www.w3.org/2000/svg">
  <sodipodi:namedview
     id="namedview6131"
     pagecolor="#ffffff"
     bordercolor="#999999"
     borderopacity="1"
     inkscape:pageshadow="0"
     inkscape:pageopacity="0"
     inkscape:pagecheckerboard="0"
     inkscape:document-units="mm"
     showgrid="false"
     inkscape:zoom="256"
     inkscape:cx="0.3828125"
     inkscape:cy="0.95507812"
     inkscape:window-width="1920"
     inkscape:window-height="1057"
     inkscape:window-x="-8"
     inkscape:window-y="-8"
     inkscape:window-maximized="1"
     inkscape:current-layer="layer1" />
  <defs
     id="defs6126" />
  <g
     inkscape:label="Layer 1"
     inkscape:groupmode="layer"
     id="layer1"
     transform="translate(-119.96881,-110.49135)">
    <g
       id="g6105"
       transform="matrix(0.04999969,0,0,0.04999969,39.337538,114.98924)"
       style="stroke-width:20.0001">
      <path
         id="path6005-6-3"
         style="fill:#0a0f32;fill-opacity:0.2;stroke-width:19.4417"
         d="m 1617.9271,-83.608334 v 2.381253 c 0,0.293156 -0.236,0.529164 -0.5291,0.529164 h -4.2334 c -0.2931,0 -0.5291,-0.236008 -0.5291,-0.529164 v -2.381253 z"
         sodipodi:nodetypes="csssscc" />
      <path
         id="path69618"
         style="color:#000000;fill:#2c3444;fill-opacity:1;stroke-width:5.29169;-inkscape-stroke:none;paint-order:markers stroke fill"
         d="m 1613.9583,-89.958332 c -0.7237,0 -1.3229,0.599175 -1.3229,1.322916 v 5.291667 c 0,0.723741 0.5992,1.322917 1.3229,1.322917 h 2.6458 c 0.7238,0 1.323,-0.599176 1.323,-1.322917 v -5.291667 c 0,-0.723741 -0.5992,-1.322916 -1.323,-1.322916 z" />
      <rect
         style="fill:#505c70;fill-opacity:1;stroke:none;stroke-width:21.1669;stroke-miterlimit:4;stroke-dasharray:none;stroke-opacity:1;paint-order:markers stroke fill"
         id="rect51025"
         width="4.2332397"
         height="4.2333407"
         x="1613.1646"
         y="-86.78334"
         ry="0.79374623" />
      <rect
         style="fill:#90a4c8;fill-opacity:1;stroke:none;stroke-width:21.1669;stroke-miterlimit:4;stroke-dasharray:none;stroke-opacity:1;paint-order:markers stroke fill"
         id="rect51027"
         width="4.2332397"
         height="4.2333407"
         x="1613.1646"
         y="-89.429184"
         ry="0.79374623" />
      <rect
         style="fill:#303844;fill-opacity:1;stroke:none;stroke-width:21.1669;stroke-miterlimit:4;stroke-dasharray:none;stroke-opacity:1;paint-order:markers stroke fill"
         id="rect51029"
         width="3.1749716"
         height="3.1750476"
         x="1613.6938"
         y="-88.900009"
         ry="0.59531754" />
      <rect
         style="fill:#20242c;fill-opacity:1;stroke:none;stroke-width:21.1669;stroke-miterlimit:4;stroke-dasharray:none;stroke-opacity:1;paint-order:markers stroke fill"
         id="rect51033"
         width="3.1750488"
         height="1.5874972"
         x="1613.6937"
         y="-84.666664"
         ry="0.52916545" />
      <rect
         style="fill:#181c24;fill-opacity:1;stroke:none;stroke-width:21.1669;stroke-miterlimit:4;stroke-dasharray:none;stroke-opacity:1;paint-order:markers stroke fill"
         id="rect51035"
         width="1.5875"
         height="1.0583333"
         x="1614.4874"
         y="-84.402092" />
      <rect
         style="fill:#58687c;fill-opacity:1;stroke:none;stroke-width:21.1669;stroke-miterlimit:4;stroke-dasharray:none;stroke-opacity:1;paint-order:markers stroke fill"
         id="rect51037"
         width="1.5875"
         height="1.0583333"
         x="1614.4874"
         y="-84.931259"
         ry="0.26459503" />
      <path
         id="rect61363"
         style="fill:#282c3c;fill-opacity:1;stroke:none;stroke-width:21.1669;stroke-miterlimit:4;stroke-dasharray:none;stroke-opacity:1;paint-order:markers stroke fill"
         d="m 1614.289,-88.899999 c -0.3298,0 -0.5953,0.265507 -0.5953,0.595313 v 0.529166 c 0,-0.329805 0.2655,-0.595312 0.5953,-0.595312 h 1.9844 c 0.3298,0 0.5953,0.265507 0.5953,0.595312 v -0.529166 c 0,-0.329806 -0.2655,-0.595313 -0.5953,-0.595313 z" />
      <path
         id="rect86369"
         style="opacity:1;fill:#7084a4;fill-opacity:1;stroke:none;stroke-width:21.1669;stroke-miterlimit:4;stroke-dasharray:none;stroke-opacity:1;paint-order:markers stroke fill"
         d="m 1614.4875,-84.402084 v -0.264583 c 0,-0.146584 0.118,-0.264583 0.2646,-0.264583 h 1.0583 c 0.1466,0 0.2646,0.117999 0.2646,0.264583 v 0.264583 z" />
    </g>
  </g>
</svg>
