<?xml version="1.0" encoding="utf-8"?>
<!-- Generator: Adobe Illustrator 24.1.2, SVG Export Plug-In . SVG Version: 6.00 Build 0)  -->
<svg version="1.1" id="Capa_1" xmlns="http://www.w3.org/2000/svg" xmlns:xlink="http://www.w3.org/1999/xlink" x="0px" y="0px"
	 width="1.25px" height="1.7px" viewBox="0 0 1.25 1.7" enable-background="new 0 0 1.25 1.7" xml:space="preserve">
<circle id="circle16099" fill="#0A0F32" fill-opacity="0.2" cx="0.625" cy="1.2" r="0.5"/>
<g>
	<path fill="#361754" d="M1.175,0.7v0.15c0,0.302-0.248,0.55-0.55,0.55s-0.55-0.248-0.55-0.55V0.7c0-0.302,0.248-0.55,0.55-0.55
		c0.151,0,0.289,0.062,0.389,0.161C1.113,0.411,1.175,0.549,1.175,0.7z"/>
	<path fill="#361754" d="M1.25,0.65c0,0.062-0.029,0.115-0.075,0.151V0.85c0,0.302-0.248,0.55-0.55,0.55s-0.55-0.248-0.55-0.55
		V0.801C0.029,0.765,0,0.712,0,0.65c0-0.102,0.057-0.171,0.128-0.204C0.155,0.195,0.367,0,0.625,0s0.471,0.196,0.498,0.448
		C1.193,0.479,1.25,0.548,1.25,0.65z"/>
	<path fill="#5626A3" d="M1.075,0.7v0.15c0,0.245-0.199,0.447-0.445,0.45H0.625c-0.248,0-0.45-0.202-0.45-0.45V0.7
		c0-0.174,0.099-0.325,0.245-0.4c0.061-0.032,0.132-0.05,0.205-0.05c0.124,0,0.236,0.051,0.318,0.132
		C1.024,0.464,1.075,0.576,1.075,0.7z"/>
	<path fill="#442288" d="M0.875,0.75V0.9c0,0.173-0.099,0.325-0.245,0.4H0.625c-0.248,0-0.45-0.202-0.45-0.45V0.7
		c0-0.174,0.099-0.325,0.245-0.4h0.005c0.124,0,0.236,0.051,0.318,0.132C0.824,0.514,0.875,0.626,0.875,0.75z"/>
	<path fill="#111166" d="M1.025,0.5v0.35c0,0.135-0.068,0.255-0.172,0.328c-0.01,0.007-0.02,0.013-0.031,0.019
		C0.8,1.21,0.777,1.22,0.753,1.229C0.745,1.232,0.738,1.234,0.73,1.235C0.729,1.236,0.728,1.236,0.727,1.236
		C0.721,1.238,0.715,1.239,0.709,1.24C0.701,1.243,0.693,1.244,0.685,1.245C0.68,1.246,0.675,1.247,0.67,1.248
		c-0.006,0-0.012,0.001-0.018,0.001c-0.009,0-0.018,0.001-0.027,0.001c-0.008,0-0.016,0-0.024-0.001
		c-0.005,0-0.009-0.001-0.014-0.001H0.585C0.577,1.247,0.57,1.246,0.563,1.245c-0.011-0.001-0.021-0.004-0.03-0.006
		C0.524,1.237,0.515,1.235,0.507,1.232C0.501,1.23,0.494,1.228,0.488,1.226C0.482,1.223,0.476,1.221,0.47,1.218
		c-0.008-0.003-0.016-0.007-0.024-0.01C0.438,1.204,0.43,1.199,0.422,1.194C0.415,1.19,0.408,1.186,0.402,1.182
		C0.4,1.18,0.398,1.179,0.397,1.178C0.39,1.173,0.384,1.169,0.378,1.164c-0.012-0.01-0.024-0.02-0.036-0.032
		C0.332,1.121,0.321,1.11,0.311,1.097C0.306,1.091,0.302,1.085,0.297,1.078s-0.009-0.013-0.013-0.02
		C0.28,1.052,0.277,1.046,0.273,1.04c0-0.001-0.001-0.002-0.001-0.003C0.268,1.03,0.264,1.023,0.261,1.016
		C0.258,1.01,0.256,1.004,0.253,0.997C0.238,0.959,0.229,0.918,0.226,0.876c0-0.009-0.001-0.018-0.001-0.026V0.5
		c0-0.008,0-0.016,0.001-0.024V0.473c0-0.004,0.001-0.007,0.001-0.01s0-0.005,0.001-0.008c0-0.004,0.001-0.01,0.002-0.015
		c0-0.005,0.001-0.011,0.003-0.017c0.001-0.005,0.002-0.01,0.003-0.016c0.001-0.001,0.001-0.004,0.002-0.005
		C0.239,0.4,0.239,0.398,0.24,0.397l0,0c0-0.002,0-0.005,0.001-0.007s0.001-0.005,0.002-0.007c0-0.001,0.001-0.001,0.001-0.002
		c0.001-0.003,0.002-0.006,0.004-0.009C0.25,0.363,0.253,0.355,0.257,0.348c0-0.001,0.001-0.002,0.001-0.004
		C0.26,0.337,0.263,0.33,0.267,0.323C0.268,0.32,0.27,0.316,0.272,0.313c0.004-0.009,0.009-0.018,0.015-0.026
		c0.003-0.005,0.007-0.01,0.01-0.015c0.013-0.02,0.028-0.038,0.045-0.055C0.348,0.211,0.354,0.206,0.36,0.201
		c0.011-0.01,0.024-0.02,0.037-0.029C0.408,0.164,0.419,0.157,0.43,0.151C0.432,0.15,0.433,0.149,0.435,0.148
		c0.001-0.001,0.002-0.001,0.003-0.001c0.014-0.008,0.029-0.014,0.043-0.02c0.022-0.009,0.046-0.015,0.07-0.02
		c0.007-0.002,0.014-0.003,0.021-0.004C0.58,0.102,0.59,0.101,0.599,0.101c0.008,0,0.017-0.001,0.026-0.001
		c0.049,0,0.096,0.009,0.14,0.026C0.77,0.127,0.776,0.129,0.781,0.132c0.011,0.005,0.023,0.011,0.034,0.017c0.001,0,0.001,0,0.001,0
		c0.011,0.006,0.022,0.013,0.033,0.02l0,0C0.86,0.176,0.87,0.184,0.88,0.192c0,0,0,0,0.001,0C0.9,0.208,0.919,0.227,0.935,0.246
		c0,0.001,0,0.001,0,0.001c0.008,0.01,0.015,0.02,0.023,0.03c0.001,0,0.001,0,0,0.001C0.964,0.287,0.97,0.298,0.977,0.31
		c0,0,0,0,0,0.001c0.006,0.011,0.011,0.022,0.017,0.034C1.014,0.392,1.025,0.445,1.025,0.5z"/>
	<path fill="#361E85" d="M1.025,0.5v0.35c0,0.135-0.068,0.255-0.172,0.328c-0.01,0.007-0.02,0.013-0.031,0.019
		C0.856,1.139,0.875,1.071,0.875,1V0.812C0.807,0.867,0.72,0.9,0.625,0.9c-0.12,0-0.227-0.052-0.3-0.136
		C0.268,0.699,0.231,0.616,0.226,0.523V0.521C0.225,0.514,0.225,0.507,0.225,0.5c0-0.008,0-0.016,0.001-0.024V0.473
		c0-0.004,0.001-0.007,0.001-0.01s0-0.005,0.001-0.008c0-0.004,0.001-0.01,0.002-0.015c0-0.005,0.001-0.011,0.003-0.017
		c0.001-0.005,0.002-0.01,0.003-0.016c0.001-0.001,0.001-0.004,0.002-0.005C0.239,0.4,0.239,0.398,0.24,0.397l0,0
		c0-0.002,0-0.005,0.001-0.007s0.001-0.005,0.002-0.007c0-0.001,0.001-0.001,0.001-0.002c0.001-0.003,0.002-0.006,0.004-0.009
		C0.25,0.363,0.253,0.355,0.257,0.348c0-0.001,0.001-0.002,0.001-0.004C0.26,0.337,0.263,0.33,0.267,0.323
		C0.268,0.32,0.27,0.316,0.272,0.313c0.004-0.009,0.009-0.018,0.015-0.026c0.003-0.005,0.007-0.01,0.01-0.015
		c0.013-0.02,0.028-0.038,0.045-0.055C0.348,0.211,0.354,0.206,0.36,0.201c0.011-0.01,0.024-0.02,0.037-0.029
		C0.408,0.164,0.419,0.157,0.43,0.151C0.432,0.15,0.433,0.149,0.435,0.148c0.001-0.001,0.002-0.001,0.003-0.001
		c0.014-0.008,0.029-0.014,0.043-0.02c0.022-0.009,0.046-0.015,0.07-0.02c0.007-0.002,0.014-0.003,0.021-0.004
		C0.58,0.102,0.59,0.101,0.599,0.101c0.008,0,0.017-0.001,0.026-0.001c0.049,0,0.096,0.009,0.14,0.026
		C0.77,0.127,0.776,0.129,0.781,0.132c0.011,0.005,0.023,0.011,0.034,0.017c0.001,0,0.001,0,0.001,0
		c0.011,0.006,0.022,0.013,0.033,0.02l0,0C0.86,0.176,0.87,0.184,0.88,0.192c0,0,0,0,0.001,0C0.9,0.208,0.919,0.227,0.935,0.246
		c0,0.001,0,0.001,0,0.001c0.008,0.01,0.015,0.02,0.023,0.03c0.001,0,0.001,0,0,0.001C0.964,0.287,0.97,0.298,0.977,0.31
		c0,0,0,0,0,0.001c0.006,0.011,0.011,0.022,0.017,0.034C1.014,0.392,1.025,0.445,1.025,0.5z"/>
	<path fill="#431E7F" d="M1.025,0.5v0.35c0,0.135-0.068,0.255-0.172,0.328C0.898,1.113,0.925,1.035,0.925,0.95V0.764
		C0.987,0.694,1.025,0.601,1.025,0.5z"/>
	<path fill="#161658" d="M0.397,1.178C0.39,1.173,0.384,1.169,0.378,1.164c-0.012-0.01-0.024-0.02-0.036-0.032
		C0.332,1.121,0.321,1.11,0.311,1.097C0.306,1.091,0.302,1.085,0.297,1.078s-0.009-0.013-0.013-0.02
		C0.28,1.052,0.277,1.046,0.273,1.04c0-0.001-0.001-0.002-0.001-0.003C0.268,1.03,0.264,1.023,0.261,1.016
		C0.258,1.01,0.256,1.004,0.253,0.997C0.238,0.959,0.229,0.918,0.226,0.876c0-0.009-0.001-0.018-0.001-0.026V0.5
		c0,0.101,0.038,0.194,0.1,0.264V0.95C0.325,1.035,0.352,1.113,0.397,1.178z"/>
	<path fill="#111166" d="M0.875,0.65v0.162C0.807,0.867,0.72,0.9,0.625,0.9c-0.12,0-0.227-0.052-0.3-0.136V0.6
		c0-0.071,0.019-0.139,0.053-0.197C0.436,0.369,0.504,0.35,0.575,0.35c0.085,0,0.164,0.026,0.228,0.072
		C0.848,0.486,0.875,0.565,0.875,0.65z"/>
	<path fill="#111166" d="M1.024,0.571C1.02,0.664,0.983,0.749,0.925,0.814C0.91,0.832,0.893,0.848,0.875,0.862
		C0.807,0.917,0.72,0.95,0.625,0.95c-0.12,0-0.227-0.052-0.3-0.136C0.268,0.749,0.231,0.666,0.226,0.573V0.571
		c0-0.002,0.001-0.005,0.001-0.008s0-0.005,0.001-0.008c0-0.004,0.001-0.01,0.002-0.015c0-0.005,0.001-0.011,0.003-0.017
		c0.001-0.005,0.002-0.01,0.003-0.016c0.001-0.001,0.001-0.004,0.002-0.005C0.239,0.5,0.239,0.498,0.24,0.497v0
		c0-0.002,0-0.005,0.001-0.007s0.001-0.005,0.002-0.007c0-0.001,0.001-0.001,0.001-0.002c0.001-0.003,0.002-0.006,0.004-0.009
		C0.25,0.463,0.253,0.455,0.257,0.448c0-0.001,0.001-0.002,0.001-0.004C0.26,0.437,0.263,0.43,0.267,0.423
		C0.268,0.42,0.27,0.416,0.272,0.413c0.004-0.009,0.009-0.018,0.015-0.026c0.003-0.005,0.007-0.01,0.01-0.015
		c0.013-0.02,0.028-0.038,0.045-0.055C0.348,0.311,0.354,0.306,0.36,0.301c0.011-0.01,0.024-0.02,0.037-0.029
		C0.408,0.264,0.419,0.257,0.43,0.251C0.432,0.25,0.433,0.249,0.435,0.248c0.001-0.001,0.002-0.001,0.003-0.001
		c0.014-0.008,0.029-0.014,0.043-0.02c0.022-0.009,0.046-0.015,0.07-0.02c0.007-0.002,0.014-0.003,0.021-0.004
		C0.58,0.202,0.59,0.201,0.599,0.201c0.008,0,0.017-0.001,0.026-0.001c0.049,0,0.096,0.009,0.14,0.026
		C0.77,0.227,0.776,0.229,0.781,0.232c0.011,0.005,0.023,0.011,0.034,0.017c0.001,0,0.001,0,0.001,0
		c0.011,0.006,0.022,0.013,0.033,0.02l0,0C0.86,0.276,0.87,0.284,0.88,0.292c0,0,0,0,0.001,0C0.9,0.308,0.919,0.327,0.935,0.346
		c0,0.001,0,0.001,0,0.001c0.008,0.01,0.015,0.02,0.023,0.03c0.001,0,0.001,0,0,0.001C0.964,0.387,0.97,0.398,0.977,0.41
		c0,0,0,0,0,0.001c0.006,0.011,0.011,0.022,0.017,0.034C1.011,0.483,1.021,0.526,1.024,0.571z"/>
	<path fill="#1F1B76" d="M1.025,0.5c-0.061,0-0.15,0.04-0.15,0.15c0,0.073,0.063,0.125,0.15,0.125s0.15-0.052,0.15-0.125
		C1.175,0.54,1.086,0.5,1.025,0.5z M1.025,0.675c-0.021,0-0.05-0.008-0.05-0.025c0-0.04,0.027-0.049,0.05-0.05
		c0.023,0.001,0.05,0.01,0.05,0.05C1.075,0.667,1.046,0.675,1.025,0.675z"/>
	<path fill="#1F1B76" d="M0.225,0.5c-0.061,0-0.15,0.04-0.15,0.15c0,0.073,0.063,0.125,0.15,0.125s0.15-0.052,0.15-0.125
		C0.375,0.54,0.286,0.5,0.225,0.5z M0.225,0.675c-0.021,0-0.05-0.008-0.05-0.025c0-0.04,0.027-0.049,0.05-0.05
		c0.023,0.001,0.05,0.01,0.05,0.05C0.275,0.667,0.246,0.675,0.225,0.675z"/>
	<path fill="#BF34F4" d="M1.025,0.5c0,0.007,0,0.014-0.001,0.021C1.02,0.614,0.983,0.699,0.925,0.764
		C0.91,0.782,0.893,0.798,0.875,0.812C0.807,0.867,0.72,0.9,0.625,0.9c-0.12,0-0.227-0.052-0.3-0.136
		C0.268,0.699,0.231,0.616,0.226,0.523V0.521C0.225,0.514,0.225,0.507,0.225,0.5c0-0.008,0-0.016,0.001-0.024V0.473
		c0-0.004,0.001-0.007,0.001-0.01s0-0.005,0.001-0.008c0-0.004,0.001-0.01,0.002-0.015c0-0.005,0.001-0.011,0.003-0.017
		c0.001-0.005,0.002-0.01,0.003-0.016c0.001-0.001,0.001-0.004,0.002-0.005C0.239,0.4,0.239,0.398,0.24,0.397l0,0
		c0-0.002,0-0.005,0.001-0.007s0.001-0.005,0.002-0.007c0-0.001,0.001-0.001,0.001-0.002c0.001-0.003,0.002-0.006,0.004-0.009
		C0.25,0.363,0.253,0.355,0.257,0.348c0-0.001,0.001-0.002,0.001-0.004C0.26,0.337,0.263,0.33,0.267,0.323
		C0.268,0.32,0.27,0.316,0.272,0.313c0.004-0.009,0.009-0.018,0.015-0.026c0.003-0.005,0.007-0.01,0.01-0.015
		c0.013-0.02,0.028-0.038,0.045-0.055C0.348,0.211,0.354,0.206,0.36,0.201c0.011-0.01,0.024-0.02,0.037-0.029
		C0.408,0.164,0.419,0.157,0.43,0.151C0.432,0.15,0.433,0.149,0.435,0.148c0.001-0.001,0.002-0.001,0.003-0.001
		c0.014-0.008,0.029-0.014,0.043-0.02c0.022-0.009,0.046-0.015,0.07-0.02c0.007-0.002,0.014-0.003,0.021-0.004
		C0.58,0.102,0.59,0.101,0.599,0.101c0.008,0,0.017-0.001,0.026-0.001c0.049,0,0.096,0.009,0.14,0.026
		C0.77,0.127,0.776,0.129,0.781,0.132c0.011,0.005,0.023,0.011,0.034,0.017c0.001,0,0.001,0,0.001,0
		c0.011,0.006,0.022,0.013,0.033,0.02l0,0C0.86,0.176,0.87,0.184,0.88,0.192c0,0,0,0,0.001,0C0.9,0.208,0.919,0.227,0.935,0.246
		c0,0.001,0,0.001,0,0.001c0.008,0.01,0.015,0.02,0.023,0.03c0.001,0,0.001,0,0,0.001C0.964,0.287,0.97,0.298,0.977,0.31
		c0,0,0,0,0,0.001c0.006,0.011,0.011,0.022,0.017,0.034C1.014,0.392,1.025,0.445,1.025,0.5z"/>
	<path fill="#A230EF" d="M1.024,0.521C1.02,0.614,0.983,0.699,0.925,0.764C0.91,0.782,0.893,0.798,0.875,0.812
		C0.807,0.867,0.72,0.9,0.625,0.9c-0.12,0-0.227-0.052-0.3-0.136C0.268,0.699,0.231,0.616,0.226,0.523V0.521
		c0-0.002,0.001-0.005,0.001-0.008s0-0.005,0.001-0.008c0-0.004,0.001-0.01,0.002-0.015c0-0.005,0.001-0.011,0.003-0.017
		c0.001-0.005,0.002-0.01,0.003-0.016c0.001-0.001,0.001-0.004,0.002-0.005C0.239,0.45,0.239,0.448,0.24,0.447v0
		c0-0.002,0-0.005,0.001-0.007s0.001-0.005,0.002-0.007c0-0.001,0.001-0.001,0.001-0.002c0.001-0.003,0.002-0.006,0.004-0.009
		C0.25,0.413,0.253,0.405,0.257,0.398c0-0.001,0.001-0.002,0.001-0.004C0.26,0.387,0.263,0.38,0.267,0.373
		C0.268,0.37,0.27,0.366,0.272,0.363c0.004-0.009,0.009-0.018,0.015-0.026c0.003-0.005,0.007-0.01,0.01-0.015
		c0.013-0.02,0.028-0.038,0.045-0.055C0.348,0.261,0.354,0.256,0.36,0.251c0.011-0.01,0.024-0.02,0.037-0.029
		C0.408,0.214,0.419,0.207,0.43,0.201C0.432,0.2,0.433,0.199,0.435,0.198c0.001-0.001,0.002-0.001,0.003-0.001
		c0.014-0.008,0.029-0.014,0.043-0.02c0.022-0.009,0.046-0.015,0.07-0.02c0.007-0.002,0.014-0.003,0.021-0.004
		C0.58,0.152,0.59,0.151,0.599,0.151c0.008,0,0.017-0.001,0.026-0.001c0.049,0,0.096,0.009,0.14,0.026
		C0.77,0.177,0.776,0.179,0.781,0.182c0.011,0.005,0.023,0.011,0.034,0.017c0.001,0,0.001,0,0.001,0
		c0.011,0.006,0.022,0.013,0.033,0.02l0,0C0.86,0.226,0.87,0.234,0.88,0.242c0,0,0,0,0.001,0C0.9,0.258,0.919,0.277,0.935,0.296
		c0,0.001,0,0.001,0,0.001c0.008,0.01,0.015,0.02,0.023,0.03c0.001,0,0.001,0,0,0.001c0.006,0.01,0.012,0.02,0.019,0.032
		c0,0,0,0,0,0.001c0.006,0.011,0.011,0.022,0.017,0.034C1.011,0.433,1.021,0.476,1.024,0.521z"/>
	<path fill="#53349A" d="M0.9,0.475c0,0.094-0.047,0.177-0.119,0.227C0.736,0.732,0.683,0.75,0.625,0.75
		c-0.152,0-0.275-0.123-0.275-0.275c0-0.016,0.001-0.033,0.004-0.048C0.376,0.302,0.482,0.206,0.613,0.2c0.004,0,0.008,0,0.012,0
		c0.136,0,0.248,0.098,0.271,0.227C0.899,0.442,0.9,0.459,0.9,0.475z"/>
	<path fill="#00D174" d="M0.875,0.5c0,0.138-0.112,0.25-0.25,0.25s-0.25-0.112-0.25-0.25c0-0.022,0.003-0.043,0.008-0.064
		C0.411,0.33,0.508,0.251,0.623,0.25h0.002C0.763,0.25,0.875,0.362,0.875,0.5z"/>
	<path fill="#00C055" d="M0.625,0.275c0,0.096-0.079,0.175-0.175,0.175c-0.023,0-0.046-0.005-0.067-0.014
		C0.411,0.33,0.508,0.251,0.623,0.25C0.624,0.258,0.625,0.266,0.625,0.275z"/>
	<ellipse fill="#00AA5F" cx="0.613" cy="0.5" rx="0.162" ry="0.15"/>
	<g>
		<path fill="#333366" d="M1.076,0.112C1.059,0.098,1.039,0.089,1.018,0.084c-0.007-0.02-0.02-0.038-0.038-0.052
			C0.955,0.011,0.924,0,0.892,0c-0.041,0-0.08,0.018-0.106,0.049C0.749,0.093,0.745,0.153,0.77,0.201L0.714,0.267
			C0.695,0.29,0.686,0.32,0.689,0.349c0.002,0.03,0.017,0.058,0.04,0.076c0.02,0.017,0.045,0.027,0.072,0.027
			c0.033,0,0.064-0.014,0.086-0.04l0.055-0.065c0.015,0.005,0.03,0.008,0.046,0.008c0.04,0,0.079-0.018,0.105-0.049
			c0.024-0.028,0.035-0.064,0.032-0.101C1.121,0.169,1.104,0.136,1.076,0.112z M0.988,0.305c-0.02,0-0.039-0.007-0.056-0.02
			c-0.001,0-0.002-0.001-0.002-0.002L0.848,0.38C0.836,0.395,0.818,0.403,0.8,0.403c-0.014,0-0.029-0.005-0.04-0.015
			C0.734,0.365,0.73,0.326,0.752,0.299l0.081-0.097c-0.035-0.031-0.039-0.084-0.009-0.12C0.842,0.06,0.867,0.05,0.892,0.05
			c0.019,0,0.039,0.007,0.056,0.02c0.019,0.016,0.029,0.038,0.031,0.061C0.983,0.13,0.986,0.13,0.989,0.13
			c0.019,0,0.039,0.007,0.054,0.02c0.038,0.031,0.042,0.086,0.011,0.123C1.037,0.295,1.013,0.305,0.988,0.305z"/>
		<path fill="#6699CC" d="M1.005,0.299C1.003,0.301,1.001,0.303,0.999,0.304C0.995,0.305,0.992,0.305,0.988,0.305
			c-0.02,0-0.039-0.007-0.056-0.02c-0.001,0-0.002-0.001-0.002-0.002L0.898,0.32l-0.05,0.06C0.836,0.395,0.818,0.403,0.8,0.403
			c-0.014,0-0.029-0.005-0.04-0.015C0.734,0.365,0.73,0.326,0.752,0.299l0.081-0.097c-0.035-0.031-0.039-0.084-0.009-0.12
			C0.827,0.079,0.828,0.077,0.83,0.076c0.004-0.001,0.008-0.001,0.012-0.001c0.019,0,0.039,0.007,0.056,0.02
			c0.019,0.016,0.029,0.038,0.031,0.061c0.004-0.001,0.007-0.001,0.01-0.001c0.019,0,0.039,0.007,0.054,0.02
			C1.031,0.207,1.036,0.262,1.005,0.299z"/>
		<path fill="#4466AA" d="M1.055,0.274C1.039,0.291,1.02,0.302,0.999,0.304C1.001,0.303,1.003,0.3,1.005,0.299
			c0.031-0.037,0.026-0.092-0.011-0.123c-0.015-0.013-0.035-0.02-0.054-0.02c-0.004,0-0.007,0-0.01,0.001
			C0.927,0.133,0.917,0.111,0.898,0.095c-0.017-0.014-0.037-0.02-0.056-0.02c-0.004,0-0.008,0.001-0.012,0.001
			C0.847,0.058,0.87,0.05,0.892,0.05c0.019,0,0.039,0.007,0.056,0.02c0.019,0.016,0.029,0.038,0.031,0.061
			C0.983,0.13,0.986,0.13,0.989,0.13c0.019,0,0.039,0.007,0.054,0.02C1.081,0.182,1.086,0.237,1.055,0.274z"/>
	</g>
	
		<ellipse transform="matrix(0.585 -0.8111 0.8111 0.585 -0.0951 0.4324)" fill="#CC83FF" cx="0.375" cy="0.309" rx="0.088" ry="0.041"/>
</g>
</svg>
