<?xml version="1.0" encoding="utf-8"?>
<!-- Generator: Adobe Illustrator 24.1.2, SVG Export Plug-In . SVG Version: 6.00 Build 0)  -->
<svg version="1.1" id="Capa_1" xmlns="http://www.w3.org/2000/svg" xmlns:xlink="http://www.w3.org/1999/xlink" x="0px" y="0px"
	 viewBox="0 0 1 1.7" enable-background="new 0 0 1 1.7" xml:space="preserve">
<g>
	<path id="rect10315" fill="#0A0F32" fill-opacity="0.2" d="M0.1,1.25h0.8C0.956,1.25,1,1.301,1,1.363v0.225
		C1,1.649,0.955,1.7,0.9,1.7H0.1C0.045,1.7,0,1.649,0,1.588V1.363C0,1.301,0.045,1.25,0.1,1.25z"/>
	<path fill="#A96104" d="M1,0.857C1,0.898,0.99,0.94,0.969,0.976C0.957,0.998,0.95,1.023,0.95,1.05c0,0.034,0.011,0.065,0.03,0.09
		C0.993,1.157,1,1.178,1,1.199c0,0.014,0,0.032,0,0.05C1,1.332,0.933,1.4,0.85,1.4h-0.7C0.068,1.4,0,1.332,0,1.25V1.243
		c0-0.018,0.006-0.036,0.014-0.052C0.038,1.149,0.05,1.101,0.05,1.05c0-0.043-0.009-0.084-0.025-0.12C0.01,0.895,0,0.859,0,0.821
		V0.238c0-0.045,0.031-0.087,0.076-0.096c0.073-0.016,0.139-0.055,0.186-0.11C0.28,0.011,0.307,0,0.335,0H0.85
		C0.933,0,1,0.068,1,0.15V0.857z"/>
	<path fill="#A96104" d="M0.9,0.223V0.75c0,0.055-0.045,0.1-0.1,0.1H0.2c-0.055,0-0.1-0.045-0.1-0.1V0.296
		c0-0.037,0.025-0.071,0.061-0.08c0.058-0.013,0.11-0.045,0.149-0.09C0.324,0.11,0.345,0.1,0.368,0.1H0.78
		C0.846,0.1,0.9,0.155,0.9,0.223z"/>
	<path fill="#A69001" d="M0.9,0.75v0.151c0,0.022-0.007,0.042-0.02,0.06C0.861,0.985,0.85,1.016,0.85,1.05
		c0,0.034,0.011,0.065,0.03,0.09C0.893,1.157,0.9,1.178,0.9,1.199v0.025C0.9,1.266,0.866,1.3,0.825,1.3H0.157
		C0.126,1.3,0.1,1.274,0.1,1.243c0-0.002,0-0.005,0.001-0.008c0.001-0.015,0.007-0.03,0.014-0.044C0.138,1.149,0.15,1.101,0.15,1.05
		c0-0.034-0.005-0.065-0.015-0.096C0.13,0.942,0.125,0.93,0.12,0.918C0.107,0.892,0.1,0.863,0.1,0.833V0.758
		C0.1,0.668,0.168,0.6,0.25,0.6h0.5C0.832,0.6,0.9,0.668,0.9,0.75z"/>
	<path fill="#FFEF14" d="M0.9,0.2v0.55c0,0.055-0.045,0.1-0.1,0.1H0.2c-0.055,0-0.1-0.045-0.1-0.1V0.296
		c0-0.037,0.025-0.071,0.061-0.08c0.058-0.013,0.11-0.045,0.149-0.09c0.01-0.011,0.021-0.018,0.035-0.023
		C0.352,0.101,0.36,0.1,0.368,0.1H0.8C0.855,0.1,0.9,0.145,0.9,0.2z"/>
	<path fill="#FFEF14" d="M0.9,0.2v0.5c0,0.055-0.045,0.1-0.1,0.1H0.2c-0.055,0-0.1-0.045-0.1-0.1V0.296
		c0-0.037,0.025-0.071,0.061-0.08c0.058-0.013,0.11-0.045,0.149-0.09c0.01-0.011,0.021-0.018,0.035-0.023
		C0.352,0.101,0.36,0.1,0.368,0.1H0.8C0.855,0.1,0.9,0.145,0.9,0.2z"/>
	<path fill="#FBDC06" d="M0.9,0.25V0.7c0,0.055-0.045,0.1-0.1,0.1H0.2c-0.055,0-0.1-0.045-0.1-0.1V0.346
		c0-0.037,0.025-0.071,0.061-0.08c0.058-0.013,0.11-0.045,0.149-0.09c0.01-0.011,0.021-0.018,0.035-0.023
		C0.352,0.151,0.36,0.15,0.368,0.15H0.8C0.855,0.15,0.9,0.195,0.9,0.25z"/>
	<circle fill="#F0A50D" cx="0.325" cy="0.463" r="0.112"/>
	<path fill="#F0A50D" d="M0.9,0.238v0.223C0.873,0.485,0.839,0.5,0.8,0.5c-0.083,0-0.15-0.067-0.15-0.15S0.717,0.2,0.8,0.2
		C0.839,0.2,0.873,0.214,0.9,0.238z"/>
	<path fill="#F0A50D" d="M0.35,0.15c0,0.11-0.089,0.2-0.2,0.2c-0.017,0-0.034-0.002-0.05-0.007V0.296
		c0-0.037,0.025-0.071,0.061-0.08c0.058-0.013,0.11-0.045,0.149-0.09c0.01-0.011,0.021-0.018,0.035-0.023
		C0.348,0.118,0.35,0.134,0.35,0.15z"/>
	<path fill="#CE8C00" d="M0.762,0.813c0,0.089-0.073,0.163-0.162,0.163c-0.033,0-0.065-0.011-0.09-0.028
		C0.491,0.935,0.476,0.918,0.464,0.9C0.447,0.874,0.438,0.845,0.438,0.813c0-0.09,0.073-0.163,0.163-0.163
		c0.009,0,0.018,0.001,0.027,0.002c0.021,0.004,0.042,0.011,0.06,0.023C0.732,0.704,0.762,0.754,0.762,0.813z"/>
	<path fill="#F0A50D" d="M0.7,0.788c0,0.089-0.073,0.162-0.162,0.162c-0.01,0-0.019-0.001-0.028-0.003
		C0.491,0.935,0.476,0.918,0.464,0.9C0.447,0.874,0.438,0.845,0.438,0.813c0-0.09,0.073-0.163,0.163-0.163
		c0.009,0,0.018,0.001,0.027,0.002C0.671,0.682,0.7,0.731,0.7,0.788z"/>
	<path fill="#9E6D00" d="M0.88,0.96C0.861,0.985,0.85,1.016,0.85,1.05c0,0.034,0.011,0.065,0.03,0.09
		C0.893,1.157,0.9,1.178,0.9,1.199V1.2c-0.083,0-0.15-0.067-0.15-0.15S0.817,0.9,0.9,0.9v0.001C0.9,0.922,0.893,0.943,0.88,0.96z"/>
	<path fill="#9E6D00" d="M0.35,1.1c0,0.083-0.079,0.15-0.175,0.15c-0.027,0-0.052-0.005-0.074-0.015
		c0.001-0.015,0.007-0.03,0.014-0.044C0.138,1.149,0.15,1.101,0.15,1.05c0-0.034-0.005-0.065-0.015-0.096
		C0.148,0.951,0.161,0.95,0.175,0.95C0.271,0.95,0.35,1.017,0.35,1.1z"/>
	<ellipse fill="#9E6D00" cx="0.625" cy="1.2" rx="0.075" ry="0.05"/>
</g>
</svg>
