<?xml version="1.0" encoding="utf-8"?>
<!-- Generator: Adobe Illustrator 24.1.2, SVG Export Plug-In . SVG Version: 6.00 Build 0)  -->
<svg version="1.1" id="Capa_1" xmlns="http://www.w3.org/2000/svg" xmlns:xlink="http://www.w3.org/1999/xlink" x="0px" y="0px"
	 width="1px" height="1.8px" viewBox="0 0 1 1.8" enable-background="new 0 0 1 1.8" xml:space="preserve">
<path id="rect10315" fill="#0A0F32" fill-opacity="0.2" d="M0.1,1.4h0.8C0.955,1.4,1,1.445,1,1.5v0.2c0,0.055-0.045,0.1-0.1,0.1H0.1
	C0.045,1.8,0,1.755,0,1.7V1.5C0,1.445,0.045,1.4,0.1,1.4z"/>
<g>
	<path fill="#333079" d="M1,0.15V1.5H0V0.15C0,0.067,0.067,0,0.15,0h0.7C0.933,0,1,0.067,1,0.15z"/>
	<rect x="0.1" y="0.85" fill="#753E10" width="0.8" height="0.55"/>
	<path fill="#5A300C" d="M0.9,0.8v0.35c0,0.027-0.023,0.05-0.05,0.05h-0.7C0.123,1.2,0.1,1.177,0.1,1.15V0.8H0.9z"/>
	<path fill="#5853B4" d="M0.9,0.8v0.25c0,0.027-0.023,0.05-0.05,0.05h-0.7C0.123,1.1,0.1,1.077,0.1,1.05V0.8H0.9z"/>
	<path fill="#8184F2" d="M0.9,0.25v0.7C0.9,0.977,0.877,1,0.85,1h-0.7C0.123,1,0.1,0.977,0.1,0.95v-0.7H0.9z"/>
	<path opacity="0.15" d="M0.9,0.8v0.15C0.9,0.977,0.877,1,0.85,1h-0.7C0.123,1,0.1,0.977,0.1,0.95V0.8H0.9z"/>
	<rect x="0.2" y="0.8" fill="#3F3A8B" width="0.6" height="0.1"/>
	<rect x="0.25" y="0.8" fill="#1E1A30" width="0.5" height="0.1"/>
	<path fill="#5753B4" d="M0.9,0.15V0.8c0,0.027-0.023,0.05-0.05,0.05h-0.7C0.123,0.85,0.1,0.827,0.1,0.8V0.15
		c0-0.027,0.023-0.05,0.05-0.05h0.7C0.877,0.1,0.9,0.123,0.9,0.15z"/>
	<path fill="#8184F2" d="M0.25,0.3L0.108,0.726C0.103,0.719,0.1,0.71,0.1,0.7V0.15c0-0.013,0.005-0.024,0.012-0.033L0.25,0.3z"/>
	<path fill="#B4BBFF" d="M0.887,0.117L0.75,0.3h-0.5L0.112,0.117C0.121,0.107,0.135,0.1,0.15,0.1h0.7
		C0.865,0.1,0.879,0.107,0.887,0.117z"/>
	<path fill="#8184F2" d="M0.9,0.15V0.7c0,0.01-0.003,0.019-0.008,0.026L0.75,0.3l0.137-0.183C0.895,0.126,0.9,0.138,0.9,0.15z"/>
	<path fill="#6666E5" d="M0.892,0.726C0.883,0.74,0.868,0.75,0.85,0.75h-0.7c-0.018,0-0.033-0.01-0.042-0.024L0.25,0.3h0.5
		L0.892,0.726z"/>
	<path fill="#8184F2" d="M0.85,1h-0.7c0-0.027,0.023-0.05,0.05-0.05h0.6C0.827,0.95,0.85,0.973,0.85,1z"/>
</g>
</svg>
