<?xml version="1.0" encoding="utf-8"?>
<!-- Generator: Adobe Illustrator 24.1.2, SVG Export Plug-In . SVG Version: 6.00 Build 0)  -->
<svg version="1.1" id="Capa_1" xmlns="http://www.w3.org/2000/svg" xmlns:xlink="http://www.w3.org/1999/xlink" x="0px" y="0px"
	 viewBox="0 0 1 1.8" enable-background="new 0 0 1 1.8" xml:space="preserve">
<g>
	<path id="rect10315" fill="#0A0F32" fill-opacity="0.2" d="M0.1,1.35h0.8C0.956,1.35,1,1.401,1,1.463v0.225
		C1,1.749,0.955,1.8,0.9,1.8H0.1C0.045,1.8,0,1.749,0,1.688V1.463C0,1.401,0.045,1.35,0.1,1.35z"/>
	<path fill="#59251F" d="M1,0.3v0.9c0,0.165-0.135,0.3-0.3,0.3H0.3C0.135,1.5,0,1.365,0,1.2V0.3C0,0.135,0.135,0,0.3,0h0.4
		C0.865,0,1,0.135,1,0.3z"/>
	<path fill="#BF8108" d="M0.9,0.85V1.2c0,0.11-0.089,0.2-0.2,0.2H0.3c-0.111,0-0.2-0.09-0.2-0.2V0.85c0,0.11,0.089,0.2,0.2,0.2h0.4
		C0.811,1.05,0.9,0.96,0.9,0.85z"/>
	<path fill="#A56506" d="M0.9,1v0.1c0,0.11-0.089,0.2-0.2,0.2H0.3c-0.111,0-0.2-0.09-0.2-0.2V1c0,0.11,0.089,0.2,0.2,0.2h0.4
		C0.811,1.2,0.9,1.11,0.9,1z"/>
	<path fill="#D29619" d="M0.9,0.9V1c0,0.11-0.089,0.2-0.2,0.2H0.3C0.189,1.2,0.1,1.11,0.1,1V0.9c0,0.11,0.089,0.2,0.2,0.2h0.4
		C0.811,1.1,0.9,1.01,0.9,0.9z"/>
	<path fill="#E8E878" d="M0.9,0.85V0.9c0,0.11-0.089,0.2-0.2,0.2H0.3c-0.111,0-0.2-0.09-0.2-0.2V0.85c0,0.11,0.089,0.2,0.2,0.2h0.4
		C0.811,1.05,0.9,0.96,0.9,0.85z"/>
	<path fill="#643225" d="M0.9,0.55v0.3c0,0.11-0.089,0.2-0.2,0.2H0.3c-0.111,0-0.2-0.09-0.2-0.2v-0.3c0-0.111,0.089-0.2,0.2-0.2h0.4
		C0.811,0.35,0.9,0.439,0.9,0.55z"/>
	<path fill="#874E3C" d="M0.9,0.3v0.3c0,0.11-0.089,0.2-0.2,0.2H0.3c-0.111,0-0.2-0.09-0.2-0.2V0.3c0-0.111,0.089-0.2,0.2-0.2h0.4
		C0.811,0.1,0.9,0.189,0.9,0.3z"/>
	<path fill="#754331" d="M0.85,0.3v0.3c0,0.083-0.067,0.15-0.15,0.15H0.3c-0.083,0-0.15-0.067-0.15-0.15V0.3
		c0-0.083,0.067-0.15,0.15-0.15h0.4C0.783,0.15,0.85,0.217,0.85,0.3z"/>
	<path fill="#673628" d="M0.725,0.35V0.6c0,0.055-0.04,0.1-0.09,0.1h-0.27c-0.049,0-0.09-0.045-0.09-0.1V0.35
		c0-0.055,0.04-0.1,0.09-0.1h0.27C0.685,0.25,0.725,0.295,0.725,0.35z"/>
	<path fill="#865845" d="M0.725,0.55V0.6c0,0.055-0.04,0.1-0.09,0.1h-0.27c-0.049,0-0.09-0.045-0.09-0.1V0.55
		c0,0.055,0.04,0.1,0.09,0.1h0.27C0.685,0.65,0.725,0.605,0.725,0.55z"/>
	<path fill="#743C2B" d="M0.725,0.45v0.1c0,0.055-0.04,0.1-0.09,0.1h-0.27c-0.049,0-0.09-0.045-0.09-0.1v-0.1
		c0-0.055,0.04-0.1,0.09-0.1h0.27C0.685,0.35,0.725,0.395,0.725,0.45z"/>
</g>
</svg>
