<?xml version="1.0" encoding="utf-8"?>
<!-- Generator: Adobe Illustrator 24.1.2, SVG Export Plug-In . SVG Version: 6.00 Build 0)  -->
<svg version="1.1"
	 id="svg5" xmlns:inkscape="http://www.inkscape.org/namespaces/inkscape" xmlns:sodipodi="http://sodipodi.sourceforge.net/DTD/sodipodi-0.dtd" xmlns:svg="http://www.w3.org/2000/svg"
	 xmlns="http://www.w3.org/2000/svg" xmlns:xlink="http://www.w3.org/1999/xlink" x="0px" y="0px" width="1px" height="1.8px"
	 viewBox="0 0 1 1.8" enable-background="new 0 0 1 1.8" xml:space="preserve">
<g>
	<path id="rect10315" fill="#0A0F32" fill-opacity="0.2" d="M0.1,1.35h0.8C0.955,1.35,1,1.401,1,1.463v0.225
		C1,1.749,0.955,1.8,0.9,1.8H0.1C0.045,1.8,0,1.749,0,1.688V1.463C0,1.401,0.045,1.35,0.1,1.35z"/>
</g>
<g>
	<path fill="#7C3002" d="M0.75,1.5h-0.5C0.112,1.5,0,1.388,0,1.25l0.04-1.01C0.046,0.106,0.156,0,0.29,0h0.42
		c0.134,0,0.244,0.106,0.25,0.24L1,1.25C1,1.388,0.887,1.5,0.75,1.5z"/>
	<path fill="#7F0E31" d="M0.9,1.25c0,0.038-0.014,0.072-0.037,0.098C0.836,1.38,0.795,1.4,0.75,1.4h-0.5
		c-0.045,0-0.086-0.02-0.112-0.052C0.114,1.322,0.1,1.288,0.1,1.25l0.044-1.007C0.148,0.163,0.213,0.1,0.293,0.1h0.413
		c0.08,0,0.146,0.063,0.149,0.143L0.9,1.25z"/>
	<path fill="#B87100" d="M0.9,1.25c0,0.038-0.014,0.072-0.037,0.098C0.862,1.349,0.862,1.349,0.861,1.349L0.5,0.875L0.139,1.349
		C0.138,1.349,0.138,1.349,0.138,1.348C0.114,1.322,0.1,1.288,0.1,1.25l0.044-1.007C0.148,0.163,0.213,0.1,0.293,0.1h0.413
		c0.08,0,0.146,0.063,0.149,0.143L0.9,1.25z"/>
	<path fill="#F2B038" d="M0.856,0.25v0.4c0,0.083-0.067,0.15-0.15,0.15H0.294c-0.083,0-0.15-0.067-0.15-0.15v-0.4
		c0-0.083,0.067-0.15,0.15-0.15h0.412C0.789,0.1,0.856,0.167,0.856,0.25z"/>
	<path fill="#D77D00" d="M0.75,0.3v0.3c0,0.055-0.045,0.1-0.1,0.1h-0.3c-0.055,0-0.1-0.045-0.1-0.1V0.3c0-0.055,0.045-0.1,0.1-0.1
		h0.3C0.705,0.2,0.75,0.245,0.75,0.3z"/>
	<g>
		<path fill="#AE4504" d="M0.313,0.39C0.305,0.376,0.306,0.358,0.316,0.345C0.317,0.347,0.318,0.348,0.32,0.35l0.06,0.06
			L0.355,0.435L0.32,0.4C0.317,0.397,0.314,0.393,0.313,0.39z"/>
		<path fill="#AE4504" d="M0.684,0.525c0.01,0.013,0.011,0.031,0.003,0.045C0.686,0.573,0.683,0.577,0.68,0.58L0.62,0.64
			c-0.017,0.017-0.043,0.017-0.06,0L0.5,0.58L0.44,0.64c-0.017,0.017-0.043,0.017-0.06,0L0.32,0.58
			C0.317,0.577,0.314,0.573,0.313,0.57C0.305,0.556,0.306,0.538,0.316,0.525C0.317,0.527,0.318,0.529,0.32,0.53l0.06,0.06
			c0.017,0.017,0.043,0.017,0.06,0L0.5,0.53l0.06,0.06c0.017,0.017,0.043,0.017,0.06,0l0.06-0.06
			C0.682,0.529,0.683,0.527,0.684,0.525z"/>
		<path fill="#AE4504" d="M0.62,0.41l0.06-0.06c0.002-0.002,0.003-0.003,0.004-0.005c0.01,0.013,0.011,0.031,0.003,0.045
			C0.686,0.393,0.683,0.397,0.68,0.4L0.645,0.435L0.62,0.41z"/>
		<path fill="#FFA915" d="M0.68,0.47c0.014,0.013,0.016,0.034,0.007,0.05C0.686,0.522,0.685,0.523,0.684,0.525
			C0.683,0.527,0.682,0.529,0.68,0.53L0.62,0.59c-0.017,0.017-0.043,0.017-0.06,0L0.5,0.53L0.44,0.59
			c-0.017,0.017-0.043,0.017-0.06,0L0.32,0.53C0.318,0.529,0.317,0.527,0.316,0.525C0.315,0.523,0.314,0.522,0.313,0.52
			C0.304,0.504,0.307,0.483,0.32,0.47l0.035-0.035L0.38,0.41L0.32,0.35C0.318,0.348,0.317,0.347,0.316,0.345
			C0.315,0.343,0.314,0.342,0.313,0.34C0.304,0.324,0.307,0.304,0.32,0.29l0.06-0.06c0.009-0.008,0.019-0.013,0.03-0.013
			c0.011,0,0.021,0.005,0.03,0.013L0.5,0.29l0.06-0.06c0.017-0.016,0.043-0.016,0.06,0l0.06,0.06
			c0.014,0.014,0.016,0.034,0.007,0.05C0.686,0.342,0.685,0.343,0.684,0.345C0.683,0.347,0.682,0.348,0.68,0.35L0.62,0.41
			l0.025,0.025L0.68,0.47z"/>
	</g>
</g>
</svg>
