<?xml version="1.0" encoding="utf-8"?>
<!-- Generator: Adobe Illustrator 24.1.2, SVG Export Plug-In . SVG Version: 6.00 Build 0)  -->
<svg version="1.1"
	 id="svg5" xmlns:inkscape="http://www.inkscape.org/namespaces/inkscape" xmlns:sodipodi="http://sodipodi.sourceforge.net/DTD/sodipodi-0.dtd" xmlns:svg="http://www.w3.org/2000/svg"
	 xmlns="http://www.w3.org/2000/svg" xmlns:xlink="http://www.w3.org/1999/xlink" x="0px" y="0px" width="1px" height="1.8px"
	 viewBox="0 0 1 1.8" enable-background="new 0 0 1 1.8" xml:space="preserve">
<g>
	<path id="rect10315" fill="#0A0F32" fill-opacity="0.2" d="M0.1,1.35h0.8C0.956,1.35,1,1.401,1,1.463v0.225
		C1,1.749,0.955,1.8,0.9,1.8H0.1C0.045,1.8,0,1.749,0,1.688V1.463C0,1.401,0.045,1.35,0.1,1.35z"/>
</g>
<g>
	<path fill="#7C3002" d="M0.75,1.5h-0.5C0.112,1.5,0,1.388,0,1.25l0.04-1.01C0.046,0.106,0.156,0,0.29,0h0.42
		c0.134,0,0.244,0.106,0.25,0.24L1,1.25C1,1.388,0.887,1.5,0.75,1.5z"/>
	<path fill="#7F0E31" d="M0.9,1.25c0,0.038-0.014,0.072-0.037,0.098C0.862,1.349,0.862,1.349,0.861,1.349
		C0.835,1.38,0.795,1.4,0.75,1.4h-0.5c-0.045,0-0.085-0.02-0.111-0.051C0.138,1.349,0.138,1.349,0.138,1.348
		C0.114,1.322,0.1,1.288,0.1,1.25l0.044-1.007C0.148,0.163,0.213,0.1,0.293,0.1h0.413c0.08,0,0.146,0.063,0.149,0.143L0.9,1.25z"/>
	<path fill="#B87100" d="M0.9,1.25c0,0.038-0.014,0.072-0.037,0.098C0.862,1.349,0.862,1.349,0.861,1.349L0.5,0.875L0.139,1.349
		C0.138,1.349,0.138,1.349,0.138,1.348C0.114,1.322,0.1,1.288,0.1,1.25l0.044-1.007C0.148,0.163,0.213,0.1,0.293,0.1h0.413
		c0.08,0,0.146,0.063,0.149,0.143L0.9,1.25z"/>
	<path fill="#F2B038" d="M0.856,0.25v0.4c0,0.083-0.067,0.15-0.15,0.15H0.294c-0.083,0-0.15-0.067-0.15-0.15v-0.4
		c0-0.083,0.067-0.15,0.15-0.15h0.412C0.789,0.1,0.856,0.167,0.856,0.25z"/>
	<path fill="#D77D00" d="M0.75,0.3v0.3c0,0.055-0.045,0.1-0.1,0.1h-0.3c-0.055,0-0.1-0.045-0.1-0.1V0.3c0-0.055,0.045-0.1,0.1-0.1
		h0.3C0.705,0.2,0.75,0.245,0.75,0.3z"/>
	<g>
		<path fill="#AE4504" d="M0.373,0.503L0.299,0.431L0.295,0.427C0.281,0.414,0.289,0.391,0.307,0.388h0.001l0.065,0.064
			c0.005,0.005,0.007,0.013,0.007,0.02L0.375,0.496L0.373,0.504C0.373,0.504,0.373,0.503,0.373,0.503z"/>
		<path fill="#AE4504" d="M0.634,0.599L0.639,0.63c0.001,0.007,0,0.012-0.004,0.017C0.63,0.655,0.617,0.659,0.607,0.654L0.511,0.603
			C0.504,0.6,0.496,0.6,0.489,0.603L0.393,0.654C0.383,0.659,0.37,0.655,0.364,0.647C0.361,0.643,0.36,0.637,0.361,0.63l0.005-0.032
			c0.006,0.007,0.017,0.01,0.027,0.005l0.096-0.051c0.007-0.004,0.015-0.004,0.021,0l0.096,0.051
			C0.617,0.609,0.628,0.606,0.634,0.599z"/>
		<path fill="#AE4504" d="M0.705,0.427L0.701,0.431L0.627,0.503C0.627,0.503,0.627,0.504,0.627,0.504L0.625,0.496L0.621,0.473
			C0.62,0.465,0.623,0.458,0.627,0.453l0.065-0.064h0.001C0.711,0.391,0.719,0.414,0.705,0.427z"/>
		<path fill="#FFA915" d="M0.705,0.377L0.701,0.381L0.693,0.388H0.693L0.627,0.453C0.623,0.458,0.62,0.465,0.621,0.473l0.004,0.023
			l0.002,0.008L0.639,0.58c0.001,0.007,0,0.012-0.004,0.017C0.635,0.598,0.635,0.598,0.634,0.599
			c-0.006,0.007-0.017,0.01-0.027,0.005L0.511,0.553c-0.007-0.004-0.015-0.004-0.021,0L0.393,0.604
			c-0.01,0.005-0.021,0.002-0.027-0.005C0.365,0.598,0.365,0.598,0.364,0.597C0.361,0.593,0.36,0.587,0.361,0.58l0.013-0.076
			l0.002-0.008l0.004-0.023c0.001-0.008-0.002-0.015-0.007-0.02L0.307,0.388H0.307L0.299,0.381L0.295,0.377
			C0.281,0.364,0.289,0.341,0.307,0.338l0.107-0.015C0.422,0.322,0.429,0.317,0.432,0.31L0.48,0.213c0.008-0.017,0.032-0.017,0.04,0
			L0.568,0.31c0.003,0.006,0.01,0.011,0.017,0.012l0.107,0.015C0.711,0.341,0.719,0.364,0.705,0.377z"/>
	</g>
</g>
</svg>
