<?xml version="1.0" encoding="utf-8"?>
<!-- Generator: Adobe Illustrator 24.1.2, SVG Export Plug-In . SVG Version: 6.00 Build 0)  -->
<svg version="1.1" id="Capa_1" xmlns="http://www.w3.org/2000/svg" xmlns:xlink="http://www.w3.org/1999/xlink" x="0px" y="0px"
	 width="1.05px" height="1.85px" viewBox="0 0 1.05 1.85" enable-background="new 0 0 1.05 1.85" xml:space="preserve">
<circle id="circle16099" fill="#0A0F32" fill-opacity="0.2" cx="0.525" cy="1.35" r="0.5"/>
<g>
	<path fill="#653404" d="M1.05,0.45V0.7c0,0.068-0.017,0.136-0.05,0.196V1.1c0,0.248-0.224,0.45-0.5,0.45S0,1.348,0,1.1V0.85
		c0-0.068,0.017-0.136,0.05-0.196V0.45C0.05,0.202,0.274,0,0.55,0S1.05,0.202,1.05,0.45z"/>
	<g>
		<path fill="#ECA823" d="M0.9,0.85V1.1c0,0.193-0.179,0.35-0.4,0.35S0.1,1.293,0.1,1.1V0.85c0-0.193,0.179-0.35,0.4-0.35
			S0.9,0.657,0.9,0.85z"/>
		<path fill="#FFC144" d="M0.9,0.85c0,0.054-0.014,0.106-0.039,0.152C0.796,1.119,0.659,1.2,0.5,1.2c-0.221,0-0.4-0.157-0.4-0.35
			c0-0.064,0.02-0.124,0.054-0.176C0.223,0.57,0.352,0.5,0.5,0.5C0.721,0.5,0.9,0.657,0.9,0.85z"/>
	</g>
	<path fill="#D79719" d="M0.9,0.85c0,0.054-0.014,0.106-0.039,0.152C0.785,1.063,0.685,1.1,0.575,1.1
		C0.34,1.1,0.15,0.932,0.15,0.725c0-0.017,0.002-0.034,0.004-0.051C0.223,0.57,0.352,0.5,0.5,0.5C0.721,0.5,0.9,0.657,0.9,0.85z"/>
	<g>
		<path fill="#ECA823" d="M0.95,0.45V0.7c0,0.193-0.179,0.35-0.4,0.35s-0.4-0.157-0.4-0.35V0.45c0-0.193,0.179-0.35,0.4-0.35
			S0.95,0.257,0.95,0.45z"/>
		<path fill="#FFCB65" d="M0.95,0.45c0,0.193-0.179,0.35-0.4,0.35c-0.109,0-0.208-0.038-0.28-0.1C0.196,0.636,0.15,0.548,0.15,0.45
			c0-0.193,0.179-0.35,0.4-0.35c0.07,0,0.136,0.015,0.193,0.043C0.867,0.203,0.95,0.318,0.95,0.45z"/>
	</g>
	<path fill="#F2D8A4" d="M0.75,0.225C0.75,0.488,0.538,0.7,0.275,0.7H0.27C0.196,0.636,0.15,0.548,0.15,0.45
		c0-0.193,0.179-0.35,0.4-0.35c0.07,0,0.136,0.015,0.193,0.043C0.748,0.17,0.75,0.197,0.75,0.225z"/>
	<g>
		<ellipse fill="#864D2C" cx="0.55" cy="0.45" rx="0.325" ry="0.275"/>
	</g>
	<g>
		<path fill="#FBBE34" d="M0.8,0.456c0,0.072-0.064,0.126-0.121,0.146v0.024c0,0.013-0.012,0.024-0.028,0.024H0.449
			c-0.015,0-0.028-0.011-0.028-0.024V0.602C0.364,0.582,0.3,0.528,0.3,0.456c0-0.018,0.003-0.035,0.008-0.051
			C0.337,0.317,0.436,0.25,0.55,0.25c0.017,0,0.033,0.001,0.048,0.004C0.711,0.273,0.8,0.358,0.8,0.456z"/>
		<path fill="#FFF2CB" d="M0.6,0.275c0,0.096-0.079,0.175-0.175,0.175c-0.045,0-0.086-0.017-0.117-0.045
			C0.337,0.317,0.436,0.25,0.55,0.25c0.017,0,0.033,0.001,0.048,0.004C0.599,0.261,0.6,0.268,0.6,0.275z"/>
		<ellipse id="ellipse7431" fill="#864D2C" cx="0.439" cy="0.496" rx="0.073" ry="0.063"/>
		<ellipse id="ellipse7433" fill="#864D2C" cx="0.666" cy="0.496" rx="0.073" ry="0.063"/>
	</g>
</g>
</svg>
