<?xml version="1.0" encoding="UTF-8" standalone="no"?>
<!-- Created with Inkscape (http://www.inkscape.org/) -->

<svg
   width="2.5"
   height="2.5"
   viewBox="0 0 2.5 2.5"
   version="1.1"
   id="svg5"
   sodipodi:docname="coin_2.svg"
   inkscape:version="1.2 (dc2aedaf03, 2022-05-15)"
   xml:space="preserve"
   xmlns:inkscape="http://www.inkscape.org/namespaces/inkscape"
   xmlns:sodipodi="http://sodipodi.sourceforge.net/DTD/sodipodi-0.dtd"
   xmlns:xlink="http://www.w3.org/1999/xlink"
   xmlns="http://www.w3.org/2000/svg"
   xmlns:svg="http://www.w3.org/2000/svg"><sodipodi:namedview
     id="namedview7"
     pagecolor="#171717"
     bordercolor="#999999"
     borderopacity="1"
     inkscape:pageshadow="0"
     inkscape:pageopacity="0"
     inkscape:pagecheckerboard="0"
     inkscape:document-units="px"
     showgrid="false"
     units="px"
     inkscape:zoom="256"
     inkscape:cx="0.84375"
     inkscape:cy="1.4726562"
     inkscape:window-width="3440"
     inkscape:window-height="1417"
     inkscape:window-x="-8"
     inkscape:window-y="-8"
     inkscape:window-maximized="1"
     inkscape:current-layer="layer1"
     inkscape:object-paths="true"
     inkscape:snap-intersection-paths="true"
     inkscape:snap-smooth-nodes="true"
     inkscape:snap-midpoints="true"
     inkscape:snap-object-midpoints="true"
     showguides="false"
     inkscape:snap-global="true"
     inkscape:showpageshadow="0"
     inkscape:deskcolor="#171717"><inkscape:grid
       type="xygrid"
       id="grid836"
       originx="0"
       originy="0" /></sodipodi:namedview><defs
     id="defs2"><linearGradient
       inkscape:collect="always"
       id="linearGradient65032"><stop
         style="stop-color:#f09900;stop-opacity:1;"
         offset="0"
         id="stop65028" /><stop
         style="stop-color:#e84d00;stop-opacity:0;"
         offset="1"
         id="stop65030" /></linearGradient><radialGradient
       inkscape:collect="always"
       xlink:href="#linearGradient65032"
       id="radialGradient71353"
       gradientUnits="userSpaceOnUse"
       gradientTransform="matrix(0.8333335,1.4118983e-8,-2.7309723e-8,0.83333332,-357.50008,-60.000006)"
       cx="459"
       cy="102"
       fx="459"
       fy="102"
       r="30" /></defs><g
     inkscape:label="Layer 1"
     inkscape:groupmode="layer"
     id="layer1"><g
       id="g80311"
       transform="scale(0.05)"><circle
         style="fill:url(#radialGradient71353);fill-opacity:1;stroke:none;stroke-width:4;stroke-linejoin:round;stroke-dasharray:none;paint-order:fill markers stroke"
         id="circle71349"
         cx="25"
         cy="25"
         r="25" /><circle
         style="fill:#0f0f37;fill-opacity:0.05;stroke:none;stroke-width:4;stroke-linejoin:round;stroke-dasharray:none;paint-order:fill markers stroke"
         id="circle71351"
         cx="25"
         cy="37"
         r="10" /><path
         id="path71066"
         style="color:#000000;fill:#703000;fill-opacity:1;stroke-width:4;stroke-linejoin:round;paint-order:fill markers stroke"
         d="m 25,14 c -5.49914,0 -10,4.50086 -10,10 v 4 c 0,5.49914 4.50086,10 10,10 5.49914,0 10,-4.50086 10,-10 V 24 C 35,18.50086 30.49914,14 25,14 Z" /><path
         id="circle69319"
         style="fill:#8c6c04;fill-opacity:1;stroke:none;stroke-width:4;stroke-linejoin:round;stroke-dasharray:none;paint-order:fill markers stroke"
         d="m 25,16 c -4.41828,0 -8,3.58172 -8,8 v 4 h 16 v -4 c 0,-4.41828 -3.58172,-8 -8,-8 z"
         sodipodi:nodetypes="ssccss" /><path
         id="rect70141"
         style="fill:#bc9000;fill-opacity:1;stroke:none;stroke-width:4;stroke-linejoin:round;stroke-dasharray:none;paint-order:fill markers stroke"
         d="m 25,16 c -0.3388,0 -0.67228,0.0236 -1,0.0644 V 28 h 9 v -4 c 0,-4.41828 -3.58172,-8 -8,-8 z" /><circle
         style="fill:#f0b800;fill-opacity:1;stroke:none;stroke-width:4;stroke-linejoin:round;stroke-dasharray:none;paint-order:fill markers stroke"
         id="circle69321"
         cx="25"
         cy="28"
         r="8" /><circle
         style="fill:#8c4404;fill-opacity:1;stroke:none;stroke-width:4;stroke-linejoin:round;stroke-dasharray:none;paint-order:fill markers stroke"
         id="circle69323"
         cx="25"
         cy="28"
         r="5" /><circle
         style="fill:#bc9000;fill-opacity:1;stroke:none;stroke-width:4;stroke-linejoin:round;stroke-dasharray:none;paint-order:fill markers stroke"
         id="circle69325"
         cx="25"
         cy="28"
         r="3" /><path
         id="path70711"
         style="fill:#d0b454;fill-opacity:1;stroke:none;stroke-width:4;stroke-linejoin:round;stroke-dasharray:none;paint-order:fill markers stroke"
         d="m 25,16 c -0.3388,0 -0.67228,0.0236 -1,0.0644 3.94612,0.49228 7,3.85607 7,7.93555 v 4 h 2 v -4 c 0,-4.41828 -3.58172,-8 -8,-8 z" /><path
         id="circle70353"
         style="fill:#f4d470;fill-opacity:1;stroke:none;stroke-width:4;stroke-linejoin:round;stroke-dasharray:none;paint-order:fill markers stroke"
         d="M 25,20 A 8,8 0 0 0 20.46094,21.42969 8,8 0 0 1 23,21 8,8 0 0 1 31,29 8,8 0 0 1 27.53906,35.57031 8,8 0 0 0 33,28 8,8 0 0 0 25,20 Z m -3.99023,5.00977 A 5,5 0 0 0 19,29 5,5 0 0 0 24,34 5,5 0 0 0 27.99023,31.99023 5,5 0 0 1 25,33 5,5 0 0 1 20,28 5,5 0 0 1 21.00977,25.00977 Z" /></g></g></svg>
