<?xml version="1.0" encoding="UTF-8" standalone="no"?>
<!-- Created with Inkscape (http://www.inkscape.org/) -->

<svg
   width="2.5"
   height="2.5"
   viewBox="0 0 2.5 2.5"
   version="1.1"
   id="svg5"
   sodipodi:docname="coin_1.svg"
   inkscape:version="1.2 (dc2aedaf03, 2022-05-15)"
   xml:space="preserve"
   xmlns:inkscape="http://www.inkscape.org/namespaces/inkscape"
   xmlns:sodipodi="http://sodipodi.sourceforge.net/DTD/sodipodi-0.dtd"
   xmlns:xlink="http://www.w3.org/1999/xlink"
   xmlns="http://www.w3.org/2000/svg"
   xmlns:svg="http://www.w3.org/2000/svg"><sodipodi:namedview
     id="namedview7"
     pagecolor="#171717"
     bordercolor="#999999"
     borderopacity="1"
     inkscape:pageshadow="0"
     inkscape:pageopacity="0"
     inkscape:pagecheckerboard="0"
     inkscape:document-units="px"
     showgrid="false"
     units="px"
     inkscape:zoom="187.83333"
     inkscape:cx="1.4693878"
     inkscape:cy="1.2830524"
     inkscape:window-width="3440"
     inkscape:window-height="1417"
     inkscape:window-x="-8"
     inkscape:window-y="-8"
     inkscape:window-maximized="1"
     inkscape:current-layer="layer1"
     inkscape:object-paths="true"
     inkscape:snap-intersection-paths="true"
     inkscape:snap-smooth-nodes="true"
     inkscape:snap-midpoints="true"
     inkscape:snap-object-midpoints="true"
     showguides="false"
     inkscape:snap-global="true"
     inkscape:showpageshadow="0"
     inkscape:deskcolor="#171717"><inkscape:grid
       type="xygrid"
       id="grid836"
       originx="0"
       originy="0" /></sodipodi:namedview><defs
     id="defs2"><linearGradient
       inkscape:collect="always"
       id="linearGradient65032"><stop
         style="stop-color:#f09900;stop-opacity:1;"
         offset="0"
         id="stop65028" /><stop
         style="stop-color:#e84d00;stop-opacity:0;"
         offset="1"
         id="stop65030" /></linearGradient><radialGradient
       inkscape:collect="always"
       xlink:href="#linearGradient65032"
       id="radialGradient68007"
       gradientUnits="userSpaceOnUse"
       gradientTransform="matrix(0.8333335,1.4118983e-8,-2.7309723e-8,0.83333332,-357.50008,-60.000006)"
       cx="459"
       cy="102"
       fx="459"
       fy="102"
       r="30" /></defs><g
     inkscape:label="Layer 1"
     inkscape:groupmode="layer"
     id="layer1"><g
       id="g80251"
       transform="scale(0.05)"><circle
         style="fill:url(#radialGradient68007);fill-opacity:1;stroke:none;stroke-width:4;stroke-linejoin:round;stroke-dasharray:none;paint-order:fill markers stroke"
         id="circle68003"
         cx="25"
         cy="25"
         r="25" /><circle
         style="fill:#0f0f37;fill-opacity:0.05;stroke:none;stroke-width:4;stroke-linejoin:round;stroke-dasharray:none;paint-order:fill markers stroke"
         id="circle68005"
         cx="25"
         cy="39"
         r="10" /><path
         id="path66884"
         style="color:#000000;fill:#703000;fill-opacity:1;stroke-width:4;stroke-linejoin:round;paint-order:fill markers stroke"
         d="m 22.5,14 c -2.46751,0 -4.56002,1.50801 -5.90625,3.52734 C 15.24752,19.54669 14.5,22.15443 14.5,25 c 0,2.84557 0.74752,5.45331 2.09375,7.47266 C 17.93998,34.49199 20.03249,36 22.5,36 h 5 c 2.46751,0 4.56002,-1.50801 5.90625,-3.52734 C 34.75248,30.45331 35.5,27.84557 35.5,25 35.5,22.15443 34.75248,19.54669 33.40625,17.52734 32.06002,15.50801 29.96751,14 27.5,14 Z" /><path
         id="ellipse65413"
         style="fill:#8c6c04;fill-opacity:1;stroke:none;stroke-width:4;stroke-linejoin:round;stroke-dasharray:none;paint-order:fill markers stroke"
         d="m 22.5,16 c -3.31371,0 -6,4.02944 -6,9 0,4.97056 2.68629,9 6,9 h 5 V 16 Z"
         sodipodi:nodetypes="sssccs" /><path
         id="rect66527"
         style="fill:#b89010;fill-opacity:1;stroke:none;stroke-width:4;stroke-linejoin:round;stroke-dasharray:none;paint-order:fill markers stroke"
         d="m 22.5,16 c -2.07996,0 -3.91187,1.58865 -4.98828,4 H 27.5 v -4 z" /><ellipse
         style="fill:#f0b800;fill-opacity:1;stroke:none;stroke-width:4;stroke-linejoin:round;stroke-dasharray:none;paint-order:fill markers stroke"
         id="ellipse65415"
         cx="27.5"
         cy="25"
         rx="6"
         ry="9" /><ellipse
         style="fill:#8c4404;fill-opacity:1;stroke:none;stroke-width:4;stroke-linejoin:round;stroke-dasharray:none;paint-order:fill markers stroke"
         id="ellipse65417"
         cx="27.5"
         cy="25"
         rx="3.5"
         ry="6" /><ellipse
         style="fill:#bc9000;fill-opacity:1;stroke:none;stroke-width:4;stroke-linejoin:round;stroke-dasharray:none;paint-order:fill markers stroke"
         id="ellipse65419"
         cx="27.5"
         cy="25"
         rx="2"
         ry="4" /><path
         id="ellipse66254"
         style="fill:#f4d470;fill-opacity:1;stroke:none;stroke-width:4;stroke-linejoin:round;stroke-dasharray:none;paint-order:fill markers stroke"
         d="M 27.5,16 A 6,9 0 0 0 24.64648,17.09766 6,9 0 0 1 25.5,17 a 6,9 0 0 1 6,9 6,9 0 0 1 -3.14648,7.90234 A 6,9 0 0 0 33.5,25 a 6,9 0 0 0 -6,-9 z m -2.23438,4.39648 A 3.5,6 0 0 0 23,26 3.5,6 0 0 0 26.5,32 3.5,6 0 0 0 28.73438,30.60352 3.5,6 0 0 1 27.5,31 3.5,6 0 0 1 24,25 3.5,6 0 0 1 25.26562,20.39648 Z" /></g></g></svg>
