<?xml version="1.0" ?>
<svg xmlns="http://www.w3.org/2000/svg" width="1.1" height="1.5750000000000002" viewBox="0 0 1.1 1.5750000000000002" version="1.1" id="svg5" xml:space="preserve">
   <defs id="defs2"/>
   <g id="layer1" transform="scale(0.05) translate(-86,-81.5)">
      <g id="g42026">
         <rect style="fill:#0a0f32;fill-opacity:0.2;stroke:none;stroke-width:4;stroke-linejoin:round;stroke-dasharray:none" id="rect7299-5" width="20" height="11" x="87" y="102" ry="2.8588936"/>
         <path id="path41570" style="color:#000000;fill:#083060;fill-opacity:1;stroke-linejoin:round;paint-order:markers stroke fill" d="m 97,93 c -2.175117,0 -3.997943,1.452153 -4.675781,3.414062 C 91.762121,96.158212 91.150594,96 90.5,96 88.041598,96 86,98.041598 86,100.5 v 2 c 0,2.4584 2.041599,4.5 4.5,4.5 1.000912,0 1.88755,-0.39961 2.640625,-0.9668 C 94.060814,107.19793 95.42055,108 97,108 c 1.57945,0 2.939181,-0.80207 3.85938,-1.9668 0.75306,0.56719 1.63971,0.9668 2.64062,0.9668 2.4584,0 4.5,-2.0416 4.5,-4.5 v -2 c 0,-2.458401 -2.0416,-4.5 -4.5,-4.5 -0.65059,0 -1.26212,0.158212 -1.82422,0.414062 C 100.99794,94.452153 99.175117,93 97,93 Z"/>
         <path id="rect37116" style="opacity:1;fill:#08407c;fill-opacity:1;stroke:none;stroke-width:4;stroke-linejoin:round;stroke-dasharray:none;paint-order:markers stroke fill" d="m 97,95 c -1.661998,0 -3,1.338002 -3,3 v 5 c 0,1.662 1.338002,3 3,3 1.661998,0 3,-1.338 3,-3 v -5 c 0,-1.661998 -1.338002,-3 -3,-3 z m -6.5,3 c -1.384999,0 -2.5,1.115001 -2.5,2.5 v 2 c 0,1.385 1.115001,2.5 2.5,2.5 1.384999,0 2.5,-1.115 2.5,-2.5 v -2 C 93,99.115001 91.884999,98 90.5,98 Z m 13,0 c -1.385,0 -2.5,1.115001 -2.5,2.5 v 2 c 0,1.385 1.115,2.5 2.5,2.5 1.385,0 2.5,-1.115 2.5,-2.5 v -2 c 0,-1.384999 -1.115,-2.5 -2.5,-2.5 z"/>
         <path id="rect38106" style="opacity:1;fill:#205890;fill-opacity:1;stroke:none;stroke-width:4;stroke-linejoin:round;stroke-dasharray:none;paint-order:markers stroke fill" d="m 97,95 c -0.35107,0 -0.687401,0.06008 -1,0.169922 1.167274,0.41017 2,1.519151 2,2.830078 v 5 c 0,1.31093 -0.832726,2.41991 -2,2.83008 0.312599,0.10984 0.64893,0.16992 1,0.16992 1.661996,0 3,-1.338 3,-3 v -5 c 0,-1.661996 -1.338004,-3 -3,-3 z m -6.5,3 c -0.356141,0 -0.693932,0.07395 -1,0.207031 0.8842,0.384468 1.5,1.264112 1.5,2.292969 v 2 c 0,1.02886 -0.6158,1.9085 -1.5,2.29297 0.306068,0.13308 0.643859,0.20703 1,0.20703 1.384998,0 2.5,-1.115 2.5,-2.5 v -2 C 93,99.115002 91.884998,98 90.5,98 Z m 13,0 c -0.35614,0 -0.69393,0.07395 -1,0.207031 0.8842,0.384468 1.5,1.264112 1.5,2.292969 v 2 c 0,1.02886 -0.6158,1.9085 -1.5,2.29297 0.30607,0.13308 0.64386,0.20703 1,0.20703 1.385,0 2.5,-1.115 2.5,-2.5 v -2 c 0,-1.384998 -1.115,-2.5 -2.5,-2.5 z"/>
         <path id="path41418" style="color:#000000;fill:#044048;fill-opacity:1;stroke-linejoin:round;paint-order:markers stroke fill" d="m 89.5,85 c -1.919748,0 -3.5,1.580252 -3.5,3.5 0,1.919748 1.580252,3.5 3.5,3.5 0.774846,0 0.711505,0.01028 0.996094,0.443359 0.218503,0.332509 0.492227,1.231466 0.501953,2.46875 0.0074,0.940642 0.683244,1.759693 1.605469,1.945313 C 93.042202,96.946095 93.509016,97 94,97 h 2 c 0.387371,-3.9e-5 0.691408,-0.222067 1,-0.417969 0.308592,0.195902 0.612629,0.41793 1,0.417969 h 2 c 0.49098,0 0.95778,-0.05389 1.39648,-0.142578 0.92222,-0.185621 1.59816,-1.004624 1.60547,-1.945313 0.01,-1.237297 0.28346,-2.136244 0.50196,-2.46875 C 103.78849,92.010287 103.72515,92 104.5,92 c 1.91975,0 3.5,-1.580254 3.5,-3.5 0,-1.919746 -1.58025,-3.5 -3.5,-3.5 -2.8606,0 -5.181375,1.382896 -6.570312,3.34375 -0.431257,0.608833 -0.651323,1.317569 -0.929688,2 -0.278365,-0.682431 -0.49843,-1.391167 -0.929688,-2 C 94.681375,86.382896 92.360596,85 89.5,85 Z"/>
         <path id="path40256" style="color:#000000;fill:#044048;fill-opacity:1;stroke-linejoin:round;paint-order:markers stroke fill" d="m 92,81.5 c -0.70661,0 -1.342726,0.307551 -1.767578,0.732463 -0.400542,0.40063 -0.632214,0.910055 -0.701172,1.4375 C 88.027977,84.537934 87,86.160082 87,88 v 9 c 0,2.735397 2.264603,5 5,5 h 10 c 2.7354,0 5,-2.264603 5,-5 v -9 c 0,-1.839918 -1.02798,-3.462066 -2.53125,-4.330078 -0.069,-0.527445 -0.30063,-1.036869 -0.70117,-1.4375 C 103.25515,81.719952 102.64076,81.5 102,81.5 Z"/>
         <path id="rect37122" style="opacity:1;fill:#087074;fill-opacity:1;stroke:none;stroke-width:4;stroke-linejoin:round;stroke-dasharray:none;paint-order:markers stroke fill" d="M 89.755859,91.009766 C 89.286605,91.538865 89,92.233917 89,93 v 4 c 0,1.661998 1.338002,3 3,3 h 10 c 1.662,0 3,-1.338002 3,-3 v -4 c 0,-0.766083 -0.2866,-1.461135 -0.75586,-1.990234 -0.79774,0.04894 -1.21427,0.334032 -1.57617,0.884765 -0.39926,0.607584 -0.65532,1.650886 -0.66602,3.009766 -0.004,0.473328 -0.33869,0.879256 -0.80273,0.972656 C 100.81813,95.95399 100.41751,96 100,96 h -2 -2 -2 c -0.417507,0 -0.818127,-0.04602 -1.199219,-0.123047 -0.464038,-0.0934 -0.799034,-0.499327 -0.802734,-0.972656 -0.01068,-1.358878 -0.266751,-2.402182 -0.666016,-3.009766 -0.361906,-0.550733 -0.778433,-0.835826 -1.576172,-0.884765 z"/>
         <path id="rect37124" style="opacity:1;fill:#188c8c;fill-opacity:1;stroke:none;stroke-width:4;stroke-linejoin:round;stroke-dasharray:none;paint-order:markers stroke fill" d="M 89.001953,90.949219 C 89.001668,90.96634 89,90.982809 89,91 v 4 c 0,1.661998 1.338002,3 3,3 h 10 c 1.662,0 3,-1.338002 3,-3 v -4 c 0,-0.01719 -0.002,-0.03366 -0.002,-0.05078 C 104.8367,90.982568 104.67044,91 104.5,91 c -0.97172,0 -1.43277,0.28695 -1.83203,0.894531 -0.39926,0.607584 -0.65532,1.650886 -0.66602,3.009766 -0.004,0.473328 -0.33869,0.879256 -0.80273,0.972656 C 100.81813,95.95399 100.41751,96 100,96 h -2 -2 -2 c -0.417507,0 -0.818127,-0.04602 -1.199219,-0.123047 -0.464038,-0.0934 -0.799034,-0.499327 -0.802734,-0.972656 -0.01068,-1.358878 -0.266751,-2.402182 -0.666016,-3.009766 C 90.932769,91.28695 90.471713,91 89.5,91 c -0.170444,0 -0.336699,-0.01743 -0.498047,-0.05078 z"/>
         <path id="rect40377" style="opacity:1;fill:#107490;fill-opacity:1;stroke:none;stroke-width:2;stroke-linejoin:round;stroke-dasharray:none;paint-order:markers stroke fill" d="M 95,93.226562 V 95 h 4 V 93.226562 C 98.467354,93.706298 97.765511,94 97,94 96.234489,94 95.532646,93.706298 95,93.226562 Z"/>
         <path id="path40258" style="color:#000000;fill:#107490;stroke-width:2;stroke-linejoin:round;paint-order:markers stroke fill" d="m 91.892578,82.503906 a 1.5,1.5 0 0 0 -0.953125,0.435547 1.5,1.5 0 0 0 0,2.121094 c 0.470804,0.470803 0.891082,0.9434 1.259766,1.445312 0.778854,0.310563 1.470053,0.749812 2.058593,1.28711 0.250008,-0.561226 0.666944,-1.034647 1.1875,-1.353516 -0.66411,-1.386737 -1.482615,-2.581437 -2.333984,-3.447265 a 1.5,1.5 0 0 0 -0.05078,-0.05273 1.5,1.5 0 0 0 -1.167969,-0.435547 z m 10.000002,0 a 1.5,1.5 0 0 0 -0.95313,0.435547 c -0.86998,0.869978 -1.70731,2.086592 -2.384762,3.501953 0.520401,0.319025 0.93742,0.792642 1.1875,1.353516 0.587312,-0.53639 1.275792,-0.976492 2.052732,-1.28711 0.37065,-0.503087 0.79374,-0.975377 1.26563,-1.447265 a 1.5,1.5 0 0 0 0,-2.121094 1.5,1.5 0 0 0 -1.16797,-0.435547 z M 89.5,87 A 1.5,1.5 0 0 0 88,88.5 1.5,1.5 0 0 0 89.5,90 c 2.470828,0 3.474923,1.954684 3.498047,4.896484 C 93.32186,94.961937 93.656328,95 94,95 v -4 -1 -1 c 0,-0.01648 0.0017,-0.03241 0.002,-0.04883 C 92.948948,87.761436 91.462465,87 89.5,87 Z m 7.5,0 c -1.107999,0 -2,0.892001 -2,2 v 2 c 0,1.107999 0.892001,2 2,2 1.107999,0 2,-0.892001 2,-2 v -2 c 0,-1.107999 -0.892001,-2 -2,-2 z m 7.5,0 c -1.96247,0 -3.44895,0.761436 -4.501953,1.951172 C 99.998318,88.967592 100,88.983521 100,89 v 1 1 4 c 0.34367,0 0.67814,-0.03806 1.00195,-0.103516 C 101.02508,91.954684 102.02916,90 104.5,90 A 1.5,1.5 0 0 0 106,88.5 1.5,1.5 0 0 0 104.5,87 Z"/>
         <path id="rect39057" style="opacity:1;fill:#3488a0;fill-opacity:1;stroke:none;stroke-width:4;stroke-linejoin:round;stroke-dasharray:none;paint-order:markers stroke fill" d="m 91.892578,82.503906 a 1.5,1.5 0 0 0 -0.953125,0.435547 1.5,1.5 0 0 0 -0.371094,0.626953 1.5,1.5 0 0 1 0.324219,-0.0625 1.5,1.5 0 0 1 1.167969,0.435547 1.5,1.5 0 0 1 0.05078,0.05273 c 0.851215,0.86567 1.667984,2.060847 2.332031,3.447265 0.250578,-0.406929 0.594404,-0.750354 1.001953,-1 -0.664111,-1.386739 -1.482615,-2.581437 -2.333984,-3.447265 a 1.5,1.5 0 0 0 -0.05078,-0.05273 1.5,1.5 0 0 0 -1.167969,-0.435547 z m 10.000002,0 a 1.5,1.5 0 0 0 -0.95313,0.435547 c -0.23021,0.230209 -0.45833,0.485808 -0.68164,0.761719 a 1.5,1.5 0 0 1 0.63477,-0.197266 1.5,1.5 0 0 1 1.16797,0.435547 1.5,1.5 0 0 1 0,2.121094 c -0.18484,0.184835 -0.35959,0.369837 -0.5293,0.556641 0.0862,-0.03872 0.17518,-0.07399 0.26367,-0.109376 0.37065,-0.503101 0.79373,-0.975366 1.26563,-1.447265 a 1.5,1.5 0 0 0 0,-2.121094 1.5,1.5 0 0 0 -1.16797,-0.435547 z M 89.5,87 A 1.5,1.5 0 0 0 88.068359,88.068359 1.5,1.5 0 0 1 88.5,88 c 2.694656,0 4.491086,1.435297 5.5,3.445312 V 91 90 89 c 0,-0.01648 0.0017,-0.03241 0.002,-0.04883 C 92.948948,87.761436 91.462464,87 89.5,87 Z m 7.5,0 c -0.173125,0 -0.340001,0.02152 -0.5,0.0625 C 97.363995,87.28377 98,88.065127 98,89 v 2 c 0,0.934873 -0.636005,1.71623 -1.5,1.9375 C 96.659999,92.978476 96.826875,93 97,93 c 1.107998,0 2,-0.892002 2,-2 v -2 c 0,-1.107998 -0.892002,-2 -2,-2 z m 7.5,0 c -1.96228,0 -3.44891,0.761628 -4.501953,1.951172 C 99.998318,88.967592 100,88.983521 100,89 v 0.05664 C 100.93356,88.396223 102.09258,88 103.5,88 a 1.5,1.5 0 0 1 1.5,1.5 1.5,1.5 0 0 1 -0.0684,0.431641 A 1.5,1.5 0 0 0 106,88.5 1.5,1.5 0 0 0 104.5,87 Z m -2.71484,4.423828 c -1.05301,0.620024 -1.59373,1.889539 -1.74024,3.574219 0.32781,-0.0032 0.64744,-0.03898 0.95703,-0.101563 0.0112,-1.427238 0.25472,-2.620605 0.78321,-3.472656 z"/>
      </g>
   </g>
</svg>
