<?xml version="1.0" encoding="utf-8"?>
<!-- Generator: Adobe Illustrator 24.1.2, SVG Export Plug-In . SVG Version: 6.00 Build 0)  -->
<svg version="1.1" id="Capa_1" xmlns="http://www.w3.org/2000/svg" xmlns:xlink="http://www.w3.org/1999/xlink" x="0px" y="0px"
	 viewBox="0 0 1 1.8" enable-background="new 0 0 1 1.8" xml:space="preserve">
<g>
	<path id="rect10315" fill="#0A0F32" fill-opacity="0.2" d="M0.1,1.35h0.8C0.956,1.35,1,1.401,1,1.463v0.225
		C1,1.749,0.955,1.8,0.9,1.8H0.1C0.045,1.8,0,1.749,0,1.688V1.463C0,1.401,0.045,1.35,0.1,1.35z"/>
	<rect id="rect1911" fill="#732E42" width="1" height="1.5"/>
	<rect id="rect1913" x="0.1" y="0.8" fill="#DF7C92" width="0.8" height="0.6"/>
	<rect id="rect1915" x="0.1" y="0.1" fill="#FE91A9" width="0.8" height="0.8"/>
	<rect id="rect1917" x="0.1" y="0.85" fill="#FDA7BA" width="0.8" height="0.05"/>
	<rect id="rect1919" x="0.25" y="0.25" fill="#E34F6F" width="0.5" height="0.1"/>
	<rect id="rect1921" x="0.25" y="0.3" fill="#FE6C8C" width="0.5" height="0.4"/>
	<rect id="rect1923" x="0.25" y="1.2" fill="#EAA6B6" width="0.5" height="0.1"/>
	<rect id="rect1925" x="0.25" y="1" fill="#D6516F" width="0.5" height="0.25"/>
	<rect id="rect1927" x="0.25" y="1" fill="#D04967" width="0.5" height="0.05"/>
</g>
</svg>
