<?xml version="1.0" encoding="utf-8"?>
<!-- Generator: Adobe Illustrator 24.1.2, SVG Export Plug-In . SVG Version: 6.00 Build 0)  -->
<svg version="1.1" id="Capa_1" xmlns="http://www.w3.org/2000/svg" xmlns:xlink="http://www.w3.org/1999/xlink" x="0px" y="0px"
	 width="1px" height="1.8px" viewBox="0 0 1 1.8" enable-background="new 0 0 1 1.8" xml:space="preserve">
<g>
	<path id="rect10315" fill="#0A0F32" fill-opacity="0.2" d="M0.1,1.35h0.8C0.956,1.35,1,1.401,1,1.463v0.225
		C1,1.749,0.955,1.8,0.9,1.8H0.1C0.045,1.8,0,1.749,0,1.688V1.463C0,1.401,0.045,1.35,0.1,1.35z"/>
</g>
<g>
	<rect fill="#272367" width="1" height="1.5"/>
	<rect x="0.1" y="0.1" fill="#4B519F" width="0.8" height="0.8"/>
	<rect x="0.1" y="0.85" fill="#324195" width="0.8" height="0.55"/>
	<rect x="0.1" y="0.85" fill="#6C6CB0" width="0.8" height="0.05"/>
	<rect x="0.25" y="1" fill="#30358E" width="0.5" height="0.3"/>
	<rect x="0.25" y="1" fill="#2A2586" width="0.5" height="0.05"/>
	<rect x="0.25" y="1.25" fill="#5B56A3" width="0.5" height="0.05"/>
	<rect x="0.25" y="0.25" fill="#3F4296" width="0.5" height="0.45"/>
	<path fill="#7995CC" d="M0.9,0.1v0.45c-0.199,0-0.306-0.078-0.358-0.162C0.515,0.395,0.485,0.4,0.45,0.4
		c-0.22,0-0.323-0.18-0.347-0.276L0.1,0.112V0.1H0.9z"/>
	<path fill="#B6C7E6" d="M0.2,0.1c0,0,0.05,0.2,0.25,0.2c0.1,0,0.15-0.05,0.15-0.05s0,0.2,0.3,0.2V0.1H0.2z"/>
</g>
</svg>
