<?xml version="1.0" encoding="utf-8"?>
<!-- Generator: Adobe Illustrator 24.1.2, SVG Export Plug-In . SVG Version: 6.00 Build 0)  -->
<svg version="1.1" id="Capa_1" xmlns="http://www.w3.org/2000/svg" xmlns:xlink="http://www.w3.org/1999/xlink" x="0px" y="0px"
	 viewBox="0 0 1 1.7" enable-background="new 0 0 1 1.7" xml:space="preserve">
<g>
	<path id="rect10315" fill="#0A0F32" fill-opacity="0.2" d="M0.1,1.25h0.8C0.956,1.25,1,1.301,1,1.363v0.225
		C1,1.649,0.955,1.7,0.9,1.7H0.1C0.045,1.7,0,1.649,0,1.588V1.363C0,1.301,0.045,1.25,0.1,1.25z"/>
	<path fill="#1A474B" d="M1,0.15v1.1C1,1.333,0.933,1.4,0.85,1.4h-0.7C0.067,1.4,0,1.333,0,1.25v-1.1C0,0.067,0.067,0,0.15,0h0.7
		C0.933,0,1,0.067,1,0.15z"/>
	<path fill="#2B7680" d="M0.9,0.75V1.2c0,0.055-0.045,0.1-0.1,0.1H0.2c-0.055,0-0.1-0.045-0.1-0.1V0.75c0,0.055,0.045,0.1,0.1,0.1
		h0.6C0.855,0.85,0.9,0.805,0.9,0.75z"/>
	<path fill="#00C7C1" d="M0.9,0.2v0.55c0,0.055-0.045,0.1-0.1,0.1H0.2c-0.055,0-0.1-0.045-0.1-0.1V0.2c0-0.055,0.045-0.1,0.1-0.1
		h0.6C0.855,0.1,0.9,0.145,0.9,0.2z"/>
	<rect x="0.2" y="0.9" fill="#245258" width="0.6" height="0.35"/>
	<rect x="0.2" y="1.2" fill="#00938F" width="0.6" height="0.05"/>
	<rect x="0.2" y="0.2" fill="#30919D" width="0.6" height="0.55"/>
	<rect x="0.2" y="0.2" fill="#2B717C" width="0.6" height="0.05"/>
	<polygon fill="#08E5E7" points="0.5,0.616 0.643,0.691 0.616,0.531 0.732,0.418 0.572,0.395 0.5,0.25 0.428,0.395 0.268,0.418 
		0.384,0.531 0.357,0.691 	"/>
	<polygon fill="#007D82" points="0.5,1.11 0.643,1.151 0.616,1.064 0.732,1.002 0.572,0.989 0.5,0.91 0.428,0.989 0.268,1.002 
		0.384,1.064 0.357,1.151 	"/>
</g>
</svg>
