<?xml version="1.0" encoding="utf-8"?>
<!-- Generator: Adobe Illustrator 24.1.2, SVG Export Plug-In . SVG Version: 6.00 Build 0)  -->
<svg version="1.1"
	 id="svg3893" xmlns:cc="http://creativecommons.org/ns#" xmlns:dc="http://purl.org/dc/elements/1.1/" xmlns:inkscape="http://www.inkscape.org/namespaces/inkscape" xmlns:rdf="http://www.w3.org/1999/02/22-rdf-syntax-ns#" xmlns:sodipodi="http://sodipodi.sourceforge.net/DTD/sodipodi-0.dtd" xmlns:svg="http://www.w3.org/2000/svg"
	 xmlns="http://www.w3.org/2000/svg" xmlns:xlink="http://www.w3.org/1999/xlink" x="0px" y="0px" viewBox="0 0 1 2"
	 enable-background="new 0 0 1 2" xml:space="preserve">
<g id="layer1" transform="translate(-90.600892,-147.54302)" inkscape:groupmode="layer" inkscape:label="Layer 1">
	<g id="g2521" transform="matrix(0.05,0,0,0.05,82.795684,151.98802)">
		<ellipse id="path6763-8-9-1-6-6" fill-opacity="0.18" cx="165.104" cy="-58.9" rx="9" ry="9"/>
		<rect id="rect2461" x="164.104" y="-64.9" fill="#283448" width="2" height="7"/>
		<path id="path2491" fill="#034349" d="M165.104-88.9c-4.947,0-9,4.053-9,9c0,2.473,0.892,5.181,2.357,7.513
			c0.948,1.508,2.231,2.876,3.805,3.701c-0.727,0.748-1.163,1.755-1.163,2.785c0,0.292,0.019,0.633,0.207,1.075
			c0.188,0.44,0.659,0.963,1.177,1.185c1.039,0.445,1.559,0.116,1.873,0.012c0.412-0.137,0.657-0.208,0.743-0.243
			c0.084,0.035,0.329,0.105,0.743,0.243c0.315,0.104,0.833,0.433,1.873-0.012c0.52-0.223,0.989-0.745,1.177-1.185
			c0.188-0.44,0.207-0.783,0.207-1.075c0-1.031-0.436-2.037-1.163-2.785c1.573-0.825,2.857-2.193,3.805-3.701
			c1.465-2.332,2.357-5.04,2.357-7.513C174.104-84.847,170.051-88.9,165.104-88.9z"/>
		<path id="path2451" sodipodi:nodetypes="sssss" fill="#00ABB7" d="M172.104-79.9c0,3.865-3.135,10-7,10c-3.865,0-7-6.135-7-10
			c0-3.867,3.133-7,7-7C168.971-86.9,172.104-83.765,172.104-79.9z"/>
		<path id="path2459" sodipodi:nodetypes="zzzzz" fill="#0A8287" d="M165.104-67.9c-1.223,0-2,1-2,2s1,0,2,0c1,0,2,1,2,0
			S166.327-67.9,165.104-67.9z"/>
		<path id="path2478" fill="#18B4BE" d="M165.104-86.9c-3.867,0-7,3.135-7,7c0,0.329,0.031,0.679,0.075,1.035
			c0.472-3.408,3.388-6.035,6.925-6.035c3.537,0,6.455,2.627,6.925,6.035c0.044-0.356,0.075-0.707,0.075-1.035
			C172.104-83.765,168.971-86.9,165.104-86.9z"/>
		<path id="path2481" fill="#0A8287" d="M159.137-83.547c-0.651,1.063-1.033,2.308-1.033,3.647c0,3.865,3.133,10,7,10
			c3.272,0,6.012-4.391,6.779-8.084c-1.261,2.719-3.379,5.084-5.779,5.084c-3.867,0-7-6.135-7-10
			C159.104-83.119,159.117-83.333,159.137-83.547z"/>
		<circle id="circle2453" fill="#B4BCEC" cx="167.104" cy="-82.9" r="2"/>
	</g>
</g>
</svg>
