<?xml version="1.0" encoding="utf-8"?>
<!-- Generator: Adobe Illustrator 24.1.2, SVG Export Plug-In . SVG Version: 6.00 Build 0)  -->
<svg version="1.1"
	 id="svg5" xmlns:inkscape="http://www.inkscape.org/namespaces/inkscape" xmlns:sodipodi="http://sodipodi.sourceforge.net/DTD/sodipodi-0.dtd" xmlns:svg="http://www.w3.org/2000/svg"
	 xmlns="http://www.w3.org/2000/svg" xmlns:xlink="http://www.w3.org/1999/xlink" x="0px" y="0px" viewBox="0 0 1 1.8"
	 enable-background="new 0 0 1 1.8" xml:space="preserve">
<g>
	<path id="rect10315_1_" fill="#0A0F32" fill-opacity="0.2" d="M0.1,1.35h0.8C0.955,1.35,1,1.401,1,1.463v0.225
		C1,1.749,0.955,1.8,0.9,1.8H0.1C0.045,1.8,0,1.749,0,1.688V1.463C0,1.401,0.045,1.35,0.1,1.35z"/>
	<path fill="#232949" d="M0.75,1.5h-0.5C0.112,1.5,0,1.388,0,1.25v-0.9C0,0.213,0.112,0.1,0.25,0.1h0.5C0.887,0.1,1,0.213,1,0.35
		v0.9C1,1.388,0.887,1.5,0.75,1.5z"/>
	<path fill="#787E9F" d="M0.9,0.735v0.5C0.9,1.326,0.826,1.4,0.735,1.4h-0.47C0.174,1.4,0.1,1.326,0.1,1.235v-0.5
		C0.1,0.826,0.174,0.9,0.265,0.9h0.47C0.826,0.9,0.9,0.826,0.9,0.735z"/>
	<path fill="#C2CAF2" d="M0.9,0.365v0.37c0,0.065-0.037,0.121-0.092,0.148C0.786,0.894,0.761,0.9,0.735,0.9h-0.47
		C0.174,0.9,0.1,0.826,0.1,0.735v-0.37c0-0.026,0.006-0.051,0.017-0.073C0.144,0.237,0.2,0.2,0.265,0.2h0.47
		C0.826,0.2,0.9,0.274,0.9,0.365z"/>
	<path fill="#B5C1F3" d="M0.825,0.374V0.81c0,0.026-0.006,0.051-0.017,0.073C0.786,0.894,0.761,0.9,0.735,0.9h-0.47
		C0.174,0.9,0.1,0.826,0.1,0.735v-0.37c0-0.026,0.006-0.051,0.017-0.073C0.139,0.281,0.164,0.275,0.19,0.275h0.536
		C0.781,0.275,0.825,0.319,0.825,0.374z"/>
	<circle fill="#121A35" cx="0.3" cy="0.4" r="0.087"/>
	<circle fill="#121A35" cx="0.5" cy="0.55" r="0.087"/>
	<circle fill="#121A35" cx="0.7" cy="0.7" r="0.087"/>
	<circle fill="#121A35" cx="0.3" cy="1.013" r="0.087"/>
	<circle fill="#121A35" cx="0.5" cy="1.163" r="0.087"/>
	<circle fill="#121A35" cx="0.3" cy="1.288" r="0.087"/>
	<circle fill="#121A35" cx="0.7" cy="1.013" r="0.087"/>
	<circle fill="#121A35" cx="0.7" cy="1.288" r="0.087"/>
</g>
</svg>
