<?xml version="1.0" encoding="utf-8"?>
<!-- Generator: Adobe Illustrator 24.1.2, SVG Export Plug-In . SVG Version: 6.00 Build 0)  -->
<svg version="1.1" id="Capa_1" xmlns="http://www.w3.org/2000/svg" xmlns:xlink="http://www.w3.org/1999/xlink" x="0px" y="0px"
	 width="1px" height="1.9px" viewBox="0 0 1 1.9" enable-background="new 0 0 1 1.9" xml:space="preserve">
<circle id="circle16099" fill="#0A0F32" fill-opacity="0.2" cx="0.5" cy="1.4" r="0.5"/>
<g>
	<g>
		<path fill="#004336" d="M0.85,0.7c0,0.083-0.112,0.15-0.25,0.15S0.35,0.783,0.35,0.7c0-0.023,0.008-0.044,0.023-0.063
			C0.389,0.616,0.4,0.592,0.4,0.566V0.561c0-0.112,0.089-0.211,0.2-0.211c0.111,0.001,0.2,0.099,0.2,0.211v0.005
			c0,0.026,0.011,0.05,0.027,0.071C0.842,0.656,0.85,0.677,0.85,0.7z"/>
		<path fill="#108E6B" d="M0.8,0.7c0,0.036-0.051,0.076-0.127,0.092C0.651,0.798,0.626,0.8,0.6,0.8c-0.114,0-0.2-0.053-0.2-0.1
			c0-0.011,0.004-0.021,0.013-0.033C0.438,0.635,0.45,0.601,0.45,0.566V0.561c0-0.08,0.058-0.149,0.13-0.16
			C0.587,0.401,0.593,0.4,0.6,0.4c0.011,0,0.02,0.001,0.03,0.004h0.001C0.657,0.41,0.68,0.423,0.699,0.442
			c0.03,0.028,0.049,0.068,0.05,0.112C0.75,0.557,0.75,0.559,0.75,0.561v0.005c0,0.035,0.012,0.068,0.037,0.101
			c0.001,0.001,0.001,0.001,0.001,0.001C0.796,0.679,0.8,0.689,0.8,0.7z"/>
		<path fill="#16AB7B" d="M0.8,0.7c0,0.036-0.051,0.076-0.127,0.092C0.573,0.773,0.5,0.717,0.5,0.65
			c0-0.023,0.008-0.044,0.023-0.063C0.539,0.566,0.55,0.542,0.55,0.516V0.511c0-0.039,0.011-0.077,0.03-0.11
			C0.587,0.401,0.593,0.4,0.6,0.4c0.011,0,0.02,0.001,0.03,0.004h0.001C0.657,0.41,0.68,0.423,0.699,0.442
			c0.03,0.028,0.049,0.068,0.05,0.112C0.75,0.557,0.75,0.559,0.75,0.561v0.005c0,0.035,0.012,0.068,0.037,0.101
			c0.001,0.001,0.001,0.001,0.001,0.001C0.796,0.679,0.8,0.689,0.8,0.7z"/>
		<path fill="#9EDFCB" d="M0.7,0.45c0,0.027-0.023,0.05-0.05,0.05C0.623,0.5,0.6,0.477,0.6,0.45c0-0.021,0.012-0.039,0.03-0.046
			h0.001C0.657,0.41,0.68,0.423,0.699,0.442C0.7,0.445,0.7,0.447,0.7,0.45z"/>
	</g>
	<path fill="#002B62" d="M1,0.4v0.8c0,0-0.001,0.003-0.002,0.008C0.996,1.213,0.995,1.219,0.992,1.226c0,0.001,0,0.001-0.001,0.001
		C0.961,1.317,0.836,1.6,0.5,1.6S0.039,1.317,0.008,1.227c0-0.001,0-0.001,0-0.001C0.005,1.219,0.004,1.213,0.002,1.208
		C0.001,1.203,0,1.2,0,1.2V0.4c0.4,0,0.5,0.4,0.5,0.4S0.6,0.4,1,0.4z"/>
	<path fill="#0D75AE" d="M1,0.85v0.33C0.97,1.26,0.92,1.34,0.85,1.39C0.76,1.45,0.65,1.5,0.5,1.5S0.24,1.45,0.15,1.39
		c0-0.01-0.01-0.01-0.01-0.01C0.07,1.32,0.03,1.25,0,1.18V0.85H1z"/>
	<path fill="#1AACD1" d="M1,0.5v0.3c-0.336,0-0.46,0.282-0.492,0.373c-0.002,0-0.005,0-0.008,0c-0.003,0-0.006,0-0.008,0
		C0.46,1.082,0.336,0.8,0,0.8V0.5c0.161,0,0.273,0.057,0.349,0.124C0.464,0.724,0.5,0.85,0.5,0.85s0.036-0.126,0.151-0.226
		C0.727,0.557,0.839,0.5,1,0.5z"/>
	<path fill="#0A90BE" d="M1,0.75V0.9c-0.003,0-0.006,0-0.008,0.001C0.96,0.991,0.836,1.273,0.5,1.273S0.04,0.991,0.008,0.901
		C0.006,0.9,0.003,0.9,0,0.9V0.75c0.336,0,0.46,0.282,0.492,0.373c0.002,0,0.005,0,0.008,0c0.003,0,0.006,0,0.008,0
		C0.54,1.032,0.664,0.75,1,0.75z"/>
	
		<linearGradient id="SVGID_1_" gradientUnits="userSpaceOnUse" x1="0.068" y1="2.25" x2="0.068" y2="1.7745" gradientTransform="matrix(1 0 0 -1 0 3.15)">
		<stop  offset="0" style="stop-color:#0D75AE;stop-opacity:0"/>
		<stop  offset="0.7" style="stop-color:#02376F;stop-opacity:0.3"/>
		<stop  offset="1" style="stop-color:#002B62;stop-opacity:0.5"/>
	</linearGradient>
	<path fill="url(#SVGID_1_)" d="M0.136,1.376C0.074,1.324,0.028,1.254,0.001,1.178C0,1.177,0,1.177,0,1.177V0.9
		C0,0.9,0,1.134,0.136,1.376z"/>
	
		<linearGradient id="SVGID_2_" gradientUnits="userSpaceOnUse" x1="0.9315" y1="2.25" x2="0.9315" y2="1.7735" gradientTransform="matrix(1 0 0 -1 0 3.15)">
		<stop  offset="0" style="stop-color:#0D75AE;stop-opacity:0"/>
		<stop  offset="0.7" style="stop-color:#02376F;stop-opacity:0.3"/>
		<stop  offset="1" style="stop-color:#002B62;stop-opacity:0.5"/>
	</linearGradient>
	<path fill="url(#SVGID_2_)" d="M1,0.9v0.277c0,0.001,0,0.001-0.001,0.001C0.973,1.251,0.93,1.317,0.872,1.369
		C0.87,1.371,0.867,1.374,0.864,1.376c0,0,0,0-0.001,0C1,1.135,1,0.9,1,0.9z"/>
	
		<linearGradient id="SVGID_3_" gradientUnits="userSpaceOnUse" x1="0.5755" y1="2.526" x2="0.5755" y2="2.25" gradientTransform="matrix(1 0 0 -1 0 3.15)">
		<stop  offset="0" style="stop-color:#0D75AE;stop-opacity:0"/>
		<stop  offset="0.7" style="stop-color:#02376F;stop-opacity:0.3"/>
		<stop  offset="1" style="stop-color:#002B62;stop-opacity:0.5"/>
	</linearGradient>
	<path fill="url(#SVGID_3_)" d="M0.651,0.624C0.539,0.758,0.5,0.9,0.5,0.9V0.85C0.5,0.85,0.536,0.724,0.651,0.624z"/>
	
		<linearGradient id="SVGID_4_" gradientUnits="userSpaceOnUse" x1="0.4245" y1="2.526" x2="0.4245" y2="2.25" gradientTransform="matrix(1 0 0 -1 0 3.15)">
		<stop  offset="0" style="stop-color:#0D75AE;stop-opacity:0"/>
		<stop  offset="0.7" style="stop-color:#02376F;stop-opacity:0.3"/>
		<stop  offset="1" style="stop-color:#002B62;stop-opacity:0.5"/>
	</linearGradient>
	<path fill="url(#SVGID_4_)" d="M0.5,0.85V0.9c0,0-0.039-0.142-0.151-0.276C0.464,0.724,0.5,0.85,0.5,0.85z"/>
	<g>
		<circle opacity="0.5" fill="#056173" enable-background="new    " cx="0.2" cy="0.95" r="0.15"/>
		<circle fill="#004336" cx="0.2" cy="0.9" r="0.15"/>
		<path fill="#159383" d="M0.3,0.9c0,0.014-0.003,0.029-0.009,0.041C0.276,0.976,0.24,1,0.2,1C0.145,1,0.1,0.955,0.1,0.9
			c0-0.04,0.024-0.076,0.059-0.091C0.171,0.803,0.186,0.8,0.2,0.8C0.255,0.8,0.3,0.845,0.3,0.9z"/>
		<path fill="#1AB19E" d="M0.3,0.9c0,0.014-0.003,0.029-0.009,0.041C0.279,0.947,0.264,0.95,0.25,0.95c-0.055,0-0.1-0.045-0.1-0.1
			c0-0.015,0.003-0.029,0.009-0.041C0.171,0.803,0.186,0.8,0.2,0.8C0.255,0.8,0.3,0.845,0.3,0.9z"/>
	</g>
	<g>
		<circle opacity="0.5" fill="#056173" enable-background="new    " cx="0.825" cy="0.825" r="0.175"/>
		<circle fill="#004336" cx="0.825" cy="0.775" r="0.175"/>
		<path fill="#159383" d="M0.95,0.775c0,0.021-0.005,0.042-0.015,0.06l0,0C0.914,0.874,0.872,0.9,0.825,0.9
			C0.756,0.9,0.7,0.844,0.7,0.775c0-0.047,0.026-0.089,0.065-0.11l0.001-0.001c0.017-0.01,0.038-0.015,0.06-0.015
			C0.894,0.65,0.95,0.706,0.95,0.775z"/>
		<path fill="#1AB19E" d="M0.95,0.775c0,0.021-0.005,0.042-0.015,0.06l0,0C0.917,0.845,0.896,0.85,0.875,0.85
			c-0.069,0-0.125-0.056-0.125-0.125c0-0.021,0.005-0.042,0.015-0.06l0.001-0.001c0.017-0.01,0.038-0.015,0.06-0.015
			C0.894,0.65,0.95,0.706,0.95,0.775z"/>
	</g>
	<g>
		<path fill="#004336" d="M0.65,1.4c0,0.083-0.112,0.15-0.25,0.15S0.15,1.483,0.15,1.4c0-0.023,0.008-0.044,0.023-0.063
			C0.189,1.316,0.2,1.292,0.2,1.266V1.261c0-0.112,0.089-0.211,0.2-0.211c0.111,0.001,0.2,0.099,0.2,0.211v0.005
			c0,0.026,0.011,0.05,0.027,0.071C0.642,1.356,0.65,1.377,0.65,1.4z"/>
		<path fill="#108E6B" d="M0.6,1.4c0,0.036-0.051,0.076-0.127,0.092C0.451,1.498,0.426,1.5,0.4,1.5c-0.114,0-0.2-0.053-0.2-0.1
			c0-0.011,0.004-0.021,0.013-0.033C0.237,1.335,0.25,1.301,0.25,1.266V1.261c0-0.08,0.058-0.149,0.13-0.16
			C0.387,1.101,0.393,1.1,0.4,1.1c0.011,0,0.02,0.001,0.03,0.004h0.001C0.457,1.11,0.48,1.123,0.499,1.142
			c0.03,0.028,0.049,0.068,0.05,0.112C0.55,1.257,0.55,1.259,0.55,1.261v0.005c0,0.035,0.012,0.068,0.037,0.101
			c0.001,0.001,0.001,0.001,0.001,0.001C0.596,1.379,0.6,1.389,0.6,1.4z"/>
		<path fill="#16AB7B" d="M0.6,1.4c0,0.036-0.051,0.076-0.127,0.092C0.373,1.473,0.3,1.417,0.3,1.35
			c0-0.023,0.008-0.044,0.023-0.063C0.339,1.266,0.35,1.242,0.35,1.216V1.211c0-0.039,0.011-0.077,0.03-0.11
			C0.387,1.101,0.393,1.1,0.4,1.1c0.011,0,0.02,0.001,0.03,0.004h0.001C0.457,1.11,0.48,1.123,0.499,1.142
			c0.03,0.028,0.049,0.068,0.05,0.112C0.55,1.257,0.55,1.259,0.55,1.261v0.005c0,0.035,0.012,0.068,0.037,0.101
			c0.001,0.001,0.001,0.001,0.001,0.001C0.596,1.379,0.6,1.389,0.6,1.4z"/>
		<path fill="#9EDFCB" d="M0.5,1.15c0,0.027-0.023,0.05-0.05,0.05C0.423,1.2,0.4,1.177,0.4,1.15c0-0.021,0.012-0.039,0.03-0.046
			h0.001C0.457,1.11,0.48,1.123,0.499,1.142C0.5,1.145,0.5,1.147,0.5,1.15z"/>
		<path fill="#63C8BD" d="M0.587,1.367C0.574,1.387,0.551,1.4,0.525,1.4C0.483,1.4,0.45,1.366,0.45,1.325
			c0-0.042,0.033-0.075,0.075-0.075c0.008,0,0.017,0.001,0.024,0.004C0.55,1.257,0.55,1.259,0.55,1.261v0.005
			C0.55,1.301,0.563,1.335,0.587,1.367z"/>
	</g>
</g>
</svg>
