<?xml version="1.0" encoding="utf-8"?>
<!-- Generator: Adobe Illustrator 24.1.2, SVG Export Plug-In . SVG Version: 6.00 Build 0)  -->
<svg version="1.1" id="Capa_1" xmlns="http://www.w3.org/2000/svg" xmlns:xlink="http://www.w3.org/1999/xlink" x="0px" y="0px"
	 width="1.1px" height="1.95px" viewBox="0 0 1.1 1.95" enable-background="new 0 0 1.1 1.95" xml:space="preserve">
<g>
	<g>
		
			<radialGradient id="SVGID_1_" cx="0.5523" cy="2.6448" r="0.2514" gradientTransform="matrix(1 0 0 -1 0 3.15)" gradientUnits="userSpaceOnUse">
			<stop  offset="0" style="stop-color:#002B62;stop-opacity:0.36"/>
			<stop  offset="0.64" style="stop-color:#002B62;stop-opacity:0.36"/>
			<stop  offset="1" style="stop-color:#002B62;stop-opacity:0"/>
		</radialGradient>
		<path fill="url(#SVGID_1_)" d="M0.8,0.499c0,0.002,0,0.004-0.001,0.006c0-0.001-0.001-0.002-0.002-0.003
			C0.734,0.438,0.646,0.399,0.55,0.399c-0.098,0-0.186,0.04-0.249,0.106C0.3,0.503,0.3,0.501,0.3,0.499
			c0-0.138,0.112-0.25,0.25-0.25S0.8,0.361,0.8,0.499z"/>
		<path fill="#002B62" d="M0.55,1.95L0.55,1.95C0.357,1.95,0.2,1.793,0.2,1.6V0.75c0-0.192,0.157-0.35,0.35-0.35l0,0
			c0.192,0,0.35,0.157,0.35,0.35V1.6C0.9,1.793,0.743,1.95,0.55,1.95z"/>
		<path fill="#66BBEE" d="M0.8,0.7v0.15c0-0.137-0.113-0.25-0.25-0.25S0.3,0.713,0.3,0.85V0.7c0-0.137,0.112-0.25,0.25-0.25
			S0.8,0.563,0.8,0.7z"/>
		<path fill="#197AB7" d="M0.8,0.85V1.7c0,0.069-0.028,0.132-0.073,0.177C0.682,1.922,0.619,1.95,0.55,1.95
			C0.412,1.95,0.3,1.838,0.3,1.7V0.85c0-0.137,0.112-0.25,0.25-0.25S0.8,0.713,0.8,0.85z"/>
		<path fill="#0A8FBF" d="M0.65,0.62V1.4h-0.2V0.62C0.48,0.607,0.514,0.6,0.55,0.6S0.62,0.607,0.65,0.62z"/>
		<g>
			<circle opacity="0.5" fill="#056173" enable-background="new    " cx="0.425" cy="0.575" r="0.175"/>
			<circle fill="#004336" cx="0.425" cy="0.525" r="0.175"/>
			<path fill="#159383" d="M0.55,0.525c0,0.021-0.005,0.042-0.015,0.06l0,0C0.514,0.624,0.472,0.65,0.425,0.65
				C0.356,0.65,0.3,0.594,0.3,0.525c0-0.047,0.026-0.089,0.065-0.11l0.001-0.001c0.017-0.01,0.038-0.015,0.06-0.015
				C0.494,0.4,0.55,0.456,0.55,0.525z"/>
			<path fill="#1AB19E" d="M0.55,0.525c0,0.021-0.005,0.042-0.015,0.06l0,0C0.517,0.595,0.496,0.6,0.475,0.6
				C0.406,0.6,0.35,0.544,0.35,0.475c0-0.021,0.005-0.042,0.015-0.06l0.001-0.001c0.017-0.01,0.038-0.015,0.06-0.015
				C0.494,0.4,0.55,0.456,0.55,0.525z"/>
		</g>
		<g>
			<circle opacity="0.5" fill="#056173" enable-background="new    " cx="0.65" cy="1.05" r="0.15"/>
			<circle fill="#004336" cx="0.65" cy="1" r="0.15"/>
			<path fill="#159383" d="M0.75,1c0,0.014-0.003,0.029-0.009,0.041C0.726,1.076,0.69,1.1,0.65,1.1c-0.055,0-0.1-0.045-0.1-0.1
				c0-0.04,0.024-0.076,0.059-0.091C0.621,0.903,0.636,0.9,0.65,0.9C0.705,0.9,0.75,0.945,0.75,1z"/>
			<path fill="#1AB19E" d="M0.75,1c0,0.014-0.003,0.029-0.009,0.041C0.729,1.047,0.714,1.05,0.7,1.05c-0.055,0-0.1-0.045-0.1-0.1
				c0-0.015,0.003-0.029,0.009-0.041C0.621,0.903,0.636,0.9,0.65,0.9C0.705,0.9,0.75,0.945,0.75,1z"/>
		</g>
		<g>
			<path opacity="0.5" fill="#056173" enable-background="new    " d="M0.2,1.1v0.255c0.011,0.017,0.024,0.03,0.035,0.04
				s0.026,0.017,0.04,0.021c0.037,0.009,0.076-0.003,0.101-0.033c0.035-0.041,0.03-0.104-0.009-0.138
				c-0.002-0.002-0.039-0.04-0.019-0.121c0.014-0.053-0.019-0.108-0.073-0.121C0.254,0.998,0.232,0.999,0.213,1.008
				C0.205,1.038,0.2,1.068,0.2,1.1z"/>
			<path fill="#0D4768" d="M0.154,1.026c-0.04,0.162,0.032,0.276,0.081,0.318c0.011,0.01,0.026,0.017,0.041,0.021
				c0.037,0.009,0.075-0.003,0.1-0.032c0.036-0.041,0.031-0.104-0.009-0.139c-0.002-0.001-0.039-0.04-0.019-0.12
				c0.013-0.053-0.019-0.108-0.073-0.121C0.222,0.94,0.168,0.972,0.154,1.026z"/>
			<path fill="#4DADC5" d="M0.203,1.038C0.16,1.212,0.263,1.302,0.267,1.306C0.273,1.312,0.28,1.315,0.288,1.317
				c0.018,0.004,0.037-0.001,0.05-0.016c0.018-0.021,0.016-0.052-0.005-0.07C0.33,1.228,0.272,1.173,0.3,1.062
				c0.007-0.027-0.01-0.054-0.036-0.061C0.238,0.994,0.21,1.011,0.203,1.038z"/>
			<path fill="#004336" d="M0.45,1.1c0,0.035-0.018,0.068-0.05,0.094C0.359,1.229,0.296,1.25,0.225,1.25S0.091,1.229,0.05,1.194
				C0.018,1.168,0,1.135,0,1.1c0-0.018,0.005-0.036,0.014-0.052C0.036,1.01,0.05,0.968,0.05,0.925C0.05,0.801,0.129,0.7,0.225,0.7
				c0.048,0,0.092,0.025,0.123,0.066C0.38,0.807,0.4,0.863,0.4,0.925c0,0.043,0.014,0.085,0.036,0.123
				C0.445,1.064,0.45,1.082,0.45,1.1z"/>
			<path fill="#108E6B" d="M0.4,1.1c0,0.026-0.02,0.045-0.032,0.055C0.349,1.171,0.324,1.183,0.296,1.19
				C0.274,1.197,0.249,1.2,0.225,1.2c-0.057,0-0.11-0.017-0.143-0.045C0.07,1.145,0.05,1.126,0.05,1.1
				c0-0.01,0.002-0.019,0.008-0.028C0.086,1.021,0.1,0.973,0.1,0.925C0.1,0.83,0.157,0.75,0.225,0.75c0.002,0,0.003,0,0.005,0.001
				c0.066,0.003,0.12,0.082,0.12,0.174c0,0.01,0.001,0.02,0.002,0.03c0.005,0.036,0.017,0.071,0.037,0.109
				c0,0.003,0.002,0.006,0.003,0.008C0.398,1.081,0.4,1.09,0.4,1.1z"/>
			<path fill="#16AB7B" d="M0.4,1.1c0,0.026-0.02,0.045-0.032,0.055C0.349,1.171,0.324,1.183,0.296,1.19
				C0.258,1.181,0.225,1.165,0.2,1.144C0.168,1.118,0.15,1.085,0.15,1.05c0-0.018,0.005-0.036,0.014-0.052
				C0.186,0.96,0.2,0.918,0.2,0.875c0-0.046,0.011-0.089,0.03-0.124c0.066,0.003,0.12,0.082,0.12,0.174
				c0,0.048,0.014,0.096,0.042,0.147C0.398,1.081,0.4,1.09,0.4,1.1z"/>
			<circle fill="#9EDFCB" cx="0.25" cy="0.85" r="0.05"/>
			<path fill="#63C8BD" d="M0.389,1.064C0.376,1.086,0.352,1.1,0.325,1.1C0.283,1.1,0.25,1.066,0.25,1.025
				c0-0.042,0.033-0.075,0.075-0.075c0.01,0,0.018,0.002,0.027,0.005C0.357,0.991,0.368,1.027,0.389,1.064z"/>
		</g>
	</g>
	<g>
		<g>
			<circle opacity="0.5" fill="#056173" enable-background="new    " cx="0.375" cy="1.675" r="0.175"/>
			<circle fill="#004336" cx="0.375" cy="1.625" r="0.175"/>
			<path fill="#159383" d="M0.5,1.625c0,0.021-0.005,0.042-0.015,0.06v0C0.464,1.724,0.422,1.75,0.375,1.75
				c-0.069,0-0.125-0.056-0.125-0.125c0-0.047,0.026-0.089,0.065-0.11l0.001-0.001c0.017-0.01,0.038-0.015,0.06-0.015
				C0.444,1.5,0.5,1.556,0.5,1.625z"/>
			<path fill="#1AB19E" d="M0.5,1.625c0,0.021-0.005,0.042-0.015,0.06v0C0.467,1.695,0.446,1.7,0.425,1.7
				C0.356,1.7,0.3,1.644,0.3,1.575c0-0.021,0.005-0.042,0.015-0.06l0.001-0.001c0.017-0.01,0.038-0.015,0.06-0.015
				C0.444,1.5,0.5,1.556,0.5,1.625z"/>
		</g>
		<g>
			<path opacity="0.5" fill="#056173" enable-background="new    " d="M0.9,1.5v0.255c-0.011,0.017-0.024,0.03-0.035,0.04
				c-0.011,0.01-0.026,0.017-0.04,0.021C0.788,1.824,0.749,1.812,0.724,1.783c-0.035-0.041-0.03-0.104,0.009-0.138
				c0.002-0.002,0.039-0.04,0.019-0.121C0.738,1.471,0.771,1.416,0.824,1.403c0.021-0.005,0.043-0.004,0.063,0.005
				C0.895,1.437,0.9,1.468,0.9,1.5z"/>
			<path fill="#0D4768" d="M0.946,1.426c0.041,0.162-0.031,0.276-0.081,0.319c-0.011,0.01-0.026,0.017-0.041,0.021
				c-0.037,0.009-0.075-0.003-0.1-0.032c-0.036-0.042-0.031-0.105,0.009-0.14c0.002-0.001,0.039-0.04,0.019-0.12
				C0.738,1.421,0.771,1.366,0.824,1.353C0.878,1.34,0.932,1.372,0.946,1.426z"/>
			<path fill="#4DADC5" d="M0.897,1.438c0.043,0.174-0.06,0.264-0.064,0.268C0.826,1.712,0.819,1.715,0.812,1.717
				c-0.018,0.004-0.037-0.001-0.05-0.016C0.744,1.68,0.747,1.649,0.767,1.631C0.77,1.628,0.828,1.573,0.8,1.462
				C0.793,1.435,0.81,1.408,0.836,1.401C0.863,1.395,0.89,1.411,0.897,1.438z"/>
			<path fill="#004336" d="M1.05,1.525c0,0.069-0.089,0.125-0.2,0.125s-0.2-0.056-0.2-0.125c0-0.016,0.005-0.031,0.014-0.045
				C0.685,1.445,0.7,1.408,0.7,1.367v-0.01c0-0.065,0.038-0.126,0.098-0.148C0.816,1.203,0.833,1.2,0.85,1.2
				c0.041,0,0.079,0.017,0.106,0.044C0.983,1.271,1,1.309,1,1.35v0.017c0,0.04,0.015,0.078,0.036,0.113
				C1.045,1.494,1.05,1.509,1.05,1.525z"/>
			<path fill="#108E6B" d="M1,1.525c0,0.007-0.002,0.013-0.007,0.02C0.982,1.563,0.957,1.579,0.923,1.59c-0.001,0-0.001,0-0.001,0
				C0.901,1.596,0.876,1.6,0.85,1.6C0.764,1.6,0.7,1.56,0.7,1.525c0-0.006,0.002-0.012,0.006-0.019
				C0.736,1.458,0.75,1.413,0.75,1.367v-0.01c0-0.046,0.027-0.087,0.065-0.101C0.827,1.252,0.839,1.25,0.85,1.25
				c0.004,0,0.007,0,0.01,0.001c0.007,0,0.013,0.002,0.019,0.004C0.886,1.257,0.893,1.26,0.9,1.264
				c0.008,0.004,0.014,0.01,0.02,0.015c0.012,0.012,0.021,0.026,0.025,0.042C0.948,1.33,0.95,1.34,0.95,1.35v0.017
				c0,0.011,0.001,0.021,0.002,0.033v0.001c0.005,0.029,0.015,0.057,0.03,0.087C0.986,1.493,0.99,1.5,0.994,1.506
				C0.998,1.513,1,1.519,1,1.525z"/>
			<path fill="#16AB7B" d="M1,1.525c0,0.007-0.002,0.013-0.007,0.02C0.982,1.563,0.957,1.579,0.923,1.59c-0.001,0-0.001,0-0.001,0
				C0.85,1.571,0.8,1.526,0.8,1.475c0-0.016,0.005-0.031,0.014-0.045C0.835,1.395,0.85,1.358,0.85,1.317v-0.01
				c0-0.02,0.004-0.039,0.01-0.056c0.007,0,0.013,0.002,0.019,0.004C0.886,1.257,0.893,1.26,0.9,1.264
				c0.008,0.004,0.014,0.01,0.02,0.015c0.012,0.012,0.021,0.026,0.025,0.042C0.948,1.33,0.95,1.34,0.95,1.35v0.017
				c0,0.011,0.001,0.021,0.002,0.033v0.001c0.005,0.029,0.015,0.057,0.03,0.087C0.986,1.493,0.99,1.5,0.994,1.506
				C0.998,1.513,1,1.519,1,1.525z"/>
			<path fill="#63C8BD" d="M0.945,1.321C0.938,1.338,0.92,1.35,0.9,1.35c-0.027,0-0.05-0.023-0.05-0.05
				c0-0.02,0.012-0.037,0.029-0.046C0.886,1.257,0.893,1.26,0.9,1.264c0.008,0.004,0.014,0.01,0.02,0.015
				C0.933,1.291,0.941,1.305,0.945,1.321z"/>
			<path fill="#63C8BD" d="M0.983,1.488C0.974,1.495,0.962,1.5,0.95,1.5C0.923,1.5,0.9,1.477,0.9,1.45S0.923,1.4,0.95,1.4h0.002
				v0.001C0.957,1.429,0.967,1.457,0.983,1.488z"/>
		</g>
	</g>
</g>
</svg>
