<?xml version="1.0" encoding="utf-8"?>
<!-- Generator: Adobe Illustrator 24.1.2, SVG Export Plug-In . SVG Version: 6.00 Build 0)  -->
<svg version="1.1" id="Capa_1" xmlns="http://www.w3.org/2000/svg" xmlns:xlink="http://www.w3.org/1999/xlink" x="0px" y="0px"
	 width="1px" height="2.05px" viewBox="0 0 1 2.05" enable-background="new 0 0 1 2.05" xml:space="preserve">
<circle id="circle16099" fill="#0A0F32" fill-opacity="0.2" cx="0.5" cy="1.55" r="0.5"/>
<g>
	
		<radialGradient id="SVGID_1_" cx="0.4023" cy="3.1938" r="0.2514" gradientTransform="matrix(-1 0 0 -1 0.9 3.45)" gradientUnits="userSpaceOnUse">
		<stop  offset="0" style="stop-color:#002B62;stop-opacity:0.36"/>
		<stop  offset="0.64" style="stop-color:#002B62;stop-opacity:0.36"/>
		<stop  offset="1" style="stop-color:#002B62;stop-opacity:0"/>
	</radialGradient>
	<path fill="url(#SVGID_1_)" d="M0.5,0c0.138,0,0.25,0.112,0.25,0.25c0,0.002,0,0.004-0.001,0.006C0.686,0.19,0.598,0.15,0.5,0.15
		c-0.096,0-0.184,0.039-0.247,0.103C0.252,0.254,0.251,0.255,0.251,0.256C0.25,0.254,0.25,0.252,0.25,0.25C0.25,0.112,0.362,0,0.5,0
		z"/>
	<g>
		<path fill="#002B62" d="M0.15,1.35V0.5c0-0.193,0.158-0.35,0.35-0.35l0,0c0.193,0,0.35,0.157,0.35,0.35l0,0.85
			c0,0.193-0.157,0.35-0.35,0.35l0,0C0.307,1.7,0.15,1.543,0.15,1.35z"/>
		<path fill="#66BBEE" d="M0.5,0.2c0.137,0,0.25,0.112,0.25,0.25V0.6c0-0.137-0.113-0.25-0.25-0.25S0.25,0.463,0.25,0.6V0.45
			C0.25,0.312,0.363,0.2,0.5,0.2z"/>
		<path fill="#197AB7" d="M0.5,0.35c0.137,0,0.25,0.113,0.25,0.25v0.85c0,0.138-0.112,0.25-0.25,0.25
			c-0.069,0-0.132-0.028-0.177-0.073C0.278,1.582,0.25,1.519,0.25,1.45V0.6C0.25,0.463,0.363,0.35,0.5,0.35z"/>
		<path fill="#0A8FBF" d="M0.5,0.35c0.036,0,0.07,0.007,0.1,0.02l0,0.78H0.4V0.37C0.43,0.357,0.464,0.35,0.5,0.35z"/>
		<g>
			<path opacity="0.5" fill="#056173" enable-background="new    " d="M0.375,0.3c0.038,0,0.073,0.012,0.102,0.033
				C0.521,0.365,0.55,0.416,0.55,0.475v0.002c0,0,0,0.001-0.001,0.001C0.53,0.532,0.502,0.582,0.464,0.625
				C0.439,0.641,0.408,0.65,0.375,0.65c-0.071,0-0.132-0.043-0.16-0.104C0.205,0.524,0.2,0.501,0.2,0.475
				C0.2,0.379,0.279,0.3,0.375,0.3z"/>
			<circle fill="#004336" cx="0.375" cy="0.425" r="0.175"/>
			<path fill="#159383" d="M0.374,0.299c0.022,0,0.043,0.005,0.06,0.015l0.001,0.001C0.474,0.336,0.5,0.378,0.5,0.425
				c0,0.069-0.056,0.125-0.125,0.125c-0.047,0-0.089-0.026-0.11-0.065l0,0C0.255,0.467,0.25,0.446,0.25,0.425
				C0.25,0.356,0.306,0.3,0.374,0.299z"/>
			<path fill="#1AB19E" d="M0.374,0.299c0.022,0,0.043,0.005,0.06,0.015l0.001,0.001c0.01,0.018,0.015,0.039,0.015,0.06
				C0.45,0.444,0.394,0.5,0.325,0.5c-0.021,0-0.042-0.005-0.06-0.015l0,0C0.255,0.467,0.25,0.446,0.25,0.425
				C0.25,0.356,0.306,0.3,0.374,0.299z"/>
		</g>
	</g>
	
		<radialGradient id="SVGID_2_" cx="0.4023" cy="2.4562" r="0.2514" gradientTransform="matrix(-1 0 0 1 0.9 -1.65)" gradientUnits="userSpaceOnUse">
		<stop  offset="0" style="stop-color:#002B62;stop-opacity:0.36"/>
		<stop  offset="0.64" style="stop-color:#002B62;stop-opacity:0.36"/>
		<stop  offset="1" style="stop-color:#002B62;stop-opacity:0"/>
	</radialGradient>
	<path fill="url(#SVGID_2_)" d="M0.5,0.55c0.138,0,0.25,0.112,0.25,0.25c0,0.002,0,0.004-0.001,0.006C0.686,0.74,0.598,0.7,0.5,0.7
		c-0.096,0-0.184,0.039-0.247,0.103C0.252,0.804,0.251,0.805,0.251,0.806C0.25,0.804,0.25,0.802,0.25,0.8
		C0.25,0.662,0.362,0.55,0.5,0.55z"/>
	<g>
		<path fill="#002B62" d="M0.539,0.85C0.554,0.82,0.573,0.785,0.6,0.751c0.027-0.036,0.06-0.072,0.1-0.103
			c0.015-0.012,0.032-0.023,0.05-0.033c0.03-0.018,0.063-0.033,0.1-0.044C0.895,0.557,0.945,0.55,1,0.55v0.8
			c0,0-0.001,0.003-0.002,0.008C0.996,1.363,0.995,1.369,0.992,1.376c0,0,0,0,0,0.001C0.976,1.424,0.934,1.523,0.85,1.607
			C0.836,1.623,0.82,1.636,0.802,1.65C0.729,1.707,0.63,1.75,0.5,1.75c0,0-0.139,0-0.241-0.1c-0.022-0.021-0.042-0.048-0.06-0.079
			C0.196,1.564,0.192,1.557,0.189,1.55C0.165,1.498,0.15,1.432,0.15,1.35V1.239C0.15,1.024,0.324,0.85,0.539,0.85z"/>
		<path fill="#0D75AE" d="M0.58,0.85C0.586,0.842,0.592,0.833,0.6,0.825c0.027-0.031,0.059-0.062,0.1-0.09
			c0.015-0.01,0.032-0.02,0.05-0.028c0.008-0.005,0.015-0.008,0.023-0.012C0.779,0.692,0.785,0.69,0.791,0.687
			C0.795,0.686,0.8,0.684,0.805,0.682c0.015-0.006,0.03-0.01,0.045-0.014C0.895,0.657,0.945,0.65,1,0.65v0.677c0,0,0,0-0.001,0.001
			C0.973,1.401,0.93,1.467,0.872,1.519C0.868,1.523,0.864,1.526,0.859,1.53C0.856,1.532,0.853,1.535,0.85,1.537
			C0.841,1.544,0.832,1.55,0.822,1.557C0.82,1.559,0.817,1.561,0.814,1.563c-0.002,0-0.003,0.001-0.005,0.002
			C0.8,1.571,0.79,1.577,0.781,1.582c-0.001,0-0.001,0.001-0.003,0.001c-0.009,0.005-0.019,0.011-0.03,0.015
			C0.746,1.599,0.744,1.601,0.742,1.601c0,0.001-0.002,0.001-0.002,0.001C0.738,1.604,0.736,1.604,0.733,1.605
			C0.724,1.61,0.714,1.613,0.705,1.616C0.701,1.618,0.696,1.62,0.692,1.621C0.687,1.623,0.683,1.624,0.678,1.625
			c-0.01,0.003-0.02,0.006-0.03,0.008C0.645,1.634,0.64,1.635,0.636,1.636c-0.001,0-0.003,0-0.005,0.001
			C0.623,1.638,0.615,1.64,0.606,1.641C0.602,1.642,0.597,1.642,0.592,1.643C0.563,1.648,0.533,1.65,0.5,1.65
			c0,0-0.005,0-0.014-0.001c-0.003,0-0.005-0.001-0.007-0.001H0.477C0.348,1.635,0.25,1.523,0.25,1.393V0.85H0.58z"/>
		<path fill="#0D75AE" d="M0.275,1.373c0.017,0.009,0.036,0.016,0.056,0.023c0.01,0.003,0.02,0.007,0.03,0.009
			C0.372,1.408,0.383,1.41,0.394,1.413c0.01,0.001,0.021,0.003,0.031,0.005c0.001,0,0.003,0,0.005,0.001
			C0.436,1.42,0.443,1.42,0.451,1.421c0.006,0,0.012,0.001,0.018,0.001c0.01,0.001,0.02,0.001,0.031,0.001
			c0.02,0,0.038-0.001,0.055-0.003c0.036-0.004,0.07-0.01,0.1-0.02c0.003-0.002,0.007-0.003,0.01-0.004
			C0.67,1.395,0.674,1.393,0.679,1.391C0.686,1.389,0.693,1.386,0.7,1.383c0.008-0.003,0.015-0.006,0.022-0.01
			C0.737,1.366,0.75,1.358,0.764,1.35C0.77,1.346,0.777,1.342,0.782,1.337C0.795,1.328,0.807,1.32,0.818,1.31
			C0.83,1.3,0.84,1.29,0.85,1.28c0.011-0.01,0.021-0.021,0.03-0.032c0.018-0.021,0.034-0.043,0.047-0.064
			C0.962,1.13,0.981,1.08,0.992,1.051C0.994,1.05,0.997,1.05,1,1.05v0.277c0,0,0,0.001-0.001,0.001
			C0.98,1.382,0.952,1.432,0.914,1.475C0.902,1.49,0.888,1.505,0.872,1.519C0.868,1.523,0.864,1.526,0.859,1.53
			C0.856,1.532,0.853,1.535,0.85,1.538c-0.002,0-0.002,0.001-0.004,0.002C0.839,1.546,0.83,1.552,0.822,1.557
			C0.82,1.559,0.817,1.561,0.814,1.563c-0.002,0-0.003,0.001-0.005,0.002C0.8,1.571,0.79,1.577,0.781,1.582
			c-0.001,0-0.001,0.001-0.003,0.001c-0.009,0.005-0.019,0.011-0.03,0.015C0.746,1.599,0.744,1.601,0.742,1.601
			c0,0.001-0.002,0.001-0.002,0.001c-0.011,0.005-0.023,0.01-0.035,0.014C0.701,1.618,0.696,1.62,0.692,1.621
			C0.687,1.623,0.683,1.623,0.678,1.625c-0.01,0.003-0.02,0.006-0.03,0.008C0.645,1.634,0.64,1.635,0.636,1.636
			c-0.001,0-0.003,0-0.005,0.001C0.623,1.638,0.615,1.64,0.606,1.641C0.602,1.642,0.597,1.642,0.592,1.643
			C0.563,1.648,0.533,1.65,0.5,1.65c0,0-0.005,0-0.014-0.001c-0.003,0-0.005-0.001-0.007-0.001H0.477
			C0.348,1.635,0.25,1.523,0.25,1.393V1.358C0.258,1.363,0.267,1.368,0.275,1.373z"/>
		<path fill="#1AACD1" d="M0.58,0.85C0.586,0.842,0.592,0.833,0.6,0.825c0.027-0.031,0.059-0.062,0.1-0.09
			c0.015-0.01,0.032-0.02,0.05-0.028c0.008-0.005,0.015-0.008,0.023-0.012c0.01-0.005,0.021-0.009,0.032-0.013
			c0.015-0.006,0.03-0.01,0.045-0.014C0.895,0.657,0.945,0.65,1,0.65v0.3c-0.336,0-0.46,0.282-0.492,0.373c-0.002,0-0.005,0-0.008,0
			c-0.036,0-0.069-0.003-0.1-0.008V0.85H0.58z"/>
		<path fill="#0A90BE" d="M0.58,0.85C0.586,0.842,0.592,0.833,0.6,0.826v0.273C0.676,0.999,0.8,0.9,1,0.9v0.15
			c-0.003,0-0.006,0-0.008,0.001C0.964,1.132,0.861,1.365,0.6,1.414C0.569,1.42,0.536,1.423,0.5,1.423c0,0,0,0-0.001,0
			C0.444,1.423,0.4,1.376,0.4,1.321V0.85H0.58z"/>
		
			<linearGradient id="SVGID_3_" gradientUnits="userSpaceOnUse" x1="-0.032" y1="2.7" x2="-0.032" y2="3.1755" gradientTransform="matrix(-1 0 0 1 0.9 -1.65)">
			<stop  offset="0" style="stop-color:#0D75AE;stop-opacity:0"/>
			<stop  offset="0.7" style="stop-color:#02376F;stop-opacity:0.3"/>
			<stop  offset="1" style="stop-color:#002B62;stop-opacity:0.5"/>
		</linearGradient>
		<path fill="url(#SVGID_3_)" d="M1,1.05v0.277c0,0,0,0-0.001,0.001C0.972,1.404,0.926,1.474,0.864,1.526C1,1.284,1,1.05,1,1.05z"/>
		<g>
			<path opacity="0.5" fill="#056173" enable-background="new    " d="M0.825,1.15c0.038,0,0.073,0.012,0.102,0.033
				C0.971,1.215,1,1.266,1,1.325v0.002c0,0,0,0.001-0.001,0.001C0.98,1.382,0.952,1.432,0.914,1.475
				C0.889,1.491,0.858,1.5,0.825,1.5c-0.071,0-0.132-0.043-0.16-0.104C0.655,1.374,0.65,1.351,0.65,1.325
				C0.65,1.229,0.729,1.15,0.825,1.15z"/>
			<circle fill="#004336" cx="0.825" cy="1.275" r="0.175"/>
			<path fill="#159383" d="M0.825,1.15c0.021,0,0.042,0.005,0.059,0.014l0.001,0.001C0.924,1.186,0.95,1.228,0.95,1.275
				C0.95,1.344,0.894,1.4,0.825,1.4c-0.047,0-0.089-0.026-0.11-0.065l0,0C0.705,1.317,0.7,1.296,0.7,1.275
				C0.7,1.206,0.756,1.15,0.825,1.15z"/>
			<path fill="#1AB19E" d="M0.825,1.15c0.021,0,0.042,0.005,0.059,0.014l0.001,0.001C0.895,1.183,0.9,1.204,0.9,1.225
				c0,0.069-0.056,0.125-0.125,0.125c-0.021,0-0.042-0.005-0.06-0.015l0,0C0.705,1.317,0.7,1.296,0.7,1.275
				C0.7,1.206,0.756,1.15,0.825,1.15z"/>
		</g>
		<g>
			<g>
				<path opacity="0.5" fill="#056173" enable-background="new    " d="M0.45,1.094c0.053,0.013,0.086,0.068,0.073,0.121
					c-0.02,0.08,0.017,0.119,0.019,0.12C0.581,1.37,0.586,1.433,0.55,1.474c-0.025,0.029-0.063,0.041-0.1,0.032
					C0.435,1.502,0.421,1.495,0.409,1.485C0.36,1.443,0.288,1.329,0.329,1.167C0.342,1.113,0.397,1.081,0.45,1.094z"/>
				<path fill="#0D4768" d="M0.45,1.044c0.053,0.013,0.086,0.068,0.073,0.121c-0.02,0.08,0.017,0.119,0.019,0.12
					C0.581,1.32,0.586,1.383,0.55,1.424c-0.025,0.029-0.063,0.041-0.1,0.032C0.435,1.452,0.421,1.445,0.409,1.435
					C0.36,1.393,0.288,1.279,0.329,1.117C0.342,1.063,0.397,1.031,0.45,1.044z"/>
				<path fill="#4DADC5" d="M0.438,1.092c0.026,0.007,0.043,0.034,0.036,0.061c-0.028,0.111,0.03,0.166,0.033,0.169
					C0.528,1.34,0.53,1.371,0.512,1.392C0.5,1.407,0.48,1.412,0.462,1.408C0.455,1.406,0.448,1.403,0.441,1.397
					C0.437,1.393,0.334,1.303,0.377,1.129C0.384,1.102,0.411,1.086,0.438,1.092z"/>
				<path fill="#4DADC5" d="M0.438,1.092c0.026,0.007,0.043,0.034,0.036,0.061c-0.028,0.111,0.03,0.166,0.033,0.169
					C0.528,1.34,0.53,1.371,0.512,1.392C0.5,1.407,0.48,1.412,0.462,1.408C0.455,1.406,0.448,1.403,0.441,1.397
					C0.437,1.393,0.334,1.303,0.377,1.129C0.384,1.102,0.411,1.086,0.438,1.092z"/>
			</g>
			<g>
				<path fill="#004336" d="M0.138,0.993C0.179,0.951,0.2,0.893,0.2,0.835v-0.01c0-0.062,0.025-0.118,0.066-0.159
					S0.363,0.6,0.425,0.6c0.005,0,0.011,0,0.017,0C0.561,0.609,0.65,0.715,0.65,0.835c0,0.058,0.021,0.116,0.062,0.158
					C0.736,1.017,0.75,1.045,0.75,1.075c0,0.096-0.145,0.175-0.325,0.175S0.1,1.171,0.1,1.075C0.1,1.045,0.114,1.017,0.138,0.993z"
					/>
				<path fill="#108E6B" d="M0.173,1.028C0.222,0.979,0.25,0.908,0.25,0.835v-0.01c0-0.046,0.018-0.09,0.052-0.124
					C0.335,0.668,0.379,0.65,0.425,0.65c0.005,0,0.008,0,0.013,0.001c0.008,0,0.016,0.002,0.023,0.003
					C0.541,0.671,0.6,0.746,0.6,0.835c0,0.073,0.028,0.144,0.077,0.193C0.692,1.044,0.7,1.06,0.7,1.075
					C0.7,1.134,0.583,1.2,0.425,1.2c-0.026,0-0.051-0.002-0.073-0.005C0.233,1.179,0.15,1.124,0.15,1.075
					C0.15,1.06,0.158,1.044,0.173,1.028z"/>
				<path fill="#16AB7B" d="M0.173,1.028c0.01-0.01,0.019-0.021,0.027-0.033c0.015-0.021,0.027-0.046,0.036-0.072
					C0.245,0.895,0.25,0.865,0.25,0.835v-0.01c0-0.046,0.018-0.09,0.052-0.124C0.335,0.668,0.379,0.65,0.425,0.65
					c0.005,0,0.008,0,0.013,0.001c0.008,0,0.016,0.002,0.023,0.003C0.486,0.692,0.5,0.737,0.5,0.785
					c0,0.058,0.021,0.116,0.062,0.158C0.586,0.967,0.6,0.995,0.6,1.025c0,0.082-0.106,0.151-0.248,0.17
					C0.233,1.179,0.15,1.124,0.15,1.075C0.15,1.06,0.158,1.044,0.173,1.028z"/>
				<circle fill="#9EDFCB" cx="0.375" cy="0.775" r="0.075"/>
				<path fill="#63C8BD" d="M0.236,0.923C0.253,0.909,0.276,0.9,0.3,0.9c0.055,0,0.1,0.045,0.1,0.1S0.355,1.1,0.3,1.1
					S0.2,1.055,0.2,1V0.995C0.215,0.974,0.227,0.949,0.236,0.923z"/>
			</g>
		</g>
	</g>
</g>
</svg>
