<?xml version="1.0" encoding="utf-8"?>
<!-- Generator: Adobe Illustrator 24.1.2, SVG Export Plug-In . SVG Version: 6.00 Build 0)  -->
<svg version="1.1" id="Capa_1" xmlns="http://www.w3.org/2000/svg" xmlns:xlink="http://www.w3.org/1999/xlink" x="0px" y="0px"
	 width="1px" height="2.05px" viewBox="0 0 1 2.05" enable-background="new 0 0 1 2.05" xml:space="preserve">
<circle id="circle16099" fill="#0A0F32" fill-opacity="0.2" cx="0.5" cy="1.55" r="0.5"/>
<radialGradient id="SVGID_1_" cx="-1.5977" cy="-0.0438" r="0.2514" gradientTransform="matrix(-1 0 0 1 -1.1 0.3)" gradientUnits="userSpaceOnUse">
	<stop  offset="0" style="stop-color:#002B62;stop-opacity:0.36"/>
	<stop  offset="0.64" style="stop-color:#002B62;stop-opacity:0.36"/>
	<stop  offset="1" style="stop-color:#002B62;stop-opacity:0"/>
</radialGradient>
<path fill="url(#SVGID_1_)" d="M0.5,0c0.138,0,0.25,0.112,0.25,0.25c0,0.002,0,0.004-0.001,0.006C0.686,0.19,0.598,0.15,0.5,0.15
	c-0.096,0-0.184,0.039-0.247,0.103C0.252,0.254,0.251,0.255,0.251,0.256C0.25,0.254,0.25,0.252,0.25,0.25C0.25,0.112,0.362,0,0.5,0z
	"/>
<g>
	<path fill="#002B62" d="M0.85,0.5v0.85c0,0.192-0.158,0.35-0.35,0.35S0.15,1.542,0.15,1.35V0.5c0-0.095,0.039-0.182,0.101-0.244
		C0.314,0.19,0.402,0.15,0.5,0.15c0.096,0,0.184,0.039,0.247,0.103c0.001,0.001,0.002,0.002,0.002,0.003
		C0.811,0.318,0.85,0.405,0.85,0.5z"/>
	<path fill="#66BBEE" d="M0.75,0.45V0.6c0-0.137-0.113-0.25-0.25-0.25S0.25,0.463,0.25,0.6V0.45c0-0.138,0.113-0.25,0.25-0.25
		S0.75,0.312,0.75,0.45z"/>
	<path fill="#197AB7" d="M0.75,0.6v0.85c0,0.069-0.028,0.132-0.073,0.177C0.632,1.672,0.569,1.7,0.5,1.7
		c-0.138,0-0.25-0.112-0.25-0.25V0.6c0-0.137,0.113-0.25,0.25-0.25S0.75,0.463,0.75,0.6z"/>
	<path fill="#0A8FBF" d="M0.6,0.37v0.78H0.4V0.37c0.03-0.013,0.064-0.02,0.1-0.02S0.57,0.357,0.6,0.37z"/>
	<g>
		<circle opacity="0.5" fill="#056173" enable-background="new    " cx="0.375" cy="0.575" r="0.175"/>
		<circle fill="#004336" cx="0.375" cy="0.525" r="0.175"/>
		<path fill="#159383" d="M0.5,0.525c0,0.021-0.005,0.042-0.015,0.06l0,0C0.464,0.624,0.422,0.65,0.375,0.65
			c-0.069,0-0.125-0.056-0.125-0.125c0-0.047,0.026-0.089,0.065-0.11l0.001-0.001c0.017-0.01,0.038-0.015,0.06-0.015
			C0.444,0.4,0.5,0.456,0.5,0.525z"/>
		<path fill="#1AB19E" d="M0.5,0.525c0,0.021-0.005,0.042-0.015,0.06l0,0C0.467,0.595,0.446,0.6,0.425,0.6
			C0.356,0.6,0.3,0.544,0.3,0.475c0-0.021,0.005-0.042,0.015-0.06l0.001-0.001c0.017-0.01,0.038-0.015,0.06-0.015
			C0.444,0.4,0.5,0.456,0.5,0.525z"/>
	</g>
	<g>
		<path fill="#004336" d="M0.95,1.5c0,0.064-0.044,0.123-0.116,0.167C0.82,1.676,0.802,1.676,0.787,1.668l0,0
			c-0.021-0.01-0.047-0.003-0.06,0.016L0.712,1.707c-0.007,0.01-0.017,0.018-0.029,0.021C0.627,1.742,0.565,1.75,0.5,1.75
			c-0.248,0-0.45-0.112-0.45-0.25c0-0.037,0.014-0.073,0.041-0.104c0.041-0.05,0.059-0.115,0.059-0.18V1.063
			c0-0.172,0.118-0.327,0.287-0.358C0.458,0.702,0.48,0.7,0.5,0.7c0.096,0,0.184,0.039,0.247,0.103
			C0.811,0.866,0.85,0.954,0.85,1.05v0.166c0,0.065,0.018,0.13,0.059,0.18C0.936,1.427,0.95,1.463,0.95,1.5z"/>
		<path fill="#108E6B" d="M0.875,1.5c0,0.023-0.013,0.047-0.036,0.07C0.824,1.585,0.801,1.588,0.782,1.578l0,0
			C0.749,1.562,0.71,1.573,0.69,1.603L0.664,1.641C0.657,1.652,0.646,1.66,0.633,1.662C0.592,1.671,0.548,1.675,0.5,1.675
			c-0.214,0-0.375-0.093-0.375-0.175c0-0.018,0.008-0.038,0.023-0.057c0.004-0.004,0.007-0.008,0.01-0.012
			C0.2,1.376,0.223,1.304,0.224,1.226c0.001-0.003,0.001-0.007,0.001-0.01V1.063c0-0.139,0.097-0.261,0.226-0.284
			C0.467,0.776,0.483,0.775,0.5,0.775c0.016,0,0.032,0.001,0.048,0.004c0.055,0.01,0.107,0.037,0.146,0.077
			C0.745,0.907,0.775,0.978,0.775,1.05v0.166c0,0.042,0.007,0.083,0.018,0.12c0.003,0.009,0.006,0.017,0.01,0.026
			c0.002,0.007,0.005,0.013,0.008,0.02c0.001,0.002,0.003,0.005,0.004,0.007c0.004,0.006,0.007,0.012,0.01,0.018
			C0.826,1.408,0.827,1.41,0.829,1.412c0.004,0.007,0.009,0.013,0.014,0.019c0.003,0.004,0.006,0.008,0.01,0.012
			C0.867,1.463,0.875,1.482,0.875,1.5z"/>
		<path fill="#16AB7B" d="M0.875,1.5c0,0.023-0.013,0.047-0.036,0.07C0.824,1.585,0.801,1.588,0.782,1.578l0,0
			C0.749,1.562,0.71,1.573,0.69,1.603L0.671,1.63C0.511,1.591,0.4,1.502,0.4,1.4c0-0.037,0.014-0.073,0.041-0.104
			C0.482,1.246,0.5,1.181,0.5,1.116V0.963c0-0.065,0.017-0.129,0.048-0.184c0.055,0.01,0.107,0.037,0.146,0.077
			C0.745,0.907,0.775,0.978,0.775,1.05v0.166c0,0.042,0.007,0.083,0.018,0.12c0.002,0.009,0.006,0.017,0.01,0.026
			c0.002,0.007,0.005,0.014,0.008,0.02c0.001,0.002,0.003,0.005,0.004,0.007c0.003,0.006,0.007,0.012,0.01,0.018
			C0.826,1.408,0.827,1.41,0.829,1.412c0.004,0.007,0.008,0.013,0.014,0.019c0.003,0.004,0.006,0.008,0.01,0.012
			C0.867,1.463,0.875,1.482,0.875,1.5z"/>
		<circle fill="#9EDFCB" cx="0.6" cy="1" r="0.1"/>
		<path fill="#63C8BD" d="M0.842,1.431C0.831,1.455,0.813,1.474,0.789,1.485c-0.063,0.03-0.142-0.007-0.177-0.082
			c-0.035-0.075-0.014-0.16,0.049-0.189C0.698,1.197,0.74,1.202,0.776,1.226C0.777,1.304,0.8,1.376,0.842,1.431z"/>
		<path fill="#3B928D" d="M0.388,1.404C0.352,1.478,0.273,1.515,0.211,1.485c-0.024-0.011-0.042-0.03-0.053-0.054
			C0.2,1.376,0.223,1.304,0.224,1.226C0.26,1.202,0.302,1.197,0.339,1.214C0.402,1.243,0.423,1.329,0.388,1.404z"/>
	</g>
	<g>
		<path opacity="0.5" fill="#056173" enable-background="new    " d="M0.85,0.45v0.255c-0.011,0.017-0.024,0.03-0.035,0.04
			c-0.011,0.01-0.026,0.017-0.04,0.021C0.738,0.774,0.699,0.763,0.674,0.733c-0.035-0.041-0.03-0.104,0.009-0.138
			c0.002-0.002,0.039-0.04,0.019-0.121C0.688,0.421,0.721,0.366,0.774,0.353c0.021-0.005,0.043-0.004,0.063,0.005
			C0.845,0.387,0.85,0.418,0.85,0.45z"/>
		<path fill="#0D4768" d="M0.896,0.376c0.041,0.162-0.031,0.276-0.081,0.319c-0.011,0.01-0.026,0.017-0.041,0.021
			c-0.037,0.009-0.075-0.003-0.1-0.032c-0.036-0.042-0.031-0.105,0.009-0.14c0.002-0.001,0.039-0.04,0.019-0.12
			C0.688,0.371,0.721,0.316,0.774,0.303C0.828,0.29,0.882,0.322,0.896,0.376z"/>
		<path fill="#4DADC5" d="M0.847,0.388c0.043,0.174-0.06,0.264-0.064,0.268C0.776,0.662,0.769,0.665,0.762,0.667
			c-0.018,0.004-0.037-0.001-0.05-0.016C0.694,0.63,0.697,0.599,0.717,0.581C0.72,0.578,0.778,0.523,0.75,0.412
			C0.743,0.385,0.76,0.358,0.786,0.351C0.813,0.345,0.84,0.361,0.847,0.388z"/>
		<path fill="#004336" d="M1,0.475C1,0.544,0.911,0.6,0.8,0.6S0.6,0.544,0.6,0.475c0-0.016,0.005-0.031,0.014-0.045
			C0.635,0.395,0.65,0.358,0.65,0.317v-0.01c0-0.065,0.038-0.126,0.098-0.148C0.766,0.153,0.783,0.15,0.8,0.15
			c0.041,0,0.079,0.017,0.106,0.044S0.95,0.259,0.95,0.3v0.017c0,0.04,0.015,0.078,0.036,0.112C0.995,0.444,1,0.459,1,0.475z"/>
		<path fill="#108E6B" d="M0.95,0.475c0,0.007-0.002,0.013-0.007,0.02C0.932,0.513,0.907,0.529,0.873,0.54c-0.001,0-0.001,0-0.001,0
			C0.851,0.546,0.826,0.55,0.8,0.55c-0.086,0-0.15-0.04-0.15-0.075c0-0.006,0.002-0.012,0.006-0.019
			C0.686,0.408,0.7,0.363,0.7,0.317v-0.01c0-0.046,0.027-0.087,0.065-0.101C0.777,0.202,0.789,0.2,0.8,0.2
			c0.004,0,0.007,0,0.01,0.001c0.007,0,0.013,0.002,0.019,0.004C0.836,0.207,0.843,0.21,0.85,0.214
			c0.008,0.004,0.014,0.01,0.02,0.015c0.012,0.012,0.021,0.026,0.025,0.042C0.898,0.28,0.9,0.29,0.9,0.3v0.017
			c0,0.011,0.001,0.021,0.002,0.033v0.001c0.005,0.029,0.015,0.057,0.03,0.087C0.936,0.443,0.94,0.45,0.944,0.456
			C0.948,0.463,0.95,0.469,0.95,0.475z"/>
		<path fill="#16AB7B" d="M0.95,0.475c0,0.007-0.002,0.013-0.007,0.02C0.932,0.513,0.907,0.529,0.873,0.54c-0.001,0-0.001,0-0.001,0
			C0.8,0.521,0.75,0.476,0.75,0.425c0-0.016,0.005-0.031,0.014-0.045C0.785,0.345,0.8,0.308,0.8,0.267v-0.01
			c0-0.02,0.004-0.039,0.01-0.056c0.007,0,0.013,0.002,0.019,0.004C0.836,0.207,0.843,0.21,0.85,0.214
			c0.008,0.004,0.014,0.01,0.02,0.015c0.012,0.012,0.021,0.026,0.025,0.042C0.898,0.28,0.9,0.29,0.9,0.3v0.017
			c0,0.011,0.001,0.021,0.002,0.033v0.001c0.005,0.029,0.015,0.057,0.03,0.087C0.936,0.443,0.94,0.45,0.944,0.456
			C0.948,0.463,0.95,0.469,0.95,0.475z"/>
		<path fill="#63C8BD" d="M0.895,0.271C0.887,0.288,0.87,0.3,0.85,0.3C0.823,0.3,0.8,0.277,0.8,0.25c0-0.02,0.012-0.038,0.029-0.046
			C0.836,0.207,0.843,0.21,0.85,0.214c0.008,0.004,0.014,0.01,0.02,0.015C0.883,0.241,0.891,0.255,0.895,0.271z"/>
		<path fill="#63C8BD" d="M0.933,0.437C0.924,0.445,0.913,0.45,0.9,0.45c-0.027,0-0.05-0.023-0.05-0.05S0.873,0.35,0.9,0.35h0.002
			v0.001C0.907,0.379,0.917,0.407,0.933,0.437z"/>
	</g>
</g>
</svg>
