<?xml version="1.0" encoding="utf-8"?>
<!-- Generator: Adobe Illustrator 24.1.2, SVG Export Plug-In . SVG Version: 6.00 Build 0)  -->
<svg version="1.1" id="Capa_1" xmlns="http://www.w3.org/2000/svg" xmlns:xlink="http://www.w3.org/1999/xlink" x="0px" y="0px"
	 width="1.1px" height="1.95px" viewBox="0 0 1.1 1.95" enable-background="new 0 0 1.1 1.95" xml:space="preserve">
<g>
	<g>
		<path fill="#002B62" d="M0.9,1.339V1.45c0,0.082-0.015,0.148-0.039,0.2c-0.003,0.007-0.007,0.014-0.01,0.021
			C0.833,1.702,0.813,1.729,0.791,1.75c-0.102,0.1-0.241,0.1-0.241,0.1c-0.13,0-0.229-0.043-0.302-0.1
			C0.23,1.736,0.214,1.723,0.2,1.707c-0.084-0.084-0.126-0.183-0.142-0.23c0-0.001,0-0.001,0-0.001
			C0.055,1.469,0.054,1.463,0.052,1.458C0.051,1.453,0.05,1.45,0.05,1.45v-0.8c0.055,0,0.105,0.007,0.15,0.021
			c0.037,0.011,0.07,0.026,0.1,0.044c0.018,0.01,0.035,0.021,0.05,0.033c0.04,0.031,0.073,0.067,0.1,0.103
			C0.477,0.885,0.496,0.92,0.511,0.95C0.726,0.95,0.9,1.124,0.9,1.339z"/>
		<path fill="#0D75AE" d="M0.8,0.95v0.543c0,0.13-0.098,0.242-0.227,0.255H0.571c-0.002,0-0.004,0.001-0.007,0.001
			C0.555,1.75,0.55,1.75,0.55,1.75c-0.033,0-0.063-0.002-0.092-0.007c-0.005-0.001-0.01-0.001-0.014-0.002
			C0.435,1.74,0.427,1.738,0.419,1.737C0.417,1.736,0.415,1.736,0.414,1.736C0.41,1.735,0.405,1.734,0.402,1.733
			c-0.01-0.002-0.02-0.005-0.03-0.008C0.367,1.724,0.363,1.723,0.358,1.721C0.354,1.72,0.349,1.718,0.345,1.716
			C0.336,1.713,0.326,1.71,0.317,1.705C0.314,1.704,0.313,1.704,0.31,1.702c0,0-0.002,0-0.002-0.001
			c-0.002,0-0.004-0.002-0.006-0.003c-0.011-0.004-0.021-0.01-0.03-0.015c-0.002,0-0.002-0.001-0.003-0.001
			C0.26,1.677,0.25,1.671,0.241,1.665C0.239,1.664,0.238,1.663,0.236,1.663C0.233,1.661,0.23,1.659,0.228,1.657
			C0.218,1.651,0.209,1.645,0.2,1.638C0.197,1.635,0.194,1.632,0.191,1.63C0.186,1.626,0.182,1.623,0.178,1.619
			C0.12,1.567,0.077,1.501,0.051,1.428C0.05,1.427,0.05,1.427,0.05,1.427V0.75c0.055,0,0.105,0.007,0.15,0.018
			c0.015,0.004,0.03,0.008,0.045,0.014c0.005,0.002,0.01,0.004,0.014,0.005C0.265,0.79,0.271,0.792,0.277,0.795
			C0.285,0.799,0.292,0.802,0.3,0.807c0.018,0.008,0.035,0.018,0.05,0.029c0.041,0.028,0.073,0.059,0.1,0.09
			C0.458,0.933,0.464,0.942,0.47,0.95H0.8z"/>
		<path fill="#0D75AE" d="M0.8,1.458v0.035c0,0.13-0.098,0.242-0.227,0.255H0.571c-0.002,0-0.004,0.001-0.007,0.001
			C0.555,1.75,0.55,1.75,0.55,1.75c-0.033,0-0.063-0.002-0.092-0.007c-0.005-0.001-0.01-0.001-0.014-0.002
			C0.435,1.74,0.427,1.738,0.419,1.737C0.417,1.736,0.415,1.736,0.414,1.736C0.41,1.735,0.405,1.734,0.402,1.733
			c-0.01-0.002-0.02-0.005-0.03-0.008C0.367,1.723,0.363,1.723,0.358,1.721C0.354,1.72,0.349,1.718,0.345,1.716
			C0.333,1.712,0.321,1.707,0.31,1.702c0,0-0.002,0-0.002-0.001c-0.002,0-0.004-0.002-0.006-0.003
			c-0.011-0.004-0.021-0.01-0.03-0.015c-0.002,0-0.002-0.001-0.003-0.001C0.26,1.677,0.25,1.671,0.241,1.665
			C0.239,1.664,0.238,1.663,0.236,1.663C0.233,1.661,0.23,1.659,0.228,1.657C0.22,1.652,0.211,1.646,0.204,1.64
			C0.202,1.639,0.202,1.638,0.2,1.638C0.197,1.635,0.194,1.632,0.191,1.63C0.186,1.626,0.182,1.623,0.178,1.619
			C0.162,1.605,0.148,1.59,0.136,1.575C0.098,1.532,0.07,1.482,0.051,1.428c-0.001,0-0.001-0.001-0.001-0.001V1.15
			c0.003,0,0.006,0,0.008,0.001C0.069,1.18,0.088,1.23,0.123,1.284C0.136,1.305,0.152,1.327,0.17,1.348
			C0.179,1.359,0.189,1.37,0.2,1.38C0.21,1.39,0.22,1.4,0.232,1.41c0.011,0.01,0.023,0.018,0.036,0.027
			C0.273,1.442,0.28,1.446,0.286,1.45C0.3,1.458,0.313,1.466,0.328,1.473C0.335,1.477,0.342,1.48,0.35,1.483
			c0.007,0.003,0.014,0.006,0.021,0.008C0.376,1.493,0.38,1.495,0.385,1.496C0.387,1.498,0.391,1.499,0.394,1.5
			c0.03,0.01,0.064,0.016,0.1,0.02C0.512,1.522,0.53,1.523,0.55,1.523c0.011,0,0.021,0,0.031-0.001c0.006,0,0.013-0.001,0.018-0.001
			C0.607,1.52,0.614,1.52,0.62,1.519c0.002-0.001,0.004-0.001,0.005-0.001c0.01-0.002,0.021-0.004,0.031-0.005
			C0.667,1.51,0.678,1.508,0.689,1.505c0.01-0.002,0.02-0.006,0.03-0.009c0.02-0.007,0.039-0.014,0.056-0.023
			C0.783,1.468,0.792,1.463,0.8,1.458z"/>
		<path fill="#1AACD1" d="M0.65,0.95v0.465C0.619,1.42,0.586,1.423,0.55,1.423c-0.003,0-0.006,0-0.008,0
			C0.51,1.332,0.386,1.05,0.05,1.05v-0.3c0.055,0,0.105,0.007,0.15,0.018c0.015,0.004,0.03,0.008,0.045,0.014
			C0.256,0.786,0.267,0.79,0.277,0.795C0.285,0.799,0.292,0.802,0.3,0.807c0.018,0.008,0.035,0.018,0.05,0.029
			c0.041,0.028,0.073,0.059,0.1,0.09C0.458,0.933,0.464,0.942,0.47,0.95H0.65z"/>
		<path fill="#0A90BE" d="M0.65,0.95v0.471c0,0.055-0.044,0.102-0.099,0.102c-0.001,0-0.001,0-0.001,0
			c-0.036,0-0.069-0.003-0.1-0.009C0.189,1.465,0.086,1.232,0.058,1.151C0.056,1.15,0.053,1.15,0.05,1.15V1
			c0.2,0,0.324,0.099,0.4,0.199V0.926C0.458,0.933,0.464,0.942,0.47,0.95H0.65z"/>
		
			<linearGradient id="SVGID_1_" gradientUnits="userSpaceOnUse" x1="0.118" y1="2" x2="0.118" y2="1.5245" gradientTransform="matrix(1 0 0 -1 0 3.15)">
			<stop  offset="0" style="stop-color:#0D75AE;stop-opacity:0"/>
			<stop  offset="0.7" style="stop-color:#02376F;stop-opacity:0.3"/>
			<stop  offset="1" style="stop-color:#002B62;stop-opacity:0.5"/>
		</linearGradient>
		<path fill="url(#SVGID_1_)" d="M0.186,1.626C0.124,1.574,0.078,1.504,0.051,1.428C0.05,1.427,0.05,1.427,0.05,1.427V1.15
			C0.05,1.15,0.05,1.384,0.186,1.626z"/>
	</g>
	<g>
		<path fill="#002B62" d="M0.9,1.15v0.8H0.2v-0.8c0-0.193,0.158-0.35,0.35-0.35c0.096,0,0.184,0.039,0.247,0.103
			C0.861,0.966,0.9,1.054,0.9,1.15z"/>
		<path fill="#66BBEE" d="M0.8,1.1v0.15C0.8,1.112,0.688,1,0.55,1S0.3,1.112,0.3,1.25V1.1c0-0.138,0.112-0.25,0.25-0.25
			S0.8,0.962,0.8,1.1z"/>
		<path fill="#197AB7" d="M0.8,1.25v0.7H0.3v-0.7C0.3,1.112,0.412,1,0.55,1S0.8,1.112,0.8,1.25z"/>
		<path fill="#0A8FBF" d="M0.65,1.02V1.8h-0.2V1.02C0.48,1.007,0.514,1,0.55,1S0.62,1.007,0.65,1.02z"/>
		<g>
			<circle opacity="0.5" fill="#056173" enable-background="new    " cx="0.7" cy="1.2" r="0.15"/>
			<circle fill="#004336" cx="0.7" cy="1.15" r="0.15"/>
			<path fill="#159383" d="M0.8,1.15c0,0.014-0.003,0.029-0.009,0.041C0.776,1.226,0.74,1.25,0.7,1.25c-0.055,0-0.1-0.045-0.1-0.1
				c0-0.04,0.024-0.076,0.059-0.091C0.671,1.053,0.686,1.05,0.7,1.05C0.755,1.05,0.8,1.095,0.8,1.15z"/>
			<path fill="#1AB19E" d="M0.8,1.15c0,0.014-0.003,0.029-0.009,0.041C0.779,1.197,0.764,1.2,0.75,1.2c-0.055,0-0.1-0.045-0.1-0.1
				c0-0.015,0.003-0.029,0.009-0.041C0.671,1.053,0.686,1.05,0.7,1.05C0.755,1.05,0.8,1.095,0.8,1.15z"/>
		</g>
		<g>
			<path opacity="0.5" fill="#056173" enable-background="new    " d="M0.154,1.176c-0.04,0.162,0.032,0.276,0.081,0.318
				c0.011,0.01,0.026,0.017,0.041,0.021c0.037,0.009,0.075-0.003,0.1-0.032c0.036-0.041,0.031-0.104-0.009-0.139
				c-0.002-0.001-0.039-0.04-0.019-0.12c0.013-0.053-0.019-0.108-0.073-0.121C0.222,1.09,0.168,1.122,0.154,1.176z"/>
			<path fill="#0D4768" d="M0.154,1.126c-0.04,0.162,0.032,0.276,0.081,0.318c0.011,0.01,0.026,0.017,0.041,0.021
				c0.037,0.009,0.075-0.003,0.1-0.032c0.036-0.041,0.031-0.104-0.009-0.139c-0.002-0.001-0.039-0.04-0.019-0.12
				c0.013-0.053-0.019-0.108-0.073-0.121S0.168,1.072,0.154,1.126z"/>
			<path fill="#4DADC5" d="M0.203,1.138C0.16,1.312,0.263,1.402,0.267,1.406C0.273,1.412,0.28,1.415,0.288,1.417
				c0.018,0.004,0.037-0.001,0.05-0.016c0.018-0.021,0.016-0.052-0.005-0.07C0.33,1.328,0.272,1.273,0.3,1.162
				c0.007-0.027-0.01-0.054-0.036-0.061C0.237,1.095,0.21,1.111,0.203,1.138z"/>
			<path fill="#004336" d="M0.45,1.2c0,0.035-0.018,0.068-0.05,0.094C0.359,1.329,0.296,1.35,0.225,1.35S0.091,1.329,0.05,1.294
				C0.018,1.268,0,1.235,0,1.2c0-0.018,0.005-0.036,0.014-0.052C0.036,1.11,0.05,1.068,0.05,1.025C0.05,0.901,0.129,0.8,0.225,0.8
				c0.048,0,0.092,0.025,0.123,0.066C0.38,0.907,0.4,0.963,0.4,1.025c0,0.043,0.014,0.085,0.036,0.123
				C0.445,1.164,0.45,1.182,0.45,1.2z"/>
			<path fill="#108E6B" d="M0.4,1.2c0,0.026-0.02,0.045-0.032,0.055C0.349,1.271,0.324,1.283,0.296,1.29
				C0.274,1.297,0.249,1.3,0.225,1.3c-0.057,0-0.11-0.017-0.143-0.045C0.07,1.245,0.05,1.226,0.05,1.2
				c0-0.01,0.002-0.019,0.008-0.028C0.086,1.121,0.1,1.073,0.1,1.025C0.1,0.93,0.157,0.85,0.225,0.85c0.002,0,0.003,0,0.005,0.001
				c0.066,0.003,0.12,0.082,0.12,0.174c0,0.01,0.001,0.02,0.002,0.03c0.005,0.036,0.017,0.071,0.037,0.109
				c0,0.003,0.002,0.006,0.003,0.008C0.398,1.181,0.4,1.19,0.4,1.2z"/>
			<path fill="#16AB7B" d="M0.4,1.2c0,0.026-0.02,0.045-0.032,0.055C0.349,1.271,0.324,1.283,0.296,1.29
				C0.258,1.281,0.225,1.265,0.2,1.244C0.168,1.218,0.15,1.185,0.15,1.15c0-0.018,0.005-0.036,0.014-0.052
				C0.186,1.06,0.2,1.018,0.2,0.975c0-0.046,0.011-0.089,0.03-0.124c0.066,0.003,0.12,0.082,0.12,0.174
				c0,0.048,0.014,0.096,0.042,0.147C0.398,1.181,0.4,1.19,0.4,1.2z"/>
			<circle fill="#9EDFCB" cx="0.25" cy="0.95" r="0.05"/>
			<path fill="#63C8BD" d="M0.389,1.164C0.376,1.186,0.352,1.2,0.325,1.2C0.283,1.2,0.25,1.166,0.25,1.125
				c0-0.042,0.033-0.075,0.075-0.075c0.01,0,0.018,0.002,0.027,0.005C0.357,1.091,0.368,1.127,0.389,1.164z"/>
		</g>
	</g>
</g>
</svg>
