<?xml version="1.0" encoding="utf-8"?>
<!-- Generator: Adobe Illustrator 24.1.2, SVG Export Plug-In . SVG Version: 6.00 Build 0)  -->
<svg version="1.1" id="Capa_1" xmlns="http://www.w3.org/2000/svg" xmlns:xlink="http://www.w3.org/1999/xlink" x="0px" y="0px"
	 width="1px" height="2.05px" viewBox="0 0 1 2.05" enable-background="new 0 0 1 2.05" xml:space="preserve">
<circle id="circle16099" fill="#0A0F32" fill-opacity="0.2" cx="0.5" cy="1.55" r="0.5"/>
<g>
	
		<radialGradient id="SVGID_1_" cx="0.5023" cy="3.1938" r="0.2514" gradientTransform="matrix(1 0 0 -1 0 3.45)" gradientUnits="userSpaceOnUse">
		<stop  offset="0" style="stop-color:#002B62;stop-opacity:0.36"/>
		<stop  offset="0.64" style="stop-color:#002B62;stop-opacity:0.36"/>
		<stop  offset="1" style="stop-color:#002B62;stop-opacity:0"/>
	</radialGradient>
	<path fill="url(#SVGID_1_)" d="M0.75,0.25c0,0.002,0,0.004-0.001,0.006c0-0.001-0.001-0.002-0.002-0.003
		C0.684,0.189,0.596,0.15,0.5,0.15c-0.098,0-0.186,0.04-0.249,0.106C0.25,0.254,0.25,0.252,0.25,0.25C0.25,0.112,0.362,0,0.5,0
		S0.75,0.112,0.75,0.25z"/>
	<g>
		<path fill="#002B62" d="M0.5,1.7L0.5,1.7c-0.193,0-0.35-0.157-0.35-0.35V0.5c0-0.193,0.157-0.35,0.35-0.35l0,0
			c0.192,0,0.35,0.157,0.35,0.35v0.85C0.85,1.543,0.693,1.7,0.5,1.7z"/>
		<path fill="#66BBEE" d="M0.75,0.45V0.6c0-0.137-0.113-0.25-0.25-0.25S0.25,0.463,0.25,0.6V0.45c0-0.138,0.113-0.25,0.25-0.25
			S0.75,0.312,0.75,0.45z"/>
		<path fill="#197AB7" d="M0.75,0.6v0.85c0,0.069-0.028,0.132-0.073,0.177C0.632,1.672,0.569,1.7,0.5,1.7
			c-0.138,0-0.25-0.112-0.25-0.25V0.6c0-0.137,0.113-0.25,0.25-0.25S0.75,0.463,0.75,0.6z"/>
		<path fill="#0A8FBF" d="M0.6,0.37v0.78H0.4V0.37c0.03-0.013,0.064-0.02,0.1-0.02S0.57,0.357,0.6,0.37z"/>
		<g>
			<path opacity="0.5" fill="#056173" enable-background="new    " d="M0.8,0.475c0,0.026-0.005,0.049-0.015,0.071
				C0.757,0.607,0.696,0.65,0.625,0.65c-0.033,0-0.064-0.009-0.089-0.025C0.498,0.582,0.47,0.532,0.451,0.478
				c-0.001,0-0.001-0.001-0.001-0.001V0.475c0-0.059,0.029-0.11,0.073-0.142C0.552,0.312,0.587,0.3,0.625,0.3
				C0.721,0.3,0.8,0.379,0.8,0.475z"/>
			<circle fill="#004336" cx="0.625" cy="0.425" r="0.175"/>
			<path fill="#159383" d="M0.75,0.425c0,0.021-0.005,0.042-0.015,0.06l0,0C0.714,0.524,0.672,0.55,0.625,0.55
				C0.556,0.55,0.5,0.494,0.5,0.425c0-0.047,0.026-0.089,0.065-0.11l0.001-0.001c0.017-0.01,0.038-0.015,0.06-0.015
				C0.694,0.3,0.75,0.356,0.75,0.425z"/>
			<path fill="#1AB19E" d="M0.75,0.425c0,0.021-0.005,0.042-0.015,0.06l0,0C0.717,0.495,0.696,0.5,0.675,0.5
				C0.606,0.5,0.55,0.444,0.55,0.375c0-0.021,0.005-0.042,0.015-0.06l0.001-0.001c0.017-0.01,0.038-0.015,0.06-0.015
				C0.694,0.3,0.75,0.356,0.75,0.425z"/>
		</g>
	</g>
	
		<radialGradient id="SVGID_2_" cx="0.5023" cy="2.4562" r="0.2514" gradientTransform="matrix(1 0 0 1 0 -1.65)" gradientUnits="userSpaceOnUse">
		<stop  offset="0" style="stop-color:#002B62;stop-opacity:0.36"/>
		<stop  offset="0.64" style="stop-color:#002B62;stop-opacity:0.36"/>
		<stop  offset="1" style="stop-color:#002B62;stop-opacity:0"/>
	</radialGradient>
	<path fill="url(#SVGID_2_)" d="M0.75,0.8c0,0.002,0,0.004-0.001,0.006c0-0.001-0.001-0.002-0.002-0.003
		C0.684,0.739,0.596,0.7,0.5,0.7c-0.098,0-0.186,0.04-0.249,0.106C0.25,0.804,0.25,0.802,0.25,0.8c0-0.138,0.112-0.25,0.25-0.25
		S0.75,0.662,0.75,0.8z"/>
	<g>
		<path fill="#002B62" d="M0.85,1.239V1.35c0,0.082-0.015,0.148-0.039,0.2c-0.003,0.007-0.007,0.014-0.01,0.021
			C0.783,1.602,0.763,1.629,0.741,1.65C0.639,1.75,0.5,1.75,0.5,1.75c-0.13,0-0.229-0.043-0.302-0.1
			C0.18,1.636,0.164,1.623,0.15,1.607c-0.084-0.084-0.126-0.183-0.142-0.23c0-0.001,0-0.001,0-0.001
			C0.005,1.369,0.004,1.363,0.002,1.358C0.001,1.353,0,1.35,0,1.35v-0.8c0.055,0,0.105,0.007,0.15,0.021
			c0.037,0.011,0.07,0.026,0.1,0.044c0.018,0.01,0.035,0.021,0.05,0.033c0.04,0.031,0.073,0.067,0.1,0.103
			C0.427,0.785,0.446,0.82,0.461,0.85C0.676,0.85,0.85,1.024,0.85,1.239z"/>
		<path fill="#0D75AE" d="M0.75,0.85v0.543c0,0.13-0.098,0.242-0.227,0.255H0.521c-0.002,0-0.004,0.001-0.007,0.001
			C0.505,1.65,0.5,1.65,0.5,1.65c-0.033,0-0.063-0.002-0.092-0.007c-0.005-0.001-0.01-0.001-0.014-0.002
			C0.385,1.64,0.377,1.638,0.369,1.637C0.367,1.636,0.365,1.636,0.364,1.636C0.36,1.635,0.355,1.634,0.352,1.633
			c-0.01-0.002-0.02-0.005-0.03-0.008C0.317,1.624,0.313,1.623,0.308,1.621C0.304,1.62,0.299,1.618,0.295,1.616
			C0.286,1.613,0.276,1.61,0.267,1.605C0.264,1.604,0.262,1.604,0.26,1.602c0,0-0.002,0-0.002-0.001
			c-0.002,0-0.004-0.002-0.006-0.003c-0.011-0.004-0.021-0.01-0.03-0.015c-0.002,0-0.002-0.001-0.003-0.001
			C0.21,1.577,0.2,1.571,0.191,1.565C0.189,1.564,0.188,1.563,0.186,1.563C0.183,1.561,0.18,1.559,0.178,1.557
			C0.168,1.55,0.159,1.544,0.15,1.537C0.147,1.535,0.144,1.532,0.141,1.53C0.136,1.526,0.132,1.523,0.128,1.519
			C0.07,1.467,0.027,1.401,0.001,1.328C0,1.327,0,1.327,0,1.327V0.65c0.055,0,0.105,0.007,0.15,0.018
			c0.015,0.004,0.03,0.008,0.045,0.014C0.2,0.684,0.205,0.686,0.209,0.687C0.215,0.69,0.221,0.692,0.227,0.695
			C0.235,0.699,0.242,0.702,0.25,0.707C0.268,0.715,0.285,0.725,0.3,0.735c0.041,0.028,0.073,0.059,0.1,0.09
			C0.408,0.833,0.414,0.842,0.42,0.85H0.75z"/>
		<path fill="#0D75AE" d="M0.75,1.358v0.035c0,0.13-0.098,0.242-0.227,0.255H0.521c-0.002,0-0.004,0.001-0.007,0.001
			C0.505,1.65,0.5,1.65,0.5,1.65c-0.033,0-0.063-0.002-0.092-0.007c-0.005-0.001-0.01-0.001-0.014-0.002
			C0.385,1.64,0.377,1.638,0.369,1.637C0.367,1.636,0.365,1.636,0.364,1.636C0.36,1.635,0.355,1.634,0.352,1.633
			c-0.01-0.002-0.02-0.005-0.03-0.008C0.317,1.623,0.313,1.623,0.308,1.621C0.304,1.62,0.299,1.618,0.295,1.616
			C0.283,1.612,0.271,1.607,0.26,1.602c0,0-0.002,0-0.002-0.001c-0.002,0-0.004-0.002-0.006-0.003
			c-0.011-0.004-0.021-0.01-0.03-0.015c-0.002,0-0.002-0.001-0.003-0.001C0.21,1.577,0.2,1.571,0.191,1.565
			C0.189,1.564,0.188,1.563,0.186,1.563C0.183,1.561,0.18,1.559,0.178,1.557C0.17,1.552,0.161,1.546,0.154,1.54
			C0.152,1.539,0.152,1.538,0.15,1.538C0.147,1.535,0.144,1.532,0.141,1.53C0.136,1.526,0.132,1.523,0.128,1.519
			C0.112,1.505,0.098,1.49,0.086,1.475C0.048,1.432,0.02,1.382,0.001,1.328C0,1.328,0,1.327,0,1.327V1.05
			c0.003,0,0.006,0,0.008,0.001C0.019,1.08,0.038,1.13,0.073,1.184C0.086,1.205,0.102,1.227,0.12,1.248
			C0.129,1.259,0.139,1.27,0.15,1.28C0.16,1.29,0.17,1.3,0.182,1.31c0.011,0.01,0.023,0.018,0.036,0.027
			C0.223,1.342,0.23,1.346,0.236,1.35C0.25,1.358,0.263,1.366,0.278,1.373C0.285,1.377,0.292,1.38,0.3,1.383
			c0.007,0.003,0.014,0.006,0.021,0.008C0.326,1.393,0.33,1.395,0.335,1.396C0.338,1.397,0.342,1.398,0.345,1.4
			c0.03,0.01,0.064,0.016,0.1,0.02C0.462,1.422,0.48,1.423,0.5,1.423c0.011,0,0.021,0,0.031-0.001c0.006,0,0.012-0.001,0.018-0.001
			C0.557,1.42,0.564,1.42,0.57,1.419c0.002-0.001,0.004-0.001,0.005-0.001c0.01-0.002,0.021-0.004,0.031-0.005
			C0.617,1.41,0.628,1.408,0.639,1.405c0.01-0.002,0.02-0.006,0.03-0.009c0.02-0.007,0.039-0.014,0.056-0.023
			C0.733,1.368,0.742,1.363,0.75,1.358z"/>
		<path fill="#1AACD1" d="M0.6,0.85v0.465C0.569,1.32,0.536,1.323,0.5,1.323c-0.003,0-0.006,0-0.008,0C0.46,1.232,0.336,0.95,0,0.95
			v-0.3c0.055,0,0.105,0.007,0.15,0.018c0.015,0.004,0.03,0.008,0.045,0.014C0.206,0.686,0.217,0.69,0.227,0.695
			C0.235,0.699,0.242,0.702,0.25,0.707C0.268,0.715,0.285,0.725,0.3,0.735c0.041,0.028,0.073,0.059,0.1,0.09
			C0.408,0.833,0.414,0.842,0.42,0.85H0.6z"/>
		<path fill="#0A90BE" d="M0.6,0.85v0.471c0,0.055-0.044,0.102-0.099,0.102c-0.001,0-0.001,0-0.001,0
			c-0.036,0-0.069-0.003-0.1-0.009C0.139,1.365,0.036,1.132,0.008,1.051C0.006,1.05,0.003,1.05,0,1.05V0.9
			c0.2,0,0.324,0.099,0.4,0.199V0.826C0.408,0.833,0.414,0.842,0.42,0.85H0.6z"/>
		
			<linearGradient id="SVGID_3_" gradientUnits="userSpaceOnUse" x1="0.068" y1="2.7" x2="0.068" y2="3.1755" gradientTransform="matrix(1 0 0 1 0 -1.65)">
			<stop  offset="0" style="stop-color:#0D75AE;stop-opacity:0"/>
			<stop  offset="0.7" style="stop-color:#02376F;stop-opacity:0.3"/>
			<stop  offset="1" style="stop-color:#002B62;stop-opacity:0.5"/>
		</linearGradient>
		<path fill="url(#SVGID_3_)" d="M0.136,1.526C0.074,1.474,0.028,1.404,0.001,1.328C0,1.327,0,1.327,0,1.327V1.05
			C0,1.05,0,1.284,0.136,1.526z"/>
		<g>
			<path opacity="0.5" fill="#056173" enable-background="new    " d="M0.35,1.325c0,0.026-0.005,0.049-0.015,0.071
				C0.307,1.457,0.246,1.5,0.175,1.5c-0.033,0-0.064-0.009-0.089-0.025C0.048,1.432,0.02,1.382,0.001,1.328C0,1.328,0,1.327,0,1.327
				V1.325c0-0.059,0.029-0.11,0.073-0.142C0.102,1.162,0.137,1.15,0.175,1.15C0.271,1.15,0.35,1.229,0.35,1.325z"/>
			<circle fill="#004336" cx="0.175" cy="1.275" r="0.175"/>
			<path fill="#159383" d="M0.3,1.275c0,0.021-0.005,0.042-0.015,0.06l0,0C0.264,1.374,0.222,1.4,0.175,1.4
				C0.106,1.4,0.05,1.344,0.05,1.275c0-0.047,0.026-0.089,0.065-0.11l0.001-0.001C0.133,1.155,0.154,1.15,0.175,1.15
				C0.244,1.15,0.3,1.206,0.3,1.275z"/>
			<path fill="#1AB19E" d="M0.3,1.275c0,0.021-0.005,0.042-0.015,0.06l0,0C0.267,1.345,0.246,1.35,0.225,1.35
				C0.156,1.35,0.1,1.294,0.1,1.225c0-0.021,0.005-0.042,0.015-0.06l0.001-0.001C0.133,1.155,0.154,1.15,0.175,1.15
				C0.244,1.15,0.3,1.206,0.3,1.275z"/>
		</g>
		<g>
			<g>
				<path opacity="0.5" fill="#056173" enable-background="new    " d="M0.671,1.167c0.041,0.162-0.031,0.276-0.08,0.318
					C0.579,1.495,0.565,1.502,0.55,1.506c-0.037,0.009-0.075-0.003-0.1-0.032C0.414,1.433,0.419,1.37,0.458,1.335
					c0.002-0.001,0.039-0.04,0.019-0.12C0.464,1.162,0.497,1.107,0.55,1.094S0.658,1.113,0.671,1.167z"/>
				<path fill="#0D4768" d="M0.671,1.117c0.041,0.162-0.031,0.276-0.08,0.318C0.579,1.445,0.565,1.452,0.55,1.456
					c-0.037,0.009-0.075-0.003-0.1-0.032C0.414,1.383,0.419,1.32,0.458,1.285c0.002-0.001,0.039-0.04,0.019-0.12
					C0.464,1.112,0.497,1.057,0.55,1.044S0.658,1.063,0.671,1.117z"/>
				<path fill="#4DADC5" d="M0.623,1.129c0.043,0.174-0.06,0.264-0.064,0.268C0.552,1.403,0.545,1.406,0.538,1.408
					C0.52,1.412,0.5,1.407,0.488,1.392C0.47,1.371,0.472,1.34,0.493,1.322c0.003-0.003,0.061-0.058,0.033-0.169
					c-0.007-0.027,0.01-0.054,0.036-0.061C0.589,1.086,0.616,1.102,0.623,1.129z"/>
				<path fill="#4DADC5" d="M0.623,1.129c0.043,0.174-0.06,0.264-0.064,0.268C0.552,1.403,0.545,1.406,0.538,1.408
					C0.52,1.412,0.5,1.407,0.488,1.392C0.47,1.371,0.472,1.34,0.493,1.322c0.003-0.003,0.061-0.058,0.033-0.169
					c-0.007-0.027,0.01-0.054,0.036-0.061C0.589,1.086,0.616,1.102,0.623,1.129z"/>
			</g>
			<g>
				<path fill="#004336" d="M0.9,1.075c0,0.096-0.145,0.175-0.325,0.175S0.25,1.171,0.25,1.075c0-0.03,0.014-0.058,0.038-0.082
					c0.041-0.042,0.062-0.1,0.062-0.158c0-0.12,0.089-0.226,0.208-0.235c0.006,0,0.012,0,0.017,0c0.062,0,0.118,0.025,0.159,0.066
					S0.8,0.763,0.8,0.825v0.01c0,0.058,0.021,0.116,0.062,0.158C0.886,1.017,0.9,1.045,0.9,1.075z"/>
				<path fill="#108E6B" d="M0.85,1.075c0,0.049-0.083,0.104-0.202,0.12C0.626,1.198,0.601,1.2,0.575,1.2
					C0.417,1.2,0.3,1.134,0.3,1.075c0-0.015,0.008-0.031,0.023-0.047C0.372,0.979,0.4,0.908,0.4,0.835
					c0-0.089,0.059-0.164,0.139-0.181c0.007-0.001,0.015-0.003,0.023-0.003C0.567,0.65,0.57,0.65,0.575,0.65
					c0.046,0,0.09,0.018,0.123,0.051C0.732,0.735,0.75,0.779,0.75,0.825v0.01c0,0.073,0.028,0.144,0.077,0.193
					C0.842,1.044,0.85,1.06,0.85,1.075z"/>
				<path fill="#16AB7B" d="M0.85,1.075c0,0.049-0.083,0.104-0.202,0.12C0.506,1.176,0.4,1.107,0.4,1.025
					c0-0.03,0.014-0.058,0.038-0.082C0.479,0.901,0.5,0.843,0.5,0.785c0-0.048,0.014-0.093,0.039-0.131
					c0.007-0.001,0.015-0.003,0.023-0.003C0.567,0.65,0.57,0.65,0.575,0.65c0.046,0,0.09,0.018,0.123,0.051
					C0.732,0.735,0.75,0.779,0.75,0.825v0.01c0,0.03,0.005,0.06,0.014,0.088C0.773,0.949,0.785,0.974,0.8,0.995
					c0.008,0.012,0.017,0.023,0.027,0.033C0.842,1.044,0.85,1.06,0.85,1.075z"/>
				<circle fill="#9EDFCB" cx="0.625" cy="0.775" r="0.075"/>
				<path fill="#63C8BD" d="M0.8,0.995V1c0,0.055-0.045,0.1-0.1,0.1S0.6,1.055,0.6,1s0.045-0.1,0.1-0.1
					c0.024,0,0.047,0.009,0.064,0.023C0.773,0.949,0.785,0.974,0.8,0.995z"/>
			</g>
		</g>
	</g>
</g>
</svg>
