<?xml version="1.0" encoding="utf-8"?>
<!-- Generator: Adobe Illustrator 24.1.2, SVG Export Plug-In . SVG Version: 6.00 Build 0)  -->
<svg version="1.1" id="Capa_1" xmlns="http://www.w3.org/2000/svg" xmlns:xlink="http://www.w3.org/1999/xlink" x="0px" y="0px"
	 width="1.05px" height="1.9px" viewBox="0 0 1.05 1.9" enable-background="new 0 0 1.05 1.9" xml:space="preserve">
<circle id="circle16099" fill="#0A0F32" fill-opacity="0.2" cx="0.55" cy="1.4" r="0.5"/>
<g>
	<path fill="#002B62" d="M1.05,0.4v0.8c0,0-0.001,0.003-0.002,0.008C1.046,1.213,1.045,1.219,1.042,1.226
		c0,0.001,0,0.001-0.001,0.001C1.011,1.317,0.886,1.6,0.55,1.6c0,0-0.004,0-0.011-0.001c-0.039-0.002-0.175-0.021-0.276-0.17
		C0.22,1.364,0.183,1.274,0.164,1.15C0.155,1.093,0.15,1.029,0.15,0.956V0.75h0.417C0.609,0.642,0.739,0.4,1.05,0.4z"/>
	<path fill="#0D75AE" d="M1.05,0.5v0.677c0,0.001,0,0.001-0.001,0.001C1.023,1.251,0.98,1.317,0.922,1.369
		C0.919,1.372,0.916,1.374,0.913,1.376C0.908,1.382,0.902,1.386,0.896,1.39C0.895,1.391,0.893,1.392,0.892,1.393
		c-0.014,0.01-0.03,0.02-0.046,0.03C0.842,1.426,0.838,1.429,0.833,1.431c-0.012,0.007-0.026,0.014-0.039,0.02
		c-0.002,0-0.003,0.001-0.005,0.002C0.786,1.454,0.782,1.456,0.778,1.457C0.773,1.46,0.767,1.461,0.762,1.463
		C0.76,1.464,0.757,1.466,0.754,1.466C0.753,1.467,0.752,1.467,0.752,1.467c-0.001,0-0.001,0.001-0.002,0.001
		C0.748,1.468,0.747,1.469,0.746,1.47c-0.002,0-0.004,0.001-0.007,0.002C0.732,1.474,0.726,1.476,0.718,1.478
		C0.695,1.485,0.67,1.49,0.643,1.493C0.638,1.494,0.633,1.495,0.627,1.495C0.622,1.496,0.617,1.496,0.611,1.497
		C0.605,1.498,0.599,1.498,0.593,1.498C0.581,1.499,0.568,1.5,0.555,1.5H0.55c0,0-0.01,0.001-0.027-0.002
		C0.52,1.498,0.515,1.498,0.511,1.496c-0.005-0.001-0.01-0.002-0.015-0.003C0.488,1.492,0.48,1.49,0.473,1.487
		C0.471,1.487,0.47,1.486,0.467,1.486C0.352,1.449,0.27,1.345,0.253,1.225C0.251,1.21,0.25,1.195,0.25,1.18V0.75h0.346
		c0.005-0.009,0.011-0.018,0.017-0.027c0.004-0.007,0.01-0.014,0.015-0.022c0.025-0.033,0.057-0.067,0.096-0.098
		c0.004-0.003,0.008-0.006,0.012-0.009c0.008-0.006,0.017-0.012,0.026-0.018c0.01-0.007,0.021-0.013,0.032-0.018
		C0.797,0.557,0.798,0.557,0.8,0.556C0.866,0.523,0.948,0.5,1.05,0.5z"/>
	<path fill="#1AACD1" d="M1.05,0.5v0.3c-0.004,0-0.008,0-0.011,0.001c-0.005,0-0.012-0.001-0.02,0c-0.029,0-0.075,0.005-0.129,0.023
		c-0.001,0-0.001,0-0.001,0.001C0.881,0.827,0.873,0.83,0.864,0.833C0.856,0.836,0.848,0.84,0.839,0.844
		C0.831,0.848,0.823,0.852,0.814,0.857C0.801,0.863,0.788,0.871,0.776,0.88C0.763,0.888,0.75,0.898,0.739,0.907
		C0.738,0.908,0.738,0.908,0.738,0.908C0.727,0.917,0.716,0.926,0.706,0.937c-0.011,0.01-0.02,0.02-0.03,0.031c0,0,0,0,0,0.001
		c-0.018,0.02-0.033,0.04-0.046,0.06C0.602,1.071,0.583,1.111,0.57,1.142C0.568,1.146,0.567,1.15,0.565,1.154
		C0.565,1.155,0.564,1.157,0.564,1.157c-0.002,0.004-0.003,0.007-0.004,0.01C0.56,1.169,0.56,1.17,0.559,1.171
		C0.558,1.171,0.558,1.172,0.558,1.173c-0.002,0-0.005,0-0.008,0c-0.053,0-0.101-0.006-0.145-0.016
		C0.392,1.154,0.38,1.151,0.367,1.146C0.342,1.139,0.319,1.13,0.298,1.12C0.288,1.115,0.279,1.11,0.27,1.106
		C0.268,1.104,0.267,1.104,0.264,1.103c-0.01-0.006-0.019-0.012-0.029-0.018C0.217,1.073,0.199,1.06,0.183,1.046
		C0.176,1.04,0.167,1.033,0.16,1.026c-0.002-0.019-0.005-0.039-0.006-0.06C0.154,0.957,0.153,0.949,0.152,0.941
		C0.151,0.914,0.15,0.885,0.15,0.856V0.75h0.446C0.658,0.646,0.791,0.5,1.05,0.5z"/>
	<path fill="#0A90BE" d="M1.05,0.75V0.9c-0.003,0-0.006,0-0.008,0.001C1.041,0.901,1.041,0.902,1.04,0.903
		C1.013,0.981,0.92,1.19,0.692,1.254C0.641,1.268,0.58,1.238,0.556,1.19C0.552,1.182,0.548,1.174,0.543,1.165
		c0.005-0.015,0.01-0.029,0.015-0.043h0.001C0.559,1.121,0.56,1.12,0.561,1.117c-0.001-0.001,0-0.001,0-0.002
		C0.565,1.104,0.57,1.092,0.575,1.08c0.01-0.023,0.023-0.051,0.041-0.08C0.623,0.99,0.63,0.979,0.637,0.968
		c0.008-0.011,0.016-0.023,0.024-0.033c0.001,0,0.001-0.001,0.002-0.002C0.672,0.923,0.681,0.913,0.69,0.902
		C0.711,0.879,0.733,0.86,0.755,0.844C0.828,0.789,0.924,0.75,1.05,0.75z"/>
	<linearGradient id="SVGID_1_" gradientUnits="userSpaceOnUse" x1="0.9815" y1="0.9" x2="0.9815" y2="1.3765">
		<stop  offset="0" style="stop-color:#0D75AE;stop-opacity:0"/>
		<stop  offset="0.7" style="stop-color:#02376F;stop-opacity:0.3"/>
		<stop  offset="1" style="stop-color:#002B62;stop-opacity:0.5"/>
	</linearGradient>
	<path fill="url(#SVGID_1_)" d="M1.05,0.9v0.277c0,0.001,0,0.001-0.001,0.001C1.023,1.251,0.98,1.317,0.922,1.369
		C0.92,1.371,0.917,1.374,0.914,1.376C0.914,1.376,0.914,1.376,0.913,1.376C1.05,1.135,1.05,0.9,1.05,0.9z"/>
	<g>
		<path opacity="0.5" fill="#056173" d="M0.9,1c0,0.064-0.044,0.123-0.115,0.167C0.77,1.176,0.752,1.176,0.737,1.168
			C0.73,1.165,0.723,1.163,0.716,1.163c-0.015,0-0.03,0.008-0.039,0.021L0.661,1.207C0.655,1.218,0.645,1.226,0.633,1.229
			C0.577,1.242,0.514,1.25,0.45,1.25c-0.07,0-0.137-0.009-0.197-0.025C0.251,1.21,0.25,1.195,0.25,1.18V0.75h0.346
			c0.005-0.009,0.011-0.018,0.017-0.027c0.004-0.007,0.01-0.014,0.015-0.022c0.025-0.033,0.057-0.067,0.096-0.098
			c0.004-0.003,0.008-0.006,0.012-0.009c0.008-0.006,0.017-0.012,0.026-0.018c0.01-0.007,0.021-0.013,0.032-0.018
			C0.797,0.557,0.798,0.557,0.8,0.556v0.16c0,0.065,0.018,0.13,0.059,0.18C0.886,0.927,0.9,0.963,0.9,1z"/>
		<path fill="#004336" d="M0.9,0.95c0,0.064-0.044,0.123-0.116,0.167C0.77,1.126,0.752,1.126,0.737,1.118h0
			C0.716,1.108,0.69,1.115,0.677,1.134L0.662,1.157c-0.007,0.01-0.017,0.018-0.029,0.021C0.577,1.192,0.515,1.2,0.45,1.2
			C0.202,1.2,0,1.088,0,0.95c0-0.037,0.014-0.073,0.041-0.104C0.082,0.796,0.1,0.731,0.1,0.666V0.513
			c0-0.172,0.118-0.327,0.287-0.358C0.408,0.152,0.43,0.15,0.45,0.15c0.096,0,0.184,0.039,0.247,0.103
			C0.761,0.316,0.8,0.404,0.8,0.5v0.166c0,0.065,0.018,0.13,0.059,0.18C0.886,0.877,0.9,0.913,0.9,0.95z"/>
		<path fill="#108E6B" d="M0.825,0.95c0,0.023-0.013,0.047-0.036,0.07C0.774,1.035,0.751,1.038,0.732,1.028l0,0
			C0.699,1.012,0.66,1.023,0.64,1.053L0.614,1.091C0.607,1.102,0.596,1.11,0.583,1.112C0.542,1.121,0.498,1.125,0.45,1.125
			c-0.214,0-0.375-0.093-0.375-0.175c0-0.018,0.008-0.037,0.023-0.057c0.004-0.004,0.007-0.008,0.01-0.012
			C0.15,0.826,0.173,0.754,0.174,0.676c0.001-0.003,0.001-0.007,0.001-0.01V0.513c0-0.139,0.097-0.261,0.226-0.284
			C0.417,0.226,0.433,0.225,0.45,0.225c0.016,0,0.032,0.001,0.048,0.004c0.055,0.01,0.107,0.037,0.146,0.077
			C0.695,0.357,0.725,0.428,0.725,0.5v0.166c0,0.042,0.007,0.083,0.018,0.12c0.003,0.009,0.006,0.017,0.01,0.026
			c0.002,0.007,0.005,0.013,0.008,0.02c0.001,0.002,0.003,0.005,0.004,0.007c0.004,0.006,0.007,0.012,0.01,0.018
			C0.776,0.858,0.777,0.86,0.779,0.862c0.004,0.007,0.009,0.013,0.014,0.019c0.003,0.004,0.006,0.008,0.01,0.012
			C0.817,0.913,0.825,0.932,0.825,0.95z"/>
		<path fill="#16AB7B" d="M0.825,0.95c0,0.023-0.013,0.047-0.036,0.07C0.774,1.035,0.751,1.038,0.732,1.028l0,0
			C0.699,1.012,0.66,1.023,0.64,1.053L0.621,1.08C0.461,1.041,0.35,0.952,0.35,0.85c0-0.037,0.014-0.073,0.041-0.104
			c0.041-0.05,0.059-0.115,0.059-0.18V0.413c0-0.065,0.017-0.129,0.048-0.184c0.055,0.01,0.107,0.037,0.146,0.077
			C0.695,0.357,0.725,0.428,0.725,0.5v0.166c0,0.042,0.007,0.083,0.018,0.12c0.002,0.009,0.006,0.017,0.01,0.026
			c0.002,0.007,0.005,0.014,0.008,0.02c0.001,0.002,0.003,0.005,0.004,0.007c0.003,0.006,0.007,0.012,0.01,0.018
			C0.776,0.858,0.777,0.86,0.779,0.862c0.004,0.007,0.008,0.013,0.014,0.019c0.003,0.004,0.006,0.008,0.01,0.012
			C0.817,0.913,0.825,0.932,0.825,0.95z"/>
		<circle fill="#9EDFCB" cx="0.55" cy="0.45" r="0.1"/>
		<path fill="#63C8BD" d="M0.792,0.881C0.781,0.905,0.763,0.924,0.739,0.935c-0.063,0.03-0.142-0.007-0.177-0.082
			c-0.035-0.075-0.014-0.16,0.049-0.189C0.648,0.647,0.69,0.652,0.726,0.676C0.727,0.754,0.75,0.826,0.792,0.881z"/>
		<path fill="#3B928D" d="M0.338,0.854C0.302,0.928,0.223,0.965,0.161,0.935c-0.024-0.011-0.042-0.03-0.053-0.054
			C0.15,0.826,0.173,0.754,0.174,0.676C0.21,0.652,0.252,0.647,0.289,0.664C0.352,0.693,0.373,0.779,0.338,0.854z"/>
	</g>
</g>
</svg>
