<?xml version="1.0" encoding="utf-8"?>
<!-- Generator: Adobe Illustrator 24.1.2, SVG Export Plug-In . SVG Version: 6.00 Build 0)  -->
<svg version="1.1" id="Capa_1" xmlns="http://www.w3.org/2000/svg" xmlns:xlink="http://www.w3.org/1999/xlink" x="0px" y="0px"
	 width="1.1px" height="1.95px" viewBox="0 0 1.1 1.95" enable-background="new 0 0 1.1 1.95" xml:space="preserve">
<g>
	<g>
		<path fill="#002B62" d="M0.2,1.339V1.45c0,0.082,0.015,0.148,0.039,0.2c0.003,0.007,0.007,0.014,0.01,0.021
			c0.017,0.032,0.038,0.058,0.06,0.079c0.102,0.1,0.241,0.1,0.241,0.1c0.13,0,0.229-0.043,0.302-0.1
			C0.87,1.736,0.886,1.723,0.9,1.707c0.084-0.084,0.126-0.183,0.142-0.23c0.001-0.001,0.001-0.001,0.001-0.001
			c0.002-0.007,0.004-0.013,0.005-0.017C1.049,1.453,1.05,1.45,1.05,1.45v-0.8c-0.055,0-0.105,0.007-0.15,0.021
			C0.863,0.682,0.83,0.697,0.8,0.715c-0.018,0.01-0.035,0.021-0.05,0.033c-0.04,0.031-0.073,0.067-0.1,0.103
			C0.623,0.885,0.604,0.92,0.589,0.95C0.374,0.95,0.2,1.124,0.2,1.339z"/>
		<path fill="#0D75AE" d="M0.3,0.95v0.543c0,0.13,0.098,0.242,0.227,0.255h0.002c0.002,0,0.004,0.001,0.007,0.001
			C0.545,1.75,0.55,1.75,0.55,1.75c0.033,0,0.063-0.002,0.092-0.007c0.005-0.001,0.01-0.001,0.014-0.002
			C0.665,1.74,0.673,1.738,0.681,1.737c0.002-0.001,0.004-0.001,0.005-0.001C0.69,1.735,0.695,1.734,0.698,1.733
			c0.01-0.002,0.02-0.005,0.03-0.008c0.005-0.001,0.009-0.002,0.014-0.004C0.746,1.72,0.751,1.718,0.755,1.716
			c0.01-0.003,0.019-0.007,0.028-0.011C0.786,1.704,0.788,1.704,0.79,1.702c0,0,0.002,0,0.002-0.001
			C0.794,1.7,0.796,1.699,0.798,1.698c0.011-0.004,0.021-0.01,0.03-0.015c0.002,0,0.002-0.001,0.003-0.001
			C0.84,1.677,0.85,1.671,0.859,1.665c0.002-0.001,0.003-0.002,0.005-0.003C0.867,1.661,0.87,1.659,0.872,1.657
			C0.882,1.65,0.891,1.644,0.9,1.637C0.903,1.635,0.906,1.632,0.909,1.63c0.005-0.004,0.009-0.007,0.013-0.011
			C0.98,1.567,1.023,1.501,1.049,1.428C1.05,1.427,1.05,1.427,1.05,1.427V0.75c-0.055,0-0.105,0.007-0.15,0.018
			C0.885,0.773,0.87,0.777,0.855,0.782C0.85,0.784,0.845,0.786,0.841,0.787C0.835,0.79,0.829,0.792,0.823,0.795
			C0.815,0.799,0.808,0.802,0.8,0.807C0.782,0.815,0.765,0.825,0.75,0.835c-0.041,0.028-0.073,0.059-0.1,0.09
			C0.642,0.933,0.636,0.942,0.63,0.95H0.3z"/>
		<path fill="#0D75AE" d="M0.3,1.458v0.035c0,0.13,0.098,0.242,0.227,0.255h0.002c0.002,0,0.004,0.001,0.007,0.001
			C0.545,1.75,0.55,1.75,0.55,1.75c0.033,0,0.063-0.002,0.092-0.007c0.005-0.001,0.01-0.001,0.014-0.002
			C0.665,1.74,0.673,1.738,0.681,1.737c0.002-0.001,0.004-0.001,0.005-0.001C0.69,1.735,0.695,1.734,0.698,1.733
			c0.01-0.002,0.02-0.005,0.03-0.008c0.005-0.002,0.009-0.002,0.014-0.004C0.746,1.72,0.751,1.718,0.755,1.716
			C0.767,1.712,0.779,1.707,0.79,1.702c0,0,0.002,0,0.002-0.001C0.794,1.7,0.796,1.699,0.798,1.698
			c0.011-0.004,0.021-0.01,0.03-0.015c0.002,0,0.002-0.001,0.003-0.001C0.84,1.677,0.85,1.671,0.859,1.665
			c0.002-0.001,0.003-0.002,0.005-0.003C0.867,1.661,0.87,1.659,0.872,1.657C0.88,1.652,0.889,1.646,0.896,1.64
			C0.898,1.639,0.898,1.638,0.9,1.638C0.903,1.635,0.906,1.632,0.909,1.63c0.005-0.004,0.009-0.007,0.013-0.011
			c0.015-0.014,0.03-0.029,0.042-0.044C1.002,1.532,1.03,1.482,1.049,1.428c0.001,0,0.001-0.001,0.001-0.001V1.15
			c-0.003,0-0.006,0-0.008,0.001C1.031,1.18,1.011,1.229,0.977,1.283C0.964,1.305,0.948,1.327,0.93,1.348
			C0.921,1.359,0.911,1.37,0.9,1.38C0.89,1.39,0.88,1.4,0.868,1.41c-0.01,0.01-0.023,0.019-0.035,0.028
			C0.827,1.442,0.82,1.446,0.814,1.45C0.801,1.458,0.787,1.466,0.773,1.473C0.765,1.477,0.758,1.48,0.75,1.483
			C0.743,1.486,0.736,1.489,0.729,1.492C0.724,1.493,0.72,1.495,0.715,1.496C0.712,1.498,0.709,1.499,0.706,1.5
			c-0.03,0.01-0.064,0.016-0.1,0.02C0.588,1.522,0.57,1.523,0.55,1.523c-0.011,0-0.021,0-0.031-0.001
			c-0.006,0-0.012-0.001-0.018-0.001C0.493,1.52,0.486,1.52,0.48,1.519C0.478,1.518,0.476,1.518,0.474,1.518
			c-0.01-0.002-0.021-0.004-0.031-0.005C0.433,1.51,0.422,1.508,0.411,1.505c-0.01-0.002-0.02-0.006-0.03-0.009
			c-0.02-0.007-0.039-0.014-0.056-0.023C0.317,1.468,0.308,1.463,0.3,1.458z"/>
		<path fill="#1AACD1" d="M0.45,0.95v0.465c0.031,0.005,0.064,0.007,0.1,0.007c0.003,0,0.006,0,0.008,0
			C0.59,1.332,0.714,1.05,1.05,1.05v-0.3c-0.055,0-0.105,0.007-0.15,0.018C0.885,0.773,0.87,0.777,0.855,0.782
			C0.844,0.786,0.833,0.79,0.823,0.795C0.815,0.799,0.808,0.802,0.8,0.807C0.782,0.815,0.765,0.825,0.75,0.835
			c-0.041,0.028-0.073,0.059-0.1,0.09C0.642,0.933,0.636,0.942,0.63,0.95H0.45z"/>
		<path fill="#0A90BE" d="M0.45,0.95v0.471c0,0.055,0.044,0.102,0.099,0.102c0.001,0,0.001,0,0.001,0c0.036,0,0.069-0.003,0.1-0.009
			c0.261-0.049,0.364-0.282,0.392-0.363C1.044,1.15,1.047,1.15,1.05,1.15V1c-0.2,0-0.324,0.099-0.4,0.199V0.926
			C0.642,0.933,0.636,0.942,0.63,0.95H0.45z"/>
		
			<linearGradient id="SVGID_1_" gradientUnits="userSpaceOnUse" x1="-0.082" y1="2" x2="-0.082" y2="1.5245" gradientTransform="matrix(-1 0 0 -1 0.9 3.15)">
			<stop  offset="0" style="stop-color:#0D75AE;stop-opacity:0"/>
			<stop  offset="0.7" style="stop-color:#02376F;stop-opacity:0.3"/>
			<stop  offset="1" style="stop-color:#002B62;stop-opacity:0.5"/>
		</linearGradient>
		<path fill="url(#SVGID_1_)" d="M0.914,1.626C0.976,1.574,1.022,1.505,1.05,1.428c0-0.001,0-0.001,0-0.001V1.15
			C1.05,1.15,1.05,1.384,0.914,1.626z"/>
	</g>
	<g>
		<path fill="#002B62" d="M0.2,1.15v0.8h0.7v-0.8c0-0.193-0.158-0.35-0.35-0.35c-0.096,0-0.184,0.039-0.247,0.103
			C0.239,0.966,0.2,1.054,0.2,1.15z"/>
		<path fill="#66BBEE" d="M0.3,1.1v0.15C0.3,1.112,0.412,1,0.55,1S0.8,1.112,0.8,1.25V1.1c0-0.138-0.113-0.25-0.25-0.25
			S0.3,0.962,0.3,1.1z"/>
		<path fill="#197AB7" d="M0.3,1.25v0.7h0.5v-0.7C0.8,1.112,0.688,1,0.55,1S0.3,1.112,0.3,1.25z"/>
		<path fill="#0A8FBF" d="M0.45,1.02V1.8h0.2V1.02C0.62,1.007,0.586,1,0.55,1S0.48,1.007,0.45,1.02z"/>
		<g>
			<circle opacity="0.5" fill="#056173" enable-background="new    " cx="0.4" cy="1.2" r="0.15"/>
			<circle fill="#004336" cx="0.4" cy="1.15" r="0.15"/>
			<path fill="#159383" d="M0.3,1.15c0,0.014,0.003,0.029,0.009,0.041C0.324,1.226,0.36,1.25,0.4,1.25c0.055,0,0.1-0.045,0.1-0.1
				c0-0.04-0.024-0.076-0.059-0.091C0.429,1.053,0.414,1.05,0.4,1.05C0.345,1.05,0.3,1.095,0.3,1.15z"/>
			<path fill="#1AB19E" d="M0.3,1.15c0,0.014,0.003,0.029,0.009,0.041C0.321,1.197,0.336,1.2,0.35,1.2c0.055,0,0.1-0.045,0.1-0.1
				c0-0.015-0.003-0.029-0.009-0.041C0.429,1.053,0.414,1.05,0.4,1.05C0.345,1.05,0.3,1.095,0.3,1.15z"/>
		</g>
		<g>
			<path opacity="0.5" fill="#056173" enable-background="new    " d="M0.946,1.176c0.041,0.162-0.031,0.276-0.081,0.319
				c-0.011,0.01-0.026,0.017-0.041,0.021c-0.037,0.009-0.075-0.003-0.1-0.032c-0.036-0.042-0.031-0.105,0.009-0.14
				c0.002-0.001,0.039-0.04,0.019-0.12C0.738,1.171,0.771,1.116,0.824,1.103C0.878,1.09,0.932,1.122,0.946,1.176z"/>
			<path fill="#0D4768" d="M0.946,1.126c0.041,0.162-0.031,0.276-0.081,0.319c-0.011,0.01-0.026,0.017-0.041,0.021
				c-0.037,0.009-0.075-0.003-0.1-0.032c-0.036-0.042-0.031-0.105,0.009-0.14c0.002-0.001,0.039-0.04,0.019-0.12
				C0.738,1.121,0.771,1.066,0.824,1.053S0.932,1.072,0.946,1.126z"/>
			<path fill="#4DADC5" d="M0.897,1.138c0.043,0.174-0.06,0.264-0.064,0.268C0.826,1.412,0.819,1.415,0.812,1.417
				c-0.018,0.004-0.037-0.001-0.05-0.016C0.744,1.38,0.747,1.349,0.767,1.331C0.77,1.328,0.828,1.273,0.8,1.162
				C0.793,1.135,0.81,1.108,0.836,1.101C0.863,1.095,0.89,1.111,0.897,1.138z"/>
			<path fill="#004336" d="M0.65,1.2c0,0.035,0.018,0.068,0.05,0.094C0.741,1.329,0.804,1.35,0.875,1.35S1.009,1.329,1.05,1.294
				C1.082,1.268,1.1,1.235,1.1,1.2c0-0.018-0.005-0.036-0.014-0.052C1.064,1.11,1.05,1.068,1.05,1.025
				C1.05,0.901,0.971,0.8,0.875,0.8c-0.048,0-0.092,0.025-0.123,0.066C0.72,0.907,0.7,0.963,0.7,1.025
				c0,0.043-0.014,0.085-0.036,0.123C0.655,1.164,0.65,1.182,0.65,1.2z"/>
			<path fill="#108E6B" d="M0.7,1.2c0,0.026,0.02,0.045,0.032,0.055C0.751,1.271,0.776,1.283,0.804,1.29
				C0.826,1.297,0.851,1.3,0.875,1.3c0.057,0,0.11-0.017,0.143-0.045C1.03,1.245,1.05,1.226,1.05,1.2
				c0-0.01-0.002-0.019-0.008-0.028C1.014,1.121,1,1.073,1,1.025C1,0.93,0.943,0.85,0.875,0.85c-0.002,0-0.003,0-0.005,0.001
				C0.805,0.854,0.75,0.932,0.75,1.025c0,0.01-0.001,0.02-0.002,0.03C0.743,1.091,0.732,1.127,0.711,1.164
				c0,0.003-0.002,0.006-0.003,0.008C0.702,1.181,0.7,1.19,0.7,1.2z"/>
			<path fill="#16AB7B" d="M0.7,1.2c0,0.026,0.02,0.045,0.032,0.055C0.751,1.271,0.776,1.283,0.804,1.29
				C0.842,1.281,0.875,1.265,0.9,1.244C0.932,1.218,0.95,1.185,0.95,1.15c0-0.018-0.005-0.036-0.014-0.052
				C0.914,1.06,0.9,1.018,0.9,0.975c0-0.046-0.011-0.089-0.03-0.124C0.805,0.854,0.75,0.932,0.75,1.025
				c0,0.048-0.014,0.096-0.042,0.147C0.702,1.181,0.7,1.19,0.7,1.2z"/>
			<circle fill="#9EDFCB" cx="0.85" cy="0.95" r="0.05"/>
			<path fill="#63C8BD" d="M0.711,1.164C0.724,1.186,0.748,1.2,0.775,1.2c0.042,0,0.075-0.034,0.075-0.075
				c0-0.042-0.033-0.075-0.075-0.075c-0.01,0-0.018,0.002-0.027,0.005C0.743,1.091,0.732,1.127,0.711,1.164z"/>
		</g>
	</g>
</g>
</svg>
