<?xml version="1.0" encoding="utf-8"?>
<!-- Generator: Adobe Illustrator 24.1.2, SVG Export Plug-In . SVG Version: 6.00 Build 0)  -->
<svg version="1.1" id="Capa_1" xmlns="http://www.w3.org/2000/svg" xmlns:xlink="http://www.w3.org/1999/xlink" x="0px" y="0px"
	 width="1px" height="1.95px" viewBox="0 0 1 1.95" enable-background="new 0 0 1 1.95" xml:space="preserve">
<path id="rect10315" fill="#0A0F32" fill-opacity="0.2" d="M0.1,1.55h0.8c0.055,0,0.1,0.045,0.1,0.1v0.2c0,0.055-0.045,0.1-0.1,0.1
	H0.1C0.045,1.95,0,1.905,0,1.85v-0.2C0,1.595,0.045,1.55,0.1,1.55z"/>
<g>
	<path fill="#1D183B" d="M1,0.35v1.3H0v-1.3c0-0.111,0.089-0.2,0.2-0.2h0.6C0.911,0.15,1,0.239,1,0.35z"/>
	<path fill="#201D43" d="M0.9,0.4v1.15H0.1V0.4c0-0.083,0.067-0.15,0.15-0.15h0.5C0.833,0.25,0.9,0.317,0.9,0.4z"/>
	<rect x="0.25" y="1.3" fill="#232050" width="0.1" height="0.25"/>
	<path fill="#161433" d="M0.75,1.3v0.25h-0.1V1.295C0.657,1.298,0.664,1.3,0.67,1.3H0.75z"/>
	<path fill="#1A183C" d="M0.65,1.295V1.55h-0.3V1.3h0.18c0.013,0,0.026-0.005,0.035-0.015c0.01-0.01,0.023-0.014,0.036-0.014
		s0.026,0.005,0.036,0.014C0.639,1.289,0.645,1.293,0.65,1.295z"/>
	<rect x="0.25" y="1.1" fill="#211B44" width="0.1" height="0.2"/>
	<path fill="#15112A" d="M0.75,1.1v0.2H0.67c-0.007,0-0.014-0.002-0.02-0.005V1.1H0.75z"/>
	<path fill="#181434" d="M0.9,0.5v0.65c0,0.083-0.067,0.15-0.15,0.15V1.1h-0.1v0.195c-0.005-0.002-0.011-0.005-0.014-0.01
		C0.626,1.276,0.613,1.271,0.6,1.271S0.574,1.276,0.564,1.285C0.555,1.295,0.542,1.3,0.53,1.3H0.35V1.1h-0.1v0.2
		C0.167,1.3,0.1,1.233,0.1,1.15V0.5c0-0.083,0.067-0.15,0.15-0.15h0.5C0.833,0.35,0.9,0.417,0.9,0.5z"/>
	<path fill="#342875" d="M0.9,0.4v0.65c0,0.083-0.067,0.15-0.15,0.15H0.67c-0.007,0-0.014-0.002-0.02-0.005
		c-0.005-0.002-0.011-0.005-0.014-0.01C0.626,1.176,0.613,1.171,0.6,1.171S0.574,1.176,0.564,1.185
		C0.561,1.189,0.555,1.193,0.55,1.195C0.543,1.198,0.536,1.2,0.53,1.2H0.25C0.167,1.2,0.1,1.133,0.1,1.05V0.4
		c0-0.083,0.067-0.15,0.15-0.15h0.5C0.833,0.25,0.9,0.317,0.9,0.4z"/>
	<path fill="#413488" d="M0.6,0.921v0.25c-0.013,0-0.026,0.005-0.036,0.014C0.561,1.189,0.555,1.193,0.55,1.195v-0.25
		c0.005-0.002,0.011-0.005,0.014-0.01C0.574,0.926,0.587,0.921,0.6,0.921z"/>
	<path fill="#30256A" d="M0.65,0.945v0.25c-0.005-0.002-0.011-0.005-0.014-0.01C0.626,1.176,0.613,1.171,0.6,1.171v-0.25
		c0.013,0,0.026,0.005,0.036,0.014C0.639,0.939,0.645,0.943,0.65,0.945z"/>
	<path fill="#7563D7" d="M0.9,0.4v0.4c0,0.083-0.067,0.15-0.15,0.15H0.67c-0.007,0-0.014-0.002-0.02-0.005
		c-0.005-0.002-0.011-0.005-0.014-0.01C0.626,0.926,0.613,0.921,0.6,0.921S0.574,0.926,0.564,0.935
		C0.561,0.939,0.555,0.943,0.55,0.945C0.543,0.948,0.536,0.95,0.53,0.95H0.25C0.167,0.95,0.1,0.883,0.1,0.8V0.4
		c0-0.083,0.067-0.15,0.15-0.15h0.5C0.833,0.25,0.9,0.317,0.9,0.4z"/>
	<path fill="#5E4CC7" d="M0.8,0.4v0.4c0,0.027-0.023,0.05-0.05,0.05H0.696c-0.013,0-0.026-0.005-0.035-0.015L0.653,0.828
		c-0.029-0.029-0.077-0.029-0.106,0L0.54,0.835C0.53,0.845,0.518,0.85,0.504,0.85H0.25C0.222,0.85,0.2,0.827,0.2,0.8V0.4
		c0-0.028,0.022-0.05,0.05-0.05h0.5C0.777,0.35,0.8,0.373,0.8,0.4z"/>
	<g>
		
			<ellipse transform="matrix(0.168 -0.9858 0.9858 0.168 -0.0167 1.1302)" opacity="0.4" fill="#372C79" cx="0.661" cy="0.575" rx="0.15" ry="0.225"/>
		<g>
			<path fill="#372C79" d="M0.78,0.377C0.764,0.352,0.739,0.335,0.71,0.328C0.702,0.326,0.694,0.325,0.686,0.325
				c-0.053,0-0.099,0.037-0.11,0.089L0.555,0.512C0.548,0.541,0.554,0.571,0.57,0.596C0.586,0.622,0.611,0.639,0.64,0.646
				c0.008,0.001,0.015,0.002,0.024,0.002c0.053,0,0.099-0.038,0.11-0.089l0.021-0.098C0.802,0.433,0.796,0.403,0.78,0.377z
				 M0.648,0.609C0.608,0.6,0.582,0.56,0.591,0.52l0.021-0.098C0.62,0.387,0.652,0.363,0.686,0.363c0.005,0,0.011,0.001,0.016,0.002
				c0.04,0.008,0.066,0.049,0.057,0.089L0.738,0.552C0.73,0.587,0.698,0.611,0.664,0.611C0.659,0.611,0.654,0.61,0.648,0.609z"/>
			<path fill="#927ED4" d="M0.759,0.454L0.738,0.552C0.73,0.587,0.698,0.611,0.664,0.611c-0.005,0-0.011-0.001-0.016-0.002
				C0.608,0.6,0.582,0.56,0.591,0.52l0.021-0.098C0.62,0.387,0.652,0.363,0.686,0.363c0.005,0,0.011,0.001,0.016,0.002
				C0.742,0.373,0.768,0.414,0.759,0.454z"/>
		</g>
		<path fill="#1E1463" d="M0.955,0.37c0,0.037-0.036,0.139-0.233,0.139c-0.115,0-0.192-0.056-0.228-0.089
			C0.452,0.382,0.442,0.32,0.47,0.273C0.474,0.266,0.479,0.26,0.483,0.254c0.01-0.014,0.018-0.025,0.024-0.05
			C0.53,0.106,0.605,0,0.713,0C0.82,0,0.89,0.096,0.893,0.185c0.001,0.021,0.019,0.057,0.033,0.084
			C0.945,0.307,0.955,0.326,0.955,0.37z"/>
		<path fill="#3763BD" d="M0.905,0.371c0,0,0,0.006-0.004,0.015v0.001C0.898,0.394,0.892,0.403,0.883,0.413
			C0.861,0.434,0.817,0.46,0.722,0.46c-0.098,0-0.164-0.047-0.194-0.075c-0.014-0.014-0.023-0.032-0.023-0.05
			C0.504,0.322,0.507,0.31,0.513,0.299c0.004-0.005,0.007-0.01,0.01-0.015c0.013-0.018,0.024-0.035,0.032-0.067
			c0.001-0.005,0.003-0.01,0.005-0.015c0.021-0.074,0.076-0.145,0.145-0.15C0.707,0.05,0.71,0.05,0.713,0.05
			c0.054,0,0.095,0.035,0.115,0.077c0.009,0.019,0.014,0.039,0.014,0.06c0,0.004,0.001,0.008,0.002,0.013
			C0.849,0.228,0.864,0.26,0.882,0.292C0.899,0.327,0.905,0.338,0.905,0.371z"/>
		<path fill="#91B2DE" d="M0.829,0.127C0.815,0.141,0.796,0.15,0.775,0.15C0.733,0.15,0.7,0.116,0.7,0.075
			c0-0.009,0.002-0.017,0.005-0.024C0.707,0.05,0.71,0.05,0.713,0.05C0.767,0.05,0.808,0.085,0.829,0.127z"/>
		<path fill="#6290E8" d="M0.905,0.371c0,0,0,0.006-0.004,0.015v0.001C0.886,0.395,0.868,0.4,0.85,0.4c-0.055,0-0.1-0.045-0.1-0.1
			c0-0.054,0.042-0.097,0.095-0.099C0.849,0.228,0.864,0.26,0.882,0.292C0.899,0.327,0.905,0.338,0.905,0.371z"/>
		<path fill="#4477DD" d="M0.625,0.275c0,0.041-0.033,0.075-0.075,0.075c-0.017,0-0.033-0.005-0.045-0.015
			C0.504,0.322,0.507,0.31,0.513,0.299c0.004-0.005,0.007-0.01,0.01-0.015c0.013-0.018,0.024-0.035,0.032-0.067
			c0.001-0.005,0.003-0.01,0.005-0.015C0.597,0.205,0.625,0.237,0.625,0.275z"/>
	</g>
	<g>
		
			<ellipse transform="matrix(0.9891 -0.1474 0.1474 0.9891 -0.1109 0.0516)" opacity="0.4" fill="#372C79" cx="0.293" cy="0.774" rx="0.166" ry="0.111"/>
		<g>
			<path fill="#927ED4" d="M0.299,0.794C0.295,0.795,0.291,0.795,0.287,0.795c-0.022,0-0.042-0.015-0.048-0.038L0.202,0.613
				C0.195,0.585,0.211,0.558,0.237,0.551C0.242,0.551,0.246,0.55,0.25,0.55c0.022,0,0.042,0.015,0.048,0.037l0.037,0.145
				C0.342,0.76,0.326,0.787,0.299,0.794z"/>
			<path fill="#372C79" d="M0.372,0.723L0.335,0.579C0.325,0.539,0.29,0.512,0.25,0.512c-0.008,0-0.014,0.001-0.021,0.002
				c-0.023,0.006-0.042,0.02-0.054,0.04c-0.012,0.02-0.015,0.043-0.01,0.066l0.037,0.145c0.01,0.039,0.045,0.066,0.085,0.066
				c0.008,0,0.015-0.001,0.021-0.003C0.355,0.818,0.384,0.77,0.372,0.723z M0.299,0.794C0.295,0.795,0.291,0.795,0.287,0.795
				c-0.022,0-0.042-0.015-0.048-0.038L0.202,0.613C0.195,0.585,0.211,0.558,0.237,0.551C0.242,0.551,0.246,0.55,0.25,0.55
				c0.022,0,0.042,0.015,0.048,0.037l0.037,0.145C0.342,0.76,0.326,0.787,0.299,0.794z"/>
		</g>
		<g>
			<path fill="#1E1463" d="M0.433,0.577C0.415,0.621,0.377,0.674,0.3,0.7C0.27,0.71,0.242,0.714,0.217,0.714
				c-0.035,0-0.065-0.007-0.089-0.016C0.079,0.679,0.045,0.632,0.043,0.579C0.038,0.488,0.046,0.335,0.15,0.3
				c0.014-0.005,0.027-0.007,0.041-0.007c0.092,0,0.179,0.095,0.224,0.157C0.443,0.486,0.45,0.535,0.433,0.577z"/>
			<path fill="#3763BD" d="M0.392,0.532c0,0.009-0.002,0.017-0.006,0.026C0.38,0.573,0.373,0.587,0.363,0.599
				C0.343,0.623,0.317,0.641,0.284,0.652C0.261,0.66,0.239,0.664,0.217,0.664c-0.024,0-0.048-0.004-0.071-0.013
				c-0.03-0.012-0.051-0.04-0.052-0.074C0.091,0.538,0.09,0.465,0.11,0.411c0.011-0.03,0.029-0.055,0.056-0.064
				c0.008-0.003,0.016-0.004,0.025-0.004c0.017,0,0.037,0.006,0.057,0.017c0.02,0.011,0.041,0.027,0.063,0.048h0.001
				C0.317,0.413,0.323,0.42,0.33,0.426C0.345,0.441,0.361,0.46,0.376,0.48C0.387,0.495,0.393,0.514,0.392,0.532z"/>
			<path fill="#A3BAE8" d="M0.25,0.375c0,0.041-0.033,0.075-0.075,0.075c-0.028,0-0.053-0.015-0.065-0.039
				c0.011-0.03,0.029-0.055,0.056-0.064c0.008-0.003,0.016-0.004,0.025-0.004c0.017,0,0.037,0.006,0.057,0.017
				C0.249,0.365,0.25,0.37,0.25,0.375z"/>
			<path fill="#5891E9" d="M0.392,0.532C0.38,0.557,0.355,0.575,0.325,0.575C0.283,0.575,0.25,0.541,0.25,0.5
				c0-0.042,0.033-0.075,0.075-0.075c0.002,0,0.003,0,0.005,0.001C0.345,0.441,0.361,0.46,0.376,0.48
				C0.387,0.495,0.393,0.514,0.392,0.532z"/>
		</g>
	</g>
</g>
</svg>
