<?xml version="1.0" encoding="utf-8"?>
<!-- Generator: Adobe Illustrator 24.1.2, SVG Export Plug-In . SVG Version: 6.00 Build 0)  -->
<svg version="1.1"
	 id="svg3893" xmlns:cc="http://creativecommons.org/ns#" xmlns:dc="http://purl.org/dc/elements/1.1/" xmlns:inkscape="http://www.inkscape.org/namespaces/inkscape" xmlns:rdf="http://www.w3.org/1999/02/22-rdf-syntax-ns#" xmlns:sodipodi="http://sodipodi.sourceforge.net/DTD/sodipodi-0.dtd" xmlns:svg="http://www.w3.org/2000/svg"
	 xmlns="http://www.w3.org/2000/svg" xmlns:xlink="http://www.w3.org/1999/xlink" x="0px" y="0px" width="1.62px" height="2.575px"
	 viewBox="0 0 1.62 2.575" enable-background="new 0 0 1.62 2.575" xml:space="preserve">
<g>
	<g>
		<path fill="#25294A" d="M1.55,1.375C1.537,1.383,1.474,1.417,1.385,1.451c0.058,0.055,0.103,0.101,0.113,0.111
			C1.525,1.591,1.54,1.628,1.539,1.668c-0.001,0.04-0.017,0.076-0.045,0.104C1.466,1.799,1.43,1.813,1.391,1.813
			c-0.04,0-0.079-0.017-0.106-0.045C1.24,1.721,1.116,1.599,1.029,1.531C1.02,1.532,1.011,1.532,1.002,1.532H0.998
			c-0.009,0-0.018,0-0.026-0.001C0.884,1.599,0.76,1.721,0.715,1.768C0.687,1.797,0.649,1.813,0.609,1.813
			c-0.039,0-0.075-0.015-0.103-0.042C0.478,1.744,0.462,1.707,0.461,1.668c0-0.04,0.014-0.077,0.042-0.105
			c0.01-0.01,0.054-0.056,0.113-0.111C0.526,1.417,0.463,1.383,0.45,1.375c-0.071-0.04-0.096-0.131-0.056-0.201
			C0.42,1.127,0.469,1.099,0.523,1.099c0.025,0,0.051,0.007,0.073,0.019c0.002,0.001,0.178,0.098,0.352,0.115
			c0.017,0.002,0.033,0.003,0.05,0.003h0.005c0.017,0,0.033-0.001,0.05-0.003c0.174-0.017,0.35-0.115,0.352-0.115
			c0.022-0.012,0.047-0.019,0.073-0.019c0.053,0,0.103,0.029,0.129,0.075C1.646,1.245,1.621,1.335,1.55,1.375z"/>
		<path fill="#4EB1D4" d="M1.503,1.292C1.495,1.296,1.363,1.37,1.198,1.411c0.109,0.092,0.225,0.211,0.231,0.218
			c0.02,0.021,0.02,0.054-0.001,0.074c-0.01,0.01-0.023,0.015-0.036,0.015c-0.014,0-0.028-0.006-0.038-0.016
			C1.352,1.7,1.173,1.515,1.057,1.434C1.039,1.435,1.021,1.436,1.002,1.436H0.998c-0.018,0-0.037-0.001-0.055-0.002
			C0.827,1.515,0.648,1.7,0.646,1.702c-0.01,0.01-0.024,0.016-0.038,0.016c-0.013,0-0.026-0.005-0.036-0.015
			c-0.02-0.02-0.021-0.053-0.001-0.074c0.006-0.007,0.122-0.126,0.231-0.218c-0.165-0.04-0.297-0.114-0.305-0.119
			C0.472,1.278,0.463,1.246,0.477,1.22c0.01-0.017,0.028-0.027,0.046-0.027c0.009,0,0.018,0.002,0.026,0.007
			c0.002,0.001,0.234,0.131,0.449,0.131h0.005c0.215,0,0.447-0.129,0.449-0.131C1.46,1.196,1.469,1.193,1.478,1.193
			c0.018,0,0.036,0.01,0.046,0.027C1.537,1.246,1.528,1.278,1.503,1.292z"/>
	</g>
	<ellipse id="ellipse5169" fill-opacity="0.18" cx="0.5" cy="2.075" rx="0.5" ry="0.5"/>
	<g>
		<path fill="#25294A" d="M0.67,0.303v1.02c0,0.094-0.076,0.17-0.17,0.17s-0.17-0.076-0.17-0.17v-1.02c0-0.094,0.076-0.17,0.17-0.17
			c0.047,0,0.089,0.019,0.12,0.05C0.651,0.213,0.67,0.256,0.67,0.303z"/>
		<path fill="#4EB1D4" d="M0.573,0.303v1.02c0,0.04-0.033,0.073-0.073,0.073S0.427,1.363,0.427,1.323v-1.02
			c0-0.04,0.033-0.073,0.073-0.073S0.573,0.263,0.573,0.303z"/>
	</g>
	<g>
		<g>
			<circle opacity="0.6" fill="#480B1B" enable-background="new    " cx="0.5" cy="1.975" r="0.25"/>
			<path fill="#25294A" d="M0.5,2.1L0.5,2.1c-0.096,0-0.175-0.079-0.175-0.175L0.345,1.3C0.348,1.216,0.416,1.15,0.5,1.15l0,0
				c0.084,0,0.152,0.066,0.155,0.15l0.02,0.625C0.675,2.021,0.596,2.1,0.5,2.1z"/>
			<linearGradient id="SVGID_1_" gradientUnits="userSpaceOnUse" x1="0.5" y1="2.025" x2="0.5" y2="1.225">
				<stop  offset="0" style="stop-color:#3D4A85"/>
				<stop  offset="1" style="stop-color:#949CC0"/>
			</linearGradient>
			<path fill="url(#SVGID_1_)" d="M0.5,2.025L0.5,2.025c-0.055,0-0.1-0.045-0.1-0.1L0.422,1.3C0.424,1.258,0.458,1.225,0.5,1.225
				l0,0c0.042,0,0.076,0.033,0.078,0.075L0.6,1.925C0.6,1.98,0.555,2.025,0.5,2.025z"/>
		</g>
		<g>
			<g>
				<path fill="#25294A" d="M0.875,1.175c0,0.008-0.001,0.017-0.002,0.026c0,0,0,0,0,0.001C0.871,1.209,0.87,1.216,0.868,1.224
					C0.867,1.225,0.867,1.226,0.867,1.227C0.864,1.234,0.862,1.241,0.858,1.248C0.856,1.254,0.853,1.26,0.849,1.265
					c-0.001,0.004-0.004,0.007-0.006,0.01c-0.004,0.008-0.01,0.016-0.017,0.023C0.82,1.305,0.814,1.312,0.807,1.318
					s-0.014,0.014-0.023,0.02C0.776,1.345,0.767,1.351,0.758,1.356C0.74,1.367,0.718,1.367,0.701,1.355
					C0.694,1.35,0.686,1.348,0.679,1.348c-0.017,0-0.033,0.011-0.037,0.029L0.64,1.38C0.635,1.398,0.621,1.412,0.602,1.415
					C0.591,1.417,0.579,1.42,0.567,1.421C0.558,1.422,0.548,1.423,0.539,1.423C0.526,1.424,0.513,1.425,0.5,1.425
					c-0.207,0-0.375-0.112-0.375-0.25c0-0.006,0.001-0.012,0.001-0.018C0.127,1.154,0.127,1.15,0.127,1.146
					c0.005-0.028,0.017-0.054,0.034-0.079c0.037-0.051,0.057-0.111,0.062-0.173c0.001-0.01,0.002-0.021,0.002-0.032
					c0-0.009,0.001-0.018,0.002-0.026C0.228,0.818,0.231,0.8,0.237,0.784c0.021-0.079,0.076-0.145,0.146-0.181
					C0.39,0.6,0.396,0.597,0.404,0.594c0.002-0.002,0.005-0.003,0.007-0.003C0.415,0.589,0.42,0.588,0.424,0.587
					C0.43,0.585,0.435,0.583,0.44,0.582c0.003,0,0.005-0.001,0.008-0.002c0.007-0.002,0.013-0.002,0.019-0.003
					C0.47,0.576,0.473,0.576,0.476,0.576c0.008,0,0.016-0.001,0.024-0.001h0.011c0.005,0,0.01,0.001,0.015,0.001
					c0.001-0.001,0.003,0,0.004,0.001c0.007,0.001,0.014,0.002,0.02,0.002C0.552,0.58,0.555,0.58,0.558,0.581
					C0.564,0.582,0.57,0.584,0.577,0.586c0.005,0.002,0.011,0.003,0.016,0.005C0.6,0.593,0.606,0.596,0.613,0.599
					c0.007,0.002,0.012,0.006,0.019,0.01C0.64,0.613,0.647,0.617,0.655,0.623c0.014,0.01,0.029,0.021,0.041,0.033
					c0.049,0.05,0.08,0.118,0.08,0.195v0.013c0,0.073,0.021,0.145,0.064,0.205C0.862,1.101,0.875,1.136,0.875,1.175z"/>
				<path fill="#4DB2D3" d="M0.785,1.175c0,0.023-0.011,0.046-0.03,0.068C0.743,1.257,0.727,1.27,0.709,1.282c0,0,0,0-0.001,0
					C0.701,1.28,0.694,1.277,0.688,1.273c-0.01-0.008-0.022-0.011-0.033-0.011c-0.025,0-0.049,0.016-0.056,0.042L0.597,1.31
					C0.595,1.316,0.592,1.321,0.589,1.326C0.561,1.332,0.532,1.335,0.5,1.335c-0.168,0-0.285-0.085-0.285-0.16
					c0-0.018,0.007-0.037,0.02-0.055c0.052-0.073,0.08-0.163,0.08-0.257c0-0.107,0.085-0.198,0.186-0.198h0.007
					c0.04,0.001,0.078,0.017,0.109,0.042C0.621,0.71,0.626,0.714,0.63,0.719C0.665,0.754,0.685,0.801,0.685,0.85v0.013
					c0,0.095,0.028,0.184,0.08,0.257C0.779,1.138,0.785,1.157,0.785,1.175z"/>
				<path fill="#70EDFF" d="M0.785,1.175c0,0.023-0.011,0.046-0.03,0.068c-0.149-0.011-0.25-0.089-0.25-0.158
					c0-0.019,0.007-0.037,0.02-0.055c0.024-0.035,0.044-0.073,0.058-0.113c0.012-0.038,0.02-0.078,0.022-0.12
					c0-0.007,0-0.015,0-0.024c0-0.023,0.004-0.045,0.012-0.066C0.621,0.71,0.626,0.714,0.63,0.719
					C0.665,0.754,0.685,0.801,0.685,0.85v0.013c0,0.095,0.028,0.184,0.08,0.257C0.779,1.138,0.785,1.157,0.785,1.175z"/>
			</g>
			<path fill="#A7C8DE" d="M0.604,0.798C0.602,0.84,0.594,0.88,0.582,0.918C0.573,0.923,0.561,0.925,0.55,0.925
				c-0.042,0-0.075-0.034-0.075-0.075c0-0.042,0.033-0.075,0.075-0.075C0.571,0.775,0.59,0.784,0.604,0.798z"/>
			<path fill="#C8F4FF" d="M0.625,0.85c0,0.03-0.017,0.056-0.043,0.067c0.012-0.038,0.02-0.078,0.022-0.12
				C0.617,0.811,0.625,0.829,0.625,0.85z"/>
		</g>
	</g>
</g>
</svg>
