<?xml version="1.0" encoding="utf-8"?>
<!-- Generator: Adobe Illustrator 24.1.2, SVG Export Plug-In . SVG Version: 6.00 Build 0)  -->
<svg version="1.1"
	 id="svg3893" xmlns:cc="http://creativecommons.org/ns#" xmlns:dc="http://purl.org/dc/elements/1.1/" xmlns:inkscape="http://www.inkscape.org/namespaces/inkscape" xmlns:rdf="http://www.w3.org/1999/02/22-rdf-syntax-ns#" xmlns:sodipodi="http://sodipodi.sourceforge.net/DTD/sodipodi-0.dtd" xmlns:svg="http://www.w3.org/2000/svg"
	 xmlns="http://www.w3.org/2000/svg" xmlns:xlink="http://www.w3.org/1999/xlink" x="0px" y="0px" width="1.62px" height="2px"
	 viewBox="0 0 1.62 2" enable-background="new 0 0 1.62 2" xml:space="preserve">
<g>
	<g>
		<path fill="#25294A" d="M1.55,0.795C1.537,0.803,1.474,0.837,1.385,0.871c0.058,0.055,0.103,0.101,0.113,0.111
			C1.525,1.011,1.54,1.048,1.539,1.088c-0.001,0.04-0.017,0.076-0.045,0.104C1.466,1.219,1.43,1.233,1.391,1.233
			c-0.04,0-0.079-0.017-0.106-0.045C1.24,1.141,1.116,1.019,1.029,0.951C1.02,0.952,1.011,0.952,1.002,0.952H0.998
			c-0.009,0-0.018,0-0.026-0.001C0.884,1.019,0.76,1.141,0.715,1.188C0.687,1.217,0.649,1.233,0.609,1.233
			c-0.039,0-0.075-0.015-0.103-0.042C0.478,1.164,0.462,1.127,0.461,1.088c0-0.04,0.014-0.077,0.042-0.105
			c0.01-0.01,0.054-0.056,0.113-0.111C0.526,0.837,0.463,0.803,0.45,0.795c-0.071-0.04-0.096-0.131-0.056-0.201
			C0.42,0.547,0.469,0.519,0.523,0.519c0.025,0,0.051,0.007,0.073,0.019c0.002,0.001,0.178,0.098,0.352,0.115
			c0.017,0.002,0.033,0.003,0.05,0.003h0.005c0.017,0,0.033-0.001,0.05-0.003c0.174-0.017,0.35-0.115,0.352-0.115
			c0.022-0.012,0.047-0.019,0.073-0.019c0.053,0,0.103,0.029,0.129,0.075C1.646,0.665,1.621,0.755,1.55,0.795z"/>
		<path fill="#4EB1D4" d="M1.503,0.712C1.495,0.716,1.363,0.79,1.198,0.831c0.109,0.092,0.225,0.211,0.231,0.218
			c0.02,0.021,0.02,0.054-0.001,0.074c-0.01,0.01-0.023,0.015-0.036,0.015c-0.014,0-0.028-0.006-0.038-0.016
			C1.352,1.12,1.173,0.935,1.057,0.854C1.039,0.855,1.021,0.856,1.002,0.856H0.998c-0.018,0-0.037-0.001-0.055-0.002
			C0.827,0.935,0.648,1.12,0.646,1.122c-0.01,0.01-0.024,0.016-0.038,0.016c-0.013,0-0.026-0.005-0.036-0.015
			c-0.02-0.02-0.021-0.053-0.001-0.074c0.006-0.007,0.122-0.126,0.231-0.218c-0.165-0.04-0.297-0.114-0.305-0.119
			C0.472,0.698,0.463,0.666,0.477,0.64c0.01-0.017,0.028-0.027,0.046-0.027c0.009,0,0.018,0.002,0.026,0.007
			c0.002,0.001,0.234,0.131,0.449,0.131h0.005c0.215,0,0.447-0.129,0.449-0.131C1.46,0.616,1.469,0.613,1.478,0.613
			c0.018,0,0.036,0.01,0.046,0.027C1.537,0.666,1.528,0.698,1.503,0.712z"/>
	</g>
	<ellipse id="ellipse5169" fill-opacity="0.18" cx="0.5" cy="1.5" rx="0.5" ry="0.5"/>
	<g>
		<g>
			<circle opacity="0.6" fill="#480B1B" enable-background="new    " cx="0.5" cy="1.4" r="0.25"/>
			<path fill="#25294A" d="M0.5,1.525L0.5,1.525c-0.096,0-0.175-0.079-0.175-0.175l0.02-0.625c0.003-0.084,0.071-0.15,0.155-0.15
				l0,0c0.084,0,0.152,0.066,0.155,0.15l0.02,0.625C0.675,1.446,0.596,1.525,0.5,1.525z"/>
			
				<linearGradient id="SVGID_1_" gradientUnits="userSpaceOnUse" x1="0.5" y1="-1.11" x2="0.5" y2="-0.31" gradientTransform="matrix(1 0 0 -1 0 0.34)">
				<stop  offset="0" style="stop-color:#3D4A85"/>
				<stop  offset="1" style="stop-color:#949CC0"/>
			</linearGradient>
			<path fill="url(#SVGID_1_)" d="M0.5,1.45L0.5,1.45c-0.055,0-0.1-0.045-0.1-0.1l0.022-0.625C0.424,0.683,0.458,0.65,0.5,0.65l0,0
				c0.042,0,0.076,0.033,0.078,0.075L0.6,1.35C0.6,1.405,0.555,1.45,0.5,1.45z"/>
		</g>
		<g>
			<g>
				<path fill="#25294A" d="M0.875,0.6c0,0.008-0.001,0.017-0.002,0.026c0,0,0,0,0,0.001C0.871,0.634,0.87,0.641,0.868,0.649
					C0.867,0.65,0.867,0.651,0.867,0.652C0.864,0.659,0.862,0.666,0.858,0.673C0.856,0.679,0.853,0.685,0.849,0.69
					C0.848,0.693,0.845,0.696,0.843,0.7c-0.004,0.008-0.01,0.016-0.017,0.023C0.82,0.73,0.814,0.737,0.807,0.743
					C0.8,0.749,0.793,0.757,0.784,0.763C0.776,0.77,0.767,0.776,0.758,0.781C0.74,0.792,0.718,0.792,0.701,0.78
					C0.694,0.775,0.686,0.773,0.679,0.773c-0.017,0-0.033,0.011-0.037,0.029L0.64,0.805C0.635,0.823,0.621,0.837,0.602,0.84
					C0.591,0.842,0.579,0.845,0.567,0.846C0.558,0.847,0.548,0.848,0.539,0.848C0.526,0.849,0.513,0.85,0.5,0.85
					c-0.207,0-0.375-0.112-0.375-0.25c0-0.006,0.001-0.012,0.001-0.018c0.001-0.004,0.001-0.007,0.001-0.011
					c0.005-0.028,0.017-0.054,0.034-0.079c0.037-0.05,0.057-0.11,0.062-0.172c0.001-0.01,0.002-0.021,0.002-0.032
					c0-0.009,0.001-0.018,0.002-0.026c0.001-0.018,0.004-0.036,0.01-0.052c0.021-0.079,0.076-0.145,0.146-0.181
					C0.389,0.026,0.396,0.023,0.404,0.02c0.002-0.002,0.005-0.003,0.007-0.003C0.415,0.014,0.42,0.013,0.424,0.012
					C0.43,0.01,0.435,0.008,0.44,0.007c0.002-0.001,0.005-0.001,0.008-0.002c0.007-0.002,0.013-0.002,0.019-0.003
					C0.47,0.001,0.473,0.001,0.476,0.001C0.484,0.001,0.492,0,0.5,0h0.011c0.005,0,0.01,0.001,0.015,0.001
					C0.527,0,0.529,0.001,0.53,0.002c0.007,0.001,0.014,0.002,0.02,0.002c0.002,0.001,0.005,0.001,0.008,0.002
					C0.564,0.007,0.57,0.009,0.577,0.011c0.005,0.002,0.011,0.003,0.016,0.005C0.6,0.018,0.606,0.021,0.613,0.024
					C0.62,0.026,0.625,0.03,0.632,0.034C0.64,0.038,0.647,0.042,0.655,0.048c0.014,0.01,0.029,0.021,0.041,0.033
					c0.049,0.05,0.08,0.118,0.08,0.195v0.013c0,0.073,0.021,0.145,0.064,0.205C0.862,0.526,0.875,0.561,0.875,0.6z"/>
				<path fill="#4DB2D3" d="M0.785,0.6c0,0.023-0.011,0.046-0.03,0.068C0.743,0.682,0.727,0.695,0.709,0.707c0,0,0,0-0.001,0
					c-0.007-0.002-0.014-0.005-0.02-0.009C0.677,0.69,0.665,0.687,0.655,0.687c-0.025,0-0.049,0.016-0.056,0.042L0.597,0.735
					C0.595,0.741,0.592,0.746,0.589,0.751C0.561,0.757,0.532,0.76,0.5,0.76c-0.168,0-0.285-0.085-0.285-0.16
					c0-0.018,0.007-0.037,0.02-0.055c0.052-0.073,0.08-0.163,0.08-0.257c0-0.107,0.085-0.198,0.186-0.198h0.007
					c0.04,0.001,0.078,0.017,0.109,0.042c0.005,0.003,0.01,0.007,0.014,0.012c0.035,0.035,0.055,0.082,0.055,0.131v0.013
					c0,0.095,0.028,0.184,0.08,0.257C0.779,0.563,0.785,0.582,0.785,0.6z"/>
				<path fill="#70EDFF" d="M0.785,0.6c0,0.023-0.011,0.046-0.03,0.068c-0.149-0.01-0.25-0.088-0.25-0.158
					c0-0.019,0.007-0.037,0.02-0.055C0.549,0.42,0.569,0.382,0.583,0.342c0.012-0.038,0.02-0.078,0.022-0.12
					c0.001-0.008,0.001-0.016,0.001-0.024c0-0.023,0.004-0.045,0.012-0.066c0.005,0.003,0.01,0.007,0.014,0.012
					c0.035,0.035,0.055,0.082,0.055,0.131v0.013c0,0.095,0.028,0.184,0.08,0.257C0.779,0.563,0.785,0.582,0.785,0.6z"/>
			</g>
			<path fill="#A7C8DE" d="M0.604,0.223c-0.002,0.042-0.01,0.082-0.022,0.12C0.573,0.348,0.561,0.35,0.55,0.35
				c-0.042,0-0.075-0.034-0.075-0.075C0.475,0.233,0.508,0.2,0.55,0.2C0.571,0.2,0.59,0.209,0.604,0.223z"/>
			<path fill="#C8F4FF" d="M0.625,0.275c0,0.03-0.017,0.056-0.043,0.067c0.012-0.038,0.02-0.078,0.022-0.12
				C0.617,0.236,0.625,0.254,0.625,0.275z"/>
		</g>
	</g>
</g>
</svg>
