<?xml version="1.0" encoding="utf-8"?>
<!-- Generator: Adobe Illustrator 24.1.2, SVG Export Plug-In . SVG Version: 6.00 Build 0)  -->
<svg version="1.1" id="Capa_1" xmlns="http://www.w3.org/2000/svg" xmlns:xlink="http://www.w3.org/1999/xlink" x="0px" y="0px"
	 width="1px" height="1.8px" viewBox="0 0 1 1.8" enable-background="new 0 0 1 1.8" xml:space="preserve">
<path id="rect10315" fill="#0A0F32" fill-opacity="0.2" d="M0.1,1.4h0.8C0.955,1.4,1,1.445,1,1.5v0.2c0,0.055-0.045,0.1-0.1,0.1H0.1
	C0.045,1.8,0,1.755,0,1.7V1.5C0,1.445,0.045,1.4,0.1,1.4z"/>
<g>
	<path fill="#1D183B" d="M1,0.2v1.3H0V0.2C0,0.089,0.089,0,0.2,0h0.6C0.911,0,1,0.089,1,0.2z"/>
	<path fill="#201D43" d="M0.9,0.25V1.4H0.1V0.25c0-0.083,0.067-0.15,0.15-0.15h0.5C0.833,0.1,0.9,0.167,0.9,0.25z"/>
	<path fill="#232050" d="M0.35,1.141V1.4h-0.1V1.15h0.058C0.323,1.15,0.337,1.147,0.35,1.141z"/>
	<rect x="0.65" y="1.15" fill="#161433" width="0.1" height="0.25"/>
	<path fill="#1A183C" d="M0.65,1.15V1.4h-0.3V1.141C0.361,1.136,0.371,1.129,0.38,1.12l0.035-0.035
		c0.01-0.01,0.023-0.014,0.036-0.014s0.026,0.005,0.036,0.014L0.52,1.12c0.009,0.008,0.019,0.015,0.03,0.021
		C0.563,1.147,0.577,1.15,0.592,1.15H0.65z"/>
	<path fill="#211B44" d="M0.35,1v0.141C0.337,1.147,0.323,1.15,0.308,1.15H0.25V1H0.35z"/>
	<rect x="0.65" y="1" fill="#15112A" width="0.1" height="0.15"/>
	<path fill="#181434" d="M0.9,0.35V1c0,0.083-0.067,0.15-0.15,0.15V1h-0.1v0.15H0.592c-0.015,0-0.029-0.003-0.042-0.009
		C0.539,1.136,0.529,1.129,0.52,1.12L0.486,1.085c-0.01-0.01-0.023-0.014-0.036-0.014S0.424,1.076,0.414,1.085L0.38,1.12
		C0.371,1.129,0.361,1.136,0.35,1.141V1h-0.1v0.15C0.167,1.15,0.1,1.083,0.1,1V0.35c0-0.083,0.067-0.15,0.15-0.15h0.5
		C0.833,0.2,0.9,0.267,0.9,0.35z"/>
	<path fill="#342875" d="M0.9,0.25V0.9c0,0.083-0.067,0.15-0.15,0.15H0.592c-0.015,0-0.029-0.003-0.042-0.009
		C0.539,1.036,0.529,1.029,0.52,1.02L0.486,0.985c-0.01-0.01-0.023-0.014-0.036-0.014S0.424,0.976,0.414,0.985L0.38,1.02
		C0.371,1.029,0.361,1.036,0.35,1.041C0.337,1.047,0.323,1.05,0.308,1.05H0.25C0.167,1.05,0.1,0.983,0.1,0.9V0.25
		c0-0.083,0.067-0.15,0.15-0.15h0.5C0.833,0.1,0.9,0.167,0.9,0.25z"/>
	<path fill="#413488" d="M0.45,0.721v0.25c-0.013,0-0.026,0.005-0.036,0.014L0.38,1.02C0.371,1.029,0.361,1.036,0.35,1.041v-0.25
		C0.361,0.786,0.371,0.779,0.38,0.77l0.035-0.035C0.424,0.726,0.437,0.721,0.45,0.721z"/>
	<path fill="#30256A" d="M0.55,0.791v0.25C0.539,1.036,0.529,1.029,0.52,1.02L0.486,0.985c-0.01-0.01-0.023-0.014-0.036-0.014v-0.25
		c0.013,0,0.026,0.005,0.036,0.014L0.52,0.77C0.529,0.779,0.539,0.786,0.55,0.791z"/>
	<path fill="#7563D7" d="M0.885,0.515L0.885,0.515c-0.02,0.02-0.02,0.051,0,0.071l0,0C0.895,0.595,0.9,0.607,0.9,0.621V0.65
		c0,0.083-0.067,0.15-0.15,0.15H0.592c-0.015,0-0.029-0.003-0.042-0.009C0.539,0.786,0.529,0.779,0.52,0.77L0.486,0.735
		c-0.01-0.01-0.023-0.014-0.036-0.014S0.424,0.726,0.414,0.735L0.38,0.77C0.371,0.779,0.361,0.786,0.35,0.791
		C0.337,0.797,0.323,0.8,0.308,0.8H0.25C0.167,0.8,0.1,0.733,0.1,0.65V0.471c0-0.013,0.005-0.026,0.015-0.035l0,0
		c0.02-0.02,0.02-0.051,0-0.071l0,0C0.105,0.355,0.1,0.343,0.1,0.329V0.25c0-0.083,0.067-0.15,0.15-0.15h0.5
		c0.083,0,0.15,0.067,0.15,0.15v0.229C0.9,0.493,0.895,0.505,0.885,0.515z"/>
	<path fill="#5E4CC7" d="M0.778,0.497c-0.029,0.029-0.029,0.077,0,0.106L0.786,0.61C0.795,0.62,0.8,0.632,0.8,0.645V0.65
		c0,0.027-0.023,0.05-0.05,0.05H0.631c-0.02,0-0.039-0.008-0.053-0.022L0.556,0.656c-0.059-0.059-0.154-0.059-0.212,0L0.322,0.678
		C0.308,0.692,0.289,0.7,0.269,0.7H0.25C0.222,0.7,0.2,0.678,0.2,0.65V0.495c0-0.013,0.005-0.026,0.014-0.035l0.008-0.007
		c0.029-0.029,0.029-0.077,0-0.106L0.214,0.339C0.205,0.33,0.2,0.317,0.2,0.304V0.25c0-0.028,0.022-0.05,0.05-0.05h0.5
		c0.027,0,0.05,0.022,0.05,0.05v0.204c0,0.013-0.005,0.026-0.014,0.035L0.778,0.497z"/>
</g>
</svg>
