<?xml version="1.0" encoding="utf-8"?>
<!-- Generator: Adobe Illustrator 24.1.2, SVG Export Plug-In . SVG Version: 6.00 Build 0)  -->
<svg version="1.1" id="Capa_1" xmlns="http://www.w3.org/2000/svg" xmlns:xlink="http://www.w3.org/1999/xlink" x="0px" y="0px"
	 width="1.05px" height="1.9px" viewBox="0 0 1.05 1.9" enable-background="new 0 0 1.05 1.9" xml:space="preserve">
<circle id="circle16099" fill="#0A0F32" fill-opacity="0.2" cx="0.5" cy="1.4" r="0.5"/>
<g>
	<path fill="#002B62" d="M0.483,0.75H0.9l0,0.206c0,0.073-0.005,0.137-0.014,0.194C0.867,1.274,0.83,1.364,0.787,1.429
		C0.686,1.578,0.55,1.597,0.511,1.599C0.504,1.6,0.5,1.6,0.5,1.6c-0.336,0-0.461-0.283-0.491-0.373c-0.001,0-0.001,0-0.001-0.001
		C0.005,1.219,0.004,1.213,0.002,1.208C0.001,1.203,0,1.2,0,1.2l0-0.8C0.311,0.4,0.441,0.642,0.483,0.75z"/>
	<path fill="#0D75AE" d="M0.25,0.556c0.002,0.001,0.003,0.001,0.006,0.002c0.011,0.005,0.022,0.011,0.032,0.018
		c0.009,0.006,0.018,0.012,0.026,0.018C0.318,0.597,0.322,0.6,0.326,0.603c0.039,0.031,0.071,0.065,0.096,0.098
		c0.005,0.008,0.011,0.015,0.015,0.022C0.443,0.732,0.449,0.741,0.454,0.75H0.8v0.43c0,0.015-0.001,0.03-0.003,0.045
		C0.78,1.345,0.698,1.449,0.583,1.486c-0.003,0-0.004,0.001-0.006,0.001C0.57,1.49,0.562,1.492,0.554,1.493
		c-0.005,0.001-0.01,0.002-0.015,0.003C0.535,1.498,0.53,1.498,0.527,1.498C0.51,1.501,0.5,1.5,0.5,1.5H0.495
		c-0.013,0-0.026-0.001-0.038-0.002c-0.006,0-0.012,0-0.018-0.001C0.433,1.496,0.428,1.496,0.423,1.495
		c-0.006,0-0.011-0.001-0.016-0.002C0.38,1.49,0.355,1.485,0.332,1.478C0.324,1.476,0.318,1.474,0.311,1.472
		C0.308,1.471,0.306,1.47,0.304,1.47C0.303,1.469,0.302,1.468,0.3,1.468c-0.001,0-0.001-0.001-0.002-0.001c0,0-0.001,0-0.002-0.001
		c-0.003,0-0.006-0.002-0.008-0.003C0.283,1.461,0.277,1.46,0.272,1.457C0.268,1.456,0.264,1.454,0.261,1.453
		C0.259,1.452,0.258,1.451,0.256,1.451c-0.013-0.006-0.027-0.013-0.039-0.02C0.212,1.429,0.208,1.426,0.204,1.423
		c-0.016-0.01-0.032-0.02-0.046-0.03C0.157,1.392,0.155,1.391,0.154,1.39C0.148,1.386,0.142,1.382,0.137,1.376
		C0.134,1.374,0.131,1.372,0.128,1.369C0.07,1.317,0.027,1.251,0.001,1.178C0,1.178,0,1.178,0,1.177L0,0.5
		C0.102,0.5,0.184,0.523,0.25,0.556z"/>
	<path fill="#1AACD1" d="M0.454,0.75H0.9v0.106c0,0.029-0.001,0.058-0.002,0.085C0.897,0.949,0.896,0.957,0.896,0.966
		C0.895,0.987,0.892,1.007,0.89,1.026C0.883,1.033,0.874,1.04,0.867,1.046C0.851,1.06,0.833,1.073,0.815,1.085
		c-0.01,0.006-0.019,0.012-0.029,0.018C0.783,1.104,0.782,1.104,0.78,1.106C0.771,1.11,0.762,1.115,0.752,1.12
		C0.731,1.13,0.708,1.139,0.683,1.146C0.67,1.151,0.658,1.154,0.645,1.157C0.601,1.167,0.553,1.173,0.5,1.173
		c-0.003,0-0.006,0-0.008,0c0-0.001,0-0.002-0.001-0.002C0.49,1.17,0.49,1.169,0.49,1.167c-0.001-0.003-0.002-0.006-0.004-0.01
		c0,0-0.001-0.002-0.001-0.003C0.483,1.15,0.482,1.146,0.48,1.142C0.467,1.111,0.448,1.071,0.42,1.029
		c-0.013-0.02-0.028-0.04-0.046-0.06c0-0.001,0-0.001,0-0.001c-0.01-0.011-0.019-0.021-0.03-0.031
		c-0.01-0.011-0.021-0.02-0.032-0.029c0,0,0,0-0.001-0.001C0.3,0.898,0.287,0.888,0.274,0.88C0.262,0.871,0.249,0.863,0.236,0.857
		C0.227,0.852,0.219,0.848,0.211,0.844C0.202,0.84,0.194,0.836,0.186,0.833C0.177,0.83,0.169,0.827,0.161,0.825
		c0-0.001,0-0.001-0.001-0.001c-0.054-0.018-0.1-0.023-0.129-0.023c-0.008-0.001-0.015,0-0.02,0C0.008,0.8,0.004,0.8,0,0.8l0-0.3
		C0.259,0.5,0.392,0.646,0.454,0.75z"/>
	<path fill="#0A90BE" d="M0.295,0.844C0.317,0.86,0.339,0.879,0.36,0.902c0.009,0.011,0.018,0.021,0.027,0.031
		c0.001,0.001,0.001,0.002,0.002,0.002c0.008,0.01,0.016,0.022,0.024,0.033C0.42,0.979,0.427,0.99,0.434,1
		c0.018,0.029,0.031,0.057,0.041,0.08c0.005,0.012,0.01,0.024,0.014,0.035c0,0.001,0.001,0.001,0,0.002
		C0.49,1.12,0.491,1.121,0.491,1.122h0.001c0.005,0.014,0.01,0.028,0.015,0.043C0.502,1.174,0.498,1.182,0.494,1.19
		C0.47,1.238,0.409,1.268,0.358,1.254C0.13,1.19,0.037,0.981,0.01,0.903C0.009,0.902,0.009,0.901,0.008,0.901
		C0.006,0.9,0.003,0.9,0,0.9l0-0.15C0.126,0.75,0.222,0.789,0.295,0.844z"/>
	
		<linearGradient id="SVGID_1_" gradientUnits="userSpaceOnUse" x1="0.9815" y1="0.6" x2="0.9815" y2="0.1235" gradientTransform="matrix(-1 0 0 -1 1.05 1.5)">
		<stop  offset="0" style="stop-color:#0D75AE;stop-opacity:0"/>
		<stop  offset="0.7" style="stop-color:#02376F;stop-opacity:0.3"/>
		<stop  offset="1" style="stop-color:#002B62;stop-opacity:0.5"/>
	</linearGradient>
	<path fill="url(#SVGID_1_)" d="M0.137,1.376C0.136,1.376,0.136,1.376,0.137,1.376C0.133,1.374,0.13,1.371,0.128,1.369
		C0.07,1.317,0.027,1.251,0.001,1.178C0,1.178,0,1.178,0,1.177L0,0.9C0,0.9,0,1.135,0.137,1.376z"/>
	<g>
		<path opacity="0.5" fill="#056173" enable-background="new    " d="M0.191,0.896c0.041-0.05,0.059-0.115,0.059-0.18v-0.16
			c0.002,0.001,0.003,0.001,0.006,0.002c0.011,0.005,0.022,0.011,0.032,0.018c0.009,0.006,0.018,0.012,0.026,0.018
			C0.318,0.597,0.322,0.6,0.326,0.603c0.039,0.031,0.071,0.065,0.096,0.098c0.005,0.008,0.011,0.015,0.015,0.022
			C0.443,0.732,0.449,0.741,0.454,0.75H0.8v0.43c0,0.015-0.001,0.03-0.003,0.045C0.737,1.241,0.67,1.25,0.6,1.25
			c-0.064,0-0.127-0.008-0.183-0.021C0.405,1.226,0.395,1.218,0.389,1.207L0.373,1.184C0.364,1.171,0.349,1.163,0.334,1.163
			c-0.007,0-0.014,0.002-0.021,0.005C0.298,1.176,0.28,1.176,0.265,1.167C0.194,1.123,0.15,1.064,0.15,1
			C0.15,0.963,0.164,0.927,0.191,0.896z"/>
		<path fill="#004336" d="M0.191,0.846c0.041-0.05,0.059-0.115,0.059-0.18V0.5c0-0.096,0.039-0.184,0.103-0.247
			C0.416,0.189,0.504,0.15,0.6,0.15c0.02,0,0.042,0.002,0.063,0.005C0.832,0.186,0.95,0.341,0.95,0.513v0.153
			c0,0.065,0.018,0.13,0.059,0.18C1.036,0.877,1.05,0.913,1.05,0.95c0,0.138-0.202,0.25-0.45,0.25c-0.065,0-0.127-0.008-0.183-0.022
			C0.405,1.175,0.395,1.167,0.388,1.157L0.373,1.134C0.36,1.115,0.334,1.108,0.313,1.118l0,0C0.298,1.126,0.28,1.126,0.266,1.117
			C0.194,1.073,0.15,1.014,0.15,0.95C0.15,0.913,0.164,0.877,0.191,0.846z"/>
		<path fill="#108E6B" d="M0.247,0.893c0.004-0.004,0.007-0.008,0.01-0.012c0.005-0.006,0.01-0.012,0.014-0.019
			C0.273,0.86,0.274,0.858,0.275,0.857c0.003-0.006,0.006-0.012,0.01-0.018c0.001-0.002,0.003-0.005,0.004-0.007
			c0.003-0.007,0.006-0.013,0.008-0.02c0.004-0.009,0.007-0.017,0.01-0.026c0.011-0.037,0.018-0.078,0.018-0.12V0.5
			c0-0.072,0.03-0.143,0.081-0.194c0.039-0.04,0.091-0.067,0.146-0.077C0.568,0.226,0.584,0.225,0.6,0.225
			c0.017,0,0.033,0.001,0.049,0.004c0.129,0.023,0.226,0.145,0.226,0.284v0.153c0,0.003,0,0.007,0.001,0.01
			C0.877,0.754,0.9,0.826,0.942,0.881c0.003,0.004,0.006,0.008,0.01,0.012c0.015,0.02,0.023,0.039,0.023,0.057
			c0,0.082-0.161,0.175-0.375,0.175c-0.048,0-0.092-0.004-0.133-0.013C0.454,1.11,0.443,1.102,0.436,1.091L0.41,1.053
			c-0.02-0.03-0.059-0.041-0.092-0.025l0,0C0.299,1.038,0.276,1.035,0.261,1.02C0.238,0.997,0.225,0.973,0.225,0.95
			C0.225,0.932,0.233,0.913,0.247,0.893z"/>
		<path fill="#16AB7B" d="M0.247,0.893c0.004-0.004,0.007-0.008,0.01-0.012c0.006-0.006,0.01-0.012,0.014-0.019
			C0.273,0.86,0.274,0.858,0.275,0.857c0.003-0.006,0.007-0.012,0.01-0.018c0.001-0.002,0.003-0.005,0.004-0.007
			c0.003-0.006,0.006-0.013,0.008-0.02c0.004-0.009,0.008-0.017,0.01-0.026c0.011-0.037,0.018-0.078,0.018-0.12V0.5
			c0-0.072,0.03-0.143,0.081-0.194c0.039-0.04,0.091-0.067,0.146-0.077C0.583,0.284,0.6,0.348,0.6,0.413v0.153
			c0,0.065,0.018,0.13,0.059,0.18C0.686,0.777,0.7,0.813,0.7,0.85c0,0.102-0.111,0.191-0.271,0.23L0.41,1.053
			c-0.02-0.03-0.059-0.041-0.092-0.025l0,0C0.299,1.038,0.276,1.035,0.261,1.02C0.238,0.997,0.225,0.973,0.225,0.95
			C0.225,0.932,0.233,0.913,0.247,0.893z"/>
		<circle fill="#9EDFCB" cx="0.5" cy="0.45" r="0.1"/>
		<path fill="#63C8BD" d="M0.324,0.676C0.36,0.652,0.402,0.647,0.439,0.664c0.063,0.029,0.084,0.114,0.049,0.189
			C0.453,0.928,0.374,0.965,0.311,0.935c-0.024-0.011-0.042-0.03-0.053-0.054C0.3,0.826,0.323,0.754,0.324,0.676z"/>
		<path fill="#3B928D" d="M0.761,0.664C0.798,0.647,0.84,0.652,0.876,0.676C0.877,0.754,0.9,0.826,0.942,0.881
			C0.931,0.905,0.913,0.924,0.889,0.935c-0.062,0.03-0.141-0.007-0.177-0.081C0.677,0.779,0.698,0.693,0.761,0.664z"/>
	</g>
</g>
</svg>
