<?xml version="1.0" encoding="utf-8"?>
<!-- Generator: Adobe Illustrator 24.1.2, SVG Export Plug-In . SVG Version: 6.00 Build 0)  -->
<svg version="1.1" id="Capa_1" xmlns="http://www.w3.org/2000/svg" xmlns:xlink="http://www.w3.org/1999/xlink" x="0px" y="0px"
	 width="1.1px" height="1.95px" viewBox="0 0 1.1 1.95" enable-background="new 0 0 1.1 1.95" xml:space="preserve">
<g>
	<g>
		<path fill="#004336" d="M1,1.05c0,0.064-0.044,0.123-0.116,0.167C0.87,1.226,0.852,1.226,0.837,1.218l0,0
			c-0.021-0.01-0.047-0.003-0.06,0.016L0.762,1.257c-0.007,0.01-0.017,0.018-0.029,0.021C0.677,1.292,0.615,1.3,0.55,1.3
			C0.302,1.3,0.1,1.188,0.1,1.05c0-0.037,0.014-0.073,0.041-0.104C0.182,0.896,0.2,0.831,0.2,0.766V0.613
			c0-0.172,0.118-0.327,0.287-0.358C0.508,0.252,0.53,0.25,0.55,0.25c0.096,0,0.184,0.039,0.247,0.103
			C0.861,0.416,0.9,0.504,0.9,0.6v0.166c0,0.065,0.018,0.13,0.059,0.18C0.986,0.977,1,1.013,1,1.05z"/>
		<path fill="#108E6B" d="M0.925,1.05c0,0.023-0.013,0.047-0.036,0.07C0.874,1.135,0.851,1.138,0.832,1.128l0,0
			C0.799,1.112,0.76,1.123,0.74,1.153L0.714,1.191C0.707,1.202,0.696,1.21,0.683,1.212C0.642,1.221,0.598,1.225,0.55,1.225
			c-0.214,0-0.375-0.093-0.375-0.175c0-0.018,0.008-0.037,0.023-0.057c0.004-0.004,0.007-0.008,0.01-0.012
			C0.25,0.926,0.273,0.854,0.274,0.776c0.001-0.003,0.001-0.007,0.001-0.01V0.613c0-0.139,0.097-0.261,0.226-0.284
			C0.517,0.326,0.533,0.325,0.55,0.325c0.016,0,0.032,0.001,0.048,0.004c0.055,0.01,0.107,0.037,0.146,0.077
			C0.795,0.457,0.825,0.528,0.825,0.6v0.166c0,0.042,0.007,0.083,0.018,0.12c0.003,0.009,0.006,0.017,0.01,0.026
			c0.002,0.007,0.005,0.013,0.008,0.02c0.001,0.002,0.003,0.005,0.004,0.007c0.004,0.006,0.007,0.012,0.01,0.018
			C0.876,0.958,0.877,0.96,0.879,0.962c0.004,0.007,0.009,0.013,0.014,0.019c0.003,0.004,0.006,0.008,0.01,0.012
			C0.917,1.013,0.925,1.032,0.925,1.05z"/>
		<path fill="#16AB7B" d="M0.925,1.05c0,0.023-0.013,0.047-0.036,0.07C0.874,1.135,0.851,1.138,0.832,1.128l0,0
			C0.799,1.112,0.76,1.123,0.74,1.153L0.721,1.18C0.561,1.141,0.45,1.052,0.45,0.95c0-0.037,0.014-0.073,0.041-0.104
			c0.041-0.05,0.059-0.115,0.059-0.18V0.513c0-0.065,0.017-0.129,0.048-0.184c0.055,0.01,0.107,0.037,0.146,0.077
			C0.795,0.457,0.825,0.528,0.825,0.6v0.166c0,0.042,0.007,0.083,0.018,0.12c0.002,0.009,0.006,0.017,0.01,0.026
			c0.002,0.007,0.005,0.014,0.008,0.02c0.001,0.002,0.003,0.005,0.004,0.007c0.003,0.006,0.007,0.012,0.01,0.018
			C0.876,0.958,0.877,0.96,0.879,0.962c0.004,0.007,0.008,0.013,0.014,0.019c0.003,0.004,0.006,0.008,0.01,0.012
			C0.917,1.013,0.925,1.032,0.925,1.05z"/>
		<circle fill="#9EDFCB" cx="0.65" cy="0.55" r="0.1"/>
		<path fill="#63C8BD" d="M0.892,0.981C0.881,1.005,0.863,1.024,0.839,1.035c-0.063,0.03-0.142-0.007-0.177-0.082
			c-0.035-0.075-0.014-0.16,0.049-0.189C0.748,0.747,0.79,0.752,0.826,0.776C0.827,0.854,0.85,0.926,0.892,0.981z"/>
		<path fill="#3B928D" d="M0.438,0.954C0.402,1.028,0.323,1.065,0.261,1.035c-0.024-0.011-0.042-0.03-0.053-0.054
			C0.25,0.926,0.273,0.854,0.274,0.776C0.31,0.752,0.352,0.747,0.389,0.764C0.452,0.793,0.473,0.879,0.438,0.954z"/>
	</g>
	<path fill="#002B62" d="M0.9,1.15v0.8H0.2v-0.8c0-0.193,0.158-0.35,0.35-0.35c0.096,0,0.184,0.039,0.247,0.103
		C0.861,0.966,0.9,1.054,0.9,1.15z"/>
	<path fill="#66BBEE" d="M0.8,1.1v0.15C0.8,1.112,0.688,1,0.55,1S0.3,1.112,0.3,1.25V1.1c0-0.138,0.112-0.25,0.25-0.25
		S0.8,0.962,0.8,1.1z"/>
	<path fill="#197AB7" d="M0.8,1.25v0.7H0.3v-0.7C0.3,1.112,0.412,1,0.55,1S0.8,1.112,0.8,1.25z"/>
	<path fill="#0A8FBF" d="M0.65,1.02V1.8h-0.2V1.02C0.48,1.007,0.514,1,0.55,1S0.62,1.007,0.65,1.02z"/>
	<g>
		<circle opacity="0.5" fill="#056173" enable-background="new    " cx="0.7" cy="1.2" r="0.15"/>
		<circle fill="#004336" cx="0.7" cy="1.15" r="0.15"/>
		<path fill="#159383" d="M0.8,1.15c0,0.014-0.003,0.029-0.009,0.041C0.776,1.226,0.74,1.25,0.7,1.25c-0.055,0-0.1-0.045-0.1-0.1
			c0-0.04,0.024-0.076,0.059-0.091C0.671,1.053,0.686,1.05,0.7,1.05C0.755,1.05,0.8,1.095,0.8,1.15z"/>
		<path fill="#1AB19E" d="M0.8,1.15c0,0.014-0.003,0.029-0.009,0.041C0.779,1.197,0.764,1.2,0.75,1.2c-0.055,0-0.1-0.045-0.1-0.1
			c0-0.015,0.003-0.029,0.009-0.041C0.671,1.053,0.686,1.05,0.7,1.05C0.755,1.05,0.8,1.095,0.8,1.15z"/>
	</g>
	<g>
		<path opacity="0.5" fill="#056173" enable-background="new    " d="M0.2,1.2v0.255c0.011,0.017,0.024,0.03,0.035,0.04
			s0.026,0.017,0.04,0.021c0.037,0.009,0.076-0.003,0.101-0.033c0.035-0.041,0.03-0.104-0.009-0.138
			c-0.002-0.002-0.039-0.04-0.019-0.121c0.014-0.053-0.019-0.108-0.073-0.121C0.254,1.098,0.232,1.099,0.213,1.108
			C0.205,1.138,0.2,1.168,0.2,1.2z"/>
		<path fill="#0D4768" d="M0.154,1.126c-0.04,0.162,0.032,0.276,0.081,0.318c0.011,0.01,0.026,0.017,0.041,0.021
			c0.037,0.009,0.075-0.003,0.1-0.032c0.036-0.041,0.031-0.104-0.009-0.139c-0.002-0.001-0.039-0.04-0.019-0.12
			c0.013-0.053-0.019-0.108-0.073-0.121S0.168,1.072,0.154,1.126z"/>
		<path fill="#4DADC5" d="M0.203,1.138C0.16,1.312,0.263,1.402,0.267,1.406C0.273,1.412,0.28,1.415,0.288,1.417
			c0.018,0.004,0.037-0.001,0.05-0.016c0.018-0.021,0.016-0.052-0.005-0.07C0.33,1.328,0.272,1.273,0.3,1.162
			c0.007-0.027-0.01-0.054-0.036-0.061C0.237,1.095,0.21,1.111,0.203,1.138z"/>
		<path fill="#004336" d="M0.45,1.2c0,0.035-0.018,0.068-0.05,0.094C0.359,1.329,0.296,1.35,0.225,1.35S0.091,1.329,0.05,1.294
			C0.018,1.268,0,1.235,0,1.2c0-0.018,0.005-0.036,0.014-0.052C0.036,1.11,0.05,1.068,0.05,1.025C0.05,0.901,0.129,0.8,0.225,0.8
			c0.048,0,0.092,0.025,0.123,0.066C0.38,0.907,0.4,0.963,0.4,1.025c0,0.043,0.014,0.085,0.036,0.123
			C0.445,1.164,0.45,1.182,0.45,1.2z"/>
		<path fill="#108E6B" d="M0.4,1.2c0,0.026-0.02,0.045-0.032,0.055C0.349,1.271,0.324,1.283,0.296,1.29
			C0.274,1.297,0.249,1.3,0.225,1.3c-0.057,0-0.11-0.017-0.143-0.045C0.07,1.245,0.05,1.226,0.05,1.2
			c0-0.01,0.002-0.019,0.008-0.028C0.086,1.121,0.1,1.073,0.1,1.025C0.1,0.93,0.157,0.85,0.225,0.85c0.002,0,0.003,0,0.005,0.001
			c0.066,0.003,0.12,0.082,0.12,0.174c0,0.01,0.001,0.02,0.002,0.03c0.005,0.036,0.017,0.071,0.037,0.109
			c0,0.003,0.002,0.006,0.003,0.008C0.398,1.181,0.4,1.19,0.4,1.2z"/>
		<path fill="#16AB7B" d="M0.4,1.2c0,0.026-0.02,0.045-0.032,0.055C0.349,1.271,0.324,1.283,0.296,1.29
			C0.258,1.281,0.225,1.265,0.2,1.244C0.168,1.218,0.15,1.185,0.15,1.15c0-0.018,0.005-0.036,0.014-0.052
			C0.186,1.06,0.2,1.018,0.2,0.975c0-0.046,0.011-0.089,0.03-0.124c0.066,0.003,0.12,0.082,0.12,0.174
			c0,0.048,0.014,0.096,0.042,0.147C0.398,1.181,0.4,1.19,0.4,1.2z"/>
		<circle fill="#9EDFCB" cx="0.25" cy="0.95" r="0.05"/>
		<path fill="#63C8BD" d="M0.389,1.164C0.376,1.186,0.352,1.2,0.325,1.2C0.283,1.2,0.25,1.166,0.25,1.125
			c0-0.042,0.033-0.075,0.075-0.075c0.01,0,0.018,0.002,0.027,0.005C0.357,1.091,0.368,1.127,0.389,1.164z"/>
	</g>
	<g>
		<path opacity="0.5" fill="#056173" enable-background="new    " d="M0.9,1.55v0.255c-0.011,0.017-0.024,0.03-0.035,0.04
			c-0.011,0.01-0.026,0.017-0.04,0.021C0.788,1.874,0.749,1.862,0.724,1.833c-0.035-0.041-0.03-0.104,0.009-0.138
			c0.002-0.002,0.039-0.04,0.019-0.121C0.738,1.521,0.771,1.466,0.824,1.453c0.021-0.005,0.043-0.004,0.063,0.005
			C0.895,1.487,0.9,1.518,0.9,1.55z"/>
		<path fill="#0D4768" d="M0.946,1.476c0.041,0.162-0.031,0.276-0.081,0.319c-0.011,0.01-0.026,0.017-0.041,0.021
			c-0.037,0.009-0.075-0.003-0.1-0.032c-0.036-0.042-0.031-0.105,0.009-0.14c0.002-0.001,0.039-0.04,0.019-0.12
			C0.738,1.471,0.771,1.416,0.824,1.403C0.878,1.39,0.932,1.422,0.946,1.476z"/>
		<path fill="#4DADC5" d="M0.897,1.488c0.043,0.174-0.06,0.264-0.064,0.268C0.826,1.762,0.819,1.765,0.812,1.767
			c-0.018,0.004-0.037-0.001-0.05-0.016C0.744,1.73,0.747,1.699,0.767,1.681C0.77,1.678,0.828,1.623,0.8,1.512
			C0.793,1.485,0.81,1.458,0.836,1.451S0.89,1.461,0.897,1.488z"/>
		<path fill="#004336" d="M1.05,1.575c0,0.069-0.089,0.125-0.2,0.125s-0.2-0.056-0.2-0.125c0-0.016,0.005-0.031,0.014-0.045
			C0.685,1.495,0.7,1.458,0.7,1.417v-0.01c0-0.065,0.038-0.126,0.098-0.148C0.816,1.253,0.833,1.25,0.85,1.25
			c0.041,0,0.079,0.017,0.106,0.044C0.983,1.321,1,1.359,1,1.4v0.017c0,0.04,0.015,0.078,0.036,0.112
			C1.045,1.544,1.05,1.559,1.05,1.575z"/>
		<path fill="#108E6B" d="M1,1.575c0,0.007-0.002,0.013-0.007,0.02C0.982,1.613,0.957,1.629,0.923,1.64c-0.001,0-0.001,0-0.001,0
			C0.901,1.646,0.876,1.65,0.85,1.65c-0.086,0-0.15-0.04-0.15-0.075c0-0.006,0.002-0.013,0.006-0.019
			C0.736,1.508,0.75,1.463,0.75,1.417v-0.01c0-0.046,0.027-0.087,0.065-0.101C0.827,1.302,0.839,1.3,0.85,1.3
			c0.004,0,0.007,0,0.01,0.001c0.007,0,0.013,0.002,0.019,0.004C0.886,1.307,0.893,1.31,0.9,1.314
			c0.008,0.004,0.014,0.01,0.02,0.015c0.012,0.012,0.021,0.026,0.025,0.042C0.948,1.38,0.95,1.39,0.95,1.4v0.017
			c0,0.011,0.001,0.021,0.002,0.033v0.001c0.005,0.029,0.015,0.057,0.03,0.087C0.986,1.543,0.99,1.55,0.994,1.556
			C0.998,1.563,1,1.569,1,1.575z"/>
		<path fill="#16AB7B" d="M1,1.575c0,0.007-0.002,0.013-0.007,0.02C0.982,1.613,0.957,1.629,0.923,1.64c-0.001,0-0.001,0-0.001,0
			C0.85,1.621,0.8,1.576,0.8,1.525c0-0.016,0.005-0.031,0.014-0.045C0.835,1.445,0.85,1.408,0.85,1.367v-0.01
			c0-0.02,0.004-0.039,0.01-0.056c0.007,0,0.013,0.002,0.019,0.004C0.886,1.307,0.893,1.31,0.9,1.314
			c0.008,0.004,0.014,0.01,0.02,0.015c0.012,0.012,0.021,0.026,0.025,0.042C0.948,1.38,0.95,1.39,0.95,1.4v0.017
			c0,0.011,0.001,0.021,0.002,0.033v0.001c0.005,0.029,0.015,0.057,0.03,0.087C0.986,1.543,0.99,1.55,0.994,1.556
			C0.998,1.563,1,1.569,1,1.575z"/>
		<path fill="#63C8BD" d="M0.945,1.371C0.938,1.388,0.92,1.4,0.9,1.4c-0.027,0-0.05-0.023-0.05-0.05c0-0.02,0.012-0.038,0.029-0.046
			C0.886,1.307,0.893,1.31,0.9,1.314c0.008,0.004,0.014,0.01,0.02,0.015C0.933,1.341,0.941,1.355,0.945,1.371z"/>
		<path fill="#63C8BD" d="M0.983,1.538C0.974,1.545,0.962,1.55,0.95,1.55C0.923,1.55,0.9,1.527,0.9,1.5s0.023-0.05,0.05-0.05h0.002
			v0.001C0.957,1.479,0.967,1.507,0.983,1.538z"/>
	</g>
</g>
</svg>
