<?xml version="1.0" encoding="UTF-8" standalone="no"?>
<!-- Created with Inkscape (http://www.inkscape.org/) -->

<svg
   width="1"
   height="1.5"
   viewBox="0 0 1 1.5"
   version="1.1"
   id="svg5"
   sodipodi:docname="factory_wall_tl.svg"
   inkscape:version="1.2 (dc2aedaf03, 2022-05-15)"
   xml:space="preserve"
   xmlns:inkscape="http://www.inkscape.org/namespaces/inkscape"
   xmlns:sodipodi="http://sodipodi.sourceforge.net/DTD/sodipodi-0.dtd"
   xmlns="http://www.w3.org/2000/svg"
   xmlns:svg="http://www.w3.org/2000/svg"><sodipodi:namedview
     id="namedview7"
     pagecolor="#171717"
     bordercolor="#999999"
     borderopacity="1"
     inkscape:pageshadow="0"
     inkscape:pageopacity="0"
     inkscape:pagecheckerboard="0"
     inkscape:document-units="px"
     showgrid="false"
     units="px"
     inkscape:zoom="93.916665"
     inkscape:cx="2.6086957"
     inkscape:cy="1.3629104"
     inkscape:window-width="3440"
     inkscape:window-height="1417"
     inkscape:window-x="-8"
     inkscape:window-y="-8"
     inkscape:window-maximized="1"
     inkscape:current-layer="layer1"
     inkscape:object-paths="true"
     inkscape:snap-intersection-paths="true"
     inkscape:snap-smooth-nodes="true"
     inkscape:snap-midpoints="true"
     inkscape:snap-object-midpoints="true"
     showguides="false"
     inkscape:snap-global="true"
     inkscape:showpageshadow="0"
     inkscape:deskcolor="#171717"><inkscape:grid
       type="xygrid"
       id="grid836"
       originx="0"
       originy="0" /></sodipodi:namedview><defs
     id="defs2" /><g
     inkscape:label="Layer 1"
     inkscape:groupmode="layer"
     id="layer1"><g
       id="g77340"
       transform="scale(0.05)"><path
         id="path54267"
         style="fill:#242840;fill-opacity:1;stroke:none;stroke-width:4;stroke-linejoin:round;stroke-dasharray:none;paint-order:fill markers stroke"
         d="m 10,0 c 5.52285,0 10,4.477153 10,10 V 30 H 0 V 0 Z"
         sodipodi:nodetypes="sscccs" /><path
         id="path54269"
         style="fill:#606094;fill-opacity:1;stroke:none;stroke-width:4;stroke-linejoin:round;stroke-dasharray:none;paint-order:fill markers stroke"
         d="m 10,3 c 3.86599,0 7,3.134007 7,7 V 30 H 3 V 20 C 3,18.343146 1.65685,17 0,17 V 3 Z"
         sodipodi:nodetypes="ssccsccs" /><path
         id="path54271"
         style="fill:#8084b8;fill-opacity:1;stroke:none;stroke-width:4;stroke-linejoin:round;stroke-dasharray:none;paint-order:fill markers stroke"
         d="m 10,2 c 4.41828,0 8,3.58173 8,8 V 30 H 16 V 21 H 4 v 9 H 2 V 20 C 2,18.895431 1.10457,18 0,18 V 2 Z m 0,2 H 1 V 16.138672 C 2.76188,16.593579 3.9947,18.180348 4,20 H 16 V 10 C 16,6.686298 13.31371,4 10,4 Z"
         sodipodi:nodetypes="ssccccccsccssccccss" /><path
         id="path54273"
         style="color:#000000;fill:#343858;fill-opacity:1;stroke-width:2;stroke-linejoin:round;paint-order:fill markers stroke"
         d="M 13.5,2 C 15.31306,2 17,3.219886 17,5 V 6 C 17,7.780114 15.31306,9 13.5,9 11.68694,9 10,7.780114 10,6 V 5 c 0,-1.780114 1.68694,-3 3.5,-3 z m -9,0 C 6.31306,2 8,3.219886 8,5 V 6 C 8,7.780114 6.31306,9 4.5,9 2.68694,9 1,7.780114 1,6 V 5 C 1,3.219886 2.68694,2 4.5,2 Z m 9,10 c 1.81306,0 3.5,1.219886 3.5,3 v 1 c 0,1.780114 -1.68694,3 -3.5,3 C 11.68694,19 10,17.780114 10,16 v -1 c 0,-1.780114 1.68694,-3 3.5,-3 z m -9,0 C 6.31306,12 8,13.219886 8,15 v 1 C 8,17.780114 6.31306,19 4.5,19 2.68694,19 1,17.780114 1,16 v -1 c 0,-1.780114 1.68694,-3 3.5,-3 z" /><path
         id="path54275"
         style="fill:#8084b8;fill-opacity:1;stroke:none;stroke-width:2;stroke-linejoin:round;stroke-dasharray:none;paint-order:fill markers stroke"
         d="M 13.5,3 C 14.88071,3 16,3.895432 16,5 16,6.104568 14.88071,7 13.5,7 12.11929,7 11,6.104568 11,5 11,3.895432 12.11929,3 13.5,3 Z m -9,0 C 5.88071,3 7,3.895432 7,5 7,6.104568 5.88071,7 4.5,7 3.11929,7 2,6.104568 2,5 2,3.895432 3.11929,3 4.5,3 Z m 9,10 c 1.38071,0 2.5,0.895432 2.5,2 0,1.104568 -1.11929,2 -2.5,2 -1.38071,0 -2.5,-0.895432 -2.5,-2 0,-1.104568 1.11929,-2 2.5,-2 z m -9,0 C 5.88071,13 7,13.895432 7,15 7,16.104568 5.88071,17 4.5,17 3.11929,17 2,16.104568 2,15 2,13.895432 3.11929,13 4.5,13 Z" /><path
         id="path54277"
         style="fill:#8c90c0;fill-opacity:1;stroke:none;stroke-width:2;stroke-linejoin:round;stroke-dasharray:none;paint-order:fill markers stroke"
         d="m 13.5,3 c 1.04877,0.0057 1.98159,0.534524 2.33594,1.324219 C 15.43815,4.116851 14.97476,4.004393 14.5,4 13.11929,4 12,4.895432 12,6 12.005,6.231153 12.061,6.4598 12.16406,6.675781 11.44486,6.312057 11.00627,5.680669 11,5 11,3.895432 12.11929,3 13.5,3 Z m -9,0 C 5.54877,3.0057 6.48159,3.534524 6.83594,4.324219 6.43815,4.116851 5.97476,4.004393 5.5,4 4.11929,4 3,4.895432 3,6 3.005,6.231153 3.061,6.4598 3.16406,6.675781 2.44486,6.312057 2.00627,5.680669 2,5 2,3.895432 3.11929,3 4.5,3 Z m 9,10 c 1.04877,0.0057 1.98159,0.534524 2.33594,1.324219 C 15.43815,14.116851 14.97476,14.004393 14.5,14 13.11929,14 12,14.895432 12,16 c 0.005,0.231153 0.061,0.4598 0.16406,0.675781 C 11.44486,16.312057 11.00627,15.680669 11,15 c 0,-1.104568 1.11929,-2 2.5,-2 z m -9,0 c 1.04877,0.0057 1.98159,0.534524 2.33594,1.324219 C 6.43815,14.116851 5.97476,14.004393 5.5,14 4.11929,14 3,14.895432 3,16 3.005,16.231153 3.061,16.4598 3.16406,16.675781 2.44486,16.312057 2.00627,15.680669 2,15 2,13.895432 3.11929,13 4.5,13 Z" /></g></g></svg>
