<?xml version="1.0" encoding="UTF-8" standalone="no"?>
<!-- Created with Inkscape (http://www.inkscape.org/) -->

<svg
   width="1"
   height="1.65"
   viewBox="0 0 1 1.65"
   version="1.1"
   id="svg5"
   sodipodi:docname="factory_wall_l.svg"
   inkscape:version="1.2 (dc2aedaf03, 2022-05-15)"
   xml:space="preserve"
   xmlns:inkscape="http://www.inkscape.org/namespaces/inkscape"
   xmlns:sodipodi="http://sodipodi.sourceforge.net/DTD/sodipodi-0.dtd"
   xmlns:xlink="http://www.w3.org/1999/xlink"
   xmlns="http://www.w3.org/2000/svg"
   xmlns:svg="http://www.w3.org/2000/svg"><sodipodi:namedview
     id="namedview7"
     pagecolor="#171717"
     bordercolor="#999999"
     borderopacity="1"
     inkscape:pageshadow="0"
     inkscape:pageopacity="0"
     inkscape:pagecheckerboard="0"
     inkscape:document-units="px"
     showgrid="false"
     units="px"
     inkscape:zoom="256"
     inkscape:cx="0.96484375"
     inkscape:cy="0.953125"
     inkscape:window-width="3440"
     inkscape:window-height="1417"
     inkscape:window-x="-8"
     inkscape:window-y="-8"
     inkscape:window-maximized="1"
     inkscape:current-layer="layer1"
     inkscape:object-paths="true"
     inkscape:snap-intersection-paths="true"
     inkscape:snap-smooth-nodes="true"
     inkscape:snap-midpoints="true"
     inkscape:snap-object-midpoints="true"
     showguides="false"
     inkscape:snap-global="true"
     inkscape:showpageshadow="0"
     inkscape:deskcolor="#171717"><inkscape:grid
       type="xygrid"
       id="grid836"
       originx="0"
       originy="0" /></sodipodi:namedview><defs
     id="defs2"><linearGradient
       inkscape:collect="always"
       id="linearGradient25240"><stop
         style="stop-color:#8084b8;stop-opacity:1;"
         offset="0"
         id="stop25236" /><stop
         style="stop-color:#6c6ca4;stop-opacity:1;"
         offset="1"
         id="stop25238" /></linearGradient><linearGradient
       inkscape:collect="always"
       id="linearGradient25025"><stop
         style="stop-color:#606094;stop-opacity:1;"
         offset="0"
         id="stop25021" /><stop
         style="stop-color:#505488;stop-opacity:1;"
         offset="1"
         id="stop25023" /></linearGradient><linearGradient
       inkscape:collect="always"
       xlink:href="#linearGradient25240"
       id="linearGradient55231"
       gradientUnits="userSpaceOnUse"
       x1="183"
       y1="80"
       x2="179"
       y2="80"
       gradientTransform="matrix(-1,0,0,1,195,-70)" /><linearGradient
       inkscape:collect="always"
       xlink:href="#linearGradient25025"
       id="linearGradient55233"
       gradientUnits="userSpaceOnUse"
       x1="183"
       y1="80"
       x2="179"
       y2="80"
       gradientTransform="matrix(-1,0,0,1,195,-70)" /></defs><g
     inkscape:label="Layer 1"
     inkscape:groupmode="layer"
     id="layer1"><g
       id="g77386"
       transform="scale(0.05)"><path
         id="path55209"
         style="fill:#0f0f37;fill-opacity:0.2;stroke:none;stroke-width:4;stroke-linejoin:round;stroke-dasharray:none;paint-order:fill markers stroke"
         d="m 20,29 v 2 c 0,1.10457 -0.89543,2 -2,2 H 0 v -4 z"
         sodipodi:nodetypes="cssccc" /><path
         id="path55211"
         style="fill:#242840;fill-opacity:1;stroke:none;stroke-width:4;stroke-linejoin:round;stroke-dasharray:none;paint-order:fill markers stroke"
         d="m 14,0 c 3.31371,0 6,2.686292 6,6 V 30 H 0 V 0 Z"
         sodipodi:nodetypes="sscccs" /><rect
         style="fill:#343858;fill-opacity:1;stroke:none;stroke-width:4;stroke-linejoin:round;stroke-dasharray:none;paint-order:fill markers stroke"
         id="rect55213"
         width="17"
         height="10"
         x="1"
         y="-27"
         transform="scale(1,-1)" /><rect
         style="fill:#9c5400;fill-opacity:1;stroke:none;stroke-width:4;stroke-linejoin:round;stroke-dasharray:none;paint-order:fill markers stroke"
         id="rect55215"
         width="18"
         height="3"
         x="-18"
         y="25"
         transform="scale(-1,1)" /><rect
         style="fill:#bc7828;fill-opacity:1;stroke:none;stroke-width:4;stroke-linejoin:round;stroke-dasharray:none;paint-order:fill markers stroke"
         id="rect55217"
         width="18"
         height="1"
         x="-18"
         y="25"
         transform="scale(-1,1)" /><path
         id="path55219"
         style="fill:url(#linearGradient55231);fill-opacity:1;stroke:none;stroke-width:4;stroke-linejoin:round;stroke-dasharray:none;paint-order:fill markers stroke"
         d="m 14,2 c 2.20914,0 4,1.790861 4,4 v 16 c 0,-2.209139 -1.79086,-4 -4,-4 H 0 V 2 Z"
         sodipodi:nodetypes="sscsccs" /><path
         id="path55221"
         style="fill:url(#linearGradient55233);fill-opacity:1;stroke:none;stroke-width:4;stroke-linejoin:round;stroke-dasharray:none;paint-order:fill markers stroke"
         d="m 14,4 a 4,4 0 0 1 4,4 V 20 A 4,4 0 0 0 14,16 H 1 V 4 Z" /><path
         id="path55223"
         style="color:#000000;fill:#343858;fill-opacity:1;stroke-width:2;stroke-linejoin:round;paint-order:fill markers stroke"
         d="M 4.5,1 C 6.31306,1 8,2.219886 8,4 V 5 C 8,6.780114 6.31306,8 4.5,8 2.68694,8 1,6.780114 1,5 V 4 C 1,2.219886 2.68694,1 4.5,1 Z m 0,8 C 6.31306,9 8,10.219886 8,12 v 1 C 8,14.780114 6.31306,16 4.5,16 2.68694,16 1,14.780114 1,13 V 12 C 1,10.219886 2.68694,9 4.5,9 Z"
         sodipodi:nodetypes="ssssssssssssss" /><path
         id="path55225"
         style="fill:#8084b8;fill-opacity:1;stroke:none;stroke-width:2;stroke-linejoin:round;stroke-dasharray:none;paint-order:fill markers stroke"
         d="M 4.5,2 C 5.88071,2 7,2.895432 7,4 7,5.104568 5.88071,6 4.5,6 3.11929,6 2,5.104568 2,4 2,2.895432 3.11929,2 4.5,2 Z m 0,8 C 5.88071,10 7,10.895432 7,12 7,13.104568 5.88071,14 4.5,14 3.11929,14 2,13.104568 2,12 2,10.895432 3.11929,10 4.5,10 Z"
         sodipodi:nodetypes="ssssssssss" /><path
         id="path55227"
         style="fill:#8c90c0;fill-opacity:1;stroke:none;stroke-width:2;stroke-linejoin:round;stroke-dasharray:none;paint-order:fill markers stroke"
         d="M 4.5,2 C 5.54877,2.0057 6.48159,2.534524 6.83594,3.324219 6.43815,3.116851 5.97476,3.004393 5.5,3 4.11929,3 3,3.895432 3,5 3.005,5.231153 3.061,5.4598 3.16406,5.675781 2.44486,5.312057 2.00627,4.680669 2,4 2,2.895432 3.11929,2 4.5,2 Z m 0,8 c 1.04877,0.0057 1.98159,0.534524 2.33594,1.324219 C 6.43815,11.116851 5.97476,11.004393 5.5,11 4.11929,11 3,11.895432 3,13 3.005,13.231153 3.061,13.4598 3.16406,13.675781 2.44486,13.312057 2.00627,12.680669 2,12 2,10.895432 3.11929,10 4.5,10 Z"
         sodipodi:nodetypes="cccccccccccccc" /></g></g></svg>
