<?xml version="1.0" encoding="UTF-8" standalone="no"?>
<!-- Created with Inkscape (http://www.inkscape.org/) -->

<svg
   width="1"
   height="1.85"
   viewBox="0 0 1 1.85"
   version="1.1"
   id="svg5"
   sodipodi:docname="factory_vent.svg"
   inkscape:version="1.2 (dc2aedaf03, 2022-05-15)"
   xml:space="preserve"
   xmlns:inkscape="http://www.inkscape.org/namespaces/inkscape"
   xmlns:sodipodi="http://sodipodi.sourceforge.net/DTD/sodipodi-0.dtd"
   xmlns="http://www.w3.org/2000/svg"
   xmlns:svg="http://www.w3.org/2000/svg"><sodipodi:namedview
     id="namedview7"
     pagecolor="#171717"
     bordercolor="#999999"
     borderopacity="1"
     inkscape:pageshadow="0"
     inkscape:pageopacity="0"
     inkscape:pagecheckerboard="0"
     inkscape:document-units="px"
     showgrid="false"
     units="px"
     inkscape:zoom="256"
     inkscape:cx="1.0742188"
     inkscape:cy="1.0390625"
     inkscape:window-width="3440"
     inkscape:window-height="1417"
     inkscape:window-x="-8"
     inkscape:window-y="-8"
     inkscape:window-maximized="1"
     inkscape:current-layer="layer1"
     inkscape:object-paths="true"
     inkscape:snap-intersection-paths="true"
     inkscape:snap-smooth-nodes="true"
     inkscape:snap-midpoints="true"
     inkscape:snap-object-midpoints="true"
     showguides="false"
     inkscape:snap-global="true"
     inkscape:showpageshadow="0"
     inkscape:deskcolor="#171717"><inkscape:grid
       type="xygrid"
       id="grid836"
       originx="0"
       originy="0" /></sodipodi:namedview><defs
     id="defs2" /><g
     inkscape:label="Layer 1"
     inkscape:groupmode="layer"
     id="layer1"><g
       id="g78267"
       transform="scale(0.05)"><circle
         style="fill:#0a0f32;fill-opacity:0.2;stroke:none;stroke-width:2;stroke-linejoin:round;stroke-dasharray:none;paint-order:fill markers stroke"
         id="circle16099"
         cx="10"
         cy="27"
         r="10" /><path
         id="path16101"
         style="fill:#2b2b4d;fill-opacity:0.941176;stroke:none;stroke-width:2;stroke-linejoin:round;stroke-dasharray:none;paint-order:fill markers stroke"
         d="M 10,0 A 10,10 0 0 0 0,10 V 21 A 10,10 0 0 0 10,31 10,10 0 0 0 20,21 V 10 A 10,10 0 0 0 10,0 Z" /><path
         id="path14135"
         style="fill:#ec8004;fill-opacity:1;stroke:none;stroke-width:2;stroke-linejoin:round;stroke-dasharray:none;paint-order:fill markers stroke"
         d="m 2,18 v 3 c 0,4.41828 3.58172,8 8,8 4.41828,0 8,-3.58172 8,-8 v -3 z"
         sodipodi:nodetypes="cssscc" /><circle
         style="fill:#f89c30;fill-opacity:1;stroke:none;stroke-width:2;stroke-linejoin:round;stroke-dasharray:none;paint-order:fill markers stroke"
         id="circle14137"
         cx="10"
         cy="18"
         r="8" /><path
         id="path16176"
         style="fill:#d87404;fill-opacity:1;stroke:none;stroke-width:2;stroke-linejoin:round;stroke-dasharray:none;paint-order:fill markers stroke"
         d="m 2,18 v 3 c 0,4.41828 3.58172,8 8,8 0.47602,0 0.94136,-0.0433 1.39453,-0.12305 C 9.33458,27.40326 8.21604,24.45483 8.03125,18 Z" /><path
         id="circle16189"
         style="fill:#dc9040;fill-opacity:1;stroke:none;stroke-width:2;stroke-linejoin:round;stroke-dasharray:none;paint-order:fill markers stroke"
         d="m 10,10 a 8,8 0 0 0 -8,8 8,8 0 0 0 8,8 8,8 0 0 0 2,-0.26953 V 10.255859 A 8,8 0 0 0 10,10 Z" /><path
         id="path14139"
         style="fill:#383c64;fill-opacity:1;stroke:none;stroke-width:2;stroke-linejoin:round;stroke-dasharray:none;paint-order:fill markers stroke"
         d="m 3,11 v 7 c 0,3.86599 3.13401,7 7,7 3.86599,0 7,-3.13401 7,-7 v -7 z"
         sodipodi:nodetypes="cssscc" /><path
         id="path14141"
         style="fill:#4c5484;fill-opacity:1;stroke:none;stroke-width:2;stroke-linejoin:round;stroke-dasharray:none;paint-order:fill markers stroke"
         d="m 2,10 v 4 c 0,4.418278 3.58172,8 8,8 4.41828,0 8,-3.581722 8,-8 v -4 z"
         sodipodi:nodetypes="cssscc" /><path
         id="path16178"
         style="fill:#34385c;fill-opacity:1;stroke:none;stroke-width:2;stroke-linejoin:round;stroke-dasharray:none;paint-order:fill markers stroke"
         d="M 3,12.5 V 18 c 0,3.48778 2.55083,6.37965 5.88867,6.91211 C 8.29787,22.86988 8,20.02345 8,16 l 1,-1 z" /><path
         id="path16180"
         style="fill:#484c78;fill-opacity:1;stroke:none;stroke-width:2;stroke-linejoin:round;stroke-dasharray:none;paint-order:fill markers stroke"
         d="M 2,12.083984 V 14 c 0,3.832042 2.69538,7.03396 6.29297,7.81641 C 8.09937,20.21341 8,18.303147 8,16 l 1,-1 z" /><circle
         style="fill:#8080b4;fill-opacity:1;stroke:none;stroke-width:2;stroke-linejoin:round;stroke-dasharray:none;paint-order:fill markers stroke"
         id="circle14143"
         cx="10"
         cy="10"
         r="8" /><circle
         style="fill:#040014;fill-opacity:1;stroke:none;stroke-width:2;stroke-linejoin:round;stroke-dasharray:none;paint-order:fill markers stroke"
         id="circle14145"
         cx="10"
         cy="10"
         r="5.5" /><path
         id="rect14147"
         style="fill:#4c5084;fill-opacity:1;stroke:none;stroke-width:2;stroke-linejoin:round;stroke-dasharray:none;paint-order:fill markers stroke"
         d="M 6.24219,6 A 5.5,5.5 0 0 0 4.89062,8 H 15.12305 A 5.5,5.5 0 0 0 13.77344,6 Z M 4.60352,9 A 5.5,5.5 0 0 0 4.5,10 5.5,5.5 0 0 0 4.60352,11 H 15.39648 A 5.5,5.5 0 0 0 15.5,10 5.5,5.5 0 0 0 15.4082,9 Z m 0.2871,3 a 5.5,5.5 0 0 0 1.35157,2 h 7.51562 a 5.5,5.5 0 0 0 1.35157,-2 z" /><path
         id="rect14149"
         style="fill:#6468a0;fill-opacity:1;stroke:none;stroke-width:2;stroke-linejoin:round;stroke-dasharray:none;paint-order:fill markers stroke"
         d="M 6.24219,6 A 5.5,5.5 0 0 0 5.39258,7 h 9.21484 A 5.5,5.5 0 0 0 13.77344,6 Z M 4.60352,9 A 5.5,5.5 0 0 0 4.5,10 h 11 A 5.5,5.5 0 0 0 15.4082,9 Z m 0.2871,3 a 5.5,5.5 0 0 0 0.50196,1 h 9.21484 a 5.5,5.5 0 0 0 0.50196,-1 z" /></g></g></svg>
