<?xml version="1.0" encoding="UTF-8" standalone="no"?>
<!-- Created with Inkscape (http://www.inkscape.org/) -->

<svg
   width="1"
   height="1.75"
   viewBox="0 0 1 1.75"
   version="1.1"
   id="svg5"
   sodipodi:docname="factory_wall_2.svg"
   inkscape:version="1.2 (dc2aedaf03, 2022-05-15)"
   xml:space="preserve"
   xmlns:inkscape="http://www.inkscape.org/namespaces/inkscape"
   xmlns:sodipodi="http://sodipodi.sourceforge.net/DTD/sodipodi-0.dtd"
   xmlns="http://www.w3.org/2000/svg"
   xmlns:svg="http://www.w3.org/2000/svg"><sodipodi:namedview
     id="namedview7"
     pagecolor="#171717"
     bordercolor="#999999"
     borderopacity="1"
     inkscape:pageshadow="0"
     inkscape:pageopacity="0"
     inkscape:pagecheckerboard="0"
     inkscape:document-units="px"
     showgrid="false"
     units="px"
     inkscape:zoom="16.602278"
     inkscape:cx="-2.1683772"
     inkscape:cy="6.4448988"
     inkscape:window-width="3440"
     inkscape:window-height="1417"
     inkscape:window-x="-8"
     inkscape:window-y="-8"
     inkscape:window-maximized="1"
     inkscape:current-layer="layer1"
     inkscape:object-paths="true"
     inkscape:snap-intersection-paths="true"
     inkscape:snap-smooth-nodes="true"
     inkscape:snap-midpoints="true"
     inkscape:snap-object-midpoints="true"
     showguides="false"
     inkscape:snap-global="true"
     inkscape:showpageshadow="0"
     inkscape:deskcolor="#171717"><inkscape:grid
       type="xygrid"
       id="grid836"
       originx="0"
       originy="0" /></sodipodi:namedview><defs
     id="defs2" /><g
     inkscape:label="Layer 1"
     inkscape:groupmode="layer"
     id="layer1"><g
       id="g77311"
       transform="scale(0.05)"><rect
         style="fill:#0a0f32;fill-opacity:0.2;stroke-linejoin:round;paint-order:fill markers stroke"
         id="rect9989"
         width="20"
         height="8"
         x="0"
         y="27"
         ry="2" /><path
         id="rect9932"
         style="fill:#6c1c10;fill-opacity:1;stroke-linejoin:round;paint-order:fill markers stroke"
         d="M 4,0 C 1.784002,0 0,1.784002 0,4 V 30 H 20 V 4 C 20,1.784002 18.215998,0 16,0 Z"
         sodipodi:nodetypes="ssccsss" /><rect
         style="fill:#a8281c;fill-opacity:1;stroke-linejoin:round;paint-order:fill markers stroke"
         id="rect7450"
         width="16"
         height="11"
         x="2"
         y="17" /><rect
         style="fill:#9c2018;fill-opacity:1;stroke-linejoin:round;paint-order:fill markers stroke"
         id="rect7849"
         width="16"
         height="16"
         x="2"
         y="7"
         ry="3" /><rect
         style="fill:#b46400;fill-opacity:1;stroke-linejoin:round;paint-order:fill markers stroke"
         id="rect7440"
         width="16"
         height="16"
         x="2"
         y="5"
         ry="3" /><rect
         style="fill:#ff941c;fill-opacity:1;stroke-linejoin:round;paint-order:fill markers stroke"
         id="rect7442"
         width="16"
         height="14"
         x="2"
         y="2"
         ry="3" /><path
         id="rect8193"
         style="fill:#b06400;fill-opacity:1;stroke:none;stroke-width:2;stroke-linejoin:round;stroke-dasharray:none;paint-order:fill markers stroke"
         d="M 5,1 C 3.338002,1 2,2.338002 2,4 v 8 c 0,1.661998 1.338002,3 3,3 1.046905,0 1.963646,-0.531488 2.5,-1.339844 C 8.036354,14.468512 8.953095,15 10,15 11.046905,15 11.963646,14.468512 12.5,13.660156 13.036354,14.468512 13.953095,15 15,15 c 1.661998,0 3,-1.338002 3,-3 V 4 C 18,2.338002 16.661998,1 15,1 13.953095,1 13.036354,1.531488 12.5,2.339844 11.963646,1.531488 11.046905,1 10,1 8.953095,1 8.036354,1.531488 7.5,2.339844 6.963646,1.531488 6.046905,1 5,1 Z"
         sodipodi:nodetypes="sssscscsssscscs" /><path
         id="rect7444"
         style="fill:#ffa43c;fill-opacity:1;stroke-linejoin:round;paint-order:fill markers stroke"
         d="M 5,2 C 3.892001,2 3,2.892001 3,4 v 7 c 0,1.107999 0.892001,2 2,2 1.107999,0 2,-0.892001 2,-2 V 4 C 7,2.892001 6.107999,2 5,2 Z m 5,0 C 8.892001,2 8,2.892001 8,4 v 7 c 0,1.107999 0.892001,2 2,2 1.107999,0 2,-0.892001 2,-2 V 4 C 12,2.892001 11.107999,2 10,2 Z m 5,0 c -1.107999,0 -2,0.892001 -2,2 v 7 c 0,1.107999 0.892001,2 2,2 1.107999,0 2,-0.892001 2,-2 V 4 C 17,2.892001 16.107999,2 15,2 Z" /><path
         id="path7992"
         style="fill:#ffb050;fill-opacity:1;stroke-linejoin:round;paint-order:fill markers stroke"
         d="M 5,2 C 4.826791,2 4.66007,2.02539 4.5,2.06641 5.363876,2.287758 6,3.065211 6,4 v 7 C 6,11.934789 5.363876,12.712242 4.5,12.933594 4.66007,12.974609 4.826791,13 5,13 6.107998,13 7,12.107998 7,11 V 4 C 7,2.892002 6.107998,2 5,2 Z m 5,0 C 9.826791,2 9.66007,2.02539 9.5,2.06641 10.363876,2.287758 11,3.065211 11,4 v 7 c 0,0.934789 -0.636124,1.712242 -1.5,1.933594 C 9.66007,12.974609 9.826791,13 10,13 c 1.107998,0 2,-0.892002 2,-2 V 4 C 12,2.892002 11.107998,2 10,2 Z m 5,0 C 14.826791,2 14.66007,2.02539 14.5,2.06641 15.363876,2.287758 16,3.065211 16,4 v 7 c 0,0.934789 -0.636124,1.712242 -1.5,1.933594 C 14.66007,12.974609 14.826791,13 15,13 c 1.107998,0 2,-0.892002 2,-2 V 4 C 17,2.892002 16.107998,2 15,2 Z" /></g></g></svg>
