<?xml version="1.0" encoding="UTF-8" standalone="no"?>
<!-- Created with Inkscape (http://www.inkscape.org/) -->

<svg
   width="1"
   height="1.65"
   viewBox="0 0 1 1.65"
   version="1.1"
   id="svg5"
   sodipodi:docname="factory_wall_hor.svg"
   inkscape:version="1.2 (dc2aedaf03, 2022-05-15)"
   xml:space="preserve"
   xmlns:inkscape="http://www.inkscape.org/namespaces/inkscape"
   xmlns:sodipodi="http://sodipodi.sourceforge.net/DTD/sodipodi-0.dtd"
   xmlns="http://www.w3.org/2000/svg"
   xmlns:svg="http://www.w3.org/2000/svg"><sodipodi:namedview
     id="namedview7"
     pagecolor="#171717"
     bordercolor="#999999"
     borderopacity="1"
     inkscape:pageshadow="0"
     inkscape:pageopacity="0"
     inkscape:pagecheckerboard="0"
     inkscape:document-units="px"
     showgrid="false"
     units="px"
     inkscape:zoom="256"
     inkscape:cx="0.3515625"
     inkscape:cy="0.6328125"
     inkscape:window-width="3440"
     inkscape:window-height="1417"
     inkscape:window-x="-8"
     inkscape:window-y="-8"
     inkscape:window-maximized="1"
     inkscape:current-layer="layer1"
     inkscape:object-paths="true"
     inkscape:snap-intersection-paths="true"
     inkscape:snap-smooth-nodes="true"
     inkscape:snap-midpoints="true"
     inkscape:snap-object-midpoints="true"
     showguides="false"
     inkscape:snap-global="true"
     inkscape:showpageshadow="0"
     inkscape:deskcolor="#171717"><inkscape:grid
       type="xygrid"
       id="grid836"
       originx="0"
       originy="0" /></sodipodi:namedview><defs
     id="defs2" /><g
     inkscape:label="Layer 1"
     inkscape:groupmode="layer"
     id="layer1"><g
       id="g79150"
       transform="scale(0.05)"><rect
         style="fill:#0f0f37;fill-opacity:0.2;stroke:none;stroke-width:4;stroke-linejoin:round;stroke-dasharray:none;paint-order:fill markers stroke"
         id="rect23909"
         width="20"
         height="4"
         x="0"
         y="29" /><rect
         style="fill:#242840;fill-opacity:1;stroke:none;stroke-width:4;stroke-linejoin:round;stroke-dasharray:none;paint-order:fill markers stroke"
         id="rect23291"
         width="20"
         height="30"
         x="0"
         y="0" /><rect
         style="fill:#343858;fill-opacity:1;stroke:none;stroke-width:4;stroke-linejoin:round;stroke-dasharray:none;paint-order:fill markers stroke"
         id="rect23293"
         width="18"
         height="10"
         x="-19"
         y="-27"
         transform="scale(-1)" /><rect
         style="fill:#9c5400;fill-opacity:1;stroke:none;stroke-width:4;stroke-linejoin:round;stroke-dasharray:none;paint-order:fill markers stroke"
         id="rect23295"
         width="20"
         height="3"
         x="0"
         y="25" /><rect
         style="fill:#bc7828;fill-opacity:1;stroke:none;stroke-width:4;stroke-linejoin:round;stroke-dasharray:none;paint-order:fill markers stroke"
         id="rect23297"
         width="20"
         height="1"
         x="0"
         y="25" /><rect
         style="fill:#8084b8;fill-opacity:1;stroke:none;stroke-width:4;stroke-linejoin:round;stroke-dasharray:none;paint-order:fill markers stroke"
         id="rect23299"
         width="20"
         height="16"
         x="0"
         y="2" /><rect
         style="fill:#606094;fill-opacity:1;stroke:none;stroke-width:4;stroke-linejoin:round;stroke-dasharray:none;paint-order:fill markers stroke"
         id="rect23301"
         width="18"
         height="12"
         x="1"
         y="4" /><path
         id="path23717"
         style="color:#000000;fill:#343858;fill-opacity:1;stroke-width:2;stroke-linejoin:round;paint-order:fill markers stroke"
         d="M 4.5,1 C 2.68694,1 1,2.219886 1,4 V 5 C 1,6.780114 2.68694,8 4.5,8 6.31306,8 8,6.780114 8,5 V 4 C 8,2.219886 6.31306,1 4.5,1 Z m 11,0 C 13.68694,1 12,2.219886 12,4 v 1 c 0,1.780114 1.68694,3 3.5,3 C 17.31306,8 19,6.780114 19,5 V 4 C 19,2.219886 17.31306,1 15.5,1 Z M 4.5,9 C 2.68694,9 1,10.219886 1,12 v 1 c 0,1.780114 1.68694,3 3.5,3 C 6.31306,16 8,14.780114 8,13 V 12 C 8,10.219886 6.31306,9 4.5,9 Z m 11,0 C 13.68694,9 12,10.219886 12,12 v 1 c 0,1.780114 1.68694,3 3.5,3 1.81306,0 3.5,-1.219886 3.5,-3 V 12 C 19,10.219886 17.31306,9 15.5,9 Z"
         sodipodi:nodetypes="ssssssssssssssssssssssssssss" /><path
         id="path23719"
         style="fill:#8084b8;fill-opacity:1;stroke:none;stroke-width:2;stroke-linejoin:round;stroke-dasharray:none;paint-order:fill markers stroke"
         d="M 4.5,2 C 3.11929,2 2,2.895432 2,4 2,5.104568 3.11929,6 4.5,6 5.88071,6 7,5.104568 7,4 7,2.895432 5.88071,2 4.5,2 Z m 11,0 C 14.11929,2 13,2.895432 13,4 13,5.104568 14.11929,6 15.5,6 16.88071,6 18,5.104568 18,4 18,2.895432 16.88071,2 15.5,2 Z m -11,8 C 3.11929,10 2,10.895432 2,12 2,13.104568 3.11929,14 4.5,14 5.88071,14 7,13.104568 7,12 7,10.895432 5.88071,10 4.5,10 Z m 11,0 c -1.38071,0 -2.5,0.895432 -2.5,2 0,1.104568 1.11929,2 2.5,2 1.38071,0 2.5,-0.895432 2.5,-2 0,-1.104568 -1.11929,-2 -2.5,-2 z"
         sodipodi:nodetypes="ssssssssssssssssssss" /><path
         id="path23721"
         style="fill:#8c90c0;fill-opacity:1;stroke:none;stroke-width:2;stroke-linejoin:round;stroke-dasharray:none;paint-order:fill markers stroke"
         d="M 4.5,2 C 3.45123,2.0057 2.51841,2.534524 2.16406,3.324219 2.56185,3.116851 3.02524,3.004393 3.5,3 4.88071,3 6,3.895432 6,5 5.995,5.231153 5.939,5.4598 5.83594,5.675781 6.55514,5.312057 6.99373,4.680669 7,4 7,2.895432 5.88071,2 4.5,2 Z m 11,0 C 14.45123,2.0057 13.51841,2.534524 13.16406,3.324219 13.56185,3.116851 14.02524,3.004393 14.5,3 15.88071,3 17,3.895432 17,5 16.995,5.231153 16.939,5.4598 16.83594,5.675781 17.55514,5.312057 17.99373,4.680669 18,4 18,2.895432 16.88071,2 15.5,2 Z m -11,8 C 3.45123,10.0057 2.51841,10.534524 2.16406,11.324219 2.56185,11.116851 3.02524,11.004393 3.5,11 4.88071,11 6,11.895432 6,13 5.995,13.231153 5.939,13.4598 5.83594,13.675781 6.55514,13.312057 6.99373,12.680669 7,12 7,10.895432 5.88071,10 4.5,10 Z m 11,0 c -1.04877,0.0057 -1.98159,0.534524 -2.33594,1.324219 C 13.56185,11.116851 14.02524,11.004393 14.5,11 c 1.38071,0 2.5,0.895432 2.5,2 -0.005,0.231153 -0.061,0.4598 -0.16406,0.675781 C 17.55514,13.312057 17.99373,12.680669 18,12 18,10.895432 16.88071,10 15.5,10 Z"
         sodipodi:nodetypes="cccccccccccccccccccccccccccc" /></g></g></svg>
