<?xml version="1.0" encoding="UTF-8" standalone="no"?>
<!-- Created with Inkscape (http://www.inkscape.org/) -->

<svg
   width="1"
   height="1.75"
   viewBox="0 0 1 1.75"
   version="1.1"
   id="svg5"
   sodipodi:docname="factory_wall_1.svg"
   inkscape:version="1.2 (dc2aedaf03, 2022-05-15)"
   xml:space="preserve"
   xmlns:inkscape="http://www.inkscape.org/namespaces/inkscape"
   xmlns:sodipodi="http://sodipodi.sourceforge.net/DTD/sodipodi-0.dtd"
   xmlns="http://www.w3.org/2000/svg"
   xmlns:svg="http://www.w3.org/2000/svg"><sodipodi:namedview
     id="namedview7"
     pagecolor="#171717"
     bordercolor="#999999"
     borderopacity="1"
     inkscape:pageshadow="0"
     inkscape:pageopacity="0"
     inkscape:pagecheckerboard="0"
     inkscape:document-units="px"
     showgrid="false"
     units="px"
     inkscape:zoom="187.83333"
     inkscape:cx="0.31943213"
     inkscape:cy="-0.010647738"
     inkscape:window-width="3440"
     inkscape:window-height="1417"
     inkscape:window-x="-8"
     inkscape:window-y="-8"
     inkscape:window-maximized="1"
     inkscape:current-layer="layer1"
     inkscape:object-paths="true"
     inkscape:snap-intersection-paths="true"
     inkscape:snap-smooth-nodes="true"
     inkscape:snap-midpoints="true"
     inkscape:snap-object-midpoints="true"
     showguides="false"
     inkscape:snap-global="true"
     inkscape:showpageshadow="0"
     inkscape:deskcolor="#171717"><inkscape:grid
       type="xygrid"
       id="grid836"
       originx="0"
       originy="0" /></sodipodi:namedview><defs
     id="defs2" /><g
     inkscape:label="Layer 1"
     inkscape:groupmode="layer"
     id="layer1"><g
       id="g78186"
       transform="scale(0.05)"><rect
         style="fill:#0a0f32;fill-opacity:0.2;stroke-linejoin:round;paint-order:fill markers stroke"
         id="rect10315"
         width="20"
         height="8"
         x="0"
         y="27"
         ry="2" /><path
         id="path10317"
         style="fill:#6c1c10;fill-opacity:1;stroke-linejoin:round;paint-order:fill markers stroke"
         d="M 4,0 C 1.784002,0 0,1.784002 0,4 V 30 H 20 V 4 C 20,1.784002 18.215998,0 16,0 Z"
         sodipodi:nodetypes="ssccsss" /><rect
         style="fill:#a8281c;fill-opacity:1;stroke-linejoin:round;paint-order:fill markers stroke"
         id="rect10319"
         width="16"
         height="11"
         x="2"
         y="17" /><rect
         style="fill:#9c2018;fill-opacity:1;stroke-linejoin:round;paint-order:fill markers stroke"
         id="rect10321"
         width="16"
         height="16"
         x="2"
         y="7"
         ry="3" /><rect
         style="fill:#b46400;fill-opacity:1;stroke-linejoin:round;paint-order:fill markers stroke"
         id="rect10323"
         width="16"
         height="16"
         x="2"
         y="5"
         ry="3" /><rect
         style="fill:#ff941c;fill-opacity:1;stroke-linejoin:round;paint-order:fill markers stroke"
         id="rect10325"
         width="16"
         height="14"
         x="2"
         y="2"
         ry="3" /><rect
         style="fill:#f08008;fill-opacity:1;stroke:none;stroke-width:2;stroke-linejoin:round;stroke-dasharray:none;paint-order:fill markers stroke"
         id="rect10333"
         width="12"
         height="10"
         x="4"
         y="4"
         ry="1" /><path
         id="path11485"
         style="color:#000000;fill:#b06400;fill-opacity:1;stroke-width:2;stroke-linejoin:round;paint-order:fill markers stroke"
         d="M 5.5,2 C 3.68694,2 2,3.219884 2,5 V 6 C 2,7.780116 3.68694,9 5.5,9 7.31306,9 9,7.780116 9,6 V 5 C 9,3.219884 7.31306,2 5.5,2 Z m 9,6 C 12.68694,8 11,9.219884 11,11 v 1 c 0,1.780116 1.68694,3 3.5,3 1.81306,0 3.5,-1.219884 3.5,-3 V 11 C 18,9.219884 16.31306,8 14.5,8 Z" /><path
         id="ellipse10335"
         style="fill:#ffa43c;fill-opacity:1;stroke:none;stroke-width:2;stroke-linejoin:round;stroke-dasharray:none;paint-order:fill markers stroke"
         d="M 5.5,3 A 2.5,2 0 0 0 3,5 2.5,2 0 0 0 5.5,7 2.5,2 0 0 0 8,5 2.5,2 0 0 0 5.5,3 Z m 9,6 A 2.5,2 0 0 0 12,11 2.5,2 0 0 0 14.5,13 2.5,2 0 0 0 17,11 2.5,2 0 0 0 14.5,9 Z" /><path
         id="path10438"
         style="fill:#ffb050;fill-opacity:1;stroke:none;stroke-width:2;stroke-linejoin:round;stroke-dasharray:none;paint-order:fill markers stroke"
         d="M 5.5,3 A 2.5,2 0 0 0 3.164062,4.324219 2.5,2 0 0 1 4.5,4 2.5,2 0 0 1 7,6 2.5,2 0 0 1 6.835938,6.675781 2.5,2 0 0 0 8,5 2.5,2 0 0 0 5.5,3 Z m 9,6 A 2.5,2 0 0 0 12.164062,10.324219 2.5,2 0 0 1 13.5,10 2.5,2 0 0 1 16,12 2.5,2 0 0 1 15.835938,12.675781 2.5,2 0 0 0 17,11 2.5,2 0 0 0 14.5,9 Z" /></g></g></svg>
