<?xml version="1.0" encoding="utf-8"?>
<!-- Generator: Adobe Illustrator 24.1.2, SVG Export Plug-In . SVG Version: 6.00 Build 0)  -->
<svg version="1.1" id="Capa_1" xmlns="http://www.w3.org/2000/svg" xmlns:xlink="http://www.w3.org/1999/xlink" x="0px" y="0px"
	 width="1.1px" height="1.9px" viewBox="0 0 1.1 1.9" enable-background="new 0 0 1.1 1.9" xml:space="preserve">
<path id="rect10315" fill="#0A0F32" fill-opacity="0.2" d="M0.175,1.465h0.8c0.055,0,0.1,0.045,0.1,0.1v0.2
	c0,0.055-0.045,0.1-0.1,0.1h-0.8c-0.055,0-0.1-0.045-0.1-0.1v-0.2C0.075,1.51,0.12,1.465,0.175,1.465z"/>
<g>
	<g>
		<g>
			<path fill="#1F345E" d="M1.1,0.865v0.55c0,0.083-0.067,0.15-0.15,0.15H0.2c-0.083,0-0.15-0.067-0.15-0.15v-0.55
				c0-0.083,0.067-0.15,0.15-0.15h0.75C1.033,0.715,1.1,0.782,1.1,0.865z"/>
			<path fill="#575989" d="M1,0.915v0.45c0,0.055-0.045,0.1-0.1,0.1H0.25c-0.055,0-0.1-0.045-0.1-0.1v-0.45
				c0-0.055,0.045-0.1,0.1-0.1H0.9C0.955,0.815,1,0.86,1,0.915z"/>
			<path fill="#8387B3" d="M1,0.915v0.35c0,0.055-0.045,0.1-0.1,0.1H0.25c-0.055,0-0.1-0.045-0.1-0.1v-0.35
				c0-0.055,0.045-0.1,0.1-0.1H0.9C0.955,0.815,1,0.86,1,0.915z"/>
		</g>
		<path fill="#666A91" d="M0.9,1.19v0.05c0,0.027-0.023,0.05-0.05,0.05H0.3c-0.027,0-0.05-0.023-0.05-0.05V1.19
			c0,0.027,0.023,0.05,0.05,0.05h0.55C0.877,1.24,0.9,1.217,0.9,1.19z"/>
		<path fill="#7478A5" d="M0.25,0.865v0.35c-0.027,0-0.05-0.023-0.05-0.05v-0.25C0.2,0.887,0.223,0.865,0.25,0.865z"/>
		<path fill="#7478A5" d="M0.95,0.915v0.25c0,0.027-0.023,0.05-0.05,0.05v-0.35C0.927,0.865,0.95,0.887,0.95,0.915z"/>
		<path fill="#1F345E" d="M0.9,0.865v0.35c0,0.027-0.023,0.05-0.05,0.05H0.3c-0.027,0-0.05-0.023-0.05-0.05v-0.35
			c0-0.027,0.023-0.05,0.05-0.05h0.55C0.877,0.815,0.9,0.837,0.9,0.865z"/>
		<path opacity="0.1" enable-background="new    " d="M0.95,0.915v0.25c0,0.027-0.023,0.05-0.05,0.05H0.25
			c-0.027,0-0.05-0.023-0.05-0.05v-0.25c0-0.027,0.023-0.05,0.05-0.05H0.9C0.927,0.865,0.95,0.887,0.95,0.915z"/>
		<rect x="0.3" y="0.915" fill="#303055" width="0.55" height="0.3"/>
		<path fill="#2D3A61" d="M0.575,0.765L0.575,0.765C0.534,0.765,0.5,0.799,0.5,0.84v0.15c0,0.041,0.034,0.075,0.075,0.075l0,0
			c0.041,0,0.075-0.034,0.075-0.075V0.84C0.65,0.799,0.616,0.765,0.575,0.765z"/>
		<path fill="#144596" d="M0.845,1.215h-0.54C0.328,1.087,0.44,0.99,0.575,0.99c0.008,0,0.017,0.001,0.025,0.001
			C0.723,1.002,0.823,1.095,0.845,1.215z"/>
		<path fill="#346ED8" d="M0.6,0.991C0.599,1.084,0.554,1.165,0.483,1.215H0.305C0.328,1.087,0.44,0.99,0.575,0.99
			C0.583,0.99,0.592,0.99,0.6,0.991z"/>
	</g>
	<g>
		<path fill="#244C28" d="M1.088,0.654C1.036,0.713,0.913,0.825,0.729,0.825c-0.073,0-0.157-0.018-0.249-0.064l0.106-0.248
			c0,0,0.081-0.073,0.205-0.073c0.083,0,0.185,0.033,0.295,0.145C1.104,0.605,1.105,0.635,1.088,0.654z"/>
		<path fill="#508650" d="M1.036,0.622c-0.051,0.055-0.153,0.14-0.301,0.143H0.729c-0.055,0-0.113-0.011-0.171-0.035l0.076-0.179
			c0.022-0.015,0.079-0.05,0.156-0.05c0.081,0,0.162,0.039,0.241,0.116C1.033,0.618,1.034,0.62,1.036,0.622z"/>
		<path fill="#3D7040" d="M1.036,0.622c-0.051,0.055-0.153,0.14-0.301,0.143l0.048-0.114c0.022-0.015,0.079-0.05,0.156-0.05
			c0.03,0,0.061,0.005,0.091,0.016C1.033,0.618,1.034,0.62,1.036,0.622z"/>
	</g>
	<g>
		<path fill="#244C28" d="M1,0.99c0.005,0.089-0.037,0.157-0.07,0.195C0.92,1.198,0.905,1.204,0.891,1.204
			c-0.012,0-0.024-0.004-0.034-0.013C0.83,1.165,0.784,1.129,0.716,1.096c-0.2-0.07-0.187-0.33-0.187-0.33L0.615,0.68
			c0.005,0,0.01-0.001,0.015-0.001C0.782,0.679,0.992,0.848,1,0.99z"/>
		<path fill="#508650" d="M0.94,0.994c0.004,0.062-0.024,0.113-0.049,0.145C0.89,1.138,0.889,1.138,0.888,1.137
			C0.857,1.11,0.809,1.074,0.743,1.042L0.74,1.04L0.736,1.039C0.638,1.004,0.605,0.908,0.595,0.84C0.591,0.82,0.59,0.803,0.59,0.79
			l0.05-0.05C0.764,0.748,0.934,0.89,0.94,0.994z"/>
		<path fill="#3D7040" d="M0.888,1.137C0.857,1.11,0.809,1.074,0.743,1.042L0.74,1.04L0.736,1.039
			C0.638,1.004,0.605,0.908,0.595,0.84c0.123,0.01,0.29,0.151,0.296,0.254C0.891,1.109,0.89,1.123,0.888,1.137z"/>
	</g>
	<g>
		<path fill="#76178D" d="M0.848,0.655c0.003,0.06-0.028,0.117-0.082,0.144C0.661,0.85,0.552,0.85,0.5,0.85
			c-0.1,0-0.1-0.15-0.1-0.25c0-0.082-0.033-0.164-0.155-0.164c-0.027,0-0.059,0.004-0.095,0.014c-0.03,0-0.056-0.009-0.077-0.023
			C0.018,0.389,0.008,0.313,0.04,0.255C0.111,0.128,0.229,0,0.421,0C0.756,0,0.835,0.391,0.848,0.655z"/>
		<path fill="#C15BDC" d="M0.763,0.659c0.001,0.027-0.012,0.053-0.035,0.063C0.643,0.764,0.555,0.765,0.504,0.765
			c-0.001,0-0.001,0-0.001,0C0.485,0.738,0.485,0.638,0.485,0.6c0-0.034-0.005-0.064-0.013-0.092
			c-0.016-0.054-0.047-0.095-0.09-0.121C0.369,0.379,0.355,0.372,0.34,0.367C0.311,0.356,0.28,0.351,0.245,0.351
			c-0.031,0-0.066,0.005-0.103,0.013C0.132,0.363,0.126,0.36,0.121,0.357C0.104,0.345,0.104,0.316,0.115,0.296
			c0.077-0.14,0.18-0.212,0.306-0.212c0.045,0,0.084,0.01,0.117,0.027c0.03,0.015,0.057,0.037,0.08,0.063
			c0.044,0.05,0.076,0.116,0.097,0.187C0.746,0.462,0.758,0.572,0.763,0.659z"/>
		<path fill="#E349FF" d="M0.715,0.361C0.656,0.437,0.57,0.49,0.472,0.508C0.451,0.439,0.405,0.39,0.339,0.367
			C0.311,0.356,0.28,0.351,0.245,0.351c-0.031,0-0.066,0.005-0.103,0.013C0.132,0.363,0.126,0.36,0.121,0.357
			C0.104,0.345,0.104,0.316,0.115,0.296c0.077-0.14,0.18-0.212,0.306-0.212c0.045,0,0.084,0.01,0.117,0.027
			C0.627,0.157,0.682,0.253,0.715,0.361z"/>
		<path fill="#E57AFF" d="M0.618,0.174c-0.031,0.061-0.08,0.118-0.145,0.163c-0.03,0.021-0.061,0.037-0.092,0.049
			c-0.013-0.008-0.027-0.015-0.042-0.02C0.311,0.356,0.28,0.351,0.245,0.351c-0.031,0-0.066,0.005-0.103,0.013
			C0.132,0.363,0.126,0.36,0.121,0.357C0.104,0.345,0.104,0.316,0.115,0.296c0.077-0.14,0.18-0.212,0.306-0.212
			c0.045,0,0.084,0.01,0.117,0.027C0.568,0.127,0.595,0.149,0.618,0.174z"/>
	</g>
	<g>
		<g>
			<path fill="#76178D" d="M0.543,0.78C0.537,0.807,0.525,0.831,0.509,0.853C0.46,0.92,0.373,0.965,0.275,0.965
				C0.123,0.965,0,0.859,0,0.728c0-0.053,0.02-0.101,0.054-0.141c0.014-0.016,0.033-0.025,0.052-0.025
				c0.011,0,0.022,0.003,0.032,0.009c0.026,0.016,0.055,0.025,0.087,0.025c0.029,0,0.056-0.007,0.08-0.02
				c0.025-0.014,0.051-0.02,0.077-0.02c0.002,0,0.005,0,0.008,0.001c0.03,0.001,0.058,0.011,0.083,0.026
				c0.001,0.012,0.002,0.023,0.003,0.035c0.029,0.025,0.049,0.061,0.05,0.106v0.003c0,0.015-0.002,0.031-0.006,0.045
				C0.527,0.777,0.535,0.78,0.543,0.78z"/>
		</g>
		<path fill="#D34DE9" d="M0.475,0.728c0,0.01-0.001,0.019-0.004,0.029C0.454,0.83,0.373,0.886,0.275,0.886
			c-0.099,0-0.18-0.057-0.197-0.131C0.076,0.746,0.075,0.737,0.075,0.728c0-0.023,0.006-0.042,0.014-0.058
			c0,0,0.061,0.095,0.161,0.095c0.066,0,0.159-0.017,0.22-0.067C0.473,0.707,0.475,0.717,0.475,0.728z"/>
		<path fill="#ED66AB" d="M0.47,0.698c-0.061,0.05-0.154,0.067-0.22,0.067c-0.1,0-0.161-0.095-0.161-0.095
			c0.002-0.004,0.003-0.007,0.005-0.01c0.007-0.01,0.018-0.014,0.029-0.008C0.13,0.656,0.138,0.659,0.145,0.661
			c0.026,0.01,0.053,0.014,0.08,0.014c0.039,0,0.079-0.01,0.114-0.029c0.013-0.008,0.027-0.011,0.042-0.011
			C0.418,0.635,0.457,0.659,0.47,0.698z"/>
	</g>
</g>
</svg>
