<?xml version="1.0" encoding="UTF-8" standalone="no"?>
<!-- Created with Inkscape (http://www.inkscape.org/) -->

<svg
   width="1"
   height="1.45"
   viewBox="0 0 1 1.45"
   version="1.1"
   id="svg5"
   sodipodi:docname="factory_wall_t.svg"
   inkscape:version="1.2 (dc2aedaf03, 2022-05-15)"
   xml:space="preserve"
   xmlns:inkscape="http://www.inkscape.org/namespaces/inkscape"
   xmlns:sodipodi="http://sodipodi.sourceforge.net/DTD/sodipodi-0.dtd"
   xmlns:xlink="http://www.w3.org/1999/xlink"
   xmlns="http://www.w3.org/2000/svg"
   xmlns:svg="http://www.w3.org/2000/svg"><sodipodi:namedview
     id="namedview7"
     pagecolor="#171717"
     bordercolor="#999999"
     borderopacity="1"
     inkscape:pageshadow="0"
     inkscape:pageopacity="0"
     inkscape:pagecheckerboard="0"
     inkscape:document-units="px"
     showgrid="false"
     units="px"
     inkscape:zoom="256"
     inkscape:cx="0.359375"
     inkscape:cy="0.921875"
     inkscape:window-width="3440"
     inkscape:window-height="1417"
     inkscape:window-x="-8"
     inkscape:window-y="-8"
     inkscape:window-maximized="1"
     inkscape:current-layer="layer1"
     inkscape:object-paths="true"
     inkscape:snap-intersection-paths="true"
     inkscape:snap-smooth-nodes="true"
     inkscape:snap-midpoints="true"
     inkscape:snap-object-midpoints="true"
     showguides="false"
     inkscape:snap-global="true"
     inkscape:showpageshadow="0"
     inkscape:deskcolor="#171717"><inkscape:grid
       type="xygrid"
       id="grid836"
       originx="0"
       originy="0" /></sodipodi:namedview><defs
     id="defs2"><linearGradient
       inkscape:collect="always"
       id="linearGradient22876"><stop
         style="stop-color:#9094c4;stop-opacity:1;"
         offset="0"
         id="stop22872" /><stop
         style="stop-color:#8084b8;stop-opacity:1;"
         offset="1"
         id="stop22874" /></linearGradient><linearGradient
       inkscape:collect="always"
       id="linearGradient22125"><stop
         style="stop-color:#7c80b0;stop-opacity:1;"
         offset="0"
         id="stop22121" /><stop
         style="stop-color:#606094;stop-opacity:1;"
         offset="1"
         id="stop22123" /></linearGradient><linearGradient
       inkscape:collect="always"
       xlink:href="#linearGradient22125"
       id="linearGradient22119"
       x1="210"
       y1="74"
       x2="210"
       y2="83"
       gradientUnits="userSpaceOnUse"
       gradientTransform="translate(-200,-70)" /><linearGradient
       inkscape:collect="always"
       xlink:href="#linearGradient22876"
       id="linearGradient22870"
       x1="210"
       y1="74"
       x2="210"
       y2="85"
       gradientUnits="userSpaceOnUse"
       gradientTransform="translate(-200,-70)" /></defs><g
     inkscape:label="Layer 1"
     inkscape:groupmode="layer"
     id="layer1"><g
       id="g79082"
       transform="scale(0.05)"><path
         id="rect21983"
         style="fill:#242840;fill-opacity:1;stroke:none;stroke-width:4;stroke-linejoin:round;stroke-dasharray:none;paint-order:fill markers stroke"
         d="M 6,0 C 2.676,0 0,2.676003 0,6 V 29 H 20 V 6 C 20,2.676003 17.324,0 14,0 Z"
         sodipodi:nodetypes="ssccsss" /><path
         id="rect21985"
         style="fill:url(#linearGradient22119);stroke-width:4;stroke-linejoin:round;paint-order:fill markers stroke"
         d="m 3,4 7,-1 7,1 V 29 H 3 Z"
         sodipodi:nodetypes="cccccc" /><path
         id="path21987"
         style="fill:url(#linearGradient22870);fill-opacity:1;stroke:none;stroke-width:4;stroke-linejoin:round;stroke-dasharray:none;paint-order:fill markers stroke"
         d="M 6,2 C 3.784,2 2,3.784006 2,6 v 3 3 17 h 2 v -9 h 12 v 9 h 2 V 12 9 6 C 18,3.784006 16.216,2 14,2 Z m 1,2 h 6 c 1.662,0 3,1.338006 3,3 v 3 2 7 H 4 V 12 10 7 C 4,5.338006 5.338,4 7,4 Z" /><path
         id="path21989"
         style="color:#000000;fill:#343858;fill-opacity:1;stroke-width:2;stroke-linejoin:round;paint-order:fill markers stroke"
         d="M 5.5,11 C 3.68694,11 2,12.219886 2,14 v 1 c 0,1.780114 1.68694,3 3.5,3 C 7.31306,18 9,16.780114 9,15 V 14 C 9,12.219886 7.31306,11 5.5,11 Z m 9,0 C 12.68694,11 11,12.219886 11,14 v 1 c 0,1.780114 1.68694,3 3.5,3 1.81306,0 3.5,-1.219886 3.5,-3 v -1 c 0,-1.780114 -1.68694,-3 -3.5,-3 z"
         sodipodi:nodetypes="ssssssssssssss" /><path
         id="path21991"
         style="fill:#8084b8;fill-opacity:1;stroke:none;stroke-width:2;stroke-linejoin:round;stroke-dasharray:none;paint-order:fill markers stroke"
         d="M 5.5,12 C 4.11929,12 3,12.895432 3,14 3,15.104568 4.11929,16 5.5,16 6.88071,16 8,15.104568 8,14 8,12.895432 6.88071,12 5.5,12 Z m 9,0 c -1.38071,0 -2.5,0.895432 -2.5,2 0,1.104568 1.11929,2 2.5,2 1.38071,0 2.5,-0.895432 2.5,-2 0,-1.104568 -1.11929,-2 -2.5,-2 z"
         sodipodi:nodetypes="ssssssssss" /><path
         id="path21993"
         style="fill:#8c90c0;fill-opacity:1;stroke:none;stroke-width:2;stroke-linejoin:round;stroke-dasharray:none;paint-order:fill markers stroke"
         d="M 5.5,12 C 4.45123,12.0057 3.51841,12.534524 3.16406,13.324219 3.56185,13.116851 4.02524,13.004393 4.5,13 5.88071,13 7,13.895432 7,15 6.995,15.231153 6.939,15.4598 6.83594,15.675781 7.55514,15.312057 7.99373,14.680669 8,14 8,12.895432 6.88071,12 5.5,12 Z m 9,0 c -1.04877,0.0057 -1.98159,0.534524 -2.33594,1.324219 C 12.56185,13.116851 13.02524,13.004393 13.5,13 c 1.38071,0 2.5,0.895432 2.5,2 -0.005,0.231153 -0.061,0.4598 -0.16406,0.675781 C 16.55514,15.312057 16.99373,14.680669 17,14 17,12.895432 15.88071,12 14.5,12 Z"
         sodipodi:nodetypes="cccccccccccccc" /></g></g></svg>
