<?xml version="1.0" encoding="UTF-8" standalone="no"?>
<!-- Created with Inkscape (http://www.inkscape.org/) -->

<svg
   width="1"
   height="1.65"
   viewBox="0 0 1 1.65"
   version="1.1"
   id="svg5"
   sodipodi:docname="factory_wall_bl.svg"
   inkscape:version="1.2 (dc2aedaf03, 2022-05-15)"
   xml:space="preserve"
   xmlns:inkscape="http://www.inkscape.org/namespaces/inkscape"
   xmlns:sodipodi="http://sodipodi.sourceforge.net/DTD/sodipodi-0.dtd"
   xmlns:xlink="http://www.w3.org/1999/xlink"
   xmlns="http://www.w3.org/2000/svg"
   xmlns:svg="http://www.w3.org/2000/svg"><sodipodi:namedview
     id="namedview7"
     pagecolor="#171717"
     bordercolor="#999999"
     borderopacity="1"
     inkscape:pageshadow="0"
     inkscape:pageopacity="0"
     inkscape:pagecheckerboard="0"
     inkscape:document-units="px"
     showgrid="false"
     units="px"
     inkscape:zoom="256"
     inkscape:cx="0.23046875"
     inkscape:cy="0.81640625"
     inkscape:window-width="3440"
     inkscape:window-height="1417"
     inkscape:window-x="-8"
     inkscape:window-y="-8"
     inkscape:window-maximized="1"
     inkscape:current-layer="layer1"
     inkscape:object-paths="true"
     inkscape:snap-intersection-paths="true"
     inkscape:snap-smooth-nodes="true"
     inkscape:snap-midpoints="true"
     inkscape:snap-object-midpoints="true"
     showguides="false"
     inkscape:snap-global="true"
     inkscape:showpageshadow="0"
     inkscape:deskcolor="#171717"><inkscape:grid
       type="xygrid"
       id="grid836"
       originx="0"
       originy="0" /></sodipodi:namedview><defs
     id="defs2"><linearGradient
       inkscape:collect="always"
       id="linearGradient38895"><stop
         style="stop-color:#343858;stop-opacity:1"
         offset="0"
         id="stop38891" /><stop
         style="stop-color:#2c3050;stop-opacity:1;"
         offset="1"
         id="stop38893" /></linearGradient><linearGradient
       inkscape:collect="always"
       xlink:href="#linearGradient38895"
       id="linearGradient38889"
       x1="261"
       y1="91"
       x2="265"
       y2="91"
       gradientUnits="userSpaceOnUse"
       gradientTransform="translate(-250,-70)" /></defs><g
     inkscape:label="Layer 1"
     inkscape:groupmode="layer"
     id="layer1"><g
       id="g79188"
       transform="scale(0.05)"><path
         id="path39380"
         style="fill:#0f0f37;fill-opacity:0.2;stroke:none;stroke-width:4;stroke-linejoin:round;stroke-dasharray:none;paint-order:fill markers stroke"
         d="m 20,19 v 12 c 0,1.10457 -0.89543,2 -2,2 H 0 v -4 z"
         sodipodi:nodetypes="cssccc" /><path
         id="circle35425"
         style="fill:#242840;fill-opacity:1;stroke:none;stroke-width:4;stroke-linejoin:round;stroke-dasharray:none;paint-order:fill markers stroke"
         d="m 0,0 v 30 h 11 a 9,9 0 0 0 9,-9 V 0 h -9 z" /><path
         id="rect37471"
         style="fill:url(#linearGradient38889);fill-opacity:1;stroke-width:4;stroke-linejoin:round;paint-order:fill markers stroke"
         d="m 1,11 h 17 v 9 c 0,3 -3,6 -6,6 H 1 Z"
         sodipodi:nodetypes="ccsscc" /><path
         id="path35158"
         style="fill:#9c5400;fill-opacity:1;stroke:none;stroke-width:4;stroke-linejoin:round;stroke-dasharray:none;paint-order:fill markers stroke"
         d="M 11,25 H 0 v 3 h 11 c 3.86599,0 7,-3.134007 7,-7 v -2 c 0,4 -3,6 -7,6 z"
         sodipodi:nodetypes="cccsscc" /><path
         id="path35160"
         style="fill:#bc7828;fill-opacity:1;stroke:none;stroke-width:4;stroke-linejoin:round;stroke-dasharray:none;paint-order:fill markers stroke"
         d="m 18,18 a 7,7 0 0 1 -7,7 H 0 v 1 h 11 a 7,7 0 0 0 7,-7 z" /><path
         id="circle35154"
         style="fill:#8084b8;fill-opacity:1;stroke:none;stroke-width:4;stroke-linejoin:round;stroke-dasharray:none;paint-order:fill markers stroke"
         d="M 2,0 C 2,1.104569 1.10457,2 0,2 v 16 h 11 c 3.86599,0 7,-3.134007 7,-7 V 0 Z"
         sodipodi:nodetypes="cccsscc" /><path
         id="circle35156"
         style="fill:#606094;fill-opacity:1;stroke:none;stroke-width:4;stroke-linejoin:round;stroke-dasharray:none;paint-order:fill markers stroke"
         d="M 3.85742,1 A 4,4 0 0 1 1,3.857422 V 16 h 10 a 5,5 0 0 0 5,-5 V 1 Z" /><path
         id="path37899"
         style="color:#000000;fill:#343858;fill-opacity:1;stroke-width:2;stroke-linejoin:round;paint-order:fill markers stroke"
         d="M 5.5,1 C 3.68694,1 2,2.219886 2,4 V 5 C 2,6.780114 3.68694,8 5.5,8 7.31306,8 9,6.780114 9,5 V 4 C 9,2.219886 7.31306,1 5.5,1 Z m 9,0 C 12.68694,1 11,2.219886 11,4 v 1 c 0,1.780114 1.68694,3 3.5,3 C 16.31306,8 18,6.780114 18,5 V 4 C 18,2.219886 16.31306,1 14.5,1 Z m -9,8 C 3.68694,9 2,10.219886 2,12 v 1 c 0,1.780114 1.68694,3 3.5,3 C 7.31306,16 9,14.780114 9,13 V 12 C 9,10.219886 7.31306,9 5.5,9 Z m 9,0 C 12.68694,9 11,10.219886 11,12 v 1 c 0,1.780114 1.68694,3 3.5,3 1.81306,0 3.5,-1.219886 3.5,-3 V 12 C 18,10.219886 16.31306,9 14.5,9 Z"
         sodipodi:nodetypes="ssssssssssssssssssssssssssss" /><path
         id="path37901"
         style="fill:#8084b8;fill-opacity:1;stroke:none;stroke-width:2;stroke-linejoin:round;stroke-dasharray:none;paint-order:fill markers stroke"
         d="M 5.5,2 C 4.11929,2 3,2.895432 3,4 3,5.104568 4.11929,6 5.5,6 6.88071,6 8,5.104568 8,4 8,2.895432 6.88071,2 5.5,2 Z m 9,0 C 13.11929,2 12,2.895432 12,4 12,5.104568 13.11929,6 14.5,6 15.88071,6 17,5.104568 17,4 17,2.895432 15.88071,2 14.5,2 Z m -9,8 C 4.11929,10 3,10.895432 3,12 3,13.104568 4.11929,14 5.5,14 6.88071,14 8,13.104568 8,12 8,10.895432 6.88071,10 5.5,10 Z m 9,0 c -1.38071,0 -2.5,0.895432 -2.5,2 0,1.104568 1.11929,2 2.5,2 1.38071,0 2.5,-0.895432 2.5,-2 0,-1.104568 -1.11929,-2 -2.5,-2 z"
         sodipodi:nodetypes="ssssssssssssssssssss" /><path
         id="path37903"
         style="fill:#8c90c0;fill-opacity:1;stroke:none;stroke-width:2;stroke-linejoin:round;stroke-dasharray:none;paint-order:fill markers stroke"
         d="M 5.5,2 C 4.45123,2.0057 3.51841,2.534524 3.16406,3.324219 3.56185,3.116851 4.02524,3.004393 4.5,3 5.88071,3 7,3.895432 7,5 6.995,5.231153 6.939,5.4598 6.83594,5.675781 7.55514,5.312057 7.99373,4.680669 8,4 8,2.895432 6.88071,2 5.5,2 Z m 9,0 C 13.45123,2.0057 12.51841,2.534524 12.16406,3.324219 12.56185,3.116851 13.02524,3.004393 13.5,3 14.88071,3 16,3.895432 16,5 15.995,5.231153 15.939,5.4598 15.83594,5.675781 16.55514,5.312057 16.99373,4.680669 17,4 17,2.895432 15.88071,2 14.5,2 Z m -9,8 C 4.45123,10.0057 3.51841,10.534524 3.16406,11.324219 3.56185,11.116851 4.02524,11.004393 4.5,11 5.88071,11 7,11.895432 7,13 6.995,13.231153 6.939,13.4598 6.83594,13.675781 7.55514,13.312057 7.99373,12.680669 8,12 8,10.895432 6.88071,10 5.5,10 Z m 9,0 c -1.04877,0.0057 -1.98159,0.534524 -2.33594,1.324219 C 12.56185,11.116851 13.02524,11.004393 13.5,11 c 1.38071,0 2.5,0.895432 2.5,2 -0.005,0.231153 -0.061,0.4598 -0.16406,0.675781 C 16.55514,13.312057 16.99373,12.680669 17,12 17,10.895432 15.88071,10 14.5,10 Z"
         sodipodi:nodetypes="cccccccccccccccccccccccccccc" /></g></g></svg>
