<?xml version="1.0" encoding="UTF-8" standalone="no"?>
<!-- Created with Inkscape (http://www.inkscape.org/) -->

<svg
   width="1"
   height="1.5"
   viewBox="0 0 1 1.5"
   version="1.1"
   id="svg5"
   sodipodi:docname="factory_wall_tr.svg"
   inkscape:version="1.2 (dc2aedaf03, 2022-05-15)"
   xml:space="preserve"
   xmlns:inkscape="http://www.inkscape.org/namespaces/inkscape"
   xmlns:sodipodi="http://sodipodi.sourceforge.net/DTD/sodipodi-0.dtd"
   xmlns="http://www.w3.org/2000/svg"
   xmlns:svg="http://www.w3.org/2000/svg"><sodipodi:namedview
     id="namedview7"
     pagecolor="#171717"
     bordercolor="#999999"
     borderopacity="1"
     inkscape:pageshadow="0"
     inkscape:pageopacity="0"
     inkscape:pagecheckerboard="0"
     inkscape:document-units="px"
     showgrid="false"
     units="px"
     inkscape:zoom="132.81822"
     inkscape:cx="-0.15058175"
     inkscape:cy="0.48186159"
     inkscape:window-width="3440"
     inkscape:window-height="1417"
     inkscape:window-x="-8"
     inkscape:window-y="-8"
     inkscape:window-maximized="1"
     inkscape:current-layer="layer1"
     inkscape:object-paths="true"
     inkscape:snap-intersection-paths="true"
     inkscape:snap-smooth-nodes="true"
     inkscape:snap-midpoints="true"
     inkscape:snap-object-midpoints="true"
     showguides="false"
     inkscape:snap-global="true"
     inkscape:showpageshadow="0"
     inkscape:deskcolor="#171717"><inkscape:grid
       type="xygrid"
       id="grid836"
       originx="0"
       originy="0" /></sodipodi:namedview><defs
     id="defs2" /><g
     inkscape:label="Layer 1"
     inkscape:groupmode="layer"
     id="layer1"><g
       id="g78333"
       transform="scale(0.05)"><path
         id="circle40396"
         style="fill:#242840;fill-opacity:1;stroke:none;stroke-width:4;stroke-linejoin:round;stroke-dasharray:none;paint-order:fill markers stroke"
         d="M 10,0 C 4.47715,0 0,4.477153 0,10 V 30 H 20 V 0 Z"
         sodipodi:nodetypes="sscccs" /><path
         id="rect40618"
         style="fill:#606094;fill-opacity:1;stroke:none;stroke-width:4;stroke-linejoin:round;stroke-dasharray:none;paint-order:fill markers stroke"
         d="M 10,3 C 6.13401,3 3,6.134007 3,10 V 30 H 17 V 20 c 0,-1.656854 1.34315,-3 3,-3 V 3 Z"
         sodipodi:nodetypes="ssccsccs" /><path
         id="path40620"
         style="fill:#8084b8;fill-opacity:1;stroke:none;stroke-width:4;stroke-linejoin:round;stroke-dasharray:none;paint-order:fill markers stroke"
         d="M 10,2 C 5.58172,2 2,5.58173 2,10 v 20 h 2 v -9 h 12 v 9 h 2 V 20 c 0,-1.104569 0.89543,-2 2,-2 V 2 Z m 0,2 h 9 V 16.138672 C 17.23812,16.593579 16.0053,18.180348 16,20 H 4 V 10 C 4,6.686298 6.68629,4 10,4 Z"
         sodipodi:nodetypes="ssccccccsccssccccss" /><path
         id="path41705"
         style="color:#000000;fill:#343858;fill-opacity:1;stroke-width:2;stroke-linejoin:round;paint-order:fill markers stroke"
         d="M 6.5,2 C 4.68694,2 3,3.219886 3,5 V 6 C 3,7.780114 4.68694,9 6.5,9 8.31306,9 10,7.780114 10,6 V 5 C 10,3.219886 8.31306,2 6.5,2 Z m 9,0 C 13.68694,2 12,3.219886 12,5 v 1 c 0,1.780114 1.68694,3 3.5,3 C 17.31306,9 19,7.780114 19,6 V 5 C 19,3.219886 17.31306,2 15.5,2 Z m -9,10 C 4.68694,12 3,13.219886 3,15 v 1 c 0,1.780114 1.68694,3 3.5,3 1.81306,0 3.5,-1.219886 3.5,-3 V 15 C 10,13.219886 8.31306,12 6.5,12 Z m 9,0 C 13.68694,12 12,13.219886 12,15 v 1 c 0,1.780114 1.68694,3 3.5,3 1.81306,0 3.5,-1.219886 3.5,-3 v -1 c 0,-1.780114 -1.68694,-3 -3.5,-3 z" /><path
         id="path41707"
         style="fill:#8084b8;fill-opacity:1;stroke:none;stroke-width:2;stroke-linejoin:round;stroke-dasharray:none;paint-order:fill markers stroke"
         d="M 6.5,3 C 5.11929,3 4,3.895432 4,5 4,6.104568 5.11929,7 6.5,7 7.88071,7 9,6.104568 9,5 9,3.895432 7.88071,3 6.5,3 Z m 9,0 C 14.11929,3 13,3.895432 13,5 13,6.104568 14.11929,7 15.5,7 16.88071,7 18,6.104568 18,5 18,3.895432 16.88071,3 15.5,3 Z m -9,10 C 5.11929,13 4,13.895432 4,15 4,16.104568 5.11929,17 6.5,17 7.88071,17 9,16.104568 9,15 9,13.895432 7.88071,13 6.5,13 Z m 9,0 c -1.38071,0 -2.5,0.895432 -2.5,2 0,1.104568 1.11929,2 2.5,2 1.38071,0 2.5,-0.895432 2.5,-2 0,-1.104568 -1.11929,-2 -2.5,-2 z" /><path
         id="path41709"
         style="fill:#8c90c0;fill-opacity:1;stroke:none;stroke-width:2;stroke-linejoin:round;stroke-dasharray:none;paint-order:fill markers stroke"
         d="M 6.5,3 C 5.45123,3.0057 4.51841,3.534524 4.16406,4.324219 4.56185,4.116851 5.02524,4.004393 5.5,4 6.88071,4 8,4.895432 8,6 7.995,6.231153 7.939,6.4598 7.83594,6.675781 8.55514,6.312057 8.99373,5.680669 9,5 9,3.895432 7.88071,3 6.5,3 Z m 9,0 C 14.45123,3.0057 13.51841,3.534524 13.16406,4.324219 13.56185,4.116851 14.02524,4.004393 14.5,4 15.88071,4 17,4.895432 17,6 16.995,6.231153 16.939,6.4598 16.83594,6.675781 17.55514,6.312057 17.99373,5.680669 18,5 18,3.895432 16.88071,3 15.5,3 Z m -9,10 C 5.45123,13.0057 4.51841,13.534524 4.16406,14.324219 4.56185,14.116851 5.02524,14.004393 5.5,14 6.88071,14 8,14.895432 8,16 7.995,16.231153 7.939,16.4598 7.83594,16.675781 8.55514,16.312057 8.99373,15.680669 9,15 9,13.895432 7.88071,13 6.5,13 Z m 9,0 c -1.04877,0.0057 -1.98159,0.534524 -2.33594,1.324219 C 13.56185,14.116851 14.02524,14.004393 14.5,14 c 1.38071,0 2.5,0.895432 2.5,2 -0.005,0.231153 -0.061,0.4598 -0.16406,0.675781 C 17.55514,16.312057 17.99373,15.680669 18,15 18,13.895432 16.88071,13 15.5,13 Z" /></g></g></svg>
