<?xml version="1.0" encoding="UTF-8" standalone="no"?>
<!-- Created with Inkscape (http://www.inkscape.org/) -->

<svg
   width="1"
   height="1.45"
   viewBox="0 0 1 1.45"
   version="1.1"
   id="svg5"
   sodipodi:docname="factory_wall_ver.svg"
   inkscape:version="1.2 (dc2aedaf03, 2022-05-15)"
   xml:space="preserve"
   xmlns:inkscape="http://www.inkscape.org/namespaces/inkscape"
   xmlns:sodipodi="http://sodipodi.sourceforge.net/DTD/sodipodi-0.dtd"
   xmlns="http://www.w3.org/2000/svg"
   xmlns:svg="http://www.w3.org/2000/svg"><sodipodi:namedview
     id="namedview7"
     pagecolor="#171717"
     bordercolor="#999999"
     borderopacity="1"
     inkscape:pageshadow="0"
     inkscape:pageopacity="0"
     inkscape:pagecheckerboard="0"
     inkscape:document-units="px"
     showgrid="false"
     units="px"
     inkscape:zoom="256"
     inkscape:cx="-0.2109375"
     inkscape:cy="0.84375"
     inkscape:window-width="3440"
     inkscape:window-height="1417"
     inkscape:window-x="-8"
     inkscape:window-y="-8"
     inkscape:window-maximized="1"
     inkscape:current-layer="layer1"
     inkscape:object-paths="true"
     inkscape:snap-intersection-paths="true"
     inkscape:snap-smooth-nodes="true"
     inkscape:snap-midpoints="true"
     inkscape:snap-object-midpoints="true"
     showguides="false"
     inkscape:snap-global="true"
     inkscape:showpageshadow="0"
     inkscape:deskcolor="#171717"><inkscape:grid
       type="xygrid"
       id="grid836"
       originx="0"
       originy="0" /></sodipodi:namedview><defs
     id="defs2" /><g
     inkscape:label="Layer 1"
     inkscape:groupmode="layer"
     id="layer1"><g
       id="g79116"
       transform="scale(0.05)"><rect
         style="fill:#242840;fill-opacity:1;stroke:none;stroke-width:4;stroke-linejoin:round;stroke-dasharray:none;paint-order:fill markers stroke"
         id="rect20589"
         width="20"
         height="29"
         x="0"
         y="0" /><rect
         style="fill:#606094;fill-opacity:1;stroke:none;stroke-width:4;stroke-linejoin:round;stroke-dasharray:none;paint-order:fill markers stroke"
         id="rect20591"
         width="14"
         height="29"
         x="3"
         y="0" /><path
         id="rect20593"
         style="fill:#8084b8;fill-opacity:1;stroke:none;stroke-width:4;stroke-linejoin:round;stroke-dasharray:none;paint-order:fill markers stroke"
         d="m 2,0 v 29 h 2 v -9 h 12 v 9 h 2 V 0 Z M 4,1 H 16 V 19 H 4 Z"
         sodipodi:nodetypes="cccccccccccccc" /><path
         id="path20601"
         style="color:#000000;fill:#343858;fill-opacity:1;stroke-width:2;stroke-linejoin:round;paint-order:fill markers stroke"
         d="M 5.5,1 C 3.68694,1 2,2.219886 2,4 V 5 C 2,6.780114 3.68694,8 5.5,8 7.31306,8 9,6.780114 9,5 V 4 C 9,2.219886 7.31306,1 5.5,1 Z m 9,0 C 12.68694,1 11,2.219886 11,4 v 1 c 0,1.780114 1.68694,3 3.5,3 C 16.31306,8 18,6.780114 18,5 V 4 C 18,2.219886 16.31306,1 14.5,1 Z m -9,10 C 3.68694,11 2,12.219886 2,14 v 1 c 0,1.780114 1.68694,3 3.5,3 C 7.31306,18 9,16.780114 9,15 V 14 C 9,12.219886 7.31306,11 5.5,11 Z m 9,0 C 12.68694,11 11,12.219886 11,14 v 1 c 0,1.780114 1.68694,3 3.5,3 1.81306,0 3.5,-1.219886 3.5,-3 v -1 c 0,-1.780114 -1.68694,-3 -3.5,-3 z" /><path
         id="path20603"
         style="fill:#8084b8;fill-opacity:1;stroke:none;stroke-width:2;stroke-linejoin:round;stroke-dasharray:none;paint-order:fill markers stroke"
         d="M 5.5,2 C 4.11929,2 3,2.895432 3,4 3,5.104568 4.11929,6 5.5,6 6.88071,6 8,5.104568 8,4 8,2.895432 6.88071,2 5.5,2 Z m 9,0 C 13.11929,2 12,2.895432 12,4 12,5.104568 13.11929,6 14.5,6 15.88071,6 17,5.104568 17,4 17,2.895432 15.88071,2 14.5,2 Z m -9,10 C 4.11929,12 3,12.895432 3,14 3,15.104568 4.11929,16 5.5,16 6.88071,16 8,15.104568 8,14 8,12.895432 6.88071,12 5.5,12 Z m 9,0 c -1.38071,0 -2.5,0.895432 -2.5,2 0,1.104568 1.11929,2 2.5,2 1.38071,0 2.5,-0.895432 2.5,-2 0,-1.104568 -1.11929,-2 -2.5,-2 z" /><path
         id="path20605"
         style="fill:#8c90c0;fill-opacity:1;stroke:none;stroke-width:2;stroke-linejoin:round;stroke-dasharray:none;paint-order:fill markers stroke"
         d="M 5.5,2 C 4.45123,2.0057 3.51841,2.534524 3.16406,3.324219 3.56185,3.116851 4.02524,3.004393 4.5,3 5.88071,3 7,3.895432 7,5 6.995,5.231153 6.939,5.4598 6.83594,5.675781 7.55514,5.312057 7.99373,4.680669 8,4 8,2.895432 6.88071,2 5.5,2 Z m 9,0 C 13.45123,2.0057 12.51841,2.534524 12.16406,3.324219 12.56185,3.116851 13.02524,3.004393 13.5,3 14.88071,3 16,3.895432 16,5 15.995,5.231153 15.939,5.4598 15.83594,5.675781 16.55514,5.312057 16.99373,4.680669 17,4 17,2.895432 15.88071,2 14.5,2 Z m -9,10 C 4.45123,12.0057 3.51841,12.534524 3.16406,13.324219 3.56185,13.116851 4.02524,13.004393 4.5,13 5.88071,13 7,13.895432 7,15 6.995,15.231153 6.939,15.4598 6.83594,15.675781 7.55514,15.312057 7.99373,14.680669 8,14 8,12.895432 6.88071,12 5.5,12 Z m 9,0 c -1.04877,0.0057 -1.98159,0.534524 -2.33594,1.324219 C 12.56185,13.116851 13.02524,13.004393 13.5,13 c 1.38071,0 2.5,0.895432 2.5,2 -0.005,0.231153 -0.061,0.4598 -0.16406,0.675781 C 16.55514,15.312057 16.99373,14.680669 17,14 17,12.895432 15.88071,12 14.5,12 Z" /></g></g></svg>
