<?xml version="1.0" encoding="UTF-8" standalone="no"?>
<!-- Created with Inkscape (http://www.inkscape.org/) -->

<svg
   width="1"
   height="1.7"
   viewBox="0 0 1 1.7"
   version="1.1"
   id="svg5"
   sodipodi:docname="factory_wall_b.svg"
   inkscape:version="1.2 (dc2aedaf03, 2022-05-15)"
   xml:space="preserve"
   xmlns:inkscape="http://www.inkscape.org/namespaces/inkscape"
   xmlns:sodipodi="http://sodipodi.sourceforge.net/DTD/sodipodi-0.dtd"
   xmlns:xlink="http://www.w3.org/1999/xlink"
   xmlns="http://www.w3.org/2000/svg"
   xmlns:svg="http://www.w3.org/2000/svg"><sodipodi:namedview
     id="namedview7"
     pagecolor="#171717"
     bordercolor="#999999"
     borderopacity="1"
     inkscape:pageshadow="0"
     inkscape:pageopacity="0"
     inkscape:pagecheckerboard="0"
     inkscape:document-units="px"
     showgrid="false"
     units="px"
     inkscape:zoom="256"
     inkscape:cx="-0.11328125"
     inkscape:cy="0.65234375"
     inkscape:window-width="3440"
     inkscape:window-height="1417"
     inkscape:window-x="-8"
     inkscape:window-y="-8"
     inkscape:window-maximized="1"
     inkscape:current-layer="layer1"
     inkscape:object-paths="true"
     inkscape:snap-intersection-paths="true"
     inkscape:snap-smooth-nodes="true"
     inkscape:snap-midpoints="true"
     inkscape:snap-object-midpoints="true"
     showguides="false"
     inkscape:snap-global="true"
     inkscape:showpageshadow="0"
     inkscape:deskcolor="#171717"><inkscape:grid
       type="xygrid"
       id="grid836"
       originx="0"
       originy="0" /></sodipodi:namedview><defs
     id="defs2"><linearGradient
       inkscape:collect="always"
       id="linearGradient30717"><stop
         style="stop-color:#8084b8;stop-opacity:1"
         offset="0"
         id="stop30713" /><stop
         style="stop-color:#686ca0;stop-opacity:1"
         offset="1"
         id="stop30715" /></linearGradient><linearGradient
       inkscape:collect="always"
       id="linearGradient30502"><stop
         style="stop-color:#606094;stop-opacity:1"
         offset="0"
         id="stop30498" /><stop
         style="stop-color:#3c3c74;stop-opacity:1;"
         offset="1"
         id="stop30500" /></linearGradient><linearGradient
       inkscape:collect="always"
       xlink:href="#linearGradient30502"
       id="linearGradient30496"
       x1="310"
       y1="83"
       x2="310"
       y2="93"
       gradientUnits="userSpaceOnUse"
       gradientTransform="translate(-300,-70)" /><linearGradient
       inkscape:collect="always"
       xlink:href="#linearGradient30717"
       id="linearGradient30711"
       x1="310"
       y1="83"
       x2="310"
       y2="93"
       gradientUnits="userSpaceOnUse"
       gradientTransform="translate(-300,-70)" /></defs><g
     inkscape:label="Layer 1"
     inkscape:groupmode="layer"
     id="layer1"><g
       id="g80083"
       transform="scale(0.05)"><rect
         style="fill:#0f0f37;fill-opacity:0.2;stroke:none;stroke-width:4;stroke-linejoin:round;stroke-dasharray:none;paint-order:fill markers stroke"
         id="rect32021"
         width="20"
         height="11"
         x="0"
         y="23"
         ry="2" /><path
         id="rect28865"
         style="fill:#242840;fill-opacity:1;stroke:none;stroke-width:4;stroke-linejoin:round;stroke-dasharray:none;paint-order:fill markers stroke"
         d="m 0,0 v 26 c 0,2.215998 1.784,4 4,4 h 12 c 2.216,0 4,-1.784002 4,-4 V 0 Z"
         sodipodi:nodetypes="csssscc" /><rect
         style="fill:url(#linearGradient30496);fill-opacity:1;stroke:none;stroke-width:4;stroke-linejoin:round;stroke-dasharray:none;paint-order:fill markers stroke"
         id="rect28867"
         width="14"
         height="26"
         x="3"
         y="0" /><path
         id="path28869"
         style="fill:url(#linearGradient30711);fill-opacity:1;stroke:none;stroke-width:4;stroke-linejoin:round;stroke-dasharray:none;paint-order:fill markers stroke"
         d="M 2,0 V 25 H 4 V 1 h 12 v 24 h 2 V 0 Z"
         sodipodi:nodetypes="ccccccccc" /><path
         id="path28871"
         style="color:#000000;fill:#343858;fill-opacity:1;stroke-width:2;stroke-linejoin:round;paint-order:fill markers stroke"
         d="M 5.5,1 C 3.68694,1 2,2.219886 2,4 V 5 C 2,6.780114 3.68694,8 5.5,8 7.31306,8 9,6.780114 9,5 V 4 C 9,2.219886 7.31306,1 5.5,1 Z m 9,0 C 12.68694,1 11,2.219886 11,4 v 1 c 0,1.780114 1.68694,3 3.5,3 C 16.31306,8 18,6.780114 18,5 V 4 C 18,2.219886 16.31306,1 14.5,1 Z"
         sodipodi:nodetypes="ssssssssssssss" /><path
         id="path28873"
         style="fill:#8084b8;fill-opacity:1;stroke:none;stroke-width:2;stroke-linejoin:round;stroke-dasharray:none;paint-order:fill markers stroke"
         d="M 5.5,2 C 4.11929,2 3,2.895432 3,4 3,5.104568 4.11929,6 5.5,6 6.88071,6 8,5.104568 8,4 8,2.895432 6.88071,2 5.5,2 Z m 9,0 C 13.11929,2 12,2.895432 12,4 12,5.104568 13.11929,6 14.5,6 15.88071,6 17,5.104568 17,4 17,2.895432 15.88071,2 14.5,2 Z"
         sodipodi:nodetypes="ssssssssss" /><path
         id="path28875"
         style="fill:#8c90c0;fill-opacity:1;stroke:none;stroke-width:2;stroke-linejoin:round;stroke-dasharray:none;paint-order:fill markers stroke"
         d="M 5.5,2 C 4.45123,2.0057 3.51841,2.534524 3.16406,3.324219 3.56185,3.116851 4.02524,3.004393 4.5,3 5.88071,3 7,3.895432 7,5 6.995,5.231153 6.939,5.4598 6.83594,5.675781 7.55514,5.312057 7.99373,4.680669 8,4 8,2.895432 6.88071,2 5.5,2 Z m 9,0 C 13.45123,2.0057 12.51841,2.534524 12.16406,3.324219 12.56185,3.116851 13.02524,3.004393 13.5,3 14.88071,3 16,3.895432 16,5 15.995,5.231153 15.939,5.4598 15.83594,5.675781 16.55514,5.312057 16.99373,4.680669 17,4 17,2.895432 15.88071,2 14.5,2 Z"
         sodipodi:nodetypes="cccccccccccccc" /><path
         id="rect28723"
         style="fill:#9c5400;stroke-width:4;stroke-linejoin:round;paint-order:fill markers stroke"
         d="m 18,24 v 2 c 0,1.108 -0.892,2 -2,2 H 4 C 2.892,28 2,27.108 2,26 v -2 z"
         sodipodi:nodetypes="csssscc" /><rect
         style="fill:#bc7828;fill-opacity:1;stroke:none;stroke-width:4;stroke-linejoin:round;stroke-dasharray:none;paint-order:fill markers stroke"
         id="rect28725"
         width="16"
         height="1"
         x="2"
         y="24" /></g></g></svg>
