<?xml version="1.0" encoding="UTF-8" standalone="no"?>
<!-- Created with Inkscape (http://www.inkscape.org/) -->

<svg
   width="1"
   height="1.85"
   viewBox="0 0 1 1.85"
   version="1.1"
   id="svg5"
   sodipodi:docname="factory_barrel.svg"
   inkscape:version="1.2 (dc2aedaf03, 2022-05-15)"
   xml:space="preserve"
   xmlns:inkscape="http://www.inkscape.org/namespaces/inkscape"
   xmlns:sodipodi="http://sodipodi.sourceforge.net/DTD/sodipodi-0.dtd"
   xmlns="http://www.w3.org/2000/svg"
   xmlns:svg="http://www.w3.org/2000/svg"><sodipodi:namedview
     id="namedview7"
     pagecolor="#171717"
     bordercolor="#999999"
     borderopacity="1"
     inkscape:pageshadow="0"
     inkscape:pageopacity="0"
     inkscape:pagecheckerboard="0"
     inkscape:document-units="px"
     showgrid="false"
     units="px"
     inkscape:zoom="132.81822"
     inkscape:cx="0.91854866"
     inkscape:cy="0.55715247"
     inkscape:window-width="3440"
     inkscape:window-height="1417"
     inkscape:window-x="-8"
     inkscape:window-y="-8"
     inkscape:window-maximized="1"
     inkscape:current-layer="layer1"
     inkscape:object-paths="true"
     inkscape:snap-intersection-paths="true"
     inkscape:snap-smooth-nodes="true"
     inkscape:snap-midpoints="true"
     inkscape:snap-object-midpoints="true"
     showguides="false"
     inkscape:snap-global="true"
     inkscape:showpageshadow="0"
     inkscape:deskcolor="#171717"><inkscape:grid
       type="xygrid"
       id="grid836"
       originx="0"
       originy="0" /></sodipodi:namedview><defs
     id="defs2" /><g
     inkscape:label="Layer 1"
     inkscape:groupmode="layer"
     id="layer1"><g
       id="g78222"
       transform="scale(0.05)"><circle
         style="fill:#0a0f32;fill-opacity:0.2;stroke:none;stroke-width:2;stroke-linejoin:round;stroke-dasharray:none;paint-order:fill markers stroke"
         id="path13741"
         cx="10"
         cy="27"
         r="10" /><path
         id="circle11798"
         style="fill:#6c1c10;fill-opacity:1;stroke:none;stroke-width:2;stroke-linejoin:round;stroke-dasharray:none;paint-order:fill markers stroke"
         d="M 10,0 A 10,10 0 0 0 0,10 V 21 A 10,10 0 0 0 10,31 10,10 0 0 0 20,21 V 10 A 10,10 0 0 0 10,0 Z" /><path
         id="path11804"
         style="fill:#bc3420;fill-opacity:1;stroke:none;stroke-width:2;stroke-linejoin:round;stroke-dasharray:none;paint-order:fill markers stroke"
         d="m 2,10 v 11 c 0,4.41828 3.581722,8 8,8 4.418278,0 8,-3.58172 8,-8 V 10 Z"
         sodipodi:nodetypes="cssscc" /><path
         id="path11806"
         style="fill:#d47004;fill-opacity:1;stroke:none;stroke-width:2;stroke-linejoin:round;stroke-dasharray:none;paint-order:fill markers stroke"
         d="m 2,14 v 4 a 8,8 0 0 0 8,8 8,8 0 0 0 8,-8 v -4 a 8,8 0 0 1 -8,8 8,8 0 0 1 -8,-8 z" /><path
         id="path13405"
         style="fill:#a8301c;fill-opacity:1;stroke:none;stroke-width:2;stroke-linejoin:round;stroke-dasharray:none;paint-order:fill markers stroke"
         d="M 2,11.5 V 21 c 0,4.41828 3.581726,8 8,8 0.476022,0 0.941364,-0.0433 1.394531,-0.12305 C 9.131603,27.25805 8,23.87456 8,16 l 1,-1 z" /><path
         id="path13407"
         style="fill:#c06804;fill-opacity:1;stroke:none;stroke-width:2;stroke-linejoin:round;stroke-dasharray:none;paint-order:fill markers stroke"
         d="m 2,14 v 4 a 8,8 0 0 0 7.240234,7.95117 C 8.813795,24.87684 8.501117,23.50958 8.294922,21.79883 A 8,8 0 0 1 2,14 Z" /><circle
         style="fill:#f05440;fill-opacity:1;stroke:none;stroke-width:2;stroke-linejoin:round;stroke-dasharray:none;paint-order:fill markers stroke"
         id="circle11810"
         cx="10"
         cy="10"
         r="8" /><circle
         style="fill:#e83c28;fill-opacity:1;stroke:none;stroke-width:2;stroke-linejoin:round;stroke-dasharray:none;paint-order:fill markers stroke"
         id="circle11812"
         cx="10"
         cy="10"
         r="5.5" /><path
         id="circle13129"
         style="fill:#b83020;fill-opacity:1;stroke:none;stroke-width:2;stroke-linejoin:round;stroke-dasharray:none;paint-order:fill markers stroke"
         d="M 10,4.5 A 5.5,5.5 0 0 0 4.5,10 5.5,5.5 0 0 0 4.712891,11.5 5.5,5.5 0 0 1 10,7.5 5.5,5.5 0 0 1 15.289062,11.496094 5.5,5.5 0 0 0 15.5,10 5.5,5.5 0 0 0 10,4.5 Z" /></g></g></svg>
