<?xml version="1.0" encoding="UTF-8" standalone="no"?>
<!-- Created with Inkscape (http://www.inkscape.org/) -->

<svg
   width="1"
   height="1.65"
   viewBox="0 0 1 1.65"
   version="1.1"
   id="svg5"
   sodipodi:docname="factory_wall_br.svg"
   inkscape:version="1.2 (dc2aedaf03, 2022-05-15)"
   xml:space="preserve"
   xmlns:inkscape="http://www.inkscape.org/namespaces/inkscape"
   xmlns:sodipodi="http://sodipodi.sourceforge.net/DTD/sodipodi-0.dtd"
   xmlns:xlink="http://www.w3.org/1999/xlink"
   xmlns="http://www.w3.org/2000/svg"
   xmlns:svg="http://www.w3.org/2000/svg"><sodipodi:namedview
     id="namedview7"
     pagecolor="#171717"
     bordercolor="#999999"
     borderopacity="1"
     inkscape:pageshadow="0"
     inkscape:pageopacity="0"
     inkscape:pagecheckerboard="0"
     inkscape:document-units="px"
     showgrid="false"
     units="px"
     inkscape:zoom="187.83333"
     inkscape:cx="0.40461403"
     inkscape:cy="1.0647738"
     inkscape:window-width="3440"
     inkscape:window-height="1417"
     inkscape:window-x="-8"
     inkscape:window-y="-8"
     inkscape:window-maximized="1"
     inkscape:current-layer="layer1"
     inkscape:object-paths="true"
     inkscape:snap-intersection-paths="true"
     inkscape:snap-smooth-nodes="true"
     inkscape:snap-midpoints="true"
     inkscape:snap-object-midpoints="true"
     showguides="false"
     inkscape:snap-global="true"
     inkscape:showpageshadow="0"
     inkscape:deskcolor="#171717"><inkscape:grid
       type="xygrid"
       id="grid836"
       originx="0"
       originy="0" /></sodipodi:namedview><defs
     id="defs2"><linearGradient
       inkscape:collect="always"
       id="linearGradient38895"><stop
         style="stop-color:#343858;stop-opacity:1"
         offset="0"
         id="stop38891" /><stop
         style="stop-color:#2c3050;stop-opacity:1;"
         offset="1"
         id="stop38893" /></linearGradient><linearGradient
       inkscape:collect="always"
       xlink:href="#linearGradient38895"
       id="linearGradient56535"
       gradientUnits="userSpaceOnUse"
       x1="261"
       y1="91"
       x2="265"
       y2="91"
       gradientTransform="matrix(-1,0,0,1,270,-70)" /></defs><g
     inkscape:label="Layer 1"
     inkscape:groupmode="layer"
     id="layer1"><g
       id="g77444"
       transform="scale(0.05)"><path
         id="path56513"
         style="fill:#0f0f37;fill-opacity:0.2;stroke:none;stroke-width:4;stroke-linejoin:round;stroke-dasharray:none;paint-order:fill markers stroke"
         d="m 0,19 v 12 c 0,1.10457 0.89543,2 2,2 h 18 v -4 z"
         sodipodi:nodetypes="cssccc" /><path
         id="path56515"
         style="fill:#242840;fill-opacity:1;stroke:none;stroke-width:4;stroke-linejoin:round;stroke-dasharray:none;paint-order:fill markers stroke"
         d="M 20,0 V 30 H 9 A 9,9 0 0 1 0,21 V 0 h 9 z" /><path
         id="path56517"
         style="fill:url(#linearGradient56535);fill-opacity:1;stroke-width:4;stroke-linejoin:round;paint-order:fill markers stroke"
         d="M 19,11 H 2 v 9 c 0,3 3,6 6,6 h 11 z"
         sodipodi:nodetypes="ccsscc" /><path
         id="path56519"
         style="fill:#9c5400;fill-opacity:1;stroke:none;stroke-width:4;stroke-linejoin:round;stroke-dasharray:none;paint-order:fill markers stroke"
         d="m 9,25 h 11 v 3 H 9 C 5.13401,28 2,24.865993 2,21 v -2 c 0,4 3,6 7,6 z"
         sodipodi:nodetypes="cccsscc" /><path
         id="path56521"
         style="fill:#bc7828;fill-opacity:1;stroke:none;stroke-width:4;stroke-linejoin:round;stroke-dasharray:none;paint-order:fill markers stroke"
         d="m 2,18 a 7,7 0 0 0 7,7 h 11 v 1 H 9 A 7,7 0 0 1 2,19 Z" /><path
         id="path56523"
         style="fill:#8084b8;fill-opacity:1;stroke:none;stroke-width:4;stroke-linejoin:round;stroke-dasharray:none;paint-order:fill markers stroke"
         d="m 18,0 c 0,1.104569 0.89543,2 2,2 V 18 H 9 C 5.13401,18 2,14.865993 2,11 V 0 Z"
         sodipodi:nodetypes="cccsscc" /><path
         id="path56525"
         style="fill:#606094;fill-opacity:1;stroke:none;stroke-width:4;stroke-linejoin:round;stroke-dasharray:none;paint-order:fill markers stroke"
         d="M 16.14258,1 A 4,4 0 0 0 19,3.857422 V 16 H 9 A 5,5 0 0 1 4,11 V 1 Z" /><path
         id="path56527"
         style="color:#000000;fill:#343858;fill-opacity:1;stroke-width:2;stroke-linejoin:round;paint-order:fill markers stroke"
         d="M 14.5,1 C 16.31306,1 18,2.219886 18,4 V 5 C 18,6.780114 16.31306,8 14.5,8 12.68694,8 11,6.780114 11,5 V 4 c 0,-1.780114 1.68694,-3 3.5,-3 z m -9,0 C 7.31306,1 9,2.219886 9,4 V 5 C 9,6.780114 7.31306,8 5.5,8 3.68694,8 2,6.780114 2,5 V 4 C 2,2.219886 3.68694,1 5.5,1 Z m 9,8 c 1.81306,0 3.5,1.219886 3.5,3 v 1 c 0,1.780114 -1.68694,3 -3.5,3 C 12.68694,16 11,14.780114 11,13 v -1 c 0,-1.780114 1.68694,-3 3.5,-3 z m -9,0 C 7.31306,9 9,10.219886 9,12 v 1 C 9,14.780114 7.31306,16 5.5,16 3.68694,16 2,14.780114 2,13 V 12 C 2,10.219886 3.68694,9 5.5,9 Z"
         sodipodi:nodetypes="ssssssssssssssssssssssssssss" /><path
         id="path56529"
         style="fill:#8084b8;fill-opacity:1;stroke:none;stroke-width:2;stroke-linejoin:round;stroke-dasharray:none;paint-order:fill markers stroke"
         d="M 14.5,2 C 15.88071,2 17,2.895432 17,4 17,5.104568 15.88071,6 14.5,6 13.11929,6 12,5.104568 12,4 12,2.895432 13.11929,2 14.5,2 Z m -9,0 C 6.88071,2 8,2.895432 8,4 8,5.104568 6.88071,6 5.5,6 4.11929,6 3,5.104568 3,4 3,2.895432 4.11929,2 5.5,2 Z m 9,8 c 1.38071,0 2.5,0.895432 2.5,2 0,1.104568 -1.11929,2 -2.5,2 -1.38071,0 -2.5,-0.895432 -2.5,-2 0,-1.104568 1.11929,-2 2.5,-2 z m -9,0 C 6.88071,10 8,10.895432 8,12 8,13.104568 6.88071,14 5.5,14 4.11929,14 3,13.104568 3,12 3,10.895432 4.11929,10 5.5,10 Z"
         sodipodi:nodetypes="ssssssssssssssssssss" /><path
         id="path56531"
         style="fill:#8c90c0;fill-opacity:1;stroke:none;stroke-width:2;stroke-linejoin:round;stroke-dasharray:none;paint-order:fill markers stroke"
         d="m 14.5,2 c 1.04877,0.0057 1.98159,0.534524 2.33594,1.324219 C 16.43815,3.116851 15.97476,3.004393 15.5,3 14.11929,3 13,3.895432 13,5 13.005,5.231153 13.061,5.4598 13.16406,5.675781 12.44486,5.312057 12.00627,4.680669 12,4 12,2.895432 13.11929,2 14.5,2 Z m -9,0 C 6.54877,2.0057 7.48159,2.534524 7.83594,3.324219 7.43815,3.116851 6.97476,3.004393 6.5,3 5.11929,3 4,3.895432 4,5 4.005,5.231153 4.061,5.4598 4.16406,5.675781 3.44486,5.312057 3.00627,4.680669 3,4 3,2.895432 4.11929,2 5.5,2 Z m 9,8 c 1.04877,0.0057 1.98159,0.534524 2.33594,1.324219 C 16.43815,11.116851 15.97476,11.004393 15.5,11 14.11929,11 13,11.895432 13,13 c 0.005,0.231153 0.061,0.4598 0.16406,0.675781 C 12.44486,13.312057 12.00627,12.680669 12,12 c 0,-1.104568 1.11929,-2 2.5,-2 z m -9,0 c 1.04877,0.0057 1.98159,0.534524 2.33594,1.324219 C 7.43815,11.116851 6.97476,11.004393 6.5,11 5.11929,11 4,11.895432 4,13 4.005,13.231153 4.061,13.4598 4.16406,13.675781 3.44486,13.312057 3.00627,12.680669 3,12 3,10.895432 4.11929,10 5.5,10 Z"
         sodipodi:nodetypes="cccccccccccccccccccccccccccc" /></g></g></svg>
