<?xml version="1.0" encoding="UTF-8" standalone="no"?>
<!-- Created with Inkscape (http://www.inkscape.org/) -->

<svg
   width="1"
   height="1.65"
   viewBox="0 0 1 1.65"
   version="1.1"
   id="svg5"
   sodipodi:docname="factory_wall_r.svg"
   inkscape:version="1.2 (dc2aedaf03, 2022-05-15)"
   xml:space="preserve"
   xmlns:inkscape="http://www.inkscape.org/namespaces/inkscape"
   xmlns:sodipodi="http://sodipodi.sourceforge.net/DTD/sodipodi-0.dtd"
   xmlns:xlink="http://www.w3.org/1999/xlink"
   xmlns="http://www.w3.org/2000/svg"
   xmlns:svg="http://www.w3.org/2000/svg"><sodipodi:namedview
     id="namedview7"
     pagecolor="#171717"
     bordercolor="#999999"
     borderopacity="1"
     inkscape:pageshadow="0"
     inkscape:pageopacity="0"
     inkscape:pagecheckerboard="0"
     inkscape:document-units="px"
     showgrid="false"
     units="px"
     inkscape:zoom="187.83333"
     inkscape:cx="0.65483586"
     inkscape:cy="0.28216504"
     inkscape:window-width="3440"
     inkscape:window-height="1417"
     inkscape:window-x="-8"
     inkscape:window-y="-8"
     inkscape:window-maximized="1"
     inkscape:current-layer="layer1"
     inkscape:object-paths="true"
     inkscape:snap-intersection-paths="true"
     inkscape:snap-smooth-nodes="true"
     inkscape:snap-midpoints="true"
     inkscape:snap-object-midpoints="true"
     showguides="false"
     inkscape:snap-global="true"
     inkscape:showpageshadow="0"
     inkscape:deskcolor="#171717"><inkscape:grid
       type="xygrid"
       id="grid836"
       originx="0"
       originy="0" /></sodipodi:namedview><defs
     id="defs2"><linearGradient
       inkscape:collect="always"
       id="linearGradient25240"><stop
         style="stop-color:#8084b8;stop-opacity:1;"
         offset="0"
         id="stop25236" /><stop
         style="stop-color:#6c6ca4;stop-opacity:1;"
         offset="1"
         id="stop25238" /></linearGradient><linearGradient
       inkscape:collect="always"
       id="linearGradient25025"><stop
         style="stop-color:#606094;stop-opacity:1;"
         offset="0"
         id="stop25021" /><stop
         style="stop-color:#505488;stop-opacity:1;"
         offset="1"
         id="stop25023" /></linearGradient><linearGradient
       inkscape:collect="always"
       xlink:href="#linearGradient25025"
       id="linearGradient25019"
       x1="183"
       y1="80"
       x2="179"
       y2="80"
       gradientUnits="userSpaceOnUse"
       gradientTransform="translate(-175,-70)" /><linearGradient
       inkscape:collect="always"
       xlink:href="#linearGradient25240"
       id="linearGradient25234"
       x1="183"
       y1="80"
       x2="179"
       y2="80"
       gradientUnits="userSpaceOnUse"
       gradientTransform="translate(-175,-70)" /></defs><g
     inkscape:label="Layer 1"
     inkscape:groupmode="layer"
     id="layer1"><g
       id="g79044"
       transform="scale(0.05)"><path
         id="path32591"
         style="fill:#0f0f37;fill-opacity:0.2;stroke:none;stroke-width:4;stroke-linejoin:round;stroke-dasharray:none;paint-order:fill markers stroke"
         d="m 0,29 v 2 c 0,1.10457 0.89543,2 2,2 h 18 v -4 z"
         sodipodi:nodetypes="cssccc" /><path
         id="rect24971"
         style="fill:#242840;fill-opacity:1;stroke:none;stroke-width:4;stroke-linejoin:round;stroke-dasharray:none;paint-order:fill markers stroke"
         d="M 6,0 C 2.68629,0 0,2.686292 0,6 V 30 H 20 V 0 Z"
         sodipodi:nodetypes="sscccs" /><rect
         style="fill:#343858;fill-opacity:1;stroke:none;stroke-width:4;stroke-linejoin:round;stroke-dasharray:none;paint-order:fill markers stroke"
         id="rect24973"
         width="17"
         height="10"
         x="-19"
         y="-27"
         transform="scale(-1)" /><rect
         style="fill:#9c5400;fill-opacity:1;stroke:none;stroke-width:4;stroke-linejoin:round;stroke-dasharray:none;paint-order:fill markers stroke"
         id="rect24975"
         width="18"
         height="3"
         x="2"
         y="25" /><rect
         style="fill:#bc7828;fill-opacity:1;stroke:none;stroke-width:4;stroke-linejoin:round;stroke-dasharray:none;paint-order:fill markers stroke"
         id="rect24977"
         width="18"
         height="1"
         x="2"
         y="25" /><path
         id="rect24979"
         style="fill:url(#linearGradient25234);fill-opacity:1;stroke:none;stroke-width:4;stroke-linejoin:round;stroke-dasharray:none;paint-order:fill markers stroke"
         d="M 6,2 C 3.79086,2 2,3.790861 2,6 V 22 C 2,19.790861 3.79086,18 6,18 H 20 V 2 Z"
         sodipodi:nodetypes="sscsccs" /><path
         id="rect24981"
         style="fill:url(#linearGradient25019);fill-opacity:1;stroke:none;stroke-width:4;stroke-linejoin:round;stroke-dasharray:none;paint-order:fill markers stroke"
         d="M 6,4 A 4,4 0 0 0 2,8 V 20 A 4,4 0 0 1 6,16 H 19 V 4 Z" /><path
         id="path24983"
         style="color:#000000;fill:#343858;fill-opacity:1;stroke-width:2;stroke-linejoin:round;paint-order:fill markers stroke"
         d="M 15.5,1 C 13.68694,1 12,2.219886 12,4 v 1 c 0,1.780114 1.68694,3 3.5,3 C 17.31306,8 19,6.780114 19,5 V 4 C 19,2.219886 17.31306,1 15.5,1 Z m 0,8 C 13.68694,9 12,10.219886 12,12 v 1 c 0,1.780114 1.68694,3 3.5,3 1.81306,0 3.5,-1.219886 3.5,-3 V 12 C 19,10.219886 17.31306,9 15.5,9 Z"
         sodipodi:nodetypes="ssssssssssssss" /><path
         id="path24985"
         style="fill:#8084b8;fill-opacity:1;stroke:none;stroke-width:2;stroke-linejoin:round;stroke-dasharray:none;paint-order:fill markers stroke"
         d="M 15.5,2 C 14.11929,2 13,2.895432 13,4 13,5.104568 14.11929,6 15.5,6 16.88071,6 18,5.104568 18,4 18,2.895432 16.88071,2 15.5,2 Z m 0,8 c -1.38071,0 -2.5,0.895432 -2.5,2 0,1.104568 1.11929,2 2.5,2 1.38071,0 2.5,-0.895432 2.5,-2 0,-1.104568 -1.11929,-2 -2.5,-2 z"
         sodipodi:nodetypes="ssssssssss" /><path
         id="path24987"
         style="fill:#8c90c0;fill-opacity:1;stroke:none;stroke-width:2;stroke-linejoin:round;stroke-dasharray:none;paint-order:fill markers stroke"
         d="M 15.5,2 C 14.45123,2.0057 13.51841,2.534524 13.16406,3.324219 13.56185,3.116851 14.02524,3.004393 14.5,3 15.88071,3 17,3.895432 17,5 16.995,5.231153 16.939,5.4598 16.83594,5.675781 17.55514,5.312057 17.99373,4.680669 18,4 18,2.895432 16.88071,2 15.5,2 Z m 0,8 c -1.04877,0.0057 -1.98159,0.534524 -2.33594,1.324219 C 13.56185,11.116851 14.02524,11.004393 14.5,11 c 1.38071,0 2.5,0.895432 2.5,2 -0.005,0.231153 -0.061,0.4598 -0.16406,0.675781 C 17.55514,13.312057 17.99373,12.680669 18,12 18,10.895432 16.88071,10 15.5,10 Z"
         sodipodi:nodetypes="cccccccccccccc" /></g></g></svg>
