<?xml version="1.0" encoding="utf-8"?>
<!-- Generator: Adobe Illustrator 24.1.2, SVG Export Plug-In . SVG Version: 6.00 Build 0)  -->
<svg version="1.1" id="Capa_1" xmlns="http://www.w3.org/2000/svg" xmlns:xlink="http://www.w3.org/1999/xlink" x="0px" y="0px"
	 width="1px" height="1.8px" viewBox="0 0 1 1.8" enable-background="new 0 0 1 1.8" xml:space="preserve">
<path id="rect10315" fill="#0A0F32" fill-opacity="0.2" d="M0.1,1.4h0.8C0.955,1.4,1,1.445,1,1.5v0.2c0,0.055-0.045,0.1-0.1,0.1H0.1
	C0.045,1.8,0,1.755,0,1.7V1.5C0,1.445,0.045,1.4,0.1,1.4z"/>
<g>
	<path fill="#21295D" d="M1,1.3c0,0.11-0.089,0.2-0.2,0.2H0.2C0.089,1.5,0,1.41,0,1.3l0.045-1.18C0.048,0.053,0.103,0,0.17,0H0.83
		c0.067,0,0.122,0.053,0.125,0.12L1,1.3z"/>
	<path fill="#3E4168" d="M0.9,1.35c0,0.027-0.023,0.05-0.05,0.05h-0.7C0.123,1.4,0.1,1.377,0.1,1.35l0.048-1.202
		C0.149,0.121,0.171,0.1,0.198,0.1h0.604c0.027,0,0.049,0.021,0.05,0.048L0.9,1.35z"/>
	<path fill="#868DC8" d="M0.85,0.15v0.5c0,0.027-0.023,0.05-0.05,0.05H0.2c-0.027,0-0.05-0.023-0.05-0.05v-0.5
		c0-0.027,0.023-0.05,0.05-0.05h0.6C0.827,0.1,0.85,0.123,0.85,0.15z"/>
	<rect x="0.25" y="0.2" fill="#696FAB" width="0.5" height="0.4"/>
	<polygon fill="#A7700A" points="0.6,0.85 0.256,1.096 0.265,0.85 	"/>
	<polygon fill="#A7700A" points="0.75,1.25 0.4,1.25 0.741,1.007 	"/>
	<ellipse fill="#3F4468" cx="0.5" cy="0.4" rx="0.175" ry="0.15"/>
	<path fill="#BF4604" d="M0.675,0.25v0.1c0,0.083-0.079,0.15-0.175,0.15S0.325,0.433,0.325,0.35v-0.1
		c0,0.017,0.004,0.035,0.011,0.05C0.359,0.358,0.424,0.4,0.5,0.4s0.141-0.042,0.164-0.1C0.671,0.285,0.675,0.267,0.675,0.25z"/>
	<path fill="#FD6313" d="M0.675,0.25c0,0.017-0.004,0.035-0.011,0.05C0.641,0.358,0.576,0.4,0.5,0.4S0.359,0.358,0.336,0.3
		C0.329,0.285,0.325,0.267,0.325,0.25c0-0.083,0.079-0.15,0.175-0.15S0.675,0.167,0.675,0.25z"/>
	<polygon fill="#452404" points="0.741,1.007 0.4,1.25 0.25,1.25 0.256,1.096 0.6,0.85 0.735,0.85 	"/>
</g>
</svg>
