<?xml version="1.0" encoding="utf-8"?>
<!-- Generator: Adobe Illustrator 24.1.2, SVG Export Plug-In . SVG Version: 6.00 Build 0)  -->
<svg version="1.1" id="Capa_1" xmlns="http://www.w3.org/2000/svg" xmlns:xlink="http://www.w3.org/1999/xlink" x="0px" y="0px"
	 width="1px" height="1.25px" viewBox="0 0 1 1.25" enable-background="new 0 0 1 1.25" xml:space="preserve">
<g>
	<path id="rect10315" fill="#0A0F32" fill-opacity="0.2" d="M0.1,0.8h0.8C0.956,0.8,1,0.851,1,0.913v0.225
		C1,1.199,0.955,1.25,0.9,1.25H0.1C0.045,1.25,0,1.199,0,1.138V0.913C0,0.851,0.045,0.8,0.1,0.8z"/>
</g>
<g>
	<path fill="#34184F" d="M1,0.3v0.55H0.8V0.9c0,0.138-0.113,0.25-0.25,0.25h-0.1C0.313,1.15,0.2,1.038,0.2,0.9V0.85H0V0.3h0.2V0.25
		C0.2,0.112,0.313,0,0.45,0h0.1C0.688,0,0.8,0.112,0.8,0.25V0.3H1z"/>
	<rect y="0.4" fill="#8736C1" width="0.2" height="0.35"/>
	<rect x="0.8" y="0.4" fill="#8736C1" width="0.2" height="0.35"/>
	<rect y="0.55" fill="#452C58" width="0.2" height="0.2"/>
	<rect x="0.8" y="0.55" fill="#452C58" width="0.2" height="0.2"/>
	<path fill="#452C58" d="M0.7,0.25V0.9c0,0.065-0.042,0.12-0.1,0.141C0.585,1.047,0.567,1.05,0.55,1.05h-0.1
		c-0.017,0-0.035-0.003-0.05-0.009C0.342,1.02,0.3,0.965,0.3,0.9V0.25c0-0.065,0.042-0.121,0.1-0.141
		C0.415,0.103,0.433,0.1,0.45,0.1h0.1c0.017,0,0.035,0.003,0.05,0.009C0.658,0.129,0.7,0.185,0.7,0.25z"/>
	<path fill="#3C2650" d="M0.4,0.109v0.932C0.342,1.02,0.3,0.965,0.3,0.9V0.25C0.3,0.185,0.342,0.129,0.4,0.109z"/>
	<path fill="#523664" d="M0.7,0.25V0.9c0,0.065-0.042,0.12-0.1,0.141V0.109C0.658,0.129,0.7,0.185,0.7,0.25z"/>
	<path fill="#B453F5" d="M0.7,0.25V0.3c0,0.054-0.029,0.101-0.072,0.128C0.605,0.442,0.579,0.45,0.55,0.45h-0.1
		C0.367,0.45,0.3,0.382,0.3,0.3V0.25c0-0.029,0.008-0.055,0.022-0.078C0.348,0.129,0.396,0.1,0.45,0.1h0.1
		C0.633,0.1,0.7,0.167,0.7,0.25z"/>
	<path fill="#A351E0" d="M0.65,0.3v0.05c0,0.029-0.008,0.055-0.022,0.078C0.605,0.442,0.579,0.45,0.55,0.45h-0.1
		C0.367,0.45,0.3,0.382,0.3,0.3V0.25c0-0.029,0.008-0.055,0.022-0.078C0.345,0.158,0.371,0.15,0.4,0.15h0.1
		C0.583,0.15,0.65,0.217,0.65,0.3z"/>
	<path fill="#8B38C3" d="M0.625,0.275c0,0.027-0.011,0.052-0.03,0.07c-0.018,0.018-0.043,0.03-0.07,0.03h-0.05
		c-0.055,0-0.1-0.045-0.1-0.1c0-0.027,0.011-0.052,0.03-0.071c0.018-0.018,0.043-0.029,0.07-0.029h0.05
		C0.58,0.175,0.625,0.22,0.625,0.275z"/>
</g>
</svg>
