<?xml version="1.0" encoding="utf-8"?>
<!-- Generator: Adobe Illustrator 24.1.2, SVG Export Plug-In . SVG Version: 6.00 Build 0)  -->
<svg version="1.1" id="Capa_1" xmlns="http://www.w3.org/2000/svg" xmlns:xlink="http://www.w3.org/1999/xlink" x="0px" y="0px"
	 width="1px" height="1.55px" viewBox="0 0 1 1.55" enable-background="new 0 0 1 1.55" xml:space="preserve">
<g>
	<path fill="#693E15" d="M0.8,0.25V1.3c0,0.138-0.113,0.25-0.25,0.25h-0.1C0.313,1.55,0.2,1.438,0.2,1.3V0.25
		C0.2,0.112,0.313,0,0.45,0h0.1C0.688,0,0.8,0.112,0.8,0.25z"/>
	<path fill="#C87546" d="M0.7,0.25v0.9c0,0.082-0.067,0.15-0.15,0.15h-0.1C0.367,1.3,0.3,1.232,0.3,1.15v-0.9
		c0-0.083,0.067-0.15,0.15-0.15h0.1C0.633,0.1,0.7,0.167,0.7,0.25z"/>
	<path fill="#693E15" d="M0.8,1.25V1.3c0,0.138-0.113,0.25-0.25,0.25h-0.1C0.313,1.55,0.2,1.438,0.2,1.3V1.25
		C0.2,1.112,0.313,1,0.45,1h0.1C0.688,1,0.8,1.112,0.8,1.25z"/>
	<path fill="#BD6C3C" d="M0.7,1.25V1.3c0,0.083-0.067,0.15-0.15,0.15h-0.1C0.367,1.45,0.3,1.383,0.3,1.3V1.25
		c0-0.083,0.067-0.15,0.15-0.15h0.1C0.633,1.1,0.7,1.167,0.7,1.25z"/>
	<path fill="#FBB492" d="M0.6,1.225v0.1c0,0.027-0.023,0.05-0.05,0.05h-0.1c-0.027,0-0.05-0.023-0.05-0.05v-0.1
		c0-0.027,0.023-0.05,0.05-0.05h0.1C0.577,1.175,0.6,1.198,0.6,1.225z"/>
</g>
</svg>
