<?xml version="1.0" encoding="utf-8"?>
<!-- Generator: Adobe Illustrator 24.1.2, SVG Export Plug-In . SVG Version: 6.00 Build 0)  -->
<svg version="1.1" id="Capa_1" xmlns="http://www.w3.org/2000/svg" xmlns:xlink="http://www.w3.org/1999/xlink" x="0px" y="0px"
	 width="1px" height="1.4px" viewBox="0 0 1 1.4" enable-background="new 0 0 1 1.4" xml:space="preserve">
<g>
	<path fill="#34184F" d="M0.8,0.5v0.65c0,0.081-0.039,0.154-0.1,0.199V1.4H0.3V1.349C0.239,1.304,0.2,1.231,0.2,1.15V0.5
		c0-0.082,0.039-0.155,0.1-0.2V0h0.4v0.3C0.761,0.345,0.8,0.418,0.8,0.5z"/>
	<path fill="#8736C1" d="M0.6,0v0.255C0.583,0.251,0.567,0.25,0.55,0.25h-0.1c-0.017,0-0.033,0.001-0.05,0.005V0H0.6z"/>
	<path fill="#432850" d="M0.7,0.5V1c0-0.055-0.023-0.105-0.058-0.142C0.605,0.823,0.555,0.8,0.5,0.8C0.389,0.8,0.3,0.889,0.3,1V0.5
		c0-0.083,0.067-0.15,0.15-0.15h0.1c0.017,0,0.035,0.003,0.05,0.009C0.658,0.379,0.7,0.435,0.7,0.5z"/>
	<path fill="#452C58" d="M0.7,0.5V1c0-0.055-0.023-0.105-0.058-0.142C0.605,0.823,0.555,0.8,0.5,0.8V0.5
		c0-0.065,0.042-0.121,0.1-0.141C0.658,0.379,0.7,0.435,0.7,0.5z"/>
	<path fill="#B453F5" d="M0.7,0.5v0.05c0,0.054-0.029,0.101-0.072,0.128C0.605,0.692,0.579,0.7,0.55,0.7h-0.1
		C0.367,0.7,0.3,0.632,0.3,0.55V0.5c0-0.029,0.008-0.055,0.022-0.078C0.348,0.379,0.396,0.35,0.45,0.35h0.1
		C0.633,0.35,0.7,0.417,0.7,0.5z"/>
	<path fill="#A351E0" d="M0.65,0.55V0.6c0,0.029-0.008,0.055-0.022,0.078C0.605,0.692,0.579,0.7,0.55,0.7h-0.1
		C0.367,0.7,0.3,0.632,0.3,0.55V0.5c0-0.029,0.008-0.055,0.022-0.078C0.345,0.408,0.371,0.4,0.4,0.4h0.1
		C0.583,0.4,0.65,0.467,0.65,0.55z"/>
	<path fill="#8B38C3" d="M0.625,0.525c0,0.027-0.011,0.052-0.03,0.07c-0.018,0.018-0.043,0.03-0.07,0.03h-0.05
		c-0.055,0-0.1-0.045-0.1-0.1c0-0.027,0.011-0.052,0.03-0.071c0.018-0.018,0.043-0.029,0.07-0.029h0.05
		C0.58,0.425,0.625,0.47,0.625,0.525z"/>
	<path fill="#8736C1" d="M0.6,1v0.4H0.4V1c0-0.055,0.045-0.1,0.1-0.1c0.027,0,0.052,0.011,0.07,0.029C0.589,0.948,0.6,0.973,0.6,1z"
		/>
</g>
</svg>
