<?xml version="1.0" encoding="UTF-8" standalone="no"?>
<svg
   width="0.29104164mm"
   height="0.47624925mm"
   viewBox="0 0 0.29104164 0.47624925"
   version="1.1"
   id="svg3893"
   inkscape:version="1.3.2 (091e20e, 2023-11-25, custom)"
   sodipodi:docname="fence_cor_island.svg"
   xml:space="preserve"
   xmlns:inkscape="http://www.inkscape.org/namespaces/inkscape"
   xmlns:sodipodi="http://sodipodi.sourceforge.net/DTD/sodipodi-0.dtd"
   xmlns="http://www.w3.org/2000/svg"
   xmlns:svg="http://www.w3.org/2000/svg"
   xmlns:rdf="http://www.w3.org/1999/02/22-rdf-syntax-ns#"
   xmlns:cc="http://creativecommons.org/ns#"
   xmlns:dc="http://purl.org/dc/elements/1.1/"><defs
     id="defs3887" /><sodipodi:namedview
     id="base"
     pagecolor="#ffffff"
     bordercolor="#666666"
     borderopacity="1.0"
     inkscape:pageopacity="0.0"
     inkscape:pageshadow="2"
     inkscape:zoom="181.01934"
     inkscape:cx="0.23754368"
     inkscape:cy="1.0468495"
     inkscape:document-units="px"
     inkscape:current-layer="layer1"
     inkscape:document-rotation="0"
     showgrid="false"
     inkscape:window-width="1366"
     inkscape:window-height="705"
     inkscape:window-x="-8"
     inkscape:window-y="-8"
     inkscape:window-maximized="1"
     inkscape:showpageshadow="0"
     inkscape:pagecheckerboard="1"
     inkscape:deskcolor="#505050" /><metadata
     id="metadata3890"><rdf:RDF><cc:Work
         rdf:about=""><dc:format>image/svg+xml</dc:format><dc:type
           rdf:resource="http://purl.org/dc/dcmitype/StillImage" /></cc:Work></rdf:RDF></metadata><g
     inkscape:label="Layer 1"
     inkscape:groupmode="layer"
     id="layer1"
     transform="translate(-92.339579,-136.6006)"><g
       transform="matrix(0.04999994,0,0,0.04999994,74.017205,141.07205)"
       id="g3161"><rect
         ry="0.93459511"
         y="-83.079155"
         x="366.71249"
         height="3.1749845"
         width="5.2916713"
         id="rect19227-0-4-8"
         style="opacity:1;fill:#000000;fill-opacity:0.18000001;fill-rule:nonzero;stroke:none;stroke-width:3.93973;stroke-linecap:round;stroke-linejoin:round;stroke-miterlimit:4;stroke-dasharray:none;stroke-dashoffset:0;stroke-opacity:1;paint-order:markers stroke fill" /><path
         id="path3123"
         style="color:#000000;font-style:normal;font-variant:normal;font-weight:normal;font-stretch:normal;font-size:medium;line-height:normal;font-family:sans-serif;font-variant-ligatures:normal;font-variant-position:normal;font-variant-caps:normal;font-variant-numeric:normal;font-variant-alternates:normal;font-variant-east-asian:normal;font-feature-settings:normal;font-variation-settings:normal;text-indent:0;text-align:start;text-decoration:none;text-decoration-line:none;text-decoration-style:solid;text-decoration-color:#000000;letter-spacing:normal;word-spacing:normal;text-transform:none;writing-mode:lr-tb;direction:ltr;text-orientation:mixed;dominant-baseline:auto;baseline-shift:baseline;text-anchor:start;white-space:normal;shape-padding:0;shape-margin:0;inline-size:0;clip-rule:nonzero;display:inline;overflow:visible;visibility:visible;isolation:auto;mix-blend-mode:normal;color-interpolation:sRGB;color-interpolation-filters:linearRGB;solid-color:#000000;solid-opacity:1;vector-effect:none;fill:#2c21a7;fill-opacity:1;fill-rule:nonzero;stroke:none;stroke-width:1.05833;stroke-linecap:square;stroke-linejoin:miter;stroke-miterlimit:4;stroke-dasharray:none;stroke-dashoffset:0;stroke-opacity:1;paint-order:markers stroke fill;color-rendering:auto;image-rendering:auto;shape-rendering:auto;text-rendering:auto;enable-background:accumulate;stop-color:#000000"
         d="m 367.24272,-89.429167 c -0.43058,0 -0.79481,0.362151 -0.79481,0.792719 v 6.616649 c 0,0.430567 0.36423,0.792718 0.79481,0.792718 h 4.23071 c 0.43059,0 0.79532,-0.362151 0.79532,-0.792718 v -6.616649 c 0,-0.430568 -0.36473,-0.792719 -0.79532,-0.792719 z"
         sodipodi:nodetypes="sssssssss" /><rect
         ry="0.26454973"
         y="-88.900002"
         x="366.97708"
         height="7.1437497"
         width="4.7624998"
         id="rect2907"
         style="opacity:1;fill:#484fda;fill-opacity:1;stroke:none;stroke-width:1.05833;stroke-linecap:square;stroke-miterlimit:4;stroke-dasharray:none;paint-order:markers stroke fill" /><rect
         style="opacity:1;fill:#4646d2;fill-opacity:1;stroke:none;stroke-width:1.05833;stroke-linecap:square;stroke-miterlimit:4;stroke-dasharray:none;paint-order:markers stroke fill"
         id="rect2909"
         width="3.7041678"
         height="7.1437531"
         x="367.50626"
         y="-88.900002"
         ry="0.26454973" /><rect
         ry="0.26454973"
         y="-88.900009"
         x="366.97708"
         height="3.4395795"
         width="4.7625093"
         id="rect2911"
         style="opacity:1;fill:#787afe;fill-opacity:1;stroke:none;stroke-width:1.05833;stroke-linecap:square;stroke-miterlimit:4;stroke-dasharray:none;paint-order:markers stroke fill" /><path
         id="rect2913"
         style="opacity:1;fill:#746eff;fill-opacity:1;stroke:none;stroke-width:0.823143;stroke-linecap:square;stroke-miterlimit:4;stroke-dasharray:none;paint-order:markers stroke fill"
         d="m 368.3,-88.635414 c -0.43977,0 -0.79375,0.353997 -0.79375,0.79375 v 1.322917 c 0,0.439753 0.35398,0.79375 0.79375,0.79375 h 2.11666 c 0.43974,0 0.79375,-0.353997 0.79375,-0.79375 v -0.526582 -5.29e-4 -0.0021 -0.264583 c 0,-0.293161 -0.23601,-0.529167 -0.52916,-0.529167 h -1.5875 c -0.29316,0 -0.52917,0.236006 -0.52917,0.529167 v 0.264583 c 0,0.293158 0.23601,0.529167 0.52917,0.529167 0.52916,-3e-6 0.79375,-0.264525 0.79375,-0.529169 l -0.66146,2e-6 c -0.0733,0 -0.13229,-0.059 -0.13229,-0.132292 0,-0.07329 0.059,-0.132291 0.13229,-0.132291 h 0.32557 0.33589 0.52916 c 0.14658,0 0.26459,0.117996 0.26459,0.264583 v 0.529167 c 0,0.146579 -0.11801,0.264583 -0.26459,0.264583 H 368.3 c -0.14658,0 -0.26459,-0.118004 -0.26459,-0.264583 v -1.322917 c 0,-0.146579 0.11801,-0.264583 0.26459,-0.264583 h 0.52916 c 0.79375,0 2.11667,5.8e-5 2.11667,-0.529109 z"
         sodipodi:nodetypes="sssssscccsssssscsssccssssssssscs" /></g></g></svg>
