<?xml version="1.0" encoding="utf-8"?>
<!-- Generator: Adobe Illustrator 24.1.2, SVG Export Plug-In . SVG Version: 6.00 Build 0)  -->
<svg version="1.1" id="Capa_1" xmlns="http://www.w3.org/2000/svg" xmlns:xlink="http://www.w3.org/1999/xlink" x="0px" y="0px"
	 width="1px" height="1.5px" viewBox="0 0 1 1.5" enable-background="new 0 0 1 1.5" xml:space="preserve">
<g>
	<path fill="#21295D" d="M1,0.541V1.5H0.65l-0.1-0.2h-0.1l-0.1,0.2H0V0.541c0-0.027,0.006-0.054,0.016-0.079L0.137,0.18
		c0.008-0.018,0.026-0.03,0.046-0.03H0.3v-0.1C0.3,0.023,0.322,0,0.35,0h0.3C0.678,0,0.7,0.023,0.7,0.05v0.1h0.117
		c0.02,0,0.038,0.012,0.046,0.03l0.121,0.282C0.994,0.487,1,0.514,1,0.541z"/>
	<polygon fill="#474E91" points="0.9,0.85 0.9,1.4 0.7,1.4 0.55,1.1 0.45,1.1 0.3,1.4 0.1,1.4 0.1,0.85 	"/>
	<polygon fill="#848CC6" points="0.75,0.3 0.75,0.9 0.25,0.9 0.25,0.3 0.3,0.3 0.3,0.25 0.7,0.25 0.7,0.3 	"/>
	<polygon fill="#A7710A" points="0.3,0.3 0.3,1 0.2,1.25 0.1,1.25 0.1,0.55 0.2,0.3 	"/>
	<polygon fill="#EDA021" points="0.3,0.3 0.3,0.55 0.2,0.6 0.2,0.3 	"/>
	<polygon fill="#EDA021" points="0.2,0.9 0.3,0.85 0.3,1 0.2,1 	"/>
	<polygon fill="#A7710A" points="0.7,0.3 0.7,1 0.8,1.25 0.9,1.25 0.9,0.55 0.8,0.3 	"/>
	<polygon fill="#EDA021" points="0.8,0.3 0.8,0.6 0.7,0.55 0.7,0.3 	"/>
	<polygon fill="#EDA021" points="0.7,0.85 0.8,0.9 0.8,1 0.7,1 	"/>
	<rect x="0.4" y="0.7" fill="#6970AB" width="0.2" height="0.1"/>
	<rect x="0.4" y="0.1" fill="#C44500" width="0.2" height="0.35"/>
	<rect x="0.4" y="0.1" fill="#FD6313" width="0.2" height="0.2"/>
	<rect x="0.4" y="0.4" fill="#C44500" width="0.2" height="0.35"/>
	<rect x="0.4" y="0.4" fill="#FD6313" width="0.2" height="0.2"/>
	<polygon fill="#442406" points="0.2,0.6 0.2,0.9 0.1,0.95 0.1,0.65 	"/>
	<polygon fill="#814814" points="0.3,0.55 0.3,0.85 0.2,0.9 0.2,0.6 	"/>
	<polygon fill="#442406" points="0.9,0.65 0.9,0.95 0.8,0.9 0.8,0.6 	"/>
	<polygon fill="#814814" points="0.8,0.6 0.8,0.9 0.7,0.85 0.7,0.55 	"/>
</g>
</svg>
