<?xml version="1.0" encoding="UTF-8" standalone="no"?>
<!-- Created with Inkscape (http://www.inkscape.org/) -->

<svg
   width="0.26458335mm"
   height="0.49374136mm"
   viewBox="0 0 0.26458335 0.49374136"
   version="1.1"
   id="svg11425"
   inkscape:version="1.1 (c68e22c387, 2021-05-23)"
   sodipodi:docname="fence_l_brawly.svg"
   xmlns:inkscape="http://www.inkscape.org/namespaces/inkscape"
   xmlns:sodipodi="http://sodipodi.sourceforge.net/DTD/sodipodi-0.dtd"
   xmlns="http://www.w3.org/2000/svg"
   xmlns:svg="http://www.w3.org/2000/svg">
  <sodipodi:namedview
     id="namedview11427"
     pagecolor="#ffffff"
     bordercolor="#999999"
     borderopacity="1"
     inkscape:pageshadow="0"
     inkscape:pageopacity="0"
     inkscape:pagecheckerboard="0"
     inkscape:document-units="mm"
     showgrid="false"
     inkscape:zoom="99.433445"
     inkscape:cx="-0.32182331"
     inkscape:cy="0.36707971"
     inkscape:window-width="1920"
     inkscape:window-height="1057"
     inkscape:window-x="-8"
     inkscape:window-y="-8"
     inkscape:window-maximized="1"
     inkscape:current-layer="layer1" />
  <defs
     id="defs11422" />
  <g
     inkscape:label="Layer 1"
     inkscape:groupmode="layer"
     id="layer1"
     transform="translate(-108.04801,-163.65774)">
    <g
       id="g192003"
       transform="matrix(0.04999969,0,0,0.04999969,25.895392,168.18635)"
       style="stroke-width:20.0001">
      <path
         id="path102753-9"
         style="fill:#0a0f32;fill-opacity:0.2;stroke-width:19.4417"
         d="m 1643.0625,-83.872917 v 2.645834 c 0,0.293155 0.236,0.529166 0.5291,0.529166 h 4.2334 c 0.2931,0 0.5291,-0.236011 0.5291,-0.529166 l 10e-5,-2.116667 h -4.0203 z"
         sodipodi:nodetypes="cssssccc" />
      <path
         id="path152234"
         style="color:#000000;fill:#2c3444;fill-opacity:1;stroke-width:5.29169;-inkscape-stroke:none;paint-order:markers stroke fill"
         d="m 1644.8823,-90.572766 c -0.4723,-0.004 -0.8944,0.298415 -1.1538,0.730189 -0.2601,0.432874 -0.3986,1.009838 -0.3974,1.737363 v 2.780707 c -0.1542,0.18496 -0.2686,0.402003 -0.2686,0.657841 v 0.79375 c 0,0.577162 0.4811,1.058334 1.0582,1.058334 h 0.5292 c 0.577,0 1.0582,-0.481172 1.0582,-1.058334 v -0.524515 l 0.353,0.202054 c -0.036,0.106069 -0.088,0.205793 -0.088,0.322461 v 1.058334 c 0,0.577162 0.4811,1.058333 1.0582,1.058333 h 0.2646 c 0.5772,0 1.0582,-0.481171 1.0582,-1.058333 v -5.027084 c 0,-0.411099 -0.1826,-0.761978 -0.3978,-1.003556 -0.2151,-0.241575 -0.4608,-0.398897 -0.6625,-0.514181 l -1.8519,-1.058333 c -0.1676,-0.09574 -0.3606,-0.152032 -0.5561,-0.15503 z" />
      <path
         style="opacity:1;fill:#8490ac;fill-opacity:1;stroke:none;stroke-width:5.29169px;stroke-linecap:butt;stroke-linejoin:miter;stroke-opacity:1"
         d="m 1647.6965,-84.666662 -3.704,-2.116666 v 0.79375 l 3.704,2.116666 z"
         id="path122008"
         sodipodi:nodetypes="ccccc" />
      <path
         id="rect121992"
         style="opacity:1;fill:#5c6884;fill-opacity:1;stroke:none;stroke-width:21.1667;stroke-miterlimit:4;stroke-dasharray:none;stroke-opacity:1;paint-order:markers stroke fill"
         d="m 1644.1114,-84.931249 c -0.2868,0.0072 -0.5157,0.240588 -0.5157,0.529167 v 0.529166 c 0,0.293159 0.236,0.529167 0.5291,0.529167 h 0.5292 c 0.2931,0 0.5291,-0.236008 0.5291,-0.529167 v -0.529166 c 0,-0.293159 -0.236,-0.529167 -0.5291,-0.529167 h -0.5292 c 0,0 -0.01,-1.14e-4 -0.013,0 z m 2.9097,1.058333 c -0.2868,0.0072 -0.5152,0.240589 -0.5152,0.529167 v 0.529167 c 0,0.293161 0.236,0.529166 0.5292,0.529166 h 0.2645 c 0.2932,0 0.5292,-0.236005 0.5292,-0.529166 v -0.529167 c 0,-0.293161 -0.236,-0.529167 -0.5292,-0.529167 h -0.2645 c 0,0 -0.01,-1.13e-4 -0.014,0 z" />
      <path
         id="rect122000"
         style="opacity:1;fill:#7088ac;fill-opacity:1;stroke:none;stroke-width:21.1667;stroke-miterlimit:4;stroke-dasharray:none;stroke-opacity:1;paint-order:markers stroke fill"
         d="m 1644.8797,-90.043599 c -0.4993,-0.006 -1.0194,0.622702 -1.0194,1.93735 v 3.175 c 0,0.293158 0.236,0.529167 0.5291,0.529167 0.2932,0 0.5291,-0.236009 0.5291,-0.529167 v -1.124479 l 0.2646,0.06615 1.5874,0.90692 v 1.209746 c 0,0.293159 0.236,0.529167 0.5291,0.529167 0.2932,0 0.5292,-0.236008 0.5292,-0.529167 v -1.852083 -0.79375 -1.322917 c 0,-0.529166 -0.4395,-0.855882 -0.7937,-1.058333 l -1.852,-1.058333 c -0.097,-0.05545 -0.1997,-0.08403 -0.3034,-0.08527 z" />
      <path
         id="path136032"
         style="opacity:1;fill:#5c6c90;fill-opacity:1;stroke:none;stroke-width:5.29169px;stroke-linecap:butt;stroke-linejoin:miter;stroke-opacity:1"
         d="m 1644.3894,-89.832242 c -0.3001,0.283188 -0.5291,0.853432 -0.5291,1.725993 v 3.175 c 0,0.293158 0.236,0.529167 0.5291,0.529167 0.1986,0 0.3709,-0.108249 0.4615,-0.269235 -0.2609,-0.03311 -0.4615,-0.25436 -0.4615,-0.524515 z m 1.4122,0.877466 c -0.199,0.0035 -0.3539,0.221933 -0.3539,0.31936 v 2.116667 l 1.3228,0.756026 v 1.096057 l -1.852,-1.058333 v 0.264583 l 1.852,1.058334 v 0.529166 c 0,0.293159 0.236,0.529167 0.5291,0.529167 0.1986,0 0.371,-0.108249 0.4615,-0.269235 -0.2609,-0.03312 -0.4615,-0.254359 -0.4615,-0.524515 v -3.439583 c 0,-0.264584 -0.2645,-0.61736 -0.5291,-0.79375 l -0.7937,-0.529167 c -0.06,-0.04013 -0.1194,-0.05576 -0.1752,-0.05478 z" />
      <path
         id="rect121994"
         style="opacity:1;fill:#a0b4cc;fill-opacity:1;stroke:none;stroke-width:21.1667;stroke-miterlimit:4;stroke-dasharray:none;stroke-opacity:1;paint-order:markers stroke fill"
         d="m 1644.8797,-90.043599 c -0.2236,-0.0027 -0.451,0.1231 -0.6345,0.379822 0.119,-0.07864 0.2452,-0.116729 0.37,-0.115239 0.1037,0.0013 0.2063,0.02981 0.3033,0.08527 l 1.852,1.058333 c 0.3542,0.202452 0.7937,0.529167 0.7937,1.058334 v 4.163054 c -0.078,0.04475 -0.1681,0.07028 -0.2646,0.07028 -0.2931,0 -0.5291,-0.236008 -0.5291,-0.529167 V -84.3318 c -0.1585,0.09121 -0.2646,0.262176 -0.2646,0.458888 v 0.529167 c 0,0.293161 0.236,0.529167 0.5292,0.529167 h 0.2645 c 0.2932,0 0.5292,-0.236006 0.5292,-0.529167 v -4.497917 c 0,-0.529166 -0.4395,-0.855882 -0.7937,-1.058333 l -1.852,-1.058333 c -0.097,-0.05545 -0.1997,-0.08403 -0.3034,-0.08527 z m 0.1282,1.61799 c -0.199,0.0035 -0.3539,0.221933 -0.3539,0.31936 v 3.633888 c -0.078,0.04475 -0.1681,0.07028 -0.2646,0.07028 -0.2931,0 -0.5291,-0.236009 -0.5291,-0.529167 v -0.194305 c -0.1583,0.09126 -0.2646,0.262322 -0.2646,0.458888 v 0.264584 c 0,0.293158 0.236,0.529166 0.5291,0.529166 h 0.5292 c 0.2931,0 0.5291,-0.236008 0.5291,-0.529166 v -0.264584 c 0,-0.196712 -0.1061,-0.367675 -0.2646,-0.458888 v -0.864028 l 1.852,1.058333 v -0.264583 l -1.852,-1.058334 z"
         sodipodi:nodetypes="scsssscsscssssssssscscsscsssssscccccc" />
      <path
         id="rect151045"
         style="opacity:1;fill:#000000;fill-opacity:0.2;stroke:none;stroke-width:21.1667;stroke-miterlimit:4;stroke-dasharray:none;stroke-opacity:1;paint-order:markers stroke fill"
         d="m 1644.9185,-86.254166 v 0.79375 l 0.2646,0.151414 v -0.79375 z" />
      <path
         style="opacity:1;fill:#a45810;fill-opacity:1;stroke:none;stroke-width:5.29169px;stroke-linecap:butt;stroke-linejoin:miter;stroke-opacity:1"
         d="m 1644.9186,-86.254162 1.8519,1.058333 v -2.116667 c 0,-0.264584 -0.2645,-0.617362 -0.5291,-0.793751 l -0.7937,-0.529167 c -0.2751,-0.183454 -0.5291,0.139879 -0.5291,0.264585 z"
         id="path122006"
         sodipodi:nodetypes="ccssssc" />
      <path
         style="fill:#945010;fill-opacity:1;stroke:none;stroke-width:5.29169px;stroke-linecap:butt;stroke-linejoin:miter;stroke-opacity:1"
         d="m 1644.9186,-86.254166 v -0.264583 l 1.8519,1.058333 v 0.264584 z"
         id="path131183" />
      <path
         id="path128488"
         style="fill:#c46814;fill-opacity:1;stroke:none;stroke-width:5.29169px;stroke-linecap:butt;stroke-linejoin:miter;stroke-opacity:1"
         d="m 1645.1831,-88.258178 v 2.155214 l 1.3228,0.755965 v -2.029061 z"
         sodipodi:nodetypes="ccccc" />
    </g>
  </g>
</svg>
