<?xml version="1.0" encoding="UTF-8" standalone="no"?>
<!-- Created with Inkscape (http://www.inkscape.org/) -->

<svg
   width="0.26458335mm"
   height="0.49374139mm"
   viewBox="0 0 0.26458335 0.49374139"
   version="1.1"
   id="svg16787"
   inkscape:version="1.1 (c68e22c387, 2021-05-23)"
   sodipodi:docname="fence_r_brawly.svg"
   xmlns:inkscape="http://www.inkscape.org/namespaces/inkscape"
   xmlns:sodipodi="http://sodipodi.sourceforge.net/DTD/sodipodi-0.dtd"
   xmlns="http://www.w3.org/2000/svg"
   xmlns:svg="http://www.w3.org/2000/svg">
  <sodipodi:namedview
     id="namedview16789"
     pagecolor="#ffffff"
     bordercolor="#999999"
     borderopacity="1"
     inkscape:pageshadow="0"
     inkscape:pageopacity="0"
     inkscape:pagecheckerboard="0"
     inkscape:document-units="mm"
     showgrid="false"
     inkscape:zoom="198.86689"
     inkscape:cx="0.62856114"
     inkscape:cy="0.92775625"
     inkscape:window-width="1920"
     inkscape:window-height="1057"
     inkscape:window-x="-8"
     inkscape:window-y="-8"
     inkscape:window-maximized="1"
     inkscape:current-layer="layer1" />
  <defs
     id="defs16784" />
  <g
     inkscape:label="Layer 1"
     inkscape:groupmode="layer"
     id="layer1"
     transform="translate(-93.061708,-151.39627)">
    <g
       id="g191990"
       transform="matrix(0.04999969,0,0,0.04999969,10.512225,155.92488)"
       style="stroke-width:20.0001">
      <path
         id="path191951"
         style="fill:#0a0f32;fill-opacity:0.2;stroke-width:19.4417"
         d="m 1656.2915,-83.872918 v 2.645834 c 0,0.293155 -0.236,0.529166 -0.5291,0.529166 h -4.2333 c -0.2931,0 -0.5291,-0.236011 -0.5291,-0.529166 l -10e-5,-2.116667 h 4.0202 z"
         sodipodi:nodetypes="cssssccc" />
      <path
         id="path191953"
         style="color:#000000;fill:#2c3444;fill-opacity:1;stroke-width:5.29169;-inkscape-stroke:none;paint-order:markers stroke fill"
         d="m 1654.4717,-90.572768 c 0.4724,-0.004 0.8944,0.298415 1.1538,0.730189 0.2601,0.432874 0.3986,1.009838 0.3974,1.737363 v 2.780707 c 0.1543,0.18496 0.2687,0.402003 0.2687,0.657841 v 0.79375 c 0,0.577162 -0.4812,1.058334 -1.0582,1.058334 h -0.5292 c -0.5771,0 -1.0582,-0.481172 -1.0582,-1.058334 v -0.524515 l -0.353,0.202054 c 0.036,0.106069 0.088,0.205793 0.088,0.322461 v 1.058334 c 0,0.577162 -0.4812,1.058333 -1.0582,1.058333 h -0.2645 c -0.5772,0 -1.0583,-0.481171 -1.0583,-1.058333 v -5.027084 c 0,-0.411099 0.1827,-0.761978 0.3979,-1.003556 0.2151,-0.241575 0.4608,-0.398897 0.6624,-0.514181 l 1.8519,-1.058333 c 0.1675,-0.09574 0.3605,-0.152032 0.5559,-0.15503 z" />
      <path
         style="fill:#8490ac;fill-opacity:1;stroke:none;stroke-width:5.29169px;stroke-linecap:butt;stroke-linejoin:miter;stroke-opacity:1"
         d="m 1651.6578,-84.666674 3.7038,-2.116666 v 0.79375 l -3.7038,2.116666 z"
         id="path151346"
         sodipodi:nodetypes="ccccc" />
      <path
         id="rect151348"
         style="fill:#5c6884;fill-opacity:1;stroke:none;stroke-width:21.1667;stroke-miterlimit:4;stroke-dasharray:none;stroke-opacity:1;paint-order:markers stroke fill"
         d="m 1654.6861,-84.931251 c -0.2868,0.0072 -0.5152,0.240588 -0.5152,0.529167 v 0.529166 c 0,0.293159 0.236,0.529167 0.5292,0.529167 h 0.5291 c 0.2931,0 0.5291,-0.236008 0.5291,-0.529167 v -0.529166 c 0,-0.293159 -0.236,-0.529167 -0.5291,-0.529167 h -0.5291 c 0,0 -0.01,-1.14e-4 -0.014,0 z m -2.6455,1.058333 c -0.2868,0.0072 -0.5151,0.240589 -0.5151,0.529167 v 0.529167 c 0,0.293161 0.2359,0.529166 0.529,0.529166 h 0.2646 c 0.2932,0 0.5291,-0.236005 0.5291,-0.529166 v -0.529167 c 0,-0.293161 -0.2359,-0.529167 -0.5291,-0.529167 h -0.2646 c 0,0 -0.01,-1.13e-4 -0.014,0 z" />
      <path
         id="rect151356"
         style="fill:#7088ac;fill-opacity:1;stroke:none;stroke-width:21.1667;stroke-miterlimit:4;stroke-dasharray:none;stroke-opacity:1;paint-order:markers stroke fill"
         d="m 1654.4742,-90.043601 c -0.1036,0.0013 -0.2062,0.02981 -0.3033,0.08527 l -1.8518,1.058333 c -0.3542,0.202451 -0.7936,0.529167 -0.7936,1.058333 v 2.116667 1.852083 c 0,0.293159 0.2359,0.529167 0.529,0.529167 0.2932,0 0.5292,-0.236008 0.5292,-0.529167 v -1.209746 l 1.8518,-0.973066 v 1.124479 c 0,0.293158 0.236,0.529167 0.5292,0.529167 0.2931,0 0.529,-0.236009 0.529,-0.529167 v -3.175 c -10e-5,-1.314648 -0.52,-1.943314 -1.0195,-1.93735 z"
         sodipodi:nodetypes="sssscsssccsssss" />
      <path
         id="path151366"
         style="fill:#5c6c90;fill-opacity:1;stroke:none;stroke-width:5.29169px;stroke-linecap:butt;stroke-linejoin:miter;stroke-opacity:1"
         d="m 1654.6107,-88.954778 c -0.056,-9.86e-4 -0.115,0.01465 -0.1752,0.05478 l -0.7937,0.529167 c -0.2646,0.17639 -0.529,0.529166 -0.529,0.79375 v 2.116666 l 1.3227,-0.756025 v 0.491442 l -1.8518,1.058333 v 0.264584 l 1.8518,-1.058334 v 0.529167 c 0,0.293158 0.236,0.529167 0.5292,0.529167 0.1985,0 0.3708,-0.108249 0.4613,-0.269235 -0.2607,-0.03311 -0.4613,-0.25436 -0.4613,-0.524515 v -3.439584 c 0,-0.09743 -0.155,-0.315835 -0.354,-0.31936 z m -2.5562,0.224793 c -0.2764,0.202517 -0.529,0.487217 -0.529,0.888317 v 3.96875 c 0,0.293159 0.2359,0.529167 0.529,0.529167 0.1986,0 0.371,-0.108249 0.4615,-0.269235 -0.2609,-0.03312 -0.4615,-0.254359 -0.4615,-0.524515 z" />
      <path
         id="path169697"
         style="fill:#a0b4cc;fill-opacity:1;stroke:none;stroke-width:5.29169px;stroke-linecap:butt;stroke-linejoin:miter;stroke-opacity:1"
         d="m 1654.4742,-90.043601 c -0.1036,0.0013 -0.2062,0.02981 -0.3033,0.08527 l -1.8518,1.058333 1.5873,-0.79375 c 0.1,-0.05001 0.1995,-0.08407 0.3033,-0.08527 0.4994,-0.006 1.0195,0.622702 1.0195,1.93735 v 3.369305 c -0.078,0.04474 -0.1681,0.07028 -0.2645,0.07028 -0.2932,0 -0.5292,-0.236009 -0.5292,-0.529167 v -0.194305 c -0.1585,0.09121 -0.2646,0.262176 -0.2646,0.458888 v 0.264584 c 0,0.293158 0.236,0.529166 0.5292,0.529166 h 0.5291 c 0.2931,0 0.5291,-0.236008 0.5291,-0.529166 v -0.264584 c 0,-0.196566 -0.1063,-0.367625 -0.2646,-0.458888 v -2.980695 c 0,-1.314648 -0.52,-1.943314 -1.0195,-1.937351 z m -0.6572,1.61799 c -0.056,-0.0011 -0.115,0.01466 -0.1752,0.05478 l -0.7936,0.529166 c -0.2645,0.17639 -0.5291,0.529167 -0.5291,0.79375 v 3.633888 c -0.078,0.04474 -0.1681,0.07028 -0.2646,0.07028 -0.2931,0 -0.529,-0.236008 -0.529,-0.529167 v 0.529167 c 0,0.293161 0.2359,0.529167 0.529,0.529167 h 0.2646 c 0.2932,0 0.5291,-0.236006 0.5291,-0.529167 v -0.529167 c 0,-0.196567 -0.1062,-0.367625 -0.2645,-0.458888 v -0.599445 l 1.8518,-1.058333 v -0.264584 l -0.2646,0.151414 v -2.003497 c 0,-0.09743 -0.1548,-0.315836 -0.3539,-0.31936 z"
         sodipodi:nodetypes="sscssscsscsssssscsssssscscssssscccccss" />
      <path
         style="fill:#a45810;fill-opacity:1;stroke:none;stroke-width:5.29169px;stroke-linecap:butt;stroke-linejoin:miter;stroke-opacity:1"
         d="m 1654.4356,-86.254174 -1.8517,1.058333 v -2.116667 c 0,-0.264584 0.2644,-0.617362 0.529,-0.793751 l 0.7936,-0.529167 c 0.2751,-0.183454 0.5291,0.139879 0.5291,0.264585 z"
         id="path151370"
         sodipodi:nodetypes="ccssssc" />
      <path
         style="fill:#945010;fill-opacity:1;stroke:none;stroke-width:5.29169px;stroke-linecap:butt;stroke-linejoin:miter;stroke-opacity:1"
         d="m 1654.4356,-86.254178 v -0.264583 l -1.8517,1.058333 v 0.264584 z"
         id="path151372" />
      <path
         id="path151374"
         style="fill:#c46814;fill-opacity:1;stroke:none;stroke-width:5.29169px;stroke-linecap:butt;stroke-linejoin:miter;stroke-opacity:1"
         d="m 1654.171,-88.25819 v 2.155214 l -1.3227,0.755965 v -2.029061 z"
         sodipodi:nodetypes="ccccc" />
      <path
         id="path151368"
         style="fill:#000000;fill-opacity:0.2;stroke:none;stroke-width:21.1667;stroke-miterlimit:4;stroke-dasharray:none;stroke-opacity:1;paint-order:markers stroke fill"
         d="m 1654.4356,-86.254178 v 0.79375 l -0.2646,0.151414 v -0.79375 z" />
    </g>
  </g>
</svg>
