<?xml version="1.0" encoding="utf-8"?>
<!-- Generator: Adobe Illustrator 24.1.2, SVG Export Plug-In . SVG Version: 6.00 Build 0)  -->
<svg version="1.1" id="Capa_1" xmlns="http://www.w3.org/2000/svg" xmlns:xlink="http://www.w3.org/1999/xlink" x="0px" y="0px"
	 width="1px" height="1.8px" viewBox="0 0 1 1.8" enable-background="new 0 0 1 1.8" xml:space="preserve">
<path id="rect10315" fill="#0A0F32" fill-opacity="0.2" d="M0.1,1.4h0.8C0.955,1.4,1,1.445,1,1.5v0.2c0,0.055-0.045,0.1-0.1,0.1H0.1
	C0.045,1.8,0,1.755,0,1.7V1.5C0,1.445,0.045,1.4,0.1,1.4z"/>
<g>
	<path fill="#21295D" d="M1,0.35V1.5H0V0.35C0,0.267,0.067,0.2,0.15,0.2h0.034c0.039-0.032,0.088-0.05,0.141-0.05
		S0.427,0.168,0.466,0.2h0.068c0.039-0.032,0.088-0.05,0.141-0.05S0.777,0.168,0.816,0.2H0.85C0.933,0.2,1,0.267,1,0.35z"/>
	<rect x="0.1" y="1.25" fill="#303351" width="0.8" height="0.15"/>
	<rect x="0.1" y="0.95" fill="#A7710A" width="0.8" height="0.35"/>
	<path fill="#3F4169" d="M0.9,0.7v0.25H0.1V0.7c0,0.027,0.023,0.05,0.05,0.05h0.7C0.877,0.75,0.9,0.727,0.9,0.7z"/>
	<polygon fill="#EDA122" points="0.1,0.9 0.55,0.9 0.45,1 0.1,1 	"/>
	<polygon fill="#EDA122" points="0.9,0.9 0.9,1 0.75,1 0.85,0.9 	"/>
	<path fill="#868DC8" d="M0.9,0.35V0.7c0,0.027-0.023,0.05-0.05,0.05h-0.7C0.123,0.75,0.1,0.727,0.1,0.7V0.35
		c0-0.027,0.023-0.05,0.05-0.05h0.7C0.877,0.3,0.9,0.323,0.9,0.35z"/>
	<rect x="0.2" y="0.4" fill="#6970AB" width="0.6" height="0.25"/>
	<polygon fill="#432305" points="0.75,1 0.45,1.3 0.15,1.3 0.45,1 	"/>
	<polygon fill="#824914" points="0.85,0.9 0.75,1 0.45,1 0.55,0.9 	"/>
	<circle fill="#C84200" cx="0.325" cy="0.425" r="0.175"/>
	<circle fill="#C84200" cx="0.675" cy="0.425" r="0.175"/>
	<circle fill="#FD6313" cx="0.325" cy="0.463" r="0.138"/>
	<circle fill="#FD6313" cx="0.675" cy="0.463" r="0.138"/>
</g>
</svg>
