<?xml version="1.0" encoding="utf-8"?>
<!-- Generator: Adobe Illustrator 24.1.2, SVG Export Plug-In . SVG Version: 6.00 Build 0)  -->
<svg version="1.1" id="Capa_1" xmlns="http://www.w3.org/2000/svg" xmlns:xlink="http://www.w3.org/1999/xlink" x="0px" y="0px"
	 width="1.2px" height="1.85px" viewBox="0 0 1.2 1.85" enable-background="new 0 0 1.2 1.85" xml:space="preserve">
<g>
	<path id="rect10315" fill="#0A0F32" fill-opacity="0.2" d="M0.2,1.4H1c0.056,0,0.1,0.051,0.1,0.113v0.225
		C1.1,1.799,1.055,1.85,1,1.85H0.2c-0.055,0-0.1-0.051-0.1-0.112V1.513C0.1,1.451,0.145,1.4,0.2,1.4z"/>
</g>
<g>
	<path fill="#34184F" d="M1.2,1v0.05c0,0.051-0.019,0.096-0.05,0.132v0.143c0,0.124-0.101,0.225-0.225,0.225h-0.65
		c-0.124,0-0.225-0.101-0.225-0.225V1.182C0.019,1.146,0,1.101,0,1.05V1c0-0.049,0.018-0.096,0.05-0.132V0.25
		C0.05,0.112,0.162,0,0.3,0h0.6c0.138,0,0.25,0.112,0.25,0.25v0.618C1.182,0.904,1.2,0.951,1.2,1z"/>
	<path fill="#452C58" d="M1.05,0.25v1.075c0,0.068-0.056,0.125-0.125,0.125h-0.65c-0.069,0-0.125-0.057-0.125-0.125V0.25
		c0-0.083,0.067-0.15,0.15-0.15h0.6C0.983,0.1,1.05,0.167,1.05,0.25z"/>
	<path fill="#432850" d="M0.3,0.6v0.85H0.275c-0.069,0-0.125-0.057-0.125-0.125V0.6H0.3z"/>
	<path fill="#432850" d="M1.05,0.6v0.725c0,0.068-0.056,0.125-0.125,0.125H0.9V0.6H1.05z"/>
	<rect x="0.45" y="1.1" fill="#3D264D" width="0.1" height="0.35"/>
	<rect x="0.7" y="0.75" fill="#3D264D" width="0.05" height="0.7"/>
	<g>
		<path fill="#008764" d="M1.05,0.975v0.05c0,0.013-0.011,0.025-0.025,0.025h-0.85c-0.014,0-0.025-0.012-0.025-0.025v-0.05
			C0.15,0.988,0.161,1,0.175,1h0.85C1.039,1,1.05,0.988,1.05,0.975z"/>
		<path fill="#00654F" d="M1.1,1v0.05c0,0.055-0.045,0.1-0.1,0.1H0.2c-0.055,0-0.1-0.045-0.1-0.1V1c0-0.037,0.02-0.069,0.05-0.087
			v0.112c0,0.013,0.011,0.025,0.025,0.025h0.85c0.014,0,0.025-0.012,0.025-0.025V0.913C1.08,0.931,1.1,0.963,1.1,1z"/>
		<g>
			<polygon opacity="0.2" enable-background="new    " points="0.287,1.15 0.313,1 0.387,1 0.363,1.15 			"/>
			<polygon opacity="0.2" enable-background="new    " points="0.463,1.15 0.488,1 0.563,1 0.538,1.15 			"/>
			<polygon opacity="0.2" enable-background="new    " points="0.637,1.15 0.663,1 0.738,1 0.712,1.15 			"/>
			<polygon opacity="0.2" enable-background="new    " points="0.813,1.15 0.837,1 0.913,1 0.887,1.15 			"/>
		</g>
	</g>
	<path fill="#BA5DFF" d="M1.05,0.25v0.425C1.05,0.743,0.994,0.8,0.925,0.8h-0.65C0.206,0.8,0.15,0.743,0.15,0.675V0.25
		c0-0.083,0.067-0.15,0.15-0.15h0.6C0.983,0.1,1.05,0.167,1.05,0.25z"/>
	<path fill="#7F3FB2" d="M0.95,0.45v0.1c0,0,0,0.005-0.001,0.015C0.948,0.57,0.947,0.577,0.945,0.585
		c0,0.004-0.002,0.008-0.003,0.013C0.93,0.639,0.898,0.693,0.815,0.699C0.81,0.7,0.805,0.7,0.8,0.7c-0.15,0-0.4,0-0.4,0
		s-0.005,0-0.015-0.001C0.38,0.698,0.373,0.697,0.365,0.695c-0.004,0-0.008-0.002-0.013-0.003C0.311,0.679,0.257,0.648,0.251,0.565
		C0.25,0.56,0.25,0.555,0.25,0.55c0-0.15,0-0.25,0-0.25c0-0.05,0.025-0.095,0.063-0.122c0.001-0.002,0.003-0.002,0.004-0.003
		C0.342,0.159,0.37,0.15,0.4,0.15h0.4c0.043,0,0.083,0.018,0.11,0.048c0.007,0.007,0.013,0.015,0.018,0.023
		c0.001,0.001,0.001,0.002,0.001,0.002S0.35,0.2,0.35,0.3s0,0.2,0,0.2s0,0.1,0.1,0.1s0.3,0,0.3,0s0.1,0,0.1-0.1S0.8,0.4,0.65,0.4
		S0.5,0.5,0.7,0.45c0,0-0.11,0.147-0.205,0.063C0.456,0.478,0.443,0.419,0.464,0.371C0.494,0.3,0.572,0.3,0.65,0.3
		c0.1,0,0.15,0,0.15,0S0.95,0.3,0.95,0.45z"/>
</g>
</svg>
