<?xml version="1.0" encoding="UTF-8" standalone="no"?>
<!-- Created with Inkscape (http://www.inkscape.org/) -->

<svg
   width="0.26458335mm"
   height="0.44978976mm"
   viewBox="0 0 0.26458335 0.44978976"
   version="1.1"
   id="svg11263"
   inkscape:version="1.1 (c68e22c387, 2021-05-23)"
   sodipodi:docname="fence_hor_brawly.svg"
   xmlns:inkscape="http://www.inkscape.org/namespaces/inkscape"
   xmlns:sodipodi="http://sodipodi.sourceforge.net/DTD/sodipodi-0.dtd"
   xmlns="http://www.w3.org/2000/svg"
   xmlns:svg="http://www.w3.org/2000/svg">
  <sodipodi:namedview
     id="namedview11265"
     pagecolor="#ffffff"
     bordercolor="#999999"
     borderopacity="1"
     inkscape:pageshadow="0"
     inkscape:pageopacity="0"
     inkscape:pagecheckerboard="0"
     inkscape:document-units="mm"
     showgrid="false"
     inkscape:zoom="256"
     inkscape:cx="0.77734375"
     inkscape:cy="0.65820312"
     inkscape:window-width="1920"
     inkscape:window-height="1057"
     inkscape:window-x="-8"
     inkscape:window-y="-8"
     inkscape:window-maximized="1"
     inkscape:current-layer="layer1" />
  <defs
     id="defs11260" />
  <g
     inkscape:label="Layer 1"
     inkscape:groupmode="layer"
     id="layer1"
     transform="translate(-129.84611,-127.65345)">
    <g
       id="g118749"
       transform="matrix(0.04999969,0,0,0.04999969,48.090365,132.13811)"
       style="stroke-width:20.0001">
      <path
         id="path102753"
         style="fill:#0a0f32;fill-opacity:0.2;stroke-width:19.4417"
         d="m 1635.125,-83.343749 v 2.116667 c 0,0.293155 0.236,0.529166 0.5291,0.529166 h 4.2334 c 0.2931,0 0.5291,-0.236011 0.5291,-0.529166 l 10e-5,-2.116667 z"
         sodipodi:nodetypes="csssscc" />
      <path
         id="path101611"
         style="color:#000000;fill:#2c3444;fill-opacity:1;stroke-width:5.29169;-inkscape-stroke:none;paint-order:markers stroke fill"
         d="m 1637.2412,-89.69375 c -1.1632,0 -2.1162,0.953191 -2.1162,2.116667 v 4.497916 c 0,0.577162 0.4811,1.058334 1.0581,1.058334 h 0.2645 c 0.5771,0 1.0556,-0.481412 1.0581,-1.055749 v -1.057301 -0.0011 -0.0026 h 0.5301 v 1.057299 0.0011 c 0,0.577162 0.4811,1.058333 1.0582,1.058333 h 0.2645 c 0.5771,0 1.0582,-0.481171 1.0582,-1.058333 v -4.497917 c 0,-1.163476 -0.953,-2.116666 -2.1163,-2.116666 z" />
      <rect
         style="fill:#5c6884;fill-opacity:1;stroke:none;stroke-width:21.1667;stroke-miterlimit:4;stroke-dasharray:none;stroke-opacity:1;paint-order:markers stroke fill"
         id="rect100836"
         width="1.3226583"
         height="1.5875"
         x="1638.564"
         y="-84.137497"
         ry="0.52916902" />
      <rect
         style="fill:#5c6884;fill-opacity:1;stroke:none;stroke-width:21.1667;stroke-miterlimit:4;stroke-dasharray:none;stroke-opacity:1;paint-order:markers stroke fill"
         id="rect75208"
         width="1.3226583"
         height="1.5875"
         x="1635.6541"
         y="-84.137497"
         ry="0.52916902" />
      <path
         id="rect75212"
         style="fill:#7088ac;fill-opacity:1;stroke:none;stroke-width:21.1667;stroke-miterlimit:4;stroke-dasharray:none;stroke-opacity:1;paint-order:markers stroke fill"
         d="m 1637.2412,-89.164583 c -0.8792,0 -1.5872,0.708027 -1.5872,1.5875 v 2.38125 1.058333 c 0,0.293156 0.2361,0.529167 0.5291,0.529167 0.2931,0 0.5291,-0.236011 0.5291,-0.529167 v -1.058333 h 2.1162 v 1.058333 c 0,0.293156 0.236,0.529167 0.5291,0.529167 0.2931,0 0.5291,-0.236011 0.5291,-0.529167 v -1.058333 -1.5875 -0.79375 c 0,-0.879473 -0.7079,-1.5875 -1.5872,-1.5875 z" />
      <rect
         style="fill:#8490ac;fill-opacity:1;stroke:none;stroke-width:21.1667;stroke-miterlimit:4;stroke-dasharray:none;stroke-opacity:1;paint-order:markers stroke fill"
         id="rect75214"
         width="2.6453166"
         height="0.79374999"
         x="1636.4476"
         y="-85.460411" />
      <rect
         style="fill:#a0b4cc;fill-opacity:1;stroke:none;stroke-width:21.1667;stroke-miterlimit:4;stroke-dasharray:none;stroke-opacity:1;paint-order:markers stroke fill"
         id="rect75218"
         width="2.6453564"
         height="0.26458332"
         x="1636.4476"
         y="-85.460411" />
      <path
         id="rect75216"
         style="fill:#5c6c90;fill-opacity:1;stroke:none;stroke-width:21.1667;stroke-miterlimit:4;stroke-dasharray:none;stroke-opacity:1;paint-order:markers stroke fill"
         d="m 1636.1831,-88.762025 c -0.3249,0.290296 -0.5291,0.712833 -0.5291,1.184942 v 3.439583 c 0,0.293156 0.2361,0.529167 0.5291,0.529167 0.1986,0 0.3708,-0.108249 0.4614,-0.269235 -0.2608,-0.03311 -0.4614,-0.254362 -0.4614,-0.524515 z m 1.5872,0.391192 c -0.2931,0 -0.5291,0.236008 -0.5291,0.529166 V -85.725 h 1.5872 v 0.79375 h -2.1162 v 0.264583 h 2.1162 v 0.529167 c 0,0.293156 0.236,0.529167 0.5291,0.529167 0.1985,0 0.3708,-0.108249 0.4614,-0.269235 -0.2609,-0.03311 -0.4614,-0.254362 -0.4614,-0.524515 v -3.439584 c 0,-0.293158 -0.236,-0.529166 -0.5291,-0.529166 z" />
      <path
         id="rect100838"
         style="fill:#a0b4cc;fill-opacity:1;stroke:none;stroke-width:21.1667;stroke-miterlimit:4;stroke-dasharray:none;stroke-opacity:1;paint-order:markers stroke fill"
         d="m 1637.2412,-89.164583 c -0.5073,0 -0.957,0.236246 -1.2472,0.604615 0.27,-0.212762 0.6107,-0.340032 0.9827,-0.340032 h 1.0581 c 0.8794,0 1.5872,0.708028 1.5872,1.5875 v 3.633888 c -0.078,0.04474 -0.168,0.07028 -0.2645,0.07028 -0.2931,0 -0.5291,-0.236011 -0.5291,-0.529167 v -0.458888 c -0.1584,0.09121 -0.2645,0.262176 -0.2645,0.458888 v 0.529167 c 0,0.293158 0.236,0.529166 0.529,0.529166 h 0.2646 c 0.2931,0 0.5291,-0.236008 0.5291,-0.529166 v -3.96875 c 0,-0.879473 -0.7079,-1.5875 -1.5872,-1.5875 z m -0.2645,1.322916 c -0.2931,0 -0.5291,0.236009 -0.5291,0.529167 v 3.633888 c -0.078,0.04474 -0.168,0.07028 -0.2645,0.07028 -0.293,0 -0.5291,-0.236011 -0.5291,-0.529167 v 0.529167 c 0,0.293158 0.2361,0.529166 0.5291,0.529166 h 0.2645 c 0.2932,0 0.5291,-0.236008 0.5291,-0.529166 v -0.529167 c 0,-0.196567 -0.1062,-0.367625 -0.2645,-0.458888 v -0.599445 h 1.8517 v -2.116667 c 0,-0.293158 -0.2359,-0.529167 -0.5291,-0.529167 z" />
      <path
         id="rect75222"
         style="fill:#a45810;fill-opacity:1;stroke:none;stroke-width:21.1667;stroke-miterlimit:4;stroke-dasharray:none;stroke-opacity:1;paint-order:markers stroke fill"
         d="m 1637.2412,-88.10625 c -0.293,0 -0.529,0.236008 -0.529,0.529167 v 0.264583 0.264583 1.5875 h 2.1162 v -1.5875 -0.264583 -0.264583 c 0,-0.293159 -0.236,-0.529167 -0.529,-0.529167 z" />
      <rect
         style="fill:#945010;fill-opacity:1;stroke:none;stroke-width:21.1667;stroke-miterlimit:4;stroke-dasharray:none;stroke-opacity:1;paint-order:markers stroke fill"
         id="rect84509"
         width="2.1162534"
         height="0.26458332"
         x="1636.7123"
         y="-85.724998" />
      <rect
         style="fill:#c46814;fill-opacity:1;stroke:none;stroke-width:21.1667;stroke-miterlimit:4;stroke-dasharray:none;stroke-opacity:1;paint-order:markers stroke fill"
         id="rect83274"
         width="1.58719"
         height="2.1166666"
         x="1636.9767"
         y="-87.57708" />
    </g>
  </g>
</svg>
