<?xml version="1.0" encoding="utf-8"?>
<!-- Generator: Adobe Illustrator 24.1.2, SVG Export Plug-In . SVG Version: 6.00 Build 0)  -->
<svg version="1.1" id="Capa_1" xmlns="http://www.w3.org/2000/svg" xmlns:xlink="http://www.w3.org/1999/xlink" x="0px" y="0px"
	 width="1.1px" height="1.4px" viewBox="0 0 1.1 1.4" enable-background="new 0 0 1.1 1.4" xml:space="preserve">
<path id="rect10315" fill="#0A0F32" fill-opacity="0.2" d="M0.15,1h0.8c0.055,0,0.1,0.045,0.1,0.1v0.2c0,0.055-0.045,0.1-0.1,0.1
	h-0.8c-0.055,0-0.1-0.045-0.1-0.1V1.1C0.05,1.045,0.095,1,0.15,1z"/>
<g>
	<g>
		<path fill="#693E15" d="M1.1,0.6v0.3c0,0.11-0.09,0.2-0.2,0.2H0.2C0.09,1.1,0,1.01,0,0.9V0.6c0-0.11,0.09-0.2,0.2-0.2h0.7
			C1.01,0.4,1.1,0.49,1.1,0.6z"/>
		<path fill="#BD6C3F" d="M1,0.6v0.3C1,0.955,0.955,1,0.9,1H0.2C0.145,1,0.1,0.955,0.1,0.9V0.6c0-0.055,0.045-0.1,0.1-0.1h0.7
			C0.955,0.5,1,0.545,1,0.6z"/>
		<path fill="#AA6037" d="M0.9,0.8v0.15C0.9,0.977,0.877,1,0.85,1h-0.6C0.223,1,0.2,0.977,0.2,0.95V0.8H0.9z"/>
		<rect x="0.2" y="0.8" fill="#B6683D" width="0.7" height="0.05"/>
		<path fill="#C87546" d="M0.95,0.6v0.15c0,0.027-0.023,0.05-0.05,0.05H0.15C0.123,0.8,0.1,0.777,0.1,0.75V0.6
			c0-0.055,0.045-0.1,0.1-0.1h0.65C0.905,0.5,0.95,0.545,0.95,0.6z"/>
	</g>
	<g>
		<path fill="#693E15" d="M1.1,0.2v0.3c0,0.11-0.09,0.2-0.2,0.2H0.2C0.09,0.7,0,0.61,0,0.5V0.2C0,0.09,0.09,0,0.2,0h0.7
			C1.01,0,1.1,0.09,1.1,0.2z"/>
		<path fill="#BD6C3F" d="M1,0.2v0.3c0,0.055-0.045,0.1-0.1,0.1H0.2c-0.055,0-0.1-0.045-0.1-0.1V0.2c0-0.055,0.045-0.1,0.1-0.1h0.7
			C0.955,0.1,1,0.145,1,0.2z"/>
		<path fill="#AA6037" d="M0.9,0.4v0.15c0,0.027-0.023,0.05-0.05,0.05h-0.6C0.223,0.6,0.2,0.577,0.2,0.55V0.4H0.9z"/>
		<rect x="0.2" y="0.4" fill="#B6683D" width="0.7" height="0.05"/>
		<path fill="#C87546" d="M0.95,0.2v0.15c0,0.027-0.023,0.05-0.05,0.05H0.15C0.123,0.4,0.1,0.377,0.1,0.35V0.2
			c0-0.055,0.045-0.1,0.1-0.1h0.65C0.905,0.1,0.95,0.145,0.95,0.2z"/>
	</g>
</g>
</svg>
