<?xml version="1.0" encoding="utf-8"?>
<!-- Generator: Adobe Illustrator 24.1.2, SVG Export Plug-In . SVG Version: 6.00 Build 0)  -->
<svg version="1.1" id="Capa_1" xmlns="http://www.w3.org/2000/svg" xmlns:xlink="http://www.w3.org/1999/xlink" x="0px" y="0px"
	 width="1px" height="1.85px" viewBox="0 0 1 1.85" enable-background="new 0 0 1 1.85" xml:space="preserve">
<path id="rect10315" fill="#0A0F32" fill-opacity="0.2" d="M0.1,1.45h0.8c0.055,0,0.1,0.045,0.1,0.1v0.2c0,0.055-0.045,0.1-0.1,0.1
	H0.1C0.045,1.85,0,1.805,0,1.75v-0.2C0,1.495,0.045,1.45,0.1,1.45z"/>
<g>
	<path fill="#1A2A66" d="M1,0.3v0.6c0,0.045-0.02,0.084-0.05,0.111V1.25c0,0.023-0.004,0.045-0.011,0.065
		C0.946,1.332,0.95,1.351,0.95,1.37V1.4c0,0.082-0.067,0.15-0.15,0.15H0.731c-0.058,0-0.109-0.032-0.135-0.084L0.588,1.45H0.412
		L0.404,1.467C0.378,1.518,0.327,1.55,0.269,1.55H0.2c-0.083,0-0.15-0.068-0.15-0.15V1.37c0-0.019,0.004-0.038,0.011-0.055
		C0.054,1.295,0.05,1.273,0.05,1.25V1.011C0.02,0.984,0,0.945,0,0.9V0.3c0-0.081,0.065-0.148,0.145-0.15l0.006-0.023l0.001-0.004
		L0.155,0.11C0.173,0.045,0.232,0,0.3,0h0.4c0.068,0,0.127,0.045,0.145,0.111l0.004,0.013v0.004L0.855,0.15
		C0.935,0.152,1,0.219,1,0.3z"/>
	<path fill="#505E86" d="M0.85,1.37V1.4c0,0.027-0.023,0.05-0.05,0.05H0.731c-0.019,0-0.036-0.011-0.045-0.027L0.675,1.4L0.65,1.35
		h-0.3L0.325,1.4L0.314,1.423C0.305,1.439,0.288,1.45,0.269,1.45H0.2c-0.027,0-0.05-0.023-0.05-0.05V1.37
		c0-0.01,0.004-0.02,0.01-0.029c0.001-0.002,0.003-0.004,0.005-0.007L0.2,1.3h0.6l0.036,0.035C0.837,1.337,0.839,1.339,0.84,1.342
		C0.846,1.35,0.85,1.36,0.85,1.37z"/>
	<path fill="#465481" d="M0.84,1.342C0.825,1.376,0.79,1.4,0.75,1.4H0.675L0.65,1.35h-0.3L0.325,1.4H0.25
		c-0.04,0-0.075-0.024-0.09-0.058c0.001-0.002,0.003-0.004,0.005-0.007L0.2,1.3h0.6l0.036,0.035C0.837,1.337,0.839,1.339,0.84,1.342
		z"/>
	<linearGradient id="SVGID_1_" gradientUnits="userSpaceOnUse" x1="0.5" y1="0.9" x2="0.5" y2="1.35">
		<stop  offset="0" style="stop-color:#495079"/>
		<stop  offset="0.45" style="stop-color:#535B81"/>
		<stop  offset="1" style="stop-color:#6B7394"/>
	</linearGradient>
	<path fill="url(#SVGID_1_)" d="M0.85,0.9v0.35c0,0.055-0.045,0.1-0.1,0.1h-0.5c-0.055,0-0.1-0.045-0.1-0.1V0.9H0.85z"/>
	<g>
		<path fill="#444C67" d="M0.387,1.013v0.175c0,0.027-0.023,0.05-0.05,0.05H0.262c-0.027,0-0.05-0.023-0.05-0.05V1.013
			c0-0.027,0.023-0.05,0.05-0.05h0.075C0.365,0.962,0.387,0.985,0.387,1.013z"/>
		<path fill="#444C67" d="M0.587,1.013v0.175c0,0.027-0.023,0.05-0.05,0.05H0.463c-0.027,0-0.05-0.023-0.05-0.05V1.013
			c0-0.027,0.023-0.05,0.05-0.05h0.075C0.565,0.962,0.587,0.985,0.587,1.013z"/>
		<path fill="#444C67" d="M0.788,1.013v0.175c0,0.027-0.023,0.05-0.05,0.05H0.663c-0.027,0-0.05-0.023-0.05-0.05V1.013
			c0-0.027,0.023-0.05,0.05-0.05h0.075C0.765,0.962,0.788,0.985,0.788,1.013z"/>
		<linearGradient id="SVGID_2_" gradientUnits="userSpaceOnUse" x1="0.3" y1="1.2" x2="0.3" y2="1">
			<stop  offset="0" style="stop-color:#F78429"/>
			<stop  offset="1" style="stop-color:#F2CE64"/>
		</linearGradient>
		<path fill="url(#SVGID_2_)" d="M0.35,1.025v0.15C0.35,1.189,0.339,1.2,0.325,1.2h-0.05C0.261,1.2,0.25,1.189,0.25,1.175v-0.15
			C0.25,1.011,0.261,1,0.275,1h0.05C0.339,1,0.35,1.011,0.35,1.025z"/>
		<linearGradient id="SVGID_3_" gradientUnits="userSpaceOnUse" x1="0.5" y1="1.2" x2="0.5" y2="1">
			<stop  offset="0" style="stop-color:#F78429"/>
			<stop  offset="1" style="stop-color:#F2CE64"/>
		</linearGradient>
		<path fill="url(#SVGID_3_)" d="M0.55,1.025v0.15C0.55,1.189,0.539,1.2,0.525,1.2h-0.05C0.461,1.2,0.45,1.189,0.45,1.175v-0.15
			C0.45,1.011,0.461,1,0.475,1h0.05C0.539,1,0.55,1.011,0.55,1.025z"/>
		<linearGradient id="SVGID_4_" gradientUnits="userSpaceOnUse" x1="0.7" y1="1.2" x2="0.7" y2="1">
			<stop  offset="0" style="stop-color:#F78429"/>
			<stop  offset="1" style="stop-color:#F2CE64"/>
		</linearGradient>
		<path fill="url(#SVGID_4_)" d="M0.75,1.025v0.15C0.75,1.189,0.739,1.2,0.725,1.2h-0.05C0.661,1.2,0.65,1.189,0.65,1.175v-0.15
			C0.65,1.011,0.661,1,0.675,1h0.05C0.739,1,0.75,1.011,0.75,1.025z"/>
	</g>
	<g>
		<path fill="#526386" d="M0.9,0.3v0.6c0,0.027-0.023,0.05-0.05,0.05h-0.7C0.123,0.95,0.1,0.927,0.1,0.9V0.3
			c0-0.027,0.023-0.05,0.05-0.05h0.7C0.877,0.25,0.9,0.273,0.9,0.3z"/>
		<path fill="#7180A8" d="M0.9,0.3v0.5c0,0.027-0.023,0.05-0.05,0.05h-0.7C0.123,0.85,0.1,0.827,0.1,0.8V0.3
			c0-0.027,0.023-0.05,0.05-0.05h0.7C0.877,0.25,0.9,0.273,0.9,0.3z"/>
		<path fill="#444C67" d="M0.8,0.374V0.7c0,0.028-0.023,0.05-0.05,0.05h-0.5C0.222,0.75,0.2,0.728,0.2,0.7V0.374
			c0-0.016,0.002-0.032,0.006-0.047l0.046-0.189h0.497l0.046,0.189C0.798,0.342,0.8,0.358,0.8,0.374z"/>
		<path fill="#556990" d="M0.75,0.15V0.5c0,0.027-0.023,0.05-0.05,0.05H0.3c-0.027,0-0.05-0.023-0.05-0.05V0.15
			c0-0.027,0.023-0.05,0.05-0.05h0.4C0.727,0.1,0.75,0.123,0.75,0.15z"/>
		<path fill="#3B3F53" d="M0.65,0.25V0.4c0,0.027-0.023,0.05-0.05,0.05H0.4c-0.027,0-0.05-0.023-0.05-0.05V0.25
			c0-0.027,0.023-0.05,0.05-0.05h0.2C0.627,0.2,0.65,0.223,0.65,0.25z"/>
	</g>
</g>
</svg>
