<?xml version="1.0" encoding="utf-8"?>
<!-- Generator: Adobe Illustrator 24.1.2, SVG Export Plug-In . SVG Version: 6.00 Build 0)  -->
<svg version="1.1" id="Capa_1" xmlns="http://www.w3.org/2000/svg" xmlns:xlink="http://www.w3.org/1999/xlink" x="0px" y="0px"
	 width="1.1px" height="2px" viewBox="0 0 1.1 2" enable-background="new 0 0 1.1 2" xml:space="preserve">
<path id="rect10315" fill="#0A0F32" fill-opacity="0.2" d="M0.175,1.6h0.8c0.055,0,0.1,0.045,0.1,0.1v0.2c0,0.055-0.045,0.1-0.1,0.1
	h-0.8c-0.055,0-0.1-0.045-0.1-0.1V1.7C0.075,1.645,0.12,1.6,0.175,1.6z"/>
<g>
	<path fill="#663018" d="M1.1,0.4v1.15c0,0.083-0.067,0.15-0.15,0.15H0.2c-0.083,0-0.15-0.067-0.15-0.15V0.4
		c0-0.083,0.067-0.15,0.15-0.15h0.75C1.033,0.25,1.1,0.317,1.1,0.4z"/>
	<path fill="#DE7915" d="M1,0.45V1.5c0,0.055-0.045,0.1-0.1,0.1H0.25c-0.055,0-0.1-0.045-0.1-0.1V0.45c0-0.055,0.045-0.1,0.1-0.1
		H0.9C0.955,0.35,1,0.395,1,0.45z"/>
	<path fill="#FDAA57" d="M1,0.45v0.5c0,0.055-0.045,0.1-0.1,0.1H0.25c-0.055,0-0.1-0.045-0.1-0.1v-0.5c0-0.055,0.045-0.1,0.1-0.1
		H0.9C0.955,0.35,1,0.395,1,0.45z"/>
	<rect x="0.3" y="1.2" fill="#AF2C20" width="0.55" height="0.3"/>
	<rect x="0.3" y="1.2" fill="#7E3A32" width="0.55" height="0.05"/>
	<rect x="0.3" y="1.4" fill="#D9703D" width="0.55" height="0.05"/>
	<rect x="0.3" y="1.45" fill="#FCA958" width="0.55" height="0.05"/>
	<g>
		<g>
			<path fill="#611A7D" d="M1.092,0.589L0.914,0.924C0.905,0.94,0.888,0.95,0.87,0.95H0.274c-0.015,0-0.03-0.007-0.039-0.019
				L0.017,0.655C0,0.63-0.004,0.598,0.005,0.568l0.1-0.3c0.011-0.031,0.036-0.055,0.067-0.065C0.181,0.201,0.191,0.2,0.2,0.2
				c0.023,0,0.045,0.007,0.063,0.022l0.002,0.002l0.068-0.162c0.013-0.03,0.039-0.053,0.071-0.059C0.411,0.001,0.418,0,0.425,0
				C0.45,0,0.474,0.009,0.493,0.026l0.254,0.231l0.081-0.045C0.842,0.204,0.859,0.2,0.875,0.2c0.01,0,0.02,0.001,0.03,0.004
				c0.026,0.008,0.048,0.027,0.06,0.051l0.125,0.25C1.103,0.532,1.104,0.563,1.092,0.589z"/>
		</g>
		<rect x="0.45" y="0.7" fill="#611A7D" width="0.2" height="0.2"/>
		<g>
			<polygon fill="none" points="0.7,0.35 0.64,0.9 0.424,0.9 0.3,0.4 0.425,0.1 			"/>
			<polygon fill="#A542C6" points="0.7,0.35 0.657,0.75 0.535,0.75 0.5,0.4 			"/>
			<polygon fill="#BF55DD" points="0.535,0.75 0.387,0.75 0.3,0.4 0.5,0.4 			"/>
			<polygon fill="#E5B1F9" points="0.5,0.4 0.3,0.4 0.425,0.1 			"/>
			<polygon fill="#B24DDE" points="0.7,0.35 0.5,0.4 0.425,0.1 			"/>
		</g>
		<g>
			<polygon fill="none" points="1,0.55 0.85,0.9 0.55,0.9 0.6,0.45 0.875,0.3 			"/>
			<polygon fill="#C053DB" points="0.775,0.55 0.65,0.9 0.55,0.9 0.6,0.45 			"/>
			<polygon fill="#A540C5" points="1,0.55 0.85,0.9 0.65,0.9 0.775,0.55 			"/>
			<polygon fill="#E7B5F7" points="0.875,0.3 0.775,0.55 0.6,0.45 			"/>
			<polygon fill="#B34CD9" points="1,0.55 0.775,0.55 0.875,0.3 			"/>
		</g>
		<g>
			<polygon fill="#A441C5" points="0.3,0.9 0.1,0.6 0.2,0.3 0.45,0.5 0.55,0.9 			"/>
			<polygon fill="#E3B6FA" points="0.35,0.6 0.1,0.6 0.2,0.3 			"/>
			<polygon fill="#B74FD6" points="0.45,0.5 0.35,0.6 0.2,0.3 			"/>
		</g>
	</g>
</g>
</svg>
