<?xml version="1.0" encoding="utf-8"?>
<!-- Generator: Adobe Illustrator 24.1.2, SVG Export Plug-In . SVG Version: 6.00 Build 0)  -->
<svg version="1.1"
	 id="svg1" xmlns:inkscape="http://www.inkscape.org/namespaces/inkscape" xmlns:sodipodi="http://sodipodi.sourceforge.net/DTD/sodipodi-0.dtd" xmlns:svg="http://www.w3.org/2000/svg"
	 xmlns="http://www.w3.org/2000/svg" xmlns:xlink="http://www.w3.org/1999/xlink" x="0px" y="0px" width="3.33px" height="15.6px"
	 viewBox="0 0 3.33 15.6" enable-background="new 0 0 3.33 15.6" xml:space="preserve">
<g id="layer-MC0" inkscape:groupmode="layer" inkscape:label="svg26477">
	<g id="g2" opacity="0.18">
		<g>
			<g>
				<path id="path2" d="M0.786,15.299v-0.085c0-0.13-0.105-0.236-0.236-0.236H0.236C0.106,14.978,0,15.084,0,15.214v0.085
					c0,0.13,0.106,0.236,0.236,0.236H0.55C0.681,15.535,0.786,15.429,0.786,15.299"/>
			</g>
		</g>
	</g>
	<g id="g5" opacity="0.18">
		<g>
			<g>
				<path id="path5" d="M0.786,0.289v0.085c0,0.13-0.105,0.235-0.236,0.235H0.236C0.106,0.609,0,0.504,0,0.374V0.289
					c0-0.131,0.106-0.236,0.236-0.236H0.55C0.681,0.053,0.786,0.158,0.786,0.289"/>
			</g>
		</g>
	</g>
	<g>
		<g>
			<path id="path7" fill="#6F3A13" d="M3.325,0.273c0-0.12-0.099-0.221-0.219-0.221H2.818C2.777,0.013,2.728,0,2.689,0H2.662H2.578
				H2.551C2.514,0,2.469,0.015,2.429,0.052H1.85C1.809,0.013,1.76,0,1.721,0H1.694H1.611H1.584C1.547,0,1.503,0.015,1.463,0.052
				H0.404c-0.12,0-0.221,0.101-0.221,0.221V0.39c0,0.12,0.101,0.219,0.221,0.219h1.06c0.04,0.036,0.084,0.053,0.121,0.053h0.027
				h0.084h0.027c0.039,0,0.088-0.014,0.129-0.053h0.578C2.47,0.645,2.514,0.662,2.551,0.662h0.028h0.084h0.026
				c0.039,0,0.088-0.014,0.129-0.053h0.287c0.12,0,0.219-0.099,0.219-0.219L3.325,0.273L3.325,0.273z"/>
			<path id="path9" fill="#D77C49" d="M3.239,0.331V0.272V0.27c0-0.017-0.004-0.035-0.01-0.049C3.208,0.172,3.161,0.139,3.105,0.139
				H3.054H0.456h-0.05c-0.075,0-0.134,0.059-0.134,0.133v0.059V0.39c0,0.074,0.059,0.134,0.134,0.134h0.05h2.598H3.08h0.025
				c0.056,0,0.104-0.034,0.124-0.082c0.007-0.016,0.01-0.034,0.01-0.052V0.331z"/>
			
				<linearGradient id="path11_1_" gradientUnits="userSpaceOnUse" x1="-3497.342" y1="2150.1663" x2="-3496.5916" y2="2150.1663" gradientTransform="matrix(0 0.257 -0.257 0 554.3472 898.9841)">
				<stop  offset="0" style="stop-color:#B66739"/>
				<stop  offset="1" style="stop-color:#D77C49"/>
			</linearGradient>
			<path id="path11" fill="url(#path11_1_)" d="M3.239,0.331V0.272c0-0.073-0.061-0.133-0.135-0.133l0,0H3.079H3.053H0.456H0.404
				c-0.073,0-0.134,0.06-0.134,0.133l0,0v0.059C0.27,0.331,3.239,0.331,3.239,0.331z"/>
			
				<linearGradient id="path13_1_" gradientUnits="userSpaceOnUse" x1="1139.8418" y1="2150.1663" x2="1140.5918" y2="2150.1663" gradientTransform="matrix(0 -0.257 -0.257 0 554.3472 293.4838)">
				<stop  offset="0" style="stop-color:#B66739"/>
				<stop  offset="1" style="stop-color:#D77C49"/>
			</linearGradient>
			<path id="path13" fill="url(#path13_1_)" d="M0.456,0.524h2.597h0.026h0.025c0.074,0,0.135-0.06,0.135-0.135l0,0V0.331H0.27
				v0.058c0,0.075,0.061,0.135,0.134,0.135l0,0H0.456z"/>
			
				<radialGradient id="path15_1_" cx="-4441.2539" cy="3320.7808" r="0.7498" gradientTransform="matrix(0 0.1827 -0.1456 0 486.6179 811.6237)" gradientUnits="userSpaceOnUse">
				<stop  offset="0" style="stop-color:#E39C78"/>
				<stop  offset="1" style="stop-color:#F1AB89"/>
			</radialGradient>
			<path id="path15" fill="url(#path15_1_)" d="M3.104,0.524c0.074,0,0.135-0.06,0.135-0.135l0,0V0.272
				c0-0.073-0.061-0.133-0.135-0.133l0,0H3.053c-0.073,0-0.133,0.06-0.133,0.133l0,0v0.117c0,0.075,0.06,0.135,0.133,0.135l0,0
				H3.104z"/>
			<path id="path16" fill="#6F3A13" d="M1.637,0.085H1.61H1.526H1.499c-0.036,0-0.135,0.032-0.136,0.246
				c0,0.214,0.1,0.246,0.136,0.246h0.027H1.61h0.027c-0.022,0-0.092-0.043-0.092-0.246C1.545,0.129,1.615,0.085,1.637,0.085"/>
			
				<radialGradient id="path19_1_" cx="-2249.2878" cy="1737.8398" r="0.75" gradientTransform="matrix(0 0.5568 -0.3519 0 613.3067 1252.6943)" gradientUnits="userSpaceOnUse">
				<stop  offset="0" style="stop-color:#E9CEBD"/>
				<stop  offset="0.3959" style="stop-color:#E9CEBD"/>
				<stop  offset="1" style="stop-color:#93694B"/>
			</radialGradient>
			<path id="path19" fill="url(#path19_1_)" d="M1.611,0.577h0.085h0.027c0.02,0,0.058-0.009,0.089-0.053l0,0H1.722
				c-0.023,0-0.093-0.034-0.093-0.193l0,0c0-0.158,0.07-0.192,0.093-0.192l0,0h0.089C1.78,0.095,1.742,0.085,1.722,0.085l0,0H1.695
				H1.611H1.584c-0.036,0-0.135,0.033-0.135,0.246l0,0c0,0.214,0.099,0.246,0.135,0.246l0,0H1.611z"/>
			<path id="path20" fill="#6F3A13" d="M2.603,0.085H2.576H2.492H2.465c-0.036,0-0.135,0.032-0.135,0.246s0.099,0.246,0.135,0.246
				h0.027h0.084h0.027c-0.022,0-0.092-0.043-0.092-0.246C2.511,0.129,2.581,0.085,2.603,0.085"/>
			
				<radialGradient id="path23_1_" cx="-2249.2878" cy="1738.7554" r="0.75" gradientTransform="matrix(0 0.5568 -0.3519 0 614.5955 1252.6943)" gradientUnits="userSpaceOnUse">
				<stop  offset="0" style="stop-color:#E9CEBD"/>
				<stop  offset="0.3959" style="stop-color:#E9CEBD"/>
				<stop  offset="1" style="stop-color:#93694B"/>
			</radialGradient>
			<path id="path23" fill="url(#path23_1_)" d="M2.578,0.577h0.085h0.026c0.019,0,0.058-0.009,0.089-0.053l0,0H2.689
				c-0.023,0-0.092-0.034-0.092-0.193l0,0c0-0.158,0.069-0.192,0.092-0.192l0,0h0.089c-0.031-0.044-0.07-0.054-0.089-0.054l0,0
				H2.662H2.577H2.551c-0.037,0-0.136,0.033-0.136,0.246l0,0c0,0.214,0.099,0.246,0.136,0.246l0,0H2.578z"/>
		</g>
		<g>
			<path id="path24" fill="#6F3A13" d="M3.325,15.198c0-0.12-0.099-0.219-0.219-0.219H2.818c-0.041-0.039-0.09-0.052-0.129-0.052
				H2.662H2.578H2.551c-0.037,0-0.082,0.016-0.122,0.052H1.85c-0.041-0.039-0.09-0.052-0.129-0.052H1.694H1.611H1.584
				c-0.037,0-0.081,0.016-0.121,0.052H0.404c-0.12,0-0.221,0.099-0.221,0.219v0.117c0,0.12,0.101,0.221,0.221,0.221h1.06
				c0.04,0.036,0.084,0.052,0.121,0.052h0.027h0.084h0.027c0.038,0,0.084-0.016,0.125-0.053h0.582
				c0.041,0.037,0.085,0.053,0.122,0.053h0.028h0.084h0.026c0.038,0,0.086-0.015,0.127-0.053h0.289c0.12,0,0.219-0.1,0.219-0.22
				L3.325,15.198L3.325,15.198z"/>
			<path id="path26" fill="#D77C49" d="M3.239,15.257v-0.059v-0.002c0-0.018-0.004-0.035-0.01-0.05
				c-0.021-0.048-0.068-0.082-0.124-0.082H3.054H0.456h-0.05c-0.075,0-0.134,0.06-0.134,0.134v0.059v0.059
				c0,0.074,0.059,0.134,0.134,0.134h0.05h2.598H3.08h0.025c0.056,0,0.104-0.034,0.124-0.082c0.007-0.016,0.01-0.034,0.01-0.052
				C3.239,15.316,3.239,15.257,3.239,15.257z"/>
			
				<linearGradient id="path28_1_" gradientUnits="userSpaceOnUse" x1="-3516.699" y1="2150.1663" x2="-3515.949" y2="2150.1663" gradientTransform="matrix(0 0.257 -0.257 0 554.3472 918.884)">
				<stop  offset="0" style="stop-color:#B66739"/>
				<stop  offset="1" style="stop-color:#D77C49"/>
			</linearGradient>
			<path id="path28" fill="url(#path28_1_)" d="M3.239,15.256v-0.058c0-0.075-0.061-0.134-0.135-0.134l0,0H3.079H3.053H0.456H0.404
				c-0.073,0-0.134,0.059-0.134,0.134l0,0v0.058H3.239z"/>
			
				<linearGradient id="path30_1_" gradientUnits="userSpaceOnUse" x1="1159.1995" y1="2150.1663" x2="1159.9504" y2="2150.1663" gradientTransform="matrix(0 -0.257 -0.257 0 554.3472 313.3838)">
				<stop  offset="0" style="stop-color:#B66739"/>
				<stop  offset="1" style="stop-color:#D77C49"/>
			</linearGradient>
			<path id="path30" fill="url(#path30_1_)" d="M0.456,15.449h2.597h0.026h0.025c0.074,0,0.135-0.059,0.135-0.134l0,0v-0.059H0.27
				v0.059c0,0.075,0.061,0.134,0.134,0.134l0,0H0.456z"/>
			
				<radialGradient id="path32_1_" cx="-4468.4893" cy="3320.7808" r="0.7497" gradientTransform="matrix(0 0.1827 -0.1456 0 486.6179 831.5237)" gradientUnits="userSpaceOnUse">
				<stop  offset="0" style="stop-color:#E39C78"/>
				<stop  offset="1" style="stop-color:#F1AB89"/>
			</radialGradient>
			<path id="path32" fill="url(#path32_1_)" d="M3.104,15.449c0.074,0,0.135-0.06,0.135-0.134l0,0v-0.117
				c0-0.075-0.061-0.134-0.135-0.134l0,0H3.053c-0.073,0-0.133,0.059-0.133,0.134l0,0v0.117c0,0.074,0.06,0.134,0.133,0.134l0,0
				H3.104z"/>
			<path id="path33" fill="#6F3A13" d="M1.637,15.011H1.61H1.526H1.499c-0.036,0-0.135,0.032-0.136,0.246
				c0,0.214,0.1,0.246,0.136,0.246h0.027H1.61h0.027c-0.022,0-0.092-0.043-0.092-0.246S1.615,15.011,1.637,15.011"/>
			
				<radialGradient id="path36_1_" cx="-2258.2231" cy="1737.8398" r="0.75" gradientTransform="matrix(0 0.5568 -0.3519 0 613.3067 1272.5942)" gradientUnits="userSpaceOnUse">
				<stop  offset="0" style="stop-color:#E9CEBD"/>
				<stop  offset="0.3959" style="stop-color:#E9CEBD"/>
				<stop  offset="1" style="stop-color:#93694B"/>
			</radialGradient>
			<path id="path36" fill="url(#path36_1_)" d="M1.611,15.502h0.085h0.027c0.02,0,0.058-0.01,0.089-0.053l0,0H1.722
				c-0.023,0-0.093-0.034-0.093-0.193l0,0c0-0.159,0.07-0.192,0.093-0.192l0,0h0.089c-0.031-0.044-0.069-0.053-0.089-0.053l0,0
				H1.695H1.611H1.584c-0.036,0-0.135,0.031-0.135,0.245l0,0c0,0.215,0.099,0.246,0.135,0.246l0,0
				C1.584,15.502,1.611,15.502,1.611,15.502z"/>
			<path id="path37" fill="#6F3A13" d="M2.603,15.011H2.576H2.492H2.465c-0.036,0-0.135,0.032-0.135,0.246
				c0,0.214,0.099,0.245,0.135,0.245h0.027h0.084h0.027c-0.022,0-0.092-0.043-0.092-0.246S2.581,15.011,2.603,15.011"/>
			
				<radialGradient id="path40_1_" cx="-2258.2231" cy="1738.7554" r="0.75" gradientTransform="matrix(0 0.5568 -0.3519 0 614.5955 1272.5942)" gradientUnits="userSpaceOnUse">
				<stop  offset="0" style="stop-color:#E9CEBD"/>
				<stop  offset="0.3959" style="stop-color:#E9CEBD"/>
				<stop  offset="1" style="stop-color:#93694B"/>
			</radialGradient>
			<path id="path40" fill="url(#path40_1_)" d="M2.578,15.502h0.085h0.026c0.019,0,0.058-0.01,0.089-0.053l0,0H2.689
				c-0.023,0-0.092-0.034-0.092-0.193l0,0c0-0.159,0.069-0.192,0.092-0.192l0,0h0.089c-0.031-0.044-0.07-0.053-0.089-0.053l0,0
				H2.662H2.577H2.551c-0.037,0-0.136,0.031-0.136,0.245l0,0c0,0.215,0.099,0.246,0.136,0.246l0,0
				C2.551,15.502,2.578,15.502,2.578,15.502z"/>
		</g>
		<g>
			<path id="path41" fill="#D72F1E" d="M1.684,15.013c0,0-0.14-0.78-0.14-2.72v-9c0-2.01,0.14-2.71,0.14-2.71
				c0.3,0.07,0.56,0.08,0.86,0c0,0-0.11,1.16-0.11,2.71v9c0,1.51,0.11,2.72,0.11,2.72C2.245,14.932,1.985,14.932,1.684,15.013
				 M2.525,15.093l0.12,0.04l-0.01-0.13c0,0-0.11-1.2-0.11-2.71v-9c0-1.54,0.11-2.71,0.11-2.71l0.01-0.12l-0.12,0.03
				c-0.29,0.08-0.53,0.08-0.81,0l-0.1-0.021l-0.01,0.091c0,0-0.15,0.72-0.15,2.73v9c0,1.95,0.15,2.74,0.15,2.74l0.01,0.09l0.1-0.03
				C1.995,15.023,2.235,15.023,2.525,15.093"/>
			<path id="path44" fill="#FF5A54" d="M1.684,15.013c0,0-0.14-0.78-0.14-2.72v-9c0-2.01,0.14-2.71,0.14-2.71
				c0.3,0.07,0.56,0.08,0.86,0c0,0-0.11,1.16-0.11,2.71v9c0,1.51,0.11,2.72,0.11,2.72C2.245,14.932,1.985,14.932,1.684,15.013"/>
			<path id="path47" fill="#FD3E36" d="M2.285,14.672c0,0-0.41-1.729-0.45-2.38v-9c0-0.55,0.45-2.38,0.45-2.38s-0.1,1.45-0.1,2.38v9
				C2.195,13.233,2.285,14.672,2.285,14.672"/>
		</g>
	</g>
</g>
</svg>
