<?xml version="1.0" encoding="utf-8"?>
<!-- Generator: Adobe Illustrator 24.1.2, SVG Export Plug-In . SVG Version: 6.00 Build 0)  -->
<svg version="1.1"
	 id="svg1" xmlns:inkscape="http://www.inkscape.org/namespaces/inkscape" xmlns:sodipodi="http://sodipodi.sourceforge.net/DTD/sodipodi-0.dtd" xmlns:svg="http://www.w3.org/2000/svg"
	 xmlns="http://www.w3.org/2000/svg" xmlns:xlink="http://www.w3.org/1999/xlink" x="0px" y="0px" width="3.33px" height="15.6px"
	 viewBox="0 0 3.33 15.6" enable-background="new 0 0 3.33 15.6" xml:space="preserve">
<g id="layer-MC0" inkscape:groupmode="layer" inkscape:label="svg26477">
	<g>
		<g>
			<defs>
				<rect id="SVGID_1_" width="3.325" height="15.588"/>
			</defs>
			<clipPath id="SVGID_2_">
				<use xlink:href="#SVGID_1_"  overflow="visible"/>
			</clipPath>
			<g id="g2" opacity="0.18" clip-path="url(#SVGID_2_)">
				<g>
					<g>
						<defs>
							<rect id="SVGID_3_" x="2.536" y="0.053" width="0.784" height="0.556"/>
						</defs>
						<clipPath id="SVGID_4_">
							<use xlink:href="#SVGID_3_"  overflow="visible"/>
						</clipPath>
						<path id="path2" clip-path="url(#SVGID_4_)" d="M2.536,0.289v0.085c0,0.13,0.105,0.236,0.236,0.236h0.313
							c0.13,0,0.236-0.106,0.236-0.236V0.289c0-0.13-0.106-0.236-0.236-0.236H2.771C2.641,0.053,2.536,0.159,2.536,0.289"/>
					</g>
				</g>
			</g>
		</g>
	</g>
	<g>
		<g>
			<defs>
				<rect id="SVGID_5_" width="3.325" height="15.588"/>
			</defs>
			<clipPath id="SVGID_6_">
				<use xlink:href="#SVGID_5_"  overflow="visible"/>
			</clipPath>
			<g id="g5" opacity="0.18" clip-path="url(#SVGID_6_)">
				<g>
					<g>
						<defs>
							<rect id="SVGID_7_" x="2.536" y="14.967" width="0.784" height="0.556"/>
						</defs>
						<clipPath id="SVGID_8_">
							<use xlink:href="#SVGID_7_"  overflow="visible"/>
						</clipPath>
						<path id="path5" clip-path="url(#SVGID_8_)" d="M2.536,15.287v-0.085c0-0.13,0.105-0.235,0.236-0.235h0.313
							c0.13,0,0.236,0.105,0.236,0.235v0.085c0,0.131-0.106,0.236-0.236,0.236H2.771C2.641,15.523,2.536,15.418,2.536,15.287"/>
					</g>
				</g>
			</g>
		</g>
	</g>
	<g>
		<g>
			<defs>
				<rect id="SVGID_9_" width="3.325" height="15.588"/>
			</defs>
			<clipPath id="SVGID_10_">
				<use xlink:href="#SVGID_9_"  overflow="visible"/>
			</clipPath>
			<path id="path7" clip-path="url(#SVGID_10_)" fill="#6F3A13" d="M0,15.303c0,0.12,0.099,0.221,0.219,0.221h0.287
				c0.041,0.039,0.09,0.052,0.129,0.052h0.027h0.084h0.027c0.037,0,0.082-0.015,0.122-0.052h0.578
				c0.041,0.039,0.09,0.052,0.129,0.052h0.027h0.084h0.027c0.037,0,0.081-0.015,0.121-0.052h1.057c0.12,0,0.221-0.101,0.221-0.221
				v-0.117c0-0.12-0.101-0.219-0.221-0.219H1.859c-0.04-0.036-0.084-0.053-0.121-0.053H1.711H1.627H1.6
				c-0.039,0-0.088,0.014-0.129,0.053H0.893c-0.041-0.036-0.085-0.053-0.122-0.053H0.745H0.661H0.635
				c-0.039,0-0.088,0.014-0.129,0.053H0.219C0.099,14.967,0,15.066,0,15.186V15.303z"/>
		</g>
	</g>
	<g>
		<g>
			<defs>
				<rect id="SVGID_11_" width="3.325" height="15.588"/>
			</defs>
			<clipPath id="SVGID_12_">
				<use xlink:href="#SVGID_11_"  overflow="visible"/>
			</clipPath>
			<path id="path9" clip-path="url(#SVGID_12_)" fill="#D77C49" d="M0.085,15.245v0.059v0.002c0,0.017,0.004,0.035,0.01,0.049
				c0.021,0.049,0.068,0.082,0.124,0.082H0.27h2.595h0.05c0.075,0,0.134-0.059,0.134-0.133v-0.059v-0.059
				c0-0.074-0.059-0.134-0.134-0.134h-0.05H0.27H0.244H0.219c-0.056,0-0.104,0.034-0.124,0.082c-0.007,0.016-0.01,0.034-0.01,0.052
				V15.245z"/>
		</g>
	</g>
	
		<linearGradient id="path11_1_" gradientUnits="userSpaceOnUse" x1="-5450.646" y1="-3058.3472" x2="-5449.8965" y2="-3058.3472" gradientTransform="matrix(0 -0.257 -0.257 0 -784.4272 -1385.4071)">
		<stop  offset="0" style="stop-color:#B66739"/>
		<stop  offset="1" style="stop-color:#D77C49"/>
	</linearGradient>
	<path id="path11" fill="url(#path11_1_)" d="M0.085,15.245v0.059c0,0.073,0.061,0.133,0.135,0.133l0,0h0.025h0.026h2.594h0.052
		c0.073,0,0.134-0.06,0.134-0.133l0,0v-0.059H0.085z"/>
	
		<linearGradient id="path13_1_" gradientUnits="userSpaceOnUse" x1="3879.147" y1="-3058.3472" x2="3879.8962" y2="-3058.3472" gradientTransform="matrix(0 0.257 -0.257 0 -784.4272 -981.9088)">
		<stop  offset="0" style="stop-color:#B66739"/>
		<stop  offset="1" style="stop-color:#D77C49"/>
	</linearGradient>
	<path id="path13" fill="url(#path13_1_)" d="M2.865,15.052H0.271H0.245H0.22c-0.074,0-0.135,0.06-0.135,0.135l0,0v0.058h2.966
		v-0.058c0-0.075-0.061-0.135-0.134-0.135l0,0H2.865z"/>
	
		<radialGradient id="path15_1_" cx="-7348.7476" cy="-5398.9736" r="0.7492" gradientTransform="matrix(0 -0.1827 -0.1455 0 -785.5511 -1327.2466)" gradientUnits="userSpaceOnUse">
		<stop  offset="0" style="stop-color:#E39C78"/>
		<stop  offset="1" style="stop-color:#F1AB89"/>
	</radialGradient>
	<path id="path15" fill="url(#path15_1_)" d="M0.22,15.052c-0.074,0-0.135,0.06-0.135,0.135l0,0v0.117
		c0,0.073,0.061,0.133,0.135,0.133l0,0h0.051c0.073,0,0.133-0.06,0.133-0.133l0,0v-0.117c0-0.075-0.06-0.135-0.133-0.135l0,0H0.22z"
		/>
	<g>
		<g>
			<defs>
				<rect id="SVGID_13_" width="3.325" height="15.588"/>
			</defs>
			<clipPath id="SVGID_14_">
				<use xlink:href="#SVGID_13_"  overflow="visible"/>
			</clipPath>
			<path id="path16" clip-path="url(#SVGID_14_)" fill="#6F3A13" d="M1.686,15.491h0.027h0.084h0.027
				c0.036,0,0.135-0.032,0.136-0.246c0-0.214-0.1-0.246-0.136-0.246H1.797H1.713H1.686c0.022,0,0.092,0.043,0.092,0.246
				C1.778,15.447,1.708,15.491,1.686,15.491"/>
		</g>
	</g>
	
		<radialGradient id="path19_1_" cx="-2939.2625" cy="-2233.3208" r="0.7494" gradientTransform="matrix(0 -0.5568 -0.3518 0 -784.1046 -1621.2959)" gradientUnits="userSpaceOnUse">
		<stop  offset="0" style="stop-color:#E9CEBD"/>
		<stop  offset="0.3959" style="stop-color:#E9CEBD"/>
		<stop  offset="1" style="stop-color:#93694B"/>
	</radialGradient>
	<path id="path19" fill="url(#path19_1_)" d="M1.712,14.999H1.627H1.6c-0.02,0-0.058,0.009-0.089,0.053l0,0H1.6
		c0.023,0,0.093,0.034,0.093,0.193l0,0c0,0.158-0.07,0.192-0.093,0.192l0,0H1.511c0.031,0.044,0.069,0.054,0.089,0.054l0,0h0.027
		h0.085h0.027c0.036,0,0.135-0.033,0.135-0.246l0,0c0-0.214-0.099-0.246-0.135-0.246l0,0H1.712z"/>
	<g>
		<g>
			<defs>
				<rect id="SVGID_15_" width="3.325" height="15.588"/>
			</defs>
			<clipPath id="SVGID_16_">
				<use xlink:href="#SVGID_15_"  overflow="visible"/>
			</clipPath>
			<path id="path20" clip-path="url(#SVGID_16_)" fill="#6F3A13" d="M0.721,15.491h0.027h0.084h0.027
				c0.036,0,0.135-0.032,0.135-0.246c0-0.214-0.099-0.246-0.135-0.246H0.831H0.748H0.721c0.022,0,0.092,0.043,0.092,0.246
				C0.813,15.447,0.743,15.491,0.721,15.491"/>
		</g>
	</g>
	
		<radialGradient id="path23_1_" cx="-2939.2625" cy="-2234.2385" r="0.7494" gradientTransform="matrix(0 -0.5568 -0.3518 0 -785.3929 -1621.2959)" gradientUnits="userSpaceOnUse">
		<stop  offset="0" style="stop-color:#E9CEBD"/>
		<stop  offset="0.3959" style="stop-color:#E9CEBD"/>
		<stop  offset="1" style="stop-color:#93694B"/>
	</radialGradient>
	<path id="path23" fill="url(#path23_1_)" d="M0.746,14.999H0.661H0.635c-0.019,0-0.058,0.009-0.089,0.053l0,0h0.089
		c0.023,0,0.092,0.034,0.092,0.193l0,0c0,0.158-0.069,0.192-0.092,0.192l0,0H0.546c0.031,0.044,0.07,0.054,0.089,0.054l0,0h0.027
		h0.085h0.026c0.037,0,0.136-0.033,0.136-0.246l0,0c0-0.214-0.099-0.246-0.136-0.246l0,0H0.746z"/>
	<g>
		<g>
			<defs>
				<rect id="SVGID_17_" width="3.325" height="15.588"/>
			</defs>
			<clipPath id="SVGID_18_">
				<use xlink:href="#SVGID_17_"  overflow="visible"/>
			</clipPath>
			<path id="path24" clip-path="url(#SVGID_18_)" fill="#6F3A13" d="M0,0.39c0,0.12,0.099,0.219,0.219,0.219h0.287
				c0.041,0.039,0.09,0.052,0.129,0.052h0.027h0.084h0.027c0.037,0,0.082-0.016,0.122-0.052h0.578
				c0.041,0.039,0.09,0.052,0.129,0.052h0.027h0.084h0.027c0.037,0,0.081-0.016,0.121-0.052h1.057c0.12,0,0.221-0.099,0.221-0.219
				V0.273c0-0.12-0.101-0.221-0.221-0.221H1.859C1.819,0.016,1.775,0,1.738,0H1.711H1.627H1.6C1.562,0,1.516,0.016,1.475,0.053
				H0.893C0.852,0.016,0.809,0,0.772,0H0.745H0.661H0.635C0.597,0,0.549,0.015,0.508,0.053H0.219C0.099,0.053,0,0.153,0,0.273V0.39z
				"/>
		</g>
	</g>
	<g>
		<g>
			<defs>
				<rect id="SVGID_19_" width="3.325" height="15.588"/>
			</defs>
			<clipPath id="SVGID_20_">
				<use xlink:href="#SVGID_19_"  overflow="visible"/>
			</clipPath>
			<path id="path26" clip-path="url(#SVGID_20_)" fill="#D77C49" d="M0.085,0.331V0.39v0.002c0,0.018,0.004,0.035,0.01,0.05
				C0.116,0.49,0.163,0.524,0.219,0.524H0.27h2.595h0.05c0.075,0,0.134-0.06,0.134-0.134V0.331V0.272
				c0-0.074-0.059-0.134-0.134-0.134h-0.05H0.27H0.244H0.219c-0.056,0-0.104,0.034-0.124,0.082c-0.007,0.016-0.01,0.034-0.01,0.052
				V0.331z"/>
		</g>
	</g>
	
		<linearGradient id="path28_1_" gradientUnits="userSpaceOnUse" x1="-5470.0474" y1="-3058.3472" x2="-5469.2983" y2="-3058.3472" gradientTransform="matrix(0 -0.257 -0.257 0 -784.4272 -1405.307)">
		<stop  offset="0" style="stop-color:#B66739"/>
		<stop  offset="1" style="stop-color:#D77C49"/>
	</linearGradient>
	<path id="path28" fill="url(#path28_1_)" d="M0.085,0.332V0.39c0,0.075,0.061,0.134,0.135,0.134l0,0h0.025h0.026h2.594h0.052
		c0.073,0,0.134-0.059,0.134-0.134l0,0V0.332H0.085z"/>
	
		<linearGradient id="path30_1_" gradientUnits="userSpaceOnUse" x1="3898.5493" y1="-3058.3472" x2="3899.2988" y2="-3058.3472" gradientTransform="matrix(0 0.257 -0.257 0 -784.4272 -1001.8088)">
		<stop  offset="0" style="stop-color:#B66739"/>
		<stop  offset="1" style="stop-color:#D77C49"/>
	</linearGradient>
	<path id="path30" fill="url(#path30_1_)" d="M2.865,0.139H0.271H0.245H0.22c-0.074,0-0.135,0.059-0.135,0.134l0,0v0.059h2.966
		V0.273c0-0.075-0.061-0.134-0.134-0.134l0,0H2.865z"/>
	
		<radialGradient id="path32_1_" cx="-7376.0459" cy="-5398.9736" r="0.7491" gradientTransform="matrix(0 -0.1827 -0.1455 0 -785.5511 -1347.1466)" gradientUnits="userSpaceOnUse">
		<stop  offset="0" style="stop-color:#E39C78"/>
		<stop  offset="1" style="stop-color:#F1AB89"/>
	</radialGradient>
	<path id="path32" fill="url(#path32_1_)" d="M0.22,0.139c-0.074,0-0.135,0.06-0.135,0.134l0,0V0.39
		c0,0.075,0.061,0.134,0.135,0.134l0,0h0.051c0.073,0,0.133-0.059,0.133-0.134l0,0V0.273c0-0.074-0.06-0.134-0.133-0.134l0,0H0.22z"
		/>
	<g>
		<g>
			<defs>
				<rect id="SVGID_21_" width="3.325" height="15.588"/>
			</defs>
			<clipPath id="SVGID_22_">
				<use xlink:href="#SVGID_21_"  overflow="visible"/>
			</clipPath>
			<path id="path33" clip-path="url(#SVGID_22_)" fill="#6F3A13" d="M1.686,0.577h0.027h0.084h0.027
				c0.036,0,0.135-0.032,0.136-0.246c0-0.214-0.1-0.246-0.136-0.246H1.797H1.713H1.686c0.022,0,0.092,0.043,0.092,0.246
				S1.708,0.577,1.686,0.577"/>
		</g>
	</g>
	
		<radialGradient id="path36_1_" cx="-2948.2185" cy="-2233.3208" r="0.7494" gradientTransform="matrix(0 -0.5568 -0.3518 0 -784.1046 -1641.1959)" gradientUnits="userSpaceOnUse">
		<stop  offset="0" style="stop-color:#E9CEBD"/>
		<stop  offset="0.3959" style="stop-color:#E9CEBD"/>
		<stop  offset="1" style="stop-color:#93694B"/>
	</radialGradient>
	<path id="path36" fill="url(#path36_1_)" d="M1.712,0.086H1.627H1.6c-0.02,0-0.058,0.01-0.089,0.053l0,0H1.6
		c0.023,0,0.093,0.034,0.093,0.193l0,0c0,0.159-0.07,0.192-0.093,0.192l0,0H1.511C1.542,0.568,1.58,0.577,1.6,0.577l0,0h0.027h0.085
		h0.027c0.036,0,0.135-0.031,0.135-0.245l0,0c0-0.215-0.099-0.246-0.135-0.246l0,0L1.712,0.086z"/>
	<g>
		<g>
			<defs>
				<rect id="SVGID_23_" width="3.325" height="15.588"/>
			</defs>
			<clipPath id="SVGID_24_">
				<use xlink:href="#SVGID_23_"  overflow="visible"/>
			</clipPath>
			<path id="path37" clip-path="url(#SVGID_24_)" fill="#6F3A13" d="M0.721,0.577h0.027h0.084h0.027
				c0.036,0,0.135-0.032,0.135-0.246S0.894,0.086,0.858,0.086H0.831H0.748H0.721c0.022,0,0.092,0.043,0.092,0.246
				S0.743,0.577,0.721,0.577"/>
		</g>
	</g>
	
		<radialGradient id="path40_1_" cx="-2948.2185" cy="-2234.2385" r="0.7494" gradientTransform="matrix(0 -0.5568 -0.3518 0 -785.3929 -1641.1959)" gradientUnits="userSpaceOnUse">
		<stop  offset="0" style="stop-color:#E9CEBD"/>
		<stop  offset="0.3959" style="stop-color:#E9CEBD"/>
		<stop  offset="1" style="stop-color:#93694B"/>
	</radialGradient>
	<path id="path40" fill="url(#path40_1_)" d="M0.746,0.086H0.661H0.635c-0.019,0-0.058,0.01-0.089,0.053l0,0h0.089
		c0.023,0,0.092,0.034,0.092,0.193l0,0c0,0.159-0.069,0.192-0.092,0.192l0,0H0.546c0.031,0.044,0.07,0.053,0.089,0.053l0,0h0.027
		h0.085h0.026c0.037,0,0.136-0.031,0.136-0.245l0,0c0-0.215-0.099-0.246-0.136-0.246l0,0L0.746,0.086z"/>
	<g>
		<g>
			<defs>
				<rect id="SVGID_25_" width="3.325" height="15.588"/>
			</defs>
			<clipPath id="SVGID_26_">
				<use xlink:href="#SVGID_25_"  overflow="visible"/>
			</clipPath>
			<path id="path41" clip-path="url(#SVGID_26_)" fill="#1226D5" d="M1.638,0.575c0,0,0.14,0.779,0.14,2.718v8.993
				c0,2.008-0.14,2.708-0.14,2.708c-0.3-0.07-0.56-0.08-0.858,0c0,0,0.11-1.159,0.11-2.708V3.293c0-1.509-0.11-2.718-0.11-2.718
				C1.078,0.655,1.338,0.655,1.638,0.575 M0.799,0.495l-0.12-0.04l0.01,0.13c0,0,0.11,1.199,0.11,2.708v8.993
				c0,1.539-0.11,2.708-0.11,2.708l-0.01,0.12l0.12-0.03c0.29-0.08,0.53-0.08,0.809,0l0.1,0.021l0.01-0.091
				c0,0,0.15-0.719,0.15-2.728V3.293c0-1.948-0.15-2.738-0.15-2.738l-0.01-0.09l-0.1,0.03C1.328,0.565,1.088,0.565,0.799,0.495"/>
		</g>
	</g>
	<g>
		<g>
			<defs>
				<rect id="SVGID_27_" width="3.325" height="15.588"/>
			</defs>
			<clipPath id="SVGID_28_">
				<use xlink:href="#SVGID_27_"  overflow="visible"/>
			</clipPath>
			<g id="g44" opacity="0.8588" clip-path="url(#SVGID_28_)">
				<g>
					<g>
						<defs>
							<rect id="SVGID_29_" x="0.779" y="0.575" width="0.998" height="14.419"/>
						</defs>
						<clipPath id="SVGID_30_">
							<use xlink:href="#SVGID_29_"  overflow="visible"/>
						</clipPath>
						<path id="path44" clip-path="url(#SVGID_30_)" fill="#3D66FF" d="M1.638,0.575c0,0,0.14,0.779,0.14,2.718v8.993
							c0,2.008-0.14,2.708-0.14,2.708c-0.3-0.07-0.56-0.08-0.858,0c0,0,0.11-1.159,0.11-2.708V3.293c0-1.509-0.11-2.718-0.11-2.718
							C1.078,0.655,1.338,0.655,1.638,0.575"/>
					</g>
				</g>
			</g>
		</g>
	</g>
	<g>
		<g>
			<defs>
				<rect id="SVGID_31_" width="3.325" height="15.588"/>
			</defs>
			<clipPath id="SVGID_32_">
				<use xlink:href="#SVGID_31_"  overflow="visible"/>
			</clipPath>
			<g id="g47" opacity="0.6667" clip-path="url(#SVGID_32_)">
				<g>
					<g>
						<defs>
							<rect id="SVGID_33_" x="1.038" y="0.915" width="0.45" height="13.749"/>
						</defs>
						<clipPath id="SVGID_34_">
							<use xlink:href="#SVGID_33_"  overflow="visible"/>
						</clipPath>
						<path id="path47" clip-path="url(#SVGID_34_)" fill="#212BFF" d="M1.038,0.915c0,0,0.41,1.728,0.45,2.378v8.993
							c0,0.55-0.45,2.378-0.45,2.378s0.1-1.449,0.1-2.378V3.293C1.128,2.353,1.038,0.915,1.038,0.915"/>
					</g>
				</g>
			</g>
		</g>
	</g>
</g>
</svg>
