<?xml version="1.0" encoding="UTF-8" standalone="no"?>
<!-- Created with Inkscape (http://www.inkscape.org/) -->

<svg
   width="1"
   height="1.75"
   viewBox="0 0 1 1.75"
   version="1.1"
   id="svg5"
   sodipodi:docname="grass_pine.svg"
   inkscape:version="1.2 (dc2aedaf03, 2022-05-15)"
   xml:space="preserve"
   xmlns:inkscape="http://www.inkscape.org/namespaces/inkscape"
   xmlns:sodipodi="http://sodipodi.sourceforge.net/DTD/sodipodi-0.dtd"
   xmlns:xlink="http://www.w3.org/1999/xlink"
   xmlns="http://www.w3.org/2000/svg"
   xmlns:svg="http://www.w3.org/2000/svg"><sodipodi:namedview
     id="namedview7"
     pagecolor="#171717"
     bordercolor="#999999"
     borderopacity="1"
     inkscape:pageshadow="0"
     inkscape:pageopacity="0"
     inkscape:pagecheckerboard="0"
     inkscape:document-units="px"
     showgrid="true"
     units="px"
     inkscape:zoom="132.81823"
     inkscape:cx="0.68891147"
     inkscape:cy="1.2347703"
     inkscape:window-width="3440"
     inkscape:window-height="1417"
     inkscape:window-x="-8"
     inkscape:window-y="-8"
     inkscape:window-maximized="1"
     inkscape:current-layer="layer1"
     inkscape:object-paths="true"
     inkscape:snap-intersection-paths="true"
     inkscape:snap-smooth-nodes="true"
     inkscape:snap-midpoints="true"
     inkscape:snap-object-midpoints="true"
     showguides="true"
     inkscape:snap-global="true"
     inkscape:showpageshadow="0"
     inkscape:deskcolor="#171717"><inkscape:grid
       type="xygrid"
       id="grid836"
       originx="0"
       originy="0" /></sodipodi:namedview><defs
     id="defs2"><linearGradient
       id="linearGradient48485"
       inkscape:swatch="solid"><stop
         style="stop-color:#ffa420;stop-opacity:1;"
         offset="0"
         id="stop48483" /></linearGradient><linearGradient
       inkscape:collect="always"
       id="linearGradient16338"><stop
         style="stop-color:#147890;stop-opacity:1"
         offset="0"
         id="stop16334" /><stop
         style="stop-color:#106880;stop-opacity:1"
         offset="1"
         id="stop16336" /></linearGradient><linearGradient
       inkscape:collect="always"
       xlink:href="#linearGradient16338"
       id="linearGradient16340"
       x1="85"
       y1="100"
       x2="85"
       y2="108"
       gradientUnits="userSpaceOnUse"
       gradientTransform="translate(-75,-80)" /></defs><g
     inkscape:label="Layer 1"
     inkscape:groupmode="layer"
     id="layer1"><g
       id="g12311"
       transform="scale(0.05)"><rect
         style="fill:#0a0f32;fill-opacity:0.2;stroke-linejoin:round;paint-order:fill markers stroke"
         id="rect1948-6-6"
         width="20"
         height="8"
         x="0"
         y="27"
         ry="2" /><path
         id="rect18466"
         style="fill:#084c60;stroke-width:8;stroke-linecap:square;stroke-linejoin:round;paint-order:markers stroke fill"
         d="m 0,28 10,-1 10,1 v 2 H 0 Z"
         sodipodi:nodetypes="cccccc" /><path
         id="path10947"
         style="fill:#009ca4;fill-opacity:1;stroke:none;stroke-width:8;stroke-linecap:square;stroke-linejoin:round;paint-order:markers stroke fill"
         d="M 3,0 C 2.000001,0 0,5.000002 0,7 v 7 H 10 20 V 7 C 20,5.000002 17.999999,0 17,0 16.000001,0 14,4.000003 13.5,7 13,3.000004 10.999999,0 10,0 9.000001,0 7,3.000004 6.5,7 6,4.000003 3.999999,0 3,0 Z" /><path
         id="path10951"
         style="fill:#088ca0;fill-opacity:1;stroke:none;stroke-width:8;stroke-linecap:square;stroke-linejoin:round;paint-order:markers stroke fill"
         d="m 0,6 v 15 h 6.5 7 6.5 V 6 C 19.000001,6 17.5,10.000003 17,13 16.5,10.000003 14.499999,6 13.5,6 12.500001,6 10.5,10.000003 10,13 9.5,10.000003 7.499999,6 6.5,6 5.500001,6 3.5,10.000003 3,13 2.5,10.000003 0.999999,6 0,6 Z" /><path
         id="path10953"
         style="fill:url(#linearGradient16340);fill-opacity:1;stroke:none;stroke-width:8;stroke-linecap:square;stroke-linejoin:round;paint-order:markers stroke fill"
         d="m 3,13 c -0.999999,0 -3,5 -3,7 v 8 h 10 10 v -8 c 0,-2 -2.000001,-7 -3,-7 -0.999999,0 -3,4.000003 -3.5,7 C 13,16.000004 10.999999,13 10,13 9.000001,13 7,16.000004 6.5,20 6,17.000003 3.999999,13 3,13 Z" /></g></g></svg>
