<?xml version="1.0" encoding="utf-8"?>
<!-- Generator: Adobe Illustrator 24.1.2, SVG Export Plug-In . SVG Version: 6.00 Build 0)  -->
<svg version="1.1"
	 id="svg557535" inkscape:version="1.1 (c68e22c387, 2021-05-23)" sodipodi:docname="grass_teal.svg" xmlns:inkscape="http://www.inkscape.org/namespaces/inkscape" xmlns:sodipodi="http://sodipodi.sourceforge.net/DTD/sodipodi-0.dtd" xmlns:svg="http://www.w3.org/2000/svg"
	 xmlns="http://www.w3.org/2000/svg" xmlns:xlink="http://www.w3.org/1999/xlink" x="0px" y="0px" viewBox="0 0 1 1.75"
	 enable-background="new 0 0 1 1.75" xml:space="preserve">
<g id="layer1" transform="translate(-121.67183,-117.98447)" inkscape:groupmode="layer" inkscape:label="Layer 1">
	<g id="g442793" transform="matrix(0.04999591,0,0,0.05,43.956848,121.95322)">
		<path id="path6005-3-5-3-4" sodipodi:nodetypes="csssscc" fill="#0A0F32" fill-opacity="0.2" d="M1574.426-50.375l0,4
			c0,1.108-0.892,2-2,2h-16c-1.108,0-2-0.892-2-2l0-4H1574.426z"/>
		<path id="path14329-6" inkscape:connector-curvature="0" sodipodi:nodetypes="cscccsscsccc" fill="#7EF27E" d="M1557.758-79.375
			c-1.139,0-3.334,5.727-3.334,6.477v0.042v8.773h19.999v-8.812c0-0.89-2.195-6.477-3.334-6.477c-1.14,0-3.333,5.727-3.333,6.477
			c0-0.89-2.195-6.477-3.334-6.477c-1.139,0-3.332,5.727-3.332,6.477c0-0.89-2.195-6.477-3.333-6.477L1557.758-79.375z"/>
		<path id="path14331-6" inkscape:connector-curvature="0" sodipodi:nodetypes="cccccccccscscc" fill="#64C967" d="M1554.424-72.831
			v14.107l0,0v1.492h19.999v-8.39v-7.209c-1.139,0-3.332,6.458-3.332,7.209l0,0c0-0.89-2.193-7.209-3.332-7.209
			c-1.139,0-3.334,6.458-3.334,7.209c0-0.89-2.195-7.209-3.334-7.209c-1.139,0-3.333,6.458-3.333,7.209
			C1557.758-66.513,1555.563-72.831,1554.424-72.831L1554.424-72.831z"/>
		<path id="path14333-6" inkscape:connector-curvature="0" sodipodi:nodetypes="cscccsscsccc" fill="#438543" d="M1557.758-65.948
			c-1.139,0-3.334,5.398-3.334,6.148v0.038v10.387h19.999v-10.427c0-0.89-2.195-6.147-3.334-6.147c-1.139,0-3.333,5.398-3.333,6.147
			c0-0.89-2.193-6.147-3.332-6.147c-1.139,0-3.334,5.398-3.334,6.147c0-0.89-2.195-6.147-3.333-6.147L1557.758-65.948z"/>
		<rect id="rect1750-1" x="1554.425" y="-51.375" fill="#26542C" width="19.999" height="2"/>
	</g>
</g>
</svg>
