<?xml version="1.0" encoding="UTF-8" standalone="no"?>
<!-- Created with Inkscape (http://www.inkscape.org/) -->

<svg
   width="1"
   height="1.75"
   viewBox="0 0 1 1.75"
   version="1.1"
   id="svg5"
   sodipodi:docname="grass_voxel.svg"
   inkscape:version="1.1 (c68e22c387, 2021-05-23)"
   xmlns:inkscape="http://www.inkscape.org/namespaces/inkscape"
   xmlns:sodipodi="http://sodipodi.sourceforge.net/DTD/sodipodi-0.dtd"
   xmlns="http://www.w3.org/2000/svg"
   xmlns:svg="http://www.w3.org/2000/svg">
  <sodipodi:namedview
     id="namedview7"
     pagecolor="#171717"
     bordercolor="#999999"
     borderopacity="1"
     inkscape:pageshadow="0"
     inkscape:pageopacity="0"
     inkscape:pagecheckerboard="0"
     inkscape:document-units="px"
     showgrid="false"
     units="px"
     inkscape:zoom="132.81822"
     inkscape:cx="0.24093079"
     inkscape:cy="0.65126605"
     inkscape:window-width="1284"
     inkscape:window-height="1041"
     inkscape:window-x="208"
     inkscape:window-y="0"
     inkscape:window-maximized="0"
     inkscape:current-layer="layer1"
     inkscape:object-paths="true"
     inkscape:snap-intersection-paths="true"
     inkscape:snap-smooth-nodes="true"
     inkscape:snap-midpoints="true"
     inkscape:snap-object-midpoints="true">
    <inkscape:grid
       type="xygrid"
       id="grid836"
       originx="-4.45585"
       originy="123.38908" />
  </sodipodi:namedview>
  <defs
     id="defs2" />
  <g
     inkscape:label="Layer 1"
     inkscape:groupmode="layer"
     id="layer1"
     transform="translate(-4.45585,123.38908)">
    <g
       id="g1772"
       transform="matrix(0.05,0,0,0.05,-0.79415,-116.63908)"
       style="stroke-width:20">
      <rect
         style="fill:#0f0f37;fill-opacity:0.2;stroke:none;stroke-width:755.906;stroke-linecap:round;stroke-linejoin:round;paint-order:markers stroke fill"
         id="rect88901"
         width="20"
         height="7"
         x="105"
         y="-107" />
      <rect
         style="fill:#084810;fill-opacity:1;stroke:none;stroke-width:755.906;stroke-linecap:round;stroke-linejoin:round;paint-order:markers stroke fill"
         id="rect80222"
         width="20"
         height="3"
         x="105"
         y="-108" />
      <rect
         style="fill:#087814;fill-opacity:1;stroke:none;stroke-width:755.906;stroke-linecap:round;stroke-linejoin:round;paint-order:markers stroke fill"
         id="rect80224"
         width="5"
         height="3"
         x="105"
         y="-121" />
      <rect
         style="fill:#086810;fill-opacity:1;stroke:none;stroke-width:755.906;stroke-linecap:round;stroke-linejoin:round;paint-order:markers stroke fill"
         id="rect80226"
         width="20"
         height="4"
         x="105"
         y="-111" />
      <rect
         style="fill:#087111;fill-opacity:1;stroke:none;stroke-width:755.906;stroke-linecap:round;stroke-linejoin:round;paint-order:markers stroke fill"
         id="rect80228"
         width="5"
         height="7"
         x="105"
         y="-117" />
      <path
         id="rect80381"
         style="fill:#087111;fill-opacity:1;stroke:none;stroke-width:755.906;stroke-linecap:round;stroke-linejoin:round;paint-order:markers stroke fill"
         d="m 105,-131 v 21 h 10 v 3 h 5 v -3 h 5 v -18 z"
         sodipodi:nodetypes="ccccccccc" />
      <path
         id="rect80230"
         style="fill:#087814;fill-opacity:1;stroke:none;stroke-width:755.906;stroke-linecap:round;stroke-linejoin:round;paint-order:markers stroke fill"
         d="m 105,-134 v 5 h 5 v 2 h 5 v 2 l -5,-1 -5,-1 v 11 h 5 v -4 h 5 v 4 l -5,2 v 4 h 5 v -4 h 5 v 3 h 5 v -5 l -5,-1 v -3 h 5 v -11 h -5 v 1 l -1,2 -4,-2 v -1 l -5,-2 z"
         sodipodi:nodetypes="cccccccccccccccccccccccccccccccc" />
      <path
         id="rect80232"
         style="fill:#309834;fill-opacity:1;stroke:none;stroke-width:755.906;stroke-linecap:round;stroke-linejoin:round;paint-order:markers stroke fill"
         d="m 105,-135 v 2 h 5 v -2 z m 5,2 v 2 h 5 v -2 z m 10,0 v 2 h 5 v -2 z m -5,3 v 2 h 5 v -2 z m -10,2 v 2 h 5 v -2 z m 5,2 v 2 h 5 v -2 z m 5,2 v 2 h 5 v -2 z m 5,0 h 5 v -2 h -5 z m -15,2 v 2 h 5 v -2 z m 10,2 v 2 h 5 v -2 z m 5,3 v 2 h 5 v -2 z m -10,1 v 2 h 5 v -2 z" />
    </g>
  </g>
</svg>
