<?xml version="1.0" encoding="utf-8"?>
<!-- Generator: Adobe Illustrator 24.1.2, SVG Export Plug-In . SVG Version: 6.00 Build 0)  -->
<svg version="1.1" id="Capa_1" xmlns="http://www.w3.org/2000/svg" xmlns:xlink="http://www.w3.org/1999/xlink" x="0px" y="0px"
	 width="1px" height="1.8px" viewBox="0 0 1 1.8" enable-background="new 0 0 1 1.8" xml:space="preserve">
<circle id="circle16099" fill="#0A0F32" fill-opacity="0.2" cx="0.5" cy="1.3" r="0.5"/>
<g>
	<path fill="#732E00" d="M0.995,0.493C0.992,0.551,0.983,0.632,0.963,0.706c0.008,0.025,0.012,0.051,0.012,0.078
		c0,0.015-0.002,0.03-0.004,0.045c0.012,0.052,0.02,0.112,0.025,0.179C1,1.068,1,1.112,1,1.121v0.004C1,1.335,0.78,1.5,0.5,1.5
		S0,1.335,0,1.125V1.121c0-0.008,0-0.053,0.005-0.114c0.004-0.065,0.013-0.126,0.024-0.178c-0.002-0.015-0.004-0.03-0.004-0.045
		c0-0.027,0.004-0.053,0.012-0.078c-0.02-0.074-0.029-0.155-0.033-0.214C0,0.432,0,0.387,0,0.379V0.375C0,0.164,0.22,0,0.5,0
		S1,0.164,1,0.375v0.004C1,0.387,1,0.432,0.995,0.493z"/>
	
		<radialGradient id="SVGID_1_" cx="-1330.4985" cy="-610.9948" r="0.5334" gradientTransform="matrix(-1 0 0 -0.6923 -1330 -422.0046)" gradientUnits="userSpaceOnUse">
		<stop  offset="0" style="stop-color:#FFC359"/>
		<stop  offset="0.5894" style="stop-color:#FEC057"/>
		<stop  offset="1" style="stop-color:#EF7B21"/>
	</radialGradient>
	<path fill="url(#SVGID_1_)" d="M0.1,1.125c0,0,0-0.001,0-0.004c0-0.013,0.001-0.054,0.004-0.107C0.11,0.936,0.123,0.83,0.155,0.755
		c0.02-0.046,0.057-0.082,0.102-0.104C0.324,0.62,0.408,0.6,0.5,0.6s0.176,0.02,0.243,0.052c0.046,0.021,0.083,0.057,0.102,0.104
		C0.877,0.83,0.89,0.936,0.896,1.014C0.899,1.067,0.9,1.108,0.9,1.121c0,0.002,0,0.004,0,0.004C0.9,1.277,0.721,1.4,0.5,1.4
		S0.1,1.277,0.1,1.125z"/>
	<path fill="#732E00" d="M0.875,0.784c0,0.133-0.168,0.241-0.375,0.241S0.125,0.917,0.125,0.784c0-0.026,0.006-0.05,0.017-0.073
		c0.004,0.012,0.008,0.023,0.013,0.034c0.02,0.046,0.057,0.082,0.102,0.104C0.324,0.88,0.408,0.9,0.5,0.9s0.176-0.02,0.243-0.052
		c0.046-0.021,0.083-0.057,0.102-0.104c0.004-0.011,0.008-0.022,0.012-0.034C0.869,0.734,0.875,0.758,0.875,0.784z"/>
	
		<radialGradient id="SVGID_2_" cx="0.5045" cy="0.5052" r="0.5432" gradientTransform="matrix(1 0 0 0.6874 0 0.1579)" gradientUnits="userSpaceOnUse">
		<stop  offset="0.53" style="stop-color:#EF7B21"/>
		<stop  offset="1" style="stop-color:#FFC359"/>
	</radialGradient>
	<path fill="url(#SVGID_2_)" d="M0.9,0.375c0,0,0,0.001,0,0.004c0,0.013-0.001,0.054-0.004,0.107C0.891,0.554,0.88,0.64,0.858,0.711
		C0.854,0.723,0.849,0.734,0.845,0.745c-0.02,0.046-0.057,0.082-0.102,0.104C0.676,0.88,0.592,0.9,0.5,0.9S0.324,0.88,0.257,0.848
		C0.211,0.827,0.174,0.791,0.155,0.745C0.151,0.734,0.146,0.723,0.142,0.711C0.12,0.64,0.109,0.554,0.104,0.486
		C0.101,0.433,0.1,0.392,0.1,0.379c0-0.002,0-0.004,0-0.004C0.1,0.223,0.279,0.1,0.5,0.1S0.9,0.223,0.9,0.375z"/>
	<ellipse fill="#FFC457" cx="0.5" cy="0.375" rx="0.4" ry="0.275"/>
	<path fill="#CC7518" d="M0.5,0.546c-0.09,0-0.172-0.031-0.216-0.081C0.26,0.437,0.249,0.405,0.253,0.373
		c0.013-0.097,0.095-0.154,0.245-0.168C0.586,0.196,0.62,0.225,0.633,0.25c0.019,0.037,0.003,0.088-0.041,0.137
		c-0.045,0.05-0.084,0.059-0.11,0.058C0.454,0.445,0.429,0.431,0.412,0.41c-0.007-0.009-0.01-0.02-0.008-0.032
		C0.409,0.344,0.45,0.311,0.459,0.305C0.467,0.299,0.479,0.3,0.485,0.309c0.006,0.008,0.005,0.02-0.004,0.026
		C0.466,0.346,0.443,0.37,0.441,0.384c0.004,0.008,0.018,0.024,0.042,0.025c0.025,0,0.053-0.015,0.081-0.046
		C0.597,0.326,0.61,0.289,0.599,0.267c-0.011-0.021-0.046-0.03-0.097-0.025C0.37,0.254,0.301,0.299,0.291,0.377
		C0.288,0.4,0.295,0.421,0.312,0.44C0.349,0.482,0.422,0.508,0.5,0.508c0.121,0,0.21-0.094,0.21-0.133
		c0-0.01,0.008-0.019,0.019-0.019s0.019,0.008,0.019,0.019C0.748,0.441,0.634,0.546,0.5,0.546z"/>
</g>
<g>
</g>
<g>
</g>
<g>
</g>
<g>
</g>
<g>
</g>
<g>
</g>
<g>
</g>
<g>
</g>
<g>
</g>
<g>
</g>
<g>
</g>
<g>
</g>
<g>
</g>
<g>
</g>
<g>
</g>
</svg>
