<?xml version="1.0" encoding="utf-8"?>
<!-- Generator: Adobe Illustrator 24.1.2, SVG Export Plug-In . SVG Version: 6.00 Build 0)  -->
<svg version="1.1" id="Capa_1" xmlns="http://www.w3.org/2000/svg" xmlns:xlink="http://www.w3.org/1999/xlink" x="0px" y="0px"
	 width="1px" height="1.9px" viewBox="0 0 1 1.9" enable-background="new 0 0 1 1.9" xml:space="preserve">
<g>
	<path id="rect10315" fill="#0A0F32" fill-opacity="0.2" d="M0.1,1.45h0.8C0.956,1.45,1,1.501,1,1.563v0.225
		C1,1.849,0.955,1.9,0.9,1.9H0.1C0.045,1.9,0,1.849,0,1.788V1.563C0,1.501,0.045,1.45,0.1,1.45z"/>
</g>
<g>
	<path fill="#742D43" d="M1,0.3v1.2c0,0.055-0.045,0.1-0.1,0.1H0.1C0.045,1.6,0,1.555,0,1.5V0.3c0-0.111,0.089-0.2,0.2-0.2h0.192
		l0.056-0.074c0.026-0.035,0.083-0.035,0.11,0L0.614,0.1H0.8C0.911,0.1,1,0.189,1,0.3z"/>
	<rect id="rect10319_2_" x="0.1" y="0.95" fill="#984F65" width="0.8" height="0.55"/>
	<path id="rect10321_2_" fill="#8F4355" d="M0.25,0.45h0.5c0.083,0,0.15,0.067,0.15,0.15v0.5c0,0.083-0.067,0.15-0.15,0.15h-0.5
		C0.167,1.25,0.1,1.183,0.1,1.1V0.6C0.1,0.517,0.167,0.45,0.25,0.45z"/>
	<path id="rect10323_2_" fill="#CD6D81" d="M0.25,0.35h0.5c0.083,0,0.15,0.067,0.15,0.15V1c0,0.083-0.067,0.15-0.15,0.15h-0.5
		C0.167,1.15,0.1,1.083,0.1,1V0.5C0.1,0.417,0.167,0.35,0.25,0.35z"/>
	<path id="rect10325_2_" fill="#E597A8" d="M0.25,0.2h0.5c0.083,0,0.15,0.067,0.15,0.15v0.4c0,0.083-0.067,0.15-0.15,0.15h-0.5
		C0.167,0.9,0.1,0.833,0.1,0.75v-0.4C0.1,0.267,0.167,0.2,0.25,0.2z"/>
	<path id="rect10333_2_" fill="#E4899C" d="M0.25,0.3h0.5c0.028,0,0.05,0.022,0.05,0.05v0.4c0,0.028-0.022,0.05-0.05,0.05h-0.5
		C0.222,0.8,0.2,0.778,0.2,0.75v-0.4C0.2,0.322,0.222,0.3,0.25,0.3z"/>
	<g>
		<polygon fill="#CE6D81" points="0.734,0.525 0.825,0.712 0.617,0.728 0.5,0.9 0.383,0.728 0.175,0.712 0.266,0.525 0.175,0.337 
			0.383,0.322 0.5,0.15 0.617,0.322 0.825,0.337 		"/>
		<polygon fill="#EEA7B7" points="0.734,0.45 0.825,0.625 0.617,0.639 0.5,0.8 0.383,0.639 0.175,0.625 0.266,0.45 0.175,0.275 
			0.383,0.26 0.5,0.1 0.617,0.26 0.825,0.275 		"/>
		
			<radialGradient id="SVGID_1_" cx="66.5" cy="18.7273" r="0.2481" fx="66.3529" fy="18.7279" gradientTransform="matrix(9.329878e-14 0.907 -0.9553 9.828226e-14 18.3911 -59.8686)" gradientUnits="userSpaceOnUse">
			<stop  offset="0" style="stop-color:#FFBECB"/>
			<stop  offset="0.5782" style="stop-color:#FFBBCC"/>
			<stop  offset="1" style="stop-color:#DB8092"/>
		</radialGradient>
		<circle fill="url(#SVGID_1_)" cx="0.5" cy="0.45" r="0.225"/>
		<circle fill="#CE657A" cx="0.4" cy="0.375" r="0.05"/>
		<circle fill="#CE657A" cx="0.6" cy="0.375" r="0.05"/>
		<path fill="#CE657A" d="M0.6,0.475c0,0.055-0.045,0.1-0.1,0.1s-0.1-0.045-0.1-0.1H0.6z"/>
	</g>
</g>
</svg>
