<?xml version="1.0" encoding="utf-8"?>
<!-- Generator: Adobe Illustrator 24.1.2, SVG Export Plug-In . SVG Version: 6.00 Build 0)  -->
<svg version="1.1" id="Capa_1" xmlns="http://www.w3.org/2000/svg" xmlns:xlink="http://www.w3.org/1999/xlink" x="0px" y="0px"
	 viewBox="0 0 1 1.8" enable-background="new 0 0 1 1.8" xml:space="preserve">
<g>
	<path id="rect10315" fill="#0A0F32" fill-opacity="0.2" d="M0.1,1.35h0.8C0.956,1.35,1,1.401,1,1.463v0.225
		C1,1.749,0.955,1.8,0.9,1.8H0.1C0.045,1.8,0,1.749,0,1.688V1.463C0,1.401,0.045,1.35,0.1,1.35z"/>
	<path id="path10317" fill="#732E42" d="M0.2,0C0.089,0,0,0.089,0,0.2v1.3h1V0.2C1,0.089,0.911,0,0.8,0H0.2z"/>
	<rect id="rect10319" x="0.1" y="0.85" fill="#984F65" width="0.8" height="0.55"/>
	<path id="rect10321" fill="#8F4355" d="M0.25,0.35h0.5c0.083,0,0.15,0.067,0.15,0.15V1c0,0.083-0.067,0.15-0.15,0.15h-0.5
		C0.167,1.15,0.1,1.083,0.1,1V0.5C0.1,0.417,0.167,0.35,0.25,0.35z"/>
	<path id="rect10323" fill="#CD6D81" d="M0.25,0.25h0.5c0.083,0,0.15,0.067,0.15,0.15v0.5c0,0.083-0.067,0.15-0.15,0.15h-0.5
		C0.167,1.05,0.1,0.983,0.1,0.9V0.4C0.1,0.317,0.167,0.25,0.25,0.25z"/>
	<path id="rect10325" fill="#E597A8" d="M0.25,0.1h0.5c0.083,0,0.15,0.067,0.15,0.15v0.4c0,0.083-0.067,0.15-0.15,0.15h-0.5
		C0.167,0.8,0.1,0.733,0.1,0.65v-0.4C0.1,0.167,0.167,0.1,0.25,0.1z"/>
	<path id="rect10333" fill="#E4899C" d="M0.25,0.2h0.5c0.028,0,0.05,0.022,0.05,0.05v0.4c0,0.028-0.022,0.05-0.05,0.05h-0.5
		C0.222,0.7,0.2,0.678,0.2,0.65v-0.4C0.2,0.222,0.222,0.2,0.25,0.2z"/>
</g>
</svg>
