<?xml version="1.0" ?>
<svg xmlns="http://www.w3.org/2000/svg" width="1.05" height="1.75" viewBox="0 0 1.05 1.75" version="1.1" id="svg5" xml:space="preserve">
   <defs id="defs2">
      <filter style="color-interpolation-filters:sRGB" id="filter7174" x="-0.162" y="-0.14953846" width="1.324" height="1.2990769">
         <feGaussianBlur stdDeviation="0.81" id="feGaussianBlur7176"/>
      </filter>
   </defs>
   <g id="layer1" transform="scale(0.05) translate(-0.5,-80)">
      <g id="g7847">
         <rect style="opacity:1;fill:#0a0f32;fill-opacity:0.2;stroke:none;stroke-width:4;stroke-linejoin:round;stroke-dasharray:none" id="rect7299" width="20" height="11" x="1" y="104" ry="2.8588936"/>
         <path style="color:#000000;fill:#70147c;fill-opacity:1" d="m 4,100 v 1.5 c -1.9093054,0 -3.5,1.59069 -3.5,3.5 0,1.90931 1.5906946,3.5 3.5,3.5 1.115445,0 2.2436206,-0.37062 3.3300781,-0.93555 C 7.9474995,108.98645 9.3684221,110 11,110 c 1.631578,0 3.0525,-1.01355 3.669922,-2.43555 C 15.756379,108.12938 16.884555,108.5 18,108.5 c 1.909305,0 3.5,-1.59069 3.5,-3.5 0,-1.90931 -1.590695,-3.5 -3.5,-3.5 V 100 H 15 11 7 Z" id="path4309"/>
         <path style="color:#000000;fill:#b02cc4;stroke-width:4" d="m 6,102 c 0,1 -1.000002,1.5 -2,1.5 -0.8284271,0 -1.5,0.67157 -1.5,1.5 0,0.82843 0.6715729,1.5 1.5,1.5 1.999996,0 5,-1.5 5,-4.5 v -1 H 6 Z m 3,0 v 4 c 0,1.10457 0.8954305,2 2,2 1.104569,0 2,-0.89543 2,-2 v -4 z m 4,0 c 0,3 3.000004,4.5 5,4.5 0.828427,0 1.5,-0.67157 1.5,-1.5 0,-0.82843 -0.671573,-1.5 -1.5,-1.5 -0.999998,0 -2,-0.5 -2,-1.5 v -1 h -3 z" id="path4307"/>
         <path id="rect4574" style="fill:#c04cdc;fill-opacity:1;stroke:none;stroke-width:4;stroke-dasharray:none" d="m 7,101 v 2 c 0,1.45202 -0.7042106,2.55155 -1.65625,3.30078 C 7.1194978,105.80599 9,104.375 9,102 v -1 z m 4,1 v 6 c 1.104568,0 2,-0.89543 2,-2 v -4 z m 3,-1 v 2 c 0,1 1.000004,1.5 2,1.5 0.828425,0 1.5,0.67157 1.5,1.5 0,0.15968 -0.02605,0.31269 -0.07227,0.45703 0.196689,0.0251 0.389258,0.043 0.572266,0.043 0.828426,0 1.5,-0.67157 1.5,-1.5 0,-0.82843 -0.671574,-1.5 -1.5,-1.5 -0.999996,0 -2,-0.5 -2,-1.5 v -1 z"/>
         <path style="color:#000000;fill:#102c88;fill-opacity:1" d="m 9,80 c -4.4289545,0 -8,3.655246 -8,8 v 9.5 c 0,1.464536 0.45182,2.89069 1.5273438,3.70117 C 3.6028675,102.01166 4.6995992,102 5.5,102 6.1586011,102 6.770783,101.80991 7.3398437,101.55078 8.374589,102.38515 9.5803484,103 11,103 c 1.419652,0 2.625411,-0.61485 3.660156,-1.44922 C 15.229217,101.80991 15.841399,102 16.5,102 c 0.800401,0 1.897132,0.0117 2.972656,-0.79883 C 20.54818,100.39069 21,98.964536 21,97.5 V 88 c 0,-4.344754 -3.571045,-8 -8,-8 z" id="path5132"/>
         <path style="color:#000000;fill:#4c78e8;stroke-width:4" d="m 9,82 c -3.3239967,0 -6,2.754668 -6,6 v 9.5 c 0,2.275832 1.1150028,2.5 2.5,2.5 0.8319283,0 1.5636179,-0.403927 2.0175781,-1.025391 C 8.2034827,100.18607 9.5030106,101 11,101 c 1.49699,0 2.796518,-0.81393 3.482422,-2.025391 C 14.936382,99.596073 15.668072,100 16.5,100 17.884998,100 19,99.775832 19,97.5 V 88 c 0,-3.245332 -2.676003,-6 -6,-6 z" id="path5130"/>
         <rect style="fill:#98c0fc;fill-opacity:1" id="rect2591" width="16" height="14" x="3" y="82" ry="6"/>
         <path id="path6270" style="color:#000000;opacity:0.246377;mix-blend-mode:normal;fill:#2a04f8;fill-opacity:1;stroke-width:4;stroke-linejoin:round;filter:url(#filter7174)" d="m 9,86 c -2.2190301,0 -4,1.854099 -4,4 v 7.5 c 0,0.236109 0.0072,0.372445 0.015625,0.466797 C 5.1182572,97.982254 5.2656918,98 5.5,98 5.6845532,98 5.8086966,97.92312 5.9023438,97.794922 a 2.0002,2.0002 0 0 1 3.3554687,0.193359 C 9.5993254,98.59147 10.227961,99 11,99 c 0.77204,0 1.400675,-0.408531 1.742188,-1.011719 a 2.0002,2.0002 0 0 1 3.355468,-0.193359 C 16.191303,97.92312 16.315447,98 16.5,98 16.734308,98 16.881743,97.98225 16.984375,97.9668 16.992795,97.872445 17,97.736109 17,97.5 V 90 c 0,-2.145901 -1.780969,-4 -4,-4 z"/>
         <ellipse style="fill:#b0c4fc;fill-opacity:1" id="ellipse2593" cx="-51.947224" cy="71.417786" rx="2.5" ry="3" transform="rotate(-45)"/>
      </g>
   </g>
</svg>
