<?xml version="1.0" encoding="utf-8"?>
<!-- Generator: Adobe Illustrator 24.1.2, SVG Export Plug-In . SVG Version: 6.00 Build 0)  -->
<svg version="1.1"
	 id="svg3893" xmlns:cc="http://creativecommons.org/ns#" xmlns:dc="http://purl.org/dc/elements/1.1/" xmlns:inkscape="http://www.inkscape.org/namespaces/inkscape" xmlns:rdf="http://www.w3.org/1999/02/22-rdf-syntax-ns#" xmlns:sodipodi="http://sodipodi.sourceforge.net/DTD/sodipodi-0.dtd" xmlns:svg="http://www.w3.org/2000/svg"
	 xmlns="http://www.w3.org/2000/svg" xmlns:xlink="http://www.w3.org/1999/xlink" x="0px" y="0px" width="1.1px" height="2.2px"
	 viewBox="0 0 1.1 2.2" enable-background="new 0 0 1.1 2.2" xml:space="preserve">
<g>
	<g>
		<ellipse id="ellipse4999" fill-opacity="0.18" cx="0.55" cy="1.7" rx="0.5" ry="0.5"/>
	</g>
</g>
<g>
	<path fill="#064833" d="M0.703,1.082v0.126c0.032,0.033,0.051,0.079,0.051,0.128v0.071c0,0.105-0.087,0.191-0.193,0.191H0.54
		c-0.106,0-0.193-0.086-0.193-0.191V1.336c0-0.049,0.019-0.095,0.051-0.128V1.082C0.366,1.049,0.347,1.004,0.347,0.954V0.883
		c0-0.105,0.087-0.191,0.193-0.191h0.021c0.106,0,0.193,0.086,0.193,0.191v0.071C0.754,1.004,0.734,1.049,0.703,1.082z"/>
	<ellipse fill="#412314" cx="0.55" cy="1.674" rx="0.254" ry="0.226"/>
	<ellipse fill="#56301B" cx="0.55" cy="1.674" rx="0.178" ry="0.151"/>
	<linearGradient id="SVGID_1_" gradientUnits="userSpaceOnUse" x1="0.5504" y1="1.749" x2="0.5504" y2="0.6921">
		<stop  offset="0" style="stop-color:#366946"/>
		<stop  offset="1" style="stop-color:#457E5C"/>
	</linearGradient>
	<path fill="url(#SVGID_1_)" d="M0.652,0.793v0.856c0,0.037-0.02,0.069-0.051,0.087C0.587,1.744,0.569,1.749,0.55,1.749
		c-0.056,0-0.102-0.045-0.102-0.101V0.793c0-0.055,0.046-0.101,0.102-0.101c0.018,0,0.036,0.005,0.051,0.014
		c0.008,0.005,0.015,0.01,0.021,0.016C0.641,0.74,0.652,0.765,0.652,0.793z"/>
	<linearGradient id="SVGID_2_" gradientUnits="userSpaceOnUse" x1="0.6013" y1="1.7354" x2="0.6013" y2="0.7056">
		<stop  offset="0" style="stop-color:#367F56"/>
		<stop  offset="1" style="stop-color:#57936F"/>
	</linearGradient>
	<path fill="url(#SVGID_2_)" d="M0.652,0.793v0.856c0,0.037-0.02,0.069-0.051,0.087C0.571,1.718,0.55,1.686,0.55,1.648V0.793
		c0-0.037,0.02-0.069,0.051-0.087c0.008,0.005,0.015,0.01,0.021,0.016C0.641,0.74,0.652,0.765,0.652,0.793z"/>
	<g>
		<path fill="#347B51" d="M0.703,1.346c0,0.009-0.001,0.017-0.003,0.025C0.695,1.406,0.678,1.436,0.652,1.459
			C0.625,1.483,0.59,1.497,0.55,1.497S0.476,1.483,0.449,1.459C0.423,1.436,0.406,1.406,0.4,1.372
			C0.398,1.363,0.398,1.355,0.398,1.346c0-0.045,0.019-0.085,0.051-0.112v0.112c0,0.055,0.046,0.101,0.102,0.101
			s0.102-0.045,0.102-0.101V1.234C0.684,1.261,0.703,1.302,0.703,1.346z"/>
		<path fill="#1B5332" d="M0.703,1.346v0.05c0,0.045-0.019,0.085-0.051,0.112C0.625,1.533,0.59,1.548,0.55,1.548
			S0.476,1.533,0.449,1.509C0.417,1.482,0.398,1.441,0.398,1.397v-0.05c0,0.009,0.001,0.017,0.003,0.025
			c0.005,0.034,0.023,0.065,0.048,0.087C0.476,1.483,0.511,1.497,0.55,1.497s0.075-0.015,0.102-0.039
			C0.678,1.436,0.695,1.406,0.7,1.372C0.702,1.363,0.703,1.355,0.703,1.346z"/>
	</g>
	<g>
		<g>
			<path fill="#347B51" d="M0.703,0.893c0,0.009-0.001,0.017-0.003,0.025C0.695,0.953,0.678,0.983,0.652,1.006
				C0.625,1.03,0.59,1.044,0.55,1.044S0.476,1.03,0.449,1.006C0.423,0.983,0.406,0.953,0.4,0.919
				C0.398,0.91,0.398,0.902,0.398,0.893c0-0.045,0.019-0.085,0.051-0.112v0.112c0,0.055,0.046,0.101,0.102,0.101
				s0.102-0.045,0.102-0.101V0.781C0.684,0.808,0.703,0.849,0.703,0.893z"/>
		</g>
		<g>
			<path fill="#1B5332" d="M0.703,0.893v0.05c0,0.045-0.019,0.085-0.051,0.112C0.625,1.08,0.59,1.095,0.55,1.095
				S0.476,1.08,0.449,1.056C0.417,1.029,0.398,0.989,0.398,0.944v-0.05c0,0.009,0.001,0.017,0.003,0.025
				c0.005,0.034,0.023,0.065,0.048,0.087C0.476,1.03,0.511,1.044,0.55,1.044S0.625,1.03,0.652,1.006
				C0.678,0.983,0.695,0.953,0.7,0.919C0.702,0.91,0.703,0.902,0.703,0.893z"/>
		</g>
	</g>
	<g>
		<path fill="#862800" d="M0.818,0.608c0,0,0,0.001-0.001,0.001C0.813,0.632,0.805,0.654,0.792,0.676
			C0.749,0.754,0.708,0.81,0.672,0.85C0.64,0.885,0.596,0.904,0.552,0.904c-0.039,0-0.078-0.015-0.109-0.044
			C0.4,0.817,0.35,0.757,0.306,0.675C0.293,0.651,0.284,0.625,0.279,0.598C0.279,0.597,0.279,0.597,0.279,0.596
			c-0.01-0.055-0.001-0.111,0.022-0.16C0.347,0.363,0.441,0.315,0.55,0.315c0.107,0,0.198,0.046,0.245,0.116
			C0.823,0.484,0.833,0.547,0.818,0.608z"/>
		<path display="none" fill="#862800" d="M0.795,0.43C0.748,0.361,0.657,0.315,0.55,0.315c-0.11,0-0.203,0.049-0.249,0.122
			c-0.023,0.048-0.032,0.104-0.022,0.16c0,0.001,0,0.001,0.001,0.002C0.31,0.697,0.418,0.768,0.55,0.768
			c0.127,0,0.232-0.066,0.267-0.159c0.001-0.001,0.001-0.001,0.001-0.001C0.833,0.547,0.823,0.484,0.795,0.43z M0.55,0.692
			c-0.112,0-0.203-0.067-0.203-0.151c0-0.084,0.091-0.151,0.203-0.151s0.203,0.067,0.203,0.151C0.754,0.625,0.663,0.692,0.55,0.692z
			"/>
		<path fill="#A16E0A" d="M0.746,0.58L0.744,0.592C0.74,0.61,0.733,0.625,0.725,0.64C0.69,0.705,0.653,0.758,0.615,0.8
			C0.599,0.818,0.576,0.828,0.552,0.828c-0.021,0-0.041-0.008-0.055-0.023C0.449,0.759,0.408,0.703,0.374,0.64
			c-0.01-0.018-0.016-0.036-0.019-0.055L0.353,0.576C0.348,0.542,0.354,0.505,0.368,0.473C0.402,0.422,0.472,0.39,0.55,0.39
			c0.076,0,0.144,0.03,0.179,0.079C0.747,0.503,0.753,0.543,0.746,0.58z"/>
		<ellipse fill="#BE3F00" cx="0.55" cy="0.541" rx="0.203" ry="0.151"/>
	</g>
	<ellipse fill="#C7A400" cx="0.55" cy="0.541" rx="0.127" ry="0.101"/>
	<linearGradient id="SVGID_3_" gradientUnits="userSpaceOnUse" x1="0.5719" y1="0.6461" x2="0.5719" y2="4.768390e-08">
		<stop  offset="0" style="stop-color:#FFC708"/>
		<stop  offset="1" style="stop-color:#EBA313"/>
	</linearGradient>
	<path fill="url(#SVGID_3_)" d="M0.449,0.635c0.067,0.013,0.133,0.018,0.195-0.01c0.052-0.024,0.105-0.062,0.105-0.118
		c0-0.109-0.183-0.136-0.183-0.202s0.081-0.091,0.081-0.19S0.545,0,0.545,0s0.063,0.066-0.022,0.151
		C0.455,0.218,0.412,0.233,0.397,0.322C0.39,0.368,0.4,0.414,0.419,0.457C0.443,0.51,0.354,0.616,0.449,0.635z"/>
	<linearGradient id="SVGID_4_" gradientUnits="userSpaceOnUse" x1="0.3414" y1="0.1423" x2="0.5052" y2="0.1423">
		<stop  offset="0" style="stop-color:#FFC708"/>
		<stop  offset="1" style="stop-color:#EBA313"/>
	</linearGradient>
	<path fill="url(#SVGID_4_)" d="M0.345,0.195c0,0-0.041-0.145,0.16-0.14c0,0-0.098,0.084-0.126,0.154
		C0.357,0.265,0.345,0.195,0.345,0.195z"/>
	
		<linearGradient id="SVGID_5_" gradientUnits="userSpaceOnUse" x1="-18.7025" y1="70.6493" x2="-18.7025" y2="70.4138" gradientTransform="matrix(0.9927 -0.1204 0.1204 0.9927 10.6356 -71.7986)">
		<stop  offset="0" style="stop-color:#FFF1A4"/>
		<stop  offset="1" style="stop-color:#FFE167"/>
	</linearGradient>
	<path fill="url(#SVGID_5_)" d="M0.468,0.364c0,0,0.033,0.082,0.042,0.158C0.52,0.599,0.604,0.599,0.63,0.565
		C0.669,0.514,0.615,0.384,0.468,0.364z"/>
</g>
</svg>
