<?xml version="1.0" encoding="utf-8"?>
<!-- Generator: Adobe Illustrator 24.1.2, SVG Export Plug-In . SVG Version: 6.00 Build 0)  -->
<svg version="1.1"
	 id="svg3893" xmlns:cc="http://creativecommons.org/ns#" xmlns:dc="http://purl.org/dc/elements/1.1/" xmlns:inkscape="http://www.inkscape.org/namespaces/inkscape" xmlns:rdf="http://www.w3.org/1999/02/22-rdf-syntax-ns#" xmlns:sodipodi="http://sodipodi.sourceforge.net/DTD/sodipodi-0.dtd" xmlns:svg="http://www.w3.org/2000/svg"
	 xmlns="http://www.w3.org/2000/svg" xmlns:xlink="http://www.w3.org/1999/xlink" x="0px" y="0px" width="1.1px" height="2.4px"
	 viewBox="0 0 1.1 2.4" enable-background="new 0 0 1.1 2.4" xml:space="preserve">
<g>
	<g>
		<ellipse id="ellipse4999" fill-opacity="0.18" cx="0.55" cy="1.9" rx="0.5" ry="0.5"/>
	</g>
	<g>
		<g id="layer1" transform="translate(-58.076041,-83.563447)" inkscape:groupmode="layer" inkscape:label="Layer 1">
			<g id="g5189" transform="matrix(0.04999992,0,0,0.04999992,48.987619,88.425163)">
				<g id="g5167">
					<path id="path5163" sodipodi:nodetypes="sssssss" fill="#0B430B" d="M192.77-97.234c-1.637,0-3.003,1.364-3.003,3v15.999
						c0,1.636,1.366,3.001,3.003,3.001s2.996-1.365,2.996-3.001v-15.999C195.765-95.87,194.407-97.234,192.77-97.234z"/>
					<path id="path5165" sodipodi:nodetypes="sssssss" fill="#307320" d="M192.766-95.734c0.832,0,1.501,0.669,1.501,1.5v16.002
						c0,0.831-0.669,1.5-1.501,1.5s-1.501-0.669-1.501-1.5v-16.002C191.265-95.065,191.935-95.734,192.766-95.734z"/>
				</g>
			</g>
			<g>
				<path fill="#0B430B" d="M58.633,83.8c-0.034-0.076-0.113-0.126-0.235-0.149c-0.022-0.004-0.044,0.005-0.055,0.024
					c-0.003,0.004-0.07,0.116-0.023,0.224c0.034,0.076,0.113,0.126,0.235,0.149c0.003,0.001,0.007,0.001,0.01,0.001
					c0.019,0,0.035-0.009,0.045-0.025C58.613,84.02,58.68,83.908,58.633,83.8z M58.381,83.872c-0.028-0.061,0.002-0.129,0.013-0.153
					c0.093,0.02,0.153,0.056,0.176,0.109c0.027,0.061-0.002,0.129-0.014,0.153C58.463,83.961,58.404,83.925,58.381,83.872z"/>
				<path fill="#26651A" d="M58.557,83.981c-0.006-0.001-0.012-0.003-0.018-0.004c-0.083-0.02-0.136-0.055-0.157-0.104
					c-0.02-0.044-0.01-0.092,0.001-0.124c0.005-0.012,0.01-0.022,0.013-0.029c0.093,0.02,0.153,0.056,0.176,0.109
					C58.598,83.889,58.569,83.957,58.557,83.981z"/>
				<path fill="#317921" d="M58.539,83.976c-0.083-0.02-0.136-0.055-0.157-0.104c-0.02-0.044-0.01-0.092,0.001-0.124
					c0.083,0.02,0.137,0.055,0.158,0.104C58.559,83.897,58.55,83.944,58.539,83.976z"/>
			</g>
			<g>
				<path fill="#0B430B" d="M58.66,84.039c-0.07,0.047-0.108,0.135-0.11,0.263c-0.001,0.023,0.013,0.043,0.034,0.051
					c0.005,0.002,0.129,0.051,0.229-0.016c0.07-0.047,0.108-0.135,0.11-0.263c0.001-0.004,0-0.007-0.001-0.01
					c-0.003-0.019-0.015-0.034-0.033-0.041C58.885,84.021,58.761,83.972,58.66,84.039z M58.776,84.279
					c-0.057,0.038-0.13,0.021-0.156,0.013c0.004-0.097,0.03-0.163,0.079-0.196c0.057-0.038,0.13-0.021,0.156-0.012
					C58.851,84.181,58.825,84.247,58.776,84.279z"/>
				<path fill="#26651A" d="M58.62,84.292c0.001-0.013,0.001-0.025,0.002-0.037c0.009-0.077,0.034-0.131,0.077-0.159
					c0.052-0.034,0.118-0.024,0.148-0.014c0.003,0.001,0.006,0.002,0.008,0.002c-0.003,0.097-0.03,0.163-0.079,0.195
					C58.719,84.317,58.646,84.3,58.62,84.292z"/>
				<path fill="#317921" d="M58.622,84.256c0.009-0.077,0.034-0.131,0.077-0.159c0.052-0.034,0.118-0.024,0.148-0.014
					c-0.009,0.077-0.034,0.131-0.077,0.159C58.718,84.275,58.652,84.264,58.622,84.256z"/>
			</g>
		</g>
	</g>
</g>
<g>
	<path fill="#064833" d="M0.703,1.282v0.126c0.032,0.033,0.051,0.079,0.051,0.128v0.071c0,0.105-0.087,0.191-0.193,0.191H0.54
		c-0.106,0-0.193-0.086-0.193-0.191V1.536c0-0.049,0.019-0.095,0.051-0.128V1.282C0.366,1.249,0.347,1.204,0.347,1.154V1.083
		c0-0.105,0.087-0.191,0.193-0.191h0.021c0.106,0,0.193,0.086,0.193,0.191v0.071C0.754,1.204,0.734,1.249,0.703,1.282z"/>
	<ellipse fill="#412314" cx="0.55" cy="1.874" rx="0.254" ry="0.226"/>
	<ellipse fill="#56301B" cx="0.55" cy="1.874" rx="0.178" ry="0.151"/>
	
		<linearGradient id="SVGID_1_" gradientUnits="userSpaceOnUse" x1="0.55" y1="1.751" x2="0.55" y2="2.808" gradientTransform="matrix(1 0 0 -1 7.105427e-15 3.7)">
		<stop  offset="0" style="stop-color:#366946"/>
		<stop  offset="1" style="stop-color:#457E5C"/>
	</linearGradient>
	<path fill="url(#SVGID_1_)" d="M0.652,0.993v0.856c0,0.037-0.02,0.069-0.051,0.087C0.587,1.944,0.569,1.949,0.55,1.949
		c-0.056,0-0.102-0.045-0.102-0.101V0.993c0-0.055,0.046-0.101,0.102-0.101c0.018,0,0.036,0.005,0.051,0.014
		c0.008,0.005,0.015,0.01,0.021,0.016C0.641,0.94,0.652,0.965,0.652,0.993z"/>
	
		<linearGradient id="SVGID_2_" gradientUnits="userSpaceOnUse" x1="0.601" y1="1.764" x2="0.601" y2="2.794" gradientTransform="matrix(1 0 0 -1 7.105427e-15 3.7)">
		<stop  offset="0" style="stop-color:#367F56"/>
		<stop  offset="1" style="stop-color:#57936F"/>
	</linearGradient>
	<path fill="url(#SVGID_2_)" d="M0.652,0.993v0.856c0,0.037-0.02,0.069-0.051,0.087C0.571,1.918,0.55,1.886,0.55,1.848V0.993
		c0-0.037,0.02-0.069,0.051-0.087c0.008,0.005,0.015,0.01,0.021,0.016C0.641,0.94,0.652,0.965,0.652,0.993z"/>
	<g>
		<path fill="#347B51" d="M0.703,1.546c0,0.009-0.001,0.017-0.003,0.025C0.695,1.606,0.678,1.636,0.652,1.659
			C0.625,1.683,0.59,1.697,0.55,1.697S0.476,1.683,0.449,1.659C0.423,1.636,0.406,1.606,0.4,1.572
			C0.398,1.563,0.398,1.555,0.398,1.546c0-0.045,0.019-0.085,0.051-0.112v0.112c0,0.055,0.046,0.101,0.102,0.101
			s0.102-0.045,0.102-0.101V1.434C0.684,1.461,0.703,1.502,0.703,1.546z"/>
		<path fill="#1B5332" d="M0.703,1.546v0.05c0,0.045-0.019,0.085-0.051,0.112C0.625,1.733,0.59,1.748,0.55,1.748
			S0.476,1.733,0.449,1.709C0.417,1.682,0.398,1.641,0.398,1.597v-0.05c0,0.009,0.001,0.017,0.003,0.025
			c0.005,0.034,0.023,0.065,0.048,0.087C0.476,1.683,0.511,1.697,0.55,1.697s0.075-0.015,0.102-0.039
			C0.678,1.636,0.695,1.606,0.7,1.572C0.702,1.563,0.703,1.555,0.703,1.546z"/>
	</g>
	<g>
		<g>
			<path fill="#347B51" d="M0.703,1.093c0,0.009-0.001,0.017-0.003,0.025C0.695,1.153,0.678,1.183,0.652,1.206
				C0.625,1.23,0.59,1.244,0.55,1.244S0.476,1.23,0.449,1.206C0.423,1.183,0.406,1.153,0.4,1.119
				C0.398,1.11,0.398,1.102,0.398,1.093c0-0.045,0.019-0.085,0.051-0.112v0.112c0,0.055,0.046,0.101,0.102,0.101
				s0.102-0.045,0.102-0.101V0.981C0.684,1.008,0.703,1.049,0.703,1.093z"/>
		</g>
		<g>
			<path fill="#1B5332" d="M0.703,1.093v0.05c0,0.045-0.019,0.085-0.051,0.112C0.625,1.28,0.59,1.295,0.55,1.295
				S0.476,1.28,0.449,1.256C0.417,1.229,0.398,1.189,0.398,1.144v-0.05c0,0.009,0.001,0.017,0.003,0.025
				c0.005,0.034,0.023,0.065,0.048,0.087C0.476,1.23,0.511,1.244,0.55,1.244S0.625,1.23,0.652,1.206
				C0.678,1.183,0.695,1.153,0.7,1.119C0.702,1.11,0.703,1.102,0.703,1.093z"/>
		</g>
	</g>
	<g>
		<path fill="#862800" d="M0.818,0.808C0.818,0.808,0.818,0.809,0.818,0.808C0.813,0.832,0.805,0.854,0.792,0.876
			C0.749,0.954,0.708,1.01,0.672,1.05C0.64,1.085,0.596,1.104,0.552,1.104c-0.039,0-0.078-0.015-0.109-0.044
			C0.4,1.017,0.35,0.957,0.306,0.875c-0.013-0.024-0.022-0.05-0.027-0.077c0-0.001,0-0.001,0-0.002
			c-0.01-0.055-0.001-0.111,0.022-0.16c0.046-0.073,0.14-0.121,0.249-0.121c0.107,0,0.198,0.046,0.245,0.116
			C0.823,0.684,0.833,0.747,0.818,0.808z"/>
		<path display="none" fill="#862800" d="M0.795,0.63C0.748,0.561,0.657,0.515,0.55,0.515c-0.11,0-0.203,0.049-0.249,0.122
			c-0.023,0.048-0.032,0.104-0.022,0.16c0,0.001,0,0.001,0.001,0.002c0.03,0.098,0.138,0.169,0.27,0.169
			c0.127,0,0.232-0.066,0.267-0.159c0.001-0.001,0.001-0.001,0.001-0.001C0.833,0.747,0.823,0.684,0.795,0.63z M0.55,0.892
			c-0.112,0-0.203-0.067-0.203-0.151S0.438,0.59,0.55,0.59s0.203,0.067,0.203,0.151C0.754,0.825,0.663,0.892,0.55,0.892z"/>
		<path fill="#A16E0A" d="M0.746,0.78L0.744,0.792C0.74,0.81,0.733,0.825,0.725,0.84C0.69,0.905,0.653,0.958,0.615,1
			C0.599,1.018,0.576,1.028,0.552,1.028c-0.021,0-0.041-0.008-0.055-0.023C0.449,0.959,0.408,0.903,0.374,0.84
			c-0.01-0.018-0.016-0.036-0.019-0.055L0.353,0.776C0.348,0.742,0.354,0.705,0.368,0.673C0.402,0.622,0.472,0.59,0.55,0.59
			c0.076,0,0.144,0.03,0.179,0.079C0.747,0.703,0.753,0.743,0.746,0.78z"/>
		<ellipse fill="#BE3F00" cx="0.55" cy="0.741" rx="0.203" ry="0.151"/>
	</g>
	<ellipse fill="#C7A400" cx="0.55" cy="0.741" rx="0.127" ry="0.101"/>
	
		<linearGradient id="SVGID_3_" gradientUnits="userSpaceOnUse" x1="0.5719" y1="2.8539" x2="0.5719" y2="3.5" gradientTransform="matrix(1 0 0 -1 7.105427e-15 3.7)">
		<stop  offset="0" style="stop-color:#FFC708"/>
		<stop  offset="1" style="stop-color:#EBA313"/>
	</linearGradient>
	<path fill="url(#SVGID_3_)" d="M0.449,0.835c0.067,0.013,0.133,0.018,0.195-0.01c0.052-0.024,0.105-0.062,0.105-0.118
		c0-0.109-0.183-0.136-0.183-0.202s0.081-0.091,0.081-0.19S0.545,0.2,0.545,0.2s0.063,0.066-0.022,0.151
		C0.455,0.418,0.412,0.433,0.397,0.522C0.39,0.568,0.4,0.614,0.419,0.657C0.443,0.71,0.354,0.816,0.449,0.835z"/>
	
		<linearGradient id="SVGID_4_" gradientUnits="userSpaceOnUse" x1="0.3416" y1="3.3572" x2="0.5054" y2="3.3572" gradientTransform="matrix(1 0 0 -1 7.105427e-15 3.7)">
		<stop  offset="0" style="stop-color:#FFC708"/>
		<stop  offset="1" style="stop-color:#EBA313"/>
	</linearGradient>
	<path fill="url(#SVGID_4_)" d="M0.345,0.395c0,0-0.041-0.145,0.16-0.14c0,0-0.098,0.084-0.126,0.154
		C0.357,0.465,0.345,0.395,0.345,0.395z"/>
	
		<linearGradient id="SVGID_5_" gradientUnits="userSpaceOnUse" x1="-69.6377" y1="-146.3764" x2="-69.6377" y2="-146.1409" gradientTransform="matrix(0.9927 -0.1204 -0.1204 -0.9927 52.0784 -152.9052)">
		<stop  offset="0" style="stop-color:#FFF1A4"/>
		<stop  offset="1" style="stop-color:#FFE167"/>
	</linearGradient>
	<path fill="url(#SVGID_5_)" d="M0.468,0.564c0,0,0.033,0.082,0.042,0.158c0.01,0.077,0.094,0.077,0.12,0.043
		C0.669,0.714,0.615,0.584,0.468,0.564z"/>
</g>
</svg>
