<?xml version="1.0" encoding="utf-8"?>
<!-- Generator: Adobe Illustrator 24.1.2, SVG Export Plug-In . SVG Version: 6.00 Build 0)  -->
<svg version="1.1" id="Capa_1" xmlns="http://www.w3.org/2000/svg" xmlns:xlink="http://www.w3.org/1999/xlink" x="0px" y="0px"
	 width="1px" height="1.79px" viewBox="0 0 1 1.79" enable-background="new 0 0 1 1.79" xml:space="preserve">
<circle id="circle16099" fill="#0A0F32" fill-opacity="0.2" cx="0.5" cy="1.286" r="0.5"/>
<g>
	<path fill="#1A2A66" d="M0.946,0.98C0.924,1.003,0.902,1.022,0.881,1.039C0.889,1.07,0.893,1.098,0.895,1.118
		c0.002,0.019,0.002,0.031,0.002,0.035c0,0.183-0.172,0.333-0.384,0.333c-0.161,0-0.301-0.085-0.357-0.21
		C0.097,1.254,0.049,1.214,0.021,1.158c-0.023-0.044-0.077-0.147,0.187-0.646c0-0.002,0-0.003,0.001-0.004
		C0.21,0.488,0.215,0.462,0.224,0.435C0.172,0.358,0.165,0.267,0.206,0.181c0.048-0.101,0.155-0.172,0.273-0.18
		C0.487,0,0.495,0,0.503,0c0.11,0,0.209,0.054,0.271,0.149l0.003,0.005l0.002,0.004c0.003,0.005,0.006,0.012,0.009,0.02
		c0.028,0.072,0.027,0.148-0.003,0.217C0.788,0.4,0.791,0.405,0.793,0.411C1.003,0.694,1.052,0.875,0.946,0.98z"/>
	<path fill="#5B658A" d="M0.699,1.025c-0.015,0-0.029-0.009-0.035-0.023c-0.009-0.019,0-0.042,0.02-0.051
		c0.001,0,0.069-0.031,0.136-0.098C0.84,0.827,0.759,0.66,0.624,0.485c-0.013-0.017-0.01-0.041,0.007-0.054
		c0.017-0.013,0.041-0.01,0.054,0.007C0.771,0.55,0.962,0.82,0.874,0.908C0.796,0.986,0.718,1.021,0.715,1.022
		C0.71,1.024,0.705,1.025,0.699,1.025z"/>
	<path fill="#626E8F" d="M0.794,1.153c0,0.128-0.126,0.231-0.282,0.231S0.231,1.28,0.231,1.153c0,0,0-0.01,0.003-0.028
		c0.003-0.024,0.01-0.061,0.026-0.105C0.262,1.013,0.264,1.006,0.267,1c0.022-0.051,0.058-0.105,0.117-0.148
		c0,0,0.001-0.001,0.001-0.001C0.422,0.831,0.466,0.82,0.513,0.82s0.091,0.011,0.128,0.031c0.001,0.001,0.001,0.001,0.001,0.001
		C0.7,0.895,0.737,0.949,0.759,1c0.003,0.007,0.005,0.013,0.008,0.02c0.016,0.044,0.023,0.081,0.026,0.105
		C0.794,1.143,0.794,1.153,0.794,1.153z"/>
	<path fill="#8998BF" d="M0.769,1.05c0,0.002,0,0.004-0.001,0.006C0.765,1.182,0.652,1.281,0.512,1.281S0.26,1.182,0.257,1.057
		C0.256,1.054,0.256,1.052,0.256,1.05c0-0.011,0.001-0.023,0.003-0.034c0.022-0.055,0.059-0.117,0.124-0.165
		c0,0,0.001-0.001,0.001-0.001C0.422,0.831,0.466,0.82,0.512,0.82s0.091,0.011,0.128,0.031c0.001,0.001,0.001,0.001,0.001,0.001
		c0.065,0.048,0.102,0.11,0.124,0.165C0.768,1.028,0.769,1.039,0.769,1.05z"/>
	<path fill="#FFF7DE" d="M0.743,0.922c0,0.205-0.231,0.205-0.231,0.205s-0.231,0-0.231-0.205s0.154-0.41,0.154-0.41h0.154
		C0.589,0.512,0.743,0.717,0.743,0.922z"/>
	
		<radialGradient id="SVGID_1_" cx="0.5104" cy="0.8452" r="0.2004" gradientTransform="matrix(1.028679e-13 1 -0.6443 6.628072e-14 1.055 0.3347)" gradientUnits="userSpaceOnUse">
		<stop  offset="0.352" style="stop-color:#FFBE00"/>
		<stop  offset="1" style="stop-color:#FFD250"/>
	</radialGradient>
	<path fill="url(#SVGID_1_)" d="M0.641,0.922c0,0.091-0.09,0.102-0.127,0.102C0.475,1.024,0.384,1.013,0.384,0.922
		c0-0.119,0.067-0.244,0.106-0.307h0.044C0.573,0.678,0.641,0.803,0.641,0.922z"/>
	<path fill="#626E8F" d="M0.717,0.543C0.713,0.611,0.623,0.666,0.513,0.666S0.312,0.611,0.308,0.543c0,0,0.001-0.012,0.004-0.03
		V0.512C0.316,0.487,0.325,0.451,0.343,0.42c0.001-0.003,0.003-0.005,0.005-0.008c0.004-0.007,0.008-0.013,0.013-0.019
		C0.365,0.388,0.37,0.384,0.374,0.38c0.003-0.003,0.006-0.006,0.01-0.008C0.386,0.37,0.388,0.369,0.391,0.367
		c0.032-0.021,0.075-0.034,0.122-0.034c0.047,0,0.09,0.013,0.122,0.034C0.637,0.369,0.639,0.37,0.641,0.372
		c0.004,0.002,0.007,0.005,0.01,0.008C0.656,0.384,0.66,0.388,0.664,0.393c0.005,0.006,0.01,0.012,0.013,0.019
		C0.68,0.415,0.681,0.417,0.682,0.42c0.018,0.031,0.027,0.067,0.031,0.092v0.001C0.717,0.53,0.717,0.543,0.717,0.543z"/>
	<path fill="#626E8F" d="M0.794,1.153c0,0.128-0.126,0.231-0.282,0.231c-0.14,0-0.257-0.084-0.278-0.194
		C0.19,1.185,0.139,1.165,0.111,1.111C0.063,1.02,0.231,0.686,0.305,0.547c0.001-0.002,0.002-0.003,0.003-0.004
		C0.308,0.541,0.308,0.54,0.308,0.538c0,0,0-0.006,0.002-0.015C0.312,0.498,0.321,0.447,0.35,0.407
		C0.339,0.424,0.333,0.442,0.333,0.461c0,0.005,0.001,0.009,0.001,0.013c0,0,0,0,0,0.001c0.01,0.064,0.086,0.114,0.178,0.114
		s0.169-0.05,0.178-0.114c0-0.001,0-0.001,0-0.001C0.691,0.47,0.692,0.466,0.692,0.461c0-0.019-0.006-0.037-0.017-0.054
		c0.029,0.04,0.038,0.091,0.041,0.116c0.002,0.009,0.002,0.015,0.002,0.015c0,0.071-0.092,0.128-0.205,0.128
		c-0.064,0-0.121-0.018-0.159-0.047c-0.1,0.194-0.191,0.415-0.174,0.457c0.012,0.024,0.034,0.034,0.055,0.037
		c0.004-0.025,0.01-0.059,0.025-0.096C0.257,1.028,0.256,1.039,0.256,1.05c0,0.002,0,0.004,0.001,0.006
		c0.001,0.02,0.004,0.039,0.01,0.057c0.008,0.027,0.022,0.051,0.039,0.072c0.046,0.057,0.122,0.095,0.207,0.095
		c0.139,0,0.253-0.099,0.256-0.224C0.769,1.054,0.769,1.052,0.769,1.05c0-0.011-0.001-0.023-0.003-0.034
		C0.784,1.062,0.79,1.104,0.793,1.128C0.794,1.144,0.794,1.153,0.794,1.153z"/>
	<path fill="#8A97BE" d="M0.692,0.461c0,0.005-0.001,0.009-0.001,0.013c0,0,0,0,0,0.001c-0.01,0.064-0.086,0.114-0.178,0.114
		s-0.169-0.05-0.178-0.114c0-0.001,0-0.001,0-0.001C0.334,0.47,0.333,0.466,0.333,0.461c0-0.019,0.006-0.037,0.017-0.054
		c0.003-0.005,0.007-0.009,0.011-0.014C0.365,0.388,0.37,0.384,0.374,0.38c0.003-0.003,0.006-0.006,0.01-0.008
		C0.386,0.37,0.388,0.369,0.391,0.367c0.032-0.021,0.075-0.034,0.122-0.034c0.047,0,0.09,0.013,0.122,0.034
		C0.637,0.369,0.639,0.37,0.641,0.372c0.004,0.002,0.007,0.005,0.01,0.008C0.655,0.384,0.66,0.388,0.664,0.393
		c0.004,0.005,0.008,0.009,0.011,0.014C0.686,0.424,0.692,0.442,0.692,0.461z"/>
	<path fill="#7B8AB1" d="M0.615,0.423c0,0.005-0.001,0.009-0.002,0.013c-0.01,0.029-0.051,0.051-0.1,0.051s-0.091-0.022-0.1-0.051
		C0.411,0.431,0.41,0.427,0.41,0.423c0-0.035,0.046-0.064,0.102-0.064S0.615,0.387,0.615,0.423z"/>
	<path fill="#66708D" d="M0.615,0.448c0,0.035-0.046,0.064-0.102,0.064S0.41,0.484,0.41,0.448c0-0.005,0.001-0.009,0.002-0.013
		c0.01,0.029,0.051,0.051,0.1,0.051s0.091-0.022,0.1-0.051C0.615,0.44,0.615,0.444,0.615,0.448z"/>
	<path fill="#E2B991" d="M0.41,0.457c-0.006,0-0.012-0.001-0.017-0.004C0.337,0.424,0.245,0.339,0.299,0.225
		c0.032-0.068,0.106-0.116,0.187-0.122c0.082-0.006,0.156,0.031,0.202,0.102C0.69,0.207,0.691,0.209,0.692,0.211
		c0.05,0.12-0.042,0.208-0.046,0.212C0.63,0.438,0.606,0.437,0.591,0.421c-0.015-0.015-0.014-0.04,0.002-0.054
		c0.002-0.002,0.055-0.054,0.029-0.123C0.58,0.183,0.522,0.178,0.491,0.18C0.438,0.184,0.388,0.215,0.368,0.258
		c-0.035,0.074,0.05,0.121,0.06,0.126c0.019,0.01,0.026,0.033,0.016,0.052C0.437,0.449,0.424,0.457,0.41,0.457z"/>
</g>
</svg>
