<?xml version="1.0" encoding="utf-8"?>
<!-- Generator: Adobe Illustrator 24.1.2, SVG Export Plug-In . SVG Version: 6.00 Build 0)  -->
<svg version="1.1" id="Capa_1" xmlns="http://www.w3.org/2000/svg" xmlns:xlink="http://www.w3.org/1999/xlink" x="0px" y="0px"
	 width="1px" height="1.6px" viewBox="0 0 1 1.6" enable-background="new 0 0 1 1.6" xml:space="preserve">
<circle id="circle16099" fill="#0A0F32" fill-opacity="0.2" cx="0.5" cy="1.1" r="0.5"/>
<g>
	<g>
		<ellipse fill="#1F345E" cx="0.5" cy="0.975" rx="0.4" ry="0.325"/>
		<path fill="#575989" d="M0.825,0.975c0,0.138-0.146,0.25-0.325,0.25s-0.325-0.112-0.325-0.25c0-0.014,0.002-0.028,0.005-0.042
			C0.205,0.815,0.339,0.725,0.5,0.725s0.295,0.09,0.32,0.208C0.823,0.947,0.825,0.961,0.825,0.975z"/>
		<path fill="#8387B3" d="M0.804,0.886c0.014,0.029,0.014,0.066,0,0.095C0.757,1.075,0.639,1.142,0.5,1.142S0.243,1.075,0.196,0.981
			c-0.014-0.029-0.014-0.066,0-0.095C0.243,0.792,0.361,0.725,0.5,0.725S0.757,0.792,0.804,0.886z"/>
		<ellipse fill="#6D72A1" cx="0.5" cy="0.925" rx="0.2" ry="0.125"/>
		<ellipse fill="#535885" cx="0.5" cy="0.887" rx="0.1" ry="0.063"/>
	</g>
	<g>
		<path fill="#694518" d="M0.735,0.723c-0.011,0.041-0.032,0.079-0.063,0.11C0.627,0.878,0.564,0.904,0.5,0.904
			c-0.111,0-0.207-0.075-0.235-0.181C0.161,0.648,0.1,0.528,0.1,0.4C0.1,0.179,0.28,0,0.5,0c0.016,0,0.032,0.001,0.049,0.003
			c0.177,0.021,0.319,0.158,0.346,0.333C0.919,0.488,0.858,0.634,0.735,0.723z"/>
		<path fill="#FCBC4B" d="M0.673,0.66c-0.011,0.007-0.018,0.018-0.02,0.031c-0.006,0.031-0.021,0.058-0.042,0.08
			C0.583,0.799,0.542,0.817,0.5,0.817c-0.075,0-0.14-0.054-0.153-0.126C0.344,0.679,0.338,0.667,0.327,0.66
			C0.26,0.616,0.211,0.546,0.194,0.465C0.19,0.444,0.187,0.423,0.187,0.4c0-0.172,0.14-0.313,0.313-0.313
			c0.013,0,0.025,0.001,0.038,0.002C0.672,0.105,0.784,0.21,0.807,0.343C0.808,0.346,0.808,0.348,0.809,0.35
			C0.829,0.479,0.77,0.596,0.673,0.66z"/>
		<path fill="#F2C986" d="M0.807,0.343C0.7,0.441,0.557,0.501,0.399,0.501c-0.072,0-0.141-0.013-0.205-0.036
			C0.19,0.444,0.187,0.423,0.187,0.4c0-0.172,0.14-0.313,0.313-0.313c0.013,0,0.025,0.001,0.038,0.002
			C0.672,0.105,0.784,0.21,0.807,0.343z"/>
		
			<ellipse transform="matrix(0.766 -0.6428 0.6428 0.766 -0.0841 0.297)" fill="#FFF4DE" cx="0.366" cy="0.264" rx="0.128" ry="0.102"/>
	</g>
</g>
</svg>
