<?xml version="1.0" encoding="utf-8"?>
<!-- Generator: Adobe Illustrator 24.1.2, SVG Export Plug-In . SVG Version: 6.00 Build 0)  -->
<svg version="1.1" id="Capa_1" xmlns="http://www.w3.org/2000/svg" xmlns:xlink="http://www.w3.org/1999/xlink" x="0px" y="0px"
	 width="1px" height="1.3px" viewBox="0 0 1 1.3" enable-background="new 0 0 1 1.3" xml:space="preserve">
<path fill="#0A0F32" fill-opacity="0.2" d="M0.5,1.3H1V0L0,0l0,0.8C0,1.076,0.224,1.3,0.5,1.3z"/>
<g>
	<g>
		<path fill="#5B3018" d="M0,0l0,0.4c0,0.168,0.105,0.313,0.254,0.372c0.03,0.012,0.063,0.02,0.097,0.025
			C0.367,0.799,0.383,0.8,0.4,0.8h0.2c0.101,0,0.193-0.038,0.264-0.1C0.948,0.626,1,0.519,1,0.4V0L0,0z"/>
		<path fill="#99572E" d="M0.1,0v0.425c0,0.01,0.001,0.018,0.002,0.027C0.103,0.47,0.107,0.486,0.111,0.502
			C0.112,0.506,0.114,0.51,0.115,0.514c0,0.001,0,0.001,0.001,0.002c0.003,0.009,0.007,0.017,0.011,0.026v0.001l0.001,0.001
			c0.008,0.018,0.018,0.033,0.03,0.049c0.004,0.005,0.008,0.01,0.012,0.015C0.18,0.618,0.192,0.629,0.204,0.639
			C0.205,0.64,0.206,0.641,0.207,0.641c0,0.001,0,0.001,0.001,0.001c0.013,0.01,0.026,0.019,0.041,0.026
			c0.004,0.002,0.009,0.004,0.013,0.007c0.003,0.001,0.005,0.002,0.008,0.003c0.008,0.004,0.014,0.007,0.023,0.009
			c0,0,0.001,0,0.001,0c0.007,0.002,0.015,0.004,0.022,0.006c0-0.001,0.001,0,0.001,0c0.002,0.001,0.002,0.001,0.004,0.001
			c0.008,0.002,0.017,0.003,0.025,0.004C0.354,0.699,0.364,0.7,0.375,0.7h0.25c0.002,0,0.005,0,0.007-0.001
			c0.026,0,0.051-0.005,0.076-0.012C0.724,0.682,0.74,0.675,0.755,0.666c0,0,0.001,0.001,0.001,0
			c0.015-0.008,0.03-0.018,0.043-0.029c0,0,0.001,0.001,0.001,0C0.814,0.626,0.826,0.613,0.837,0.6c0.001,0,0-0.001,0-0.001
			c0.011-0.014,0.021-0.028,0.03-0.043c0.001,0,0-0.001,0-0.001C0.875,0.54,0.882,0.524,0.887,0.507
			C0.895,0.481,0.9,0.454,0.9,0.425V0L0.75,0v0.03C0.742,0.026,0.733,0.023,0.725,0.019C0.717,0.016,0.708,0.013,0.698,0.01
			C0.692,0.009,0.686,0.007,0.68,0.006C0.673,0.004,0.665,0.003,0.658,0.002C0.647,0.001,0.636,0,0.625,0l-0.25,0
			C0.366,0,0.357,0.001,0.348,0.001C0.341,0.002,0.334,0.003,0.327,0.004C0.323,0.005,0.319,0.006,0.315,0.007
			c-0.004,0-0.009,0.001-0.013,0.003c-0.002,0-0.004,0.001-0.006,0.002V0L0.1,0z"/>
		<path fill="#C7723B" d="M0.296,0v0.012C0.298,0.011,0.299,0.01,0.302,0.01c0.004-0.002,0.009-0.003,0.013-0.003
			c0.004-0.001,0.008-0.002,0.012-0.003c0.007-0.001,0.014-0.002,0.021-0.003C0.357,0.001,0.366,0,0.375,0L0.296,0z"/>
		<path fill="#EE9965" d="M0.1,0.275v0.15c0,0.01,0.001,0.018,0.002,0.027C0.103,0.47,0.107,0.486,0.111,0.502
			C0.118,0.525,0.128,0.547,0.14,0.567c0,0,0,0.001,0.001,0.001c0.008,0.013,0.017,0.026,0.028,0.038
			c0.01,0.012,0.022,0.023,0.035,0.033C0.205,0.64,0.207,0.641,0.208,0.642c0.013,0.01,0.026,0.019,0.041,0.026
			c0.004,0.002,0.009,0.004,0.013,0.007c0.003,0.001,0.005,0.002,0.008,0.003c0.008,0.004,0.014,0.007,0.023,0.009
			c0,0,0.001,0,0.001,0c0.007,0.002,0.015,0.004,0.022,0.006c0-0.001,0.001,0,0.001,0c0.002,0.001,0.002,0.001,0.004,0.001
			c0.008,0.002,0.017,0.003,0.025,0.004C0.354,0.699,0.364,0.7,0.375,0.7h0.25c0.002,0,0.005,0,0.007-0.001
			c0.026,0,0.051-0.005,0.076-0.012C0.724,0.682,0.74,0.676,0.755,0.666c0,0,0.001,0.001,0.001,0
			c0.015-0.008,0.03-0.018,0.043-0.029c0,0,0.001,0.001,0.001,0C0.814,0.626,0.826,0.613,0.837,0.6c0.001,0,0-0.001,0-0.001
			c0.011-0.014,0.021-0.028,0.03-0.043c0.001,0,0-0.001,0-0.001C0.876,0.54,0.883,0.524,0.887,0.507
			C0.895,0.481,0.9,0.454,0.9,0.425v-0.15c0-0.063-0.021-0.121-0.058-0.168C0.84,0.105,0.839,0.102,0.836,0.1
			C0.813,0.071,0.783,0.047,0.75,0.03C0.742,0.026,0.733,0.022,0.725,0.019C0.717,0.015,0.708,0.013,0.698,0.01
			C0.692,0.008,0.686,0.007,0.68,0.006C0.673,0.004,0.665,0.003,0.658,0.002C0.647,0.001,0.636,0,0.625,0l-0.25,0
			C0.366,0,0.357,0.001,0.348,0.001C0.341,0.002,0.334,0.003,0.327,0.004C0.323,0.005,0.319,0.006,0.315,0.007
			c-0.004,0-0.009,0.001-0.013,0.003c-0.002,0-0.004,0.001-0.006,0.001v0.001C0.183,0.045,0.1,0.151,0.1,0.275z"/>
		<path fill="#D3804E" d="M0.15,0.275v0.2c0,0.063,0.021,0.121,0.058,0.167C0.254,0.679,0.312,0.7,0.375,0.7h0.25
			C0.777,0.7,0.9,0.577,0.9,0.425v-0.15c0-0.063-0.021-0.121-0.058-0.168C0.796,0.071,0.738,0.05,0.675,0.05h-0.3
			C0.251,0.05,0.15,0.151,0.15,0.275z"/>
		<path fill="#A76539" d="M0.2,0.25V0.4c0,0.11,0.09,0.2,0.2,0.2h0.2c0.11,0,0.2-0.09,0.2-0.2V0.25c0-0.044-0.02-0.084-0.05-0.111
			C0.743,0.132,0.736,0.127,0.728,0.122C0.705,0.108,0.679,0.1,0.65,0.1h-0.3c-0.029,0-0.055,0.008-0.078,0.022
			C0.264,0.127,0.257,0.132,0.25,0.139C0.22,0.166,0.2,0.206,0.2,0.25z"/>
	</g>
	<g>
		<path fill="#5B3018" d="M0.254,0.772C0.251,0.78,0.25,0.79,0.25,0.8c0,0.148,0.161,0.2,0.3,0.2H1V0L0.55,0
			C0.46,0,0.395,0.021,0.345,0.052C0.312,0.073,0.287,0.099,0.268,0.125C0.261,0.134,0.255,0.143,0.25,0.152
			C0.248,0.157,0.245,0.163,0.242,0.168C0.2,0.251,0.2,0.345,0.2,0.4c0,0.067,0.04,0.122,0.092,0.168
			c0.034,0.03,0.073,0.057,0.108,0.08c0.002,0.001,0.004,0.003,0.007,0.005C0.402,0.655,0.396,0.657,0.391,0.658
			C0.369,0.666,0.34,0.676,0.315,0.693c0,0-0.001-0.001-0.001,0C0.286,0.71,0.261,0.735,0.254,0.772z"/>
		<path fill="#99582E" d="M0.55,0.65c0,0.014-0.005,0.027-0.011,0.038C0.495,0.751,0.35,0.757,0.35,0.8c0,0.1,0.2,0.1,0.2,0.1H1V0.1
			H0.55C0.3,0.1,0.3,0.3,0.3,0.4c0,0.035,0.03,0.07,0.07,0.102C0.444,0.563,0.55,0.617,0.55,0.65z"/>
		<path fill="#854B28" d="M0.433,0.75c0.075,0.075,0.428,0.063,0.474,0.029C0.94,0.752,1,0.736,1,0.736V0.7c0,0-0.257,0-0.35,0
			c-0.036,0-0.073-0.003-0.111-0.012C0.518,0.718,0.473,0.735,0.433,0.75z"/>
		<path fill="#854B28" d="M0.446,0.326C0.442,0.313,0.463,0.3,0.55,0.3c0.083,0,0.139,0.008,0.182,0.018
			C0.792,0.333,0.82,0.35,0.85,0.35c0.044,0,0.127-0.039,0.146-0.048C0.977,0.308,0.895,0.335,0.85,0.325
			C0.837,0.323,0.824,0.318,0.808,0.313C0.758,0.298,0.684,0.275,0.555,0.275C0.433,0.275,0.436,0.308,0.446,0.326z"/>
		<path fill="#C7723B" d="M0.55,0.65c0,0.014-0.005,0.027-0.011,0.038C0.577,0.697,0.614,0.7,0.65,0.7c0.093,0,0.35,0,0.35,0V0.3
			c0,0-0.001,0-0.001,0.001c-0.001,0-0.001,0-0.003,0.001C0.977,0.311,0.894,0.35,0.85,0.35c-0.03,0-0.058-0.017-0.118-0.032
			C0.689,0.308,0.633,0.3,0.55,0.3c-0.088,0-0.108,0.012-0.104,0.026C0.45,0.333,0.455,0.338,0.455,0.338
			C0.47,0.352,0.5,0.365,0.5,0.365s0.117,0.07,0.042,0.07c-0.042,0-0.124,0.028-0.172,0.067C0.444,0.563,0.55,0.617,0.55,0.65z"/>
	</g>
</g>
</svg>
