<?xml version="1.0" encoding="utf-8"?>
<!-- Generator: Adobe Illustrator 24.1.2, SVG Export Plug-In . SVG Version: 6.00 Build 0)  -->
<svg version="1.1" id="Capa_1" xmlns="http://www.w3.org/2000/svg" xmlns:xlink="http://www.w3.org/1999/xlink" x="0px" y="0px"
	 width="1.2px" height="1.6px" viewBox="0 0 1.2 1.6" enable-background="new 0 0 1.2 1.6" xml:space="preserve">
<g>
	<path fill="#5B3018" d="M1.1,0.4v1.2h-1V0.4C0.1,0.18,0.28,0,0.5,0c0.051,0,0.098,0.023,0.13,0.063L0.7,0.15l0.063-0.063
		C0.788,0.063,0.82,0.049,0.854,0.049c0.027,0,0.054,0.008,0.078,0.026C1.033,0.148,1.1,0.266,1.1,0.4z"/>
	<path fill="#99572E" d="M1,0.4v1.2H0.2V0.4c0-0.13,0.083-0.242,0.2-0.283c0.011-0.004,0.023-0.007,0.036-0.01
		C0.44,0.106,0.445,0.105,0.45,0.104c0.011-0.002,0.022-0.004,0.033-0.004c0.002,0,0.005,0,0.007,0C0.493,0.1,0.497,0.1,0.5,0.1
		c0.008,0,0.015,0.001,0.021,0.004h0.001c0.007,0.002,0.013,0.006,0.019,0.01c0.004,0.003,0.007,0.007,0.011,0.011l0.07,0.088
		c0.002,0.002,0.004,0.004,0.006,0.007c0.004,0.004,0.007,0.007,0.011,0.01v0c0.004,0.003,0.008,0.006,0.012,0.008
		C0.655,0.239,0.66,0.241,0.664,0.243C0.667,0.245,0.67,0.245,0.673,0.246C0.675,0.247,0.677,0.248,0.68,0.248
		c0.005,0.001,0.01,0.002,0.015,0.002H0.7c0.027,0,0.052-0.011,0.07-0.03L0.8,0.191l0.033-0.033C0.839,0.152,0.845,0.151,0.85,0.15
		c0.002-0.001,0.003-0.001,0.004-0.001c0.005,0,0.012,0.001,0.019,0.007C0.88,0.16,0.885,0.164,0.89,0.17C0.96,0.226,1,0.311,1,0.4z
		"/>
	<path fill="#854B28" d="M0.569,0.563C0.564,0.58,0.558,0.592,0.55,0.6C0.515,0.635,0.505,0.323,0.483,0.101
		c0.002,0,0.005,0,0.007,0C0.493,0.1,0.497,0.1,0.5,0.1c0.008,0,0.015,0.001,0.021,0.004h0.001C0.538,0.282,0.548,0.502,0.569,0.563
		z"/>
	<path fill="#C7723B" d="M0.8,0.191V1.6H0.4V0.117c0.011-0.004,0.023-0.007,0.036-0.01C0.44,0.106,0.445,0.105,0.45,0.104
		c0.011-0.002,0.022-0.004,0.033-0.004C0.505,0.323,0.515,0.635,0.55,0.6c0.008-0.008,0.014-0.02,0.019-0.037
		c0.026-0.077,0.035-0.239,0.059-0.344c0.004,0.004,0.007,0.007,0.011,0.01v0c0.004,0.003,0.008,0.006,0.012,0.008
		c0.001,0.001,0.003,0.001,0.004,0.002c0.002,0.002,0.005,0.003,0.008,0.005C0.667,0.245,0.67,0.245,0.673,0.246
		C0.675,0.247,0.677,0.248,0.68,0.248c0.005,0.001,0.01,0.002,0.015,0.002H0.7c0.027,0,0.052-0.011,0.07-0.03L0.771,0.22L0.8,0.191z
		"/>
	<g>
		<g>
			<path fill="#0B430B" d="M0.561,0.448c0.028,0.08,0.104,0.138,0.227,0.172C0.81,0.626,0.833,0.619,0.846,0.6
				c0.003-0.004,0.081-0.112,0.042-0.226C0.86,0.294,0.784,0.236,0.662,0.202C0.658,0.201,0.655,0.2,0.651,0.2
				C0.633,0.199,0.615,0.206,0.604,0.222C0.6,0.226,0.522,0.334,0.561,0.448z M0.823,0.397C0.845,0.461,0.81,0.528,0.796,0.551
				c-0.093-0.028-0.151-0.07-0.17-0.126C0.604,0.361,0.639,0.294,0.654,0.271C0.747,0.299,0.804,0.341,0.823,0.397z"/>
			<path fill="#26651A" d="M0.796,0.551C0.784,0.547,0.772,0.544,0.761,0.54C0.688,0.512,0.643,0.474,0.626,0.425
				c-0.02-0.059,0.007-0.12,0.023-0.147c0.001-0.003,0.003-0.005,0.004-0.007c0.093,0.028,0.15,0.07,0.169,0.125
				C0.845,0.461,0.81,0.528,0.796,0.551z"/>
			<path fill="#317921" d="M0.761,0.54C0.688,0.512,0.643,0.474,0.626,0.425c-0.02-0.059,0.007-0.12,0.023-0.147
				c0.073,0.028,0.118,0.066,0.134,0.114C0.804,0.451,0.777,0.512,0.761,0.54z"/>
		</g>
		<g>
			<g>
				<path fill="#26651A" d="M1.08,0.501c0,0-0.137,0.059-0.32,0.427C0.545,1.356,0.173,1.466,0.158,1.471
					C0.152,1.473,0.146,1.473,0.14,1.473c-0.024,0-0.048-0.015-0.058-0.038C0.081,1.432,0.08,1.43,0.079,1.427
					c-0.01-0.033,0.01-0.069,0.043-0.079c0.004-0.001,0.335-0.101,0.523-0.477c0.21-0.42,0.376-0.486,0.394-0.492
					c0.007-0.002,0.014-0.003,0.02-0.003c0.009,0,0.017,0.002,0.026,0.006C1.101,0.389,1.114,0.402,1.12,0.42
					C1.131,0.454,1.113,0.49,1.08,0.501z"/>
				<path fill="#307320" d="M1.047,0.468c0,0-0.137,0.059-0.321,0.427C0.511,1.323,0.14,1.433,0.124,1.438
					C0.119,1.439,0.113,1.44,0.107,1.44c-0.009,0-0.017-0.002-0.025-0.005C0.081,1.432,0.08,1.43,0.079,1.427
					c-0.01-0.033,0.01-0.069,0.043-0.079c0.004-0.001,0.335-0.101,0.523-0.477c0.21-0.42,0.376-0.486,0.394-0.492
					c0.007-0.002,0.014-0.003,0.02-0.003c0.009,0,0.017,0.002,0.026,0.006c0.001,0.001,0.001,0.003,0.002,0.005
					C1.098,0.42,1.08,0.457,1.047,0.468z"/>
				<path fill="#0B430B" d="M1.193,0.396C1.173,0.339,1.12,0.3,1.06,0.3c-0.015,0-0.03,0.003-0.044,0.007
					C0.966,0.323,0.79,0.41,0.576,0.837C0.405,1.179,0.104,1.274,0.101,1.275C0.027,1.296-0.016,1.374,0.006,1.448
					C0.022,1.508,0.078,1.55,0.14,1.55c0.013,0,0.026-0.002,0.039-0.006C0.196,1.54,0.598,1.421,0.828,0.962
					C0.98,0.657,1.096,0.58,1.111,0.571C1.18,0.544,1.216,0.467,1.193,0.396z M1.08,0.501c0,0-0.137,0.059-0.321,0.427
					C0.545,1.356,0.174,1.466,0.158,1.471C0.152,1.472,0.146,1.473,0.14,1.473c-0.028,0-0.053-0.018-0.061-0.046
					c-0.01-0.034,0.01-0.069,0.043-0.079c0.004-0.001,0.334-0.102,0.522-0.478c0.21-0.419,0.376-0.485,0.394-0.491
					c0.007-0.002,0.014-0.003,0.02-0.003c0.027,0,0.052,0.017,0.061,0.043C1.131,0.454,1.113,0.49,1.08,0.501z"/>
			</g>
		</g>
		<g>
			<path fill="#0B430B" d="M0.817,1.09C0.864,1.161,0.953,1.198,1.08,1.2c0.023,0.001,0.043-0.013,0.051-0.034
				c0.002-0.005,0.051-0.129-0.016-0.229c-0.047-0.07-0.135-0.108-0.263-0.11c-0.004-0.001-0.007,0-0.01,0.001
				C0.824,0.831,0.808,0.843,0.802,0.861C0.799,0.866,0.75,0.99,0.817,1.09z M1.057,0.975c0.038,0.057,0.021,0.13,0.013,0.156
				c-0.097-0.004-0.163-0.03-0.196-0.079c-0.038-0.057-0.021-0.13-0.012-0.156C0.959,0.9,1.025,0.926,1.057,0.975z"/>
			<path fill="#26651A" d="M1.07,1.131C1.058,1.131,1.045,1.13,1.034,1.129C0.956,1.12,0.902,1.095,0.874,1.052
				C0.84,1,0.851,0.934,0.86,0.904c0.001-0.003,0.002-0.006,0.002-0.008c0.097,0.003,0.163,0.03,0.195,0.079
				C1.096,1.032,1.078,1.105,1.07,1.131z"/>
			<path fill="#317921" d="M1.034,1.129C0.956,1.12,0.902,1.095,0.874,1.052C0.84,1,0.851,0.934,0.86,0.904
				c0.077,0.009,0.131,0.034,0.159,0.077C1.053,1.032,1.042,1.098,1.034,1.129z"/>
		</g>
		<g>
			<path fill="#0B430B" d="M0.161,1.048c0.028,0.08,0.104,0.138,0.227,0.172C0.41,1.226,0.433,1.219,0.446,1.2
				c0.003-0.004,0.081-0.112,0.042-0.226C0.46,0.894,0.384,0.836,0.262,0.802C0.258,0.801,0.255,0.8,0.251,0.8
				C0.233,0.799,0.215,0.806,0.204,0.822C0.2,0.826,0.122,0.934,0.161,1.048z M0.423,0.997C0.445,1.061,0.41,1.128,0.396,1.151
				c-0.093-0.028-0.151-0.07-0.17-0.126C0.204,0.961,0.239,0.894,0.254,0.871C0.347,0.899,0.404,0.941,0.423,0.997z"/>
			<path fill="#26651A" d="M0.396,1.151C0.384,1.147,0.372,1.144,0.361,1.14C0.288,1.112,0.243,1.074,0.226,1.025
				c-0.02-0.059,0.007-0.12,0.023-0.147c0.001-0.003,0.003-0.005,0.004-0.007c0.093,0.028,0.15,0.07,0.169,0.125
				C0.445,1.061,0.41,1.128,0.396,1.151z"/>
			<path fill="#317921" d="M0.361,1.14C0.288,1.112,0.243,1.074,0.226,1.025c-0.02-0.059,0.007-0.12,0.023-0.147
				c0.073,0.028,0.118,0.066,0.134,0.114C0.404,1.051,0.377,1.112,0.361,1.14z"/>
		</g>
	</g>
</g>
</svg>
