<?xml version="1.0" encoding="utf-8"?>
<!-- Generator: Adobe Illustrator 24.1.2, SVG Export Plug-In . SVG Version: 6.00 Build 0)  -->
<svg version="1.1" id="Capa_1" xmlns="http://www.w3.org/2000/svg" xmlns:xlink="http://www.w3.org/1999/xlink" x="0px" y="0px"
	 width="1px" height="1.3px" viewBox="0 0 1 1.3" enable-background="new 0 0 1 1.3" xml:space="preserve">
<path fill="#0A0F32" fill-opacity="0.2" d="M0.7,1.3H0.3C0.134,1.3,0,1.166,0,1V0h1v1C1,1.166,0.866,1.3,0.7,1.3z"/>
<g>
	<path fill="#5B3018" d="M1,0v0.6C1,0.82,0.82,1,0.6,1H0.4C0.18,1,0,0.82,0,0.6V0H1z"/>
	<path fill="#854B28" d="M0.302,0v0.21C0.283,0.215,0.266,0.222,0.25,0.23V0H0.302z"/>
	<path fill="#99572E" d="M0.9,0v0.625c0,0.01-0.001,0.021-0.002,0.031c-0.001,0.01-0.003,0.02-0.005,0.029
		c0,0.001-0.001,0.002-0.001,0.003C0.89,0.697,0.888,0.706,0.885,0.714c0,0.001,0,0.001-0.001,0.002
		C0.881,0.724,0.877,0.733,0.873,0.741v0.001L0.873,0.742C0.865,0.76,0.855,0.776,0.843,0.791c-0.004,0.005-0.008,0.01-0.012,0.015
		C0.81,0.83,0.784,0.851,0.755,0.866C0.748,0.871,0.74,0.875,0.732,0.878C0.724,0.882,0.717,0.885,0.708,0.887
		C0.69,0.892,0.672,0.896,0.653,0.898C0.644,0.899,0.635,0.9,0.625,0.9h-0.25C0.224,0.9,0.1,0.776,0.1,0.625V0h0.15v0.23
		c0.016-0.008,0.033-0.015,0.052-0.02C0.325,0.204,0.349,0.2,0.375,0.2h0.25c0.016,0,0.032,0.001,0.048,0.004
		c0.004,0.001,0.008,0.002,0.012,0.003C0.692,0.208,0.698,0.21,0.704,0.212V0H0.9z"/>
	<path fill="#C7723B" d="M0.704,0v0.212C0.698,0.21,0.692,0.208,0.685,0.207C0.681,0.206,0.677,0.205,0.673,0.204
		C0.657,0.201,0.641,0.2,0.625,0.2h-0.25c-0.026,0-0.05,0.004-0.073,0.01V0H0.704z"/>
	<path fill="#EE9965" d="M0.9,0.475v0.15c0,0.089-0.042,0.168-0.108,0.217C0.746,0.879,0.688,0.9,0.625,0.9h-0.25
		C0.223,0.9,0.1,0.777,0.1,0.625v-0.15c0-0.063,0.021-0.121,0.058-0.168C0.207,0.242,0.286,0.2,0.375,0.2h0.25
		C0.777,0.2,0.9,0.323,0.9,0.475z"/>
	<path fill="#D3804E" d="M0.85,0.475v0.2c0,0.063-0.021,0.121-0.058,0.167C0.746,0.879,0.688,0.9,0.625,0.9h-0.25
		C0.223,0.9,0.1,0.777,0.1,0.625v-0.15c0-0.063,0.021-0.121,0.058-0.168C0.204,0.271,0.262,0.25,0.325,0.25h0.3
		C0.749,0.25,0.85,0.351,0.85,0.475z"/>
	<path fill="#A76539" d="M0.8,0.45V0.6c0,0.11-0.09,0.2-0.2,0.2H0.4c-0.11,0-0.2-0.09-0.2-0.2V0.45c0-0.044,0.02-0.084,0.05-0.111
		c0.007-0.007,0.014-0.012,0.022-0.017C0.295,0.308,0.321,0.3,0.35,0.3h0.3c0.029,0,0.055,0.008,0.078,0.022
		c0.008,0.005,0.015,0.01,0.022,0.017C0.78,0.366,0.8,0.406,0.8,0.45z"/>
	<path fill="#E6915E" d="M0.75,0.339V0.55c0,0.067-0.045,0.124-0.105,0.143C0.637,0.695,0.63,0.697,0.623,0.698
		c-0.001,0-0.001,0.001-0.002,0C0.614,0.699,0.607,0.7,0.6,0.7H0.4c-0.005,0-0.01-0.001-0.015-0.001
		C0.373,0.698,0.36,0.695,0.348,0.69h0C0.291,0.67,0.25,0.614,0.25,0.55V0.339c0.007-0.007,0.014-0.012,0.022-0.017
		C0.295,0.308,0.321,0.3,0.35,0.3h0.3c0.029,0,0.055,0.008,0.078,0.022C0.736,0.327,0.743,0.332,0.75,0.339z"/>
	<g>
		<path fill="#E6915E" d="M0.75,0.339V0.55c0,0.067-0.045,0.124-0.105,0.143c0.02-0.031,0.104-0.172,0.028-0.298
			C0.586,0.252,0.295,0.349,0.295,0.492C0.342,0.623,0.474,0.53,0.474,0.53L0.395,0.515c-0.05,0,0.15-0.185,0.2-0.046
			C0.633,0.608,0.444,0.669,0.348,0.69h0C0.291,0.67,0.25,0.614,0.25,0.55V0.339c0.007-0.007,0.014-0.012,0.022-0.017
			C0.295,0.308,0.321,0.3,0.35,0.3h0.3c0.029,0,0.055,0.008,0.078,0.022C0.736,0.327,0.743,0.332,0.75,0.339z"/>
		<path fill="#CA7B4A" d="M0.645,0.693C0.637,0.695,0.63,0.697,0.623,0.698c-0.001,0-0.001,0.001-0.002,0
			C0.614,0.699,0.607,0.7,0.6,0.7H0.4c-0.005,0-0.01-0.001-0.015-0.001C0.373,0.698,0.36,0.695,0.348,0.69
			c0.096-0.021,0.285-0.083,0.247-0.222c-0.05-0.139-0.25,0.046-0.2,0.046L0.474,0.53c0,0-0.133,0.093-0.179-0.038
			c0-0.142,0.29-0.239,0.377-0.097C0.749,0.521,0.665,0.662,0.645,0.693z"/>
	</g>
</g>
</svg>
