<?xml version="1.0" encoding="utf-8"?>
<!-- Generator: Adobe Illustrator 24.1.2, SVG Export Plug-In . SVG Version: 6.00 Build 0)  -->
<svg version="1.1" id="Capa_1" xmlns="http://www.w3.org/2000/svg" xmlns:xlink="http://www.w3.org/1999/xlink" x="0px" y="0px"
	 width="1px" height="1.3px" viewBox="0 0 1 1.3" enable-background="new 0 0 1 1.3" xml:space="preserve">
<path fill="#0A0F32" fill-opacity="0.2" d="M0.5,1.3H0V0h1v0.8C1,1.076,0.776,1.3,0.5,1.3z"/>
<g>
	<g>
		<path fill="#5B3018" d="M1,0v0.4c0,0.168-0.105,0.313-0.254,0.372c-0.03,0.012-0.063,0.02-0.097,0.025
			C0.633,0.799,0.617,0.8,0.6,0.8H0.4c-0.101,0-0.193-0.038-0.264-0.1C0.052,0.626,0,0.519,0,0.4V0H1z"/>
		<path fill="#99572E" d="M0.9,0v0.425c0,0.01-0.001,0.018-0.002,0.027C0.897,0.47,0.893,0.486,0.889,0.502
			C0.887,0.506,0.886,0.51,0.885,0.514c0,0.001,0,0.001-0.001,0.002C0.881,0.524,0.877,0.533,0.873,0.541v0.001L0.873,0.542
			C0.865,0.56,0.855,0.576,0.843,0.591c-0.004,0.005-0.008,0.01-0.012,0.015C0.82,0.618,0.808,0.629,0.796,0.639
			C0.795,0.64,0.794,0.641,0.793,0.641c0,0.001,0,0.001-0.001,0.001C0.78,0.652,0.766,0.661,0.752,0.668
			C0.748,0.671,0.743,0.673,0.739,0.675C0.736,0.676,0.734,0.677,0.732,0.678C0.724,0.682,0.717,0.685,0.709,0.687
			c0,0-0.001,0-0.001,0C0.701,0.689,0.693,0.691,0.686,0.693c0-0.001-0.001,0-0.001,0C0.683,0.693,0.683,0.694,0.681,0.694
			C0.673,0.696,0.664,0.697,0.656,0.698C0.646,0.699,0.636,0.7,0.625,0.7h-0.25c-0.002,0-0.005,0-0.007-0.001
			c-0.026,0-0.051-0.005-0.076-0.012C0.276,0.682,0.26,0.675,0.245,0.666c0,0-0.001,0.001-0.001,0
			c-0.015-0.008-0.03-0.018-0.043-0.029c0,0-0.001,0.001-0.001,0C0.186,0.626,0.174,0.613,0.163,0.6c-0.001,0,0-0.001,0-0.001
			c-0.011-0.014-0.021-0.028-0.03-0.043c-0.001,0,0-0.001,0-0.001C0.125,0.54,0.118,0.524,0.112,0.507
			C0.105,0.481,0.1,0.454,0.1,0.425V0h0.15v0.03c0.008-0.005,0.017-0.008,0.025-0.011C0.283,0.016,0.292,0.013,0.302,0.01
			C0.308,0.009,0.314,0.007,0.32,0.006c0.007-0.002,0.015-0.003,0.023-0.004C0.353,0.001,0.364,0,0.375,0h0.25
			c0.009,0,0.018,0.001,0.027,0.001c0.007,0.001,0.014,0.002,0.021,0.003c0.004,0.001,0.008,0.002,0.012,0.003
			c0.004,0,0.009,0.001,0.013,0.003c0.002,0,0.004,0.001,0.006,0.002V0H0.9z"/>
		<path fill="#C7723B" d="M0.704,0v0.012C0.702,0.011,0.701,0.01,0.698,0.01C0.694,0.008,0.689,0.007,0.685,0.007
			C0.681,0.006,0.677,0.005,0.673,0.004C0.666,0.003,0.659,0.002,0.652,0.001C0.643,0.001,0.634,0,0.625,0H0.704z"/>
		<path fill="#EE9965" d="M0.9,0.275v0.15c0,0.01-0.001,0.018-0.002,0.027C0.897,0.47,0.893,0.486,0.889,0.502
			C0.882,0.525,0.872,0.547,0.86,0.567c0,0,0,0.001-0.001,0.001C0.851,0.582,0.842,0.594,0.831,0.606
			c-0.01,0.012-0.022,0.023-0.035,0.033C0.795,0.64,0.793,0.641,0.792,0.642C0.78,0.652,0.766,0.661,0.752,0.668
			C0.748,0.671,0.743,0.673,0.739,0.675C0.736,0.676,0.734,0.677,0.732,0.678C0.724,0.682,0.717,0.685,0.709,0.687
			c0,0-0.001,0-0.001,0C0.701,0.689,0.693,0.691,0.686,0.693c0-0.001-0.001,0-0.001,0C0.683,0.693,0.683,0.694,0.681,0.694
			C0.673,0.696,0.664,0.697,0.656,0.698C0.646,0.699,0.636,0.7,0.625,0.7h-0.25c-0.002,0-0.005,0-0.007-0.001
			c-0.026,0-0.051-0.005-0.076-0.012C0.276,0.682,0.26,0.676,0.245,0.666c0,0-0.001,0.001-0.001,0
			c-0.015-0.008-0.03-0.018-0.043-0.029c0,0-0.001,0.001-0.001,0C0.186,0.626,0.174,0.613,0.163,0.6c-0.001,0,0-0.001,0-0.001
			c-0.011-0.014-0.021-0.028-0.03-0.043c-0.001,0,0-0.001,0-0.001C0.124,0.54,0.117,0.524,0.112,0.507
			C0.105,0.481,0.1,0.454,0.1,0.425v-0.15c0-0.063,0.021-0.121,0.058-0.168C0.16,0.105,0.161,0.102,0.164,0.1
			C0.187,0.071,0.217,0.047,0.25,0.03c0.008-0.004,0.017-0.008,0.025-0.011C0.283,0.015,0.292,0.013,0.302,0.01
			C0.308,0.008,0.314,0.007,0.32,0.006c0.007-0.002,0.015-0.003,0.023-0.004C0.353,0.001,0.364,0,0.375,0h0.25
			c0.009,0,0.018,0.001,0.027,0.001c0.007,0.001,0.014,0.002,0.021,0.003c0.004,0.001,0.008,0.002,0.012,0.003
			c0.004,0,0.009,0.001,0.013,0.003c0.002,0,0.004,0.001,0.006,0.001v0.001C0.817,0.045,0.9,0.151,0.9,0.275z"/>
		<path fill="#D3804E" d="M0.85,0.275v0.2c0,0.063-0.021,0.121-0.058,0.167C0.746,0.679,0.688,0.7,0.625,0.7h-0.25
			C0.223,0.7,0.1,0.577,0.1,0.425v-0.15c0-0.063,0.021-0.121,0.058-0.168C0.204,0.071,0.262,0.05,0.325,0.05h0.3
			C0.749,0.05,0.85,0.151,0.85,0.275z"/>
		<path fill="#A76539" d="M0.8,0.25V0.4c0,0.11-0.09,0.2-0.2,0.2H0.4c-0.11,0-0.2-0.09-0.2-0.2V0.25c0-0.044,0.02-0.084,0.05-0.111
			c0.007-0.007,0.014-0.012,0.022-0.017C0.295,0.108,0.321,0.1,0.35,0.1h0.3c0.029,0,0.055,0.008,0.078,0.022
			c0.008,0.005,0.015,0.01,0.022,0.017C0.78,0.166,0.8,0.206,0.8,0.25z"/>
	</g>
	<g>
		<path fill="#5B3018" d="M0.746,0.772C0.749,0.78,0.75,0.79,0.75,0.8c0,0.148-0.161,0.2-0.3,0.2H0V0h0.45
			c0.09,0,0.155,0.021,0.205,0.052c0.033,0.021,0.058,0.047,0.077,0.073C0.739,0.134,0.745,0.143,0.75,0.152
			c0.002,0.005,0.005,0.011,0.008,0.015C0.8,0.251,0.8,0.345,0.8,0.4c0,0.067-0.04,0.122-0.092,0.168
			c-0.034,0.03-0.073,0.057-0.108,0.08C0.598,0.649,0.595,0.651,0.592,0.653c0.006,0.002,0.012,0.004,0.017,0.005
			C0.631,0.666,0.66,0.676,0.685,0.693c0,0,0.001-0.001,0.001,0C0.714,0.71,0.739,0.735,0.746,0.772z"/>
		<path fill="#99582E" d="M0.45,0.65c0,0.014,0.005,0.027,0.011,0.038C0.505,0.751,0.65,0.757,0.65,0.8c0,0.1-0.2,0.1-0.2,0.1H0V0.1
			h0.45C0.7,0.1,0.7,0.3,0.7,0.4c0,0.035-0.03,0.07-0.07,0.102C0.556,0.563,0.45,0.617,0.45,0.65z"/>
		<path fill="#854B28" d="M0.567,0.75C0.492,0.825,0.139,0.813,0.093,0.779C0.06,0.752,0,0.736,0,0.736V0.7c0,0,0.257,0,0.35,0
			c0.036,0,0.073-0.003,0.111-0.012C0.482,0.718,0.527,0.735,0.567,0.75z"/>
		<path fill="#854B28" d="M0.554,0.326C0.558,0.313,0.538,0.3,0.45,0.3c-0.083,0-0.139,0.008-0.182,0.018
			C0.208,0.333,0.18,0.35,0.15,0.35c-0.044,0-0.127-0.039-0.146-0.048C0.023,0.308,0.105,0.335,0.15,0.325
			c0.012-0.002,0.026-0.007,0.042-0.012c0.051-0.016,0.124-0.038,0.253-0.038C0.567,0.275,0.564,0.308,0.554,0.326z"/>
		<path fill="#C7723B" d="M0.45,0.65c0,0.014,0.005,0.027,0.011,0.038C0.423,0.697,0.386,0.7,0.35,0.7C0.257,0.7,0,0.7,0,0.7V0.3
			c0,0,0.001,0,0.001,0.001c0.001,0,0.001,0,0.003,0.001C0.023,0.311,0.106,0.35,0.15,0.35c0.03,0,0.058-0.017,0.118-0.032
			C0.311,0.308,0.367,0.3,0.45,0.3c0.088,0,0.108,0.012,0.104,0.026C0.55,0.333,0.545,0.338,0.545,0.338
			C0.53,0.352,0.5,0.365,0.5,0.365s-0.117,0.07-0.042,0.07c0.042,0,0.124,0.028,0.172,0.067C0.556,0.563,0.45,0.617,0.45,0.65z"/>
	</g>
</g>
</svg>
