<?xml version="1.0" encoding="utf-8"?>
<!-- Generator: Adobe Illustrator 24.1.2, SVG Export Plug-In . SVG Version: 6.00 Build 0)  -->
<svg version="1.1" id="Capa_1" xmlns="http://www.w3.org/2000/svg" xmlns:xlink="http://www.w3.org/1999/xlink" x="0px" y="0px"
	 width="1px" height="1px" viewBox="0 0 1 1" enable-background="new 0 0 1 1" xml:space="preserve">
<g>
	<g>
		<g>
			<path fill="#5B3018" d="M0,0l0,1h0.65C0.667,1,0.684,0.999,0.7,0.998c0.093-0.009,0.157-0.044,0.2-0.086
				c0.027-0.026,0.045-0.054,0.058-0.08c0.01-0.019,0.017-0.038,0.022-0.056C1,0.71,1,0.643,1,0.6c0-0.112-0.111-0.188-0.201-0.249
				C0.798,0.351,0.795,0.348,0.792,0.347c0.006-0.002,0.012-0.004,0.017-0.006C0.861,0.323,0.95,0.291,0.95,0.2
				c0-0.148-0.161-0.2-0.3-0.2L0,0z"/>
			<path fill="#99582E" d="M0,0.1l0,0.8h0.65C0.9,0.9,0.9,0.7,0.9,0.6S0.65,0.4,0.65,0.35c0-0.1,0.2-0.1,0.2-0.15
				c0-0.1-0.2-0.1-0.2-0.1H0z"/>
			<path fill="#854B28" d="M0,0.7l0,0.036c0,0,0.708,0,0.708-0.068c0-0.017-0.005-0.03-0.014-0.039C0.698,0.635,0.7,0.641,0.7,0.65
				C0.7,0.7,0,0.7,0,0.7z"/>
			<path fill="#854B28" d="M0.601,0.348c0,0-0.208-0.088-0.36-0.077S0.038,0.305,0.038,0.305L0.601,0.348z"/>
			<path fill="#C7723B" d="M0,0.3l0,0.4c0,0,0.7,0,0.7-0.05c0-0.009-0.002-0.015-0.007-0.021c0,0-0.001,0-0.001,0
				C0.688,0.621,0.679,0.615,0.668,0.61C0.666,0.61,0.664,0.608,0.661,0.607c-0.03-0.011-0.073-0.018-0.113-0.036l0.017-0.004
				l0.271-0.064c0,0-0.001-0.001-0.001-0.001C0.827,0.495,0.818,0.488,0.808,0.48C0.737,0.426,0.65,0.379,0.65,0.35L0,0.3z"/>
		</g>
	</g>
	<g>
		<path fill="#5B3018" d="M0,0.9L0,1h1V0.9c0-0.043-0.007-0.085-0.02-0.124c-0.017-0.052-0.045-0.1-0.08-0.14
			C0.857,0.587,0.802,0.549,0.74,0.526C0.697,0.509,0.649,0.5,0.6,0.5c-0.051,0-0.098,0.023-0.13,0.063L0.4,0.65L0.338,0.587
			C0.313,0.563,0.28,0.549,0.246,0.549c-0.027,0-0.054,0.008-0.078,0.026C0.121,0.607,0.083,0.651,0.055,0.699
			C0.048,0.711,0.041,0.723,0.036,0.735C0.013,0.786,0,0.841,0,0.9z"/>
		<path fill="#99572E" d="M0.1,0.9V1h0.8V0.9c0-0.043-0.01-0.086-0.027-0.123C0.84,0.703,0.777,0.645,0.7,0.617
			C0.689,0.613,0.677,0.61,0.664,0.607c-0.002,0-0.005-0.001-0.007-0.001C0.655,0.605,0.652,0.605,0.65,0.604
			C0.639,0.602,0.628,0.601,0.617,0.601c-0.002,0-0.005,0-0.007,0C0.607,0.6,0.603,0.6,0.6,0.6c-0.008,0-0.015,0.001-0.021,0.004
			c-0.007,0.002-0.014,0.006-0.02,0.01C0.555,0.617,0.552,0.621,0.548,0.625l-0.05,0.061l-0.02,0.026
			C0.476,0.715,0.474,0.717,0.472,0.719C0.471,0.72,0.471,0.72,0.47,0.72C0.467,0.723,0.464,0.726,0.461,0.729v0
			C0.458,0.732,0.454,0.735,0.449,0.737C0.448,0.738,0.448,0.738,0.446,0.738C0.443,0.74,0.439,0.742,0.436,0.743
			C0.433,0.745,0.43,0.745,0.427,0.746C0.425,0.747,0.423,0.748,0.42,0.748C0.415,0.749,0.411,0.749,0.405,0.75H0.4
			c-0.007,0-0.013-0.001-0.02-0.002c-0.001,0-0.001,0-0.001,0C0.374,0.746,0.368,0.745,0.363,0.743
			C0.358,0.74,0.352,0.738,0.348,0.735C0.345,0.733,0.342,0.732,0.339,0.729c0,0,0,0,0,0C0.338,0.727,0.336,0.726,0.336,0.726H0.335
			C0.333,0.724,0.331,0.722,0.33,0.72L0.305,0.695L0.3,0.691L0.267,0.658C0.261,0.652,0.255,0.651,0.25,0.65
			C0.248,0.649,0.247,0.649,0.246,0.649c-0.005,0-0.013,0.001-0.019,0.007C0.22,0.66,0.215,0.664,0.21,0.67
			c-0.011,0.009-0.02,0.018-0.03,0.028C0.17,0.709,0.16,0.721,0.152,0.734C0.118,0.782,0.1,0.84,0.1,0.9z"/>
		<path fill="#854B28" d="M0.536,0.88C0.545,0.894,0.55,0.9,0.55,0.9c0.035,0.035,0.045-0.077,0.067-0.299c-0.002,0-0.005,0-0.007,0
			C0.607,0.6,0.603,0.6,0.6,0.6c-0.008,0-0.015,0.001-0.021,0.004C0.564,0.758,0.554,0.855,0.536,0.88z"/>
		<path fill="#C7723B" d="M0.3,0.691V1h0.4V0.617C0.689,0.613,0.677,0.61,0.664,0.607c-0.002,0-0.005-0.001-0.007-0.001
			C0.655,0.605,0.652,0.605,0.65,0.604C0.639,0.602,0.628,0.601,0.617,0.601C0.614,0.628,0.611,0.653,0.61,0.676
			c-0.001,0.01-0.002,0.02-0.003,0.03C0.595,0.813,0.586,0.88,0.571,0.9c-0.006,0.008-0.013,0.008-0.021,0
			c0,0-0.005-0.006-0.014-0.02C0.518,0.854,0.492,0.804,0.473,0.72c-0.001,0-0.001,0-0.001-0.001C0.471,0.72,0.471,0.72,0.47,0.72
			C0.467,0.723,0.464,0.726,0.461,0.729v0C0.458,0.732,0.454,0.735,0.449,0.737C0.448,0.738,0.448,0.738,0.446,0.738
			C0.443,0.74,0.439,0.742,0.436,0.743C0.433,0.745,0.43,0.745,0.427,0.746C0.425,0.747,0.423,0.748,0.42,0.748
			C0.415,0.749,0.411,0.749,0.405,0.75H0.4c-0.007,0-0.013-0.001-0.02-0.002c-0.001,0-0.001,0-0.001,0
			C0.374,0.746,0.368,0.745,0.363,0.743C0.358,0.74,0.352,0.738,0.348,0.735C0.345,0.733,0.342,0.731,0.339,0.729c0,0,0,0,0,0
			C0.338,0.727,0.336,0.726,0.336,0.726H0.335C0.333,0.724,0.331,0.722,0.33,0.72L0.305,0.695L0.3,0.691z"/>
	</g>
</g>
</svg>
