<?xml version="1.0" encoding="utf-8"?>
<!-- Generator: Adobe Illustrator 24.1.2, SVG Export Plug-In . SVG Version: 6.00 Build 0)  -->
<svg version="1.1" id="Capa_1" xmlns="http://www.w3.org/2000/svg" xmlns:xlink="http://www.w3.org/1999/xlink" x="0px" y="0px"
	 width="1px" height="1.45px" viewBox="0 0 1 1.45" enable-background="new 0 0 1 1.45" xml:space="preserve">
<g>
	<rect y="1" fill="#0A0F32" fill-opacity="0.2" width="1" height="0.45"/>
</g>
<g>
	<rect y="0.15" fill="#5B3018" width="1" height="1"/>
	<rect y="0.25" fill="#99582E" width="1" height="0.8"/>
	<path fill="#854B28" d="M1,0.85v0.036H0.895c-0.079-0.001-0.15-0.007-0.208-0.02C0.632,0.855,0.473,0.805,0.373,0.844
		C0.274,0.882,0,0.886,0,0.886V0.85c0,0,0.274-0.004,0.373-0.042c0.1-0.038,0.259,0.011,0.314,0.022
		c0.058,0.012,0.129,0.018,0.208,0.02C0.895,0.85,1,0.85,1,0.85z"/>
	<path fill="#854B28" d="M0.571,0.52C0.478,0.532,0.374,0.521,0.3,0.503C0.255,0.486,0.197,0.475,0.14,0.467L0.118,0.464
		c0,0,0.143-0.074,0.32-0.019C0.557,0.481,0.571,0.52,0.571,0.52z"/>
	<path fill="#C7723B" d="M1,0.45v0.4c0,0-0.047,0.001-0.105,0c-0.079-0.001-0.15-0.008-0.208-0.02
		C0.632,0.819,0.473,0.77,0.373,0.808C0.274,0.846,0,0.85,0,0.85v-0.4h0.002c0.014,0,0.076,0.002,0.144,0.011l0.018,0.002
		c0.045,0.007,0.091,0.016,0.127,0.03c0.058,0.015,0.14,0.024,0.214,0.014C0.525,0.504,0.544,0.5,0.562,0.495
		C0.648,0.468,0.812,0.45,1,0.45z"/>
	<g>
		<g>
			<path fill="#0B430B" d="M0.38,0.601c-0.033-0.076-0.113-0.127-0.235-0.15C0.123,0.447,0.101,0.456,0.09,0.475
				C0.087,0.48,0.02,0.592,0.067,0.699C0.1,0.775,0.18,0.826,0.302,0.849C0.305,0.85,0.309,0.85,0.312,0.85
				c0.019,0,0.035-0.009,0.045-0.025C0.361,0.82,0.428,0.708,0.38,0.601z M0.129,0.672C0.102,0.611,0.131,0.543,0.143,0.519
				c0.093,0.02,0.153,0.056,0.176,0.109c0.027,0.061-0.002,0.129-0.014,0.153C0.211,0.761,0.152,0.725,0.129,0.672z"/>
			<path fill="#26651A" d="M0.304,0.781C0.298,0.78,0.292,0.778,0.286,0.776C0.203,0.756,0.15,0.721,0.129,0.672
				C0.109,0.628,0.119,0.58,0.13,0.548c0.005-0.012,0.01-0.022,0.013-0.029c0.093,0.02,0.153,0.056,0.176,0.109
				C0.345,0.689,0.317,0.757,0.304,0.781z"/>
			<path fill="#317921" d="M0.286,0.776C0.203,0.756,0.15,0.721,0.129,0.672C0.109,0.628,0.119,0.58,0.13,0.548
				c0.083,0.02,0.137,0.055,0.158,0.104C0.307,0.697,0.298,0.744,0.286,0.776z"/>
		</g>
		<g>
			<path fill="#0B430B" d="M0.924,0.339c-0.001,0-0.001,0.001-0.002,0.001C0.912,0.347,0.667,0.516,0.63,0.7
				C0.567,1.013,0.211,1.185,0.209,1.186C0.191,1.195,0.17,1.2,0.15,1.2c-0.051,0-0.096-0.027-0.119-0.073
				c-0.032-0.064-0.005-0.142,0.058-0.174L0.09,0.952C0.114,0.94,0.175,0.905,0.236,0.851C0.282,0.81,0.317,0.768,0.34,0.727
				c0.014-0.026,0.024-0.052,0.03-0.078c0.056-0.277,0.347-0.487,0.407-0.527C0.798,0.107,0.824,0.1,0.85,0.1
				c0.044,0,0.085,0.021,0.111,0.058C1.001,0.218,0.984,0.299,0.924,0.339z"/>
			<path fill="#26651A" d="M0.906,0.241C0.904,0.256,0.895,0.268,0.883,0.276C0.881,0.277,0.88,0.279,0.879,0.279
				c-0.03,0.02-0.28,0.198-0.322,0.407c-0.055,0.271-0.37,0.427-0.379,0.432c-0.001,0-0.002,0-0.002,0.001
				C0.167,1.123,0.158,1.125,0.15,1.125c-0.023,0-0.042-0.012-0.052-0.031c0-0.002-0.002-0.003-0.002-0.005
				c-0.01-0.026,0.001-0.057,0.027-0.07c0.001,0,0.001-0.001,0.002-0.001c0.033-0.017,0.098-0.055,0.161-0.111
				c0.053-0.047,0.093-0.095,0.12-0.143c0.018-0.031,0.03-0.064,0.038-0.1c0.05-0.248,0.321-0.444,0.374-0.479
				c0.01-0.007,0.021-0.01,0.033-0.01c0.008,0,0.015,0.001,0.023,0.004C0.884,0.183,0.893,0.19,0.9,0.199
				C0.907,0.212,0.909,0.227,0.906,0.241z"/>
			<path fill="#307320" d="M0.876,0.211C0.873,0.226,0.864,0.238,0.852,0.246C0.851,0.247,0.849,0.248,0.848,0.249
				c-0.03,0.02-0.28,0.198-0.322,0.407c-0.055,0.271-0.37,0.427-0.379,0.432c-0.001,0-0.002,0-0.002,0
				C0.137,1.092,0.128,1.095,0.12,1.095c-0.009,0-0.016-0.002-0.023-0.005c-0.01-0.026,0.001-0.057,0.027-0.07
				c0.001,0,0.001-0.001,0.002-0.001c0.033-0.017,0.098-0.055,0.161-0.111C0.34,0.861,0.38,0.813,0.407,0.765
				c0.018-0.031,0.03-0.064,0.038-0.1c0.05-0.248,0.321-0.444,0.374-0.479c0.01-0.007,0.021-0.01,0.033-0.01
				c0.008,0,0.015,0.001,0.023,0.004C0.877,0.189,0.877,0.201,0.876,0.211z"/>
		</g>
		<g>
			<path fill="#0B430B" d="M0.685,0.353C0.614,0.4,0.577,0.488,0.575,0.615C0.574,0.638,0.588,0.658,0.609,0.666
				C0.614,0.668,0.738,0.717,0.838,0.65c0.07-0.047,0.108-0.135,0.11-0.263c0.001-0.004,0-0.007-0.001-0.01
				c-0.003-0.018-0.015-0.033-0.033-0.04C0.909,0.334,0.785,0.286,0.685,0.353z M0.8,0.593c-0.057,0.038-0.13,0.02-0.156,0.013
				c0.004-0.097,0.03-0.163,0.079-0.196c0.057-0.038,0.13-0.021,0.156-0.012C0.875,0.495,0.849,0.56,0.8,0.593z"/>
			<path fill="#26651A" d="M0.644,0.606c0.001-0.013,0.001-0.025,0.002-0.037C0.655,0.492,0.68,0.438,0.723,0.41
				c0.052-0.034,0.118-0.024,0.148-0.014c0.003,0.001,0.006,0.002,0.008,0.002C0.876,0.495,0.849,0.561,0.8,0.593
				C0.743,0.631,0.67,0.613,0.644,0.606z"/>
			<path fill="#317921" d="M0.646,0.569C0.655,0.492,0.68,0.438,0.723,0.41c0.052-0.034,0.118-0.024,0.148-0.014
				c-0.009,0.077-0.034,0.13-0.077,0.158C0.743,0.589,0.677,0.578,0.646,0.569z"/>
		</g>
	</g>
</g>
</svg>
