<?xml version="1.0" encoding="utf-8"?>
<!-- Generator: Adobe Illustrator 24.1.2, SVG Export Plug-In . SVG Version: 6.00 Build 0)  -->
<svg version="1.1" id="Capa_1" xmlns="http://www.w3.org/2000/svg" xmlns:xlink="http://www.w3.org/1999/xlink" x="0px" y="0px"
	 width="1px" height="1px" viewBox="0 0 1 1" enable-background="new 0 0 1 1" xml:space="preserve">
<g>
	<g>
		<g>
			<path fill="#5B3018" d="M1,0v1H0.35C0.333,1,0.316,0.999,0.3,0.998C0.207,0.988,0.143,0.954,0.1,0.912
				c-0.027-0.026-0.045-0.054-0.058-0.08C0.033,0.813,0.026,0.795,0.02,0.776C0,0.71,0,0.643,0,0.6c0-0.112,0.111-0.188,0.201-0.249
				c0.002-0.001,0.004-0.003,0.007-0.004C0.202,0.345,0.196,0.343,0.191,0.341C0.139,0.323,0.05,0.291,0.05,0.2
				c0-0.148,0.161-0.2,0.3-0.2L1,0z"/>
			<path fill="#99582E" d="M1,0.1v0.8H0.35C0.1,0.9,0.1,0.7,0.1,0.6s0.25-0.2,0.25-0.25c0-0.1-0.2-0.1-0.2-0.15
				c0-0.1,0.2-0.1,0.2-0.1H1z"/>
			<path fill="#854B28" d="M1,0.7v0.036c0,0-0.708,0-0.708-0.068c0-0.017,0.005-0.03,0.014-0.039C0.302,0.635,0.3,0.641,0.3,0.65
				C0.3,0.7,1,0.7,1,0.7z"/>
			<path fill="#854B28" d="M0.399,0.348c0,0,0.208-0.088,0.36-0.077s0.203,0.033,0.203,0.033L0.399,0.348z"/>
			<path fill="#C7723B" d="M1,0.3v0.4c0,0-0.7,0-0.7-0.05c0-0.009,0.002-0.015,0.007-0.021c0,0,0.001,0,0.001,0
				C0.313,0.621,0.321,0.615,0.332,0.61C0.334,0.61,0.336,0.608,0.339,0.607c0.03-0.011,0.073-0.018,0.113-0.036L0.435,0.567
				L0.164,0.503c0,0,0.001-0.001,0.001-0.001C0.173,0.495,0.182,0.488,0.192,0.48C0.263,0.426,0.35,0.379,0.35,0.35L1,0.3z"/>
		</g>
	</g>
	<g>
		<path fill="#5B3018" d="M1,0.9V1H0V0.9c0-0.043,0.007-0.085,0.02-0.124c0.017-0.052,0.045-0.1,0.08-0.14
			c0.043-0.048,0.098-0.086,0.159-0.11C0.303,0.509,0.351,0.5,0.4,0.5c0.051,0,0.098,0.023,0.13,0.063L0.6,0.65l0.063-0.063
			C0.688,0.563,0.72,0.549,0.754,0.549c0.027,0,0.054,0.008,0.078,0.026c0.046,0.032,0.085,0.076,0.113,0.124
			c0.007,0.012,0.014,0.024,0.019,0.036C0.988,0.786,1,0.841,1,0.9z"/>
		<path fill="#99572E" d="M0.9,0.9V1H0.1V0.9c0-0.043,0.01-0.086,0.027-0.123C0.16,0.703,0.223,0.645,0.3,0.617
			c0.011-0.004,0.023-0.007,0.036-0.01c0.002,0,0.005-0.001,0.007-0.001C0.345,0.605,0.348,0.605,0.35,0.604
			c0.011-0.002,0.022-0.004,0.033-0.004c0.002,0,0.005,0,0.007,0C0.393,0.6,0.397,0.6,0.4,0.6c0.008,0,0.015,0.001,0.021,0.004
			c0.007,0.002,0.014,0.006,0.02,0.01c0.004,0.003,0.007,0.007,0.011,0.011l0.05,0.061l0.02,0.026
			c0.002,0.002,0.004,0.004,0.006,0.007C0.529,0.72,0.529,0.72,0.53,0.72c0.003,0.003,0.006,0.005,0.009,0.008v0
			c0.004,0.003,0.008,0.006,0.012,0.008c0.001,0.001,0.001,0.001,0.002,0.001c0.004,0.002,0.007,0.004,0.01,0.005
			C0.567,0.745,0.57,0.745,0.573,0.746C0.575,0.747,0.577,0.748,0.58,0.748c0.005,0.001,0.01,0.002,0.015,0.002H0.6
			c0.007,0,0.013-0.001,0.02-0.002c0.001,0,0.001,0,0.001,0c0.006-0.001,0.011-0.003,0.017-0.005
			C0.642,0.74,0.648,0.738,0.652,0.735c0.003-0.002,0.006-0.004,0.009-0.007c0,0,0,0,0,0c0.002-0.001,0.003-0.002,0.004-0.003h0.001
			C0.667,0.724,0.669,0.722,0.67,0.72l0.025-0.025L0.7,0.691l0.033-0.033C0.739,0.652,0.745,0.651,0.75,0.65
			c0.002-0.001,0.003-0.001,0.004-0.001c0.005,0,0.012,0.001,0.019,0.007C0.78,0.66,0.785,0.664,0.79,0.67
			c0.011,0.009,0.02,0.018,0.03,0.028c0.01,0.011,0.02,0.023,0.028,0.036C0.882,0.782,0.9,0.84,0.9,0.9z"/>
		<path fill="#854B28" d="M0.464,0.88C0.455,0.894,0.45,0.9,0.45,0.9C0.415,0.935,0.405,0.823,0.383,0.601c0.002,0,0.005,0,0.007,0
			C0.393,0.6,0.397,0.6,0.4,0.6c0.008,0,0.015,0.001,0.021,0.004C0.436,0.758,0.446,0.855,0.464,0.88z"/>
		<path fill="#C7723B" d="M0.7,0.691V1H0.3V0.617c0.011-0.004,0.023-0.007,0.036-0.01c0.002,0,0.005-0.001,0.007-0.001
			C0.345,0.605,0.348,0.605,0.35,0.604c0.011-0.002,0.022-0.004,0.033-0.004C0.386,0.628,0.389,0.653,0.39,0.676
			c0.001,0.01,0.002,0.02,0.003,0.03C0.405,0.813,0.414,0.88,0.429,0.9c0.006,0.008,0.013,0.008,0.021,0c0,0,0.005-0.006,0.014-0.02
			c0.017-0.026,0.044-0.076,0.063-0.16c0.001,0,0.001,0,0.001-0.001C0.529,0.72,0.529,0.72,0.53,0.72
			c0.003,0.003,0.006,0.005,0.009,0.008v0c0.004,0.003,0.008,0.006,0.012,0.008c0.001,0.001,0.001,0.001,0.002,0.001
			c0.004,0.002,0.007,0.004,0.01,0.005C0.567,0.745,0.57,0.745,0.573,0.746C0.575,0.747,0.577,0.748,0.58,0.748
			c0.005,0.001,0.01,0.002,0.015,0.002H0.6c0.007,0,0.013-0.001,0.02-0.002c0.001,0,0.001,0,0.001,0
			c0.006-0.001,0.012-0.003,0.017-0.005C0.642,0.74,0.648,0.738,0.652,0.735c0.003-0.002,0.006-0.004,0.009-0.007c0,0,0,0,0,0
			c0.002-0.001,0.003-0.002,0.004-0.003h0.001C0.667,0.724,0.669,0.722,0.67,0.72l0.025-0.025L0.7,0.691z"/>
	</g>
</g>
</svg>
