<?xml version="1.0" encoding="utf-8"?>
<!-- Generator: Adobe Illustrator 24.1.2, SVG Export Plug-In . SVG Version: 6.00 Build 0)  -->
<svg version="1.1" id="Capa_1" xmlns="http://www.w3.org/2000/svg" xmlns:xlink="http://www.w3.org/1999/xlink" x="0px" y="0px"
	 width="1px" height="1.5px" viewBox="0 0 1 1.5" enable-background="new 0 0 1 1.5" xml:space="preserve">
<g>
	<path fill="#0A0F32" fill-opacity="0.2" d="M0.9,1.05C0.95,1.05,1,1.1,1,1.16v0.23C1,1.45,0.95,1.5,0.9,1.5H0l0-0.45H0.9z"/>
</g>
<g>
	<path fill="#5B3018" d="M0.65,0.2c0.139,0,0.3,0.052,0.3,0.2c0,0.091-0.089,0.123-0.141,0.141C0.804,0.543,0.798,0.545,0.792,0.547
		C0.795,0.548,0.797,0.55,0.799,0.551C0.889,0.612,1,0.688,1,0.8c0,0.055,0,0.148-0.042,0.232C0.92,1.109,0.836,1.2,0.65,1.2H0l0-1
		H0.65z"/>
	<path fill="#99582E" d="M0.65,0.3c0,0,0.2,0,0.2,0.1c0,0.05-0.2,0.05-0.2,0.15C0.65,0.6,0.9,0.7,0.9,0.8s0,0.3-0.25,0.3H0l0-0.8
		H0.65z"/>
	<path fill="#854B28" d="M0.7,0.85c0-0.009-0.002-0.015-0.006-0.021c0.009,0.009,0.014,0.022,0.014,0.039
		C0.708,0.936,0,0.936,0,0.936L0,0.9C0,0.9,0.7,0.9,0.7,0.85z"/>
	<path fill="#854B28" d="M0.038,0.505c0,0,0.052-0.022,0.203-0.034c0.152-0.011,0.36,0.077,0.36,0.077L0.038,0.505z"/>
	<path fill="#C7723B" d="M0.65,0.55c0,0.029,0.087,0.076,0.158,0.13c0.01,0.008,0.019,0.015,0.027,0.022l0.001,0.001L0.565,0.767
		L0.548,0.771c0.04,0.018,0.083,0.025,0.113,0.036C0.664,0.808,0.666,0.81,0.668,0.81c0.011,0.005,0.019,0.011,0.024,0.019h0.001
		C0.698,0.835,0.7,0.841,0.7,0.85C0.7,0.9,0,0.9,0,0.9l0-0.4L0.65,0.55z"/>
	<g>
		<g>
			<path fill="#0B430B" d="M0.308,0.333c0.008,0.015,0.023,0.023,0.04,0.023c0.003,0,0.006,0,0.009-0.001
				c0.109-0.021,0.18-0.066,0.21-0.133C0.61,0.126,0.55,0.026,0.547,0.023c-0.01-0.017-0.029-0.026-0.049-0.022
				c-0.109,0.021-0.18,0.065-0.21,0.133C0.246,0.23,0.306,0.329,0.308,0.333z M0.356,0.294C0.345,0.273,0.32,0.213,0.343,0.158
				C0.364,0.111,0.417,0.078,0.5,0.061c0.01,0.021,0.036,0.082,0.012,0.136C0.491,0.244,0.439,0.277,0.356,0.294z"/>
			<path fill="#26651A" d="M0.343,0.158C0.364,0.111,0.417,0.078,0.5,0.061c0.003,0.006,0.007,0.015,0.011,0.026
				c0.01,0.028,0.018,0.071,0.001,0.11C0.493,0.241,0.446,0.272,0.372,0.29C0.367,0.292,0.361,0.293,0.356,0.294
				C0.345,0.273,0.32,0.213,0.343,0.158z"/>
			<path fill="#317921" d="M0.371,0.18c0.019-0.044,0.067-0.075,0.14-0.093c0.01,0.028,0.018,0.071,0.001,0.11
				C0.493,0.241,0.446,0.272,0.372,0.29C0.362,0.262,0.354,0.219,0.371,0.18z"/>
		</g>
		<g>
			<path fill="#0B430B" d="M0.065,0.139C0.09,0.114,0.122,0.1,0.158,0.1c0.035,0,0.069,0.014,0.094,0.04
				c0.109,0.108,0.133,0.186,0.166,0.293C0.425,0.457,0.433,0.482,0.442,0.51c0.038,0.111,0.16,0.196,0.161,0.197
				c0.061,0.041,0.076,0.124,0.036,0.184C0.614,0.928,0.573,0.95,0.529,0.95c-0.027,0-0.053-0.008-0.074-0.023
				C0.433,0.913,0.256,0.788,0.191,0.594L0.186,0.579C0.179,0.554,0.171,0.532,0.165,0.511C0.136,0.416,0.127,0.39,0.064,0.327
				C0.012,0.275,0.012,0.191,0.065,0.139z"/>
			<path fill="#26651A" d="M0.116,0.192c0.006-0.005,0.011-0.01,0.018-0.012c0.007-0.004,0.015-0.005,0.023-0.005
				c0.015,0,0.03,0.006,0.041,0.017c0.095,0.096,0.115,0.157,0.147,0.261c0.009,0.025,0.017,0.05,0.026,0.079
				C0.41,0.649,0.514,0.735,0.557,0.766C0.558,0.767,0.56,0.768,0.56,0.769C0.584,0.785,0.592,0.815,0.581,0.84
				C0.58,0.843,0.579,0.846,0.577,0.849C0.566,0.865,0.548,0.875,0.529,0.875c-0.012,0-0.022-0.003-0.031-0.01
				C0.489,0.86,0.32,0.745,0.262,0.57L0.258,0.557L0.251,0.535c-0.005-0.015-0.01-0.03-0.014-0.044
				c-0.031-0.1-0.043-0.14-0.12-0.217C0.095,0.251,0.095,0.214,0.116,0.192z"/>
			<path fill="#307320" d="M0.134,0.18c0.007-0.004,0.015-0.005,0.023-0.005c0.015,0,0.03,0.006,0.041,0.017
				c0.095,0.096,0.115,0.157,0.147,0.261c0.009,0.025,0.017,0.05,0.026,0.079C0.41,0.649,0.514,0.735,0.557,0.766
				C0.558,0.767,0.56,0.768,0.56,0.769c0.024,0.016,0.032,0.046,0.021,0.072C0.574,0.844,0.565,0.846,0.557,0.846
				c-0.011,0-0.022-0.003-0.031-0.01C0.519,0.831,0.35,0.715,0.291,0.541L0.287,0.529L0.28,0.507C0.275,0.49,0.27,0.476,0.266,0.462
				c-0.031-0.1-0.043-0.14-0.12-0.217C0.129,0.227,0.125,0.201,0.134,0.18z"/>
		</g>
		<g>
			<path fill="#0B430B" d="M0.451,0.745c-0.006-0.016-0.02-0.026-0.036-0.029C0.412,0.715,0.409,0.715,0.406,0.715
				C0.295,0.717,0.218,0.75,0.177,0.812c-0.058,0.087-0.016,0.196-0.014,0.2C0.17,1.03,0.188,1.042,0.208,1.041
				c0.111-0.002,0.188-0.035,0.229-0.096C0.496,0.858,0.453,0.749,0.451,0.745z M0.398,0.775C0.405,0.798,0.42,0.862,0.387,0.912
				c-0.028,0.042-0.086,0.065-0.17,0.069C0.21,0.959,0.195,0.895,0.228,0.845C0.256,0.802,0.313,0.779,0.398,0.775z"/>
			<path fill="#26651A" d="M0.228,0.845c0.028-0.043,0.085-0.066,0.17-0.069C0.398,0.777,0.4,0.78,0.4,0.782
				c0.008,0.027,0.017,0.084-0.013,0.13C0.363,0.949,0.316,0.971,0.248,0.979c-0.01,0-0.02,0.001-0.032,0.001
				C0.21,0.958,0.195,0.894,0.228,0.845z"/>
			<path fill="#317921" d="M0.261,0.849C0.286,0.812,0.332,0.79,0.4,0.782c0.008,0.027,0.017,0.084-0.013,0.13
				C0.363,0.949,0.316,0.971,0.248,0.979C0.241,0.952,0.232,0.895,0.261,0.849z"/>
		</g>
	</g>
</g>
</svg>
