<?xml version="1.0" encoding="utf-8"?>
<!-- Generator: Adobe Illustrator 24.1.2, SVG Export Plug-In . SVG Version: 6.00 Build 0)  -->
<svg version="1.1" id="Capa_1" xmlns="http://www.w3.org/2000/svg" xmlns:xlink="http://www.w3.org/1999/xlink" x="0px" y="0px"
	 width="1px" height="1.5px" viewBox="0 0 1 1.5" enable-background="new 0 0 1 1.5" xml:space="preserve">
<g>
	<path fill="#0A0F32" fill-opacity="0.2" d="M1,1.05V1.5H0.1C0.05,1.5,0,1.45,0,1.39V1.16C0,1.1,0.05,1.05,0.1,1.05H1z"/>
</g>
<g>
	<path fill="#5B3018" d="M1,0.2v1H0.35c-0.186,0-0.27-0.091-0.308-0.168C0,0.948,0,0.855,0,0.8c0-0.112,0.111-0.188,0.201-0.249
		c0.002-0.001,0.004-0.003,0.007-0.004C0.202,0.545,0.196,0.543,0.191,0.541C0.139,0.523,0.05,0.491,0.05,0.4
		c0-0.148,0.161-0.2,0.3-0.2H1z"/>
	<path fill="#99582E" d="M1,0.3v0.8H0.35C0.1,1.1,0.1,0.9,0.1,0.8s0.25-0.2,0.25-0.25c0-0.1-0.2-0.1-0.2-0.15c0-0.1,0.2-0.1,0.2-0.1
		H1z"/>
	<path fill="#854B28" d="M1,0.9v0.036c0,0-0.708,0-0.708-0.068c0-0.017,0.005-0.03,0.014-0.039C0.302,0.835,0.3,0.841,0.3,0.85
		C0.3,0.9,1,0.9,1,0.9z"/>
	<path fill="#854B28" d="M0.399,0.548c0,0,0.208-0.088,0.36-0.077C0.91,0.483,0.962,0.505,0.962,0.505L0.399,0.548z"/>
	<path fill="#C7723B" d="M1,0.5v0.4c0,0-0.7,0-0.7-0.05c0-0.009,0.002-0.015,0.007-0.021c0,0,0.001,0,0.001,0
		C0.313,0.821,0.321,0.815,0.332,0.81C0.334,0.81,0.336,0.808,0.339,0.807c0.03-0.011,0.073-0.018,0.113-0.036L0.435,0.767
		L0.164,0.703c0,0,0.001-0.001,0.001-0.001C0.173,0.695,0.182,0.688,0.192,0.68C0.263,0.626,0.35,0.579,0.35,0.55L1,0.5z"/>
	<g>
		<g>
			<path fill="#0B430B" d="M0.712,0.134c-0.03-0.068-0.101-0.112-0.21-0.133c-0.02-0.004-0.039,0.005-0.049,0.022
				C0.45,0.026,0.39,0.126,0.433,0.222c0.03,0.067,0.101,0.112,0.21,0.133c0.003,0.001,0.006,0.001,0.009,0.001
				c0.017,0,0.032-0.008,0.04-0.023C0.694,0.329,0.754,0.23,0.712,0.134z M0.488,0.197C0.464,0.143,0.49,0.082,0.5,0.061
				c0.083,0.017,0.136,0.05,0.157,0.097C0.68,0.213,0.655,0.273,0.644,0.294C0.561,0.277,0.509,0.244,0.488,0.197z"/>
			<path fill="#26651A" d="M0.644,0.294C0.639,0.293,0.633,0.292,0.628,0.29c-0.074-0.018-0.121-0.049-0.14-0.093
				c-0.017-0.039-0.009-0.082,0.001-0.11C0.493,0.076,0.497,0.067,0.5,0.061c0.083,0.017,0.136,0.05,0.157,0.097
				C0.68,0.213,0.655,0.273,0.644,0.294z"/>
			<path fill="#317921" d="M0.628,0.29c-0.074-0.018-0.121-0.049-0.14-0.093c-0.017-0.039-0.009-0.082,0.001-0.11
				C0.562,0.105,0.61,0.136,0.629,0.18C0.646,0.219,0.638,0.262,0.628,0.29z"/>
		</g>
		<g>
			<path fill="#0B430B" d="M0.936,0.327C0.873,0.39,0.864,0.416,0.835,0.511C0.829,0.532,0.821,0.554,0.814,0.579L0.809,0.594
				C0.744,0.788,0.567,0.913,0.545,0.927C0.524,0.942,0.498,0.95,0.471,0.95c-0.044,0-0.085-0.022-0.11-0.059
				c-0.04-0.06-0.025-0.143,0.036-0.184C0.398,0.706,0.52,0.621,0.558,0.51c0.009-0.028,0.017-0.053,0.024-0.077
				c0.033-0.107,0.057-0.185,0.166-0.293C0.773,0.114,0.807,0.1,0.842,0.1c0.036,0,0.068,0.014,0.093,0.039
				C0.988,0.191,0.988,0.275,0.936,0.327z"/>
			<path fill="#26651A" d="M0.883,0.274c-0.077,0.077-0.089,0.117-0.12,0.217C0.759,0.505,0.754,0.52,0.749,0.535L0.742,0.557
				L0.738,0.57C0.68,0.745,0.511,0.86,0.502,0.865c-0.009,0.007-0.019,0.01-0.031,0.01c-0.019,0-0.037-0.01-0.048-0.026
				C0.421,0.846,0.42,0.843,0.419,0.84C0.408,0.815,0.416,0.785,0.44,0.769C0.44,0.768,0.442,0.767,0.443,0.766
				C0.486,0.735,0.59,0.649,0.629,0.532c0.009-0.029,0.017-0.054,0.026-0.079c0.032-0.104,0.052-0.165,0.147-0.261
				c0.011-0.011,0.026-0.017,0.041-0.017c0.008,0,0.016,0.001,0.023,0.005c0.007,0.002,0.012,0.007,0.018,0.012
				C0.905,0.214,0.905,0.251,0.883,0.274z"/>
			<path fill="#307320" d="M0.854,0.245c-0.077,0.077-0.089,0.117-0.12,0.217C0.73,0.476,0.725,0.49,0.72,0.507L0.713,0.529
				L0.709,0.541C0.65,0.715,0.481,0.831,0.474,0.836c-0.009,0.007-0.02,0.01-0.031,0.01c-0.008,0-0.017-0.002-0.024-0.005
				C0.408,0.815,0.416,0.785,0.44,0.769C0.44,0.768,0.442,0.767,0.443,0.766C0.486,0.735,0.59,0.649,0.629,0.532
				c0.009-0.029,0.017-0.054,0.026-0.079c0.032-0.104,0.052-0.165,0.147-0.261c0.011-0.011,0.026-0.017,0.041-0.017
				c0.008,0,0.016,0.001,0.023,0.005C0.875,0.201,0.871,0.227,0.854,0.245z"/>
		</g>
		<g>
			<path fill="#0B430B" d="M0.563,0.945c0.041,0.061,0.118,0.094,0.229,0.096c0.02,0.001,0.038-0.011,0.045-0.029
				c0.002-0.004,0.044-0.113-0.014-0.2C0.782,0.75,0.705,0.717,0.594,0.715c-0.003,0-0.006,0-0.009,0.001
				c-0.016,0.003-0.03,0.013-0.036,0.029C0.547,0.749,0.504,0.858,0.563,0.945z M0.772,0.845c0.033,0.05,0.018,0.114,0.011,0.136
				C0.699,0.977,0.641,0.954,0.613,0.912C0.58,0.862,0.595,0.798,0.602,0.775C0.687,0.779,0.744,0.802,0.772,0.845z"/>
			<path fill="#26651A" d="M0.784,0.98C0.772,0.98,0.762,0.979,0.752,0.979c-0.068-0.008-0.115-0.03-0.139-0.067
				C0.583,0.866,0.592,0.809,0.6,0.782C0.6,0.78,0.602,0.777,0.602,0.776c0.085,0.003,0.142,0.026,0.17,0.069
				C0.805,0.894,0.79,0.958,0.784,0.98z"/>
			<path fill="#317921" d="M0.752,0.979c-0.068-0.008-0.115-0.03-0.139-0.067C0.583,0.866,0.592,0.809,0.6,0.782
				c0.068,0.008,0.114,0.03,0.139,0.067C0.768,0.895,0.759,0.952,0.752,0.979z"/>
		</g>
	</g>
</g>
</svg>
