<?xml version="1.0" encoding="utf-8"?>
<!-- Generator: Adobe Illustrator 24.1.2, SVG Export Plug-In . SVG Version: 6.00 Build 0)  -->
<svg version="1.1" id="Capa_1" xmlns="http://www.w3.org/2000/svg" xmlns:xlink="http://www.w3.org/1999/xlink" x="0px" y="0px"
	 width="1.2px" height="1px" viewBox="0 0 1.2 1" enable-background="new 0 0 1.2 1" xml:space="preserve">
<g>
	<rect x="0.1" fill="#5B3018" width="1" height="1"/>
	<rect x="0.2" fill="#99572E" width="0.8" height="1"/>
	<path fill="#854B28" d="M0.8,0.85c0,0,0.05-0.05,0.05-0.2S0.8,0.45,0.8,0.45V0.85z"/>
	<path fill="#854B28" d="M0.45,0.05c0,0-0.15,0.11-0.15,0.275S0.45,0.6,0.45,0.6V0.05z"/>
	<path fill="#C7723B" d="M0.8,0v1H0.4c0,0,0.05-0.35,0.05-0.6S0.4,0.206,0.4,0H0.8z"/>
	<g>
		<g>
			<path fill="#0B430B" d="M1.2,0.141c0,0.076-0.061,0.139-0.136,0.141C1.051,0.283,0.9,0.307,0.708,0.539
				C0.441,0.86,0.227,0.973,0.204,0.985C0.184,0.995,0.162,1,0.141,1C0.087,1,0.039,0.97,0.015,0.922
				C-0.02,0.853,0.008,0.767,0.077,0.733c0.002-0.001,0.187-0.1,0.416-0.375C0.782,0.01,1.032,0,1.06,0C1.137,0,1.2,0.063,1.2,0.141
				z"/>
			<path fill="#26651A" d="M1.124,0.141c0,0.035-0.028,0.064-0.064,0.064c-0.001,0-0.181,0.009-0.41,0.285
				c-0.261,0.314-0.471,0.423-0.48,0.427C0.16,0.921,0.15,0.923,0.141,0.923c-0.023,0-0.044-0.011-0.055-0.033
				C0.084,0.889,0.084,0.888,0.084,0.887C0.068,0.856,0.08,0.817,0.112,0.801c0.002-0.001,0.197-0.102,0.439-0.394
				C0.822,0.08,1.05,0.077,1.06,0.077c0.011,0,0.021,0.002,0.03,0.008C1.11,0.095,1.124,0.116,1.124,0.141z"/>
			<path fill="#307320" d="M1.098,0.115c0,0.036-0.028,0.064-0.064,0.064c-0.001,0-0.181,0.009-0.41,0.285
				C0.362,0.778,0.152,0.886,0.143,0.89C0.134,0.895,0.125,0.897,0.115,0.897c-0.01,0-0.02-0.002-0.029-0.008
				C0.084,0.889,0.084,0.888,0.084,0.887C0.068,0.856,0.08,0.817,0.112,0.801c0.002-0.001,0.197-0.102,0.439-0.394
				C0.822,0.08,1.05,0.077,1.06,0.077c0.011,0,0.021,0.002,0.03,0.008C1.095,0.093,1.098,0.104,1.098,0.115z"/>
		</g>
		<g>
			<path fill="#0B430B" d="M0.085,0.578c0.047,0.07,0.135,0.108,0.263,0.11c0.023,0.001,0.043-0.013,0.051-0.034
				c0.002-0.005,0.051-0.129-0.016-0.229c-0.047-0.07-0.135-0.108-0.263-0.11c-0.004-0.001-0.007,0-0.01,0.001
				C0.092,0.319,0.076,0.331,0.07,0.349C0.067,0.354,0.018,0.478,0.085,0.578z M0.325,0.463c0.038,0.057,0.021,0.13,0.013,0.156
				C0.241,0.616,0.175,0.589,0.143,0.54C0.105,0.483,0.122,0.41,0.13,0.384C0.227,0.388,0.293,0.414,0.325,0.463z"/>
			<path fill="#26651A" d="M0.338,0.619C0.326,0.619,0.313,0.618,0.302,0.617C0.224,0.608,0.17,0.583,0.142,0.54
				C0.108,0.488,0.119,0.422,0.128,0.392C0.129,0.389,0.13,0.386,0.13,0.384c0.097,0.003,0.163,0.03,0.195,0.079
				C0.364,0.52,0.346,0.593,0.338,0.619z"/>
			<path fill="#317921" d="M0.302,0.617C0.224,0.608,0.17,0.583,0.142,0.54C0.108,0.488,0.119,0.422,0.128,0.392
				c0.077,0.009,0.131,0.034,0.159,0.077C0.321,0.52,0.31,0.586,0.302,0.617z"/>
		</g>
		<g>
			<path fill="#0B430B" d="M0.713,0.628c0.047,0.07,0.135,0.108,0.263,0.11c0.023,0.001,0.043-0.013,0.051-0.034
				c0.002-0.005,0.051-0.129-0.016-0.229c-0.047-0.07-0.135-0.108-0.263-0.11c-0.004-0.001-0.007,0-0.01,0.001
				C0.719,0.369,0.704,0.381,0.697,0.399C0.694,0.404,0.646,0.528,0.713,0.628z M0.953,0.513c0.038,0.057,0.021,0.13,0.013,0.156
				C0.869,0.666,0.802,0.639,0.77,0.59C0.732,0.533,0.749,0.46,0.758,0.434C0.855,0.438,0.921,0.464,0.953,0.513z"/>
			<path fill="#26651A" d="M0.966,0.669C0.953,0.669,0.941,0.668,0.929,0.667C0.852,0.658,0.798,0.633,0.77,0.59
				C0.736,0.538,0.746,0.472,0.756,0.442c0.001-0.003,0.002-0.006,0.002-0.008c0.097,0.003,0.163,0.03,0.195,0.079
				C0.991,0.57,0.973,0.643,0.966,0.669z"/>
			<path fill="#317921" d="M0.929,0.667C0.852,0.658,0.798,0.633,0.77,0.59C0.736,0.538,0.746,0.472,0.756,0.442
				c0.077,0.009,0.131,0.034,0.159,0.077C0.949,0.57,0.938,0.636,0.929,0.667z"/>
		</g>
	</g>
</g>
</svg>
