<?xml version="1.0" encoding="utf-8"?>
<!-- Generator: Adobe Illustrator 24.1.2, SVG Export Plug-In . SVG Version: 6.00 Build 0)  -->
<svg version="1.1" id="Capa_1" xmlns="http://www.w3.org/2000/svg" xmlns:xlink="http://www.w3.org/1999/xlink" x="0px" y="0px"
	 viewBox="0 0 1.1 2" enable-background="new 0 0 1.1 2" xml:space="preserve">
<g>
	<g>
		<circle id="circle16099" fill="#0A0F32" fill-opacity="0.2" cx="0.55" cy="1.5" r="0.5"/>
	</g>
	<circle fill="#8C2931" cx="0.55" cy="1.25" r="0.45"/>
	<circle fill="#EB6B79" cx="0.55" cy="1.25" r="0.363"/>
	<path fill="#0B4161" d="M0.75,0.75h-0.4v0.5c0,0.11,0.09,0.2,0.2,0.2h0c0.11,0,0.2-0.09,0.2-0.2V0.75z"/>
	<path fill="#478AB1" d="M0.65,1v0.25c0,0.027-0.011,0.052-0.03,0.07C0.602,1.339,0.577,1.35,0.55,1.35c-0.055,0-0.1-0.045-0.1-0.1
		V1H0.65z"/>
	<circle fill="#140CAE" cx="0.55" cy="0.55" r="0.55"/>
	<linearGradient id="SVGID_1_" gradientUnits="userSpaceOnUse" x1="0.55" y1="1.0125" x2="0.55" y2="0.0875">
		<stop  offset="0" style="stop-color:#2856BC"/>
		<stop  offset="1" style="stop-color:#2879D7"/>
	</linearGradient>
	<circle fill="url(#SVGID_1_)" cx="0.55" cy="0.55" r="0.463"/>
	<radialGradient id="SVGID_2_" cx="0.6884" cy="0.3516" r="0.5568" gradientUnits="userSpaceOnUse">
		<stop  offset="0.3" style="stop-color:#0069DF"/>
		<stop  offset="1" style="stop-color:#0043B5"/>
	</radialGradient>
	<circle fill="url(#SVGID_2_)" cx="0.55" cy="0.55" r="0.412"/>
	<circle fill="#7DF3FF" cx="0.7" cy="0.35" r="0.1"/>
	<path fill="#7BF2F9" d="M0.65,1.15v0.1c0,0.027-0.011,0.052-0.03,0.07C0.602,1.339,0.577,1.35,0.55,1.35v-0.1
		c0-0.027,0.011-0.052,0.03-0.071C0.598,1.161,0.623,1.15,0.65,1.15z"/>
</g>
</svg>
