<?xml version="1.0" encoding="utf-8"?>
<!-- Generator: Adobe Illustrator 24.1.2, SVG Export Plug-In . SVG Version: 6.00 Build 0)  -->
<svg version="1.1" id="Capa_1" xmlns="http://www.w3.org/2000/svg" xmlns:xlink="http://www.w3.org/1999/xlink" x="0px" y="0px"
	 width="1px" height="1.75px" viewBox="0 0 1 1.75" enable-background="new 0 0 1 1.75" xml:space="preserve">
<g>
	<g>
		<path id="rect10315" fill="#0A0F32" fill-opacity="0.2" d="M0.1,1.3h0.8C0.956,1.3,1,1.351,1,1.413v0.225
			C1,1.699,0.955,1.75,0.9,1.75H0.1C0.045,1.75,0,1.699,0,1.638V1.413C0,1.351,0.045,1.3,0.1,1.3z"/>
	</g>
</g>
<g>
	<path fill="#2A1A6A" d="M1,0.45V1.3c0,0.083-0.067,0.15-0.15,0.15c-0.042,0-0.079-0.017-0.106-0.044
		C0.729,1.39,0.716,1.371,0.709,1.35H0.291c-0.02,0.058-0.076,0.1-0.141,0.1c-0.042,0-0.079-0.017-0.106-0.044
		C0.017,1.379,0,1.341,0,1.3V0.45C0,0.201,0.202,0,0.45,0h0.1C0.798,0,1,0.201,1,0.45z"/>
	<linearGradient id="SVGID_1_" gradientUnits="userSpaceOnUse" x1="0.1" y1="0.725" x2="0.9" y2="0.725">
		<stop  offset="0" style="stop-color:#392B97"/>
		<stop  offset="0.33" style="stop-color:#5A46E1"/>
		<stop  offset="0.66" style="stop-color:#5A46E0"/>
		<stop  offset="0.7486" style="stop-color:#6D59E4"/>
	</linearGradient>
	<path fill="url(#SVGID_1_)" d="M0.9,0.55v0.7H0.1v-0.7c0-0.193,0.157-0.35,0.35-0.35h0.1C0.743,0.2,0.9,0.357,0.9,0.55z"/>
	<linearGradient id="SVGID_2_" gradientUnits="userSpaceOnUse" x1="0.65" y1="0.425" x2="0.75" y2="0.425">
		<stop  offset="0" style="stop-color:#A398EF;stop-opacity:0.2"/>
		<stop  offset="0.32" style="stop-color:#A398EF"/>
		<stop  offset="0.67" style="stop-color:#A398EF"/>
		<stop  offset="1" style="stop-color:#A398EF;stop-opacity:0.2"/>
	</linearGradient>
	<rect x="0.65" y="0.2" fill="url(#SVGID_2_)" width="0.1" height="0.45"/>
	<path fill="#5768AF" d="M0.9,0.45v0.1c0-0.193-0.157-0.35-0.35-0.35h-0.1C0.257,0.2,0.1,0.357,0.1,0.55v-0.1
		c0-0.193,0.157-0.35,0.35-0.35h0.1C0.743,0.1,0.9,0.257,0.9,0.45z"/>
	<path fill="#394980" d="M0.9,0.5v0.05c0-0.158-0.104-0.29-0.247-0.335C0.62,0.205,0.586,0.2,0.55,0.2h-0.1
		C0.257,0.2,0.1,0.357,0.1,0.55V0.5c0-0.118,0.058-0.222,0.147-0.285C0.304,0.174,0.374,0.15,0.45,0.15h0.1
		C0.743,0.15,0.9,0.307,0.9,0.5z"/>
	<path fill="#384E87" d="M0.9,0.5v0.05c0-0.158-0.104-0.29-0.247-0.335C0.596,0.174,0.526,0.15,0.45,0.15h0.1
		C0.743,0.15,0.9,0.307,0.9,0.5z"/>
	<path fill="#394980" d="M0.653,0.215C0.62,0.205,0.586,0.2,0.55,0.2h-0.1C0.257,0.2,0.1,0.357,0.1,0.55V0.5
		c0-0.118,0.058-0.222,0.147-0.285C0.304,0.174,0.374,0.15,0.45,0.15S0.596,0.174,0.653,0.215z"/>
	<path fill="#384573" d="M0.9,0.95v0.4H0.8v-0.1H0.2v0.1H0.1v-0.4c0-0.193,0.158-0.35,0.35-0.35h0.1C0.742,0.6,0.9,0.757,0.9,0.95z"
		/>
	<path fill="#5768AF" d="M0.9,0.85v0.1c0-0.122-0.063-0.23-0.158-0.293C0.688,0.621,0.621,0.6,0.55,0.6h-0.1
		C0.257,0.6,0.1,0.757,0.1,0.95v-0.1c0-0.071,0.021-0.138,0.058-0.193C0.22,0.563,0.328,0.5,0.45,0.5h0.1
		C0.743,0.5,0.9,0.657,0.9,0.85z"/>
	<path fill="#5768AF" d="M0.742,0.657C0.688,0.621,0.621,0.6,0.55,0.6h-0.1C0.257,0.6,0.1,0.757,0.1,0.95v-0.1
		c0-0.071,0.021-0.138,0.058-0.193C0.22,0.563,0.328,0.5,0.45,0.5S0.68,0.563,0.742,0.657z"/>
	<path fill="#5E71B1" d="M0.9,0.85v0.1c0-0.122-0.063-0.23-0.158-0.293C0.68,0.563,0.572,0.5,0.45,0.5h0.1
		C0.743,0.5,0.9,0.657,0.9,0.85z"/>
	<path fill="#322688" d="M0.8,1.25H0.2V1c0-0.165,0.135-0.3,0.3-0.3h0c0.165,0,0.3,0.135,0.3,0.3V1.25z"/>
	<path fill="#5243BC" d="M0.75,0.95V1h-0.5V0.95c0-0.018,0.002-0.034,0.007-0.05h0.487C0.748,0.916,0.75,0.932,0.75,0.95z"/>
	<path fill="#060823" d="M0.743,0.9H0.257C0.279,0.814,0.358,0.75,0.45,0.75h0.1C0.642,0.75,0.721,0.814,0.743,0.9z"/>
</g>
<g>
	<polygon fill="#503139" points="0.61,1.125 0.653,1.188 0.555,1.193 0.5,1.25 0.445,1.193 0.347,1.188 0.39,1.125 0.347,1.063 
		0.445,1.057 0.5,1 0.555,1.057 0.653,1.063 	"/>
	<polygon fill="#AE6A11" points="0.59,1.125 0.625,1.176 0.545,1.18 0.5,1.227 0.455,1.18 0.375,1.176 0.41,1.125 0.375,1.074 
		0.455,1.07 0.5,1.023 0.545,1.07 0.625,1.074 	"/>
	
		<radialGradient id="SVGID_3_" cx="66.5" cy="-17.909" r="0.0764" fx="66.4547" fy="-17.9088" gradientTransform="matrix(1.165349e-13 0.8015 1.6011 -1.165349e-13 29.1747 -52.1774)" gradientUnits="userSpaceOnUse">
		<stop  offset="0" style="stop-color:#F49F0B"/>
		<stop  offset="0.5782" style="stop-color:#BE7D02"/>
		<stop  offset="1" style="stop-color:#965D0C"/>
	</radialGradient>
	<ellipse fill="url(#SVGID_3_)" cx="0.5" cy="1.125" rx="0.087" ry="0.061"/>
	<ellipse fill="#985F09" cx="0.462" cy="1.105" rx="0.019" ry="0.014"/>
	<ellipse fill="#985F09" cx="0.538" cy="1.105" rx="0.019" ry="0.014"/>
	<path fill="#985F09" d="M0.538,1.132c0,0.015-0.017,0.027-0.038,0.027c-0.021,0-0.038-0.012-0.038-0.027H0.538z"/>
</g>
</svg>
