<?xml version="1.0" encoding="utf-8"?>
<!-- Generator: Adobe Illustrator 24.1.2, SVG Export Plug-In . SVG Version: 6.00 Build 0)  -->
<svg version="1.1" id="Capa_1" xmlns="http://www.w3.org/2000/svg" xmlns:xlink="http://www.w3.org/1999/xlink" x="0px" y="0px"
	 viewBox="0 0 1 1.8" enable-background="new 0 0 1 1.8" xml:space="preserve">
<g>
	<g>
		<path id="rect10315" fill="#0A0F32" fill-opacity="0.2" d="M0.1,1.35h0.8C0.956,1.35,1,1.401,1,1.463v0.225
			C1,1.749,0.955,1.8,0.9,1.8H0.1C0.045,1.8,0,1.749,0,1.688V1.463C0,1.401,0.045,1.35,0.1,1.35z"/>
	</g>
	<path fill="#891B44" d="M1,0.375v0.7C1,1.308,0.808,1.5,0.575,1.5h-0.15C0.192,1.5,0,1.308,0,1.075v-0.7C0,0.168,0.169,0,0.375,0
		H0.4c0.039,0,0.073,0.014,0.1,0.038C0.527,0.014,0.561,0,0.6,0h0.025C0.831,0,1,0.168,1,0.375z"/>
	<g>
		<path fill="#DC5392" d="M0.9,0.35v0.725C0.9,1.254,0.755,1.4,0.575,1.4H0.42c-0.014,0-0.028-0.002-0.04-0.004
			c-0.117-0.016-0.214-0.094-0.256-0.2C0.111,1.166,0.104,1.134,0.101,1.1C0.101,1.091,0.1,1.083,0.1,1.075V0.35H0.9z"/>
	</g>
	<g>
		<path fill="#E273CC" d="M0.9,0.7v0.375C0.9,1.254,0.755,1.4,0.575,1.4H0.42C0.701,1.291,0.9,1.019,0.9,0.7z"/>
	</g>
	<g>
		<path fill="#DC5392" d="M0.9,0.35V0.7c0-0.011,0-0.022-0.001-0.033C0.892,0.767,0.827,0.851,0.738,0.884
			C0.71,0.895,0.681,0.9,0.65,0.9H0.575c-0.033,0-0.062-0.022-0.071-0.052C0.501,0.84,0.5,0.833,0.5,0.825
			C0.5,0.866,0.467,0.9,0.425,0.9H0.35c-0.057,0-0.108-0.018-0.15-0.05c-0.061-0.046-0.1-0.118-0.1-0.2v-0.3H0.9z"/>
	</g>
	<rect x="0.4" y="0.4" fill="#E36DA6" width="0.2" height="0.2"/>
	<path fill="#DF629D" d="M0.9,0.65V0.7c0,0.319-0.199,0.591-0.48,0.7c-0.014,0-0.028-0.002-0.04-0.004
		c0.185-0.108,0.319-0.294,0.358-0.512c0.089-0.033,0.155-0.117,0.161-0.217C0.9,0.662,0.9,0.656,0.9,0.65z"/>
	<path fill="#DB5393" d="M0.738,0.884C0.698,1.102,0.564,1.288,0.38,1.396c-0.117-0.016-0.214-0.094-0.256-0.2
		C0.111,1.166,0.104,1.134,0.101,1.1C0.101,1.091,0.1,1.083,0.1,1.075V0.65c0,0.082,0.039,0.154,0.1,0.2
		C0.242,0.882,0.293,0.9,0.35,0.9h0.075C0.467,0.9,0.5,0.866,0.5,0.825c0,0.008,0.001,0.015,0.004,0.023
		C0.513,0.878,0.542,0.9,0.575,0.9H0.65C0.681,0.9,0.71,0.895,0.738,0.884z"/>
	<g>
		<path fill="#E472CE" d="M0.504,0.848C0.445,0.968,0.334,1.058,0.2,1.089V0.85C0.242,0.882,0.293,0.9,0.35,0.9h0.075
			C0.467,0.9,0.5,0.866,0.5,0.825C0.5,0.833,0.501,0.84,0.504,0.848z"/>
	</g>
	<path fill="#D14E8C" d="M0.582,0.9C0.53,1.066,0.38,1.189,0.2,1.199C0.192,1.2,0.183,1.2,0.175,1.2
		c-0.017,0-0.035-0.001-0.052-0.004C0.111,1.166,0.104,1.134,0.101,1.1c0.034,0,0.067-0.004,0.099-0.011
		c0.134-0.03,0.245-0.121,0.304-0.241C0.513,0.878,0.542,0.9,0.575,0.9H0.582z"/>
	<path fill="#D86CC3" d="M0.2,0.85v0.239C0.168,1.096,0.135,1.1,0.101,1.1c-0.001,0-0.001,0-0.001,0V0.65
		C0.1,0.732,0.139,0.804,0.2,0.85z"/>
	<g>
		<g>
			<path fill="#FFC6EF" d="M0.5,0.575v0.25C0.5,0.866,0.467,0.9,0.425,0.9H0.35c-0.057,0-0.108-0.018-0.15-0.05
				c-0.061-0.046-0.1-0.118-0.1-0.2V0.575c0-0.009,0.002-0.017,0.005-0.025c0.01-0.029,0.038-0.05,0.07-0.05h0.25
				C0.467,0.5,0.5,0.533,0.5,0.575z"/>
		</g>
		<g>
			<path fill="#FEB0EB" d="M0.4,0.625v0.25c0,0.009-0.002,0.017-0.005,0.025H0.35c-0.057,0-0.108-0.018-0.15-0.05
				c-0.061-0.046-0.1-0.118-0.1-0.2V0.575c0-0.009,0.002-0.017,0.005-0.025h0.22C0.367,0.55,0.4,0.583,0.4,0.625z"/>
		</g>
		<g>
			<path fill="#FFC6EF" d="M0.9,0.35v0.075C0.9,0.466,0.867,0.5,0.825,0.5h-0.25C0.533,0.5,0.5,0.466,0.5,0.425v-0.25
				c0-0.009,0.002-0.017,0.005-0.025c0.01-0.029,0.038-0.05,0.07-0.05H0.65C0.788,0.1,0.9,0.212,0.9,0.35z"/>
		</g>
		<g>
			<path fill="#FEB0EB" d="M0.8,0.35v0.125c0,0.009-0.002,0.017-0.005,0.025h-0.22C0.534,0.5,0.5,0.466,0.5,0.425v-0.25
				c0-0.009,0.002-0.017,0.005-0.025H0.6C0.71,0.15,0.8,0.24,0.8,0.35z"/>
		</g>
		<g>
			<path fill="#FEA7D0" d="M0.9,0.575V0.65c0,0.006,0,0.012-0.001,0.017C0.892,0.767,0.827,0.851,0.738,0.884
				C0.728,0.887,0.718,0.89,0.708,0.893C0.69,0.898,0.67,0.9,0.65,0.9H0.575c-0.033,0-0.062-0.022-0.071-0.052
				C0.501,0.84,0.5,0.833,0.5,0.825v-0.25c0-0.009,0.002-0.017,0.005-0.025c0.01-0.029,0.038-0.05,0.07-0.05h0.25
				c0.021,0,0.04,0.009,0.054,0.023v0.001C0.892,0.537,0.9,0.555,0.9,0.575z"/>
		</g>
		<g>
			<path fill="#FE8BC0" d="M0.8,0.625V0.7c0,0.006,0,0.012-0.001,0.017C0.795,0.788,0.76,0.851,0.708,0.893
				C0.69,0.898,0.67,0.9,0.65,0.9H0.575c-0.033,0-0.062-0.022-0.071-0.052C0.501,0.84,0.5,0.833,0.5,0.825v-0.25
				c0-0.009,0.002-0.017,0.005-0.025h0.22c0.021,0,0.04,0.009,0.054,0.023v0.001C0.792,0.587,0.8,0.605,0.8,0.625z"/>
		</g>
		<g>
			<path fill="#FEA7D0" d="M0.5,0.175v0.25C0.5,0.466,0.467,0.5,0.425,0.5h-0.25C0.133,0.5,0.1,0.466,0.1,0.425V0.35
				c0-0.077,0.036-0.147,0.091-0.193C0.234,0.121,0.289,0.1,0.35,0.1h0.075C0.467,0.1,0.5,0.133,0.5,0.175z"/>
		</g>
		<g>
			<path fill="#FE8BC0" d="M0.4,0.225v0.25c0,0.009-0.002,0.017-0.005,0.025h-0.22C0.133,0.5,0.1,0.466,0.1,0.425V0.35
				c0-0.077,0.036-0.147,0.091-0.193C0.21,0.152,0.23,0.15,0.25,0.15h0.075C0.367,0.15,0.4,0.183,0.4,0.225z"/>
		</g>
	</g>
</g>
</svg>
