<?xml version="1.0" encoding="utf-8"?>
<!-- Generator: Adobe Illustrator 24.1.2, SVG Export Plug-In . SVG Version: 6.00 Build 0)  -->
<svg version="1.1" id="Capa_1" xmlns="http://www.w3.org/2000/svg" xmlns:xlink="http://www.w3.org/1999/xlink" x="0px" y="0px"
	 width="1.85px" height="2px" viewBox="0 0 1.85 2" enable-background="new 0 0 1.85 2" xml:space="preserve">
<circle id="circle16099" fill="#0A0F32" fill-opacity="0.2" cx="0.925" cy="1.075" r="0.925"/>
<g>
	<path fill="#653804" d="M1.85,0.875c0,0.241-0.098,0.46-0.257,0.618C1.435,1.651,1.216,1.75,0.975,1.75h-0.1
		C0.393,1.75,0,1.357,0,0.875c0-0.241,0.098-0.46,0.257-0.618C0.415,0.098,0.634,0,0.875,0h0.1C1.457,0,1.85,0.393,1.85,0.875z"/>
	<g>
		<path fill="#EF8208" d="M0.97,0.15H0.88c-0.192,0-0.374,0.076-0.512,0.213S0.155,0.682,0.155,0.875c0,0.4,0.325,0.725,0.725,0.725
			H0.97c0.192,0,0.374-0.076,0.512-0.213s0.213-0.32,0.213-0.512C1.695,0.475,1.37,0.15,0.97,0.15z M1.417,1.316
			C1.298,1.435,1.142,1.5,0.975,1.5h-0.1C0.53,1.5,0.25,1.22,0.25,0.875c0-0.167,0.065-0.324,0.183-0.442
			C0.552,0.315,0.708,0.25,0.875,0.25h0.1C1.32,0.25,1.6,0.53,1.6,0.875C1.6,1.042,1.535,1.198,1.417,1.316z"/>
		<path fill="#EE9922" d="M0.975,0.25h-0.1c-0.167,0-0.323,0.065-0.442,0.183C0.315,0.551,0.25,0.708,0.25,0.875
			C0.25,1.22,0.53,1.5,0.875,1.5h0.1c0.167,0,0.323-0.065,0.442-0.184C1.535,1.198,1.6,1.042,1.6,0.875
			C1.6,0.53,1.32,0.25,0.975,0.25z M1.381,1.281C1.277,1.385,1.133,1.45,0.975,1.45h-0.1C0.558,1.45,0.3,1.191,0.3,0.875
			c0-0.158,0.064-0.302,0.169-0.406C0.573,0.364,0.717,0.3,0.875,0.3h0.1c0.317,0,0.575,0.258,0.575,0.575
			C1.55,1.033,1.486,1.177,1.381,1.281z"/>
		<path fill="#EE9922" d="M0.97,0.1H0.88c-0.213,0-0.407,0.087-0.548,0.227c-0.14,0.14-0.227,0.335-0.227,0.548
			c0,0.426,0.349,0.775,0.775,0.775H0.97c0.213,0,0.407-0.087,0.548-0.227c0.14-0.14,0.227-0.335,0.227-0.548
			C1.745,0.448,1.395,0.1,0.97,0.1z M1.482,1.387C1.344,1.524,1.162,1.6,0.97,1.6H0.88c-0.4,0-0.725-0.325-0.725-0.725
			c0-0.193,0.076-0.374,0.213-0.512S0.688,0.15,0.88,0.15H0.97c0.4,0,0.725,0.325,0.725,0.725C1.695,1.067,1.619,1.249,1.482,1.387z
			"/>
	</g>
	<path fill="#985600" d="M1.55,0.875c0,0.158-0.064,0.302-0.169,0.406C1.277,1.385,1.133,1.45,0.975,1.45h-0.1
		C0.558,1.45,0.3,1.191,0.3,0.875c0-0.158,0.064-0.302,0.169-0.406C0.573,0.364,0.717,0.3,0.875,0.3h0.1
		C1.292,0.3,1.55,0.558,1.55,0.875z"/>
	<path fill="#040418" d="M1.4,0.875c0,0.117-0.048,0.223-0.125,0.3C1.198,1.252,1.092,1.3,0.975,1.3h-0.1
		C0.641,1.3,0.45,1.109,0.45,0.875c0-0.117,0.048-0.223,0.125-0.3c0.077-0.077,0.183-0.125,0.3-0.125h0.1
		C1.209,0.45,1.4,0.641,1.4,0.875z"/>
	<path fill="#752013" d="M0.823,1.263v0.1c0,0.036-0.008,0.071-0.026,0.104L0.708,1.635C0.67,1.706,0.596,1.75,0.515,1.75
		c-0.027,0-0.054-0.004-0.076-0.013C0.327,1.695,0.233,1.609,0.182,1.5C0.167,1.471,0.161,1.439,0.161,1.409v-0.1
		c0-0.077,0.042-0.152,0.114-0.193l0.169-0.092c0.033-0.018,0.071-0.028,0.109-0.028c0.062,0,0.12,0.026,0.161,0.071
		c0.011,0.012,0.022,0.022,0.033,0.03C0.796,1.139,0.823,1.2,0.823,1.263z"/>
	<path fill="#752013" d="M1.026,1.263v0.1c0,0.036,0.008,0.071,0.026,0.104l0.089,0.168C1.179,1.706,1.253,1.75,1.334,1.75
		c0.027,0,0.054-0.004,0.076-0.013C1.523,1.695,1.617,1.609,1.668,1.5c0.014-0.029,0.021-0.061,0.021-0.091v-0.1
		c0-0.077-0.042-0.152-0.114-0.193L1.406,1.024C1.372,1.006,1.335,0.996,1.297,0.996c-0.062,0-0.12,0.026-0.161,0.071
		c-0.011,0.012-0.022,0.022-0.033,0.03C1.053,1.139,1.026,1.2,1.026,1.263z"/>
	<path fill="#752013" d="M0.747,0.655c-0.01,0.008-0.02,0.017-0.03,0.029c-0.04,0.045-0.097,0.07-0.158,0.07h-0.05
		c-0.037,0-0.074-0.009-0.106-0.027l-0.165-0.09C0.139,0.582,0.098,0.46,0.146,0.359c0.05-0.106,0.142-0.19,0.249-0.23
		C0.42,0.12,0.445,0.115,0.473,0.115h0.05c0.079,0,0.152,0.043,0.189,0.114l0.087,0.162C0.846,0.481,0.825,0.592,0.747,0.655z"/>
	<path fill="#752013" d="M1.103,0.655c0.01,0.008,0.02,0.017,0.03,0.029c0.04,0.045,0.097,0.07,0.158,0.07h0.05
		c0.038,0,0.074-0.009,0.106-0.027l0.165-0.09C1.711,0.582,1.751,0.46,1.703,0.359c-0.05-0.106-0.142-0.19-0.249-0.23
		C1.43,0.12,1.404,0.115,1.377,0.115h-0.05c-0.079,0-0.152,0.043-0.189,0.114L1.052,0.391C1.004,0.481,1.025,0.592,1.103,0.655z"/>
	<path fill="#FF4C3B" d="M0.685,0.577C0.67,0.589,0.655,0.603,0.642,0.617C0.621,0.641,0.59,0.654,0.558,0.654
		c-0.019,0-0.04-0.005-0.058-0.015L0.336,0.549C0.283,0.52,0.261,0.455,0.287,0.401c0.039-0.082,0.109-0.148,0.195-0.179
		c0.013-0.005,0.027-0.007,0.04-0.007c0.041,0,0.08,0.022,0.101,0.061L0.71,0.438C0.735,0.485,0.726,0.544,0.685,0.577z"/>
	<path fill="#F9402A" d="M0.653,0.538C0.636,0.552,0.62,0.567,0.605,0.584c-0.011,0.013-0.028,0.02-0.046,0.02
		c-0.012,0-0.024-0.003-0.034-0.009L0.36,0.505C0.33,0.489,0.318,0.453,0.332,0.423c0.033-0.071,0.094-0.127,0.167-0.154
		c0.007-0.003,0.015-0.004,0.023-0.004c0.024,0,0.046,0.013,0.057,0.033l0.086,0.163C0.68,0.488,0.674,0.521,0.653,0.538z"/>
	<path fill="#FF4C3B" d="M1.514,0.549L1.349,0.639c-0.018,0.01-0.039,0.015-0.058,0.015c-0.032,0-0.063-0.012-0.084-0.037
		C1.195,0.603,1.18,0.589,1.165,0.577C1.124,0.544,1.115,0.485,1.14,0.438l0.087-0.163c0.02-0.039,0.06-0.061,0.101-0.061
		c0.014,0,0.027,0.002,0.04,0.007c0.086,0.032,0.156,0.097,0.195,0.179C1.589,0.455,1.567,0.52,1.514,0.549z"/>
	<path fill="#F9402A" d="M1.197,0.538C1.214,0.552,1.23,0.567,1.245,0.584c0.011,0.013,0.028,0.02,0.046,0.02
		c0.012,0,0.024-0.003,0.034-0.009L1.49,0.505C1.52,0.489,1.532,0.453,1.518,0.423C1.485,0.352,1.424,0.296,1.351,0.269
		C1.344,0.266,1.336,0.265,1.328,0.265c-0.024,0-0.046,0.013-0.057,0.033L1.184,0.461C1.17,0.488,1.176,0.521,1.197,0.538z"/>
	<path fill="#FF4C3B" d="M0.71,1.32L0.62,1.487C0.599,1.527,0.558,1.55,0.515,1.55c-0.014,0-0.029-0.002-0.042-0.007
		C0.385,1.51,0.313,1.443,0.272,1.357C0.245,1.302,0.268,1.234,0.323,1.204l0.17-0.092c0.018-0.011,0.04-0.015,0.06-0.015
		c0.033,0,0.064,0.013,0.086,0.038c0.014,0.014,0.028,0.028,0.043,0.04C0.726,1.21,0.736,1.271,0.71,1.32z"/>
	<path fill="#F9402A" d="M0.651,1.215c-0.018-0.014-0.034-0.03-0.05-0.047C0.59,1.155,0.572,1.148,0.553,1.148
		c-0.012,0-0.024,0.003-0.035,0.009L0.348,1.25C0.317,1.267,0.305,1.304,0.319,1.335c0.034,0.073,0.097,0.131,0.173,0.159
		c0.007,0.003,0.016,0.004,0.024,0.004c0.025,0,0.047-0.013,0.059-0.035l0.089-0.169C0.678,1.268,0.673,1.234,0.651,1.215z"/>
	<path fill="#FF4C3B" d="M1.578,1.357C1.538,1.443,1.465,1.51,1.377,1.543C1.363,1.548,1.348,1.55,1.335,1.55
		c-0.042,0-0.083-0.023-0.105-0.063L1.14,1.32C1.114,1.271,1.124,1.21,1.167,1.175c0.015-0.012,0.03-0.026,0.043-0.04
		c0.022-0.025,0.054-0.038,0.086-0.038c0.02,0,0.042,0.005,0.06,0.015l0.17,0.092C1.582,1.234,1.605,1.302,1.578,1.357z"/>
	<path fill="#F9402A" d="M1.199,1.215c0.018-0.014,0.034-0.03,0.05-0.047C1.26,1.155,1.278,1.148,1.297,1.148
		c0.012,0,0.024,0.003,0.035,0.009l0.17,0.093c0.031,0.017,0.043,0.054,0.028,0.086C1.497,1.408,1.434,1.466,1.358,1.494
		C1.351,1.497,1.343,1.498,1.334,1.498c-0.025,0-0.047-0.013-0.059-0.035L1.186,1.295C1.172,1.268,1.177,1.234,1.199,1.215z"/>
</g>
</svg>
