<?xml version="1.0" encoding="UTF-8" standalone="no"?>
<!-- Created with Inkscape (http://www.inkscape.org/) -->

<svg
   width="3.0474048"
   height="2.6790607"
   viewBox="0 0 3.0474048 2.6790607"
   version="1.1"
   id="svg5"
   sodipodi:docname="mine_ghostmetro.svg"
   inkscape:version="1.2 (dc2aedaf03, 2022-05-15)"
   xml:space="preserve"
   xmlns:inkscape="http://www.inkscape.org/namespaces/inkscape"
   xmlns:sodipodi="http://sodipodi.sourceforge.net/DTD/sodipodi-0.dtd"
   xmlns:xlink="http://www.w3.org/1999/xlink"
   xmlns="http://www.w3.org/2000/svg"
   xmlns:svg="http://www.w3.org/2000/svg"><sodipodi:namedview
     id="namedview7"
     pagecolor="#171717"
     bordercolor="#999999"
     borderopacity="1"
     inkscape:pageshadow="0"
     inkscape:pageopacity="0"
     inkscape:pagecheckerboard="0"
     inkscape:document-units="px"
     showgrid="true"
     units="px"
     inkscape:zoom="132.81823"
     inkscape:cx="2.6540032"
     inkscape:cy="3.0944548"
     inkscape:window-width="3440"
     inkscape:window-height="1417"
     inkscape:window-x="-8"
     inkscape:window-y="-8"
     inkscape:window-maximized="1"
     inkscape:current-layer="layer1"
     inkscape:object-paths="true"
     inkscape:snap-intersection-paths="true"
     inkscape:snap-smooth-nodes="true"
     inkscape:snap-midpoints="true"
     inkscape:snap-object-midpoints="true"
     showguides="true"
     inkscape:snap-global="true"
     inkscape:showpageshadow="0"
     inkscape:deskcolor="#171717"><inkscape:grid
       type="xygrid"
       id="grid836"
       originx="2.0257674e-10"
       originy="-8.4183841e-11" /></sodipodi:namedview><defs
     id="defs2"><linearGradient
       inkscape:collect="always"
       id="linearGradient63001"><stop
         style="stop-color:#181838;stop-opacity:1"
         offset="0"
         id="stop62997" /><stop
         style="stop-color:#040818;stop-opacity:1"
         offset="1"
         id="stop62999" /></linearGradient><linearGradient
       id="linearGradient48485"
       inkscape:swatch="solid"><stop
         style="stop-color:#ffa420;stop-opacity:1;"
         offset="0"
         id="stop48483" /></linearGradient><linearGradient
       inkscape:collect="always"
       xlink:href="#linearGradient63001"
       id="linearGradient62995"
       x1="377"
       y1="143"
       x2="377"
       y2="157"
       gradientUnits="userSpaceOnUse"
       gradientTransform="translate(-346.34414,-125.709)" /></defs><g
     inkscape:label="Layer 1"
     inkscape:groupmode="layer"
     id="layer1"><g
       id="g12388"
       transform="scale(0.05)"><rect
         style="fill:url(#linearGradient62995);fill-opacity:1;stroke:none;stroke-width:4;stroke-linecap:square;stroke-linejoin:round;stroke-dasharray:none;stroke-opacity:1;paint-order:markers stroke fill"
         id="rect62935"
         width="25"
         height="22"
         x="17.655861"
         y="16.291" /><path
         id="path60276"
         style="color:#000000;fill:#301c4c;fill-opacity:1;stroke-linecap:square;stroke-linejoin:round;paint-order:markers stroke fill"
         d="m 17.65586,7.291 c -1.10452,1.1e-4 -1.99989,0.89548 -2,2 v 5 H 9.6558601 c -1.10452,1.1e-4 -1.99989,0.89548 -2,2 v 22 c 1.1e-4,1.10452 0.89548,1.99989 2,2 H 15.65586 v 5 c 1.1e-4,1.10452 0.89548,1.99989 2,2 h 25 c 1.10452,-1.1e-4 1.99989,-0.89548 2,-2 v -5 h 7 c 1.10452,-1.1e-4 1.99989,-0.89548 2,-2 v -22 c -1.1e-4,-1.10452 -0.89548,-1.99989 -2,-2 h -7 v -5 c -1.1e-4,-1.10452 -0.89548,-1.99989 -2,-2 z m 25,10 v 20 h -24 v -20 z"
         sodipodi:nodetypes="cccccccccccccccccccccccccc" /><path
         id="rect57283"
         style="fill:#402874;fill-opacity:1;stroke:none;stroke-width:4;stroke-linecap:square;stroke-linejoin:round;stroke-dasharray:none;stroke-opacity:1;paint-order:markers stroke fill"
         d="m 17.65586,9.291 v 6 h 7 v -6 z m 9,0 v 6 h 7 v -6 z m 9,0 v 6 h 7 v -6 z m -25.9999999,7 v 6 H 16.65586 v -6 z m 34.9999999,0 v 6 h 7 v -6 z m -34.9999999,8 v 6 H 16.65586 v -6 z m 34.9999999,0 v 6 h 7 v -6 z m -34.9999999,8 v 6 H 16.65586 v -6 z m 34.9999999,0 v 6 h 7 v -6 z m -27,7 v 6 h 7 v -6 z m 9,0 v 6 h 7 v -6 z m 9,0 v 6 h 7 v -6 z" /><path
         id="path58192"
         style="fill:#18288c;fill-opacity:1;stroke:none;stroke-width:4;stroke-linecap:square;stroke-linejoin:round;stroke-dasharray:none;stroke-opacity:1;paint-order:markers stroke fill"
         d="m 17.65586,9.291 v 1 h 6 v 5 h 1 v -6 z m 9,0 v 1 h 6 v 5 h 1 v -6 z m 9,0 v 1 h 6 v 5 h 1 v -6 z m -25.9999999,7 v 1 H 15.65586 v 5 h 1 v -6 z m 34.9999999,0 v 1 h 6 v 5 h 1 v -6 z m -34.9999999,8 v 1 H 15.65586 v 5 h 1 v -6 z m 34.9999999,0 v 1 h 6 v 5 h 1 v -6 z m -34.9999999,8 v 1 H 15.65586 v 5 h 1 v -6 z m 34.9999999,0 v 1 h 6 v 5 h 1 v -6 z m -27,7 v 1 h 6 v 5 h 1 v -6 z m 9,0 v 1 h 6 v 5 h 1 v -6 z m 9,0 v 1 h 6 v 5 h 1 v -6 z" /><path
         id="path61269"
         style="color:#000000;fill:#0c244c;fill-opacity:1;stroke-linecap:square;stroke-linejoin:round;paint-order:markers stroke fill"
         d="m 31.85313,0.00974998 a 2.0002,2.0002 0 0 0 -1.02149,0.16797 L 23.54258,3.46678 a 2.0002,2.0002 0 0 0 -1,2.64649 l 3.29101,7.29101 a 2.0002,2.0002 0 0 0 2.64649,1 l 7.28906,-3.28906 a 2.0002,2.0002 0 0 0 1,-2.64649 L 33.47813,1.17772 a 2.0002,2.0002 0 0 0 -1.625,-1.16797002 z M 18.65586,9.63475 a 2.0002,2.0002 0 0 0 -1.41406,0.58594 l -5.65625,5.65625 a 2.0002,2.0002 0 0 0 0,2.82812 l 5.65625,5.65625 a 2.0002,2.0002 0 0 0 2.82812,0 l 5.65625,-5.65625 a 2.0002,2.0002 0 0 0 0,-2.82812 L 20.06992,10.22069 A 2.0002,2.0002 0 0 0 18.65586,9.63475 Z m 21,0.65625 a 2.0002,2.0002 0 0 0 -2,2.00195 V 20.291 a 2.0002,2.0002 0 0 0 2,2 l 8,0.002 a 2.0002,2.0002 0 0 0 0.33984,-0.0312 l -0.45312,0.20508 a 2.0002,2.0002 0 0 0 -1,2.64649 l 3.29101,7.29101 a 2.0002,2.0002 0 0 0 2.64454,1 l 7.29101,-3.29101 a 2.0002,2.0002 0 0 0 1.00195,-2.64649 l -3.29296,-7.29101 a 2.0002,2.0002 0 0 0 -2.64454,-1 l -5.9375,2.67968 a 2.0002,2.0002 0 0 0 0.75977,-1.5626 V 12.291 a 2.0002,2.0002 0 0 0 -2,-1.99805 z M 7.1382801,17.70311 a 2.0002,2.0002 0 0 0 -0.89648,0.51758 l -5.65625001,5.65625 a 2.0002,2.0002 0 0 0 0,2.82812 l 5.65625001,5.65625 a 2.0002,2.0002 0 0 0 2.82812,0 L 14.72617,26.70506 a 2.0002,2.0002 0 0 0 0.002,-2.82812 L 9.0719201,18.22069 a 2.0002,2.0002 0 0 0 -1.9336,-0.51758 z m 33.9999999,10 a 2.0002,2.0002 0 0 0 -0.89648,0.51758 l -5.65625,5.65625 a 2.0002,2.0002 0 0 0 0.002,2.82812 l 5.65625,5.65625 a 2.0002,2.0002 0 0 0 2.82617,0.002 l 5.65821,-5.65821 a 2.0002,2.0002 0 0 0 -0.002,-2.82812 l -5.65625,-5.65625 a 2.0002,2.0002 0 0 0 -1.93164,-0.51758 z m -23,0.99805 a 2.0002,2.0002 0 0 0 -0.89648,0.51757 l -5.65625,5.65625 a 2.0002,2.0002 0 0 0 0,2.83008 l 5.65625,5.65625 a 2.0002,2.0002 0 0 0 2.82812,0 l 5.65625,-5.65625 a 2.0002,2.0002 0 0 0 0,-2.83008 l -5.65625,-5.65429 a 2.0002,2.0002 0 0 0 -1.93164,-0.51953 z m 15.45508,10.30078 a 2.0002,2.0002 0 0 0 -0.75977,0.17578 l -7.29101,3.29101 a 2.0002,2.0002 0 0 0 -1.00195,2.64454 l 3.29296,7.29296 a 2.0002,2.0002 0 0 0 2.64454,0.99805 l 7.29296,-3.29101 a 2.0002,2.0002 0 0 0 1,-2.64454 l -3.29101,-7.29101 a 2.0002,2.0002 0 0 0 -1.88672,-1.17578 z" /><path
         style="color:#000000;fill:#444484;stroke-width:4;stroke-linecap:square;stroke-linejoin:round;paint-order:markers stroke fill"
         d="m 31.65586,1.99999 -7.29101,3.291 3.29101,7.29103 7.29102,-3.29102 z m 8,10.29101 v 8 h 8 l -10e-6,-8 z M 7.6558601,19.63475 1.9996101,25.291 7.6558601,30.94725 13.31211,25.291 Z M 55.65586,20.99999 48.36484,24.291 51.65586,31.58202 58.94688,28.291 Z m -14,8.63476 -5.65625,5.65625 5.65625,5.65625 5.65625,-5.65625 z m -23,1.00001 -5.65625,5.65624 5.65625,5.65626 5.65625,-5.65626 z"
         id="path61271" /><path
         id="rect57315"
         style="fill:#402874;fill-opacity:1;stroke:none;stroke-width:4;stroke-linecap:square;stroke-linejoin:round;stroke-dasharray:none;stroke-opacity:1;paint-order:markers stroke fill"
         d="m 18.65586,11.63475 -5.65625,5.65625 5.65625,5.65625 5.65625,-5.65625 z m 15,29.36524 -7.29102,3.29101 3.29102,7.29101 7.29102,-3.29101 z" /><path
         id="path60436"
         style="fill:#1048a0;fill-opacity:1;stroke:none;stroke-width:4;stroke-linecap:square;stroke-linejoin:round;stroke-dasharray:none;stroke-opacity:1;paint-order:markers stroke fill"
         d="M 31.65586,1.99999 24.36485,5.291 24.56993,5.74608 30.65587,2.99999 33.7418,9.83592 34.94688,9.291 Z m 8,10.29101 v 1 h 7.00001 l -1e-5,7 1.00001,10e-6 -1e-5,-8.00001 z m -31.9999999,7.34375 -0.99999,1 5.6562399,5.65626 1.00001,-1.00001 z m 48.0000099,1.36524 -7.29103,3.29101 0.20508,0.45508 6.08594,-2.74609 3.08594,6.83594 1.20508,-0.54493 z m -14.00001,8.63477 -0.99999,0.99999 5.65624,5.65625 1.00001,-1 z m -23,1 -0.99999,1 5.65624,5.65624 1.00001,-1 z" /><path
         id="path61557"
         style="fill:#182c84;fill-opacity:1;stroke:none;stroke-width:4;stroke-linecap:square;stroke-linejoin:round;stroke-dasharray:none;stroke-opacity:1;paint-order:markers stroke fill"
         d="m 18.65586,11.63475 -1,1 5.65625,5.65625 1,-1 z m 15,29.36524 -7.29102,3.29101 0.20508,0.45507 6.08594,-2.74609 3.08594,6.83594 1.20508,-0.54492 z" /></g></g></svg>
