<?xml version="1.0" encoding="UTF-8" standalone="no"?>
<!-- Created with Inkscape (http://www.inkscape.org/) -->

<svg
   width="2.4000001"
   height="2.25"
   viewBox="0 0 2.4000001 2.25"
   version="1.1"
   id="svg5"
   sodipodi:docname="mine_plant.svg"
   inkscape:version="1.1 (c68e22c387, 2021-05-23)"
   xmlns:inkscape="http://www.inkscape.org/namespaces/inkscape"
   xmlns:sodipodi="http://sodipodi.sourceforge.net/DTD/sodipodi-0.dtd"
   xmlns:xlink="http://www.w3.org/1999/xlink"
   xmlns="http://www.w3.org/2000/svg"
   xmlns:svg="http://www.w3.org/2000/svg">
  <sodipodi:namedview
     id="namedview7"
     pagecolor="#171717"
     bordercolor="#999999"
     borderopacity="1"
     inkscape:pageshadow="0"
     inkscape:pageopacity="0"
     inkscape:pagecheckerboard="0"
     inkscape:document-units="px"
     showgrid="false"
     units="px"
     inkscape:zoom="187.83333"
     inkscape:cx="1.6131322"
     inkscape:cy="1.4880213"
     inkscape:window-width="1284"
     inkscape:window-height="1041"
     inkscape:window-x="208"
     inkscape:window-y="0"
     inkscape:window-maximized="0"
     inkscape:current-layer="layer1"
     inkscape:object-paths="true"
     inkscape:snap-intersection-paths="true"
     inkscape:snap-smooth-nodes="true"
     inkscape:snap-midpoints="true"
     inkscape:snap-object-midpoints="true">
    <inkscape:grid
       type="xygrid"
       id="grid836"
       originx="0"
       originy="0" />
  </sodipodi:namedview>
  <defs
     id="defs2">
    <linearGradient
       inkscape:collect="always"
       xlink:href="#linearGradient72586"
       id="linearGradient72588"
       x1="219"
       y1="167"
       x2="219"
       y2="173"
       gradientUnits="userSpaceOnUse"
       gradientTransform="translate(-196.5,-143)" />
    <linearGradient
       inkscape:collect="always"
       id="linearGradient72586">
      <stop
         style="stop-color:#241c38;stop-opacity:1"
         offset="0"
         id="stop72582" />
      <stop
         style="stop-color:#201834;stop-opacity:1"
         offset="1"
         id="stop72584" />
    </linearGradient>
  </defs>
  <g
     inkscape:label="Layer 1"
     inkscape:groupmode="layer"
     id="layer1">
    <g
       id="g5292"
       transform="scale(0.05)"
       style="stroke-width:20">
      <circle
         style="fill:#0a0f32;fill-opacity:0.2;stroke:none;stroke-width:80;stroke-linecap:square;stroke-linejoin:round;stroke-miterlimit:4;stroke-dasharray:none;paint-order:markers stroke fill"
         id="circle34041-4-9"
         cx="23"
         cy="25"
         r="20" />
      <path
         style="fill:url(#linearGradient72588);fill-opacity:1;stroke:none;stroke-width:20px;stroke-linecap:butt;stroke-linejoin:miter;stroke-opacity:1"
         d="m 8,13 5,24 15,3 9,-16 -5,-13 z"
         id="path71022" />
      <path
         id="path68755"
         style="color:#000000;fill:#284070;fill-opacity:1;stroke-width:80;stroke-linejoin:round;-inkscape-stroke:none"
         d="m 22,6 c -0.46009,0 -0.92027,0.10563 -1.3418,0.31641 -3.45658,1.72828 -8.25066,2.7431 -13.24609,3.74218 -1.65243,0.32968 -2.7316,2.03274 -2.32422,3.66797 a 2.0002,2.0002 0 0 0 0.002,0 c 0.97024,3.88097 1.81681,8.44525 0.96875,12.68555 a 2.0002,2.0002 0 0 0 0,0.002 c -0.23616,1.18545 0.27185,2.41119 1.27735,3.08203 1.6884,1.1256 2.66406,4.01193 2.66406,7.50391 4.3e-4,1.81447 1.70227,3.25645 3.49219,2.95898 2.90764,-0.4846 5.04811,-0.69445 6.89648,-0.4082 1.84838,0.28625 3.52602,1.02472 5.73633,2.79297 v -0.002 c 1.57967,1.26539 4.08003,0.52682 4.7207,-1.39258 l 0.002,-0.002 c 0.80966,-2.42736 2.46094,-4.88087 4.8164,-6.45118 0.83255,-0.55508 1.33586,-1.49547 1.33594,-2.49609 0,-4.0184 -0.18675,-5.75163 2.40039,-9.20117 a 2.0002,2.0002 0 0 0 0.002,0 c 0.75741,-1.01211 0.79543,-2.41135 0.0937,-3.46289 C 37.49953,16.34122 36,14.00046 36,11 35.99984,9.367 34.633,8.00016 33,8 28.99467,8 26.81789,8.0544 23.3418,6.31641 22.92027,6.10563 22.46009,6 22,6 Z m 0.0352,6.15625 c 2.9812,1.23539 5.71793,1.61333 8.39257,1.69336 0.55997,2.82446 1.8125,5.1296 3.11915,7.17383 -1.97347,3.37156 -2.37405,6.54577 -2.42969,9.5957 -1.85237,1.5305 -3.22026,3.33686 -4.26172,5.26367 -3.61908,-1.9868 -7.2949,-2.48962 -11.16602,-2.15625 -0.39846,-2.86057 -1.45973,-5.64139 -3.58007,-7.77539 0.5004,-3.90668 0.0165,-7.47475 -0.64844,-10.65429 3.62978,-0.75854 7.24205,-1.67195 10.57422,-3.14063 z" />
      <path
         style="color:#000000;fill:#4868a0;stroke-width:20;stroke-linejoin:round;-inkscape-stroke:none"
         d="m 21.55273,8.10547 c -3.82111,1.91055 -8.74805,2.91406 -13.74804,3.91406 A 1.0001,1.0001 0 0 0 7.0293,13.24219 c 0.99048,3.96195 1.93994,8.81393 0.99023,13.5625 a 1.0001,1.0001 0 0 0 0.42578,1.02734 C 11.01862,29.54757 12,33.16667 12,37 a 1.0001,1.0001 0 0 0 1.16406,0.98633 c 5.92891,-0.98815 9.4141,-1.04255 14.21094,2.79492 a 1.0001,1.0001 0 0 0 1.57422,-0.46484 c 0.93675,-2.81026 2.81882,-5.62661 5.60547,-7.48438 A 1.0001,1.0001 0 0 0 35,32 c 0,-4 -0.0552,-6.59239 2.80078,-10.40039 a 1.0001,1.0001 0 0 0 0.0312,-1.1543 C 35.83203,17.44532 34,14.66666 34,11 a 1.0001,1.0001 0 0 0 -1,-1 c -4,0 -6.73162,0.016 -10.55273,-1.89453 a 1.0001,1.0001 0 0 0 -0.89454,0 z m 0.41993,1.95898 c 3.65033,1.72574 6.68851,1.87919 10.14257,1.89258 0.28084,3.59584 1.98576,6.42586 3.72266,9.04102 -2.58016,3.7335 -2.79105,6.9179 -2.80078,10.5 -2.6,1.86841 -4.3228,4.43429 -5.41992,7.08593 -4.45888,-3.16213 -8.57183,-3.45193 -13.69336,-2.69921 -0.16447,-3.57558 -1.18605,-7.09791 -3.88281,-9.2461 0.80351,-4.66449 0.0142,-9.1359 -0.87891,-12.87109 4.50567,-0.90397 8.9939,-1.8895 12.81055,-3.70313 z"
         id="path61295" />
      <path
         id="path92010"
         style="color:#000000;fill:#6078ac;fill-opacity:1;stroke-width:20;stroke-linejoin:round;-inkscape-stroke:none"
         d="m 22,8 a 1.0001,1.0001 0 0 0 -0.44727,0.10547 c -3.82111,1.91055 -8.74805,2.91406 -13.74804,3.91406 A 1.0001,1.0001 0 0 0 7.0293,13.24219 c 0.0288,0.11532 0.0553,0.23866 0.084,0.35547 a 1.0001,1.0001 0 0 1 0.69141,-0.57813 c 4.99999,-1 9.92693,-2.00351 13.74804,-3.91406 a 1.0001,1.0001 0 0 1 0.89454,0 C 26.26838,11.016 29,11 33,11 a 1.0001,1.0001 0 0 1 1,1 c 0,3.66666 1.83208,6.44532 3.83203,9.44531 a 1.0001,1.0001 0 0 1 0.0312,0.0566 1.0001,1.0001 0 0 0 -0.0312,-1.05664 C 35.83208,17.44532 34,14.66666 34,11 A 1.0001,1.0001 0 0 0 33,10 C 29,10 26.26838,10.016 22.44727,8.10547 A 1.0001,1.0001 0 0 0 22,8 Z M 9.37891,14.72266 c -0.0725,0.0146 -0.14427,0.0304 -0.2168,0.0449 0.60384,2.5254 1.1583,5.38735 1.20703,8.41797 0.0668,-3.02297 -0.41318,-5.89329 -0.99023,-8.46289 z m 26.13086,6.77343 c -2.26537,3.52066 -2.46337,6.58065 -2.47266,10.00196 -2.6,1.86841 -4.3228,4.43429 -5.41992,7.08593 -4.45888,-3.16213 -8.57183,-3.45193 -13.69336,-2.69921 -0.16163,-3.51379 -1.15455,-6.97351 -3.74805,-9.13086 -0.0385,0.29381 -0.0839,0.58926 -0.13476,0.88476 2.69676,2.14819 3.71834,5.67052 3.88281,9.2461 5.12153,-0.75272 9.23448,-0.46292 13.69336,2.69921 1.09712,-2.65164 2.81992,-5.21752 5.41992,-7.08593 0.01,-3.5821 0.22062,-6.7665 2.80078,-10.5 -0.10994,-0.16554 -0.21879,-0.33456 -0.32812,-0.50196 z M 8.4043,23.16602 C 8.3784,24.37495 8.26193,25.5927 8.01953,26.80469 a 1.0001,1.0001 0 0 0 0.0703,0.5957 C 8.34069,25.98661 8.4312,24.56697 8.40429,23.16602 Z" />
      <path
         id="path95253"
         style="color:#000000;fill:#041840;fill-opacity:0.772549;stroke-width:40;stroke-linejoin:round;-inkscape-stroke:none"
         d="M 26.80078,7.99023 C 25.5739,7.99623 24.41181,8.57626 23.87891,9.64062 23.346,10.705 23.54094,12.07215 24.39258,13.34961 24.99925,14.25962 25.79204,14.85051 26.66406,15 27.53609,15.14949 28.38385,14.83281 29,14.30469 30.2323,13.24843 30.80032,11.358 30.17383,9.47852 30.10333,9.26755 29.96449,9.08611 29.7793,8.96289 28.79142,8.3043 27.76069,7.98555 26.80078,7.99023 Z"
         sodipodi:nodetypes="sssssccs" />
      <path
         id="path89791"
         style="color:#000000;fill:#045420;fill-opacity:1;stroke-width:40;stroke-linejoin:round;-inkscape-stroke:none"
         d="m 27.57617,6.19531 c -1.22688,0.006 -2.38897,0.58602 -2.92187,1.65039 -0.53291,1.06438 -0.33797,2.43153 0.51367,3.70899 0.60667,0.91001 1.39946,1.5009 2.27148,1.65039 0.87203,0.14949 1.71979,-0.16719 2.33594,-0.69531 1.2323,-1.05626 1.80032,-2.9467 1.17383,-4.82618 A 1.0001,1.0001 0 0 0 30.55469,7.16797 C 29.56681,6.50938 28.53608,6.19063 27.57617,6.19531 Z m 10.39063,7.80664 a 1.0001,1.0001 0 0 0 -0.41407,0.10352 c -2.2163,1.10815 -3.55916,2.74777 -3.56445,4.50781 -0.003,0.88002 0.4016,1.74985 1.10547,2.34375 0.70387,0.5939 1.66212,0.93634 2.81836,1.03906 1.21045,0.10754 2.26453,-0.20596 2.94336,-0.90039 0.67883,-0.69442 0.89922,-1.65222 0.82617,-2.55273 -0.1461,-1.80103 -1.33959,-3.6477 -3.29687,-4.46485 A 1.0001,1.0001 0 0 0 37.9668,14.00192 Z M 7,16 a 1.0001,1.0001 0 0 0 -0.94922,0.68359 c -0.58433,1.75298 -0.6121,3.89792 0.16406,5.60547 0.38808,0.85378 1.03758,1.6307 1.98828,1.97852 0.95071,0.34782 2.08017,0.20894 3.24415,-0.37305 1.16397,-0.58199 1.96915,-1.39778 2.27343,-2.38086 0.30429,-0.98308 0.0436,-2.02229 -0.52734,-2.83789 C 12.05151,17.04457 9.76666,16 7,16 Z" />
      <path
         id="path61301"
         style="fill:#08c04c;fill-opacity:1;stroke:none;stroke-width:20px;stroke-linecap:butt;stroke-linejoin:miter;stroke-opacity:1"
         d="M 27.58008,7.19531 C 25.7081,7.20444 24.5625,8.84375 26,11 28,14 31,11 30,8 29.15625,7.4375 28.31259,7.19174 27.58008,7.19531 Z M 38,15 c -4,2 -4.02897,5.64206 0,6 4.02897,0.35794 3.13256,-4.69221 0,-6 z M 7,17 c -1,3 0,8 4,6 4,-2 1,-6 -4,-6 z" />
      <path
         id="path84942"
         style="color:#000000;fill:#103064;fill-opacity:1;stroke-width:40;-inkscape-stroke:none"
         d="M 23,0 C 21.91667,0 20.94425,0.52914 20.12305,1.27734 19.30184,2.02555 18.59515,3.01732 17.99219,4.15625 16.78626,6.43412 16,9.3 16,12 c 0,2.63333 0.51574,4.61231 1.58594,5.98828 C 18.65614,19.36425 20.27778,20 22,20 23.72222,20 25.41898,19.44019 26.73828,18.41406 28.05758,17.38794 29,15.83333 29,14 29,12.16667 28.10742,10.73633 27.35742,9.48633 26.60742,8.23633 26,7.16667 26,6 26,5.41667 26.12395,5.18358 26.24219,5.03906 26.36043,4.89455 26.53627,4.7926 26.81641,4.69922 27.09654,4.60582 27.43992,4.55388 27.84766,4.41797 28.05153,4.34997 28.29081,4.2633 28.54297,4.03516 28.79513,3.80701 29,3.375 29,3 29,2.41667 28.70774,1.91868 28.34766,1.55859 27.98757,1.19851 27.54155,0.9288 27.01953,0.70508 25.97549,0.25763 24.61111,0 23,0 Z m 14,18 c -3.05555,0 -5.19422,0.2009 -6.76367,1.14258 C 28.66687,20.08425 28,21.83334 28,24 c 0,2.16666 0.53922,3.88628 1.44922,5.09961 C 30.35922,30.31294 31.66667,31 33,31 c 0.75,0 1.39349,-0.29104 1.91602,-0.62695 0.52252,-0.33591 0.96559,-0.72127 1.43359,-1.07227 C 37.28561,28.59878 38.25,28 40,28 c 1.66666,0 2.24762,0.68175 2.77734,1.5293 0.26486,0.42377 0.46591,0.88432 0.70313,1.32226 0.11861,0.21898 0.24056,0.43741 0.45508,0.66406 C 44.15006,31.74228 44.54167,32 45,32 c 0.58333,0 1.08132,-0.29226 1.44141,-0.65234 0.36008,-0.36009 0.62979,-0.80611 0.85351,-1.32813 C 47.74237,28.97549 48,27.61111 48,26 48,24.05556 46.79578,22.10321 44.86719,20.58789 42.93859,19.07257 40.22222,18 37,18 Z m -23.50781,1.64062 c -1.0933,0.018 -2.30903,0.14851 -3.65625,0.37305 C 3.46271,21.07588 0,25.33334 0,29 c 0,1.72222 0.55051,3.17233 1.35742,4.14062 0.40346,0.48415 0.87429,0.86699 1.47656,1.03907 0.60227,0.17207 1.38735,0.013 1.87305,-0.47266 0.7357,-0.7357 0.93856,-1.43856 1.375,-1.875 C 6.51847,31.39559 7.16667,31 9,31 c 1.91666,0 2.74684,0.2203 3.43359,0.44922 C 13.12035,31.67814 13.83333,32 15,32 16.33333,32 17.64078,31.31294 18.55078,30.09961 19.46078,28.88628 20,27.16666 20,25 20,23.24229 19.42502,21.75035 18.23828,20.83398 17.05154,19.91762 15.44377,19.60851 13.49219,19.64062 Z" />
      <path
         id="path61309"
         style="fill:#48b4e4;fill-opacity:1;stroke:none;stroke-width:20px;stroke-linecap:butt;stroke-linejoin:miter;stroke-opacity:1"
         d="m 23,1 c -3,0 -6,6 -6,11 0,5 2,7 5,7 3,0 6,-2 6,-5 C 28,11 25,9 25,6 25,3 28,4 28,3 28,2 26,1 23,1 Z m 14,18 c -6,0 -8,1 -8,5 0,4 2,6 4,6 2,0 3,-3 7,-3 4,0 4,4 5,4 1,0 2,-2 2,-5 0,-3 -4,-7 -10,-7 z M 13.50781,20.64062 C 12.48242,20.6575 11.3125,20.78125 10,21 c -6,1 -9,5 -9,8 0,3 2,5 3,4 1,-1 1,-3 5,-3 4,0 4,1 6,1 2,0 4,-2 4,-6 0,-3.125 -1.83008,-4.41965 -5.49219,-4.35938 z" />
      <path
         id="path76524"
         style="fill:#54bce8;fill-opacity:1;stroke:none;stroke-width:20px;stroke-linecap:butt;stroke-linejoin:miter;stroke-opacity:1"
         d="m 23,1 c -3,0 -6,6 -6,11 0,2.13855 0.36798,3.72457 1.02148,4.84375 C 18.00802,16.57184 18,16.2922 18,16 18,11 21,5 24,5 24.39532,5 24.7706,5.0183 25.12891,5.0508 25.70312,3.21875 28,3.875 28,3 28,2 26,1 23,1 Z m 3.07812,8.2793 C 26.0321,9.4921 26,9.72428 26,10 c 0,1.79254 1.06751,3.22923 1.92969,4.73438 C 27.97057,14.49616 28,14.25304 28,14 28,12.21288 26.93895,10.77948 26.07812,9.2793 Z M 37,19 c -6,0 -8,1 -8,5 0,1.77196 0.39281,3.14972 1.00391,4.13672 C 30.00336,28.09023 30,28.04704 30,28 c 0,-4 2,-5 8,-5 4.18065,0 7.38516,1.94221 8.94727,4.13477 C 46.98007,26.77459 47,26.39764 47,26 47,23 43,19 37,19 Z M 13.50781,20.64062 C 12.48242,20.6575 11.3125,20.78125 10,21 4,22 1,26 1,29 1,30.43135 1.45629,31.62982 2.04102,32.38867 2.41305,29.48039 5.39851,25.93358 11,25 c 1.3125,-0.21875 2.48242,-0.3425 3.50781,-0.35938 2.06665,-0.034 3.54912,0.36487 4.44922,1.2793 0.0247,-0.29536 0.043,-0.59878 0.043,-0.91992 0,-3.125 -1.83008,-4.41965 -5.49219,-4.35938 z" />
      <path
         id="path78091"
         style="fill:#3888b8;fill-opacity:1;stroke:none;stroke-width:20px;stroke-linecap:butt;stroke-linejoin:miter;stroke-opacity:1"
         d="M 19.26172,3.95117 C 17.92641,6.14555 17,9.22498 17,12 c 0,5 2,7 5,7 2.69122,0 5.3749,-1.61233 5.90039,-4.10938 C 26.7586,16.21472 24.87949,17 23,17 20,17 18,15 18,10 18,7.99219 18.48846,5.82822 19.26172,3.95117 Z M 30.13086,20.48438 C 29.33804,21.2532 29,22.37635 29,24 c 0,4 2,6 4,6 2,0 3,-3 7,-3 4,0 4,4 5,4 0.65617,0 1.30604,-0.8728 1.67969,-2.3125 C 46.46112,28.8884 46.23087,29 46,29 c -1,0 -1,-4 -5,-4 -4,0 -5,3 -7,3 -2,0 -4,-2 -4,-6 0,-0.56522 0.0454,-1.06456 0.13086,-1.51562 z M 2.26172,25.41992 C 1.42074,26.6135 1,27.87685 1,29 c 0,3 2,5 3,4 1,-1 1,-3 5,-3 4,0 4,1 6,1 1.50373,0 3.00648,-1.13139 3.66016,-3.39258 C 17.9208,28.53238 16.96175,29 16,29 14,29 14,28 10,28 6,28 6,30 5,31 4,32 2,30 2,27 2,26.49537 2.0919,25.9621 2.26172,25.41992 Z"
         sodipodi:nodetypes="csscssccsssscssssccsssscssssc" />
      <path
         id="path93226"
         style="color:#000000;fill:#041840;fill-opacity:0.773842;stroke-width:40;stroke-linejoin:round;-inkscape-stroke:none"
         d="m 18.65625,7.17773 c -1.65635,0.63443 -3.50838,1.16675 -5.48633,1.64258 0.22448,1.24738 0.67652,2.51864 1.38672,3.53321 0.52987,0.75695 1.25897,1.41875 2.24414,1.57031 0.98517,0.15157 2.01876,-0.30001 2.90625,-1.1875 0.88749,-0.88749 1.33907,-1.92108 1.1875,-2.90625 C 20.74297,8.84491 20.08117,8.11581 19.32422,7.58594 19.11287,7.43799 18.88743,7.30392 18.65625,7.17773 Z m 17.76758,17.92579 c -0.86967,-0.008 -1.70039,0.53788 -2.25586,1.37109 -0.59245,0.88868 -0.87811,1.81587 -0.78711,2.70312 0.091,0.88725 0.56442,1.66282 1.21094,2.22852 0.6366,0.55703 1.43376,0.9581 2.33593,1.22266 0.0443,-0.20519 0.0722,-0.41505 0.0723,-0.62891 0,-2.83354 -0.0887,-4.53206 0.76367,-6.49609 -0.3963,-0.23704 -0.84188,-0.39563 -1.33984,-0.40039 z M 11.9375,26.90039 c -1.01146,0.0161 -1.91587,0.41137 -2.55664,1.03516 -0.64078,0.62379 -1.0301,1.43965 -1.22656,2.30664 -1.4e-4,6.2e-4 1.4e-4,10e-4 0,0.002 1.04226,1.24268 1.67482,3.31554 1.81054,5.76563 a 1.0001,1.0001 0 0 0 0.27735,-0.01 c 2.32338,-0.58084 4.24333,-2.20543 5.15234,-4.02344 0.45451,-0.90901 0.67047,-1.92979 0.33008,-2.90234 -0.34039,-0.97255 -1.26367,-1.71094 -2.48242,-2.01563 -0.45149,-0.11288 -0.88764,-0.16482 -1.30469,-0.1582 z" />
      <path
         id="path79502"
         style="color:#000000;fill:#045420;fill-opacity:1;stroke-width:40;stroke-linejoin:round;-inkscape-stroke:none"
         d="m 14,4 a 1.0001,1.0001 0 0 0 -1,1 c 0,1.72222 0.4969,3.81031 1.55664,5.32422 0.52987,0.75695 1.25897,1.41875 2.24414,1.57031 0.98517,0.15157 2.01876,-0.30001 2.90625,-1.1875 C 20.59452,9.81954 21.0461,8.78595 20.89453,7.80078 20.74297,6.81561 20.08117,6.08651 19.32422,5.55664 17.81031,4.4969 15.72222,4 14,4 Z m 22.42383,19.07422 c -0.86967,-0.008 -1.70039,0.53788 -2.25586,1.37109 -0.59245,0.88868 -0.87811,1.81588 -0.78711,2.70313 0.091,0.88725 0.56442,1.66281 1.21094,2.22851 C 35.88483,30.50836 37.83334,31 40,31 a 1.0001,1.0001 0 0 0 1,-1 c 0,-1.43231 -0.50752,-3.0038 -1.26562,-4.33203 -0.37906,-0.66412 -0.8228,-1.26295 -1.35352,-1.73633 -0.53072,-0.47338 -1.18143,-0.85 -1.95703,-0.85742 z M 11.9375,24.87109 c -1.01146,0.0161 -1.91587,0.41137 -2.55664,1.03516 -0.64078,0.62379 -1.0301,1.43965 -1.22656,2.30664 -0.39292,1.73398 -0.0601,3.73118 1.01367,5.3418 a 1.0001,1.0001 0 0 0 1.07422,0.41601 c 2.32338,-0.58084 4.24333,-2.20542 5.15234,-4.02343 0.45451,-0.90901 0.67047,-1.9298 0.33008,-2.90235 C 15.38422,26.07237 14.46094,25.33399 13.24219,25.0293 12.7907,24.91642 12.35455,24.86447 11.9375,24.87109 Z" />
      <path
         id="path61297"
         style="fill:#08c04c;fill-opacity:1;stroke:none;stroke-width:20px;stroke-linecap:butt;stroke-linejoin:miter;stroke-opacity:1"
         d="m 14,5 c 0,3 2,8 5,5 C 22,7 17,5 14,5 Z M 36.41406,24.07422 C 35.92273,24.06952 35.4375,24.34375 35,25 c -2,3 1,5 5,5 0,-2.34375 -1.83118,-5.909 -3.58594,-5.92578 z M 11.95312,25.87109 C 8.83789,25.92065 8.1875,30.28125 10,33 c 4,-1 7,-6 3,-7 -0.375,-0.0937 -0.72461,-0.13403 -1.04688,-0.12891 z" />
    </g>
  </g>
</svg>
