<?xml version="1.0" encoding="UTF-8" standalone="no"?>
<svg
   width="1.9000000000000001"
   height="2.1"
   viewBox="0 0 1.9000000000000001 2.1"
   version="1.1"
   id="svg5"
   xml:space="preserve"
   sodipodi:docname="mine_sub.svg"
   inkscape:version="1.2 (dc2aedaf03, 2022-05-15)"
   xmlns:inkscape="http://www.inkscape.org/namespaces/inkscape"
   xmlns:sodipodi="http://sodipodi.sourceforge.net/DTD/sodipodi-0.dtd"
   xmlns="http://www.w3.org/2000/svg"
   xmlns:svg="http://www.w3.org/2000/svg"><sodipodi:namedview
   id="namedview178418"
   pagecolor="#505050"
   bordercolor="#eeeeee"
   borderopacity="1"
   inkscape:showpageshadow="0"
   inkscape:pageopacity="0"
   inkscape:pagecheckerboard="0"
   inkscape:deskcolor="#505050"
   showgrid="false"
   inkscape:zoom="256"
   inkscape:cx="0.89648438"
   inkscape:cy="1.0507812"
   inkscape:window-width="3440"
   inkscape:window-height="1417"
   inkscape:window-x="-8"
   inkscape:window-y="-8"
   inkscape:window-maximized="1"
   inkscape:current-layer="svg5" />
   <defs
   id="defs2" />
   <g
   id="layer1"
   transform="scale(0.05) translate(-201,-90)">
      <g
   id="g78552">
         <circle
   style="opacity:1;fill:#0a0f32;fill-opacity:0.2;stroke:none;stroke-width:2;stroke-linejoin:round;stroke-dasharray:none;paint-order:markers stroke fill"
   id="circle77179"
   cx="220"
   cy="113"
   r="19" />
         <circle
   style="opacity:1;fill:#4c2800;fill-opacity:1;stroke:none;stroke-width:2;stroke-linejoin:round;stroke-dasharray:none;paint-order:markers stroke fill"
   id="circle73374"
   cx="220"
   cy="109"
   r="19" />
         <circle
   style="opacity:1;fill:#b84800;fill-opacity:1;stroke:none;stroke-width:2;stroke-linejoin:round;stroke-dasharray:none;paint-order:markers stroke fill"
   id="circle73376"
   cx="220"
   cy="109"
   r="17" />
         <path
   id="path76336"
   style="color:#000000;fill:#a44000;fill-opacity:1;stroke-linejoin:round;paint-order:markers stroke fill"
   d="m 220,94 c -7.65777,0 -14,5.537807 -14,12.5 v 3 c 0,6.96218 6.34224,12.5 14,12.5 7.65776,0 14,-5.53782 14,-12.5 v -3 C 234,99.537807 227.65777,94 220,94 Z" />
         <path
   id="ellipse75270"
   style="opacity:1;fill:#5c3404;fill-opacity:1;stroke:none;stroke-width:2;stroke-linejoin:round;stroke-dasharray:none;paint-order:markers stroke fill"
   d="m 207,106.5 v 3 c 0,6.35127 5.8203,11.5 13,11.5 7.1797,0 13,-5.14873 13,-11.5 v -3 z" />
         <ellipse
   style="opacity:1;fill:#b46c0c;fill-opacity:1;stroke:none;stroke-width:2;stroke-linejoin:round;stroke-dasharray:none;paint-order:markers stroke fill"
   id="ellipse73378"
   cx="220"
   cy="106.5"
   rx="13"
   ry="11.5" />
         <circle
   style="opacity:1;fill:#c48c40;fill-opacity:1;stroke:none;stroke-width:2;stroke-linejoin:round;stroke-dasharray:none;paint-order:markers stroke fill"
   id="circle74785"
   cx="219"
   cy="107"
   r="7" />
         <circle
   style="opacity:1;fill:#1c1c28;fill-opacity:1;stroke:none;stroke-width:2;stroke-linejoin:round;stroke-dasharray:none;paint-order:markers stroke fill"
   id="circle73380"
   cx="220"
   cy="106"
   r="7" />
         <path
   id="circle74361"
   style="opacity:1;fill:#2c2c44;fill-opacity:1;stroke:none;stroke-width:2;stroke-linejoin:round;stroke-dasharray:none;paint-order:markers stroke fill"
   d="m 220,99 a 7,7 0 0 0 -7,7 7,7 0 0 0 0.0703,1 7,7 0 0 1 6.92969,-6 7,7 0 0 1 6.92773,6.00391 A 7,7 0 0 0 227,106 7,7 0 0 0 220,99 Z" />
         <path
   id="ellipse74573"
   style="opacity:1;fill:#bc7c14;fill-opacity:1;stroke:none;stroke-width:2;stroke-linejoin:round;stroke-dasharray:none;paint-order:markers stroke fill"
   d="M 232.93164,105.33789 A 13,11.5 0 0 1 220,116 a 13,11.5 0 0 1 -12.91797,-10.5 13,11.5 0 0 0 -0.082,1 13,11.5 0 0 0 13,11.5 13,11.5 0 0 0 13,-11.5 13,11.5 0 0 0 -0.0684,-1.16211 z" />
         <path
   id="circle76412"
   style="opacity:1;fill:#803000;fill-opacity:1;stroke:none;stroke-width:2;stroke-linejoin:round;stroke-dasharray:none;paint-order:markers stroke fill"
   d="M 236.94727,107.72852 A 17,17 0 0 1 220,124 17,17 0 0 1 203.07227,108 17,17 0 0 0 203,109 a 17,17 0 0 0 17,17 17,17 0 0 0 17,-17 17,17 0 0 0 -0.0527,-1.27148 z" />
         <path
   id="path77043"
   style="opacity:1;fill:#8c3400;fill-opacity:1;stroke:none;stroke-width:2;stroke-linejoin:round;stroke-dasharray:none;paint-order:markers stroke fill"
   d="m 218,95.5 v 2 a 2,1.5 0 0 0 2,1.5 2,1.5 0 0 0 2,-1.5 v -2 z m -8,5 v 2 a 2,1.5 0 0 0 2,1.5 2,1.5 0 0 0 2,-1.5 v -2 z m 16,0 v 2 a 2,1.5 0 0 0 2,1.5 2,1.5 0 0 0 2,-1.5 v -2 z m -16,9 v 2 a 2,1.5 0 0 0 2,1.5 2,1.5 0 0 0 2,-1.5 v -2 z m 16,0 v 2 a 2,1.5 0 0 0 2,1.5 2,1.5 0 0 0 2,-1.5 v -2 z m -8,4 v 2 a 2,1.5 0 0 0 2,1.5 2,1.5 0 0 0 2,-1.5 v -2 z" />
         <path
   id="ellipse73382"
   style="opacity:1;fill:#d08838;fill-opacity:1;stroke:none;stroke-width:2;stroke-linejoin:round;stroke-dasharray:none;paint-order:markers stroke fill"
   d="m 220,94 a 2,1.5 0 0 0 -2,1.5 2,1.5 0 0 0 2,1.5 2,1.5 0 0 0 2,-1.5 2,1.5 0 0 0 -2,-1.5 z m -8,5 a 2,1.5 0 0 0 -2,1.5 2,1.5 0 0 0 2,1.5 2,1.5 0 0 0 2,-1.5 2,1.5 0 0 0 -2,-1.5 z m 16,0 a 2,1.5 0 0 0 -2,1.5 2,1.5 0 0 0 2,1.5 2,1.5 0 0 0 2,-1.5 2,1.5 0 0 0 -2,-1.5 z m -16,9 a 2,1.5 0 0 0 -2,1.5 2,1.5 0 0 0 2,1.5 2,1.5 0 0 0 2,-1.5 2,1.5 0 0 0 -2,-1.5 z m 16,0 a 2,1.5 0 0 0 -2,1.5 2,1.5 0 0 0 2,1.5 2,1.5 0 0 0 2,-1.5 2,1.5 0 0 0 -2,-1.5 z m -8,4 a 2,1.5 0 0 0 -2,1.5 2,1.5 0 0 0 2,1.5 2,1.5 0 0 0 2,-1.5 2,1.5 0 0 0 -2,-1.5 z" />
         <path
   id="path76831"
   style="opacity:1;fill:#d49854;fill-opacity:1;stroke:none;stroke-width:2;stroke-linejoin:round;stroke-dasharray:none;paint-order:markers stroke fill"
   d="M 220,94 A 2,1.5 0 0 0 219.5332,94.05664 2,1.5 0 0 1 221,95.5 2,1.5 0 0 1 219.5,96.939453 2,1.5 0 0 0 220,97 2,1.5 0 0 0 222,95.5 2,1.5 0 0 0 220,94 Z m -8,5 A 2,1.5 0 0 0 211.5332,99.05664 2,1.5 0 0 1 213,100.5 a 2,1.5 0 0 1 -1.5,1.43945 2,1.5 0 0 0 0.5,0.0606 2,1.5 0 0 0 2,-1.5 2,1.5 0 0 0 -2,-1.5 z m 16,0 A 2,1.5 0 0 0 227.5332,99.05664 2,1.5 0 0 1 229,100.5 a 2,1.5 0 0 1 -1.5,1.43945 2,1.5 0 0 0 0.5,0.0606 2,1.5 0 0 0 2,-1.5 2,1.5 0 0 0 -2,-1.5 z m -16,9 a 2,1.5 0 0 0 -0.4668,0.0566 2,1.5 0 0 1 1.4668,1.4434 2,1.5 0 0 1 -1.5,1.43945 2,1.5 0 0 0 0.5,0.0606 2,1.5 0 0 0 2,-1.5 2,1.5 0 0 0 -2,-1.5 z m 16,0 a 2,1.5 0 0 0 -0.4668,0.0566 2,1.5 0 0 1 1.4668,1.4434 2,1.5 0 0 1 -1.5,1.43945 2,1.5 0 0 0 0.5,0.0606 2,1.5 0 0 0 2,-1.5 2,1.5 0 0 0 -2,-1.5 z m -8,4 a 2,1.5 0 0 0 -0.4668,0.0566 2,1.5 0 0 1 1.4668,1.4434 2,1.5 0 0 1 -1.5,1.43945 2,1.5 0 0 0 0.5,0.0606 2,1.5 0 0 0 2,-1.5 2,1.5 0 0 0 -2,-1.5 z" />
      </g>
   </g>
</svg>
