<?xml version="1.0" encoding="utf-8"?>
<!-- Generator: Adobe Illustrator 24.1.2, SVG Export Plug-In . SVG Version: 6.00 Build 0)  -->
<svg version="1.1" id="Capa_1" xmlns="http://www.w3.org/2000/svg" xmlns:xlink="http://www.w3.org/1999/xlink" x="0px" y="0px"
	 width="1.9px" height="2.5px" viewBox="0 0 1.9 2.5" enable-background="new 0 0 1.9 2.5" xml:space="preserve">
<circle id="circle15100_1_" fill-opacity="0.1804" cx="0.95" cy="1.484" r="0.891"/>
<g>
	<path d="M1.9,0.95v0.204c0,0.523-0.427,0.95-0.95,0.95S0,1.676,0,1.154V0.95C0,0.427,0.427,0,0.95,0
		c0.261,0,0.499,0.107,0.671,0.279C1.793,0.451,1.9,0.689,1.9,0.95z"/>
	<radialGradient id="SVGID_1_" cx="0.95" cy="0.9296" r="1.0905" gradientUnits="userSpaceOnUse">
		<stop  offset="0.67" style="stop-color:#A653A2"/>
		<stop  offset="0.83" style="stop-color:#81307C"/>
	</radialGradient>
	<path fill="url(#SVGID_1_)" d="M1.764,0.95v0.204c0,0.448-0.366,0.814-0.814,0.814S0.136,1.601,0.136,1.154V0.95
		c0-0.012,0-0.022,0.001-0.034c0.017-0.432,0.377-0.78,0.813-0.78c0.224,0,0.427,0.092,0.575,0.239
		c0.14,0.14,0.229,0.331,0.238,0.541C1.764,0.928,1.764,0.938,1.764,0.95z"/>
	<path fill="#BE75B8" d="M1.763,0.916C1.762,0.939,1.76,0.962,1.758,0.985C1.735,0.801,1.65,0.636,1.525,0.51
		C1.377,0.363,1.174,0.271,0.95,0.271c-0.413,0-0.758,0.312-0.808,0.712C0.14,0.962,0.138,0.939,0.137,0.916
		c0.017-0.432,0.377-0.78,0.813-0.78c0.224,0,0.427,0.092,0.575,0.239C1.665,0.515,1.755,0.706,1.763,0.916z"/>
	<circle fill="#03051B" cx="0.95" cy="0.95" r="0.543"/>
	<path fill="#30143E" d="M1.493,0.95c0,0.047-0.006,0.092-0.017,0.136C1.415,0.852,1.203,0.679,0.95,0.679S0.485,0.852,0.424,1.086
		C0.413,1.042,0.407,0.997,0.407,0.95c0-0.3,0.243-0.543,0.543-0.543S1.493,0.65,1.493,0.95z"/>
	
		<ellipse transform="matrix(0.7071 -0.7071 0.7071 0.7071 -0.2646 0.4469)" fill="#D6B5D6" cx="0.407" cy="0.543" rx="0.165" ry="0.099"/>
</g>
</svg>
