<?xml version="1.0" encoding="UTF-8" standalone="no"?>
<!-- Created with Inkscape (http://www.inkscape.org/) -->

<svg
   width="2"
   height="1.85"
   viewBox="0 0 2 1.85"
   version="1.1"
   id="svg5"
   sodipodi:docname="mine_factory.svg"
   inkscape:version="1.2 (dc2aedaf03, 2022-05-15)"
   xml:space="preserve"
   xmlns:inkscape="http://www.inkscape.org/namespaces/inkscape"
   xmlns:sodipodi="http://sodipodi.sourceforge.net/DTD/sodipodi-0.dtd"
   xmlns="http://www.w3.org/2000/svg"
   xmlns:svg="http://www.w3.org/2000/svg"><sodipodi:namedview
     id="namedview7"
     pagecolor="#171717"
     bordercolor="#999999"
     borderopacity="1"
     inkscape:pageshadow="0"
     inkscape:pageopacity="0"
     inkscape:pagecheckerboard="0"
     inkscape:document-units="px"
     showgrid="false"
     units="px"
     inkscape:zoom="187.83333"
     inkscape:cx="0.59094943"
     inkscape:cy="0.98491572"
     inkscape:window-width="3440"
     inkscape:window-height="1417"
     inkscape:window-x="-8"
     inkscape:window-y="-8"
     inkscape:window-maximized="1"
     inkscape:current-layer="layer1"
     inkscape:object-paths="true"
     inkscape:snap-intersection-paths="true"
     inkscape:snap-smooth-nodes="true"
     inkscape:snap-midpoints="true"
     inkscape:snap-object-midpoints="true"
     showguides="false"
     inkscape:snap-global="true"
     inkscape:showpageshadow="0"
     inkscape:deskcolor="#171717"><inkscape:grid
       type="xygrid"
       id="grid836"
       originx="0"
       originy="0" /></sodipodi:namedview><defs
     id="defs2" /><g
     inkscape:label="Layer 1"
     inkscape:groupmode="layer"
     id="layer1"><g
       id="g80158"
       transform="scale(0.05)"><rect
         style="fill:#0f0f37;fill-opacity:0.2;stroke:none;stroke-width:4;stroke-linejoin:round;stroke-dasharray:none;paint-order:fill markers stroke"
         id="rect54885"
         width="38"
         height="9"
         x="1"
         y="28"
         ry="2" /><rect
         style="fill:#603800;fill-opacity:1;stroke:none;stroke-width:4;stroke-linejoin:round;stroke-dasharray:none;paint-order:fill markers stroke"
         id="rect47845"
         width="38"
         height="32"
         x="1"
         y="1"
         ry="9" /><rect
         style="fill:#040418;fill-opacity:1;stroke:none;stroke-width:4;stroke-linejoin:round;stroke-dasharray:none;paint-order:fill markers stroke"
         id="rect47847"
         width="20"
         height="21"
         x="10"
         y="8" /><path
         id="rect47849"
         style="fill:#b01400;fill-opacity:1;stroke:none;stroke-width:4;stroke-linejoin:round;stroke-dasharray:none;paint-order:fill markers stroke"
         d="m 6,8 v 21 h 6 V 8 Z m 22,0 v 21 h 6 V 8 Z" /><rect
         style="fill:#d43824;fill-opacity:1;stroke:none;stroke-width:4;stroke-linejoin:round;stroke-dasharray:none;paint-order:fill markers stroke"
         id="rect47851"
         width="1"
         height="21"
         x="11"
         y="8" /><rect
         style="fill:#701c14;fill-opacity:1;stroke:none;stroke-width:4;stroke-linejoin:round;stroke-dasharray:none;paint-order:fill markers stroke"
         id="rect47855"
         width="1"
         height="21"
         x="28"
         y="8" /><rect
         style="fill:#945400;fill-opacity:1;stroke:none;stroke-width:4;stroke-linejoin:round;stroke-dasharray:none;paint-order:fill markers stroke"
         id="rect47857"
         width="18"
         height="4"
         x="11"
         y="6" /><path
         id="rect47859"
         style="fill:#ec8004;fill-opacity:1;stroke:none;stroke-width:4;stroke-linejoin:round;stroke-dasharray:none;paint-order:fill markers stroke"
         d="M 10,3 V 7 H 30 V 3 Z M 3,12 V 24 H 7 V 12 Z m 30,0 v 13 h 4 V 12 Z M 10,27 v 4 h 20 v -4 z" /><path
         id="rect47867"
         style="fill:#f49834;fill-opacity:1;stroke:none;stroke-width:4;stroke-linejoin:round;stroke-dasharray:none;paint-order:fill markers stroke"
         d="M 10,3 V 4 H 30 V 3 Z m 0,3 V 7 H 30 V 6 Z M 3,12 V 24 H 4 V 12 Z m 33,0 v 13 h 1 V 12 Z M 10,30 v 1 h 20 v -1 z"
         sodipodi:nodetypes="ccccccccccccccccccccccccc" /><path
         id="path51288"
         style="color:#000000;fill:#701c14;fill-opacity:1;stroke-width:4;stroke-linejoin:round;paint-order:fill markers stroke"
         d="M 8,0 C 3.60541,0 0,3.605423 0,8 v 5 c 0,1.63318 1.36682,3 3,3 h 3 c 1.63318,0 3,-1.36682 3,-3 v -2 h 2 c 1.63317,0 3,-1.366826 3,-3 V 3 C 14,1.366826 12.63317,0 11,0 Z" /><path
         id="path50245"
         style="fill:#882418;fill-opacity:1;stroke:none;stroke-width:4;stroke-linejoin:round;stroke-dasharray:none;paint-order:fill markers stroke"
         d="m 2,11 v 2 c 0,0.55228 0.44772,1 1,1 h 3 c 0.55228,0 1,-0.44772 1,-1 V 11 C 7,9.895431 7.89543,9 9,9 h 2 c 0.55228,0 1,-0.447715 1,-1 V 6 H 4 Z"
         sodipodi:nodetypes="cssssssssccc" /><path
         id="circle47883"
         style="fill:#ff5440;fill-opacity:1;stroke:none;stroke-width:4;stroke-linejoin:round;stroke-dasharray:none;paint-order:fill markers stroke"
         d="M 8,2 C 4.68629,2 2,4.686292 2,8 v 3 c 0,0.55228 0.44772,1 1,1 h 3 c 0.55228,0 1,-0.44772 1,-1 V 9 C 7,7.895431 7.89543,7 9,7 h 2 c 0.55228,0 1,-0.447715 1,-1 V 3 C 12,2.447715 11.55228,2 11,2 Z"
         sodipodi:nodetypes="sssssssssssss" /><path
         id="circle47885"
         style="fill:#f84028;fill-opacity:1;stroke:none;stroke-width:4;stroke-linejoin:round;stroke-dasharray:none;paint-order:fill markers stroke"
         d="M 8,3 A 5,5 0 0 0 3,8 v 3 H 6 V 9 A 3,3 0 0 1 9,6 h 2 V 3 Z" /><path
         id="path51295"
         style="color:#000000;fill:#701c14;fill-opacity:1;stroke-width:4;stroke-linejoin:round;paint-order:fill markers stroke"
         d="m 32,0 c 4.39459,0 8,3.605423 8,8 v 5 c 0,1.63318 -1.36682,3 -3,3 h -3 c -1.63318,0 -3,-1.36682 -3,-3 V 11 H 29 C 27.36683,11 26,9.633174 26,8 V 3 c 0,-1.633174 1.36683,-3 3,-3 z" /><path
         id="path51297"
         style="fill:#882418;fill-opacity:1;stroke:none;stroke-width:4;stroke-linejoin:round;stroke-dasharray:none;paint-order:fill markers stroke"
         d="m 38,11 v 2 c 0,0.55228 -0.44772,1 -1,1 h -3 c -0.55228,0 -1,-0.44772 -1,-1 V 11 C 33,9.895431 32.10457,9 31,9 H 29 C 28.44772,9 28,8.552285 28,8 V 6 h 8 z"
         sodipodi:nodetypes="cssssssssccc" /><path
         id="path51299"
         style="fill:#ff5440;fill-opacity:1;stroke:none;stroke-width:4;stroke-linejoin:round;stroke-dasharray:none;paint-order:fill markers stroke"
         d="m 32,2 c 3.31371,0 6,2.686292 6,6 v 3 c 0,0.55228 -0.44772,1 -1,1 h -3 c -0.55228,0 -1,-0.44772 -1,-1 V 9 C 33,7.895431 32.10457,7 31,7 H 29 C 28.44772,7 28,6.552285 28,6 V 3 c 0,-0.552285 0.44772,-1 1,-1 z"
         sodipodi:nodetypes="sssssssssssss" /><path
         id="path51301"
         style="fill:#f84028;fill-opacity:1;stroke:none;stroke-width:4;stroke-linejoin:round;stroke-dasharray:none;paint-order:fill markers stroke"
         d="m 32,3 a 5,5 0 0 1 5,5 v 3 H 34 V 9 A 3,3 0 0 0 31,6 H 29 V 3 Z" /><path
         id="path52324"
         style="color:#000000;fill:#701c14;fill-opacity:1;stroke-width:4;stroke-linejoin:round;paint-order:fill markers stroke"
         d="M 8,35 C 3.60541,35 0,31.39458 0,27 v -5 c 0,-1.63318 1.36682,-3 3,-3 h 3 c 1.63318,0 3,1.36682 3,3 v 2 h 2 c 1.63317,0 3,1.36683 3,3 v 5 c 0,1.63317 -1.36683,3 -3,3 z" /><path
         id="path51307"
         style="fill:#882418;fill-opacity:1;stroke:none;stroke-width:4;stroke-linejoin:round;stroke-dasharray:none;paint-order:fill markers stroke"
         d="M 8,33 C 4.68629,33 2,30.31371 2,27 v -3 l 10,5 v 3 c 0,0.55228 -0.44772,1 -1,1 z"
         sodipodi:nodetypes="ssccsss" /><path
         id="path51303"
         style="fill:#ff5440;fill-opacity:1;stroke:none;stroke-width:4;stroke-linejoin:round;stroke-dasharray:none;paint-order:fill markers stroke"
         d="M 8,31 C 4.68629,31 2,28.31371 2,25 v -3 c 0,-0.55228 0.44772,-1 1,-1 h 3 c 0.55228,0 1,0.44772 1,1 v 2 c 0,1.10457 0.89543,2 2,2 h 2 c 0.55228,0 1,0.44772 1,1 v 3 c 0,0.55228 -0.44772,1 -1,1 z"
         sodipodi:nodetypes="sssssssssssss" /><path
         id="path51305"
         style="fill:#f84028;fill-opacity:1;stroke:none;stroke-width:4;stroke-linejoin:round;stroke-dasharray:none;paint-order:fill markers stroke"
         d="M 8,30 A 5,5 0 0 1 3,25 v -3 h 3 v 2 a 3,3 0 0 0 3,3 h 2 v 3 z" /><path
         id="path52326"
         style="color:#000000;fill:#701c14;fill-opacity:1;stroke-width:4;stroke-linejoin:round;paint-order:fill markers stroke"
         d="m 32,35 c 4.39459,0 8,-3.60542 8,-8 v -5 c 0,-1.63318 -1.36682,-3 -3,-3 h -3 c -1.63318,0 -3,1.36682 -3,3 v 2 h -2 c -1.63317,0 -3,1.36683 -3,3 v 5 c 0,1.63317 1.36683,3 3,3 z" /><path
         id="path52328"
         style="fill:#882418;fill-opacity:1;stroke:none;stroke-width:4;stroke-linejoin:round;stroke-dasharray:none;paint-order:fill markers stroke"
         d="m 32,33 c 3.31371,0 6,-2.68629 6,-6 v -3 l -10,5 v 3 c 0,0.55228 0.44772,1 1,1 z"
         sodipodi:nodetypes="ssccsss" /><path
         id="path52330"
         style="fill:#ff5440;fill-opacity:1;stroke:none;stroke-width:4;stroke-linejoin:round;stroke-dasharray:none;paint-order:fill markers stroke"
         d="m 32,31 c 3.31371,0 6,-2.68629 6,-6 v -3 c 0,-0.55228 -0.44772,-1 -1,-1 h -3 c -0.55228,0 -1,0.44772 -1,1 v 2 c 0,1.10457 -0.89543,2 -2,2 h -2 c -0.55228,0 -1,0.44772 -1,1 v 3 c 0,0.55228 0.44772,1 1,1 z"
         sodipodi:nodetypes="sssssssssssss" /><path
         id="path52332"
         style="fill:#f84028;fill-opacity:1;stroke:none;stroke-width:4;stroke-linejoin:round;stroke-dasharray:none;paint-order:fill markers stroke"
         d="m 32,30 a 5,5 0 0 0 5,-5 v -3 h -3 v 2 a 3,3 0 0 1 -3,3 h -2 v 3 z" /></g></g></svg>
