<?xml version="1.0" encoding="utf-8"?>
<!-- Generator: Adobe Illustrator 24.1.2, SVG Export Plug-In . SVG Version: 6.00 Build 0)  -->
<svg version="1.1"
	 id="svg3893" xmlns:cc="http://creativecommons.org/ns#" xmlns:dc="http://purl.org/dc/elements/1.1/" xmlns:inkscape="http://www.inkscape.org/namespaces/inkscape" xmlns:rdf="http://www.w3.org/1999/02/22-rdf-syntax-ns#" xmlns:sodipodi="http://sodipodi.sourceforge.net/DTD/sodipodi-0.dtd" xmlns:svg="http://www.w3.org/2000/svg"
	 xmlns="http://www.w3.org/2000/svg" xmlns:xlink="http://www.w3.org/1999/xlink" x="0px" y="0px" viewBox="0 0 2.4 2.136"
	 enable-background="new 0 0 2.4 2.136" xml:space="preserve">
<g id="layer1" transform="translate(-90.475521,-137.27842)" inkscape:groupmode="layer" inkscape:label="Layer 1">
	<g id="g1779" transform="matrix(0.04999963,0,0,0.04999963,88.544298,142.20365)">
		<ellipse id="path6763-8-9-6" fill-opacity="0.18" cx="62.886" cy="-75.468" rx="19.699" ry="19.699"/>
		
			<linearGradient id="path2175_1_" gradientUnits="userSpaceOnUse" x1="42.6302" y1="-327731.625" x2="42.6302" y2="-327733.1875" gradientTransform="matrix(3.549974e-04 0 0 -3.549974e-04 -11766.0693 -6378.5601)">
			<stop  offset="0" style="stop-color:#302850"/>
			<stop  offset="1" style="stop-color:#201834"/>
		</linearGradient>
		<path id="path2175" fill="url(#path2175_1_)" d="M49.752-87.084l-2.02,12.122l7.072,10.102l13.132,2.02l10.102-8.082l1.01-10.102
			l-5.052-8.082l-13.132-5.052L49.752-87.084z"/>
		<path id="path3780" fill="#5C253A" d="M60.049-98.503c-0.434-0.004-0.847,0.176-1.138,0.497l-0.603,0.666
			c-1.81,1.968-2.784,3.487-3.921,4.474c-1.162,1.01-2.643,1.832-6.229,2.543c-0.003,0-0.005,0-0.008,0l-0.96,0.195
			c-0.797,0.162-1.324,0.926-1.194,1.728l0.157,0.96c0,0.003,0,0.005,0,0.008c0.393,2.363,0.634,4.473,0.418,6.243
			c-0.218,1.793-0.778,3.242-2.284,4.842l-1.082,1.149c-0.574,0.61-0.544,1.569,0.066,2.141c0.159,0.149,0.347,0.263,0.554,0.333
			l1.491,0.501c2.222,0.755,3.486,1.921,4.482,3.469c0.985,1.532,1.597,3.482,2.03,5.501c0.001,0.004,0.001,0.006,0.003,0.01
			l0.158,0.71c-0.566-0.409-1.246-0.721-2.084-0.802c-0.24-0.024-0.472-0.018-0.704-0.013c-0.09-0.009-0.181-0.013-0.27-0.005
			h-0.003c-2.197,0.166-3.835,1.751-3.718,3.638c0.037,0.579,0.36,1.242,0.798,1.602c0.439,0.36,0.862,0.464,1.18,0.533
			c0.634,0.135,1.052,0.223,0.879,0.136c0.018,0.009,0.33,0.263,0.784,0.592c0.454,0.329,1.359,0.846,2.394,0.501
			c1.676-0.559,2.273-2.185,2.025-3.701c-0.027-0.167-0.199-0.728-0.344-1.214c0.249,0.105,0.523,0.142,0.791,0.105l0.917-0.126
			c2.201-0.29,9.012-1.062,12.479,1.825c0,0.001,0,0.003,0,0.004l0.968,0.806c0.644,0.534,1.599,0.446,2.134-0.198
			c0.07-0.085,0.133-0.177,0.182-0.277l0.573-1.112l0.003-0.005c1.363-2.628,5.492-7.081,8.943-8.176
			c0.001-0.001,0.001-0.001,0.003-0.003l0.998-0.319c0.797-0.255,1.237-1.107,0.982-1.904c-0.005-0.016-0.01-0.033-0.018-0.05
			l-0.357-0.992c-0.001-0.003-0.003-0.005-0.004-0.008c-0.263-0.718-0.52-2.285-0.462-3.91c0.059-1.625,0.422-3.336,1.104-4.545
			l-0.004,0.004l0.544-0.955c0.413-0.727,0.161-1.653-0.567-2.066c-0.035-0.02-0.071-0.039-0.11-0.056l-0.99-0.462h-0.003
			c-2.512-1.173-3.72-3.044-4.292-6.406c0-0.001,0-0.001,0-0.003l-0.126-0.738c-0.113-0.654-0.639-1.158-1.296-1.245l-0.738-0.097
			c-0.001-0.001-0.003-0.001-0.004-0.003c-8.531-1.095-8.415-2.248-12.919-5.501l-0.006-0.004l-0.724-0.527
			C60.669-98.4,60.364-98.501,60.049-98.503L60.049-98.503z M82.362-92.653c-0.032,0.001-0.066,0.003-0.098,0.005h-0.003
			c-2.197,0.166-3.835,1.751-3.718,3.638c0.039,0.624,0.431,1.312,0.888,1.648c0.457,0.335,0.867,0.422,1.181,0.483
			c0.236,0.046,0.381,0.062,0.523,0.08c0.003,0.004,0,0.001,0.003,0.005c0.093,0.19,0.273,0.531,0.653,0.815
			c0.38,0.283,0.888,0.408,1.296,0.408c1.112,0,1.7-0.491,2.308-1.057c0.608-0.566,1.227-1.31,1.227-2.478
			c0-0.477,0.069-1.31-0.527-2.16c-0.596-0.851-1.635-1.246-2.859-1.367c-0.24-0.024-0.472-0.018-0.704-0.013
			c-0.056-0.005-0.115-0.008-0.171-0.008h0.001V-92.653z M60.604-92.328c2.806,2.064,5.605,3.793,11.729,4.802
			c0.816,2.875,2.399,5.307,4.742,7.016c-1.069,2.932-1.078,5.846-0.594,8.332c-3.77,1.8-6.749,4.799-8.681,7.733
			c-4.493-2.372-9.026-2.248-11.699-1.944c-0.436-1.671-0.977-3.422-2.056-5.103c-1.089-1.696-2.764-2.905-4.605-3.925
			c1.052-1.603,1.913-3.288,2.14-5.161c0.236-1.926,0.032-3.776-0.225-5.577c2.628-0.724,4.821-1.578,6.345-2.903
			C58.926-90.12,59.728-91.236,60.604-92.328z M43.786-69.406c-1.057-0.066-2.088,0.196-3.04,0.673
			c-0.953,0.476-2.06,1.238-2.118,2.738c-0.059,1.486,1.008,2.357,1.96,2.878c0.953,0.522,2.037,0.812,3.15,0.779
			c1.011-0.029,1.993-0.268,2.852-0.797c0.857-0.529,1.65-1.519,1.65-2.738c0-1.302-0.904-2.246-1.758-2.742
			C45.624-69.111,44.693-69.349,43.786-69.406z"/>
		<path id="path2165" fill="#945970" d="M60.034-96.987l-0.603,0.664c-1.727,1.875-2.686,3.415-4.049,4.601
			c-1.363,1.185-3.19,2.144-6.928,2.886l-0.962,0.194l0.157,0.962c0.399,2.402,0.673,4.637,0.426,6.674
			c-0.249,2.037-0.976,3.881-2.685,5.697l-1.082,1.149l1.491,0.5c2.53,0.86,4.132,2.311,5.272,4.086
			c1.141,1.775,1.784,3.898,2.237,6.003l0.2,0.909l0.926-0.126c2.141-0.282,9.407-1.368,13.647,2.163l0.969,0.806l0.574-1.118
			c1.571-3.034,5.687-7.61,9.829-8.926l1-0.32l-0.358-0.991c-0.747-2.039-0.976-6.68,0.746-9.723l0.544-0.955l-0.991-0.462
			c-2.956-1.381-4.524-3.859-5.145-7.524l-0.126-0.738l-0.738-0.097c-8.697-1.117-9.24-2.621-13.616-5.78L60.034-96.987z
			 M60.333-94.302c3.471,2.592,5.599,4.394,13.177,5.474c0.738,3.423,2.497,6.126,5.354,7.771c-1.557,3.355-1.538,7.141-0.791,9.746
			c-4.34,1.715-7.884,5.538-9.74,8.777c-4.855-3.243-11.013-2.641-13.371-2.305c-0.47-1.963-1.017-4.003-2.192-5.831
			c-1.159-1.805-3.121-3.182-5.451-4.228c1.456-1.866,2.511-3.821,2.759-5.862c0.259-2.121-0.048-4.28-0.388-6.458
			c3.21-0.765,5.549-1.706,7.017-2.983C58.126-91.435,59.087-92.843,60.333-94.302z"/>
		<path id="path2171" fill="#945970" d="M82.377-91.137c-1.557,0.117-2.372,1.173-2.318,2.033c0.061,0.982,1.522,0.65,2.02,1.01
			c0.499,0.36,0.296,1.01,1.01,1.01s2.02-1.069,2.02-2.02c0-0.953,0-1.82-2.02-2.02C82.836-91.151,82.599-91.155,82.377-91.137z
			 M43.692-67.892c-1.358-0.085-3.506,0.806-3.552,1.958c-0.046,1.152,1.993,2.13,3.552,2.084c1.557-0.046,3.03-0.807,3.03-2.02
			C46.722-67.085,45.049-67.807,43.692-67.892z M49.04-61.841c-1.557,0.117-2.372,1.173-2.318,2.033
			c0.061,0.982,1.347,0.673,2.02,1.01c0.673,0.337,1.306,1.249,2.02,1.01c0.714-0.239,1.146-1.178,1.01-2.02
			c-0.136-0.842,0-1.82-2.02-2.02C49.5-61.855,49.262-61.858,49.04-61.841z"/>
		<path id="path2194" fill="#A66A80" d="M60.034-96.987l-0.603,0.666c-1.727,1.875-2.686,3.415-4.049,4.601
			c-1.363,1.185-3.191,2.143-6.929,2.885l-0.96,0.195l0.157,0.96c0.001,0.006,0.001,0.013,0.001,0.018l0.802-0.164
			c3.738-0.741,5.564-1.7,6.928-2.885c1.363-1.185,2.325-2.727,4.05-4.601l0.603-0.666l0.73,0.531
			c4.376,3.159,4.92,4.663,13.618,5.779l0.738,0.097l0.126,0.738c0.622,3.667,2.189,6.145,5.145,7.526l0.536,0.25l0.455-0.798
			l-0.992-0.462c-2.956-1.381-4.524-3.859-5.145-7.526l-0.126-0.738l-0.738-0.097c-8.699-1.115-9.241-2.621-13.618-5.779
			L60.034-96.987z M49.836-86.246c-0.051,0.013-0.093,0.027-0.144,0.039c0.223,1.427,0.416,2.846,0.459,4.253
			C50.196-83.371,50.047-84.803,49.836-86.246z M48.143-82.158c-0.014,0.388-0.023,0.777-0.069,1.152
			c-0.249,2.037-0.977,3.88-2.686,5.696l-1.082,1.149l0.722,0.242l0.36-0.381c1.709-1.817,2.436-3.66,2.683-5.696
			C48.157-80.69,48.163-81.417,48.143-82.158z M78.541-80.258c-0.746,1.937-1.014,3.963-0.943,5.802
			c0.051-1.82,0.417-3.767,1.265-5.591C78.751-80.114,78.65-80.19,78.541-80.258z M79.546-74.705
			c-0.071,1.816,0.171,3.509,0.548,4.538l0.031,0.087l0.326-0.105l-0.357-0.992C79.788-72.012,79.579-73.288,79.546-74.705z
			 M47.848-74.63c-0.176,0.248-0.338,0.497-0.529,0.742c2.33,1.047,4.292,2.423,5.451,4.228c1.175,1.828,1.722,3.869,2.191,5.832
			c2.358-0.338,8.514-0.939,13.37,2.305c1.854-3.239,5.401-7.062,9.741-8.778c-0.083-0.291-0.154-0.599-0.219-0.917
			c-4.24,1.756-7.697,5.501-9.52,8.685c-4.855-3.243-11.013-2.643-13.371-2.305c-0.47-1.963-1.017-4.005-2.191-5.832
			C51.703-72.334,49.938-73.617,47.848-74.63z"/>
		<path id="path2189" fill="#A66A80" d="M82.377-91.137c-1.557,0.117-2.372,1.173-2.318,2.033c0.008,0.136,0.048,0.241,0.105,0.332
			c0.333-0.177,0.728-0.309,1.204-0.343c0.222-0.016,0.459-0.014,0.713,0.013c1.712,0.17,1.961,0.827,2,1.6
			c0.542-0.399,1.03-1.018,1.03-1.6c0-0.953,0-1.82-2.02-2.02C82.836-91.151,82.599-91.155,82.377-91.137z M43.692-67.892
			c-1.358-0.085-3.506,0.806-3.552,1.958c-0.008,0.217,0.075,0.425,0.196,0.624c0.726-0.381,1.639-0.605,2.344-0.56
			c1.167,0.073,2.56,0.618,2.93,1.541c0.658-0.351,1.111-0.874,1.111-1.541C46.722-67.085,45.049-67.807,43.692-67.892z
			 M49.04-61.841c-1.557,0.117-2.372,1.173-2.318,2.033c0.008,0.136,0.046,0.244,0.097,0.335c0.334-0.181,0.733-0.311,1.21-0.347
			c0.222-0.016,0.459-0.014,0.713,0.013c2.02,0.2,1.885,1.178,2.02,2.02c0.714-0.238,1.146-1.178,1.01-2.02
			c-0.136-0.842,0-1.82-2.02-2.02C49.5-61.855,49.262-61.858,49.04-61.841z"/>
		<path id="path2271" sodipodi:nodetypes="cscccscscccccccccccccccccccscscsccccc" fill="#5C253A" d="M60.331-94.302
			c-1.245,1.459-2.206,2.869-3.625,4.102c-1.456,1.266-3.773,2.2-6.941,2.961l0.029,0.191l-0.077,0.018
			c0.328,2.113,0.61,4.21,0.36,6.27c-0.249,2.041-1.302,3.993-2.759,5.86c2.33,1.047,4.292,2.423,5.451,4.228
			c1.163,1.811,1.71,3.834,2.178,5.779l0.131-0.022l0.016,0.051c-0.029,0.004-0.105,0.01-0.135,0.016
			c-0.003-0.006-0.005-0.015-0.008-0.022c0.003,0.009,0.005,0.02,0.008,0.029c2.358-0.338,8.515-0.939,13.371,2.305
			c1.854-3.239,5.399-7.062,9.739-8.778c-0.747-2.607-0.768-6.391,0.789-9.746c-2.834-1.631-4.582-4.306-5.331-7.688l-0.149-0.022
			l-0.013-0.083C65.916-89.934,63.78-91.727,60.331-94.302z M60.697-91.671c2.656,1.916,5.703,3.53,11.358,4.517
			c0.837,2.732,2.392,5.026,4.607,6.734c-0.986,2.859-1.136,5.659-0.692,8.115c-3.636,1.844-6.461,4.612-8.368,7.471
			c-4.388-2.15-8.61-2.354-11.282-2.066c-0.434-1.597-0.802-3.233-1.851-4.864c-1.094-1.703-2.932-2.69-4.711-3.714
			c1.009-1.585,2.095-3.156,2.326-5.041c0.235-1.918-0.062-3.684-0.306-5.437c2.427-0.709,4.748-1.417,6.257-2.729
			C59.182-89.677,59.9-90.675,60.697-91.671z M49.751-87.235c-0.022,0.005-0.038,0.01-0.059,0.016c0,0.001,0,0.003,0,0.004
			C49.714-87.221,49.732-87.227,49.751-87.235z"/>
		<path id="path2247" fill="#162C63" d="M64.874-98.201c-0.208,0.006-0.408,0.078-0.574,0.203L44.098-82.846
			c-0.352,0.26-0.496,0.718-0.357,1.133l1.014,3.029c0.136,0.411,0.52,0.69,0.954,0.692v1.006c0.001,0.159,0.039,0.315,0.112,0.455
			l1.006,2.02c0.251,0.499,0.86,0.698,1.358,0.448c0.058-0.029,0.113-0.064,0.164-0.103l22.223-17.173
			c0.441-0.339,0.525-0.974,0.186-1.417c-0.027-0.035-0.055-0.068-0.087-0.098l-1.948-1.945c-0.174-0.172-0.404-0.274-0.649-0.29
			l-0.186-0.016l-0.008-0.171c-0.014-0.246-0.116-0.481-0.29-0.657L65.62-97.9C65.424-98.099,65.153-98.209,64.874-98.201z
			 M80.027-83.047c-0.221,0.009-0.434,0.092-0.603,0.233L58.208-65.641c-0.432,0.353-0.499,0.988-0.145,1.421
			c0.022,0.027,0.046,0.054,0.071,0.078l2.02,2.02c0.189,0.186,0.443,0.29,0.709,0.29c0.001,0.159,0.039,0.315,0.112,0.455
			l1.006,2.02c0.25,0.499,0.857,0.7,1.357,0.451c0.056-0.028,0.11-0.062,0.159-0.1l21.214-16.168c0.343-0.26,0.485-0.709,0.352-1.12
			l-1.014-3.035c-0.139-0.409-0.523-0.685-0.955-0.685h-1.014v-1.014c0-0.265-0.103-0.52-0.29-0.709l-1.014-1.014
			C80.576-82.946,80.307-83.055,80.027-83.047z"/>
		<path id="path2230" sodipodi:nodetypes="cccccccccccccccccccccc" fill="#4943CC" d="M64.906-97.186L44.702-82.033l1.01,3.03h1.01
			v2.02l1.01,2.02l22.224-17.174l-1.949-1.949l-1.082-0.071l-0.055-1.065L64.906-97.186z M80.059-82.033L58.845-64.859l2.02,2.02
			h1.01v1.01l1.01,2.02L84.1-75.972l-1.01-3.03h-2.02v-2.02L80.059-82.033z"/>
		<path id="path2240" fill="#524ACE" d="M64.906-97.186L44.702-82.033l0.538,1.616l19.666-14.749l1.965,1.965l0.055,1.065
			l1.082,0.071l0.81,0.81l1.141-0.88l-1.949-1.949l-1.082-0.071l-0.055-1.065L64.906-97.186z M80.059-82.033L58.845-64.859
			l1.117,1.117l20.098-16.27l1.01,1.01v-2.02L80.059-82.033z M81.07-79.003v2.02h2.02l0.474,1.418l0.536-0.408l-1.01-3.03H81.07z"/>
		<path id="path2237" fill="#3535A0" d="M68.816-93.276L47.732-76.982l-1.01-2.02v2.02l1.01,2.02l22.224-17.174L68.816-93.276z
			 M46.722-79.003v-2.02h-1.01l-0.472-1.414l-0.538,0.404l1.01,3.03H46.722z M83.562-77.584L62.886-61.83l-1.01-2.02v-1.01h-1.01
			l-0.904-0.904l-1.117,0.904l2.02,2.02h1.01v1.01l1.01,2.02L84.1-75.973L83.562-77.584z"/>
	</g>
</g>
</svg>
