<?xml version="1.0" encoding="utf-8"?>
<!-- Generator: Adobe Illustrator 24.1.2, SVG Export Plug-In . SVG Version: 6.00 Build 0)  -->
<svg version="1.1" id="Capa_1" xmlns="http://www.w3.org/2000/svg" xmlns:xlink="http://www.w3.org/1999/xlink" x="0px" y="0px"
	 width="1.9px" height="1.95px" viewBox="0 0 1.9 1.95" enable-background="new 0 0 1.9 1.95" xml:space="preserve">
<circle opacity="0.2" cx="0.95" cy="1.1" r="0.85"/>
<g>
	<g>
		<path fill="#212142" d="M1.723,1.555c0.029,0.049,0.071,0.148,0.012,0.239C1.712,1.83,1.67,1.85,1.619,1.85
			c-0.013,0-0.027-0.001-0.04-0.004C1.48,1.829,1.363,1.748,1.313,1.629c-0.054,0.04-0.148,0.1-0.228,0.104
			C1.024,1.736,0.968,1.716,0.926,1.676C0.907,1.658,0.886,1.632,0.87,1.593C0.847,1.637,0.81,1.677,0.75,1.695
			c-0.074,0.022-0.129,0.006-0.166-0.02C0.56,1.748,0.507,1.85,0.401,1.85c-0.043,0-0.079-0.015-0.104-0.045
			C0.264,1.766,0.258,1.711,0.258,1.673c-0.06-0.004-0.166-0.019-0.222-0.078C0.01,1.566-0.003,1.531,0,1.491
			c0.011-0.134,0.179-0.228,0.251-0.263C0.25,1.219,0.25,1.21,0.25,1.2c0-0.014,0.002-0.027,0.004-0.04
			C0.26,1.132,0.271,1.105,0.287,1.083C0.187,1.06,0.112,0.943,0.112,0.8c0-0.065,0.015-0.124,0.042-0.172
			C0.151,0.619,0.15,0.61,0.15,0.6V0.5c0-0.055,0.045-0.1,0.1-0.1s0.1,0.045,0.1,0.1v0.014C0.457,0.53,0.537,0.651,0.537,0.8
			c0,0.079-0.023,0.151-0.06,0.202c0.09,0.013,0.162,0.085,0.171,0.177C0.649,1.185,0.65,1.193,0.65,1.2
			c0,0.04-0.012,0.079-0.033,0.11l0.291,0.093L1.38,1.282C1.346,1.232,1.325,1.163,1.325,1.087c0-0.161,0.093-0.287,0.212-0.287
			c0.016,0,0.032,0.002,0.047,0.007C1.597,0.802,1.611,0.8,1.625,0.8c0.015,0,0.029,0.002,0.042,0.007
			C1.716,0.824,1.75,0.872,1.75,0.925v0.1c0,0.007-0.001,0.015-0.002,0.023C1.749,1.06,1.75,1.074,1.75,1.087
			c0,0.073-0.02,0.139-0.052,0.189c0.036,0.01,0.067,0.026,0.082,0.051C1.827,1.401,1.782,1.498,1.723,1.555z"/>
		<ellipse fill="#3A327F" cx="0.325" cy="0.8" rx="0.138" ry="0.213"/>
		<ellipse fill="#3A327F" cx="1.537" cy="1.087" rx="0.138" ry="0.213"/>
		<path fill="#3A327F" d="M0.832,1.459C0.827,1.506,0.806,1.601,0.729,1.624C0.636,1.651,0.605,1.594,0.6,1.582L0.549,1.458
			l-0.02,0.133C0.528,1.593,0.497,1.775,0.401,1.775c-0.028,0-0.04-0.01-0.046-0.018c-0.026-0.03-0.022-0.093-0.018-0.114
			l0.007-0.044L0.298,1.599C0.255,1.6,0.135,1.591,0.091,1.544C0.079,1.531,0.074,1.516,0.075,1.498
			C0.083,1.403,0.23,1.319,0.3,1.289L0.832,1.459z"/>
		<path fill="#3A327F" d="M1.644,1.571c0.001,0.001,0.079,0.104,0.028,0.182C1.655,1.781,1.61,1.776,1.592,1.773
			c-0.09-0.016-0.198-0.101-0.223-0.214L1.355,1.498l-0.048,0.04C1.27,1.57,1.156,1.654,1.081,1.658
			c-0.04,0.002-0.076-0.01-0.103-0.036C0.944,1.59,0.925,1.541,0.92,1.477L1.47,1.336c0.115-0.008,0.232,0.008,0.248,0.032
			C1.744,1.41,1.696,1.487,1.652,1.518L1.62,1.541L1.644,1.571z"/>
		<g>
			<path fill="#212142" d="M1.814,0.173c-0.031-0.016-0.065-0.024-0.1-0.024c-0.03,0-0.058,0.005-0.082,0.014
				C1.615,0.126,1.589,0.092,1.548,0.067L1.54,0.063L1.532,0.06c-0.02-0.007-0.041-0.01-0.06-0.01c-0.155,0-0.209,0.193-0.209,0.359
				v0.034L1.479,0.66l0.042-0.009c0.226-0.045,0.361-0.19,0.377-0.311C1.908,0.268,1.876,0.204,1.814,0.173z M1.471,0.131
				c0.011,0,0.022,0.002,0.035,0.006C1.581,0.182,1.568,0.272,1.56,0.3c0,0,0.069-0.069,0.153-0.069
				c0.021,0,0.042,0.004,0.064,0.015c0.109,0.054,0,0.271-0.271,0.326L1.343,0.409C1.343,0.409,1.343,0.131,1.471,0.131z"/>
			<path fill="#3A327F" d="M1.506,0.571L1.343,0.409c0,0,0-0.277,0.128-0.277c0.011,0,0.022,0.002,0.035,0.006
				C1.581,0.182,1.568,0.272,1.56,0.3c0,0,0.069-0.069,0.153-0.069c0.021,0,0.042,0.004,0.064,0.015
				C1.886,0.3,1.777,0.517,1.506,0.571z"/>
		</g>
		<g>
			<path fill="#212142" d="M0.694,0.38L0.57,0.566L0.529,0.629L0.466,0.587C0.449,0.576,0.298,0.473,0.241,0.358
				C0.2,0.277,0.179,0.152,0.23,0.07C0.258,0.025,0.303,0,0.358,0c0.127,0,0.254,0.214,0.317,0.341L0.694,0.38z"/>
			<path fill="#3A327F" d="M0.608,0.375l-0.1,0.15c0,0-0.15-0.1-0.2-0.2s-0.05-0.25,0.05-0.25S0.608,0.375,0.608,0.375z"/>
		</g>
	</g>
	<g>
		<path fill="#50B7D2" d="M0.3,0.5v0.1c0,0.027-0.023,0.05-0.05,0.05S0.2,0.627,0.2,0.6V0.5c0-0.027,0.023-0.05,0.05-0.05
			S0.3,0.473,0.3,0.5z"/>
		<g>
			<path fill="#0D866B" d="M0.393,0.401C0.388,0.422,0.379,0.44,0.364,0.455C0.35,0.47,0.33,0.48,0.308,0.484
				c-0.022,0.003-0.05,0.002-0.084-0.005C0.196,0.473,0.174,0.464,0.156,0.454c-0.054-0.031-0.07-0.101-0.038-0.153
				c0.035-0.055,0.103-0.142,0.173-0.127c0.002,0,0.004,0.001,0.005,0.002C0.301,0.177,0.305,0.178,0.309,0.18
				C0.333,0.192,0.35,0.215,0.363,0.243c0.005,0.01,0.009,0.021,0.012,0.031c0,0,0,0,0.001,0c0.01,0.031,0.016,0.063,0.019,0.088
				C0.396,0.376,0.396,0.389,0.393,0.401z"/>
			<path fill="#169C79" d="M0.364,0.455C0.356,0.454,0.347,0.453,0.337,0.45C0.309,0.444,0.287,0.436,0.269,0.426
				c-0.054-0.031-0.07-0.101-0.038-0.153C0.25,0.244,0.277,0.207,0.309,0.18c0.058,0.028,0.079,0.123,0.086,0.183
				C0.399,0.397,0.387,0.431,0.364,0.455z"/>
			<path fill="#064435" d="M0.447,0.356C0.429,0.22,0.38,0.14,0.303,0.123c-0.076-0.017-0.155,0.035-0.228,0.15
				C0.051,0.311,0.044,0.357,0.055,0.4s0.038,0.078,0.076,0.1c0.023,0.013,0.051,0.023,0.082,0.03
				c0.038,0.008,0.072,0.01,0.102,0.006C0.399,0.523,0.458,0.442,0.447,0.356z M0.224,0.479C0.196,0.473,0.174,0.464,0.156,0.454
				c-0.054-0.031-0.07-0.101-0.038-0.153c0.035-0.055,0.103-0.142,0.173-0.127C0.362,0.19,0.387,0.298,0.395,0.363
				c0.007,0.057-0.03,0.113-0.087,0.121C0.286,0.487,0.258,0.486,0.224,0.479z"/>
		</g>
		<path fill="#74D1BA" d="M0.198,0.206C0.2,0.207,0.203,0.208,0.205,0.208C0.238,0.215,0.27,0.201,0.287,0.174
			C0.283,0.173,0.279,0.172,0.274,0.172C0.248,0.173,0.222,0.186,0.198,0.206z"/>
		<path fill="#55CCBB" d="M0.105,0.338C0.113,0.345,0.122,0.35,0.133,0.352C0.168,0.36,0.203,0.338,0.21,0.303
			c0.007-0.03-0.009-0.061-0.037-0.073c0,0,0,0-0.001,0C0.151,0.253,0.132,0.28,0.119,0.302C0.112,0.313,0.107,0.325,0.105,0.338z"
			/>
	</g>
	<path fill="#510B26" d="M1.649,1.317c-0.157,0.17-0.251,0.124-0.285,0.097C1.248,1.499,1.105,1.55,0.95,1.55
		c-0.131,0-0.254-0.036-0.359-0.099C0.59,1.45,0.589,1.45,0.589,1.45L0.557,1.479C0.42,1.46,0.306,1.307,0.295,1.292
		C0.292,1.261,0.293,1.227,0.301,1.19l0.008-0.04h0.008C0.274,1.059,0.25,0.957,0.25,0.85V0.7c0-0.386,0.314-0.7,0.7-0.7
		s0.7,0.314,0.7,0.7v0.15c0,0.108-0.025,0.211-0.069,0.304c0.002-0.001,0.005-0.002,0.007-0.002l0.051-0.013l0.01,0.051
		C1.656,1.224,1.658,1.27,1.649,1.317z"/>
	<path fill="#750E2D" d="M1.55,0.7v0.15c0,0.166-0.068,0.317-0.179,0.427C1.343,1.262,1.321,1.254,1.316,1.252L1.268,1.237
		L1.252,1.284c-0.01,0.032-0.014,0.062-0.011,0.09C1.155,1.423,1.055,1.45,0.95,1.45c-0.087,0-0.171-0.019-0.246-0.054
		c0.001-0.002,0.001-0.005,0.001-0.008c0.008-0.054-0.007-0.099-0.008-0.104L0.686,1.25H0.65c-0.04,0-0.071,0.012-0.095,0.03
		C0.523,1.227,0.484,1.195,0.448,1.177C0.386,1.083,0.35,0.97,0.35,0.85V0.7c0-0.33,0.27-0.6,0.6-0.6S1.55,0.37,1.55,0.7z"/>
	<path fill="#C4567C" d="M1.548,0.648V0.65C1.546,0.667,1.545,0.683,1.542,0.7C1.494,0.984,1.248,1.2,0.95,1.2
		S0.406,0.984,0.358,0.7C0.355,0.683,0.354,0.667,0.352,0.65V0.648C0.379,0.341,0.636,0.1,0.95,0.1S1.521,0.341,1.548,0.648z"/>
	<ellipse fill="#A92B56" cx="0.95" cy="0.7" rx="0.592" ry="0.5"/>
	<path fill="#B53D68" d="M1.55,0.7c0,0.017-0.001,0.033-0.002,0.05C1.523,1.058,1.264,1.3,0.95,1.3S0.377,1.058,0.352,0.75
		C0.351,0.733,0.35,0.717,0.35,0.7c0-0.017,0.001-0.034,0.002-0.05C0.354,0.667,0.355,0.683,0.358,0.7
		C0.406,0.984,0.652,1.2,0.95,1.2s0.544-0.216,0.592-0.5c0.003-0.017,0.005-0.033,0.007-0.05C1.549,0.666,1.55,0.683,1.55,0.7z"/>
	<path fill="#731437" d="M1.35,0.7c0,0.035-0.005,0.068-0.013,0.1C1.293,0.973,1.136,1.1,0.95,1.1S0.607,0.973,0.563,0.8
		C0.555,0.768,0.55,0.735,0.55,0.7c0-0.221,0.179-0.4,0.4-0.4S1.35,0.479,1.35,0.7z"/>
	<ellipse fill="#0B0410" cx="0.95" cy="0.8" rx="0.387" ry="0.3"/>
	<g>
		<path fill="#4C94AF" d="M1.7,0.925v0.1c0,0.032-0.021,0.06-0.05,0.07C1.642,1.098,1.634,1.1,1.625,1.1
			C1.583,1.1,1.55,1.066,1.55,1.025v-0.1c0-0.042,0.033-0.075,0.075-0.075c0.009,0,0.017,0.001,0.025,0.004
			C1.679,0.864,1.7,0.892,1.7,0.925z"/>
		<path fill="#5EC9E4" d="M1.7,0.925v0.1c0,0.032-0.021,0.06-0.05,0.07C1.621,1.085,1.6,1.057,1.6,1.025v-0.1
			c0-0.033,0.021-0.061,0.05-0.071C1.679,0.864,1.7,0.892,1.7,0.925z"/>
		<g>
			<path fill="#0D866B" d="M1.8,0.842c0,0.02-0.005,0.039-0.015,0.056C1.773,0.915,1.757,0.929,1.737,0.938
				C1.717,0.945,1.691,0.95,1.658,0.95c-0.028,0-0.051-0.004-0.069-0.009c-0.057-0.018-0.087-0.08-0.067-0.136
				C1.543,0.746,1.589,0.65,1.658,0.65c0.002,0,0.004,0,0.005,0.001c0.004,0,0.008,0,0.012,0.001C1.7,0.658,1.721,0.676,1.739,0.699
				c0.007,0.008,0.012,0.017,0.018,0.027c0,0,0,0,0.001,0c0.016,0.027,0.028,0.056,0.036,0.079C1.798,0.817,1.8,0.83,1.8,0.842z"/>
			<path fill="#27B18B" d="M1.784,0.898C1.776,0.899,1.767,0.9,1.758,0.9c-0.028,0-0.051-0.004-0.069-0.009
				c-0.057-0.018-0.087-0.08-0.067-0.136c0.011-0.03,0.029-0.071,0.053-0.103c0.06,0.014,0.1,0.099,0.119,0.154
				C1.805,0.837,1.801,0.871,1.784,0.898z"/>
			<path fill="#064435" d="M1.841,0.788C1.796,0.665,1.733,0.6,1.658,0.6c-0.075,0-0.139,0.065-0.183,0.188
				C1.46,0.828,1.463,0.873,1.482,0.911c0.019,0.038,0.052,0.065,0.092,0.078C1.599,0.996,1.627,1,1.658,1
				c0.037,0,0.07-0.005,0.097-0.016C1.831,0.955,1.869,0.867,1.841,0.788z M1.658,0.95c-0.028,0-0.051-0.004-0.069-0.009
				c-0.057-0.018-0.087-0.08-0.067-0.136C1.543,0.746,1.589,0.65,1.658,0.65c0.07,0,0.115,0.096,0.136,0.155
				c0.019,0.052-0.005,0.112-0.056,0.132C1.717,0.945,1.691,0.95,1.658,0.95z"/>
		</g>
		<path fill="#74D1BA" d="M1.739,0.699C1.737,0.7,1.735,0.7,1.733,0.7c-0.033,0-0.06-0.021-0.07-0.049c0.004,0,0.008,0,0.012,0.001
			C1.7,0.658,1.721,0.676,1.739,0.699z"/>
		<path fill="#55CCBB" d="M1.8,0.842C1.791,0.848,1.781,0.85,1.77,0.85c-0.035,0-0.063-0.028-0.063-0.063
			c0-0.03,0.021-0.055,0.049-0.061c0,0,0,0,0.001,0c0.016,0.027,0.028,0.056,0.036,0.079C1.798,0.817,1.8,0.83,1.8,0.842z"/>
	</g>
	<path fill="#8F1D40" d="M1.4,1.5c0,0-0.15-0.05-0.1-0.2c0,0,0.12,0.04,0.145,0.12C1.44,1.363,1.448,1.238,1.6,1.2
		C1.6,1.2,1.65,1.45,1.4,1.5z"/>
	<path fill="#8F1D40" d="M0.55,1.5c0,0-0.25-0.05-0.2-0.3c0,0,0.15,0,0.2,0.2c0,0,0-0.1,0.1-0.1C0.65,1.3,0.7,1.45,0.55,1.5z"/>
</g>
</svg>
