<?xml version="1.0" encoding="utf-8"?>
<!-- Generator: Adobe Illustrator 24.1.2, SVG Export Plug-In . SVG Version: 6.00 Build 0)  -->
<svg version="1.1" id="Capa_1" xmlns="http://www.w3.org/2000/svg" xmlns:xlink="http://www.w3.org/1999/xlink" x="0px" y="0px"
	 width="2.35px" height="2.45px" viewBox="0 0 2.35 2.45" enable-background="new 0 0 2.35 2.45" xml:space="preserve">
<circle opacity="0.2" enable-background="new    " cx="1.025" cy="1.425" r="1.025"/>
<g>
	<path fill="#2E1745" d="M2.05,1v0.138c0,0.409-0.311,0.755-0.98,1.089L1.025,2.25L0.98,2.227C0.311,1.893,0,1.547,0,1.138V1
		c0-0.289,0.23-0.6,0.6-0.6c0.208,0,0.345,0.082,0.425,0.152C1.105,0.482,1.242,0.4,1.45,0.4C1.82,0.4,2.05,0.711,2.05,1z"/>
	<path fill="#6E43AE" d="M1.95,1c0,0.122-0.03,0.267-0.153,0.431c-0.01,0.013-0.02,0.026-0.031,0.039
		C1.635,1.629,1.414,1.802,1.05,1.987C1.042,1.991,1.033,1.996,1.025,2C1.017,1.996,1.008,1.991,1,1.987
		C0.636,1.802,0.415,1.629,0.284,1.47C0.273,1.457,0.262,1.443,0.253,1.431C0.13,1.267,0.1,1.122,0.1,1c0-0.25,0.2-0.5,0.5-0.5
		s0.425,0.2,0.425,0.2S1.15,0.5,1.45,0.5S1.95,0.75,1.95,1z"/>
	<path fill="#63379C" d="M1.827,1.033c0,0.106-0.026,0.232-0.133,0.374C1.686,1.418,1.677,1.429,1.667,1.441
		C1.553,1.578,1.363,1.729,1.047,1.889C1.039,1.893,1.032,1.897,1.025,1.9C1.018,1.897,1.011,1.893,1.003,1.889
		c-0.316-0.16-0.507-0.311-0.621-0.448c-0.01-0.012-0.019-0.023-0.027-0.034C0.249,1.265,0.223,1.139,0.223,1.033
		c0-0.217,0.173-0.433,0.433-0.433s0.368,0.173,0.368,0.173S1.133,0.6,1.393,0.6S1.827,0.817,1.827,1.033z"/>
	<path fill="#111143" d="M1.05,1.6v0.387C1.042,1.991,1.033,1.996,1.025,2C1.017,1.996,1.008,1.991,1,1.987V1.6H1.05z"/>
	<path fill="#111143" d="M0.529,1.265L0.284,1.47C0.273,1.457,0.262,1.443,0.253,1.431l0.243-0.204L0.529,1.265z"/>
	<path fill="#111143" d="M1.797,1.431c-0.01,0.013-0.02,0.026-0.031,0.039L1.521,1.265l0.033-0.039L1.797,1.431z"/>
	<path fill="#090B42" d="M1.65,1.066c0,0.034-0.004,0.071-0.015,0.11C1.593,1.32,1.451,1.501,1.025,1.7
		c-0.426-0.199-0.568-0.38-0.61-0.524C0.404,1.137,0.4,1.101,0.4,1.066c0-0.158,0.135-0.316,0.338-0.316
		c0.202,0,0.287,0.126,0.287,0.126S1.11,0.75,1.312,0.75C1.515,0.75,1.65,0.908,1.65,1.066z"/>
	<path fill="#000020" d="M1.635,1.176C1.593,1.32,1.451,1.501,1.025,1.7c-0.426-0.199-0.568-0.38-0.61-0.524
		C0.455,1.053,0.574,0.95,0.738,0.95c0.202,0,0.287,0.126,0.287,0.126S1.11,0.95,1.312,0.95C1.476,0.95,1.595,1.053,1.635,1.176z"/>
	<g>
		<circle fill="#341F54" cx="0.45" cy="1.45" r="0.05"/>
		<circle fill="#523080" cx="0.45" cy="1.4" r="0.05"/>
	</g>
	<g>
		<circle fill="#341F54" cx="0.3" cy="1.25" r="0.05"/>
		<circle fill="#523080" cx="0.3" cy="1.2" r="0.05"/>
	</g>
	<g>
		<circle fill="#341F54" cx="1.6" cy="1.45" r="0.05"/>
		<circle fill="#523080" cx="1.6" cy="1.4" r="0.05"/>
	</g>
	<g>
		<circle fill="#341F54" cx="1.15" cy="1.8" r="0.05"/>
		<circle fill="#523080" cx="1.15" cy="1.75" r="0.05"/>
	</g>
	<g>
		<circle fill="#341F54" cx="0.9" cy="1.8" r="0.05"/>
		<circle fill="#523080" cx="0.9" cy="1.75" r="0.05"/>
	</g>
	<g>
		<circle fill="#341F54" cx="0.9" cy="0.7" r="0.05"/>
		<circle fill="#523080" cx="0.9" cy="0.65" r="0.05"/>
	</g>
	<g>
		<path fill="#551133" d="M2.295,0.889L2.217,1.025C2.078,1.265,1.784,1.364,1.29,1.338L1.25,1.336L1.228,1.303
			c-0.27-0.415-0.331-0.719-0.192-0.959l0.079-0.136c0.099-0.171,0.339-0.278,0.556-0.153C1.785,0.12,1.838,0.209,1.862,0.276
			C1.933,0.264,2.036,0.265,2.15,0.331C2.367,0.456,2.394,0.718,2.295,0.889z"/>
		<path fill="#991155" d="M2.227,0.85L2.149,0.986c-0.06,0.104-0.174,0.217-0.452,0.26C1.675,1.248,1.654,1.251,1.631,1.254
			C1.544,1.263,1.442,1.266,1.324,1.261C1.315,1.261,1.305,1.26,1.295,1.26C1.289,1.251,1.284,1.243,1.279,1.235
			C1.215,1.135,1.167,1.046,1.131,0.966C1.122,0.945,1.114,0.924,1.106,0.905C1.004,0.642,1.045,0.487,1.105,0.383l0.069-0.118
			c0.003-0.006,0.006-0.012,0.01-0.018c0.074-0.127,0.236-0.203,0.39-0.151c0.016,0.005,0.032,0.013,0.048,0.021
			C1.625,0.119,1.628,0.12,1.632,0.123c0.114,0.066,0.154,0.16,0.167,0.212C1.805,0.36,1.805,0.376,1.805,0.376
			s0.015-0.007,0.039-0.015c0.052-0.014,0.152-0.027,0.267,0.039c0.004,0.002,0.007,0.004,0.01,0.007
			c0.015,0.01,0.03,0.02,0.043,0.031C2.286,0.544,2.301,0.723,2.227,0.85z"/>
		<path fill="#C32471" d="M2.227,0.85c-0.013,0.023-0.03,0.047-0.05,0.071c-0.069,0.08-0.187,0.156-0.403,0.189
			C1.754,1.112,1.732,1.115,1.71,1.117C1.622,1.127,1.521,1.13,1.403,1.125c-0.01,0-0.019-0.001-0.03-0.001
			C1.368,1.115,1.362,1.107,1.357,1.099c-0.064-0.1-0.112-0.189-0.147-0.27C1.201,0.808,1.192,0.788,1.185,0.768
			C1.106,0.565,1.112,0.425,1.147,0.325C1.157,0.296,1.17,0.27,1.183,0.247c0.073-0.127,0.236-0.203,0.39-0.151
			c0.016,0.005,0.032,0.012,0.048,0.021c0.003,0.001,0.007,0.003,0.01,0.005c0.115,0.066,0.154,0.16,0.167,0.212
			C1.804,0.36,1.805,0.376,1.805,0.376s0.014-0.008,0.039-0.015c0.052-0.015,0.152-0.028,0.267,0.039
			c0.004,0.002,0.007,0.004,0.01,0.006c0.016,0.01,0.03,0.02,0.043,0.031C2.285,0.544,2.301,0.723,2.227,0.85z"/>
		<path fill="#A3175C" d="M2.1,0.816C2.089,0.835,2.077,0.854,2.061,0.872c-0.082,0.095-0.248,0.181-0.635,0.16
			c-0.211-0.325-0.22-0.512-0.179-0.63c0.008-0.023,0.018-0.044,0.029-0.062c0.065-0.113,0.22-0.175,0.354-0.098
			c0.134,0.077,0.137,0.2,0.137,0.2s0.108-0.059,0.242,0.019C2.142,0.538,2.165,0.703,2.1,0.816z"/>
		<path fill="#991155" d="M2.227,0.85L2.149,0.986c-0.06,0.104-0.174,0.217-0.453,0.26C1.675,1.248,1.653,1.251,1.631,1.254
			C1.544,1.263,1.442,1.266,1.324,1.261c-0.01,0-0.019-0.001-0.03-0.001l0.079-0.136c0.01,0,0.02,0.001,0.03,0.001
			C1.521,1.13,1.622,1.127,1.71,1.117c0.022-0.002,0.045-0.005,0.065-0.008C1.991,1.076,2.108,1.001,2.178,0.92
			C2.198,0.897,2.214,0.873,2.227,0.85z"/>
		<path fill="#781240" d="M1.373,1.123L1.294,1.26C1.289,1.251,1.284,1.243,1.279,1.235c-0.064-0.1-0.112-0.189-0.147-0.269
			C1.122,0.945,1.114,0.924,1.106,0.905C1.004,0.642,1.044,0.487,1.104,0.383l0.079-0.136C1.17,0.27,1.157,0.296,1.147,0.325
			c-0.035,0.1-0.041,0.239,0.038,0.443c0.008,0.019,0.016,0.04,0.025,0.061c0.035,0.08,0.084,0.17,0.147,0.27
			C1.362,1.107,1.368,1.115,1.373,1.123z"/>
		<g>
			<path opacity="0.15" d="M1.844,0.361l-0.52,0.9c-0.01,0-0.019-0.001-0.03-0.001C1.289,1.251,1.284,1.243,1.279,1.235l0.52-0.9
				C1.804,0.36,1.805,0.376,1.805,0.376S1.819,0.368,1.844,0.361z"/>
			<path opacity="0.15" d="M2.163,0.437L1.696,1.246C1.675,1.248,1.653,1.251,1.631,1.254l0.49-0.849
				C2.136,0.415,2.15,0.425,2.163,0.437z"/>
			<path opacity="0.15" d="M1.621,0.117l-0.49,0.849C1.122,0.945,1.114,0.924,1.106,0.905l0.467-0.809
				C1.589,0.101,1.605,0.108,1.621,0.117z"/>
		</g>
		<g>
			<path fill="#741540" d="M1.939,0.815L1.865,0.92C1.858,0.931,1.842,0.933,1.83,0.926L1.242,0.513
				C1.23,0.505,1.227,0.49,1.236,0.479l0.073-0.105C1.317,0.363,1.332,0.36,1.343,0.368L1.933,0.78
				C1.943,0.788,1.946,0.804,1.939,0.815z"/>
			<path fill="#B22163" d="M2.001,0.795L1.927,0.899C1.92,0.91,1.904,0.913,1.893,0.905L1.304,0.493
				C1.293,0.485,1.29,0.47,1.298,0.458l0.073-0.104C1.379,0.342,1.395,0.34,1.406,0.348L1.995,0.76
				C2.006,0.768,2.008,0.783,2.001,0.795z"/>
			<circle fill="#741540" cx="1.46" cy="0.501" r="0.079"/>
			<circle fill="#741540" cx="1.81" cy="0.746" r="0.079"/>
			<circle fill="#42429C" cx="1.46" cy="0.477" r="0.079"/>
			<circle fill="#42429C" cx="1.81" cy="0.722" r="0.079"/>
		</g>
	</g>
</g>
</svg>
