<?xml version="1.0" encoding="UTF-8" standalone="no"?>
<!-- Created with Inkscape (http://www.inkscape.org/) -->

<svg
   width="0.18082948mm"
   height="0.27634636mm"
   viewBox="0 0 0.18082948 0.27634636"
   version="1.1"
   id="svg578578"
   inkscape:version="1.1 (c68e22c387, 2021-05-23)"
   sodipodi:docname="number_3.svg"
   xmlns:inkscape="http://www.inkscape.org/namespaces/inkscape"
   xmlns:sodipodi="http://sodipodi.sourceforge.net/DTD/sodipodi-0.dtd"
   xmlns="http://www.w3.org/2000/svg"
   xmlns:svg="http://www.w3.org/2000/svg">
  <sodipodi:namedview
     id="namedview578580"
     pagecolor="#ffffff"
     bordercolor="#999999"
     borderopacity="1"
     inkscape:pageshadow="0"
     inkscape:pageopacity="0"
     inkscape:pagecheckerboard="0"
     inkscape:document-units="mm"
     showgrid="false"
     inkscape:zoom="256"
     inkscape:cx="0.0078125"
     inkscape:cy="0.67773438"
     inkscape:window-width="1920"
     inkscape:window-height="1057"
     inkscape:window-x="-8"
     inkscape:window-y="-8"
     inkscape:window-maximized="1"
     inkscape:current-layer="g25885" />
  <defs
     id="defs578575" />
  <g
     inkscape:label="Layer 1"
     inkscape:groupmode="layer"
     id="layer1"
     transform="translate(-135.57433,-217.5418)">
    <g
       id="g25885"
       transform="matrix(0.05000124,0,0,0.05000124,70.894852,222.77921)">
      <path
         id="path15935"
         style="color:#000000;-inkscape-font-specification:'Lilita One';fill:#000000;stroke-width:0.200004;stroke-linejoin:round;-inkscape-stroke:none"
         d="M 0.34960938 0 C 0.2755288 0 0.2095039 0.0080610728 0.15039062 0.029296875 C 0.11854732 0.04091921 0.086286096 0.057658373 0.060546875 0.0859375 C 0.034807654 0.11421663 0.01953125 0.15670934 0.01953125 0.1953125 C 0.01953125 0.21496735 0.021246888 0.23397056 0.025390625 0.25195312 C 0.021338009 0.26613374 0.01953125 0.28083172 0.01953125 0.29492188 C 0.01953125 0.35920189 0.043276892 0.41192247 0.078125 0.47460938 A 0.10001223 0.10001223 0 0 0 0.11132812 0.484375 C 0.11270285 0.49271688 0.11320124 0.50150993 0.11523438 0.50976562 C 0.11316352 0.51637637 0.11270592 0.52295936 0.11132812 0.52929688 C 0.11131037 0.52937854 0.10939261 0.52921527 0.109375 0.52929688 C 0.10157456 0.53340911 0.097413325 0.53810241 0.09375 0.54101562 C 0.085812795 0.54730869 0.08272386 0.55156931 0.080078125 0.5546875 C 0.074597674 0.56090498 0.072769254 0.56471204 0.0703125 0.56835938 C 0.065587973 0.5751438 0.061365152 0.58203127 0.056640625 0.58984375 C 0.043033988 0.61205469 0.032407481 0.63618023 0.021484375 0.6640625 C 0.0086336626 0.69650866 3.7796213e-05 0.72996616 0 0.765625 C 0 0.78006699 0.0032642818 0.79372914 0.0078125 0.80664062 C 0.0032273099 0.82544624 2.1174656e-05 0.84525715 0 0.86523438 C 0 0.91071796 0.027070746 0.95126926 0.052734375 0.97265625 C 0.078398004 0.99404324 0.10370942 1.0053257 0.1328125 1.015625 A 0.10001223 0.10001223 0 0 0 0.13476562 1.015625 C 0.19117647 1.0347219 0.25266294 1.0449219 0.31640625 1.0449219 C 0.41802137 1.0449219 0.51064648 1.0210386 0.58007812 0.9609375 A 0.10001223 0.10001223 0 0 0 0.58007812 0.95898438 C 0.6462404 0.90072529 0.68359375 0.81357221 0.68359375 0.72460938 C 0.68359375 0.70830363 0.68082694 0.69333879 0.67773438 0.67773438 C 0.68059587 0.66041427 0.68359375 0.64268808 0.68359375 0.625 C 0.68359375 0.56914513 0.66408402 0.5177453 0.6328125 0.47265625 C 0.64978964 0.43538379 0.66015625 0.39582572 0.66015625 0.35351562 C 0.66015625 0.33779037 0.65948158 0.32221707 0.65625 0.30664062 C 0.65957874 0.28984937 0.66015625 0.2715554 0.66015625 0.25390625 C 0.66015625 0.18033781 0.62383098 0.10453033 0.56445312 0.060546875 C 0.50439494 0.016079631 0.42960506 0 0.34960938 0 z "
         transform="matrix(5.2915354,0,0,5.2915354,1293.5575,-104.7456)" />
      <g
         aria-label="3"
         id="text6526"
         style="font-size:5.46883px;line-height:1.25;fill:#ffffff;stroke-width:0.136721">
        <path
           d="m 1294.0823,-100.69495 q 0,-0.15313 0.076,-0.34454 0.077,-0.19687 0.1477,-0.31172 0.071,-0.12031 0.082,-0.12031 0.3172,0.19141 0.6672,0.19141 0.2188,0 0.35,-0.0875 0.1368,-0.0875 0.1368,-0.24062 0,-0.1586 -0.1258,-0.20235 -0.1203,-0.0437 -0.3883,-0.0602 h -0.1969 q -0.066,0 -0.1258,-0.15859 -0.055,-0.16407 -0.055,-0.3172 0,-0.25703 0.1532,-0.2625 l 0.1586,-0.005 q 0.1476,0 0.3062,-0.082 0.1641,-0.0875 0.1641,-0.21876 0,-0.22969 -0.4102,-0.22969 -0.3062,0 -0.5906,0.12032 -0.2461,-0.44298 -0.2461,-0.68907 0,-0.25157 0.3445,-0.37735 0.35,-0.12579 0.875,-0.12579 0.525,0 0.8204,0.21876 0.2953,0.21875 0.2953,0.5961 0,0.66173 -0.5688,1.0172 0.6891,0.27891 0.6891,0.94611 0,0.51954 -0.3664,0.8422 -0.3664,0.31719 -1.05,0.31719 -0.4321,0 -0.7875,-0.12031 -0.3555,-0.12579 -0.3555,-0.29532 z"
           style="font-family:'Lilita One';-inkscape-font-specification:'Lilita One'"
           id="path1344" />
      </g>
    </g>
  </g>
</svg>
