<?xml version="1.0" encoding="UTF-8" standalone="no"?>
<!-- Created with Inkscape (http://www.inkscape.org/) -->

<svg
   width="0.31749886mm"
   height="0.18520783mm"
   viewBox="0 0 0.31749886 0.18520783"
   version="1.1"
   id="svg5777"
   inkscape:version="1.1 (c68e22c387, 2021-05-23)"
   sodipodi:docname="number_5.svg"
   xmlns:inkscape="http://www.inkscape.org/namespaces/inkscape"
   xmlns:sodipodi="http://sodipodi.sourceforge.net/DTD/sodipodi-0.dtd"
   xmlns="http://www.w3.org/2000/svg"
   xmlns:svg="http://www.w3.org/2000/svg">
  <sodipodi:namedview
     id="namedview5779"
     pagecolor="#ffffff"
     bordercolor="#999999"
     borderopacity="1"
     inkscape:pageshadow="0"
     inkscape:pageopacity="0"
     inkscape:pagecheckerboard="0"
     inkscape:document-units="mm"
     showgrid="false"
     inkscape:zoom="99.433445"
     inkscape:cx="-0.53301985"
     inkscape:cy="1.8555125"
     inkscape:window-width="1920"
     inkscape:window-height="1057"
     inkscape:window-x="-8"
     inkscape:window-y="-8"
     inkscape:window-maximized="1"
     inkscape:current-layer="layer1" />
  <defs
     id="defs5774" />
  <g
     inkscape:label="Layer 1"
     inkscape:groupmode="layer"
     id="layer1"
     transform="translate(-109.5926,-166.50531)">
    <g
       id="g573160"
       transform="matrix(0.09999964,0,0,0.09999964,-18.934604,175.82518)">
      <path
         id="rect573154"
         style="stroke-width:0.972079"
         d="m 1285.5413,-93.199074 h 2.6459 c 0.1465,0 0.2645,0.118005 0.2645,0.264585 v 1.322915 c 0,0.14658 -0.118,0.264585 -0.2645,0.264585 h -2.6459 c -0.1466,0 -0.2646,-0.118005 -0.2646,-0.264585 v -1.322915 c 0,-0.14658 0.118,-0.264585 0.2646,-0.264585 z" />
      <g
         aria-label="5"
         id="text573158"
         style="font-size:1.82295px;line-height:1.25;text-align:center;text-anchor:middle;fill:#ffffff;stroke-width:0.0455738">
        <path
           d="m 1287.1969,-92.91109 q 0.035,0 0.035,0.151305 0,0.0474 -0.01,0.113023 -0.01,0.0638 -0.029,0.0638 h -0.3555 v 0.133075 h 0.06 q 0.1951,0 0.2899,0.113023 0.097,0.113023 0.097,0.298964 0,0.185941 -0.1313,0.304433 -0.1312,0.116668 -0.3372,0.116668 -0.206,0 -0.3008,-0.05833 -0.015,-0.0237 -0.015,-0.07292 0,-0.05104 0.015,-0.14219 0.015,-0.09297 0.04,-0.09297 0,0 0.011,0.0073 0.1295,0.05287 0.1969,0.05287 0.069,0 0.113,-0.03646 0.046,-0.03828 0.046,-0.09662 0,-0.145836 -0.1568,-0.145836 l -0.1567,0.0018 q -0.018,0.0036 -0.036,-0.01458 -0.018,-0.02005 -0.018,-0.05104 v -0.570583 q 0,-0.07474 0.055,-0.07474 z"
           style="font-family:'Lilita One';-inkscape-font-specification:'Lilita One'"
           id="path573371" />
      </g>
    </g>
  </g>
</svg>
