<?xml version="1.0" encoding="UTF-8" standalone="no"?>
<!-- Created with Inkscape (http://www.inkscape.org/) -->

<svg
   width="0.31749886mm"
   height="0.18520783mm"
   viewBox="0 0 0.31749886 0.18520783"
   version="1.1"
   id="svg578360"
   inkscape:version="1.1 (c68e22c387, 2021-05-23)"
   sodipodi:docname="number_1.svg"
   xmlns:inkscape="http://www.inkscape.org/namespaces/inkscape"
   xmlns:sodipodi="http://sodipodi.sourceforge.net/DTD/sodipodi-0.dtd"
   xmlns="http://www.w3.org/2000/svg"
   xmlns:svg="http://www.w3.org/2000/svg">
  <sodipodi:namedview
     id="namedview578362"
     pagecolor="#ffffff"
     bordercolor="#999999"
     borderopacity="1"
     inkscape:pageshadow="0"
     inkscape:pageopacity="0"
     inkscape:pagecheckerboard="0"
     inkscape:document-units="mm"
     showgrid="false"
     inkscape:zoom="256"
     inkscape:cx="1.5546875"
     inkscape:cy="0.28710938"
     inkscape:window-width="1920"
     inkscape:window-height="1057"
     inkscape:window-x="-8"
     inkscape:window-y="-8"
     inkscape:window-maximized="1"
     inkscape:current-layer="layer1" />
  <defs
     id="defs578357" />
  <g
     inkscape:label="Layer 1"
     inkscape:groupmode="layer"
     id="layer1"
     transform="translate(-103.8025,-182.85393)">
    <g
       id="g573128"
       transform="matrix(0.09999964,0,0,0.09999964,-24.724704,192.1738)">
      <path
         id="rect573122"
         style="stroke-width:0.972079"
         d="m 1285.5413,-93.199074 h 2.6459 c 0.1465,0 0.2645,0.118005 0.2645,0.264585 v 1.322915 c 0,0.14658 -0.118,0.264585 -0.2645,0.264585 h -2.6459 c -0.1466,0 -0.2646,-0.118005 -0.2646,-0.264585 v -1.322915 c 0,-0.14658 0.118,-0.264585 0.2646,-0.264585 z" />
      <g
         aria-label="1"
         id="text573126"
         style="font-size:1.82295px;line-height:1.25;text-align:center;text-anchor:middle;fill:#ffffff;stroke-width:0.0455738">
        <path
           d="m 1287.175,-91.666015 q 0,0.03099 -0.1859,0.03099 -0.1841,0 -0.1841,-0.03099 v -0.898715 l -0.1969,0.0018 q -0.055,0 -0.055,-0.175003 0,-0.06016 0.011,-0.116669 0.013,-0.05651 0.042,-0.05651 h 0.4995 q 0.031,0 0.049,0.01458 0.02,0.01276 0.02,0.03281 z"
           style="font-family:'Lilita One';-inkscape-font-specification:'Lilita One'"
           id="path573355" />
      </g>
    </g>
  </g>
</svg>
