<?xml version="1.0" encoding="UTF-8" standalone="no"?>
<!-- Created with Inkscape (http://www.inkscape.org/) -->

<svg
   width="0.31749886mm"
   height="0.18520783mm"
   viewBox="0 0 0.31749886 0.18520783"
   version="1.1"
   id="svg5995"
   inkscape:version="1.1 (c68e22c387, 2021-05-23)"
   sodipodi:docname="number_7.svg"
   xmlns:inkscape="http://www.inkscape.org/namespaces/inkscape"
   xmlns:sodipodi="http://sodipodi.sourceforge.net/DTD/sodipodi-0.dtd"
   xmlns="http://www.w3.org/2000/svg"
   xmlns:svg="http://www.w3.org/2000/svg">
  <sodipodi:namedview
     id="namedview5997"
     pagecolor="#ffffff"
     bordercolor="#999999"
     borderopacity="1"
     inkscape:pageshadow="0"
     inkscape:pageopacity="0"
     inkscape:pagecheckerboard="0"
     inkscape:document-units="mm"
     showgrid="false"
     inkscape:zoom="256"
     inkscape:cx="0.43359375"
     inkscape:cy="0.23632812"
     inkscape:window-width="1920"
     inkscape:window-height="1057"
     inkscape:window-x="-8"
     inkscape:window-y="-8"
     inkscape:window-maximized="1"
     inkscape:current-layer="layer1" />
  <defs
     id="defs5992" />
  <g
     inkscape:label="Layer 1"
     inkscape:groupmode="layer"
     id="layer1"
     transform="translate(-77.236003,-138.23582)">
    <g
       id="g573176"
       transform="matrix(0.09999964,0,0,0.09999964,-51.291204,147.55569)">
      <path
         id="rect573170"
         style="stroke-width:0.972079"
         d="m 1285.5413,-93.199074 h 2.6459 c 0.1465,0 0.2645,0.118005 0.2645,0.264585 v 1.322915 c 0,0.14658 -0.118,0.264585 -0.2645,0.264585 h -2.6459 c -0.1466,0 -0.2646,-0.118005 -0.2646,-0.264585 v -1.322915 c 0,-0.14658 0.118,-0.264585 0.2646,-0.264585 z" />
      <g
         aria-label="7"
         id="text573174"
         style="font-size:1.82295px;line-height:1.25;text-align:center;text-anchor:middle;fill:#ffffff;stroke-width:0.0455738">
        <path
           d="m 1287.011,-91.658723 q -0.01,0.02917 -0.1933,0.02917 -0.1841,0 -0.206,-0.01641 -0.01,-0.0055 -0.01,-0.01276 l 0.3045,-0.893246 h -0.3701 q -0.055,0 -0.055,-0.176826 0,-0.06016 0.011,-0.116669 0.013,-0.05651 0.042,-0.05651 l 0.638,-0.0018 q 0.073,0 0.1185,0.08021 0.022,0.0401 0.031,0.08021 z"
           style="font-family:'Lilita One';-inkscape-font-specification:'Lilita One'"
           id="path573379" />
      </g>
    </g>
  </g>
</svg>
