<?xml version="1.0" encoding="UTF-8" standalone="no"?>
<!-- Created with Inkscape (http://www.inkscape.org/) -->

<svg
   width="0.33072916mm"
   height="0.26458326mm"
   viewBox="0 0 0.33072916 0.26458327"
   version="1.1"
   id="svg5668"
   inkscape:version="1.1 (c68e22c387, 2021-05-23)"
   sodipodi:docname="number_4.svg"
   xmlns:inkscape="http://www.inkscape.org/namespaces/inkscape"
   xmlns:sodipodi="http://sodipodi.sourceforge.net/DTD/sodipodi-0.dtd"
   xmlns="http://www.w3.org/2000/svg"
   xmlns:svg="http://www.w3.org/2000/svg">
  <sodipodi:namedview
     id="namedview5670"
     pagecolor="#ffffff"
     bordercolor="#999999"
     borderopacity="1"
     inkscape:pageshadow="0"
     inkscape:pageopacity="0"
     inkscape:pagecheckerboard="0"
     inkscape:document-units="mm"
     showgrid="true"
     inkscape:zoom="181.01934"
     inkscape:cx="1.7567184"
     inkscape:cy="0.55518931"
     inkscape:window-width="1920"
     inkscape:window-height="1057"
     inkscape:window-x="-8"
     inkscape:window-y="-8"
     inkscape:window-maximized="1"
     inkscape:current-layer="g943">
    <inkscape:grid
       type="xygrid"
       id="grid953"
       originx="-3.4472655e-07"
       originy="-1.4941407e-06" />
  </sodipodi:namedview>
  <defs
     id="defs5665" />
  <g
     inkscape:label="Layer 1"
     inkscape:groupmode="layer"
     id="layer1"
     transform="translate(-74.654678,-157.33853)">
    <g
       id="g943">
      <rect
         style="fill:#000000;stroke:none;stroke-width:0.052939;stroke-linejoin:round;stroke-miterlimit:4;stroke-dasharray:none;fill-opacity:0.40000001"
         id="rect30761"
         height="0.26458326"
         x="74.654678"
         y="157.33853"
         ry="0.039704241"
         width="0.33072916" />
      <g
         aria-label="4"
         id="text6526"
         style="font-size:0.273413px;line-height:1.25;fill:#ffffff;stroke-width:0.00683533"
         transform="matrix(1.0005252,0,0,1.0005252,0.00703584,-0.08881765)">
        <path
           d="m 74.84577,157.49206 q 0.0027,0 0.0027,0.0208 0,0.0205 -0.0027,0.0205 l -0.01805,2.8e-4 v 0.0344 q 0,0.003 -0.01121,0.004 -0.01121,0.001 -0.01941,0.001 l -0.01121,-5.5e-4 q -0.01394,-10e-4 -0.01394,-0.005 v -0.0339 h -0.05441 q -0.0071,-0.007 -0.01285,-0.0183 -0.0057,-0.0115 -0.0057,-0.0164 0,-0.005 0.0016,-0.008 l 0.05988,-0.10608 q 0.0011,-0.002 0.01668,-0.003 0.01586,-0.001 0.03308,-0.001 0.01722,0 0.01722,0.001 l 2.73e-4,0.10964 z m -0.06589,2.7e-4 v -0.0571 l -0.03199,0.0571 z"
           style="font-family:'Lilita One';-inkscape-font-specification:'Lilita One'"
           id="path919" />
      </g>
    </g>
  </g>
</svg>
