<?xml version="1.0" encoding="UTF-8" standalone="no"?>
<!-- Created with Inkscape (http://www.inkscape.org/) -->

<svg
   width="0.31749886mm"
   height="0.18520783mm"
   viewBox="0 0 0.31749886 0.18520783"
   version="1.1"
   id="svg5886"
   inkscape:version="1.1 (c68e22c387, 2021-05-23)"
   sodipodi:docname="number_6.svg"
   xmlns:inkscape="http://www.inkscape.org/namespaces/inkscape"
   xmlns:sodipodi="http://sodipodi.sourceforge.net/DTD/sodipodi-0.dtd"
   xmlns="http://www.w3.org/2000/svg"
   xmlns:svg="http://www.w3.org/2000/svg">
  <sodipodi:namedview
     id="namedview5888"
     pagecolor="#ffffff"
     bordercolor="#999999"
     borderopacity="1"
     inkscape:pageshadow="0"
     inkscape:pageopacity="0"
     inkscape:pagecheckerboard="0"
     inkscape:document-units="mm"
     showgrid="false"
     inkscape:zoom="256"
     inkscape:cx="0.37109375"
     inkscape:cy="0.22460938"
     inkscape:window-width="1920"
     inkscape:window-height="1057"
     inkscape:window-x="-8"
     inkscape:window-y="-8"
     inkscape:window-maximized="1"
     inkscape:current-layer="layer1" />
  <defs
     id="defs5883" />
  <g
     inkscape:label="Layer 1"
     inkscape:groupmode="layer"
     id="layer1"
     transform="translate(-123.2165,-156.96861)">
    <g
       id="g573168"
       transform="matrix(0.09999964,0,0,0.09999964,-5.3107037,166.28848)">
      <path
         id="rect573162"
         style="stroke-width:0.972079"
         d="m 1285.5413,-93.199074 h 2.6459 c 0.1465,0 0.2645,0.118005 0.2645,0.264585 v 1.322915 c 0,0.14658 -0.118,0.264585 -0.2645,0.264585 h -2.6459 c -0.1466,0 -0.2646,-0.118005 -0.2646,-0.264585 v -1.322915 c 0,-0.14658 0.118,-0.264585 0.2646,-0.264585 z" />
      <g
         aria-label="6"
         id="text573166"
         style="font-size:1.82295px;line-height:1.25;text-align:center;text-anchor:middle;fill:#ffffff;stroke-width:0.0455738">
        <path
           d="m 1287.1504,-92.561084 q -0.073,-0.04011 -0.1695,-0.04011 -0.1695,0 -0.1932,0.218754 0.095,-0.02734 0.2023,-0.02734 0.1841,0 0.2698,0.09662 0.087,0.09479 0.087,0.260681 0,0.200525 -0.124,0.319017 -0.1239,0.116668 -0.3354,0.116668 -0.2114,0 -0.3318,-0.153127 -0.1203,-0.154951 -0.1203,-0.439331 0,-0.331777 0.1495,-0.52501 0.1513,-0.195056 0.3919,-0.195056 0.2735,0 0.2735,0.1112 0,0.08021 -0.051,0.171358 -0.018,0.0401 -0.049,0.08568 z m -0.1185,0.510426 q 0,-0.05651 -0.035,-0.09115 -0.035,-0.03646 -0.1057,-0.03646 -0.069,0 -0.1058,0.02552 0,0.0237 0,0.05287 0,0.02917 0.01,0.07292 0.01,0.04193 0.036,0.08385 0.031,0.04011 0.08,0.04011 0.1258,0 0.1258,-0.147659 z"
           style="font-family:'Lilita One';-inkscape-font-specification:'Lilita One'"
           id="path573375" />
      </g>
    </g>
  </g>
</svg>
