<?xml version="1.0" encoding="UTF-8" standalone="no"?>
<!-- Created with Inkscape (http://www.inkscape.org/) -->

<svg
   width="0.31749886mm"
   height="0.18520783mm"
   viewBox="0 0 0.31749886 0.18520783"
   version="1.1"
   id="svg6104"
   inkscape:version="1.1 (c68e22c387, 2021-05-23)"
   sodipodi:docname="number_8.svg"
   xmlns:inkscape="http://www.inkscape.org/namespaces/inkscape"
   xmlns:sodipodi="http://sodipodi.sourceforge.net/DTD/sodipodi-0.dtd"
   xmlns="http://www.w3.org/2000/svg"
   xmlns:svg="http://www.w3.org/2000/svg">
  <sodipodi:namedview
     id="namedview6106"
     pagecolor="#ffffff"
     bordercolor="#999999"
     borderopacity="1"
     inkscape:pageshadow="0"
     inkscape:pageopacity="0"
     inkscape:pagecheckerboard="0"
     inkscape:document-units="mm"
     showgrid="false"
     inkscape:zoom="256"
     inkscape:cx="0.15234375"
     inkscape:cy="0.052734375"
     inkscape:window-width="1920"
     inkscape:window-height="1057"
     inkscape:window-x="-8"
     inkscape:window-y="-8"
     inkscape:window-maximized="1"
     inkscape:current-layer="layer1" />
  <defs
     id="defs6101" />
  <g
     inkscape:label="Layer 1"
     inkscape:groupmode="layer"
     id="layer1"
     transform="translate(-133.288,-152.76704)">
    <g
       id="g573184"
       transform="matrix(0.09999964,0,0,0.09999964,4.7607963,162.08691)">
      <path
         id="rect573178"
         style="stroke-width:0.972079"
         d="m 1285.5413,-93.199074 h 2.6459 c 0.1465,0 0.2645,0.118005 0.2645,0.264585 v 1.322915 c 0,0.14658 -0.118,0.264585 -0.2645,0.264585 h -2.6459 c -0.1466,0 -0.2646,-0.118005 -0.2646,-0.264585 v -1.322915 c 0,-0.14658 0.118,-0.264585 0.2646,-0.264585 z" />
      <g
         aria-label="8"
         id="text573182"
         style="font-size:1.82295px;line-height:1.25;text-align:center;text-anchor:middle;fill:#ffffff;stroke-width:0.0455738">
        <path
           d="m 1287.3573,-92.019667 q 0,0.178649 -0.1294,0.291672 -0.1276,0.113022 -0.3427,0.113022 -0.2133,0 -0.3373,-0.107554 -0.1221,-0.109377 -0.1221,-0.28438 0,-0.176826 0.1768,-0.313547 -0.1239,-0.107554 -0.1239,-0.258859 0,-0.151305 0.1185,-0.249744 0.1184,-0.09844 0.3026,-0.09844 0.1841,0 0.2935,0.09297 0.1112,0.09115 0.1093,0.231515 0,0.138544 -0.1166,0.251567 0.075,0.05469 0.1221,0.14219 0.049,0.08568 0.049,0.189587 z m -0.5706,-0.01641 q 0,0.05287 0.031,0.08568 0.033,0.03099 0.08,0.03099 0.047,0 0.077,-0.03099 0.031,-0.03281 0.031,-0.08568 0,-0.09844 -0.1258,-0.162243 -0.093,0.05651 -0.093,0.162243 z m 0.1969,-0.515895 q 0,-0.0401 -0.029,-0.06745 -0.027,-0.02734 -0.062,-0.02734 -0.093,0 -0.097,0.08932 0,0.08203 0.1257,0.154951 0.062,-0.06927 0.062,-0.149482 z"
           style="font-family:'Lilita One';-inkscape-font-specification:'Lilita One'"
           id="path573383" />
      </g>
    </g>
  </g>
</svg>
