<?xml version="1.0" ?>
<svg xmlns="http://www.w3.org/2000/svg" width="1.0" height="1.7000000000000002" viewBox="0 0 1.0 1.7000000000000002" version="1.1" id="svg5" xml:space="preserve">
   <defs id="defs2"/>
   <g id="layer1" transform="scale(0.05) translate(-57,-85)">
      <g id="g32029">
         <circle style="fill:#0a0f32;fill-opacity:0.2;stroke:none;stroke-width:2;stroke-linejoin:round;stroke-dasharray:none;paint-order:markers stroke fill" id="path21397-3" cx="67" cy="109" r="10"/>
         <path id="path31464" style="color:#000000;fill:#643c0c;fill-opacity:1;stroke-linejoin:round;paint-order:markers stroke fill" d="m 67,85 c -5.499148,0 -10,4.500852 -10,10 v 11 c 0,5.49915 4.500856,10 10,10 5.499144,0 10,-4.50085 10,-10 V 95 C 77,89.500852 72.499148,85 67,85 Z"/>
         <path id="path28212" style="opacity:1;fill:#b06c18;fill-opacity:1;stroke:none;stroke-width:2;stroke-linejoin:round;stroke-dasharray:none;paint-order:markers stroke fill" d="m 59,95 v 11 c 0,4.41828 3.581722,8 8,8 4.418278,0 8,-3.58172 8,-8 V 95 Z"/>
         <path id="path30372" style="opacity:1;fill:#a86818;fill-opacity:1;stroke:none;stroke-width:2;stroke-linejoin:round;stroke-dasharray:none;paint-order:markers stroke fill" d="m 59,99 v 1 c 0,4.41828 3.58173,8 8,8 4.41827,0 8,-3.58172 8,-8 v -1 c 0,4.41828 -3.58173,8 -8,8 -4.41827,0 -8,-3.58172 -8,-8 z m 0,5 v 1 c 0,4.41828 3.58173,8 8,8 4.41827,0 8,-3.58172 8,-8 v -1 c 0,4.41828 -3.58173,8 -8,8 -4.41827,0 -8,-3.58172 -8,-8 z"/>
         <path id="path28214" style="opacity:1;fill:#c47c20;fill-opacity:1;stroke:none;stroke-width:2;stroke-linejoin:round;stroke-dasharray:none;paint-order:markers stroke fill" d="m 59,97 v 2 c 0,4.41828 3.58173,8 8,8 4.41827,0 8,-3.58172 8,-8 v -2 c 0,4.41828 -3.58173,8 -8,8 -4.41827,0 -8,-3.58172 -8,-8 z m 0,5 v 2 c 0,4.41828 3.58173,8 8,8 4.41827,0 8,-3.58172 8,-8 v -2 c 0,4.41828 -3.58173,8 -8,8 -4.41827,0 -8,-3.58172 -8,-8 z"/>
         <path id="path30511" style="opacity:1;fill:#a06418;fill-opacity:1;stroke:none;stroke-width:2;stroke-linejoin:round;stroke-dasharray:none;paint-order:markers stroke fill" d="m 59,95 v 11 c 0,4.41828 3.581726,8 8,8 0.873434,0 1.713159,-0.14165 2.5,-0.40039 C 66.3066,112.54951 64,109.54484 64,106 V 95 Z"/>
         <path id="path30513" style="opacity:1;fill:#986018;fill-opacity:1;stroke:none;stroke-width:2;stroke-linejoin:round;stroke-dasharray:none;paint-order:markers stroke fill" d="m 59,99 v 1 c 0,3.40866 2.133601,6.31648 5.136719,7.46875 -0.0637,-0.34298 -0.108518,-0.69198 -0.126953,-1.04883 C 61.073545,105.23522 59,102.36054 59,99 Z m 0,5 v 1 c 0,4.41828 3.581734,8 8,8 0.342857,0 0.680219,-0.0246 1.011719,-0.0664 -0.468219,-0.26994 -0.906363,-0.58554 -1.308594,-0.9414 C 62.422507,111.83591 59,108.31881 59,104 Z"/>
         <path id="path30515" style="opacity:1;fill:#bc741c;fill-opacity:1;stroke:none;stroke-width:2;stroke-linejoin:round;stroke-dasharray:none;paint-order:markers stroke fill" d="m 59,97 v 2 c 0,3.36054 2.073545,6.23522 5.009766,7.41992 C 64.002589,106.281 64,106.14071 64,106 v -1.58398 C 61.068944,103.22888 59,100.35682 59,97 Z m 0,5 v 2 c 0,4.31881 3.422507,7.83591 7.703125,7.99219 -0.722512,-0.63923 -1.329423,-1.40697 -1.783203,-2.26758 C 61.510334,108.80888 59,105.69867 59,102 Z"/>
         <circle style="opacity:1;fill:#f49c2c;fill-opacity:1;stroke:none;stroke-width:2;stroke-linejoin:round;stroke-dasharray:none;paint-order:markers stroke fill" id="circle28224" cx="67" cy="95" r="8"/>
         <circle style="opacity:1;fill:#cc8024;fill-opacity:1;stroke:none;stroke-width:2.2;stroke-linejoin:round;stroke-dasharray:none;paint-order:markers stroke fill" id="circle28226" cx="67" cy="95" r="5.5"/>
         <path id="circle28230" style="opacity:1;fill:#a4681c;fill-opacity:1;stroke:none;stroke-width:2.2;stroke-linejoin:round;stroke-dasharray:none;paint-order:markers stroke fill" d="M 67,89.5 A 5.5,5.5 0 0 0 61.5,95 5.5,5.5 0 0 0 61.712891,96.5 5.5,5.5 0 0 1 67,92.5 5.5,5.5 0 0 1 72.289062,96.496094 5.5,5.5 0 0 0 72.5,95 5.5,5.5 0 0 0 67,89.5 Z"/>
      </g>
   </g>
</svg>
