<?xml version="1.0" encoding="UTF-8" standalone="no"?>
<!-- Created with Inkscape (http://www.inkscape.org/) -->

<svg
   width="1.4"
   height="1.7"
   viewBox="0 0 1.4 1.7"
   version="1.1"
   id="svg5"
   sodipodi:docname="payload_red.svg"
   inkscape:version="1.1 (c68e22c387, 2021-05-23)"
   xmlns:inkscape="http://www.inkscape.org/namespaces/inkscape"
   xmlns:sodipodi="http://sodipodi.sourceforge.net/DTD/sodipodi-0.dtd"
   xmlns:xlink="http://www.w3.org/1999/xlink"
   xmlns="http://www.w3.org/2000/svg"
   xmlns:svg="http://www.w3.org/2000/svg">
  <sodipodi:namedview
     id="namedview7"
     pagecolor="#171717"
     bordercolor="#999999"
     borderopacity="1"
     inkscape:pageshadow="0"
     inkscape:pageopacity="0"
     inkscape:pagecheckerboard="0"
     inkscape:document-units="px"
     showgrid="false"
     units="px"
     inkscape:zoom="132.81822"
     inkscape:cx="0.63244333"
     inkscape:cy="0.94490045"
     inkscape:window-width="1284"
     inkscape:window-height="1041"
     inkscape:window-x="208"
     inkscape:window-y="0"
     inkscape:window-maximized="0"
     inkscape:current-layer="layer1"
     inkscape:object-paths="true"
     inkscape:snap-intersection-paths="true"
     inkscape:snap-smooth-nodes="true"
     inkscape:snap-midpoints="true"
     inkscape:snap-object-midpoints="true">
    <inkscape:grid
       type="xygrid"
       id="grid836"
       originx="0"
       originy="0" />
  </sodipodi:namedview>
  <defs
     id="defs2">
    <linearGradient
       inkscape:collect="always"
       xlink:href="#linearGradient65421"
       id="linearGradient65271"
       gradientUnits="userSpaceOnUse"
       x1="644"
       y1="37"
       x2="644"
       y2="34"
       gradientTransform="translate(-630,-26)" />
    <linearGradient
       inkscape:collect="always"
       id="linearGradient65421">
      <stop
         style="stop-color:#cc0000;stop-opacity:1"
         offset="0"
         id="stop65417" />
      <stop
         style="stop-color:#ff0000;stop-opacity:1"
         offset="1"
         id="stop65419" />
    </linearGradient>
    <radialGradient
       inkscape:collect="always"
       xlink:href="#linearGradient65555"
       id="radialGradient65269"
       gradientUnits="userSpaceOnUse"
       gradientTransform="matrix(-6.8571463,-3.6399781e-7,-1.1157298e-5,-3.4285722,4390.7169,142.91456)"
       cx="639"
       cy="37.600002"
       fx="639"
       fy="37.600002"
       r="3.5" />
    <linearGradient
       inkscape:collect="always"
       id="linearGradient65555">
      <stop
         style="stop-color:#cc0000;stop-opacity:1"
         offset="0"
         id="stop65547" />
      <stop
         style="stop-color:#cc0000;stop-opacity:1"
         offset="0.25000033"
         id="stop65549" />
      <stop
         style="stop-color:#ff0000;stop-opacity:1"
         offset="0.5000003"
         id="stop65551" />
      <stop
         style="stop-color:#ff0000;stop-opacity:1"
         offset="1"
         id="stop65553" />
    </linearGradient>
    <radialGradient
       inkscape:collect="always"
       xlink:href="#linearGradient65555"
       id="radialGradient65267"
       gradientUnits="userSpaceOnUse"
       gradientTransform="matrix(5.9999971,-1.0547372e-6,1.153864e-6,3.0000007,-3869.9981,-99.699343)"
       cx="648"
       cy="37.900002"
       fx="648"
       fy="37.900002"
       r="4" />
  </defs>
  <g
     inkscape:label="Layer 1"
     inkscape:groupmode="layer"
     id="layer1">
    <g
       id="g108114"
       transform="scale(0.05)">
      <rect
         style="fill:#0a0f32;fill-opacity:0.2;stroke:none;stroke-width:80;stroke-linecap:square;stroke-linejoin:round;stroke-miterlimit:4;stroke-dasharray:none;paint-order:markers stroke fill"
         id="rect71497-7"
         width="20"
         height="13"
         x="4"
         y="21"
         ry="2" />
      <path
         id="path49098"
         style="color:#000000;fill:#2c3048;fill-opacity:1;stroke-width:19.9999;stroke-linecap:round;stroke-linejoin:round;-inkscape-stroke:none;paint-order:markers stroke fill"
         d="M 9.5,18 C 7.0416,18 5,20.0416 5,22.5 v 3 c 0,2.4584 2.0416,4.5 4.5,4.5 2.4584,0 4.5,-2.0416 4.5,-4.5 0,2.4584 2.0416,4.5 4.5,4.5 2.4584,0 4.5,-2.0416 4.5,-4.5 v -3 C 23,20.0416 20.9584,18 18.5,18 16.0416,18 14,20.0416 14,22.5 14,20.0416 11.9584,18 9.5,18 Z" />
      <path
         id="rect46311"
         style="fill:#40446c;fill-opacity:1;stroke:none;stroke-width:80;stroke-linecap:round;stroke-linejoin:round;stroke-opacity:0.258856;paint-order:markers stroke fill"
         d="M 9.5,20 C 8.115,20 7,21.115 7,22.5 v 3 C 7,26.885 8.115,28 9.5,28 10.885,28 12,26.885 12,25.5 v -3 C 12,21.115 10.885,20 9.5,20 Z m 9,0 C 17.115,20 16,21.115 16,22.5 v 3 c 0,1.385 1.115,2.5 2.5,2.5 1.385,0 2.5,-1.115 2.5,-2.5 v -3 C 21,21.115 19.885,20 18.5,20 Z"
         sodipodi:nodetypes="ssssssssssssss" />
      <path
         id="path46495"
         style="fill:#4c5070;fill-opacity:1;stroke:none;stroke-width:80;stroke-linecap:round;stroke-linejoin:round;stroke-opacity:0.258856;paint-order:markers stroke fill"
         d="M 10.38672,20.16406 C 10.14283,20.55024 10,21.0076 10,21.5 v 3 c 0,1.07167 0.66961,1.97904 1.61328,2.33594 C 11.85717,26.44976 12,25.9924 12,25.5 v -3 c 0,-1.07167 -0.66961,-1.97904 -1.61328,-2.33594 z m 9,0 C 19.14283,20.55024 19,21.0076 19,21.5 v 3 c 0,1.07167 0.66961,1.97904 1.61328,2.33594 C 20.85717,26.44976 21,25.9924 21,25.5 v -3 c 0,-1.07167 -0.66961,-1.97904 -1.61328,-2.33594 z" />
      <path
         id="path41806"
         style="color:#000000;fill:#202030;fill-opacity:1;stroke-width:19.9999;stroke-linecap:round;stroke-linejoin:round;-inkscape-stroke:none;paint-order:markers stroke fill"
         d="M 7,8 C 3.1566,8 0,11.1566 0,15 v 3 c 0,3.8434 3.1566,7 7,7 h 14 c 3.8434,0 7,-3.1566 7,-7 V 15 C 28,11.1566 24.8434,8 21,8 Z" />
      <rect
         style="fill:#2c304c;fill-opacity:1;stroke:none;stroke-width:80;stroke-linecap:round;stroke-linejoin:round;stroke-opacity:0.258856;paint-order:markers stroke fill"
         id="rect36075"
         width="24"
         height="13"
         x="2"
         y="10"
         ry="5" />
      <path
         id="rect43377"
         style="fill:#383c5c;fill-opacity:1;stroke:none;stroke-width:80;stroke-linecap:round;stroke-linejoin:round;stroke-opacity:0.258856;paint-order:markers stroke fill"
         d="m 18,11 c -2.77,0 -5,2.23 -5,5 v 3 c 0,1.64166 0.78721,3.08948 2.00195,4 H 21 c 2.77,0 5,-2.23 5,-5 v -3 c 0,-1.64166 -0.78721,-3.08948 -2.00195,-4 z" />
      <path
         id="path65245"
         style="color:#000000;fill:#700000;fill-opacity:1;stroke-width:19.9999;stroke-linecap:round;-inkscape-stroke:none;paint-order:markers stroke fill"
         d="M 8.5,0 C 3.82927,0 0,3.82927 0,8.5 v 4 C 0,16.06616 2.93384,19 6.5,19 h 15 c 3.56616,0 6.5,-2.93384 6.5,-6.5 v -4 C 28,3.82927 24.17073,0 19.5,0 Z" />
      <path
         id="path65247"
         style="fill:url(#linearGradient65271);fill-opacity:1;stroke-width:80;stroke-linecap:round;paint-order:markers stroke fill"
         d="m 9,2 -1,7 1,8 h 9 L 19,9 18,2 Z"
         sodipodi:nodetypes="ccccccc" />
      <path
         id="path65249"
         style="fill:url(#radialGradient65269);fill-opacity:1;stroke-width:80;stroke-linecap:round;paint-order:markers stroke fill"
         d="M 8.5,2 A 6.5,6.5 0 0 0 2,8.5 v 4 A 4.5,4.5 0 0 0 6.5,17 H 9 V 2 Z" />
      <path
         id="path65251"
         style="fill:url(#radialGradient65267);fill-opacity:1;stroke-width:80;stroke-linecap:round;paint-order:markers stroke fill"
         d="m 18,2 v 15 h 3.5 A 4.5,4.5 0 0 0 26,12.5 v -4 A 6.5,6.5 0 0 0 19.5,2 6.5,6.5 0 0 0 19.4394,2.004 V 2 Z" />
      <path
         id="path65253"
         style="fill:#000000;fill-opacity:0.17;stroke-width:80;stroke-linecap:round;paint-order:markers stroke fill"
         d="M 8.5,2 A 6.5,6.5 0 0 0 8,2.0449 V 17 h 1 2 V 2 H 9 Z" />
      <path
         id="path65255"
         style="fill:#000000;fill-opacity:0.17;stroke-width:80;stroke-linecap:round;paint-order:markers stroke fill"
         d="m 17,2 v 15 h 1 2 V 2.02148 a 6.5,6.5 0 0 0 -0.5,-0.0215 6.5,6.5 0 0 0 -0.0606,0.004 v -0.004 H 18 Z" />
      <path
         id="path65257"
         style="fill:#ff0000;fill-opacity:0.48;stroke-width:80;stroke-linecap:round;paint-order:markers stroke fill"
         d="m 16,2 v 15 h 1 V 2 Z" />
      <path
         id="path65259"
         style="fill:#ff0000;fill-opacity:0.48;stroke-width:80;stroke-linecap:round;paint-order:markers stroke fill"
         d="M 8,2.04492 A 6.5,6.5 0 0 0 7,2.19922 V 17 h 1 z" />
      <path
         id="path66573"
         style="fill:#ffffff;fill-opacity:0.298039;stroke-width:80;stroke-linecap:round;paint-order:markers stroke fill"
         d="M 8.5,2 C 4.91015,2 2,4.91015 2,8.5 v 4 c 0,0.2119 0.0205,0.41894 0.0488,0.62305 C 2.48315,9.10688 5.86462,6 10,6 h 8 c 4.13538,0 7.51685,3.10688 7.95117,7.12305 0.0283,-0.20411 0.0488,-0.41115 0.0488,-0.62305 v -4 c 0,-3.58985 -2.91015,-6.5 -6.5,-6.5 z" />
    </g>
  </g>
</svg>
