<?xml version="1.0" encoding="UTF-8" standalone="no"?>
<!-- Created with Inkscape (http://www.inkscape.org/) -->

<svg
   width="1"
   height="1"
   viewBox="0 0 1 1"
   version="1.1"
   id="svg5"
   sodipodi:docname="payload_blue_t.svg"
   inkscape:version="1.1 (c68e22c387, 2021-05-23)"
   xmlns:inkscape="http://www.inkscape.org/namespaces/inkscape"
   xmlns:sodipodi="http://sodipodi.sourceforge.net/DTD/sodipodi-0.dtd"
   xmlns:xlink="http://www.w3.org/1999/xlink"
   xmlns="http://www.w3.org/2000/svg"
   xmlns:svg="http://www.w3.org/2000/svg">
  <sodipodi:namedview
     id="namedview7"
     pagecolor="#171717"
     bordercolor="#999999"
     borderopacity="1"
     inkscape:pageshadow="0"
     inkscape:pageopacity="0"
     inkscape:pagecheckerboard="0"
     inkscape:document-units="px"
     showgrid="false"
     units="px"
     inkscape:zoom="256"
     inkscape:cx="0.4921875"
     inkscape:cy="0.59570312"
     inkscape:window-width="1284"
     inkscape:window-height="1041"
     inkscape:window-x="208"
     inkscape:window-y="0"
     inkscape:window-maximized="0"
     inkscape:current-layer="g109836"
     inkscape:object-paths="true"
     inkscape:snap-intersection-paths="true"
     inkscape:snap-smooth-nodes="true"
     inkscape:snap-midpoints="true"
     inkscape:snap-object-midpoints="true">
    <inkscape:grid
       type="xygrid"
       id="grid836"
       originx="0"
       originy="0" />
  </sodipodi:namedview>
  <defs
     id="defs2">
    <linearGradient
       inkscape:collect="always"
       xlink:href="#linearGradient72002"
       id="linearGradient87808"
       gradientUnits="userSpaceOnUse"
       x1="826"
       y1="34"
       x2="824"
       y2="34"
       gradientTransform="rotate(90,432.5,-387.5)" />
    <linearGradient
       inkscape:collect="always"
       id="linearGradient72002">
      <stop
         style="stop-color:#0000c4;stop-opacity:1"
         offset="0"
         id="stop71998" />
      <stop
         style="stop-color:#0000ff;stop-opacity:1"
         offset="1"
         id="stop72000" />
    </linearGradient>
    <radialGradient
       inkscape:collect="always"
       xlink:href="#linearGradient88501"
       id="radialGradient87806"
       gradientUnits="userSpaceOnUse"
       gradientTransform="matrix(0,-2,2,0,-59,1647)"
       cx="829"
       cy="34"
       fx="829"
       fy="34"
       r="2.5" />
    <linearGradient
       inkscape:collect="always"
       id="linearGradient88501">
      <stop
         style="stop-color:#0000c4;stop-opacity:1"
         offset="0"
         id="stop88495" />
      <stop
         style="stop-color:#0000c4;stop-opacity:1"
         offset="0.60000002"
         id="stop88497" />
      <stop
         style="stop-color:#0000ff;stop-opacity:1"
         offset="1"
         id="stop88499" />
    </linearGradient>
    <linearGradient
       inkscape:collect="always"
       xlink:href="#linearGradient72002"
       id="linearGradient87804"
       gradientUnits="userSpaceOnUse"
       x1="829"
       y1="31"
       x2="829"
       y2="29"
       gradientTransform="translate(-820,-45)" />
  </defs>
  <g
     inkscape:label="Layer 1"
     inkscape:groupmode="layer"
     id="layer1">
    <g
       id="g109836"
       transform="scale(0.05)"
       style="stroke-width:20">
      <rect
         style="fill:#00006c;fill-opacity:1;stroke:none;stroke-width:80;stroke-linecap:round;paint-order:markers stroke fill"
         id="rect92093"
         width="4"
         height="20"
         x="16"
         y="-20"
         transform="rotate(90)" />
      <rect
         style="fill:#0000ff;fill-opacity:1;stroke:none;stroke-width:80;stroke-linecap:round;paint-order:markers stroke fill"
         id="rect92095"
         width="1"
         height="16"
         x="19"
         y="-18"
         transform="rotate(90)" />
      <path
         id="path87792"
         style="color:#000000;fill:#00006c;fill-opacity:1;stroke-width:20;stroke-linecap:round;-inkscape-stroke:none;paint-order:markers stroke fill"
         d="M 20,5 C 20,2.26227 17.73773,0 15,0 H 5 C 2.26227,0 0,2.26227 0,5 v 7 c 0,1.63316 1.36684,3 3,3 h 14 c 1.63316,0 3,-1.36684 3,-3 z" />
      <path
         id="path87794"
         style="fill:#0000c4;fill-opacity:1;stroke:none;stroke-width:80;stroke-linecap:round;paint-order:markers stroke fill"
         d="M 18,5 A 3,3 0 0 0 15,2 H 5 A 3,3 0 0 0 2,5 v 7 a 1,1 0 0 0 1,1 h 14 a 1,1 0 0 0 1,-1 z" />
      <path
         id="path87796"
         style="fill:#0000ff;fill-opacity:1;stroke:none;stroke-width:20px;stroke-linecap:butt;stroke-linejoin:miter;stroke-opacity:1"
         d="M 18,5 A 3,3 0 0 0 15,2 H 5 A 3,3 0 0 0 2,5 h 13 v 8 h 2 a 1,1 0 0 0 1,-1 z" />
      <path
         id="path87798"
         style="fill:url(#linearGradient87808);fill-opacity:1;stroke:none;stroke-width:80;stroke-linecap:round;paint-order:markers stroke fill"
         d="M 11,4 H 2.19141 A 3,3 0 0 0 2,5 v 1 h 9 z" />
      <rect
         style="fill:url(#radialGradient87806);fill-opacity:1;stroke:none;stroke-width:80;stroke-linecap:round;paint-order:markers stroke fill"
         id="rect87800"
         width="5"
         height="5"
         x="4"
         y="-16"
         transform="rotate(90)" />
      <rect
         style="fill:url(#linearGradient87804);fill-opacity:1;stroke:none;stroke-width:80;stroke-linecap:round;paint-order:markers stroke fill"
         id="rect87802"
         width="4"
         height="2"
         x="9"
         y="-16"
         transform="rotate(90)" />
      <path
         id="path32639"
         style="color:#000000;fill:#282c40;fill-opacity:1;stroke-width:20;stroke-linecap:round;stroke-linejoin:round;-inkscape-stroke:none;paint-order:markers stroke fill"
         d="m 20,15 c 0,-1.6274 -1.3726,-3 -3,-3 H 3 c -1.6274,0 -3,1.3726 -3,3 v 2 c 0,1.6274 1.3726,3 3,3 h 14 c 1.6274,0 3,-1.3726 3,-3 z" />
      <rect
         style="fill:#383c54;fill-opacity:1;stroke:none;stroke-width:80;stroke-linecap:round;stroke-linejoin:round;stroke-opacity:0.258856;paint-order:markers stroke fill"
         id="rect32641"
         width="4"
         height="16"
         x="14"
         y="-18"
         ry="1"
         transform="rotate(90)" />
      <rect
         style="fill:#363b71;fill-opacity:1;stroke-width:80;stroke-linecap:round;stroke-linejoin:round;stroke-opacity:0.258856;paint-order:markers stroke fill"
         id="rect32643"
         width="4"
         height="12"
         x="16"
         y="-16"
         transform="rotate(90)" />
      <rect
         style="fill:#666db9;fill-opacity:1;stroke-width:80;stroke-linecap:round;stroke-linejoin:round;stroke-opacity:0.258856;paint-order:markers stroke fill"
         id="rect32645"
         width="2"
         height="8"
         x="18"
         y="-14"
         transform="rotate(90)" />
      <rect
         style="fill:#4f5593;fill-opacity:1;stroke-width:80;stroke-linecap:round;stroke-linejoin:round;stroke-opacity:0.258856;paint-order:markers stroke fill"
         id="rect32647"
         width="2"
         height="4"
         x="18"
         y="-12"
         transform="rotate(90)" />
      <circle
         style="fill:#7c7cfb;fill-opacity:1;stroke-width:80;stroke-linecap:round;stroke-linejoin:round;stroke-opacity:0.258856;paint-order:markers stroke fill"
         id="circle32649"
         cx="5"
         cy="-14"
         r="2"
         transform="rotate(90)" />
    </g>
  </g>
</svg>
