<?xml version="1.0" encoding="UTF-8" standalone="no"?>
<!-- Created with Inkscape (http://www.inkscape.org/) -->

<svg
   width="1.7"
   height="1.4"
   viewBox="0 0 1.7 1.4"
   version="1.1"
   id="svg5"
   sodipodi:docname="payload_red_side.svg"
   inkscape:version="1.1 (c68e22c387, 2021-05-23)"
   xmlns:inkscape="http://www.inkscape.org/namespaces/inkscape"
   xmlns:sodipodi="http://sodipodi.sourceforge.net/DTD/sodipodi-0.dtd"
   xmlns:xlink="http://www.w3.org/1999/xlink"
   xmlns="http://www.w3.org/2000/svg"
   xmlns:svg="http://www.w3.org/2000/svg">
  <sodipodi:namedview
     id="namedview7"
     pagecolor="#171717"
     bordercolor="#999999"
     borderopacity="1"
     inkscape:pageshadow="0"
     inkscape:pageopacity="0"
     inkscape:pagecheckerboard="0"
     inkscape:document-units="px"
     showgrid="false"
     units="px"
     inkscape:zoom="128"
     inkscape:cx="0.7265625"
     inkscape:cy="0.17578125"
     inkscape:window-width="1284"
     inkscape:window-height="1041"
     inkscape:window-x="208"
     inkscape:window-y="0"
     inkscape:window-maximized="0"
     inkscape:current-layer="layer1"
     inkscape:object-paths="true"
     inkscape:snap-intersection-paths="true"
     inkscape:snap-smooth-nodes="true"
     inkscape:snap-midpoints="true"
     inkscape:snap-object-midpoints="true">
    <inkscape:grid
       type="xygrid"
       id="grid836"
       originx="0"
       originy="0" />
  </sodipodi:namedview>
  <defs
     id="defs2">
    <linearGradient
       inkscape:collect="always"
       xlink:href="#linearGradient65421"
       id="linearGradient65271"
       gradientUnits="userSpaceOnUse"
       x1="644"
       y1="37"
       x2="644"
       y2="34"
       gradientTransform="rotate(-90,316,342)" />
    <linearGradient
       inkscape:collect="always"
       id="linearGradient65421">
      <stop
         style="stop-color:#cc0000;stop-opacity:1"
         offset="0"
         id="stop65417" />
      <stop
         style="stop-color:#ff0000;stop-opacity:1"
         offset="1"
         id="stop65419" />
    </linearGradient>
    <radialGradient
       inkscape:collect="always"
       xlink:href="#linearGradient65555"
       id="radialGradient65269"
       gradientUnits="userSpaceOnUse"
       gradientTransform="matrix(-3.6399781e-7,6.8571463,-3.4285722,1.1157298e-5,142.91456,-4362.7169)"
       cx="639"
       cy="37.600002"
       fx="639"
       fy="37.600002"
       r="3.5" />
    <linearGradient
       inkscape:collect="always"
       id="linearGradient65555">
      <stop
         style="stop-color:#cc0000;stop-opacity:1"
         offset="0"
         id="stop65547" />
      <stop
         style="stop-color:#cc0000;stop-opacity:1"
         offset="0.25000033"
         id="stop65549" />
      <stop
         style="stop-color:#ff0000;stop-opacity:1"
         offset="0.5000003"
         id="stop65551" />
      <stop
         style="stop-color:#ff0000;stop-opacity:1"
         offset="1"
         id="stop65553" />
    </linearGradient>
    <radialGradient
       inkscape:collect="always"
       xlink:href="#linearGradient65555"
       id="radialGradient65267"
       gradientUnits="userSpaceOnUse"
       gradientTransform="matrix(-1.0547372e-6,-5.9999971,3.0000007,-1.153864e-6,-99.69934,3897.9981)"
       cx="648"
       cy="37.900002"
       fx="648"
       fy="37.900002"
       r="4" />
  </defs>
  <g
     inkscape:label="Layer 1"
     inkscape:groupmode="layer"
     id="layer1">
    <g
       id="g108165"
       transform="scale(0.05)"
       style="stroke-width:20">
      <rect
         style="fill:#0a0f32;fill-opacity:0.2;stroke:none;stroke-width:80;stroke-linecap:square;stroke-linejoin:round;stroke-miterlimit:4;stroke-dasharray:none;paint-order:markers stroke fill"
         id="rect71497-7"
         width="20"
         height="13"
         x="-24"
         y="21"
         ry="2"
         transform="rotate(-90)" />
      <path
         id="path49098"
         style="color:#000000;fill:#2c3048;fill-opacity:1;stroke-width:20;stroke-linecap:round;stroke-linejoin:round;-inkscape-stroke:none;paint-order:markers stroke fill"
         d="m 18,18.5 c 0,2.4584 2.0416,4.5 4.5,4.5 h 3 C 27.9584,23 30,20.9584 30,18.5 30,16.0416 27.9584,14 25.5,14 27.9584,14 30,11.9584 30,9.5 30,7.0416 27.9584,5 25.5,5 h -3 C 20.0416,5 18,7.0416 18,9.5 18,11.9584 20.0416,14 22.5,14 20.0416,14 18,16.0416 18,18.5 Z" />
      <path
         id="rect46311"
         style="fill:#40446c;fill-opacity:1;stroke:none;stroke-width:80;stroke-linecap:round;stroke-linejoin:round;stroke-opacity:0.258856;paint-order:markers stroke fill"
         d="m 20,18.5 c 0,1.385 1.115,2.5 2.5,2.5 h 3 C 26.885,21 28,19.885 28,18.5 28,17.115 26.885,16 25.5,16 h -3 C 21.115,16 20,17.115 20,18.5 Z m 0,-9 c 0,1.385 1.115,2.5 2.5,2.5 h 3 C 26.885,12 28,10.885 28,9.5 28,8.115 26.885,7 25.5,7 h -3 C 21.115,7 20,8.115 20,9.5 Z"
         sodipodi:nodetypes="ssssssssssssss" />
      <path
         id="path46495"
         style="fill:#4c5070;fill-opacity:1;stroke:none;stroke-width:80;stroke-linecap:round;stroke-linejoin:round;stroke-opacity:0.258856;paint-order:markers stroke fill"
         d="M 20.16406,17.61328 C 20.55024,17.85717 21.0076,18 21.5,18 h 3 c 1.07167,0 1.97904,-0.66961 2.33594,-1.61328 C 26.44976,16.14283 25.9924,16 25.5,16 h -3 c -1.07167,0 -1.97904,0.66961 -2.33594,1.61328 z m 0,-9 C 20.55024,8.85717 21.0076,9 21.5,9 h 3 C 25.57167,9 26.47904,8.33039 26.83594,7.38672 26.44976,7.14283 25.9924,7 25.5,7 h -3 c -1.07167,0 -1.97904,0.66961 -2.33594,1.61328 z" />
      <path
         id="path41806"
         style="color:#000000;fill:#202030;fill-opacity:1;stroke-width:20;stroke-linecap:round;stroke-linejoin:round;-inkscape-stroke:none;paint-order:markers stroke fill"
         d="m 8,21 c 0,3.8434 3.1566,7 7,7 h 3 c 3.8434,0 7,-3.1566 7,-7 V 7 C 25,3.1566 21.8434,0 18,0 H 15 C 11.1566,0 8,3.1566 8,7 Z" />
      <rect
         style="fill:#2c304c;fill-opacity:1;stroke:none;stroke-width:80;stroke-linecap:round;stroke-linejoin:round;stroke-opacity:0.258856;paint-order:markers stroke fill"
         id="rect36075"
         width="24"
         height="13"
         x="-26"
         y="10"
         ry="5"
         transform="rotate(-90)" />
      <path
         id="rect43377"
         style="fill:#383c5c;fill-opacity:1;stroke:none;stroke-width:80;stroke-linecap:round;stroke-linejoin:round;stroke-opacity:0.258856;paint-order:markers stroke fill"
         d="m 11,10 c 0,2.77 2.23,5 5,5 h 3 c 1.64166,0 3.08948,-0.78721 4,-2.00195 V 7 C 23,4.23 20.77,2 18,2 h -3 c -1.64166,0 -3.08948,0.78721 -4,2.00195 z" />
      <path
         id="path65245"
         style="color:#000000;fill:#700000;fill-opacity:1;stroke-width:20;stroke-linecap:round;-inkscape-stroke:none;paint-order:markers stroke fill"
         d="M 0,19.5 C 0,24.17073 3.82927,28 8.5,28 h 4 C 16.06616,28 19,25.06616 19,21.5 V 6.5 C 19,2.93384 16.06616,0 12.5,0 h -4 C 3.82927,0 0,3.82927 0,8.5 Z" />
      <path
         id="path65247"
         style="fill:url(#linearGradient65271);fill-opacity:1;stroke-width:80;stroke-linecap:round;paint-order:markers stroke fill"
         d="m 2,19 7,1 8,-1 V 10 L 9,9 2,10 Z"
         sodipodi:nodetypes="ccccccc" />
      <path
         id="path65249"
         style="fill:url(#radialGradient65269);fill-opacity:1;stroke-width:80;stroke-linecap:round;paint-order:markers stroke fill"
         d="M 2,19.5 A 6.5,6.5 0 0 0 8.5,26 h 4 A 4.5,4.5 0 0 0 17,21.5 V 19 H 2 Z" />
      <path
         id="path65251"
         style="fill:url(#radialGradient65267);fill-opacity:1;stroke-width:80;stroke-linecap:round;paint-order:markers stroke fill"
         d="M 2,10 H 17 V 6.5 A 4.5,4.5 0 0 0 12.5,2 h -4 A 6.5,6.5 0 0 0 2,8.5 6.5,6.5 0 0 0 2.004,8.5606 H 2 Z" />
      <path
         id="path65253"
         style="fill:#000000;fill-opacity:0.17;stroke-width:80;stroke-linecap:round;paint-order:markers stroke fill"
         d="M 2,19.5 A 6.5,6.5 0 0 0 2.0449,20 H 17 V 19 17 H 2 v 2 z" />
      <path
         id="path65255"
         style="fill:#000000;fill-opacity:0.17;stroke-width:80;stroke-linecap:round;paint-order:markers stroke fill"
         d="M 2,11 H 17 V 10 8 H 2.02148 a 6.5,6.5 0 0 0 -0.0215,0.5 6.5,6.5 0 0 0 0.004,0.0606 h -0.004 V 10 Z" />
      <path
         id="path65257"
         style="fill:#ff0000;fill-opacity:0.48;stroke-width:80;stroke-linecap:round;paint-order:markers stroke fill"
         d="M 2,12 H 17 V 11 H 2 Z" />
      <path
         id="path65259"
         style="fill:#ff0000;fill-opacity:0.48;stroke-width:80;stroke-linecap:round;paint-order:markers stroke fill"
         d="m 2.04492,20 a 6.5,6.5 0 0 0 0.1543,1 H 17 v -1 z" />
      <path
         id="path66573"
         style="fill:#ffffff;fill-opacity:0.298039;stroke-width:80;stroke-linecap:round;paint-order:markers stroke fill"
         d="M 2,19.5 C 2,23.08985 4.91015,26 8.5,26 h 4 c 0.2119,0 0.41894,-0.0205 0.62305,-0.0488 C 9.10688,25.51685 6,22.13538 6,18 V 10 C 6,5.86462 9.10688,2.48315 13.12305,2.04883 12.91894,2.02053 12.7119,2.00003 12.5,2.00003 h -4 c -3.58985,0 -6.5,2.91015 -6.5,6.5 z" />
    </g>
  </g>
</svg>
