<?xml version="1.0" encoding="UTF-8" standalone="no"?>
<!-- Created with Inkscape (http://www.inkscape.org/) -->

<svg
   width="1"
   height="1"
   viewBox="0 0 1 1"
   version="1.1"
   id="svg5"
   sodipodi:docname="payload_red_tr.svg"
   inkscape:version="1.1 (c68e22c387, 2021-05-23)"
   xmlns:inkscape="http://www.inkscape.org/namespaces/inkscape"
   xmlns:sodipodi="http://sodipodi.sourceforge.net/DTD/sodipodi-0.dtd"
   xmlns="http://www.w3.org/2000/svg"
   xmlns:svg="http://www.w3.org/2000/svg">
  <sodipodi:namedview
     id="namedview7"
     pagecolor="#171717"
     bordercolor="#999999"
     borderopacity="1"
     inkscape:pageshadow="0"
     inkscape:pageopacity="0"
     inkscape:pagecheckerboard="0"
     inkscape:document-units="px"
     showgrid="false"
     units="px"
     inkscape:zoom="256"
     inkscape:cx="0.4296875"
     inkscape:cy="0.083984375"
     inkscape:window-width="1284"
     inkscape:window-height="1041"
     inkscape:window-x="208"
     inkscape:window-y="0"
     inkscape:window-maximized="0"
     inkscape:current-layer="g109200"
     inkscape:object-paths="true"
     inkscape:snap-intersection-paths="true"
     inkscape:snap-smooth-nodes="true"
     inkscape:snap-midpoints="true"
     inkscape:snap-object-midpoints="true">
    <inkscape:grid
       type="xygrid"
       id="grid836"
       originx="0"
       originy="0" />
  </sodipodi:namedview>
  <defs
     id="defs2" />
  <g
     inkscape:label="Layer 1"
     inkscape:groupmode="layer"
     id="layer1">
    <g
       id="g109200"
       transform="scale(0.05)"
       style="stroke-width:20">
      <path
         id="path17406"
         style="fill:#ff0000;fill-opacity:1;stroke-width:80;stroke-linecap:round;stroke-linejoin:round;stroke-opacity:0.258856;paint-order:markers stroke fill"
         d="M 20,20 V 0 H 14 C 6.244,0 0,6.244 0,14 v 6 z" />
      <path
         id="path17408"
         style="fill:#363b71;fill-opacity:1;stroke-width:80;stroke-linecap:round;stroke-linejoin:round;stroke-opacity:0.258856;paint-order:markers stroke fill"
         d="m 16,20 v -2 c 0,-1.108 0.892,-2 2,-2 h 2 V 4 H 14 C 8.46,4 4,8.46 4,14 v 6 z" />
      <path
         id="path17410"
         style="fill:#666db9;fill-opacity:1;stroke-width:80;stroke-linecap:round;stroke-linejoin:round;stroke-opacity:0.258856;paint-order:markers stroke fill"
         d="m 14,20 v -3 c 0,-1.662 1.338,-3 3,-3 h 3 V 6 H 14 C 9.568,6 6,9.568 6,14 v 6 z" />
      <path
         id="path17412"
         style="fill:#4f5593;fill-opacity:1;stroke-width:80;stroke-linecap:round;stroke-linejoin:round;stroke-opacity:0.258856;paint-order:markers stroke fill"
         d="m 12,20 v -3 c 0,-2.77 2.23,-5 5,-5 h 3 V 8 h -5 c -3.878,0 -7,3.122 -7,7 v 5 z" />
      <path
         id="path75461"
         style="color:#000000;fill:#700000;fill-opacity:1;stroke-width:20;stroke-linecap:round;-inkscape-stroke:none;paint-order:markers stroke fill"
         d="m 20,20 v -2 a 2,2 0 0 0 -2,2 z M 2,20 V 12.5 C 2,6.70101 6.70101,2 12.5,2 H 20 V 0 H 12.5 C 5.62014,0 0,5.62014 0,12.5 V 20 Z" />
    </g>
  </g>
</svg>
