<?xml version="1.0" encoding="utf-8"?>
<!-- Generator: Adobe Illustrator 24.1.2, SVG Export Plug-In . SVG Version: 6.00 Build 0)  -->
<svg version="1.1"
	 id="svg5" xmlns:inkscape="http://www.inkscape.org/namespaces/inkscape" xmlns:sodipodi="http://sodipodi.sourceforge.net/DTD/sodipodi-0.dtd" xmlns:svg="http://www.w3.org/2000/svg"
	 xmlns="http://www.w3.org/2000/svg" xmlns:xlink="http://www.w3.org/1999/xlink" x="0px" y="0px" viewBox="0 0 1 2.3"
	 enable-background="new 0 0 1 2.3" xml:space="preserve">
<g>
	<circle id="circle16099" fill="#0A0F32" fill-opacity="0.2" cx="0.5" cy="1.8" r="0.5"/>
	<path fill="#590C41" d="M1,1.3c0,0.295-0.255,0.53-0.557,0.497c-0.23-0.025-0.417-0.214-0.44-0.445
		c-0.014-0.14,0.03-0.27,0.111-0.369c0.091-0.11,0.162-0.235,0.197-0.374l0.016-0.064c-0.005-0.004-0.01-0.007-0.014-0.011
		c-0.004-0.002-0.006-0.005-0.01-0.008c-0.01-0.008-0.019-0.018-0.028-0.028C0.271,0.494,0.268,0.49,0.265,0.485
		c-0.036-0.046-0.058-0.1-0.063-0.159C0.201,0.318,0.2,0.309,0.2,0.3c0-0.009,0.001-0.017,0.002-0.026
		c0-0.013,0.002-0.025,0.005-0.038C0.209,0.227,0.211,0.219,0.214,0.21c0,0,0,0,0-0.001C0.217,0.2,0.22,0.191,0.224,0.182
		c0.005-0.013,0.012-0.027,0.02-0.039c0.012-0.02,0.038-0.05,0.056-0.067c0.003-0.003,0.006-0.005,0.009-0.008
		c0.008-0.006,0.015-0.012,0.023-0.017c0.008-0.005,0.016-0.01,0.024-0.015c0,0,0.001,0,0.001-0.001
		c0.008-0.004,0.017-0.008,0.026-0.012c0.001,0,0.001,0,0.001,0c0.009-0.004,0.018-0.007,0.027-0.01
		C0.419,0.01,0.427,0.008,0.435,0.007C0.446,0.005,0.458,0.003,0.47,0.002C0.479,0.001,0.489,0,0.499,0C0.5,0,0.5,0,0.5,0
		c0.165,0,0.3,0.134,0.3,0.3c0,0.009-0.001,0.018-0.002,0.026c-0.004,0.052-0.022,0.1-0.05,0.141
		C0.746,0.47,0.744,0.473,0.741,0.477c-0.004,0.007-0.009,0.014-0.015,0.02c0.001,0.001,0,0.001-0.001,0.001
		C0.719,0.505,0.712,0.513,0.704,0.519C0.703,0.521,0.701,0.523,0.699,0.524C0.692,0.531,0.683,0.537,0.675,0.543
		C0.674,0.544,0.674,0.544,0.674,0.544L0.69,0.609c0.034,0.134,0.098,0.259,0.188,0.364C0.954,1.06,1,1.175,1,1.3z"/>
	<path fill="#94296F" d="M0.702,0.231C0.72,0.289,0.714,0.349,0.69,0.396c0,0,0,0-0.001,0C0.648,0.479,0.553,0.53,0.45,0.507
		C0.374,0.489,0.313,0.429,0.294,0.354C0.26,0.219,0.356,0.097,0.484,0.088h0.001C0.581,0.08,0.673,0.139,0.702,0.231z"/>
	<path fill="#94296F" d="M0.818,1.563C0.733,1.665,0.6,1.726,0.453,1.71c-0.18-0.02-0.331-0.162-0.36-0.341
		C0.073,1.24,0.111,1.121,0.185,1.034C0.193,1.025,0.2,1.016,0.206,1.007c0.079-0.101,0.134-0.22,0.172-0.342l0.026-0.081
		C0.434,0.594,0.467,0.6,0.5,0.6c0.011,0,0.022-0.001,0.033-0.002L0.52,0.649C0.494,0.754,0.435,0.846,0.36,0.924
		C0.321,0.965,0.29,1.016,0.272,1.071c-0.017,0.048-0.024,0.1-0.021,0.155c0.011,0.172,0.136,0.321,0.303,0.362
		C0.649,1.611,0.74,1.599,0.818,1.563z"/>
	<path fill="#D93BA3" d="M0.702,0.231C0.72,0.289,0.714,0.349,0.69,0.396c0,0,0,0-0.001,0C0.677,0.398,0.663,0.4,0.65,0.4
		c-0.11,0-0.2-0.089-0.2-0.2c0-0.041,0.013-0.08,0.034-0.112h0.001C0.581,0.08,0.673,0.139,0.702,0.231z"/>
	<circle fill="#EA83C4" cx="0.591" cy="0.219" r="0.081"/>
	<path fill="#0098C1" d="M0.533,0.598L0.52,0.649C0.494,0.754,0.435,0.846,0.36,0.924C0.321,0.965,0.29,1.016,0.272,1.071
		c-0.024-0.018-0.046-0.04-0.065-0.064c0.078-0.101,0.133-0.22,0.171-0.342l0.026-0.081C0.434,0.594,0.467,0.6,0.5,0.6
		C0.511,0.6,0.522,0.599,0.533,0.598z"/>
	<path fill="#11BADE" d="M0.794,1.006C0.764,1.044,0.728,1.076,0.686,1.1C0.631,1.132,0.568,1.15,0.5,1.15
		c-0.086,0-0.165-0.029-0.228-0.078C0.29,1.016,0.321,0.965,0.361,0.924c0.075-0.078,0.133-0.17,0.16-0.275l0.013-0.051
		c0.022-0.002,0.043-0.007,0.063-0.014L0.62,0.656C0.634,0.705,0.652,0.753,0.674,0.8C0.706,0.873,0.745,0.943,0.794,1.006z"/>
	<path fill="#DD3DA5" d="M0.912,1.3c0,0.1-0.035,0.191-0.094,0.262v0.001C0.74,1.599,0.649,1.611,0.554,1.588
		c-0.168-0.04-0.292-0.19-0.303-0.362C0.247,1.172,0.255,1.12,0.272,1.071C0.335,1.121,0.414,1.15,0.5,1.15
		c0.068,0,0.131-0.018,0.186-0.05c0.041-0.024,0.078-0.056,0.107-0.093C0.8,1.017,0.807,1.026,0.815,1.036
		C0.833,1.055,0.848,1.077,0.86,1.1C0.893,1.159,0.912,1.227,0.912,1.3z"/>
</g>
</svg>
