<?xml version="1.0" encoding="utf-8"?>
<!-- Generator: Adobe Illustrator 24.1.2, SVG Export Plug-In . SVG Version: 6.00 Build 0)  -->
<svg version="1.1" id="Capa_1" xmlns="http://www.w3.org/2000/svg" xmlns:xlink="http://www.w3.org/1999/xlink" x="0px" y="0px"
	 width="1px" height="1.7px" viewBox="0 0 1 1.7" enable-background="new 0 0 1 1.7" xml:space="preserve">
<g>
	<path id="rect10315" fill="#0A0F32" fill-opacity="0.2" d="M0.1,1.25h0.8C0.956,1.25,1,1.301,1,1.363v0.225
		C1,1.649,0.955,1.7,0.9,1.7H0.1C0.045,1.7,0,1.649,0,1.588V1.363C0,1.301,0.045,1.25,0.1,1.25z"/>
</g>
<g>
	<path fill="#8A1A56" d="M1,0.15v1.1C1,1.333,0.933,1.4,0.85,1.4h-0.7C0.067,1.4,0,1.333,0,1.25v-1.1C0,0.067,0.067,0,0.15,0h0.7
		C0.933,0,1,0.067,1,0.15z"/>
	<path fill="#B74E86" d="M0.9,0.75V1.2c0,0.055-0.045,0.1-0.1,0.1H0.2c-0.055,0-0.1-0.045-0.1-0.1V0.75c0,0.055,0.045,0.1,0.1,0.1
		h0.6C0.855,0.85,0.9,0.805,0.9,0.75z"/>
	<path fill="#FC92CB" d="M0.9,0.2v0.55c0,0.055-0.045,0.1-0.1,0.1H0.2c-0.055,0-0.1-0.045-0.1-0.1V0.2c0-0.055,0.045-0.1,0.1-0.1
		h0.6C0.855,0.1,0.9,0.145,0.9,0.2z"/>
	<rect x="0.2" y="0.9" fill="#962965" width="0.6" height="0.35"/>
	<rect x="0.2" y="1.2" fill="#B86790" width="0.6" height="0.05"/>
	<rect x="0.2" y="0.2" fill="#F74FA7" width="0.6" height="0.55"/>
	<rect x="0.2" y="0.2" fill="#C43B84" width="0.6" height="0.05"/>
	<path fill="#FD93CB" d="M0.743,0.467C0.738,0.486,0.727,0.504,0.712,0.519L0.683,0.546L0.501,0.725L0.315,0.543L0.288,0.516
		C0.273,0.502,0.262,0.485,0.257,0.465C0.242,0.422,0.252,0.373,0.288,0.338c0.025-0.025,0.058-0.037,0.091-0.037
		c0.033,0,0.066,0.012,0.091,0.037l0.028,0.027l0.029-0.028c0.05-0.049,0.132-0.049,0.182,0L0.712,0.34
		C0.748,0.374,0.758,0.424,0.743,0.467z"/>
	<polygon fill="#FEAAD8" points="0.72,0.51 0.712,0.519 0.683,0.546 0.501,0.725 0.315,0.543 0.288,0.516 0.281,0.509 0.501,0.625 	
		"/>
	<path fill="#A95180" d="M0.743,1.009C0.738,1.02,0.727,1.03,0.712,1.039L0.683,1.055L0.501,1.16L0.315,1.053L0.288,1.037
		c-0.015-0.009-0.026-0.019-0.032-0.03C0.242,0.982,0.252,0.953,0.288,0.932c0.025-0.015,0.058-0.022,0.091-0.022
		c0.033,0,0.066,0.007,0.091,0.022l0.028,0.016l0.029-0.016c0.05-0.029,0.132-0.029,0.182,0l0.004,0.002
		C0.748,0.954,0.758,0.983,0.743,1.009z"/>
</g>
</svg>
