<?xml version="1.0" ?>
<svg xmlns="http://www.w3.org/2000/svg" xmlns:xlink="http://www.w3.org/1999/xlink" width="1.0" height="1.0" viewBox="0 0 1.0 1.0" version="1.1" id="svg5" xml:space="preserve">
   <defs id="defs2">
      <linearGradient id="linearGradient89369">
         <stop style="stop-color:#a86818;stop-opacity:1" offset="0" id="stop89359"/>
         <stop style="stop-color:#a86820;stop-opacity:1;" offset="0.11111111" id="stop89361"/>
         <stop style="stop-color:#f49c2c;stop-opacity:1;" offset="0.3888889" id="stop89363"/>
         <stop style="stop-color:#f49c2c;stop-opacity:1;" offset="0.72222221" id="stop89365"/>
         <stop style="stop-color:#a86820;stop-opacity:1" offset="1" id="stop89367"/>
      </linearGradient>
      <radialGradient xlink:href="#linearGradient89369" id="radialGradient107796" gradientUnits="userSpaceOnUse" gradientTransform="matrix(-2,0,0,2,905,-55)" cx="295" cy="80" fx="295" fy="80" r="9"/>
   </defs>
   <g id="layer1" transform="scale(0.05) translate(-295,-85)">
      <g id="g107808">
         <path id="path107784" style="fill:#643c0c;fill-opacity:1;stroke:none;stroke-width:2;stroke-linejoin:round;stroke-dasharray:none;paint-order:markers stroke fill" d="m 315,85 v 20 h -20 a 20,20 0 0 1 20,-20 z"/>
         <path id="path107786" style="fill:url(#radialGradient107796);fill-opacity:1;stroke:none;stroke-width:2;stroke-linejoin:round;stroke-dasharray:none;paint-order:markers stroke fill" d="M 314,87.029297 V 103.26758 A 2,2 0 0 0 313.26758,104 H 297.0293 C 297.5305,94.855843 304.85584,87.530505 314,87.029297 Z"/>
         <path id="path107788" style="fill:#f4a440;fill-opacity:1;stroke:none;stroke-width:2;stroke-linejoin:round;stroke-dasharray:none;paint-order:markers stroke fill" d="m 313,88 v 1 h -1 v -1 z m 0,4 v 1 h -1 v -1 z m 0,5 v 1 h -1 v -1 z m 0,4 v 1 h -1 v -1 z m -4,0 v 1 h -1 v -1 z m -6,0 v 1 h -1 v -1 z m -4,0 v 1 h -1 v -1 z"/>
         <path id="path107790" style="fill:#a06418;fill-opacity:1;stroke:none;stroke-width:2;stroke-linejoin:round;stroke-dasharray:none;paint-order:markers stroke fill" d="m 313,89 v 1 h -1 v -1 z m 0,4 v 1 h -1 v -1 z m 0,5 v 1 h -1 v -1 z m 0,4 v 1 h -1 v -1 z m -4,0 v 1 h -1 v -1 z m -6,0 v 1 h -1 v -1 z m -4,0 v 1 h -1 v -1 z"/>
         <path id="path107792" style="fill:#744810;fill-opacity:1;stroke:none;stroke-width:2;stroke-linejoin:round;stroke-dasharray:none;paint-order:markers stroke fill" d="m 315,87 v 16 a 2,2 0 0 0 -1,0.26758 V 87.029297 C 314.33135,87.011135 314.66411,87 315,87 Z m -1.73242,17 A 2,2 0 0 0 313,105 h -16 c 0,-0.33589 0.0111,-0.66865 0.0293,-1 z"/>
      </g>
   </g>
</svg>
