<?xml version="1.0" encoding="UTF-8" standalone="no"?>
<svg
   width="1"
   height="1.15"
   viewBox="0 0 1 1.15"
   version="1.1"
   id="svg5"
   xml:space="preserve"
   sodipodi:docname="pipe_yellow_hor.svg"
   inkscape:version="1.2 (dc2aedaf03, 2022-05-15)"
   xmlns:inkscape="http://www.inkscape.org/namespaces/inkscape"
   xmlns:sodipodi="http://sodipodi.sourceforge.net/DTD/sodipodi-0.dtd"
   xmlns:xlink="http://www.w3.org/1999/xlink"
   xmlns="http://www.w3.org/2000/svg"
   xmlns:svg="http://www.w3.org/2000/svg"><sodipodi:namedview
   id="namedview183433"
   pagecolor="#505050"
   bordercolor="#eeeeee"
   borderopacity="1"
   inkscape:showpageshadow="0"
   inkscape:pageopacity="0"
   inkscape:pagecheckerboard="0"
   inkscape:deskcolor="#505050"
   showgrid="false"
   inkscape:zoom="256"
   inkscape:cx="0.44726562"
   inkscape:cy="0.5"
   inkscape:window-width="3440"
   inkscape:window-height="1417"
   inkscape:window-x="-8"
   inkscape:window-y="-8"
   inkscape:window-maximized="1"
   inkscape:current-layer="svg5" />
   <defs
   id="defs2">
      <linearGradient
   id="linearGradient89369">
         <stop
   style="stop-color:#a86818;stop-opacity:1"
   offset="0"
   id="stop89359" />
         <stop
   style="stop-color:#a86820;stop-opacity:1;"
   offset="0.11111111"
   id="stop89361" />
         <stop
   style="stop-color:#f49c2c;stop-opacity:1;"
   offset="0.3888889"
   id="stop89363" />
         <stop
   style="stop-color:#f49c2c;stop-opacity:1;"
   offset="0.72222221"
   id="stop89365" />
         <stop
   style="stop-color:#a86820;stop-opacity:1"
   offset="1"
   id="stop89367" />
      </linearGradient>
      <linearGradient
   xlink:href="#linearGradient89369"
   id="linearGradient83747"
   x1="255"
   y1="60"
   x2="255"
   y2="78"
   gradientUnits="userSpaceOnUse" />
   </defs>
   <g
   id="layer1"
   transform="matrix(0.05,0,0,0.05,-12.25,-3)">
      <g
   id="g107782">
         <rect
   style="opacity:1;fill:#0a0f32;fill-opacity:0.2;stroke:none;stroke-width:4;stroke-linejoin:miter;stroke-dasharray:none;paint-order:markers stroke fill"
   id="rect104908"
   width="20"
   height="7"
   x="245"
   y="76" />
         <rect
   style="fill:#643c0c;fill-opacity:1;stroke:none;stroke-width:2;stroke-linejoin:round;stroke-dasharray:none;paint-order:markers stroke fill"
   id="rect83650"
   width="20"
   height="20"
   x="245"
   y="60" />
         <rect
   style="fill:#744810;fill-opacity:1;stroke:none;stroke-width:2;stroke-linejoin:round;stroke-dasharray:none;paint-order:markers stroke fill"
   id="rect83652"
   width="20"
   height="16"
   x="245"
   y="62" />
         <rect
   style="fill:url(#linearGradient83747);fill-opacity:1;stroke:none;stroke-width:2;stroke-linejoin:round;stroke-dasharray:none;paint-order:markers stroke fill"
   id="rect83654"
   width="18"
   height="16"
   x="246"
   y="62" />
         <path
   id="rect83656"
   style="fill:#f4a440;fill-opacity:1;stroke:none;stroke-width:2;stroke-linejoin:round;stroke-dasharray:none;paint-order:markers stroke fill"
   d="m 247,63 v 1 h 1 v -1 z m 15,0 v 1 h 1 v -1 z m -15,4 v 1 h 1 v -1 z m 15,0 v 1 h 1 v -1 z m -15,5 v 1 h 1 v -1 z m 15,0 v 1 h 1 v -1 z m -15,4 v 1 h 1 v -1 z m 15,0 v 1 h 1 v -1 z" />
         <path
   id="path85194"
   style="fill:#a06418;fill-opacity:1;stroke:none;stroke-width:2;stroke-linejoin:round;stroke-dasharray:none;paint-order:markers stroke fill"
   d="m 247,64 v 1 h 1 v -1 z m 15,0 v 1 h 1 v -1 z m -15,4 v 1 h 1 v -1 z m 15,0 v 1 h 1 v -1 z m -15,5 v 1 h 1 v -1 z m 15,0 v 1 h 1 v -1 z m -15,4 v 1 h 1 v -1 z m 15,0 v 1 h 1 v -1 z" />
      </g>
   </g>
</svg>
