<?xml version="1.0" ?>
<svg xmlns="http://www.w3.org/2000/svg" xmlns:xlink="http://www.w3.org/1999/xlink" width="1.1500000000000001" height="1.25" viewBox="0 0 1.1500000000000001 1.25" version="1.1" id="svg5" xml:space="preserve">
   <defs id="defs2">
      <linearGradient id="linearGradient89369">
         <stop style="stop-color:#a86818;stop-opacity:1" offset="0" id="stop89359"/>
         <stop style="stop-color:#a86820;stop-opacity:1;" offset="0.11111111" id="stop89361"/>
         <stop style="stop-color:#f49c2c;stop-opacity:1;" offset="0.3888889" id="stop89363"/>
         <stop style="stop-color:#f49c2c;stop-opacity:1;" offset="0.72222221" id="stop89365"/>
         <stop style="stop-color:#a86820;stop-opacity:1" offset="1" id="stop89367"/>
      </linearGradient>
      <linearGradient xlink:href="#linearGradient89369" id="linearGradient83747-8" x1="255" y1="60" x2="255" y2="78" gradientUnits="userSpaceOnUse" gradientTransform="translate(103,2)"/>
   </defs>
   <g id="layer1" transform="scale(0.05) translate(-345,-60)">
      <g id="g107856">
         <path id="rect105238" style="opacity:1;fill:#0a0f32;fill-opacity:0.2;stroke-width:4;paint-order:markers stroke fill" d="m 350,78 h 18 v 7 h -15 c -1.662,0 -3,-1.338 -3,-3 z"/>
         <path id="path98345" style="color:#000000;fill:#9c2c04;fill-opacity:1;stroke-linejoin:round;paint-order:markers stroke fill" d="m 357,60 c -6.60371,0 -12,5.396286 -12,12 0,6.603714 5.39629,12 12,12 3.57668,0 6.79725,-1.58549 9,-4.085938 V 64.085938 C 363.79725,61.58549 360.57668,60 357,60 Z"/>
         <path id="path98347" style="color:#000000;fill:#ff5414;stroke-width:4;stroke-linejoin:round;paint-order:markers stroke fill" d="m 357,62 a 10,10 0 0 0 -10,10 10,10 0 0 0 10,10 10,10 0 0 0 7,-2.894531 V 64.863281 A 10,10 0 0 0 357,62 Z"/>
         <path id="path98621" style="color:#000000;fill:#643c0c;fill-opacity:1;paint-order:markers stroke fill" d="m 359,62 c -5.49914,0 -10,4.500852 -10,10 0,5.499148 4.50086,10 10,10 h 9 V 62 Z"/>
         <rect style="fill:#744810;fill-opacity:1;stroke:none;stroke-width:2;stroke-linejoin:round;stroke-dasharray:none;paint-order:markers stroke fill" id="rect83652-9" width="1" height="16" x="367" y="64"/>
         <path id="rect83654-1" style="fill:url(#linearGradient83747-8);fill-opacity:1;stroke:none;stroke-width:2;stroke-linejoin:round;stroke-dasharray:none;paint-order:markers stroke fill" d="m 359,64 a 8,8 0 0 0 -8,8 8,8 0 0 0 8,8 h 8 V 64 Z"/>
         <path id="rect83656-0" style="fill:#f4a440;fill-opacity:1;stroke:none;stroke-width:2;stroke-linejoin:round;stroke-dasharray:none;paint-order:markers stroke fill" d="m 365,65 v 1 h 1 v -1 z m 0,4 v 1 h 1 v -1 z m 0,5 v 1 h 1 v -1 z m 0,4 v 1 h 1 v -1 z"/>
         <path id="path85194-3" style="fill:#a06418;fill-opacity:1;stroke:none;stroke-width:2;stroke-linejoin:round;stroke-dasharray:none;paint-order:markers stroke fill" d="m 365,66 v 1 h 1 v -1 z m 0,4 v 1 h 1 v -1 z m 0,5 v 1 h 1 v -1 z m 0,4 v 1 h 1 v -1 z"/>
      </g>
   </g>
</svg>
