<?xml version="1.0" encoding="utf-8"?>
<!-- Generator: Adobe Illustrator 24.1.2, SVG Export Plug-In . SVG Version: 6.00 Build 0)  -->
<svg version="1.1" id="Capa_1" xmlns="http://www.w3.org/2000/svg" xmlns:xlink="http://www.w3.org/1999/xlink" x="0px" y="0px"
	 width="1px" height="1.8px" viewBox="0 0 1 1.8" enable-background="new 0 0 1 1.8" xml:space="preserve">
<path id="rect10315" fill="#0A0F32" fill-opacity="0.2" d="M0.1,1.4h0.8C0.955,1.4,1,1.445,1,1.5v0.2c0,0.055-0.045,0.1-0.1,0.1H0.1
	C0.045,1.8,0,1.755,0,1.7V1.5C0,1.445,0.045,1.4,0.1,1.4z"/>
<g>
	<path fill="#722800" d="M1,0.75v0.3c0,0.041-0.011,0.082-0.03,0.119L0.917,1.354C0.893,1.44,0.814,1.5,0.724,1.5H0.276
		c-0.09,0-0.168-0.06-0.192-0.145L0.03,1.169C0.011,1.132,0,1.091,0,1.05v-0.3C0,0.612,0.112,0.5,0.25,0.5h0.5
		C0.888,0.5,1,0.612,1,0.75z"/>
	<path fill="#C05B11" d="M0.1,1.05l0.079,0.277C0.192,1.37,0.231,1.4,0.275,1.4h0.449c0.045,0,0.084-0.03,0.096-0.073L0.9,1.05H0.1z
		"/>
	<path fill="#EB8536" d="M0.9,0.75v0.3c0,0.083-0.067,0.15-0.15,0.15h-0.5C0.167,1.2,0.1,1.133,0.1,1.05v-0.3
		c0-0.083,0.067-0.15,0.15-0.15h0.5C0.833,0.6,0.9,0.667,0.9,0.75z"/>
	<path fill="#7F4012" d="M0.4,0.75h0.2c0.083,0,0.15,0.067,0.15,0.15v0c0,0.083-0.067,0.15-0.15,0.15H0.4
		c-0.083,0-0.15-0.067-0.15-0.15v0C0.25,0.817,0.317,0.75,0.4,0.75z"/>
	<g>
		<circle opacity="0.15" cx="0.475" cy="0.775" r="0.375"/>
		<path fill="#003838" d="M0.735,0.523v0.288c0,0.095-0.078,0.173-0.173,0.173S0.388,0.907,0.388,0.812V0.523
			c0-0.095,0.078-0.173,0.173-0.173S0.735,0.428,0.735,0.523z"/>
		<path fill="#2E7E50" d="M0.677,0.523v0.288c0,0.063-0.052,0.115-0.115,0.115S0.446,0.875,0.446,0.812V0.523
			c0-0.063,0.052-0.115,0.115-0.115S0.677,0.46,0.677,0.523z"/>
	</g>
	<g>
		<path opacity="0.15" d="M0.224,1.32C0.221,1.32,0.219,1.32,0.216,1.32c-0.018,0-0.035-0.01-0.043-0.026
			C0.134,1.227,0.064,1.056,0.231,0.911c0.057-0.035,0.13-0.043,0.187-0.043c0.052,0,0.09,0.007,0.09,0.007S0.644,1.243,0.224,1.32z
			"/>
		<path fill="#114433" d="M0.224,1.27C0.221,1.27,0.219,1.27,0.216,1.27c-0.018,0-0.035-0.01-0.043-0.026
			C0.134,1.177,0.064,1.006,0.231,0.861c0.057-0.035,0.13-0.043,0.187-0.043c0.052,0,0.09,0.007,0.09,0.007S0.644,1.193,0.224,1.27z
			"/>
		<path fill="#4AA35E" d="M0.448,1.085C0.408,1.154,0.33,1.2,0.216,1.22C0.214,1.217,0.213,1.213,0.211,1.21
			C0.24,1.179,0.332,1.071,0.38,0.87c0.013-0.001,0.026-0.002,0.038-0.002c0.02,0,0.037,0.002,0.051,0.002
			C0.48,0.916,0.492,1.007,0.448,1.085z"/>
		<path fill="#218B37" d="M0.38,0.87C0.332,1.071,0.24,1.179,0.211,1.21c-0.038-0.072-0.074-0.198,0.05-0.309
			C0.296,0.881,0.34,0.873,0.38,0.87z"/>
	</g>
	<g>
		<path fill="#114433" d="M0.698,0.861c-0.058,0-0.102-0.011-0.102-0.011L0.545,0.7c0.05-0.15,0.15-0.188,0.238-0.188
			c0.054,0,0.104,0.014,0.134,0.026C0.935,0.545,0.948,0.561,0.948,0.58C0.966,0.82,0.808,0.861,0.698,0.861z"/>
		<path opacity="0.15" d="M0.698,0.911C0.64,0.911,0.595,0.9,0.595,0.9l-0.05-0.15c0.05-0.15,0.15-0.188,0.238-0.188
			c0.054,0,0.104,0.014,0.134,0.026C0.935,0.595,0.948,0.611,0.948,0.63C0.966,0.87,0.808,0.911,0.698,0.911z"/>
		<path fill="#388E54" d="M0.855,0.757C0.814,0.801,0.746,0.811,0.698,0.811c-0.025,0-0.048-0.002-0.064-0.004L0.598,0.701
			c0.036-0.093,0.096-0.138,0.185-0.138c0.046,0,0.089,0.012,0.116,0.021C0.905,0.662,0.89,0.72,0.855,0.757z"/>
	</g>
	<g>
		<circle fill="#752358" cx="0.45" cy="0.45" r="0.45"/>
		<g>
			<path fill="#752358" d="M0.159,0.424c-0.059,0-0.108-0.049-0.108-0.109V0.192c0-0.059,0.048-0.106,0.106-0.106h0.007L0.24,0.091
				l0.073,0.004c0.034,0.002,0.066,0.021,0.084,0.049C0.416,0.173,0.42,0.207,0.409,0.24c-0.04,0.109-0.127,0.176-0.241,0.185H0.159
				z"/>
			<path fill="#752358" d="M0.502,0.671c0.016,0.031,0.019,0.066,0.006,0.099C0.495,0.802,0.469,0.826,0.436,0.837l-0.122,0.04
				C0.296,0.883,0.278,0.884,0.26,0.881C0.208,0.874,0.168,0.833,0.162,0.78L0.147,0.663C0.143,0.629,0.154,0.595,0.178,0.57
				c0.024-0.025,0.057-0.038,0.091-0.037C0.278,0.534,0.289,0.535,0.3,0.536C0.391,0.55,0.461,0.596,0.502,0.671z"/>
			<path fill="#752358" d="M0.94,0.421L0.872,0.545c-0.017,0.031-0.049,0.05-0.084,0.05c-0.026,0-0.05-0.01-0.069-0.029
				C0.636,0.482,0.634,0.366,0.641,0.304c0.005-0.049,0.046-0.085,0.095-0.085c0.013,0,0.025,0.002,0.037,0.008l0.114,0.047
				c0.027,0.011,0.049,0.034,0.059,0.062C0.956,0.364,0.953,0.395,0.94,0.421z"/>
		</g>
		<circle fill="#D663AE" cx="0.45" cy="0.45" r="0.35"/>
		<g>
			<path fill="#EEADD7" d="M0.162,0.353c0.052-0.004,0.139-0.028,0.18-0.138C0.35,0.192,0.333,0.167,0.308,0.166
				C0.265,0.163,0.201,0.159,0.16,0.157C0.14,0.156,0.123,0.172,0.123,0.193v0.123C0.123,0.337,0.141,0.355,0.162,0.353z"/>
			<path fill="#EEADD7" d="M0.711,0.312C0.706,0.36,0.706,0.453,0.77,0.517c0.012,0.012,0.032,0.009,0.04-0.005
				c0.018-0.033,0.048-0.089,0.067-0.124c0.01-0.018,0.002-0.04-0.017-0.048L0.746,0.292C0.73,0.286,0.713,0.295,0.711,0.312z"/>
			<path fill="#EEADD7" d="M0.264,0.604C0.317,0.607,0.396,0.626,0.44,0.705C0.453,0.73,0.441,0.761,0.414,0.77L0.291,0.81
				C0.264,0.819,0.235,0.8,0.232,0.772L0.217,0.655C0.214,0.627,0.236,0.602,0.264,0.604z"/>
		</g>
	</g>
</g>
</svg>
