<?xml version="1.0" encoding="utf-8"?>
<!-- Generator: Adobe Illustrator 24.1.2, SVG Export Plug-In . SVG Version: 6.00 Build 0)  -->
<svg version="1.1" id="Capa_1" xmlns="http://www.w3.org/2000/svg" xmlns:xlink="http://www.w3.org/1999/xlink" x="0px" y="0px"
	 width="1.1px" height="1.8px" viewBox="0 0 1.1 1.8" enable-background="new 0 0 1.1 1.8" xml:space="preserve">
<circle id="circle16099" fill="#0A0F32" fill-opacity="0.2" cx="0.55" cy="1.3" r="0.5"/>
<g>
	<g>
		<ellipse fill="#1F345E" cx="0.55" cy="1.175" rx="0.4" ry="0.325"/>
		<path fill="#575989" d="M0.875,1.175c0,0.138-0.146,0.25-0.325,0.25s-0.325-0.112-0.325-0.25c0-0.014,0.002-0.028,0.005-0.042
			c0.026-0.118,0.159-0.208,0.32-0.208s0.295,0.09,0.32,0.208C0.873,1.147,0.875,1.161,0.875,1.175z"/>
		<path fill="#8387B3" d="M0.864,1.127c0.001,0.018-0.003,0.037-0.01,0.053C0.807,1.275,0.689,1.341,0.55,1.341
			S0.293,1.275,0.246,1.18c-0.014-0.029-0.014-0.065,0-0.095C0.26,1.058,0.28,1.033,0.305,1.011c0.06-0.053,0.147-0.086,0.245-0.086
			c0.139,0,0.257,0.067,0.304,0.161C0.86,1.098,0.864,1.113,0.864,1.127z"/>
		<path fill="#535885" d="M0.864,1.127C0.805,1.172,0.72,1.2,0.625,1.2c-0.161,0-0.295-0.082-0.32-0.189
			c0.06-0.053,0.147-0.086,0.245-0.086c0.139,0,0.257,0.067,0.304,0.161C0.86,1.098,0.864,1.113,0.864,1.127z"/>
	</g>
	<circle fill="#792453" cx="0.55" cy="0.55" r="0.55"/>
	<path fill="#D551DA" d="M1.013,0.55c0,0.255-0.207,0.463-0.463,0.463S0.087,0.805,0.087,0.55c0-0.016,0.001-0.032,0.002-0.048
		c0.024-0.233,0.221-0.414,0.46-0.414c0.189,0,0.351,0.113,0.423,0.275C0.998,0.42,1.013,0.483,1.013,0.55z"/>
	<path fill="#E281E7" d="M0.973,0.363C0.873,0.535,0.688,0.65,0.475,0.65c-0.148,0-0.283-0.056-0.385-0.148
		c0.024-0.233,0.221-0.414,0.46-0.414C0.739,0.087,0.901,0.201,0.973,0.363z"/>
	<polygon fill="#F8E3F9" points="0.579,0.598 0.712,0.824 0.473,0.682 0.317,0.59 0.309,0.585 0.488,0.443 0.508,0.427 0.361,0.176 
		0.627,0.333 0.791,0.43 0.621,0.565 0.599,0.582 	"/>
	<path fill="#FFFEFF" d="M0.791,0.43l-0.17,0.135C0.56,0.588,0.493,0.6,0.425,0.6c-0.037,0-0.073-0.004-0.108-0.01L0.309,0.585
		l0.179-0.142l0.02-0.015L0.361,0.176l0.266,0.158L0.791,0.43z"/>
</g>
</svg>
