<?xml version="1.0" encoding="utf-8"?>
<!-- Generator: Adobe Illustrator 24.1.2, SVG Export Plug-In . SVG Version: 6.00 Build 0)  -->
<svg version="1.1" id="Capa_1" xmlns="http://www.w3.org/2000/svg" xmlns:xlink="http://www.w3.org/1999/xlink" x="0px" y="0px"
	 width="1px" height="1.65px" viewBox="0 0 1 1.65" enable-background="new 0 0 1 1.65" xml:space="preserve">
<circle id="circle16099" fill="#0A0F32" fill-opacity="0.2" cx="0.5" cy="1.15" r="0.5"/>
<g>
	<path fill="#6B0A00" d="M1,0.675c0,0.251-0.064,0.389-0.08,0.418C0.854,1.248,0.686,1.35,0.5,1.35S0.146,1.248,0.08,1.093
		C0.064,1.064,0,0.926,0,0.675s0.064-0.389,0.08-0.418C0.146,0.102,0.314,0,0.5,0s0.354,0.102,0.42,0.257
		C0.936,0.286,1,0.424,1,0.675z"/>
	<path fill="#BF391A" d="M0.9,0.675c0,0.047-0.002,0.089-0.007,0.127c0.001,0.001,0,0.001,0,0.001
		C0.885,0.885,0.87,0.946,0.855,0.987C0.842,1.029,0.83,1.049,0.83,1.049C0.783,1.166,0.653,1.25,0.5,1.25S0.217,1.166,0.17,1.049
		c0,0-0.012-0.021-0.025-0.063C0.13,0.946,0.115,0.885,0.107,0.804c0,0-0.001-0.001,0-0.001C0.102,0.764,0.1,0.722,0.1,0.675
		c0-0.018,0.001-0.034,0.002-0.049V0.623c0-0.026,0.002-0.049,0.004-0.071C0.123,0.384,0.17,0.301,0.17,0.301
		C0.217,0.184,0.347,0.1,0.5,0.1s0.283,0.084,0.33,0.201c0,0,0.046,0.083,0.064,0.251c0.002,0.023,0.004,0.046,0.004,0.071v0.002
		C0.899,0.641,0.9,0.657,0.9,0.675z"/>
	<ellipse fill="#E85C2E" cx="0.5" cy="0.4" rx="0.35" ry="0.3"/>
	<path fill="#50556F" d="M0.893,0.804C0.885,0.885,0.87,0.946,0.855,0.987C0.789,1.083,0.655,1.15,0.5,1.15S0.211,1.083,0.145,0.987
		C0.13,0.946,0.115,0.885,0.107,0.804C0.14,0.943,0.304,1.05,0.5,1.05S0.86,0.943,0.893,0.804z"/>
	<path fill="#50556F" d="M0.898,0.623v0.002C0.881,0.779,0.71,0.9,0.5,0.9S0.119,0.779,0.102,0.626V0.623
		c0-0.026,0.002-0.049,0.004-0.071C0.139,0.692,0.302,0.8,0.5,0.8s0.361-0.108,0.394-0.248C0.896,0.574,0.898,0.598,0.898,0.623z"/>
	<path fill="#9A2912" d="M0.75,0.4c0,0.008-0.001,0.017-0.002,0.025C0.733,0.326,0.627,0.25,0.5,0.25S0.267,0.326,0.252,0.425
		C0.251,0.417,0.25,0.408,0.25,0.4c0-0.111,0.112-0.2,0.25-0.2S0.75,0.289,0.75,0.4z"/>
	<ellipse fill="#346184" cx="0.5" cy="0.425" rx="0.248" ry="0.175"/>
	<ellipse fill="#F2B841" cx="0.5" cy="0.425" rx="0.15" ry="0.125"/>
</g>
</svg>
