<?xml version="1.0" encoding="utf-8"?>
<!-- Generator: Adobe Illustrator 24.1.2, SVG Export Plug-In . SVG Version: 6.00 Build 0)  -->
<svg version="1.1"
	 id="svg3893" xmlns:cc="http://creativecommons.org/ns#" xmlns:dc="http://purl.org/dc/elements/1.1/" xmlns:inkscape="http://www.inkscape.org/namespaces/inkscape" xmlns:rdf="http://www.w3.org/1999/02/22-rdf-syntax-ns#" xmlns:sodipodi="http://sodipodi.sourceforge.net/DTD/sodipodi-0.dtd" xmlns:svg="http://www.w3.org/2000/svg"
	 xmlns="http://www.w3.org/2000/svg" xmlns:xlink="http://www.w3.org/1999/xlink" x="0px" y="0px" width="1.5px" height="2.75px"
	 viewBox="0 0 1.5 2.75" enable-background="new 0 0 1.5 2.75" xml:space="preserve">
<ellipse id="ellipse5169" fill-opacity="0.18" cx="0.5" cy="2.075" rx="0.5" ry="0.5"/>
<g>
	<g id="g5195">
		<path id="path5191" fill="#673010" d="M0.651,1.121C0.607,1.12,0.564,1.14,0.536,1.173C0.483,1.234,0.491,1.33,0.552,1.382
			C0.689,1.5,0.839,1.529,1,1.529S1.312,1.5,1.448,1.382c0.061-0.053,0.069-0.148,0.016-0.209S1.316,1.104,1.255,1.157
			C1.168,1.23,1.137,1.233,1,1.233S0.831,1.232,0.744,1.157C0.719,1.134,0.685,1.121,0.651,1.121z"/>
		<path id="path5193" fill="#FFB966" d="M0.649,1.196c-0.023,0-0.043,0.009-0.057,0.027C0.565,1.252,0.569,1.3,0.6,1.326l0,0
			C0.723,1.43,0.847,1.456,1,1.456s0.277-0.024,0.4-0.129C1.431,1.3,1.435,1.254,1.408,1.222l0,0
			C1.381,1.19,1.335,1.186,1.303,1.213l0,0C1.205,1.296,1.141,1.306,0.999,1.306s-0.207-0.01-0.304-0.093
			C0.683,1.201,0.667,1.196,0.649,1.196z"/>
	</g>
</g>
<g>
	<g>
		<path fill="#673010" d="M0.825,1.899v0.1c0,0.152-0.146,0.276-0.325,0.276S0.175,2.151,0.175,1.999v-0.1
			c0-0.09,0.052-0.175,0.138-0.226l0.012-0.007V1.612L0.323,1.608C0.309,1.574,0.298,1.535,0.289,1.487V1.483L0.286,1.479
			C0.271,1.457,0.26,1.433,0.252,1.405c-0.011-0.029-0.017-0.06-0.019-0.092l-0.001-0.01L0.225,1.296
			C0.07,1.158,0.135,1.015,0.159,0.974c0.017-0.03,0.048-0.049,0.083-0.049c0.036,0,0.067,0.019,0.083,0.049
			C0.328,0.98,0.334,0.99,0.349,1.002l0.014,0.013l0.016-0.01C0.415,0.982,0.456,0.97,0.5,0.97c0.045,0,0.085,0.012,0.122,0.035
			l0.016,0.01l0.014-0.013c0.016-0.014,0.022-0.023,0.023-0.027c0.017-0.031,0.049-0.051,0.084-0.051
			c0.034,0,0.066,0.018,0.082,0.048c0.024,0.04,0.09,0.185-0.065,0.323L0.769,1.303l-0.001,0.01C0.765,1.345,0.759,1.376,0.75,1.405
			C0.74,1.433,0.729,1.458,0.715,1.479L0.712,1.483L0.711,1.487c-0.009,0.048-0.02,0.086-0.034,0.121L0.675,1.612v0.053l0.013,0.007
			C0.774,1.724,0.825,1.808,0.825,1.899z"/>
	</g>
	<path fill="#F7CCA1" d="M0.75,1.9V2c0,0.111-0.112,0.2-0.25,0.2S0.25,2.111,0.25,2V1.9c0-0.11,0.112-0.2,0.25-0.2
		S0.75,1.79,0.75,1.9z"/>
	<path fill="#D9A36C" d="M0.75,1.9V2c0,0.11-0.112,0.2-0.25,0.2S0.25,2.11,0.25,2V1.9c0,0.017,0.003,0.034,0.008,0.05
		C0.286,2.036,0.384,2.1,0.5,2.1s0.214-0.064,0.242-0.15C0.747,1.934,0.75,1.917,0.75,1.9z"/>
	<path fill="#A76034" d="M0.5,1.35L0.5,1.35c-0.055,0-0.1,0.045-0.1,0.1v0.4c0,0.055,0.045,0.1,0.1,0.1l0,0
		c0.055,0,0.1-0.045,0.1-0.1v-0.4C0.6,1.395,0.555,1.35,0.5,1.35z"/>
	<path fill="#FFF2DC" d="M0.678,1.38C0.67,1.405,0.658,1.43,0.641,1.45C0.63,1.52,0.607,1.606,0.557,1.658
		C0.554,1.661,0.551,1.664,0.548,1.666c-0.028,0.021-0.068,0.021-0.096,0C0.449,1.664,0.446,1.661,0.443,1.658
		C0.393,1.606,0.37,1.52,0.359,1.45C0.342,1.43,0.331,1.405,0.322,1.38c-0.03-0.09-0.017-0.191,0.043-0.265
		C0.396,1.077,0.44,1.045,0.5,1.045s0.104,0.032,0.135,0.07C0.695,1.189,0.708,1.29,0.678,1.38z"/>
	
		<ellipse transform="matrix(0.7072 -0.707 0.707 0.7072 -0.8691 0.6913)" fill="#895E50" cx="0.4" cy="1.395" rx="0.039" ry="0.059"/>
	
		<ellipse transform="matrix(0.707 -0.7072 0.7072 0.707 -0.8108 0.833)" fill="#895E50" cx="0.6" cy="1.395" rx="0.059" ry="0.039"/>
	<path fill="#DF8A6E" d="M0.344,1.273c0.021-0.01,0.051-0.04,0.056-0.124c0.001-0.013-0.006-0.025-0.017-0.031
		C0.35,1.099,0.283,1.057,0.259,1.01c-0.007-0.013-0.027-0.013-0.034,0c-0.03,0.052-0.059,0.155,0.087,0.259
		C0.321,1.276,0.334,1.278,0.344,1.273z"/>
	<path fill="#DF8A6E" d="M0.656,1.273C0.635,1.262,0.605,1.233,0.6,1.149C0.599,1.136,0.606,1.124,0.617,1.117
		c0.033-0.018,0.1-0.06,0.124-0.107c0.007-0.013,0.027-0.013,0.034,0c0.03,0.052,0.059,0.155-0.087,0.259
		C0.679,1.276,0.666,1.278,0.656,1.273z"/>
	<path fill="#895E50" d="M0.55,1.645c0,0.007-0.001,0.013-0.001,0.02c0,0.001,0,0.001,0,0.001c-0.001,0-0.001,0.001-0.001,0.001
		H0.547c-0.028,0.021-0.067,0.021-0.095,0l0,0c0,0,0-0.001-0.001-0.001c0,0,0,0,0-0.001c0-0.007-0.001-0.013-0.001-0.02
		c0-0.055,0.022-0.1,0.05-0.1C0.527,1.545,0.55,1.59,0.55,1.645z"/>
	<path fill="#B59381" d="M0.547,1.666c-0.028,0.021-0.067,0.021-0.095,0C0.459,1.625,0.478,1.595,0.5,1.595S0.541,1.625,0.547,1.666
		z"/>
</g>
</svg>
