<?xml version="1.0" encoding="UTF-8" standalone="no"?>
<!-- Created with Inkscape (http://www.inkscape.org/) -->

<svg
   width="1"
   height="1.3"
   viewBox="0 0 1 1.3"
   version="1.1"
   id="svg5"
   sodipodi:docname="red_light.svg"
   inkscape:version="1.2 (dc2aedaf03, 2022-05-15)"
   xml:space="preserve"
   xmlns:inkscape="http://www.inkscape.org/namespaces/inkscape"
   xmlns:sodipodi="http://sodipodi.sourceforge.net/DTD/sodipodi-0.dtd"
   xmlns="http://www.w3.org/2000/svg"
   xmlns:svg="http://www.w3.org/2000/svg"><sodipodi:namedview
     id="namedview7"
     pagecolor="#171717"
     bordercolor="#999999"
     borderopacity="1"
     inkscape:pageshadow="0"
     inkscape:pageopacity="0"
     inkscape:pagecheckerboard="0"
     inkscape:document-units="px"
     showgrid="false"
     units="px"
     inkscape:zoom="256"
     inkscape:cx="0.6328125"
     inkscape:cy="0.734375"
     inkscape:window-width="3440"
     inkscape:window-height="1417"
     inkscape:window-x="-8"
     inkscape:window-y="-8"
     inkscape:window-maximized="1"
     inkscape:current-layer="layer1"
     inkscape:object-paths="true"
     inkscape:snap-intersection-paths="true"
     inkscape:snap-smooth-nodes="true"
     inkscape:snap-midpoints="true"
     inkscape:snap-object-midpoints="true"
     showguides="false"
     inkscape:snap-global="true"
     inkscape:showpageshadow="0"
     inkscape:deskcolor="#171717"><inkscape:grid
       type="xygrid"
       id="grid836"
       originx="0"
       originy="0" /></sodipodi:namedview><defs
     id="defs2" /><g
     inkscape:label="Layer 1"
     inkscape:groupmode="layer"
     id="layer1"><g
       id="g78305"
       transform="scale(0.05)"><circle
         style="fill:#0a0f32;fill-opacity:0.2;stroke:none;stroke-width:4;stroke-linejoin:round;stroke-dasharray:none;paint-order:fill markers stroke"
         id="path17855"
         cx="10"
         cy="17"
         r="9" /><path
         id="circle17800"
         style="fill:#28284c;fill-opacity:1;stroke:none;stroke-width:4;stroke-linejoin:round;stroke-dasharray:none;paint-order:fill markers stroke"
         d="M 10,1 C 4.47715,1 0,5.477153 0,11 v 2 c 0,5.522847 4.47715,10 10,10 5.52285,0 10,-4.477153 10,-10 V 11 C 20,5.477153 15.52285,1 10,1 Z"
         sodipodi:nodetypes="sssssss" /><path
         id="path16835"
         style="fill:#383c64;fill-opacity:1;stroke:none;stroke-width:2;stroke-linejoin:round;stroke-dasharray:none;paint-order:fill markers stroke"
         d="m 2,11 v 2 c 0,4.418278 3.58172,8 8,8 4.41828,0 8,-3.581722 8,-8 v -2 z"
         sodipodi:nodetypes="cssscc" /><circle
         style="fill:#5c6094;fill-opacity:1;stroke:none;stroke-width:2;stroke-linejoin:round;stroke-dasharray:none;paint-order:fill markers stroke"
         id="circle16837"
         cx="10"
         cy="11"
         r="8" /><path
         id="path17061"
         style="color:#000000;fill:#740404;fill-opacity:1;stroke-linejoin:round;paint-order:fill markers stroke"
         d="M 10,0 C 6.1566,0 3,3.156604 3,7 v 4.5 C 3,14.512399 5.4876,17 8.5,17 h 3 C 14.5124,17 17,14.512399 17,11.5 V 7 C 17,3.156604 13.8434,0 10,0 Z" /><path
         style="color:#000000;fill:#b01c18;fill-opacity:1;stroke-width:4;stroke-linejoin:round;paint-order:fill markers stroke"
         d="M 10,2 C 7.23,2 5,4.230003 5,7 v 4.5 C 5,13.438998 6.561,15 8.5,15 h 3 C 13.439,15 15,13.438998 15,11.5 V 7 C 15,4.230003 12.77,2 10,2 Z"
         id="path17059" /><path
         id="rect16843"
         style="fill:#e01414;fill-opacity:1;stroke:none;stroke-width:2;stroke-linejoin:round;stroke-dasharray:none;paint-order:fill markers stroke"
         d="M 10,2 C 9.28765,2 8.61218,2.149801 8,2.416016 V 10 c 0,2.215998 1.784,4 4,4 h 1.95117 C 14.59822,13.365579 15,12.481963 15,11.5 V 7 C 15,4.230006 12.77,2 10,2 Z" /><circle
         style="fill:#f49898;fill-opacity:1;stroke:none;stroke-width:2;stroke-linejoin:round;stroke-dasharray:none;paint-order:fill markers stroke"
         id="circle16845"
         cx="12.5"
         cy="5.5"
         r="1.5" /></g></g></svg>
