<?xml version="1.0" encoding="utf-8"?>
<!-- Generator: Adobe Illustrator 24.1.2, SVG Export Plug-In . SVG Version: 6.00 Build 0)  -->
<svg version="1.1" id="Capa_1" xmlns="http://www.w3.org/2000/svg" xmlns:xlink="http://www.w3.org/1999/xlink" x="0px" y="0px"
	 viewBox="0 0 1 1.15" enable-background="new 0 0 1 1.15" xml:space="preserve">
<g>
	<path id="rect10315" fill="#0A0F32" fill-opacity="0.2" d="M0.1,0.7h0.8C0.956,0.7,1,0.751,1,0.813v0.225
		C1,1.099,0.955,1.15,0.9,1.15H0.1C0.045,1.15,0,1.099,0,1.038V0.813C0,0.751,0.045,0.7,0.1,0.7z"/>
	<path fill="#752800" d="M0.92,0.56l0.029,0.174C0.959,0.795,0.912,0.85,0.85,0.85H0.702c-0.048,0-0.09-0.036-0.098-0.084L0.577,0.6
		H0.423L0.396,0.766C0.388,0.814,0.346,0.85,0.298,0.85H0.15c-0.062,0-0.109-0.055-0.098-0.117L0.08,0.56C0.032,0.523,0,0.465,0,0.4
		V0.2C0,0.09,0.09,0,0.2,0h0.6C0.91,0,1,0.09,1,0.2v0.2C1,0.465,0.968,0.523,0.92,0.56z"/>
	<path fill="#F37D04" d="M0.9,0.25v0.125C0.9,0.443,0.844,0.5,0.775,0.5h-0.55C0.2,0.5,0.177,0.492,0.158,0.48
		C0.123,0.458,0.1,0.419,0.1,0.375V0.25H0.9z"/>
	<path fill="#FFB64D" d="M0.9,0.225V0.25H0.1V0.225C0.1,0.156,0.156,0.1,0.225,0.1h0.55c0.043,0,0.082,0.023,0.104,0.056
		C0.892,0.176,0.9,0.199,0.9,0.225z"/>
	<path fill="#922B1D" d="M0.444,0.25L0.35,0.5H0.225C0.2,0.5,0.177,0.492,0.158,0.48l0.086-0.23H0.444z"/>
	<polygon fill="#922B1D" points="0.844,0.25 0.75,0.5 0.55,0.5 0.644,0.25 	"/>
	<rect x="0.244" y="0.1" fill="#DB452C" width="0.2" height="0.15"/>
	<path fill="#DB452C" d="M0.844,0.121V0.25h-0.2V0.1h0.131C0.801,0.1,0.824,0.107,0.844,0.121z"/>
	<polygon fill="#DA740B" points="0.35,0.6 0.15,0.6 0.125,0.75 0.325,0.75 	"/>
	<polygon fill="#DA740B" points="0.65,0.6 0.85,0.6 0.875,0.75 0.675,0.75 	"/>
</g>
</svg>
