<?xml version="1.0" encoding="UTF-8" standalone="no"?>
<!-- Created with Inkscape (http://www.inkscape.org/) -->

<svg
   width="0.80001342"
   height="1.7999992"
   viewBox="0 0 0.80001344 1.7999993"
   version="1.1"
   id="svg5"
   sodipodi:docname="rope_post_ghostmetro.svg"
   inkscape:version="1.2 (dc2aedaf03, 2022-05-15)"
   xml:space="preserve"
   xmlns:inkscape="http://www.inkscape.org/namespaces/inkscape"
   xmlns:sodipodi="http://sodipodi.sourceforge.net/DTD/sodipodi-0.dtd"
   xmlns:xlink="http://www.w3.org/1999/xlink"
   xmlns="http://www.w3.org/2000/svg"
   xmlns:svg="http://www.w3.org/2000/svg"><sodipodi:namedview
     id="namedview7"
     pagecolor="#171717"
     bordercolor="#999999"
     borderopacity="1"
     inkscape:pageshadow="0"
     inkscape:pageopacity="0"
     inkscape:pagecheckerboard="0"
     inkscape:document-units="px"
     showgrid="true"
     units="px"
     inkscape:zoom="33.204557"
     inkscape:cx="4.2012306"
     inkscape:cy="8.1615304"
     inkscape:window-width="3440"
     inkscape:window-height="1417"
     inkscape:window-x="-8"
     inkscape:window-y="-8"
     inkscape:window-maximized="1"
     inkscape:current-layer="layer1"
     inkscape:object-paths="true"
     inkscape:snap-intersection-paths="true"
     inkscape:snap-smooth-nodes="true"
     inkscape:snap-midpoints="true"
     inkscape:snap-object-midpoints="true"
     showguides="true"
     inkscape:snap-global="true"
     inkscape:showpageshadow="0"
     inkscape:deskcolor="#171717"><inkscape:grid
       type="xygrid"
       id="grid836"
       originx="-8.5679937e-11"
       originy="0" /></sodipodi:namedview><defs
     id="defs2"><linearGradient
       id="linearGradient48485"
       inkscape:swatch="solid"><stop
         style="stop-color:#ffa420;stop-opacity:1;"
         offset="0"
         id="stop48483" /></linearGradient><linearGradient
       inkscape:collect="always"
       id="linearGradient46676"><stop
         style="stop-color:#ffa004;stop-opacity:1;"
         offset="0"
         id="stop46672" /><stop
         style="stop-color:#ffa004;stop-opacity:1;"
         offset="0.40000001"
         id="stop47094" /><stop
         style="stop-color:#a86400;stop-opacity:1;"
         offset="1"
         id="stop46674" /></linearGradient><radialGradient
       inkscape:collect="always"
       xlink:href="#linearGradient46676"
       id="radialGradient55206"
       gradientUnits="userSpaceOnUse"
       gradientTransform="matrix(-1.25,0,0,-1.25,400.50013,69.25)"
       cx="314"
       cy="49"
       fx="314"
       fy="49"
       r="4" /></defs><g
     inkscape:label="Layer 1"
     inkscape:groupmode="layer"
     id="layer1"><g
       id="g11663"
       transform="scale(0.05)"><ellipse
         style="fill:#0a0f32;fill-opacity:0.2;fill-rule:nonzero;stroke:none;stroke-width:2.8;stroke-linecap:round;stroke-linejoin:round;stroke-miterlimit:4;stroke-dasharray:none;stroke-dashoffset:0;stroke-opacity:1;paint-order:markers fill stroke"
         id="ellipse55176"
         cx="8.000164"
         cy="28.999985"
         rx="7.0000496"
         ry="7" /><path
         id="path55178"
         style="color:#000000;fill:#603400;fill-opacity:1;stroke-linecap:square;stroke-linejoin:round;paint-order:markers stroke fill"
         d="m 8.0001339,0 a 2.0002,2.0002 0 0 0 -1.66406,0.890625 L 4.9298239,3 h -2.92969 A 2.0002,2.0002 0 0 0 0.21107393,5.894531 L 1.7638039,9 0.21107393,12.105469 A 2.0002,2.0002 0 0 0 2.0001339,15 h 2 v 6.814453 c -1.16136,1.114154 -1.99548,2.532389 -2,4.179688 a 2.0002,2.0002 0 0 0 0,0.0059 v 2 c 0,3.290011 2.70998,6 6,6 3.2900201,0 6.0000001,-2.709989 6.0000001,-6 v -2 c -5e-4,-1.652613 -0.83491,-3.077707 -2,-4.195312 V 15 h 2 a 2.0002,2.0002 0 0 0 1.78906,-2.894531 L 14.236464,9 15.789194,5.894531 A 2.0002,2.0002 0 0 0 14.000134,3 h -2.92969 L 9.6641939,0.890625 A 2.0002,2.0002 0 0 0 8.0001339,0 Z" /><path
         id="path55180"
         style="fill:#b06c00;fill-opacity:1;stroke:none;stroke-width:8;stroke-linecap:square;stroke-linejoin:round;paint-order:markers stroke fill"
         d="m 4.0001339,26 v 2 c 0,2.209139 1.79086,4 4,4 2.2091401,0 4.0000001,-1.790861 4.0000001,-4 v -2 z"
         sodipodi:nodetypes="cssscc" /><circle
         style="fill:#f4a420;fill-opacity:1;stroke:none;stroke-width:8;stroke-linecap:square;stroke-linejoin:round;paint-order:markers stroke fill"
         id="circle55182"
         cx="8.0001335"
         cy="26"
         r="4" /><path
         id="path55184"
         style="fill:#c07400;fill-opacity:1;stroke:none;stroke-width:8;stroke-linecap:square;stroke-linejoin:round;paint-order:markers stroke fill"
         d="m 6.0001339,10 v 16 a 2,2 0 0 0 2,2 2,2 0 0 0 2.0000001,-2 V 10 Z" /><path
         id="path55186"
         style="fill:#b07000;fill-opacity:1;stroke:none;stroke-width:8;stroke-linecap:square;stroke-linejoin:round;paint-order:markers stroke fill"
         d="m 10.000134,14.802734 -1.1679701,1.751954 a 1.0001,1.0001 0 0 1 -0.83203,0.425781 V 28 a 2,2 0 0 0 2.0000001,-2 z" /><path
         id="path55188"
         style="color:#000000;fill:#784400;fill-opacity:1;stroke-linecap:square;stroke-linejoin:round;paint-order:markers stroke fill"
         d="m 8.0001339,1 a 1.0001,1.0001 0 0 0 -0.83203,0.445312 L 5.4649739,4 h -3.46484 a 1.0001,1.0001 0 0 0 -0.89453,1.447266 L 2.8829439,9 1.1056039,12.552734 A 1.0001,1.0001 0 0 0 2.0001339,14 h 3.46484 l 1.70313,2.554688 a 1.0001,1.0001 0 0 0 1.66406,0 L 10.535294,14 h 3.46484 a 1.0001,1.0001 0 0 0 0.89453,-1.447266 L 13.117324,9 14.894664,5.447266 A 1.0001,1.0001 0 0 0 14.000134,4 h -3.46484 L 8.8321639,1.445312 A 1.0001,1.0001 0 0 0 8.0001339,1 Z" /><path
         style="color:#000000;fill:#ffa420;fill-opacity:1;stroke:none;stroke-width:2;stroke-linecap:square;stroke-linejoin:round;stroke-opacity:1;paint-order:markers stroke fill"
         d="m 8.0001339,16 -2,-3 h -4 l 2,-4 -2,-4 h 4 l 2,-3 2.0000001,3 h 4 l -2,4 2,4 h -4 z"
         id="path55190" /><path
         id="path55192"
         style="color:#000000;fill:#945400;fill-opacity:1;stroke-linecap:square;stroke-linejoin:round;paint-order:markers stroke fill"
         d="m 8.0001339,4 c -2.74958,0 -5,2.250427 -5,5 0,2.749573 2.25042,5 5,5 2.7495801,0 5.0000001,-2.250427 5.0000001,-5 0,-2.749573 -2.25042,-5 -5.0000001,-5 z" /><circle
         style="fill:url(#radialGradient55206);fill-opacity:1;stroke:none;stroke-width:8;stroke-linecap:square;stroke-linejoin:round;paint-order:markers stroke fill"
         id="circle55194"
         cx="8.0001335"
         cy="9"
         r="4" /><circle
         style="fill:#442800;fill-opacity:1;stroke:none;stroke-width:8;stroke-linecap:square;stroke-linejoin:round;paint-order:markers stroke fill"
         id="circle55196"
         cx="6.000134"
         cy="8"
         r="1" /><circle
         style="fill:#442800;fill-opacity:1;stroke:none;stroke-width:8;stroke-linecap:square;stroke-linejoin:round;paint-order:markers stroke fill"
         id="circle55198"
         cx="10.000134"
         cy="8"
         r="1" /><path
         id="path55200"
         style="fill:#442800;fill-opacity:1;stroke:none;stroke-width:8;stroke-linecap:square;stroke-linejoin:round;paint-order:markers stroke fill"
         d="m 6.0001339,10 a 2,2 0 0 0 2,2 2,2 0 0 0 2.0000001,-2 z" /></g></g></svg>
