<?xml version="1.0" encoding="UTF-8" standalone="no"?>
<!-- Created with Inkscape (http://www.inkscape.org/) -->

<svg
   width="1.55"
   height="2.1500001"
   viewBox="0 0 1.55 2.1500001"
   version="1.1"
   id="svg5"
   sodipodi:docname="rope_post_stuntshow_tr.svg"
   inkscape:version="1.1 (c68e22c387, 2021-05-23)"
   xmlns:inkscape="http://www.inkscape.org/namespaces/inkscape"
   xmlns:sodipodi="http://sodipodi.sourceforge.net/DTD/sodipodi-0.dtd"
   xmlns="http://www.w3.org/2000/svg"
   xmlns:svg="http://www.w3.org/2000/svg">
  <sodipodi:namedview
     id="namedview7"
     pagecolor="#171717"
     bordercolor="#999999"
     borderopacity="1"
     inkscape:pageshadow="0"
     inkscape:pageopacity="0"
     inkscape:pagecheckerboard="0"
     inkscape:document-units="px"
     showgrid="false"
     units="px"
     inkscape:zoom="64"
     inkscape:cx="0.640625"
     inkscape:cy="2.3359375"
     inkscape:window-width="1284"
     inkscape:window-height="1041"
     inkscape:window-x="208"
     inkscape:window-y="0"
     inkscape:window-maximized="0"
     inkscape:current-layer="layer1"
     inkscape:object-paths="true"
     inkscape:snap-intersection-paths="true"
     inkscape:snap-smooth-nodes="true"
     inkscape:snap-midpoints="true"
     inkscape:snap-object-midpoints="true">
    <inkscape:grid
       type="xygrid"
       id="grid836"
       originx="0"
       originy="0" />
  </sodipodi:namedview>
  <defs
     id="defs2" />
  <g
     inkscape:label="Layer 1"
     inkscape:groupmode="layer"
     id="layer1">
    <g
       id="g8904"
       transform="scale(0.05)"
       style="stroke-width:20">
      <path
         id="path35064"
         style="fill:#c88014;fill-opacity:1;stroke:none;stroke-width:20px;stroke-linecap:butt;stroke-linejoin:miter;stroke-opacity:1"
         d="M 20,14 9,15 v 2 l 11,1 11,-1 v -2 z m 0,4 -11,1 v 3 h 22 v -3 z" />
      <path
         id="path35066"
         style="fill:#d0bc00;fill-opacity:1;stroke:none;stroke-width:80;stroke-linecap:round;paint-order:markers stroke fill"
         d="m 9,13 v 2 h 22 v -2 z m 0,4 v 2 h 22 v -2 z" />
      <path
         style="fill:#c88014;fill-opacity:1;stroke:none;stroke-width:20px;stroke-linecap:butt;stroke-linejoin:miter;stroke-opacity:1"
         d="M 9,0 8,12 9,22 h 2 L 12,12 11,0 Z"
         id="path27054-7" />
      <path
         id="rect27078-3"
         style="fill:#d0bc00;fill-opacity:1;stroke:none;stroke-width:80;stroke-linecap:round;paint-order:markers stroke fill"
         d="M 7,0 V 22 H 9 V 0 Z m 4,0 v 22 h 2 V 0 Z" />
      <circle
         style="fill:#0a0f32;fill-opacity:0.2;stroke:none;stroke-width:80;stroke-linecap:square;stroke-linejoin:round;stroke-miterlimit:4;stroke-dasharray:none;paint-order:markers stroke fill"
         id="circle34998"
         cx="10"
         cy="33"
         r="10" />
      <path
         id="path35000"
         style="color:#000000;fill:#1c2868;fill-opacity:1;stroke-width:20;stroke-linecap:round;-inkscape-stroke:none;paint-order:markers stroke fill"
         d="M 10,4 C 6.1577,4 3,7.1577 3,11 v 3 c 0,0.33942 0.027,0.67297 0.074,1 C 3.026,15.32703 3,15.66058 3,16 v 3 c 0,1.06619 0.2423,2.08036 0.6758,2.98828 C 3.3836,23.64855 3,25.34567 3,27 c 0,3.84231 3.1577,7 7,7 3.8423,0 7,-3.15769 7,-7 0,-1.65433 -0.3836,-3.35145 -0.6758,-5.01172 C 16.7577,21.08036 17,20.06619 17,19 V 16 C 17,15.66058 16.973,15.32703 16.926,15 16.974,14.67297 17,14.33942 17,14 V 11 C 17,7.1577 13.8423,4 10,4 Z" />
      <path
         id="path35002"
         style="fill:#383870;fill-opacity:1;stroke:none;stroke-width:80;stroke-linecap:round;paint-order:markers stroke fill"
         d="m 6,19 c 0,3 -1,6 -1,8 0,2.76142 2.2386,5 5,5 2.7614,0 5,-2.23858 5,-5 0,-2 -1,-5 -1,-8 z"
         sodipodi:nodetypes="cssscc" />
      <path
         id="path35004"
         style="fill:#404080;fill-opacity:1;stroke:none;stroke-width:80;stroke-linecap:round;paint-order:markers stroke fill"
         d="M 13.5,19 A 4.5,6 0 0 0 9,25 4.5,6 0 0 0 13.0488,30.96094 C 14.2351,30.04671 15,28.61351 15,27 15,25.00868 14.0086,22.02603 14,19.03906 A 4.5,6 0 0 0 13.5,19 Z" />
      <path
         id="path35006"
         style="fill:#c88014;fill-opacity:1;stroke:none;stroke-width:80;stroke-linecap:round;paint-order:markers stroke fill"
         d="m 5,16 v 3 c 0,2.76142 2.2386,5 5,5 2.7614,0 5,-2.23858 5,-5 v -3 z"
         sodipodi:nodetypes="cssscc" />
      <circle
         style="fill:#d0bc00;fill-opacity:1;stroke:none;stroke-width:80;stroke-linecap:round;paint-order:markers stroke fill"
         id="circle35008"
         cx="10"
         cy="16"
         r="5" />
      <path
         id="path35010"
         style="fill:#343088;fill-opacity:1;stroke:none;stroke-width:80;stroke-linecap:round;paint-order:markers stroke fill"
         d="m 5,11 v 3 c 0,2.76142 2.2386,5 5,5 2.7614,0 5,-2.23858 5,-5 v -3 z"
         sodipodi:nodetypes="cssscc" />
      <circle
         style="fill:#5468b4;fill-opacity:1;stroke:none;stroke-width:80;stroke-linecap:round;paint-order:markers stroke fill"
         id="circle35012"
         cx="10"
         cy="11"
         r="5" />
      <path
         id="path35014"
         style="fill:#7888c4;fill-opacity:1;stroke:none;stroke-width:80;stroke-linecap:round;paint-order:markers stroke fill"
         d="M 10,6 A 5,5 0 0 0 5.1543,9.81445 5,5 0 0 1 9,8 5,5 0 0 1 14,13 5,5 0 0 1 13.8457,14.18555 5,5 0 0 0 15,11 5,5 0 0 0 10,6 Z" />
      <circle
         style="fill:#181834;fill-opacity:1;stroke:none;stroke-width:80;stroke-linecap:round;paint-order:markers stroke fill"
         id="circle35016"
         cx="10"
         cy="11"
         r="3" />
    </g>
  </g>
</svg>
