<?xml version="1.0" encoding="utf-8"?>
<!-- Generator: Adobe Illustrator 24.1.2, SVG Export Plug-In . SVG Version: 6.00 Build 0)  -->
<svg version="1.1"
	 id="svg3893" xmlns:cc="http://creativecommons.org/ns#" xmlns:dc="http://purl.org/dc/elements/1.1/" xmlns:inkscape="http://www.inkscape.org/namespaces/inkscape" xmlns:rdf="http://www.w3.org/1999/02/22-rdf-syntax-ns#" xmlns:sodipodi="http://sodipodi.sourceforge.net/DTD/sodipodi-0.dtd" xmlns:svg="http://www.w3.org/2000/svg"
	 xmlns="http://www.w3.org/2000/svg" xmlns:xlink="http://www.w3.org/1999/xlink" x="0px" y="0px" width="1.5px" height="2.75px"
	 viewBox="0 0 1.5 2.75" enable-background="new 0 0 1.5 2.75" xml:space="preserve">
<ellipse id="ellipse5169" fill-opacity="0.18" cx="0.5" cy="2.075" rx="0.5" ry="0.5"/>
<g>
	<g id="g5195">
		<path id="path5191" fill="#13256B" d="M0.651,1.121C0.607,1.12,0.564,1.14,0.536,1.173C0.483,1.234,0.491,1.33,0.552,1.382
			C0.689,1.5,0.839,1.529,1,1.529S1.312,1.5,1.448,1.382c0.061-0.053,0.069-0.148,0.016-0.209S1.316,1.104,1.255,1.157
			C1.168,1.23,1.137,1.233,1,1.233S0.831,1.232,0.744,1.157C0.719,1.134,0.685,1.121,0.651,1.121z"/>
		<path id="path5193" fill="#6D72B5" d="M0.649,1.196c-0.023,0-0.043,0.009-0.057,0.027C0.565,1.252,0.569,1.3,0.6,1.326l0,0
			C0.723,1.43,0.847,1.456,1,1.456s0.277-0.024,0.4-0.129C1.431,1.3,1.435,1.254,1.408,1.222l0,0
			C1.381,1.19,1.335,1.186,1.303,1.213l0,0C1.205,1.296,1.141,1.306,0.999,1.306s-0.207-0.01-0.304-0.093
			C0.683,1.201,0.667,1.196,0.649,1.196z"/>
		<path fill="#34479B" d="M1.063,1.305v0.149C1.042,1.455,1.021,1.455,1,1.455s-0.042,0-0.063-0.002V1.305
			c0.019,0,0.039,0.001,0.062,0.001C1.022,1.305,1.043,1.305,1.063,1.305z"/>
		<path fill="#34479B" d="M0.813,1.285v0.151C0.804,1.434,0.797,1.432,0.789,1.429c-0.035-0.01-0.068-0.024-0.101-0.043v-0.18
			C0.69,1.208,0.693,1.21,0.695,1.213C0.737,1.249,0.773,1.271,0.813,1.285z"/>
		<path fill="#34479B" d="M1.313,1.206v0.181C1.272,1.411,1.23,1.426,1.187,1.436V1.284C1.225,1.27,1.261,1.248,1.303,1.213
			C1.306,1.21,1.309,1.207,1.313,1.206z"/>
	</g>
</g>
<g>
	<path fill="#13256B" d="M0.85,1.975c0,0.193-0.157,0.35-0.35,0.35s-0.35-0.157-0.35-0.35c0-0.096,0.038-0.182,0.1-0.245V1.54
		C0.217,1.491,0.2,1.434,0.2,1.375v-0.05c0-0.059,0.017-0.117,0.05-0.165V1.125c0-0.138,0.112-0.25,0.25-0.25
		c0.065,0,0.13,0.026,0.177,0.073C0.723,0.995,0.75,1.06,0.75,1.125V1.16C0.783,1.208,0.8,1.266,0.8,1.325v0.05
		c0,0.059-0.017,0.116-0.05,0.165v0.19C0.812,1.793,0.85,1.879,0.85,1.975z"/>
	<path fill="#9BB1DB" d="M0.75,1.975c0,0.138-0.112,0.25-0.25,0.25s-0.25-0.112-0.25-0.25c0-0.017,0.002-0.034,0.005-0.049
		C0.279,2.039,0.379,2.125,0.5,2.125s0.221-0.086,0.245-0.199C0.748,1.941,0.75,1.958,0.75,1.975z"/>
	<path fill="#314195" d="M0.5,2.025L0.5,2.025c-0.083,0-0.15-0.067-0.15-0.15v-0.75c0-0.082,0.067-0.15,0.15-0.15h0
		c0.082,0,0.15,0.067,0.15,0.15v0.75C0.65,1.958,0.583,2.025,0.5,2.025z"/>
	<path fill="#1C308C" d="M0.45,0.984v1.032c-0.058-0.021-0.1-0.076-0.1-0.141v-0.75C0.35,1.06,0.392,1.004,0.45,0.984z"/>
	<path fill="#263A92" d="M0.55,0.984v1.032C0.535,2.022,0.517,2.025,0.5,2.025S0.465,2.022,0.45,2.016V0.984
		C0.465,0.978,0.483,0.975,0.5,0.975S0.535,0.978,0.55,0.984z"/>
	<circle fill="#384E9F" cx="0.5" cy="1.125" r="0.15"/>
	<path fill="#384E9F" d="M0.7,1.325v0.05c0,0.055-0.023,0.105-0.059,0.141C0.605,1.552,0.555,1.575,0.5,1.575
		c-0.11,0-0.2-0.09-0.2-0.2v-0.05c0-0.051,0.019-0.096,0.05-0.132v0.082c0,0.083,0.067,0.15,0.15,0.15s0.15-0.067,0.15-0.15V1.193
		C0.681,1.229,0.7,1.274,0.7,1.325z"/>
	<path fill="#384F9F" d="M0.55,1.568C0.534,1.573,0.517,1.575,0.5,1.575c-0.11,0-0.2-0.09-0.2-0.2v-0.05
		c0-0.051,0.019-0.096,0.05-0.132v0.082c0,0.045,0.02,0.085,0.051,0.112C0.405,1.474,0.467,1.547,0.55,1.568z"/>
	<path fill="#7076B6" d="M0.7,1.325v0.05c0,0.004,0,0.008-0.001,0.012c-0.003,0.05-0.024,0.095-0.058,0.129
		C0.617,1.541,0.585,1.56,0.55,1.568C0.467,1.547,0.405,1.474,0.401,1.387C0.427,1.41,0.461,1.425,0.5,1.425
		c0.017,0,0.035-0.003,0.05-0.009c0.058-0.02,0.1-0.076,0.1-0.141V1.193C0.681,1.229,0.7,1.274,0.7,1.325z"/>
	<path fill="#122568" d="M0.6,1.125c0,0.055-0.045,0.1-0.1,0.1s-0.1-0.045-0.1-0.1c0-0.055,0.045-0.1,0.1-0.1
		c0.02,0,0.039,0.006,0.055,0.016L0.528,1.083C0.52,1.078,0.511,1.075,0.5,1.075c-0.027,0-0.05,0.023-0.05,0.05
		s0.023,0.05,0.05,0.05s0.05-0.023,0.05-0.05H0.6z"/>
</g>
</svg>
