<?xml version="1.0" encoding="utf-8"?>
<!-- Generator: Adobe Illustrator 24.1.2, SVG Export Plug-In . SVG Version: 6.00 Build 0)  -->
<svg version="1.1"
	 id="svg3893" xmlns:cc="http://creativecommons.org/ns#" xmlns:dc="http://purl.org/dc/elements/1.1/" xmlns:inkscape="http://www.inkscape.org/namespaces/inkscape" xmlns:rdf="http://www.w3.org/1999/02/22-rdf-syntax-ns#" xmlns:sodipodi="http://sodipodi.sourceforge.net/DTD/sodipodi-0.dtd" xmlns:svg="http://www.w3.org/2000/svg"
	 xmlns="http://www.w3.org/2000/svg" xmlns:xlink="http://www.w3.org/1999/xlink" x="0px" y="0px" width="1.5px" height="2.75px"
	 viewBox="0 0 1.5 2.75" enable-background="new 0 0 1.5 2.75" xml:space="preserve">
<ellipse id="ellipse5169" fill-opacity="0.18" cx="0.5" cy="2.075" rx="0.5" ry="0.5"/>
<g>
	<g id="layer1" transform="translate(-58.076041,-83.563447)" inkscape:groupmode="layer" inkscape:label="Layer 1">
		<g id="g5189" transform="matrix(0.04999992,0,0,0.04999992,48.987619,88.425163)">
			<g id="g5167">
				<path id="path5163" sodipodi:nodetypes="sssssss" fill="#13256B" d="M191.772-90.234c-1.636,0-3.001,1.364-3.001,3v15.999
					c0,1.636,1.365,3.001,3.001,3.001s2.994-1.365,2.994-3.001v-15.999C194.765-88.87,193.408-90.234,191.772-90.234z"/>
				<path id="path5165" sodipodi:nodetypes="sssssss" fill="#6D72B5" d="M191.768-88.734c0.831,0,1.5,0.669,1.5,1.5v16.002
					c0,0.831-0.669,1.5-1.5,1.5s-1.5-0.669-1.5-1.5v-16.002C190.268-88.065,190.937-88.734,191.768-88.734z"/>
			</g>
		</g>
		<rect x="58.501" y="84.401" fill="#34479B" width="0.15" height="0.125"/>
		<rect x="58.501" y="84.659" fill="#34479B" width="0.15" height="0.125"/>
		<rect x="58.501" y="84.142" fill="#34479B" width="0.15" height="0.125"/>
	</g>
</g>
<g>
	<path fill="#13256B" d="M0.85,1.975c0,0.193-0.157,0.35-0.35,0.35s-0.35-0.157-0.35-0.35c0-0.096,0.038-0.182,0.1-0.245V1.54
		C0.217,1.491,0.2,1.434,0.2,1.375v-0.05c0-0.059,0.017-0.117,0.05-0.165V1.125c0-0.138,0.112-0.25,0.25-0.25
		c0.065,0,0.13,0.026,0.177,0.073C0.723,0.995,0.75,1.06,0.75,1.125V1.16C0.783,1.208,0.8,1.266,0.8,1.325v0.05
		c0,0.059-0.017,0.116-0.05,0.165v0.19C0.812,1.793,0.85,1.879,0.85,1.975z"/>
	<path fill="#9BB1DB" d="M0.75,1.975c0,0.138-0.112,0.25-0.25,0.25s-0.25-0.112-0.25-0.25c0-0.017,0.002-0.034,0.005-0.049
		C0.279,2.039,0.379,2.125,0.5,2.125s0.221-0.086,0.245-0.199C0.748,1.941,0.75,1.958,0.75,1.975z"/>
	<path fill="#314195" d="M0.5,2.025L0.5,2.025c-0.083,0-0.15-0.067-0.15-0.15v-0.75c0-0.082,0.067-0.15,0.15-0.15h0
		c0.082,0,0.15,0.067,0.15,0.15v0.75C0.65,1.958,0.583,2.025,0.5,2.025z"/>
	<path fill="#1C308C" d="M0.45,0.984v1.032c-0.058-0.021-0.1-0.076-0.1-0.141v-0.75C0.35,1.06,0.392,1.004,0.45,0.984z"/>
	<path fill="#263A92" d="M0.55,0.984v1.032C0.535,2.022,0.517,2.025,0.5,2.025S0.465,2.022,0.45,2.016V0.984
		C0.465,0.978,0.483,0.975,0.5,0.975S0.535,0.978,0.55,0.984z"/>
	<circle fill="#384E9F" cx="0.5" cy="1.125" r="0.15"/>
	<path fill="#384E9F" d="M0.7,1.325v0.05c0,0.055-0.023,0.105-0.059,0.141C0.605,1.552,0.555,1.575,0.5,1.575
		c-0.11,0-0.2-0.09-0.2-0.2v-0.05c0-0.051,0.019-0.096,0.05-0.132v0.082c0,0.083,0.067,0.15,0.15,0.15s0.15-0.067,0.15-0.15V1.193
		C0.681,1.229,0.7,1.274,0.7,1.325z"/>
	<path fill="#384F9F" d="M0.55,1.568C0.534,1.573,0.517,1.575,0.5,1.575c-0.11,0-0.2-0.09-0.2-0.2v-0.05
		c0-0.051,0.019-0.096,0.05-0.132v0.082c0,0.045,0.02,0.085,0.051,0.112C0.405,1.474,0.467,1.547,0.55,1.568z"/>
	<path fill="#7076B6" d="M0.7,1.325v0.05c0,0.004,0,0.008-0.001,0.012c-0.003,0.05-0.024,0.095-0.058,0.129
		C0.617,1.541,0.585,1.56,0.55,1.568C0.467,1.547,0.405,1.474,0.401,1.387C0.427,1.41,0.461,1.425,0.5,1.425
		c0.017,0,0.035-0.003,0.05-0.009c0.058-0.02,0.1-0.076,0.1-0.141V1.193C0.681,1.229,0.7,1.274,0.7,1.325z"/>
	<path fill="#122568" d="M0.6,1.125c0,0.055-0.045,0.1-0.1,0.1s-0.1-0.045-0.1-0.1c0-0.055,0.045-0.1,0.1-0.1
		c0.02,0,0.039,0.006,0.055,0.016L0.528,1.083C0.52,1.078,0.511,1.075,0.5,1.075c-0.027,0-0.05,0.023-0.05,0.05
		s0.023,0.05,0.05,0.05s0.05-0.023,0.05-0.05H0.6z"/>
</g>
</svg>
