<?xml version="1.0" encoding="utf-8"?>
<!-- Generator: Adobe Illustrator 24.1.2, SVG Export Plug-In . SVG Version: 6.00 Build 0)  -->
<svg version="1.1" id="Capa_1" xmlns="http://www.w3.org/2000/svg" xmlns:xlink="http://www.w3.org/1999/xlink" x="0px" y="0px"
	 viewBox="0 0 1.5 1.75" enable-background="new 0 0 1.5 1.75" xml:space="preserve">
<g id="g5195">
	<path id="path5191" fill="#701E0B" fill-opacity="0.9765" d="M0.652,0.296C0.608,0.295,0.565,0.315,0.537,0.348
		C0.484,0.409,0.492,0.505,0.553,0.557C0.69,0.675,0.84,0.704,1.001,0.704s0.312-0.029,0.448-0.147
		C1.51,0.504,1.518,0.409,1.465,0.348S1.317,0.279,1.256,0.332C1.169,0.405,1.138,0.408,1.001,0.408S0.832,0.407,0.745,0.332
		C0.72,0.309,0.686,0.296,0.652,0.296z"/>
	<path id="path5193" fill="#F13F46" d="M0.65,0.371c-0.023,0-0.043,0.009-0.057,0.027C0.566,0.427,0.57,0.475,0.601,0.501l0,0
		c0.123,0.104,0.247,0.13,0.4,0.13s0.277-0.024,0.4-0.129c0.031-0.027,0.035-0.073,0.008-0.105l0,0
		C1.382,0.365,1.336,0.361,1.304,0.388l0,0C1.206,0.471,1.142,0.481,1,0.481s-0.207-0.01-0.304-0.093
		C0.684,0.376,0.668,0.371,0.65,0.371z"/>
</g>
<g>
	<g>
		<circle id="circle16099" fill="#0A0F32" fill-opacity="0.2" cx="0.5" cy="1.25" r="0.5"/>
	</g>
	<path fill="#4A330A" d="M0.8,1v0.1c0,0.082-0.034,0.157-0.088,0.212C0.658,1.366,0.583,1.4,0.5,1.4c-0.165,0-0.3-0.135-0.3-0.3V1
		c0-0.1,0.049-0.189,0.125-0.243V0.55h0.35v0.207C0.751,0.811,0.8,0.9,0.8,1z"/>
	<path fill="#B8912D" d="M0.5,0.775L0.5,0.775C0.376,0.775,0.275,0.876,0.275,1v0.1c0,0.124,0.101,0.225,0.225,0.225h0
		c0.124,0,0.225-0.101,0.225-0.225V1C0.725,0.876,0.624,0.775,0.5,0.775z"/>
	<path fill="#FFDE37" d="M0.5,0.775L0.5,0.775C0.376,0.775,0.275,0.876,0.275,1v0.028c0,0.124,0.101,0.225,0.225,0.225h0
		c0.124,0,0.225-0.101,0.225-0.225V1C0.725,0.876,0.624,0.775,0.5,0.775z"/>
	<path fill="#C09727" d="M0.6,0.5V1c0,0.027-0.011,0.052-0.03,0.07c-0.01,0.01-0.02,0.017-0.033,0.022
		C0.533,1.094,0.53,1.095,0.525,1.096C0.517,1.099,0.508,1.1,0.5,1.1C0.445,1.1,0.4,1.055,0.4,1V0.5c0-0.055,0.045-0.1,0.1-0.1
		c0.008,0,0.017,0.001,0.025,0.004c0.004,0.001,0.008,0.002,0.012,0.004C0.574,0.422,0.6,0.458,0.6,0.5z"/>
	<path fill="#D5BC2B" d="M0.6,0.5V1c0,0.027-0.011,0.052-0.03,0.07c-0.01,0.01-0.02,0.017-0.033,0.022
		C0.501,1.078,0.475,1.042,0.475,1V0.5c0-0.042,0.026-0.077,0.062-0.093C0.574,0.422,0.6,0.458,0.6,0.5z"/>
	<path fill="#AE3059" d="M0.9,0.25c0,0.171-0.293,0.415-0.377,0.482c-0.013,0.011-0.032,0.011-0.045,0
		C0.393,0.665,0.1,0.421,0.1,0.25C0.1,0.1,0.2,0,0.35,0c0,0,0.1,0,0.15,0.075C0.55,0,0.65,0,0.65,0C0.8,0,0.9,0.1,0.9,0.25z"/>
	<path fill="#FF91CB" d="M0.5,0.65c0,0-0.35-0.25-0.323-0.424c0.021-0.134,0.18-0.19,0.274-0.092C0.47,0.154,0.488,0.176,0.5,0.2
		c0.012-0.024,0.03-0.046,0.049-0.067c0.093-0.098,0.253-0.042,0.274,0.092C0.85,0.4,0.5,0.65,0.5,0.65z"/>
	<path fill="#F74FA7" d="M0.714,0.323c0,0.093-0.214,0.252-0.214,0.252S0.286,0.416,0.286,0.323c0-0.01,0-0.02,0.001-0.029
		c0.008-0.089,0.119-0.126,0.181-0.061C0.48,0.246,0.492,0.261,0.5,0.277c0.008-0.016,0.02-0.031,0.032-0.044
		c0.062-0.065,0.172-0.028,0.181,0.061C0.714,0.303,0.714,0.313,0.714,0.323z"/>
</g>
</svg>
