<?xml version="1.0" encoding="UTF-8" standalone="no"?>
<!-- Created with Inkscape (http://www.inkscape.org/) -->

<svg
   width="1.4344105"
   height="1.7999998"
   viewBox="0 0 1.4344105 1.7999999"
   version="1.1"
   id="svg5"
   sodipodi:docname="rope_post_biodome_r.svg"
   inkscape:version="1.1 (c68e22c387, 2021-05-23)"
   xmlns:inkscape="http://www.inkscape.org/namespaces/inkscape"
   xmlns:sodipodi="http://sodipodi.sourceforge.net/DTD/sodipodi-0.dtd"
   xmlns="http://www.w3.org/2000/svg"
   xmlns:svg="http://www.w3.org/2000/svg">
  <sodipodi:namedview
     id="namedview7"
     pagecolor="#171717"
     bordercolor="#999999"
     borderopacity="1"
     inkscape:pageshadow="0"
     inkscape:pageopacity="0"
     inkscape:pagecheckerboard="0"
     inkscape:document-units="px"
     showgrid="false"
     units="px"
     inkscape:zoom="181.01934"
     inkscape:cx="0.43641747"
     inkscape:cy="0.26792718"
     inkscape:window-width="1284"
     inkscape:window-height="1041"
     inkscape:window-x="208"
     inkscape:window-y="0"
     inkscape:window-maximized="0"
     inkscape:current-layer="layer1"
     inkscape:object-paths="true"
     inkscape:snap-intersection-paths="true"
     inkscape:snap-smooth-nodes="true"
     inkscape:snap-midpoints="true"
     inkscape:snap-object-midpoints="true">
    <inkscape:grid
       type="xygrid"
       id="grid836"
       originx="-8.3593813e-11"
       originy="-0.45000002" />
  </sodipodi:namedview>
  <defs
     id="defs2" />
  <g
     inkscape:label="Layer 1"
     inkscape:groupmode="layer"
     id="layer1"
     transform="translate(0,-0.45)">
    <g
       id="g3399">
      <g
         id="g4206"
         transform="scale(0.05)"
         style="stroke-width:20">
        <path
           id="path1969"
           style="color:#000000;fill:#004410;fill-opacity:1;stroke-width:80;stroke-linecap:round;stroke-linejoin:round;-inkscape-stroke:none"
           d="m 9.1781002,18.24208 c -1.61749,0.0129 -3.09143,1.17255 -3.41992,2.81055 -0.37537,1.87201 0.87214,3.74372 2.74414,4.11914 5.5215298,1.10431 11.8534698,1.10431 17.3749998,0 1.872,-0.37542 3.11951,-2.24713 2.74414,-4.11914 -0.37542,-1.872 -2.24713,-3.11951 -4.11914,-2.74414 -4.46492,0.89298 -10.16008,0.89298 -14.6249998,0 -0.234,-0.0469 -0.46815,-0.0683 -0.69922,-0.0664 z" />
        <path
           style="color:#000000;fill:#009428;fill-opacity:1;stroke-width:20;stroke-linecap:round;stroke-linejoin:round;-inkscape-stroke:none"
           d="m 9.4847402,20.26943 a 1.5,1.5 0 0 0 -1.76562,1.17578 1.5,1.5 0 0 0 1.17578,1.76562 c 5.2262798,1.04526 11.3635598,1.04526 16.5898398,0 a 1.5,1.5 0 0 0 1.17578,-1.76562 1.5,1.5 0 0 0 -1.76562,-1.17578 c -4.77371,0.95474 -10.63645,0.95474 -15.4101598,0 z"
           id="path1971" />
        <circle
           style="fill:#0a0f32;fill-opacity:0.2;stroke:none;stroke-width:80;stroke-linecap:square;stroke-linejoin:round;stroke-miterlimit:4;stroke-dasharray:none;paint-order:markers stroke fill"
           id="circle1949"
           cx="7.1898203"
           cy="37.999996"
           r="7" />
        <path
           id="path1951"
           style="color:#000000;fill:#8c3c00;fill-opacity:1;stroke-width:80;stroke-linejoin:round;-inkscape-stroke:none"
           d="m 7.1898202,9 c -2.67908,0 -4.87275,2.17564 -4.9668,4.83398 -0.60886,0.95037 -1.02636,2.0129 -1.0332,3.1543 a 2.0002,2.0002 0 0 0 0,0.0176 c 0.005,1.6473 0.83864,3.06553 2,4.17969 v 3.60742 c -0.62639,0.0337 -1.25577,0.0986 -1.89453,0.41797 a 2.0002,2.0002 0 0 0 -1.00195002,1.15625 c -0.71677,2.15031 -0.0496,4.19766 1.23828002,5.67187 -0.21815,0.62462 -0.33922,1.283 -0.3418,1.95313 a 2.0002,2.0002 0 0 0 0,0.008 v 2 c 0,3.29002 2.70998,6 6,6 3.2900198,0 5.9999998,-2.70998 5.9999998,-6 v -2 c -4.1e-4,-1.34721 -0.57388,-2.5337 -1.37305,-3.56836 0.59921,-0.3441 1.16765,-0.72168 1.58203,-1.19726 1.05592,-1.21226 1.79102,-2.5485 1.79102,-4.23459 a 2.0002,2.0002 0 0 0 -1.10547,-1.78906 c -0.94349,-0.47175 -1.91847,-0.65421 -2.89453,-0.63672 v -1.38867 c 1.16136,-1.11416 1.99547,-2.53239 2,-4.17969 a 2.0002,2.0002 0 0 0 0,-0.002 2.0002,2.0002 0 0 0 0,-0.002 2.0002,2.0002 0 0 0 0,-0.002 2.0002,2.0002 0 0 0 0,-0.002 C 13.18919,15.84188 12.76899,14.76598 12.15076,13.8045 12.04071,11.16061 9.8585502,9 7.1898202,9 Z" />
        <path
           style="fill:#dc8800;fill-opacity:1;stroke:none;stroke-width:20px;stroke-linecap:butt;stroke-linejoin:miter;stroke-opacity:1"
           d="m 13.18982,25 c -2,-1 -6.9999998,0 -4.9999998,3 1.9999998,3 4.9999998,-1 4.9999998,-3 z"
           id="path1953"
           sodipodi:nodetypes="czc" />
        <path
           id="path1955"
           style="fill:#b47000;fill-opacity:1;stroke:none;stroke-width:40;stroke-linecap:square;stroke-linejoin:round;stroke-miterlimit:4;stroke-dasharray:none;stroke-opacity:1;paint-order:markers stroke fill"
           d="m 3.1898202,34 v 2 c 0,2.20914 1.79086,4 4,4 2.20914,0 3.9999998,-1.79086 3.9999998,-4 v -2 z"
           sodipodi:nodetypes="cssscc" />
        <circle
           style="fill:#f8a824;fill-opacity:1;stroke:none;stroke-width:40;stroke-linecap:square;stroke-linejoin:round;stroke-miterlimit:4;stroke-dasharray:none;stroke-opacity:1;paint-order:markers stroke fill"
           id="circle1957"
           cx="7.1898203"
           cy="33.999996"
           r="4" />
        <path
           id="path1959"
           style="fill:#ffa004;fill-opacity:1;stroke:none;stroke-width:40;stroke-linecap:square;stroke-linejoin:round;stroke-miterlimit:4;stroke-dasharray:none;stroke-opacity:1;paint-order:markers stroke fill"
           d="m 7.1898202,13 a 4,4 0 0 0 -4,4 4,4 0 0 0 2,3.45312 v 6.58594 c -1.06953,-0.36693 -2.24726,-0.41543 -3,-0.0391 -0.71951,2.15854 1.14996,4.83482 3,5.04883 V 34 c 0,1.108 0.892,2 2,2 1.108,0 2,-0.892 2,-2 V 20.45312 A 4,4 0 0 0 11.18982,17 4,4 0 0 0 7.1898202,13 Z" />
        <circle
           style="fill:#ffc058;fill-opacity:1;stroke:none;stroke-width:40;stroke-linecap:square;stroke-linejoin:round;stroke-miterlimit:4;stroke-dasharray:none;stroke-opacity:1;paint-order:markers stroke fill"
           id="circle1961"
           cx="7.1898203"
           cy="13.999996"
           r="3" />
        <circle
           style="fill:#c8881c;fill-opacity:1;stroke:none;stroke-width:40;stroke-linecap:square;stroke-linejoin:round;stroke-miterlimit:4;stroke-dasharray:none;stroke-opacity:1;paint-order:markers stroke fill"
           id="circle1963"
           cx="7.1898203"
           cy="13.999996"
           r="1.5" />
        <path
           id="path1965"
           style="fill:#c07400;fill-opacity:1;stroke:none;stroke-width:40;stroke-linecap:square;stroke-linejoin:round;stroke-miterlimit:4;stroke-dasharray:none;stroke-opacity:1;paint-order:markers stroke fill"
           d="M 5.1898202,20.45312 V 34 c 0,1.108 0.892,2 2,2 0.75039,0 1.40188,-0.40931 1.74414,-1.01758 C 7.9479102,34.85732 7.1898202,34.02111 7.1898202,33 V 21 a 4,4 0 0 1 -2,-0.54688 z" />
      </g>
    </g>
  </g>
</svg>
