<?xml version="1.0" encoding="UTF-8" standalone="no"?>
<!-- Created with Inkscape (http://www.inkscape.org/) -->

<svg
   width="1"
   height="1.95"
   viewBox="0 0 1 1.95"
   version="1.1"
   id="svg5"
   sodipodi:docname="rope_post_stuntshow.svg"
   inkscape:version="1.1 (c68e22c387, 2021-05-23)"
   xmlns:inkscape="http://www.inkscape.org/namespaces/inkscape"
   xmlns:sodipodi="http://sodipodi.sourceforge.net/DTD/sodipodi-0.dtd"
   xmlns="http://www.w3.org/2000/svg"
   xmlns:svg="http://www.w3.org/2000/svg">
  <sodipodi:namedview
     id="namedview7"
     pagecolor="#171717"
     bordercolor="#999999"
     borderopacity="1"
     inkscape:pageshadow="0"
     inkscape:pageopacity="0"
     inkscape:pagecheckerboard="0"
     inkscape:document-units="px"
     showgrid="false"
     units="px"
     inkscape:zoom="128"
     inkscape:cx="0.390625"
     inkscape:cy="1.4101562"
     inkscape:window-width="1284"
     inkscape:window-height="1041"
     inkscape:window-x="208"
     inkscape:window-y="0"
     inkscape:window-maximized="0"
     inkscape:current-layer="layer1"
     inkscape:object-paths="true"
     inkscape:snap-intersection-paths="true"
     inkscape:snap-smooth-nodes="true"
     inkscape:snap-midpoints="true"
     inkscape:snap-object-midpoints="true">
    <inkscape:grid
       type="xygrid"
       id="grid836"
       originx="0"
       originy="0" />
  </sodipodi:namedview>
  <defs
     id="defs2" />
  <g
     inkscape:label="Layer 1"
     inkscape:groupmode="layer"
     id="layer1">
    <g
       id="g9274"
       transform="scale(0.05)"
       style="stroke-width:20">
      <circle
         style="fill:#0a0f32;fill-opacity:0.2;stroke:none;stroke-width:80;stroke-linecap:square;stroke-linejoin:round;stroke-miterlimit:4;stroke-dasharray:none;paint-order:markers stroke fill"
         id="circle34998"
         cx="10"
         cy="29"
         r="10" />
      <path
         id="path35000"
         style="color:#000000;fill:#1c2868;fill-opacity:1;stroke-width:20;stroke-linecap:round;-inkscape-stroke:none;paint-order:markers stroke fill"
         d="M 10,0 C 6.1577,0 3,3.1577 3,7 v 3 c 0,0.33942 0.027,0.67297 0.074,1 C 3.026,11.32703 3,11.66058 3,12 v 3 c 0,1.06619 0.2423,2.08036 0.6758,2.98828 C 3.3836,19.64855 3,21.34567 3,23 c 0,3.84231 3.1577,7 7,7 3.8423,0 7,-3.15769 7,-7 0,-1.65433 -0.3836,-3.35145 -0.6758,-5.01172 C 16.7577,17.08036 17,16.06619 17,15 V 12 C 17,11.66058 16.973,11.32703 16.926,11 16.974,10.67297 17,10.33942 17,10 V 7 C 17,3.1577 13.8423,0 10,0 Z" />
      <path
         id="path35002"
         style="fill:#383870;fill-opacity:1;stroke:none;stroke-width:80;stroke-linecap:round;paint-order:markers stroke fill"
         d="m 6,15 c 0,3 -1,6 -1,8 0,2.76142 2.2386,5 5,5 2.7614,0 5,-2.23858 5,-5 0,-2 -1,-5 -1,-8 z"
         sodipodi:nodetypes="cssscc" />
      <path
         id="path35004"
         style="fill:#404080;fill-opacity:1;stroke:none;stroke-width:80;stroke-linecap:round;paint-order:markers stroke fill"
         d="M 13.5,15 A 4.5,6 0 0 0 9,21 4.5,6 0 0 0 13.0488,26.96094 C 14.2351,26.04671 15,24.61351 15,23 15,21.00868 14.0086,18.02603 14,15.03906 A 4.5,6 0 0 0 13.5,15 Z" />
      <path
         id="path35006"
         style="fill:#c88014;fill-opacity:1;stroke:none;stroke-width:80;stroke-linecap:round;paint-order:markers stroke fill"
         d="m 5,12 v 3 c 0,2.76142 2.2386,5 5,5 2.7614,0 5,-2.23858 5,-5 v -3 z"
         sodipodi:nodetypes="cssscc" />
      <circle
         style="fill:#d0bc00;fill-opacity:1;stroke:none;stroke-width:80;stroke-linecap:round;paint-order:markers stroke fill"
         id="circle35008"
         cx="10"
         cy="12"
         r="5" />
      <path
         id="path35010"
         style="fill:#343088;fill-opacity:1;stroke:none;stroke-width:80;stroke-linecap:round;paint-order:markers stroke fill"
         d="m 5,7 v 3 c 0,2.76142 2.2386,5 5,5 2.7614,0 5,-2.23858 5,-5 V 7 Z"
         sodipodi:nodetypes="cssscc" />
      <circle
         style="fill:#5468b4;fill-opacity:1;stroke:none;stroke-width:80;stroke-linecap:round;paint-order:markers stroke fill"
         id="circle35012"
         cx="10"
         cy="7"
         r="5" />
      <path
         id="path35014"
         style="fill:#7888c4;fill-opacity:1;stroke:none;stroke-width:80;stroke-linecap:round;paint-order:markers stroke fill"
         d="M 10,2 A 5,5 0 0 0 5.1543,5.81445 5,5 0 0 1 9,4 5,5 0 0 1 14,9 5,5 0 0 1 13.8457,10.18555 5,5 0 0 0 15,7 5,5 0 0 0 10,2 Z" />
      <circle
         style="fill:#181834;fill-opacity:1;stroke:none;stroke-width:80;stroke-linecap:round;paint-order:markers stroke fill"
         id="circle35016"
         cx="10"
         cy="7"
         r="3" />
    </g>
  </g>
</svg>
