<?xml version="1.0" encoding="UTF-8" standalone="no"?>
<!-- Created with Inkscape (http://www.inkscape.org/) -->

<svg
   width="1.3998213"
   height="2.4250133"
   viewBox="0 0 1.3998213 2.4250133"
   version="1.1"
   id="svg5"
   sodipodi:docname="rope_post_ghostmetro_tr.svg"
   inkscape:version="1.2 (dc2aedaf03, 2022-05-15)"
   xml:space="preserve"
   xmlns:inkscape="http://www.inkscape.org/namespaces/inkscape"
   xmlns:sodipodi="http://sodipodi.sourceforge.net/DTD/sodipodi-0.dtd"
   xmlns:xlink="http://www.w3.org/1999/xlink"
   xmlns="http://www.w3.org/2000/svg"
   xmlns:svg="http://www.w3.org/2000/svg"><sodipodi:namedview
     id="namedview7"
     pagecolor="#171717"
     bordercolor="#999999"
     borderopacity="1"
     inkscape:pageshadow="0"
     inkscape:pageopacity="0"
     inkscape:pagecheckerboard="0"
     inkscape:document-units="px"
     showgrid="true"
     units="px"
     inkscape:zoom="64"
     inkscape:cx="11.992187"
     inkscape:cy="3.125"
     inkscape:window-width="3440"
     inkscape:window-height="1417"
     inkscape:window-x="-8"
     inkscape:window-y="-8"
     inkscape:window-maximized="1"
     inkscape:current-layer="layer1"
     inkscape:object-paths="true"
     inkscape:snap-intersection-paths="true"
     inkscape:snap-smooth-nodes="true"
     inkscape:snap-midpoints="true"
     inkscape:snap-object-midpoints="true"
     showguides="true"
     inkscape:snap-global="true"
     inkscape:showpageshadow="0"
     inkscape:deskcolor="#171717"><inkscape:grid
       type="xygrid"
       id="grid836"
       originx="-8.5679909e-11"
       originy="0" /></sodipodi:namedview><defs
     id="defs2"><linearGradient
       id="linearGradient48485"
       inkscape:swatch="solid"><stop
         style="stop-color:#ffa420;stop-opacity:1;"
         offset="0"
         id="stop48483" /></linearGradient><linearGradient
       inkscape:collect="always"
       id="linearGradient46676"><stop
         style="stop-color:#ffa004;stop-opacity:1;"
         offset="0"
         id="stop46672" /><stop
         style="stop-color:#ffa004;stop-opacity:1;"
         offset="0.40000001"
         id="stop47094" /><stop
         style="stop-color:#a86400;stop-opacity:1;"
         offset="1"
         id="stop46674" /></linearGradient><radialGradient
       inkscape:collect="always"
       xlink:href="#linearGradient46676"
       id="radialGradient46678"
       cx="314"
       cy="49"
       fx="314"
       fy="49"
       r="4"
       gradientUnits="userSpaceOnUse"
       gradientTransform="matrix(-1.25,0,0,-1.25,400.50013,81.75028)" /></defs><g
     inkscape:label="Layer 1"
     inkscape:groupmode="layer"
     id="layer1"><g
       id="g11209"
       transform="scale(0.05)"><path
         sodipodi:nodetypes="sssssss"
         d="m 8.0030139,0 c -1.63619,0 -3.00173,1.364107 -3.00173,3.000265 v 15.999722 c 0,1.636195 1.36554,3.001739 3.00173,3.001739 1.6362,0 2.9943701,-1.365544 2.9943701,-3.001739 V 3.000265 C 10.997384,1.364107 9.6392139,0 8.0030139,0 Z"
         style="color:#000000;font-style:normal;font-variant:normal;font-weight:normal;font-stretch:normal;font-size:medium;line-height:normal;font-family:sans-serif;font-variant-ligatures:normal;font-variant-position:normal;font-variant-caps:normal;font-variant-numeric:normal;font-variant-alternates:normal;font-variant-east-asian:normal;font-feature-settings:normal;font-variation-settings:normal;text-indent:0;text-align:start;text-decoration:none;text-decoration-line:none;text-decoration-style:solid;text-decoration-color:#000000;letter-spacing:normal;word-spacing:normal;text-transform:none;writing-mode:lr-tb;direction:ltr;text-orientation:mixed;dominant-baseline:auto;baseline-shift:baseline;text-anchor:start;white-space:normal;shape-padding:0;shape-margin:0;inline-size:0;clip-rule:nonzero;display:inline;overflow:visible;visibility:visible;isolation:auto;mix-blend-mode:normal;color-interpolation:sRGB;color-interpolation-filters:linearRGB;solid-color:#000000;solid-opacity:1;fill:#044848;fill-opacity:1;fill-rule:nonzero;stroke:none;stroke-width:3.99999;stroke-linecap:round;stroke-linejoin:round;stroke-miterlimit:4;stroke-dasharray:none;stroke-dashoffset:0;stroke-opacity:1;paint-order:markers fill stroke;color-rendering:auto;image-rendering:auto;shape-rendering:auto;text-rendering:auto;enable-background:accumulate;stop-color:#000000"
         id="path3509" /><path
         sodipodi:nodetypes="sssssss"
         d="m 8.0000739,1.500132 c 0.83108,0 1.50013,0.669052 1.50013,1.500133 v 16.002708 c 0,0.831043 -0.66905,1.500095 -1.50013,1.500095 -0.83108,0 -1.50014,-0.669052 -1.50014,-1.500095 V 3.000265 c 0,-0.831081 0.66906,-1.500133 1.50014,-1.500133 z"
         style="fill:#14908c;fill-opacity:1;stroke:none;stroke-width:3.99999;stroke-linecap:round;stroke-linejoin:round;stroke-miterlimit:4;stroke-dasharray:none;paint-order:markers fill stroke"
         id="path3511" /><path
         d="m 11.008684,22.416567 c -0.88312,-0.01512 -1.7281101,0.369637 -2.3015401,1.041297 -1.05426,1.233827 -0.90618,3.134211 0.32769,4.188359 2.7349001,2.342136 5.7445001,2.938205 8.9684001,2.938205 3.22386,0 6.22707,-0.59675 8.96114,-2.938205 1.23395,-1.054148 1.38346,-2.954532 0.3292,-4.188359 -1.05411,-1.233902 -2.95309,-1.382022 -4.18688,-0.327685 -1.73666,1.487282 -2.34947,1.518425 -5.10346,1.518425 -2.75399,0 -3.37368,-0.03024 -5.10928,-1.518425 -0.526,-0.449877 -1.19327,-0.703105 -1.88534,-0.713537 z"
         style="color:#000000;font-style:normal;font-variant:normal;font-weight:normal;font-stretch:normal;font-size:medium;line-height:normal;font-family:sans-serif;font-variant-ligatures:normal;font-variant-position:normal;font-variant-caps:normal;font-variant-numeric:normal;font-variant-alternates:normal;font-variant-east-asian:normal;font-feature-settings:normal;font-variation-settings:normal;text-indent:0;text-align:start;text-decoration:none;text-decoration-line:none;text-decoration-style:solid;text-decoration-color:#000000;letter-spacing:normal;word-spacing:normal;text-transform:none;writing-mode:lr-tb;direction:ltr;text-orientation:mixed;dominant-baseline:auto;baseline-shift:baseline;text-anchor:start;white-space:normal;shape-padding:0;shape-margin:0;inline-size:0;clip-rule:nonzero;display:inline;overflow:visible;visibility:visible;isolation:auto;mix-blend-mode:normal;color-interpolation:sRGB;color-interpolation-filters:linearRGB;solid-color:#000000;solid-opacity:1;fill:#044848;fill-opacity:1;fill-rule:nonzero;stroke:none;stroke-width:3.99999;stroke-linecap:round;stroke-linejoin:round;stroke-miterlimit:4;stroke-dasharray:none;stroke-dashoffset:0;stroke-opacity:1;color-rendering:auto;image-rendering:auto;shape-rendering:auto;text-rendering:auto;enable-background:accumulate;stop-color:#000000"
         id="path3515" /><path
         id="path3517"
         d="m 10.986884,23.902375 a 1.4850609,1.4850609 0 0 0 -1.1510601,0.520705 1.4850609,1.4850609 0 0 0 0.1644101,2.093858 c 2.44248,2.091742 4.93701,2.58172 8.00266,2.58172 3.06565,0 5.55473,-0.489978 7.99721,-2.58172 a 1.4850609,1.4850609 0 0 0 0.16441,-2.093858 1.4850609,1.4850609 0 0 0 -2.09385,-0.164409 c -1.93788,1.65959 -3.23857,1.874607 -6.06781,1.874607 -2.82924,0 -4.13541,-0.215055 -6.07328,-1.874607 a 1.4850609,1.4850609 0 0 0 -0.94277,-0.35641 z"
         style="color:#000000;font-style:normal;font-variant:normal;font-weight:normal;font-stretch:normal;font-size:medium;line-height:normal;font-family:sans-serif;font-variant-ligatures:normal;font-variant-position:normal;font-variant-caps:normal;font-variant-numeric:normal;font-variant-alternates:normal;font-variant-east-asian:normal;font-feature-settings:normal;font-variation-settings:normal;text-indent:0;text-align:start;text-decoration:none;text-decoration-line:none;text-decoration-style:solid;text-decoration-color:#000000;letter-spacing:normal;word-spacing:normal;text-transform:none;writing-mode:lr-tb;direction:ltr;text-orientation:mixed;dominant-baseline:auto;baseline-shift:baseline;text-anchor:start;white-space:normal;shape-padding:0;shape-margin:0;inline-size:0;clip-rule:nonzero;display:inline;overflow:visible;visibility:visible;isolation:auto;mix-blend-mode:normal;color-interpolation:sRGB;color-interpolation-filters:linearRGB;solid-color:#000000;solid-opacity:1;fill:#14908c;fill-opacity:1;fill-rule:nonzero;stroke:none;stroke-width:3.99999;stroke-linecap:round;stroke-linejoin:round;stroke-miterlimit:4;stroke-dasharray:none;stroke-dashoffset:0;stroke-opacity:1;color-rendering:auto;image-rendering:auto;shape-rendering:auto;text-rendering:auto;enable-background:accumulate;stop-color:#000000" /><ellipse
         style="fill:#0a0f32;fill-opacity:0.2;fill-rule:nonzero;stroke:none;stroke-width:2.8;stroke-linecap:round;stroke-linejoin:round;stroke-miterlimit:4;stroke-dasharray:none;stroke-dashoffset:0;stroke-opacity:1;paint-order:markers fill stroke"
         id="ellipse3144-2-1-6-2-4"
         cx="8.000164"
         cy="41.500267"
         rx="7.0000496"
         ry="7" /><path
         id="path51462"
         style="color:#000000;fill:#603400;fill-opacity:1;stroke-linecap:square;stroke-linejoin:round;paint-order:markers stroke fill"
         d="m 8.0001339,12.500284 a 2.0002,2.0002 0 0 0 -1.66406,0.890625 l -1.40625,2.109375 h -2.92969 a 2.0002,2.0002 0 0 0 -1.78905997,2.894531 l 1.55272997,3.105469 -1.55272997,3.105469 a 2.0002,2.0002 0 0 0 1.78905997,2.894531 h 2 v 6.814453 c -1.16136,1.114154 -1.99548,2.532389 -2,4.179688 a 2.0002,2.0002 0 0 0 0,0.0059 v 2 c 0,3.290011 2.70998,6 6,6 3.2900201,0 6.0000001,-2.709989 6.0000001,-6 v -2 c -5e-4,-1.652613 -0.83491,-3.077707 -2,-4.195312 v -6.804688 h 2 a 2.0002,2.0002 0 0 0 1.78906,-2.894531 l -1.55273,-3.105469 1.55273,-3.105469 a 2.0002,2.0002 0 0 0 -1.78906,-2.894531 h -2.92969 L 9.6641939,13.390909 a 2.0002,2.0002 0 0 0 -1.66406,-0.890625 z" /><path
         id="path43226"
         style="fill:#b06c00;fill-opacity:1;stroke:none;stroke-width:8;stroke-linecap:square;stroke-linejoin:round;paint-order:markers stroke fill"
         d="m 4.0001339,38.500284 v 2 c 0,2.209139 1.79086,4 4,4 2.2091401,0 4.0000001,-1.790861 4.0000001,-4 v -2 z"
         sodipodi:nodetypes="cssscc" /><circle
         style="fill:#f4a420;fill-opacity:1;stroke:none;stroke-width:8;stroke-linecap:square;stroke-linejoin:round;paint-order:markers stroke fill"
         id="circle43228"
         cx="8.0001335"
         cy="38.500282"
         r="4" /><path
         id="circle43230"
         style="fill:#c07400;fill-opacity:1;stroke:none;stroke-width:8;stroke-linecap:square;stroke-linejoin:round;paint-order:markers stroke fill"
         d="m 6.0001339,22.500284 v 16 a 2,2 0 0 0 2,2 2,2 0 0 0 2.0000001,-2 v -16 z" /><path
         id="rect44301"
         style="fill:#b07000;fill-opacity:1;stroke:none;stroke-width:8;stroke-linecap:square;stroke-linejoin:round;paint-order:markers stroke fill"
         d="m 10.000134,27.303018 -1.1679701,1.751954 a 1.0001,1.0001 0 0 1 -0.83203,0.425781 v 11.019531 a 2,2 0 0 0 2.0000001,-2 z" /><path
         id="path48491"
         style="color:#000000;fill:#784400;fill-opacity:1;stroke-linecap:square;stroke-linejoin:round;paint-order:markers stroke fill"
         d="m 8.0001339,13.500284 a 1.0001,1.0001 0 0 0 -0.83203,0.445312 l -1.70313,2.554688 h -3.46484 a 1.0001,1.0001 0 0 0 -0.89453,1.447266 l 1.77734,3.552734 -1.77734,3.552734 a 1.0001,1.0001 0 0 0 0.89453,1.447266 h 3.46484 l 1.70313,2.554688 a 1.0001,1.0001 0 0 0 1.66406,0 l 1.7031301,-2.554688 h 3.46484 a 1.0001,1.0001 0 0 0 0.89453,-1.447266 l -1.77734,-3.552734 1.77734,-3.552734 a 1.0001,1.0001 0 0 0 -0.89453,-1.447266 h -3.46484 L 8.8321639,13.945596 a 1.0001,1.0001 0 0 0 -0.83203,-0.445312 z" /><path
         style="color:#000000;fill:#ffa420;fill-opacity:1;stroke:none;stroke-width:2;stroke-linecap:square;stroke-linejoin:round;stroke-opacity:1;paint-order:markers stroke fill"
         d="m 8.0001339,28.500284 -2,-3 h -4 l 2,-4 -2,-4 h 4 l 2,-3 2.0000001,3 h 4 l -2,4 2,4 h -4 z"
         id="path48493" /><path
         id="path44724"
         style="color:#000000;fill:#945400;fill-opacity:1;stroke-linecap:square;stroke-linejoin:round;paint-order:markers stroke fill"
         d="m 8.0001339,16.500284 c -2.74958,0 -5,2.250427 -5,5 0,2.749573 2.25042,5 5,5 2.7495801,0 5.0000001,-2.250427 5.0000001,-5 0,-2.749573 -2.25042,-5 -5.0000001,-5 z" /><circle
         style="fill:url(#radialGradient46678);fill-opacity:1;stroke:none;stroke-width:8;stroke-linecap:square;stroke-linejoin:round;paint-order:markers stroke fill"
         id="circle43236"
         cx="8.0001335"
         cy="21.500282"
         r="4" /><circle
         style="fill:#442800;fill-opacity:1;stroke:none;stroke-width:8;stroke-linecap:square;stroke-linejoin:round;paint-order:markers stroke fill"
         id="circle43238"
         cx="6.000134"
         cy="20.500282"
         r="1" /><circle
         style="fill:#442800;fill-opacity:1;stroke:none;stroke-width:8;stroke-linecap:square;stroke-linejoin:round;paint-order:markers stroke fill"
         id="circle43240"
         cx="10.000134"
         cy="20.500282"
         r="1" /><path
         id="circle43242"
         style="fill:#442800;fill-opacity:1;stroke:none;stroke-width:8;stroke-linecap:square;stroke-linejoin:round;paint-order:markers stroke fill"
         d="m 6.0001339,22.500284 a 2,2 0 0 0 2,2 2,2 0 0 0 2.0000001,-2 z" /></g></g></svg>
