<?xml version="1.0" encoding="utf-8"?>
<!-- Generator: Adobe Illustrator 24.1.2, SVG Export Plug-In . SVG Version: 6.00 Build 0)  -->
<svg version="1.1" id="Capa_1" xmlns="http://www.w3.org/2000/svg" xmlns:xlink="http://www.w3.org/1999/xlink" x="0px" y="0px"
	 viewBox="0 0 1.5 2.4" enable-background="new 0 0 1.5 2.4" xml:space="preserve">
<g>
	<g id="g5195">
		<path id="path5191" fill="#701E0B" fill-opacity="0.9765" d="M0.652,0.946C0.608,0.945,0.565,0.965,0.537,0.998
			C0.484,1.059,0.492,1.155,0.553,1.207C0.69,1.325,0.84,1.354,1.001,1.354s0.312-0.029,0.448-0.147
			C1.51,1.154,1.518,1.059,1.465,0.998S1.317,0.929,1.256,0.982C1.169,1.055,1.138,1.058,1.001,1.058S0.832,1.057,0.745,0.982
			C0.72,0.959,0.686,0.946,0.652,0.946z"/>
		<path id="path5193" fill="#F13F46" d="M0.65,1.021c-0.023,0-0.043,0.009-0.057,0.027C0.566,1.077,0.57,1.125,0.601,1.151l0,0
			c0.123,0.104,0.247,0.13,0.4,0.13s0.277-0.024,0.4-0.129c0.031-0.027,0.035-0.073,0.008-0.105l0,0
			C1.382,1.015,1.336,1.011,1.304,1.038l0,0C1.206,1.121,1.142,1.131,1,1.131s-0.207-0.01-0.304-0.093
			C0.684,1.026,0.668,1.021,0.65,1.021z"/>
	</g>
	<g id="layer1" transform="translate(-58.076041,-83.563447)">
		<g id="g5189" transform="matrix(0.04999992,0,0,0.04999992,48.987619,88.425163)">
			<g id="g5167">
				<path id="path5163" fill="#701E0B" fill-opacity="0.9765" d="M191.772-97.234c-1.636,0-3.001,1.364-3.001,3v15.999
					c0,1.636,1.365,3.001,3.001,3.001s2.994-1.365,2.994-3.001v-15.999C194.765-95.87,193.408-97.234,191.772-97.234z"/>
				<path id="path5165" fill="#F13F46" d="M191.768-95.734c0.831,0,1.5,0.669,1.5,1.5v16.002c0,0.831-0.669,1.5-1.5,1.5
					s-1.5-0.669-1.5-1.5v-16.002C190.268-95.065,190.937-95.734,191.768-95.734z"/>
			</g>
		</g>
	</g>
	<g>
		<g>
			<g>
				<circle id="circle16099" fill="#0A0F32" fill-opacity="0.2" cx="0.5" cy="1.9" r="0.5"/>
			</g>
		</g>
		<path fill="#4A330A" d="M0.8,1.65v0.1c0,0.082-0.034,0.157-0.088,0.212C0.658,2.016,0.583,2.05,0.5,2.05
			c-0.165,0-0.3-0.135-0.3-0.3v-0.1c0-0.1,0.049-0.189,0.125-0.243V1.2h0.35v0.207C0.751,1.461,0.8,1.55,0.8,1.65z"/>
		<path fill="#B8912D" d="M0.5,1.425L0.5,1.425c-0.124,0-0.225,0.101-0.225,0.225v0.1c0,0.124,0.101,0.225,0.225,0.225l0,0
			c0.124,0,0.225-0.101,0.225-0.225v-0.1C0.725,1.526,0.624,1.425,0.5,1.425z"/>
		<path fill="#FFDE37" d="M0.5,1.425L0.5,1.425c-0.124,0-0.225,0.101-0.225,0.225v0.028c0,0.124,0.101,0.225,0.225,0.225l0,0
			c0.124,0,0.225-0.101,0.225-0.225V1.65C0.725,1.526,0.624,1.425,0.5,1.425z"/>
		<path fill="#C09727" d="M0.6,1.15v0.5c0,0.027-0.011,0.052-0.03,0.07C0.56,1.73,0.55,1.737,0.537,1.742
			C0.533,1.744,0.53,1.745,0.525,1.746C0.517,1.749,0.508,1.75,0.5,1.75c-0.055,0-0.1-0.045-0.1-0.1v-0.5c0-0.055,0.045-0.1,0.1-0.1
			c0.008,0,0.017,0.001,0.025,0.004c0.004,0.001,0.008,0.002,0.012,0.004C0.574,1.072,0.6,1.108,0.6,1.15z"/>
		<path fill="#D5BC2B" d="M0.6,1.15v0.5c0,0.027-0.011,0.052-0.03,0.07C0.56,1.73,0.55,1.737,0.537,1.742
			C0.501,1.728,0.475,1.692,0.475,1.65v-0.5c0-0.042,0.026-0.077,0.062-0.093C0.574,1.072,0.6,1.108,0.6,1.15z"/>
		<path fill="#AE3059" d="M0.9,0.9c0,0.171-0.293,0.415-0.377,0.482c-0.013,0.011-0.032,0.011-0.045,0
			C0.393,1.315,0.1,1.071,0.1,0.9c0-0.15,0.1-0.25,0.25-0.25c0,0,0.1,0,0.15,0.075C0.55,0.65,0.65,0.65,0.65,0.65
			C0.8,0.65,0.9,0.75,0.9,0.9z"/>
		<path fill="#FF91CB" d="M0.5,1.3c0,0-0.35-0.25-0.323-0.424c0.021-0.134,0.18-0.19,0.274-0.092C0.47,0.804,0.488,0.826,0.5,0.85
			c0.012-0.024,0.03-0.046,0.049-0.067c0.093-0.098,0.253-0.042,0.274,0.092C0.85,1.05,0.5,1.3,0.5,1.3z"/>
		<path fill="#F74FA7" d="M0.714,0.973c0,0.093-0.214,0.252-0.214,0.252S0.286,1.066,0.286,0.973c0-0.01,0-0.02,0.001-0.029
			c0.008-0.089,0.119-0.126,0.181-0.061C0.48,0.896,0.492,0.911,0.5,0.927c0.008-0.016,0.02-0.031,0.032-0.044
			c0.062-0.065,0.172-0.028,0.181,0.061C0.714,0.953,0.714,0.963,0.714,0.973z"/>
	</g>
</g>
</svg>
