<?xml version="1.0" encoding="utf-8"?>
<!-- Generator: Adobe Illustrator 24.1.2, SVG Export Plug-In . SVG Version: 6.00 Build 0)  -->
<svg version="1.1"
	 id="svg3893" xmlns:cc="http://creativecommons.org/ns#" xmlns:dc="http://purl.org/dc/elements/1.1/" xmlns:inkscape="http://www.inkscape.org/namespaces/inkscape" xmlns:rdf="http://www.w3.org/1999/02/22-rdf-syntax-ns#" xmlns:sodipodi="http://sodipodi.sourceforge.net/DTD/sodipodi-0.dtd" xmlns:svg="http://www.w3.org/2000/svg"
	 xmlns="http://www.w3.org/2000/svg" xmlns:xlink="http://www.w3.org/1999/xlink" x="0px" y="0px" width="1.5px" height="2.75px"
	 viewBox="0 0 1.5 2.75" enable-background="new 0 0 1.5 2.75" xml:space="preserve">
<ellipse id="ellipse5169" fill-opacity="0.18" cx="0.5" cy="2.075" rx="0.5" ry="0.5"/>
<g>
	<g id="g5195">
		<path id="path5191" fill="#002F22" d="M0.651,1.121C0.607,1.12,0.564,1.14,0.536,1.173C0.483,1.234,0.491,1.33,0.552,1.382
			C0.689,1.5,0.839,1.529,1,1.529S1.312,1.5,1.448,1.382c0.061-0.053,0.069-0.148,0.016-0.209S1.316,1.104,1.255,1.157
			C1.168,1.23,1.137,1.233,1,1.233S0.831,1.232,0.744,1.157C0.719,1.134,0.685,1.121,0.651,1.121z"/>
		<path id="path5193" fill="#008661" d="M0.649,1.196c-0.023,0-0.043,0.009-0.057,0.027C0.565,1.252,0.569,1.3,0.6,1.326l0,0
			C0.723,1.43,0.847,1.456,1,1.456s0.277-0.024,0.4-0.129C1.431,1.3,1.435,1.254,1.408,1.222l0,0
			C1.381,1.19,1.335,1.186,1.303,1.213l0,0C1.205,1.296,1.141,1.306,0.999,1.306s-0.207-0.01-0.304-0.093
			C0.683,1.201,0.667,1.196,0.649,1.196z"/>
		<path fill="#004836" d="M1.063,1.305v0.149C1.042,1.455,1.021,1.455,1,1.455c-0.021,0-0.042,0-0.063-0.002V1.305
			c0.019,0,0.039,0.001,0.062,0.001C1.022,1.305,1.043,1.305,1.063,1.305z"/>
		<path fill="#004836" d="M0.813,1.285v0.151C0.804,1.434,0.797,1.432,0.789,1.429c-0.035-0.01-0.068-0.024-0.101-0.043v-0.18
			C0.69,1.208,0.693,1.21,0.695,1.213C0.737,1.249,0.773,1.271,0.813,1.285z"/>
		<path fill="#004836" d="M1.313,1.206v0.181C1.272,1.411,1.23,1.426,1.187,1.436V1.284C1.225,1.27,1.261,1.248,1.303,1.213
			C1.306,1.21,1.309,1.207,1.313,1.206z"/>
	</g>
	<g>
		<path fill="#311842" d="M0.85,1.375v0.05c0,0.067-0.026,0.131-0.073,0.183L0.75,2.079C0.748,2.214,0.636,2.325,0.5,2.325
			S0.252,2.214,0.25,2.079L0.223,1.608C0.214,1.599,0.207,1.589,0.201,1.58C0.167,1.534,0.15,1.48,0.15,1.425v-0.05
			c0-0.039,0.009-0.077,0.026-0.114C0.183,1.247,0.191,1.233,0.2,1.22c0.002-0.163,0.136-0.295,0.3-0.295S0.798,1.057,0.8,1.22
			C0.833,1.267,0.85,1.32,0.85,1.375z"/>
		<path fill="#44225C" d="M0.7,1.225L0.698,1.248v0.003c0,0.001,0,0.001,0,0.001l0,0.001L0.696,1.294c0,0.001,0,0.001,0,0.001
			L0.695,1.309L0.694,1.323c0,0,0,0,0,0.001L0.692,1.368L0.688,1.426L0.68,1.564L0.679,1.577L0.676,1.629L0.65,2.075
			c0,0.065-0.042,0.121-0.1,0.141C0.535,2.222,0.517,2.225,0.5,2.225c-0.083,0-0.15-0.067-0.15-0.15L0.324,1.629L0.321,1.577
			L0.32,1.564L0.312,1.426L0.308,1.368L0.306,1.323c0-0.001,0-0.001,0-0.001L0.305,1.309L0.304,1.295c0,0,0,0,0-0.001L0.302,1.253
			l0-0.002V1.248L0.3,1.225c0-0.111,0.089-0.2,0.2-0.2c0.017,0,0.034,0.002,0.05,0.007C0.636,1.054,0.7,1.132,0.7,1.225z"/>
		<path fill="#50286D" d="M0.7,1.225L0.698,1.248v0.003c0,0.001,0,0.001,0,0.001l0,0.001L0.696,1.294c0,0.001,0,0.001,0,0.001
			L0.695,1.309L0.694,1.323c0,0,0,0,0,0.001L0.692,1.368L0.688,1.426L0.68,1.564L0.679,1.577L0.676,1.629L0.65,2.075
			c0,0.065-0.042,0.121-0.1,0.141c-0.058-0.02-0.1-0.076-0.1-0.141L0.424,1.629L0.421,1.577L0.42,1.564L0.412,1.426L0.408,1.368
			L0.406,1.323c0-0.001,0-0.001,0-0.001L0.405,1.309L0.404,1.295c0,0,0,0,0-0.001L0.402,1.253l0-0.002V1.248L0.4,1.225
			c0-0.093,0.064-0.171,0.15-0.193C0.636,1.054,0.7,1.132,0.7,1.225z"/>
		<path fill="#9E28FF" d="M0.7,1.225c0,0.01-0.001,0.019-0.002,0.028C0.696,1.267,0.692,1.28,0.688,1.293
			C0.66,1.37,0.586,1.425,0.5,1.425S0.34,1.37,0.313,1.293C0.308,1.28,0.304,1.267,0.302,1.253C0.301,1.244,0.3,1.235,0.3,1.225
			c0-0.111,0.089-0.2,0.2-0.2c0.023,0,0.046,0.004,0.067,0.012c0.023,0.008,0.043,0.02,0.061,0.035C0.672,1.108,0.7,1.163,0.7,1.225
			z"/>
		<path fill="#7524C3" d="M0.605,1.226C0.602,1.274,0.58,1.308,0.543,1.324c-0.014,0.007-0.03,0.01-0.046,0.01
			c-0.023,0-0.046-0.007-0.063-0.02C0.406,1.292,0.39,1.259,0.39,1.223C0.39,1.173,0.418,1.124,0.467,1.087
			c0.028-0.021,0.064-0.038,0.1-0.05c0.023,0.008,0.043,0.02,0.061,0.035c-0.046,0.012-0.097,0.03-0.13,0.055
			C0.461,1.154,0.44,1.189,0.44,1.223c0,0.021,0.009,0.04,0.025,0.052c0.012,0.009,0.037,0.013,0.058,0.004
			c0.02-0.009,0.03-0.026,0.032-0.053c-0.001-0.006-0.003-0.01-0.004-0.01c-0.004-0.002-0.014,0-0.021,0.004
			C0.518,1.226,0.503,1.22,0.497,1.208C0.491,1.195,0.496,1.181,0.508,1.174c0.004-0.002,0.039-0.018,0.067-0.002
			C0.587,1.179,0.602,1.194,0.605,1.226z"/>
		<path fill="#0C564A" d="M0.75,1.375v0.05c0,0.054-0.027,0.102-0.07,0.139C0.635,1.601,0.57,1.625,0.5,1.625
			S0.365,1.601,0.32,1.564C0.305,1.551,0.292,1.538,0.283,1.523C0.327,1.555,0.386,1.575,0.45,1.575c0.07,0,0.135-0.024,0.18-0.061
			C0.673,1.477,0.7,1.429,0.7,1.375v-0.05c0-0.012-0.002-0.024-0.004-0.035l0.002-0.038l0,0.001C0.73,1.288,0.75,1.329,0.75,1.375z"
			/>
		<path fill="#107161" d="M0.7,1.325v0.05c0,0.054-0.027,0.102-0.07,0.139C0.585,1.551,0.52,1.575,0.45,1.575
			c-0.064,0-0.123-0.02-0.167-0.052C0.261,1.494,0.25,1.46,0.25,1.425v-0.05c0-0.025,0.006-0.049,0.017-0.071
			c0.008-0.018,0.02-0.034,0.035-0.049V1.254c0.001,0,0.001,0,0.001-0.001l0.002,0.041c0,0.001,0,0.001,0,0.001l0.001,0.014
			l0.001,0.014c0,0,0,0,0,0.001C0.308,1.33,0.31,1.337,0.313,1.343C0.318,1.36,0.327,1.376,0.336,1.389
			C0.373,1.441,0.432,1.475,0.5,1.475c0.086,0,0.16-0.055,0.188-0.132C0.69,1.337,0.692,1.33,0.694,1.323c0-0.001,0-0.001,0-0.001
			l0.001-0.014l0.001-0.014c0,0,0,0,0-0.001V1.29C0.698,1.301,0.7,1.313,0.7,1.325z"/>
	</g>
</g>
</svg>
