<?xml version="1.0" encoding="utf-8"?>
<!-- Generator: Adobe Illustrator 24.1.2, SVG Export Plug-In . SVG Version: 6.00 Build 0)  -->
<svg version="1.1"
	 id="svg3893" xmlns:cc="http://creativecommons.org/ns#" xmlns:dc="http://purl.org/dc/elements/1.1/" xmlns:inkscape="http://www.inkscape.org/namespaces/inkscape" xmlns:rdf="http://www.w3.org/1999/02/22-rdf-syntax-ns#" xmlns:sodipodi="http://sodipodi.sourceforge.net/DTD/sodipodi-0.dtd" xmlns:svg="http://www.w3.org/2000/svg"
	 xmlns="http://www.w3.org/2000/svg" xmlns:xlink="http://www.w3.org/1999/xlink" x="0px" y="0px" width="1.5px" height="2.75px"
	 viewBox="0 0 1.5 2.75" enable-background="new 0 0 1.5 2.75" xml:space="preserve">
<ellipse id="ellipse5169" fill-opacity="0.18" cx="0.5" cy="2.075" rx="0.5" ry="0.5"/>
<g>
	<g id="layer1" transform="translate(-58.076041,-83.563447)" inkscape:groupmode="layer" inkscape:label="Layer 1">
		<g id="g5189" transform="matrix(0.04999992,0,0,0.04999992,48.987619,88.425163)">
			<g id="g5167">
				<path id="path5163" sodipodi:nodetypes="sssssss" fill="#1B365E" d="M191.772-88.234c-1.636,0-3.001,1.364-3.001,3v15.999
					c0,1.636,1.365,3.001,3.001,3.001s2.994-1.365,2.994-3.001v-15.999C194.765-86.87,193.408-88.234,191.772-88.234z"/>
				<path id="path5165" sodipodi:nodetypes="sssssss" fill="#7175A6" d="M191.768-86.734c0.831,0,1.5,0.669,1.5,1.5v16.002
					c0,0.831-0.669,1.5-1.5,1.5s-1.5-0.669-1.5-1.5v-16.002C190.268-86.065,190.937-86.734,191.768-86.734z"/>
			</g>
		</g>
	</g>
	<g id="g5195">
		<path id="path5191" fill="#1B365E" d="M0.651,1.321C0.607,1.32,0.564,1.34,0.536,1.373C0.483,1.434,0.491,1.53,0.552,1.582
			C0.689,1.7,0.839,1.729,1,1.729S1.312,1.7,1.448,1.582c0.061-0.053,0.069-0.148,0.016-0.209S1.316,1.304,1.255,1.357
			C1.168,1.43,1.137,1.433,1,1.433S0.831,1.432,0.744,1.357C0.719,1.334,0.685,1.321,0.651,1.321z"/>
		<path id="path5193" fill="#7175A6" d="M0.649,1.396c-0.023,0-0.043,0.009-0.057,0.027C0.565,1.452,0.569,1.5,0.6,1.526l0,0
			C0.723,1.63,0.847,1.656,1,1.656s0.277-0.024,0.4-0.129C1.431,1.5,1.435,1.454,1.408,1.422l0,0
			C1.381,1.39,1.335,1.386,1.303,1.413l0,0C1.205,1.496,1.141,1.506,0.999,1.506s-0.207-0.01-0.304-0.093
			C0.683,1.401,0.667,1.396,0.649,1.396z"/>
	</g>
	<g>
		<path fill="#1B365E" d="M0.75,1.975v0.05c0,0.112-0.11,0.2-0.25,0.2s-0.25-0.088-0.25-0.2v-0.05c0-0.065,0.038-0.124,0.1-0.16
			v-0.24c0-0.083,0.067-0.15,0.15-0.15s0.15,0.067,0.15,0.15v0.24C0.712,1.851,0.75,1.91,0.75,1.975z"/>
		<path fill="#5D6497" d="M0.675,1.975c0,0.008-0.001,0.017-0.004,0.025C0.655,2.057,0.585,2.1,0.5,2.1S0.345,2.057,0.329,2
			C0.326,1.992,0.325,1.983,0.325,1.975c0-0.069,0.079-0.125,0.175-0.125S0.675,1.906,0.675,1.975z"/>
		<path fill="#8B8BBE" d="M0.675,1.975v0.05c0,0.069-0.079,0.125-0.175,0.125S0.325,2.094,0.325,2.025v-0.05
			c0,0.008,0.001,0.017,0.004,0.025C0.345,2.057,0.415,2.1,0.5,2.1S0.655,2.057,0.671,2C0.674,1.992,0.675,1.983,0.675,1.975z"/>
		<path fill="#7373A5" d="M0.525,1.925c0,0.022,0.01,0.042,0.025,0.055C0.537,1.992,0.52,2,0.5,2C0.458,2,0.425,1.966,0.425,1.925
			v-0.2c0-0.042,0.033-0.075,0.075-0.075c0.02,0,0.037,0.007,0.05,0.02C0.535,1.683,0.525,1.703,0.525,1.725V1.925z"/>
		<path fill="#5D6497" d="M0.575,1.725v0.2c0,0.022-0.01,0.042-0.025,0.055C0.535,1.967,0.525,1.947,0.525,1.925v-0.2
			c0-0.022,0.01-0.042,0.025-0.055C0.565,1.683,0.575,1.703,0.575,1.725z"/>
		<path fill="#693609" d="M0.5,1.225L0.5,1.225c-0.11,0-0.2,0.09-0.2,0.2v0.1c0,0.11,0.09,0.2,0.2,0.2h0c0.11,0,0.2-0.09,0.2-0.2
			v-0.1C0.7,1.315,0.61,1.225,0.5,1.225z"/>
		<path fill="#F0A407" d="M0.5,1.3L0.5,1.3c-0.069,0-0.125,0.056-0.125,0.125v0.1c0,0.069,0.056,0.125,0.125,0.125h0
			c0.069,0,0.125-0.056,0.125-0.125v-0.1C0.625,1.356,0.569,1.3,0.5,1.3z"/>
		<g>
			<path fill="#1B365E" d="M0.675,0.65l-0.1,0.15l0.1,0.15v0.1L0.5,1.15l-0.175-0.1v-0.1l0.1-0.15l-0.1-0.15l-0.25,0.2V1.2L0.5,1.45
				L0.925,1.2V0.85L0.675,0.65z M0.86,1.163L0.5,1.374L0.14,1.163V0.881l0.17-0.136L0.347,0.8L0.271,0.914
				C0.264,0.924,0.26,0.937,0.26,0.95v0.1c0,0.023,0.012,0.045,0.033,0.057l0.175,0.1C0.477,1.212,0.489,1.215,0.5,1.215
				s0.023-0.003,0.032-0.008l0.175-0.1C0.727,1.095,0.74,1.073,0.74,1.05v-0.1c0-0.013-0.004-0.026-0.011-0.036L0.653,0.8
				L0.69,0.745l0.17,0.136V1.163z"/>
			<polygon fill="#8D8EC1" points="0.31,0.745 0.347,0.8 0.314,0.85 0.31,0.845 0.14,0.981 0.14,0.881 			"/>
			<polygon fill="#8D8EC1" points="0.86,0.881 0.86,0.981 0.69,0.845 0.686,0.85 0.653,0.8 0.69,0.745 			"/>
			<path fill="#7175A6" d="M0.86,0.981v0.182L0.5,1.374L0.14,1.163V0.981l0.17-0.136L0.314,0.85L0.271,0.914
				C0.264,0.924,0.26,0.937,0.26,0.95v0.1c0,0.023,0.012,0.045,0.033,0.057l0.175,0.1C0.477,1.212,0.489,1.215,0.5,1.215
				s0.023-0.003,0.032-0.008l0.175-0.1C0.727,1.095,0.74,1.073,0.74,1.05v-0.1c0-0.013-0.004-0.026-0.011-0.036L0.686,0.85
				L0.69,0.845L0.86,0.981z"/>
		</g>
		<g>
			<circle fill="#1B365E" cx="0.5" cy="1.25" r="0.25"/>
			<path fill="#8D8EC1" d="M0.675,1.25c0,0.013-0.002,0.026-0.004,0.038C0.654,1.366,0.583,1.425,0.5,1.425S0.346,1.366,0.329,1.288
				C0.327,1.276,0.325,1.263,0.325,1.25c0-0.096,0.079-0.175,0.175-0.175S0.675,1.154,0.675,1.25z"/>
			<ellipse fill="#7175A6" cx="0.5" cy="1.288" rx="0.171" ry="0.138"/>
		</g>
	</g>
</g>
</svg>
