<?xml version="1.0" encoding="utf-8"?>
<!-- Generator: Adobe Illustrator 24.1.2, SVG Export Plug-In . SVG Version: 6.00 Build 0)  -->
<svg version="1.1"
	 id="svg3893" xmlns:cc="http://creativecommons.org/ns#" xmlns:dc="http://purl.org/dc/elements/1.1/" xmlns:inkscape="http://www.inkscape.org/namespaces/inkscape" xmlns:rdf="http://www.w3.org/1999/02/22-rdf-syntax-ns#" xmlns:sodipodi="http://sodipodi.sourceforge.net/DTD/sodipodi-0.dtd" xmlns:svg="http://www.w3.org/2000/svg"
	 xmlns="http://www.w3.org/2000/svg" xmlns:xlink="http://www.w3.org/1999/xlink" x="0px" y="0px" width="1.5px" height="2.75px"
	 viewBox="0 0 1.5 2.75" enable-background="new 0 0 1.5 2.75" xml:space="preserve">
<ellipse id="ellipse5169" fill-opacity="0.18" cx="0.5" cy="2.075" rx="0.5" ry="0.5"/>
<g>
	<g id="layer1" transform="translate(-58.076041,-83.563447)" inkscape:groupmode="layer" inkscape:label="Layer 1">
		<g id="g5189" transform="matrix(0.04999992,0,0,0.04999992,48.987619,88.425163)">
			<g id="g5167">
				<path id="path5163" sodipodi:nodetypes="sssssss" fill="#002F22" d="M191.772-90.234c-1.636,0-3.001,1.364-3.001,3v15.999
					c0,1.636,1.365,3.001,3.001,3.001s2.994-1.365,2.994-3.001v-15.999C194.765-88.87,193.408-90.234,191.772-90.234z"/>
				<path id="path5165" sodipodi:nodetypes="sssssss" fill="#008661" d="M191.768-88.734c0.831,0,1.5,0.669,1.5,1.5v16.002
					c0,0.831-0.669,1.5-1.5,1.5s-1.5-0.669-1.5-1.5v-16.002C190.268-88.065,190.937-88.734,191.768-88.734z"/>
			</g>
		</g>
		<rect x="58.501" y="84.401" fill="#004836" width="0.15" height="0.125"/>
		<rect x="58.501" y="84.659" fill="#004836" width="0.15" height="0.125"/>
		<rect x="58.501" y="84.142" fill="#004836" width="0.15" height="0.125"/>
	</g>
	<g>
		<path fill="#311842" d="M0.85,1.375v0.05c0,0.067-0.026,0.131-0.073,0.183L0.75,2.079C0.748,2.214,0.636,2.325,0.5,2.325
			S0.252,2.214,0.25,2.079L0.223,1.608C0.214,1.599,0.207,1.589,0.201,1.58C0.167,1.534,0.15,1.48,0.15,1.425v-0.05
			c0-0.039,0.009-0.077,0.026-0.114C0.183,1.247,0.191,1.233,0.2,1.22c0.002-0.163,0.136-0.295,0.3-0.295S0.798,1.057,0.8,1.22
			C0.833,1.267,0.85,1.32,0.85,1.375z"/>
		<path fill="#44225C" d="M0.7,1.225L0.698,1.248v0.003c0,0.001,0,0.001,0,0.001v0.001L0.696,1.294c0,0.001,0,0.001,0,0.001
			L0.695,1.309L0.694,1.323c0,0,0,0,0,0.001L0.692,1.368L0.688,1.426L0.68,1.564L0.679,1.577L0.676,1.629L0.65,2.075
			c0,0.065-0.042,0.121-0.1,0.141C0.535,2.222,0.517,2.225,0.5,2.225c-0.083,0-0.15-0.067-0.15-0.15L0.324,1.629L0.321,1.577
			L0.32,1.564L0.312,1.426L0.308,1.368L0.306,1.323c0-0.001,0-0.001,0-0.001L0.305,1.309L0.304,1.295c0,0,0,0,0-0.001L0.302,1.253
			V1.251V1.248L0.3,1.225c0-0.111,0.089-0.2,0.2-0.2c0.017,0,0.034,0.002,0.05,0.007C0.636,1.054,0.7,1.132,0.7,1.225z"/>
		<path fill="#50286D" d="M0.7,1.225L0.698,1.248v0.003c0,0.001,0,0.001,0,0.001v0.001L0.696,1.294c0,0.001,0,0.001,0,0.001
			L0.695,1.309L0.694,1.323c0,0,0,0,0,0.001L0.692,1.368L0.688,1.426L0.68,1.564L0.679,1.577L0.676,1.629L0.65,2.075
			c0,0.065-0.042,0.121-0.1,0.141c-0.058-0.02-0.1-0.076-0.1-0.141L0.424,1.629L0.421,1.577L0.42,1.564L0.412,1.426L0.408,1.368
			L0.406,1.323c0-0.001,0-0.001,0-0.001L0.405,1.309L0.404,1.295c0,0,0,0,0-0.001L0.402,1.253V1.251V1.248L0.4,1.225
			c0-0.093,0.064-0.171,0.15-0.193C0.636,1.054,0.7,1.132,0.7,1.225z"/>
		<path fill="#9E28FF" d="M0.7,1.225c0,0.01-0.001,0.019-0.002,0.028c-0.002,0.014-0.006,0.027-0.01,0.04
			C0.66,1.37,0.586,1.425,0.5,1.425S0.34,1.37,0.313,1.293C0.308,1.28,0.304,1.267,0.302,1.253C0.301,1.244,0.3,1.235,0.3,1.225
			c0-0.111,0.089-0.2,0.2-0.2c0.023,0,0.046,0.004,0.067,0.012C0.59,1.045,0.61,1.057,0.628,1.072C0.672,1.108,0.7,1.163,0.7,1.225z
			"/>
		<path fill="#7524C3" d="M0.605,1.226C0.602,1.274,0.58,1.308,0.543,1.324c-0.014,0.007-0.03,0.01-0.046,0.01
			c-0.023,0-0.046-0.007-0.063-0.02C0.406,1.292,0.39,1.259,0.39,1.223c0-0.05,0.028-0.099,0.077-0.136
			c0.028-0.021,0.064-0.038,0.1-0.05C0.59,1.045,0.61,1.057,0.628,1.072c-0.046,0.012-0.097,0.03-0.13,0.055
			C0.461,1.154,0.44,1.189,0.44,1.223c0,0.021,0.009,0.04,0.025,0.052c0.012,0.009,0.037,0.013,0.058,0.004
			c0.02-0.009,0.03-0.026,0.032-0.053c-0.001-0.006-0.003-0.01-0.004-0.01c-0.004-0.002-0.014,0-0.021,0.004
			c-0.012,0.006-0.027,0-0.033-0.012C0.491,1.195,0.496,1.181,0.508,1.174c0.004-0.002,0.039-0.018,0.067-0.002
			C0.587,1.179,0.602,1.194,0.605,1.226z"/>
		<path fill="#0C564A" d="M0.75,1.375v0.05c0,0.054-0.027,0.102-0.07,0.139C0.635,1.601,0.57,1.625,0.5,1.625
			S0.365,1.601,0.32,1.564C0.305,1.551,0.292,1.538,0.283,1.523C0.327,1.555,0.386,1.575,0.45,1.575c0.07,0,0.135-0.024,0.18-0.061
			C0.673,1.477,0.7,1.429,0.7,1.375v-0.05c0-0.012-0.002-0.024-0.004-0.035l0.002-0.038v0.001C0.73,1.288,0.75,1.329,0.75,1.375z"/>
		<path fill="#107161" d="M0.7,1.325v0.05c0,0.054-0.027,0.102-0.07,0.139C0.585,1.551,0.52,1.575,0.45,1.575
			c-0.064,0-0.123-0.02-0.167-0.052C0.261,1.494,0.25,1.46,0.25,1.425v-0.05c0-0.025,0.006-0.049,0.017-0.071
			c0.008-0.018,0.02-0.034,0.035-0.049V1.254c0.001,0,0.001,0,0.001-0.001l0.002,0.041c0,0.001,0,0.001,0,0.001l0.001,0.014
			l0.001,0.014c0,0,0,0,0,0.001C0.308,1.33,0.31,1.337,0.313,1.343C0.318,1.36,0.327,1.376,0.336,1.389
			C0.373,1.441,0.432,1.475,0.5,1.475c0.086,0,0.16-0.055,0.188-0.132C0.69,1.337,0.692,1.33,0.694,1.323c0-0.001,0-0.001,0-0.001
			l0.001-0.014l0.001-0.014c0,0,0,0,0-0.001V1.29C0.698,1.301,0.7,1.313,0.7,1.325z"/>
	</g>
</g>
</svg>
