<?xml version="1.0" encoding="utf-8"?>
<!-- Generator: Adobe Illustrator 24.1.2, SVG Export Plug-In . SVG Version: 6.00 Build 0)  -->
<svg version="1.1" id="Capa_1" xmlns="http://www.w3.org/2000/svg" xmlns:xlink="http://www.w3.org/1999/xlink" x="0px" y="0px"
	 width="1px" height="1.8px" viewBox="0 0 1 1.8" enable-background="new 0 0 1 1.8" xml:space="preserve">
<g>
	<path id="rect10315" fill="#0A0F32" fill-opacity="0.2" d="M0.1,1.35h0.8C0.956,1.35,1,1.401,1,1.463v0.225
		C1,1.749,0.955,1.8,0.9,1.8H0.1C0.045,1.8,0,1.749,0,1.688V1.463C0,1.401,0.045,1.35,0.1,1.35z"/>
</g>
<g>
	<rect y="0.7" fill="#5B4620" width="1" height="0.8"/>
	<path fill="#766038" d="M0.9,1v0.4H0.1V1c0,0.055,0.045,0.1,0.1,0.1h0.6C0.855,1.1,0.9,1.055,0.9,1z"/>
	<g>
		<path fill="#695532" d="M0.25,1v0.1H0.2C0.145,1.1,0.1,1.055,0.1,1V0.973C0.13,0.99,0.164,1,0.2,1H0.25z"/>
		<path fill="#695532" d="M0.9,0.973V1c0,0.055-0.045,0.1-0.1,0.1H0.75V1H0.8C0.836,1,0.87,0.99,0.9,0.973z"/>
	</g>
	<g>
		<path fill="#87744E" d="M0.75,1v0.25c0,0.027-0.023,0.05-0.05,0.05H0.3c-0.027,0-0.05-0.023-0.05-0.05V1H0.75z"/>
		<rect x="0.65" y="1" fill="#524122" width="0.1" height="0.1"/>
		<rect x="0.25" y="1" fill="#524122" width="0.1" height="0.1"/>
		<path fill="#614B27" d="M0.75,1.1v0.1c0,0.027-0.023,0.05-0.05,0.05H0.3c-0.027,0-0.05-0.023-0.05-0.05V1.1H0.75z"/>
	</g>
	<g>
		<rect x="0.35" y="1" fill="#554323" width="0.3" height="0.2"/>
		<rect x="0.35" y="1.1" fill="#87744E" width="0.3" height="0.05"/>
		<rect x="0.35" y="1" fill="#7D653B" width="0.3" height="0.1"/>
	</g>
	<path fill="#135B1A" d="M1,0.75V0.8c0,0.074-0.04,0.138-0.1,0.173C0.87,0.99,0.836,1,0.8,1H0.2C0.164,1,0.13,0.99,0.1,0.973
		C0.04,0.938,0,0.874,0,0.8V0.75c0,0.074,0.04,0.138,0.1,0.173c0.027,0.015,0.058,0.025,0.09,0.027C0.193,0.95,0.196,0.95,0.2,0.95
		h0.175c0.042,0,0.075-0.034,0.075-0.075c0,0.041,0.033,0.075,0.075,0.075H0.8c0.004,0,0.007,0,0.01-0.001
		C0.842,0.948,0.873,0.938,0.9,0.923C0.96,0.888,1,0.824,1,0.75z"/>
	<path fill="#1A5A11" d="M1,0.2v0.55c0,0.107-0.084,0.195-0.19,0.199C0.807,0.95,0.804,0.95,0.8,0.95H0.525
		c-0.042,0-0.075-0.034-0.075-0.075c0,0.041-0.033,0.075-0.075,0.075H0.2c-0.004,0-0.007,0-0.01-0.001C0.084,0.945,0,0.857,0,0.75
		V0.2C0,0.089,0.089,0,0.2,0h0.6C0.911,0,1,0.089,1,0.2z"/>
	<path fill="#379A21" d="M0.9,0.2v0.65c0,0.051-0.039,0.095-0.09,0.099C0.807,0.95,0.804,0.95,0.8,0.95H0.525
		c-0.042,0-0.075-0.034-0.075-0.075c0,0.041-0.033,0.075-0.075,0.075H0.2c-0.004,0-0.007,0-0.01-0.001
		C0.139,0.945,0.1,0.901,0.1,0.85V0.2c0-0.055,0.045-0.1,0.1-0.1h0.6C0.855,0.1,0.9,0.145,0.9,0.2z"/>
	<path fill="#26AD34" d="M0.9,0.2v0.5c0,0.055-0.045,0.1-0.1,0.1H0.2c-0.055,0-0.1-0.045-0.1-0.1V0.2c0-0.055,0.045-0.1,0.1-0.1h0.6
		C0.855,0.1,0.9,0.145,0.9,0.2z"/>
	<path fill="#379A21" d="M0.8,0.271v0.357C0.8,0.668,0.766,0.7,0.725,0.7h-0.45C0.234,0.7,0.2,0.668,0.2,0.629V0.271
		C0.2,0.232,0.234,0.2,0.275,0.2h0.45C0.766,0.2,0.8,0.232,0.8,0.271z"/>
	<g>
		<path id="path15112-3_1_" fill="#1B8427" d="M0.51,0.348C0.56,0.216,0.684,0.262,0.865,0.305c0.027,0.155-0.055,0.217-0.184,0.252
			L0.51,0.348z"/>
		
			<radialGradient id="path15031-0_2_" cx="740.887" cy="530.0713" r="1.2871" gradientTransform="matrix(0.1019 -0.0931 -0.4998 -0.547 190.0572 359.3947)" gradientUnits="userSpaceOnUse">
			<stop  offset="0" style="stop-color:#2CA03D"/>
			<stop  offset="1" style="stop-color:#23AC38"/>
		</radialGradient>
		<path id="path15031-0_1_" fill="url(#path15031-0_2_)" d="M0.51,0.348C0.56,0.216,0.684,0.157,0.865,0.199
			c0.027,0.155-0.041,0.272-0.184,0.357L0.51,0.348z"/>
		
			<radialGradient id="path15065-9_2_" cx="1754.6616" cy="-23723.1504" r="4.9229" gradientTransform="matrix(0.0988 -0.0524 -0.0108 -0.0204 -429.4105 -392.0245)" gradientUnits="userSpaceOnUse">
			<stop  offset="0" style="stop-color:#3EBF52;stop-opacity:0"/>
			<stop  offset="1" style="stop-color:#3EBF52"/>
		</radialGradient>
		<path id="path15065-9_1_" fill="url(#path15065-9_2_)" d="M0.74,0.186C0.627,0.191,0.547,0.249,0.51,0.348l0.054,0.065
			c0.047-0.054,0.12-0.19,0.306-0.171C0.869,0.228,0.868,0.214,0.865,0.199C0.82,0.189,0.778,0.185,0.74,0.186L0.74,0.186z"/>
	</g>
	<g>
		<path id="path15109-6_1_" fill="#1B8427" d="M0.512,0.467C0.456,0.382,0.214,0.389,0.115,0.579C0.2,0.763,0.338,0.713,0.465,0.713
			L0.512,0.467z"/>
		
			<radialGradient id="path15029-8_2_" cx="4575.3984" cy="1235.7354" r="1.4386" gradientTransform="matrix(0.1282 0.0511 0.1286 -0.323 -745.0928 166.1925)" gradientUnits="userSpaceOnUse">
			<stop  offset="0" style="stop-color:#2CA03D"/>
			<stop  offset="1" style="stop-color:#23AC38"/>
		</radialGradient>
		<path id="path15029-8_1_" fill="url(#path15029-8_2_)" d="M0.512,0.467C0.456,0.382,0.214,0.313,0.115,0.504
			c0.085,0.185,0.224,0.191,0.35,0.21L0.512,0.467z"/>
		
			<radialGradient id="path15070-6_2_" cx="5288.186" cy="-14154.3633" r="5.4189" fx="5288.2017" fy="-14154.2607" gradientTransform="matrix(0.0907 -0.0037 -8.923211e-04 -0.0217 -492.1935 -286.9335)" gradientUnits="userSpaceOnUse">
			<stop  offset="0" style="stop-color:#3EBF52;stop-opacity:0"/>
			<stop  offset="1" style="stop-color:#3EBF52"/>
		</radialGradient>
		<path id="path15070-6_1_" fill="url(#path15070-6_2_)" d="M0.33,0.382C0.251,0.378,0.166,0.408,0.116,0.502v0.005
			C0.124,0.523,0.132,0.537,0.14,0.551c0.128-0.167,0.299-0.067,0.361-0.028l0.011-0.056C0.484,0.425,0.41,0.386,0.33,0.382
			L0.33,0.382z"/>
	</g>
</g>
</svg>
