<?xml version="1.0" encoding="UTF-8" standalone="no"?>
<!-- Generator: Adobe Illustrator 24.1.2, SVG Export Plug-In . SVG Version: 6.00 Build 0)  -->

<svg
   version="1.1"
   id="Capa_1"
   x="0px"
   y="0px"
   width="1px"
   height="1.8px"
   viewBox="0 0 1 1.8"
   enable-background="new 0 0 1 1.8"
   xml:space="preserve"
   sodipodi:docname="sandwich_blue.svg"
   inkscape:version="1.3.2 (091e20e, 2023-11-25, custom)"
   xmlns:inkscape="http://www.inkscape.org/namespaces/inkscape"
   xmlns:sodipodi="http://sodipodi.sourceforge.net/DTD/sodipodi-0.dtd"
   xmlns="http://www.w3.org/2000/svg"
   xmlns:svg="http://www.w3.org/2000/svg"><defs
   id="defs28"><clipPath
     clipPathUnits="userSpaceOnUse"
     id="clipPath28"><rect
       style="opacity:0.109785;fill:#fcbedf;stroke:none;stroke-width:3;stroke-linecap:round;paint-order:fill markers stroke"
       id="rect29"
       width="20"
       height="30"
       x="218"
       y="222" /></clipPath></defs><sodipodi:namedview
   id="namedview28"
   pagecolor="#505050"
   bordercolor="#eeeeee"
   borderopacity="1"
   inkscape:showpageshadow="0"
   inkscape:pageopacity="0"
   inkscape:pagecheckerboard="0"
   inkscape:deskcolor="#505050"
   showgrid="false"
   inkscape:zoom="128"
   inkscape:cx="0.10546875"
   inkscape:cy="1.8085937"
   inkscape:window-width="3440"
   inkscape:window-height="1417"
   inkscape:window-x="-8"
   inkscape:window-y="-8"
   inkscape:window-maximized="1"
   inkscape:current-layer="Capa_1"><inkscape:grid
     id="grid28"
     units="px"
     originx="0"
     originy="0"
     spacingx="1"
     spacingy="1"
     empcolor="#0099e5"
     empopacity="0.30196078"
     color="#0099e5"
     opacity="0.14901961"
     empspacing="5"
     dotted="false"
     gridanglex="30"
     gridanglez="30"
     visible="false" /></sodipodi:namedview>
<g
   id="g1"
   style="stroke-width:1">
	<path
   id="rect10315"
   fill="#0a0f32"
   fill-opacity="0.2"
   d="M 0.1,1.35 H 0.9 C 0.956,1.35 1,1.401 1,1.463 V 1.688 C 1,1.749 0.955,1.8 0.9,1.8 H 0.1 C 0.045,1.8 0,1.749 0,1.688 V 1.463 C 0,1.401 0.045,1.35 0.1,1.35 Z"
   style="stroke-width:0.05" />
</g>
<g
   id="g28"
   style="stroke-width:1">
	<path
   fill="#613406"
   d="M 0.9,0.2 V 1.3 C 0.9,1.355 0.855,1.4 0.8,1.4 H 0.2 C 0.145,1.4 0.1,1.355 0.1,1.3 V 0.2 C 0.1,0.185 0.103,0.171 0.109,0.159 0.111,0.155 0.113,0.151 0.116,0.147 0.133,0.119 0.164,0.1 0.2,0.1 h 0.6 c 0.055,0 0.1,0.045 0.1,0.1 z"
   id="path1"
   style="stroke-width:1" />
	<path
   fill="#d67a32"
   d="M 0.9,1.1 V 1.3 C 0.9,1.355 0.855,1.4 0.8,1.4 H 0.2 C 0.145,1.4 0.1,1.355 0.1,1.3 V 1.1 c 0,0.055 0.045,0.1 0.1,0.1 h 0.6 c 0.055,0 0.1,-0.045 0.1,-0.1 z"
   id="path2"
   style="stroke-width:0.05" />
	<path
   fill="#ffd3d3"
   d="M 0.9,0.835 V 1.1 C 0.9,1.155 0.855,1.2 0.8,1.2 H 0.2 C 0.145,1.2 0.1,1.155 0.1,1.1 V 0.835 c 0,0.008 0.001,0.017 0.002,0.025 0.017,0.163 0.213,0.242 0.352,0.152 L 0.5,0.982 0.546,1.012 C 0.685,1.102 0.882,1.023 0.898,0.86 0.899,0.855 0.899,0.85 0.899,0.845 0.9,0.842 0.9,0.838 0.9,0.835 Z"
   id="path3"
   style="stroke-width:0.05" />
	
		<linearGradient
   id="SVGID_1_"
   gradientUnits="userSpaceOnUse"
   x1="0.1401"
   y1="3.0327001"
   x2="0.85479999"
   y2="3.8843999"
   gradientTransform="matrix(1,0,0,-1,0,4)">
		<stop
   offset="0"
   style="stop-color:#05847E"
   id="stop3" />
		<stop
   offset="0.5"
   style="stop-color:#05857E"
   id="stop4" />
		<stop
   offset="0.6"
   style="stop-color:#0AB0A6"
   id="stop5" />
		<stop
   offset="1"
   style="stop-color:#0AB0A6"
   id="stop6" />
	</linearGradient>
	<path
   fill="url(#SVGID_1_)"
   d="m 0.9,0.2 v 0.635 c 0,0.003 0,0.007 -0.001,0.01 0,0.005 -0.001,0.01 -0.001,0.015 C 0.882,1.023 0.685,1.102 0.546,1.012 L 0.5,0.982 0.454,1.012 C 0.315,1.102 0.118,1.023 0.102,0.86 0.101,0.852 0.1,0.843 0.1,0.835 V 0.2 C 0.1,0.185 0.103,0.171 0.109,0.159 0.111,0.155 0.113,0.151 0.116,0.147 0.133,0.119 0.164,0.1 0.2,0.1 h 0.6 c 0.055,0 0.1,0.045 0.1,0.1 z"
   id="path6"
   style="fill:url(#SVGID_1_);stroke-width:1" />
	<g
   id="g22"
   style="stroke-width:1">
		<rect
   x="0.25"
   y="0.25"
   fill="#0ab0a6"
   width="0.5"
   height="0.40000001"
   id="rect6"
   style="stroke-width:1" />
		
			<linearGradient
   id="SVGID_2_"
   gradientUnits="userSpaceOnUse"
   x1="0.5"
   y1="3.95"
   x2="0.5"
   y2="3.75"
   gradientTransform="matrix(1,0,0,-1,0,4)">
			<stop
   offset="0"
   style="stop-color:#05857E;stop-opacity:0"
   id="stop7" />
			<stop
   offset="1"
   style="stop-color:#0AB0A6"
   id="stop8" />
		</linearGradient>
		<rect
   x="0.25"
   y="0.050000001"
   fill="url(#SVGID_2_)"
   width="0.5"
   height="0.2"
   id="rect8"
   style="fill:url(#SVGID_2_);stroke-width:1" />
		
			<linearGradient
   id="SVGID_3_"
   gradientUnits="userSpaceOnUse"
   x1="0.94999999"
   y1="3.55"
   x2="0.75"
   y2="3.55"
   gradientTransform="matrix(1,0,0,-1,0,4)">
			<stop
   offset="0"
   style="stop-color:#05857E;stop-opacity:0"
   id="stop9" />
			<stop
   offset="1"
   style="stop-color:#0AB0A6"
   id="stop10" />
		</linearGradient>
		<rect
   x="0.75"
   y="0.25"
   fill="url(#SVGID_3_)"
   width="0.2"
   height="0.40000001"
   id="rect10"
   style="fill:url(#SVGID_3_);stroke-width:1" />
		
			<linearGradient
   id="SVGID_4_"
   gradientUnits="userSpaceOnUse"
   x1="0.050000001"
   y1="3.55"
   x2="0.25"
   y2="3.55"
   gradientTransform="matrix(1,0,0,-1,0,4)">
			<stop
   offset="0"
   style="stop-color:#05857E;stop-opacity:0"
   id="stop11" />
			<stop
   offset="1"
   style="stop-color:#0AB0A6"
   id="stop12" />
		</linearGradient>
		<rect
   x="0.050000001"
   y="0.25"
   fill="url(#SVGID_4_)"
   width="0.2"
   height="0.40000001"
   id="rect12"
   style="fill:url(#SVGID_4_);stroke-width:1" />
		
			<linearGradient
   id="SVGID_5_"
   gradientUnits="userSpaceOnUse"
   x1="0.5"
   y1="3.3499999"
   x2="0.5"
   y2="3.1500001"
   gradientTransform="matrix(1,0,0,-1,0,4)">
			<stop
   offset="0"
   style="stop-color:#0AB0A6"
   id="stop13" />
			<stop
   offset="1"
   style="stop-color:#05857E;stop-opacity:0"
   id="stop14" />
		</linearGradient>
		<rect
   x="0.25"
   y="0.64999998"
   fill="url(#SVGID_5_)"
   width="0.5"
   height="0.2"
   id="rect14"
   style="fill:url(#SVGID_5_);stroke-width:1" />
		
			<radialGradient
   id="SVGID_6_"
   cx="-629.87268"
   cy="2078.5427"
   r="0.2128"
   gradientTransform="matrix(0,0.9412,0.9412,0,-1956.0743,593.4866)"
   gradientUnits="userSpaceOnUse">
			<stop
   offset="0"
   style="stop-color:#0AB0A6"
   id="stop15" />
			<stop
   offset="1"
   style="stop-color:#05857E;stop-opacity:0"
   id="stop16" />
		</radialGradient>
		<path
   fill="url(#SVGID_6_)"
   d="m 0.25,0.85 c -0.11,0 -0.2,-0.089 -0.2,-0.2 h 0.2 z"
   id="path16"
   style="fill:url(#SVGID_6_);stroke-width:1" />
		
			<radialGradient
   id="SVGID_7_"
   cx="-629.87268"
   cy="2079.2864"
   r="0.2128"
   gradientTransform="matrix(0.9412,0,0,-0.9412,593.5866,1957.6744)"
   gradientUnits="userSpaceOnUse">
			<stop
   offset="0"
   style="stop-color:#0AB0A6"
   id="stop17" />
			<stop
   offset="1"
   style="stop-color:#05857E;stop-opacity:0"
   id="stop18" />
		</radialGradient>
		<path
   fill="url(#SVGID_7_)"
   d="m 0.95,0.65 c 0,0.11 -0.089,0.2 -0.2,0.2 v -0.2 z"
   id="path18"
   style="fill:url(#SVGID_7_);stroke-width:1" />
		
			<radialGradient
   id="SVGID_8_"
   cx="-629.87268"
   cy="2079.9238"
   r="0.2128"
   gradientTransform="matrix(0,-0.9412,-0.9412,0,1958.3744,-592.5866)"
   gradientUnits="userSpaceOnUse">
			<stop
   offset="0"
   style="stop-color:#0AB0A6"
   id="stop19" />
			<stop
   offset="1"
   style="stop-color:#05857E;stop-opacity:0"
   id="stop20" />
		</radialGradient>
		<path
   fill="url(#SVGID_8_)"
   d="m 0.75,0.05 c 0.11,0 0.2,0.089 0.2,0.2 h -0.2 z"
   id="path20"
   style="fill:url(#SVGID_8_);stroke-width:1" />
		
			<radialGradient
   id="SVGID_9_"
   cx="-629.87268"
   cy="2080.6675"
   r="0.2128"
   gradientTransform="matrix(-0.9412,0,0,0.9412,-592.5866,-1958.0743)"
   gradientUnits="userSpaceOnUse">
			<stop
   offset="0"
   style="stop-color:#0AB0A6"
   id="stop21" />
			<stop
   offset="1"
   style="stop-color:#05857E;stop-opacity:0"
   id="stop22" />
		</radialGradient>
		<path
   fill="url(#SVGID_9_)"
   d="m 0.05,0.25 c 0,-0.11 0.089,-0.2 0.2,-0.2 v 0.2 z"
   id="path22"
   style="fill:url(#SVGID_9_);stroke-width:1" />
	</g>
	<path
   fill="#004542"
   d="M 0.8,0 H 0.2 C 0.09,0 0,0.09 0,0.2 V 1.3 C 0,1.41 0.09,1.5 0.2,1.5 H 0.8 C 0.91,1.5 1,1.41 1,1.3 V 0.2 C 1,0.09 0.91,0 0.8,0 Z M 0.9,1.3 C 0.9,1.355 0.855,1.4 0.8,1.4 H 0.2 C 0.145,1.4 0.1,1.355 0.1,1.3 V 0.2 C 0.1,0.185 0.103,0.171 0.109,0.159 0.111,0.155 0.113,0.151 0.116,0.147 0.133,0.119 0.164,0.1 0.2,0.1 h 0.6 c 0.055,0 0.1,0.045 0.1,0.1 z"
   id="path23"
   style="stroke-width:1" />
	<g
   id="g27"
   style="stroke-width:1">
		
		
		<path
   fill="#17dfcf"
   d="M 0.659,0.54 0.686,0.687 C 0.69,0.707 0.668,0.721 0.65,0.712 L 0.629,0.701 0.609,0.59 C 0.608,0.582 0.611,0.575 0.617,0.57 L 0.661,0.528 C 0.659,0.532 0.658,0.536 0.659,0.54 Z"
   id="path26"
   style="stroke-width:1" />
		<path
   id="path31"
   style="color:#000000;fill:#05867f;fill-opacity:1;stroke-width:1;-inkscape-stroke:none"
   d="M 0.7109375,0.59297734 0.8125,0.50118047 C 0.8332261,0.48183607 0.8409756,0.45062197 0.8320313,0.42500857 0.8230873,0.39939527 0.7988135,0.38008457 0.7714844,0.37618047 l -0.14257813,-0.0195313 -0.0625,-0.12109374 C 0.55329326,0.20932954 0.5266466,0.19619999 0.5,0.1962 c -0.0266466,0 -0.0532933,0.0131295 -0.0664063,0.0393555 l -0.0625,0.12109374 -0.14257813,0.0195313 c -0.0567525,0.008513 -0.0844612,0.0846577 -0.0410156,0.125 l 0.1015625,0.0917969 -0.0244141,0.13574219 c -0.0102156,0.059487 0.0566091,0.1030431 0.10839844,0.0771484 L 0.5,0.74336797 l 0.12695312,0.0625 c 0.0517893,0.0258947 0.1186135,-0.0176614 0.10839844,-0.0771484 z"
   sodipodi:nodetypes="ccscccsccccccccccc" /><path
   id="path30"
   style="color:#000000;fill:#05867f;fill-opacity:1;stroke-width:1;-inkscape-stroke:none"
   d="M 0.7109375,0.54296875 0.8125,0.45117188 C 0.8332261,0.43182751 0.84097559,0.40061333 0.83203125,0.375 0.82308725,0.3493867 0.79881345,0.330076 0.77148435,0.3261719 L 0.62890622,0.3066406 0.56640622,0.18554686 C 0.55329326,0.15932095 0.5266466,0.1461914 0.5,0.14619141 c -0.0266466,0 -0.0532933,0.0131295 -0.0664063,0.0393555 l -0.0625,0.12109374 -0.14257813,0.0195313 c -0.0567525,0.008513 -0.0844612,0.0846577 -0.0410156,0.125 l 0.1015625,0.0917969 -0.0244141,0.13574219 c -0.0102156,0.059487 0.0566091,0.1030431 0.10839844,0.0771484 L 0.5,0.69335938 l 0.12695312,0.0625 c 0.0517893,0.0258947 0.1186135,-0.0176614 0.10839844,-0.0771484 z"
   sodipodi:nodetypes="ccscccsccccccccccc" />
	<path
   fill="#09d4c5"
   d="M 0.511,0.643 0.65,0.712 C 0.668,0.721 0.689,0.706 0.686,0.687 L 0.659,0.54 C 0.658,0.533 0.66,0.525 0.666,0.519 L 0.778,0.415 C 0.793,0.401 0.785,0.378 0.764,0.375 L 0.61,0.354 C 0.602,0.353 0.595,0.348 0.591,0.341 L 0.522,0.207 C 0.513,0.189 0.487,0.189 0.478,0.207 L 0.409,0.341 C 0.405,0.348 0.398,0.353 0.39,0.354 L 0.236,0.375 C 0.216,0.378 0.208,0.402 0.222,0.415 L 0.334,0.519 C 0.34,0.525 0.342,0.533 0.341,0.54 L 0.314,0.687 C 0.311,0.706 0.332,0.721 0.35,0.712 L 0.488,0.643 c 0.008,-0.004 0.016,-0.004 0.023,0 z"
   id="path25"
   style="stroke-width:1" /><path
   fill="#17dfcf"
   d="M 0.778,0.415 0.735,0.457 C 0.74,0.443 0.731,0.428 0.715,0.425 L 0.56,0.404 C 0.552,0.402 0.545,0.398 0.542,0.391 L 0.472,0.257 C 0.469,0.251 0.464,0.247 0.458,0.245 l 0.02,-0.038 c 0.009,-0.018 0.035,-0.018 0.044,0 l 0.07,0.134 c 0.004,0.007 0.01,0.011 0.018,0.012 l 0.154,0.021 c 0.021,0.004 0.029,0.027 0.014,0.041 z"
   id="path27"
   style="stroke-width:1" /></g>
</g>
</svg>
