<?xml version="1.0" encoding="UTF-8" standalone="no"?>
<!-- Created with Inkscape (http://www.inkscape.org/) -->

<svg
   width="1.2"
   height="1.95"
   viewBox="0 0 1.2 1.95"
   version="1.1"
   id="svg5"
   sodipodi:docname="sapling_voxel.svg"
   inkscape:version="1.1 (c68e22c387, 2021-05-23)"
   xmlns:inkscape="http://www.inkscape.org/namespaces/inkscape"
   xmlns:sodipodi="http://sodipodi.sourceforge.net/DTD/sodipodi-0.dtd"
   xmlns="http://www.w3.org/2000/svg"
   xmlns:svg="http://www.w3.org/2000/svg">
  <sodipodi:namedview
     id="namedview7"
     pagecolor="#171717"
     bordercolor="#999999"
     borderopacity="1"
     inkscape:pageshadow="0"
     inkscape:pageopacity="0"
     inkscape:pagecheckerboard="0"
     inkscape:document-units="px"
     showgrid="false"
     units="px"
     inkscape:zoom="93.916667"
     inkscape:cx="1.011535"
     inkscape:cy="1.8367347"
     inkscape:window-width="1284"
     inkscape:window-height="1041"
     inkscape:window-x="208"
     inkscape:window-y="0"
     inkscape:window-maximized="0"
     inkscape:current-layer="layer1"
     inkscape:object-paths="true"
     inkscape:snap-intersection-paths="true"
     inkscape:snap-smooth-nodes="true"
     inkscape:snap-midpoints="true"
     inkscape:snap-object-midpoints="true">
    <inkscape:grid
       type="xygrid"
       id="grid836"
       originx="2.3627679"
       originy="126.35281" />
  </sodipodi:namedview>
  <defs
     id="defs2" />
  <g
     inkscape:label="Layer 1"
     inkscape:groupmode="layer"
     id="layer1"
     transform="translate(2.362768,126.35281)">
    <g
       id="g148736"
       transform="matrix(0.05,0,0,0.05,-4.862768,-119.40281)"
       style="stroke-width:20">
      <rect
         style="opacity:1;fill:#0f0f37;fill-opacity:0.2;stroke:none;stroke-width:755.906;stroke-linecap:round;stroke-linejoin:round;paint-order:markers stroke fill"
         id="rect6201"
         width="20"
         height="11"
         x="52"
         y="-111" />
      <path
         style="opacity:1;fill:#104c40;fill-opacity:1;stroke:none;stroke-width:20px;stroke-linecap:butt;stroke-linejoin:miter;stroke-opacity:1"
         d="m 52,-121 h 20 v 12 h -2 v 2 h -2 v 2 H 56 v -2 h -2 v -2 h -2 z"
         id="path6203" />
      <path
         style="opacity:1;fill:#105c4c;fill-opacity:1;stroke:none;stroke-width:20px;stroke-linecap:butt;stroke-linejoin:miter;stroke-opacity:1"
         d="m 54,-121 v 12 h 2 v 2 h 12 v -2 h 2 v -12 z"
         id="path6205" />
      <path
         id="path6209"
         style="opacity:1;fill:#1c8874;fill-opacity:1;stroke:none;stroke-width:755.906;stroke-linecap:round;stroke-linejoin:round;paint-order:markers stroke fill"
         d="m 55,-122 1,11 v 2 h 12 v -2 h 2 v -11 z"
         sodipodi:nodetypes="cccccccc" />
      <rect
         style="opacity:1;fill:#187464;fill-opacity:1;stroke:none;stroke-width:755.906;stroke-linecap:round;stroke-linejoin:round;paint-order:markers stroke fill"
         id="rect6207"
         width="2"
         height="11"
         x="54"
         y="-122" />
      <rect
         style="opacity:1;fill:#146454;fill-opacity:1;stroke:none;stroke-width:755.906;stroke-linecap:round;stroke-linejoin:round;paint-order:markers stroke fill"
         id="rect6211"
         width="12"
         height="4"
         x="56"
         y="-115" />
      <rect
         style="opacity:1;fill:#30b49c;fill-opacity:1;stroke:none;stroke-width:755.906;stroke-linecap:round;stroke-linejoin:round;paint-order:markers stroke fill"
         id="rect6213"
         width="12"
         height="7"
         x="56"
         y="-122" />
      <rect
         style="opacity:1;fill:#38200c;fill-opacity:1;stroke:none;stroke-width:755.906;stroke-linecap:round;stroke-linejoin:round;paint-order:markers stroke fill"
         id="rect6215"
         width="8"
         height="5"
         x="58"
         y="-122" />
      <rect
         style="opacity:1;fill:#50301c;fill-opacity:1;stroke:none;stroke-width:755.906;stroke-linecap:round;stroke-linejoin:round;paint-order:markers stroke fill"
         id="rect6217"
         width="4"
         height="3"
         x="60"
         y="-122" />
      <path
         style="opacity:1;fill:#2c4408;fill-opacity:1;stroke:none;stroke-width:20px;stroke-linecap:butt;stroke-linejoin:miter;stroke-opacity:1"
         d="M 70,-121 H 54 v -2 h -2 v -2 h -2 v -8 h 2 v -2 h 2 v -2 h 4 v -2 h 8 v 2 h 2 v 2 h 2 v 2 h 2 v 2 h 2 v 6 h -2 v 2 h -2 z"
         id="path6219" />
      <path
         style="opacity:1;fill:#345008;fill-opacity:1;stroke:none;stroke-width:20px;stroke-linecap:butt;stroke-linejoin:miter;stroke-opacity:1"
         d="m 52,-125 h 2 v 2 h 16 v -2 l 1,-5 H 52 Z"
         id="path6221"
         sodipodi:nodetypes="cccccccc" />
      <path
         id="path6223"
         style="opacity:1;fill:#406410;fill-opacity:1;stroke:none;stroke-width:755.906;stroke-linecap:round;stroke-linejoin:round;paint-order:markers stroke fill"
         d="m 70,-129 v 4 h 2 v -4 z m -16,2 v 4 h 4 v -4 z m 8,2 v 4 h 4 v -4 z" />
      <path
         style="opacity:1;fill:#588414;fill-opacity:1;stroke:none;stroke-width:20px;stroke-linecap:butt;stroke-linejoin:miter;stroke-opacity:1"
         d="m 52,-133 v 4 h 2 v 2 h 8 v 2 h 4 v -2 l 4,-2 h 2 v -2 h -2 v -2 h -2 v -2 h -2 l -3,-1 -9,3 z"
         id="path6225"
         sodipodi:nodetypes="ccccccccccccccccccc" />
      <path
         id="path6227"
         style="opacity:1;fill:#608c18;fill-opacity:1;stroke:none;stroke-width:755.906;stroke-linecap:round;stroke-linejoin:round;paint-order:markers stroke fill"
         d="m 58,-137 v 2 h -4 v 4 h 4 l 8,-4 v -2 z m 8,6 v 4 h 4 v -4 z"
         sodipodi:nodetypes="ccccccccccccc" />
      <path
         id="path6229"
         style="opacity:1;fill:#587c20;fill-opacity:1;stroke:none;stroke-width:755.906;stroke-linecap:round;stroke-linejoin:round;paint-order:markers stroke fill"
         d="m 62,-135 v 2 h -4 v 4 h 4 v -2 h 4 v -4 z" />
    </g>
  </g>
</svg>
