<?xml version="1.0" ?>
<svg xmlns="http://www.w3.org/2000/svg" xmlns:xlink="http://www.w3.org/1999/xlink" width="1.0499981" height="1.2542335500000001" viewBox="0 0 1.0499981 1.2542335500000001" version="1.1" id="svg5" xml:space="preserve">
   <defs id="defs2">
      <linearGradient id="linearGradient43116">
         <stop style="stop-color:#442c56;stop-opacity:1;" offset="0" id="stop43112"/>
         <stop style="stop-color:#442c53;stop-opacity:1;" offset="0.29999936" id="stop43741"/>
         <stop style="stop-color:#64437b;stop-opacity:1;" offset="1" id="stop43114"/>
      </linearGradient>
      <radialGradient xlink:href="#linearGradient43116" id="radialGradient43118" cx="125" cy="48.102924" fx="125" fy="48.102924" r="8.5" gradientTransform="matrix(1.1764712,-5.4423444e-8,2.1952053e-7,1.1764708,-22.058909,-8.5916762)" gradientUnits="userSpaceOnUse"/>
   </defs>
   <g id="layer1" transform="scale(0.05) translate(-116.00002,-69.915329)">
      <g id="g46217">
         <circle style="fill:#0a0f32;fill-opacity:0.2;stroke:none;stroke-width:1.9;stroke-linejoin:round;stroke-dasharray:none;paint-order:markers stroke fill" id="path21397-3-1" cx="126.5" cy="85.5" r="9.5"/>
         <path id="path44879" style="color:#000000;fill:#101c40;fill-opacity:1;stroke-width:1.00015;stroke-linejoin:round;paint-order:markers stroke fill" d="m 129.07696,69.916016 a 2.0008098,2.0002 0 0 0 -0.25203,0.02344 2.0008098,2.0002 0 0 0 -1.41645,0.957031 c 0,0 -0.44421,0.727702 -0.90653,1.423828 -0.46232,-0.696126 -0.90653,-1.423828 -0.90653,-1.423828 a 2.0008098,2.0002 0 0 0 -3.71988,1.107422 c 0,0 0.0294,0.862884 0.043,1.689453 -0.78134,-0.26813 -1.59423,-0.5625 -1.59423,-0.5625 a 2.0008098,2.0002 0 0 0 -2.20967,3.1875 c 0,0 0.55244,0.649153 1.06869,1.302735 -0.80275,0.225702 -1.63136,0.429687 -1.63136,0.429687 a 2.0008098,2.0002 0 0 0 0,3.898438 c 0,0 0.82861,0.203985 1.63136,0.429687 -0.51625,0.653582 -1.06869,1.302735 -1.06869,1.302735 a 2.0008098,2.0002 0 0 0 2.20967,3.1875 c 0,0 0.81289,-0.29437 1.59423,-0.5625 -0.0136,0.826569 -0.043,1.689453 -0.043,1.689453 a 2.0008098,2.0002 0 0 0 3.69644,1.146484 c 0,0 0.46344,-0.720393 0.92997,-1.40625 0.46653,0.685857 0.92997,1.40625 0.92997,1.40625 a 2.0008098,2.0002 0 0 0 3.69644,-1.146484 c 0,0 -0.0294,-0.862884 -0.043,-1.689453 0.78135,0.26813 1.59423,0.5625 1.59423,0.5625 a 2.0008098,2.0002 0 0 0 2.21748,-3.177735 c 0,0 -0.55025,-0.656207 -1.06869,-1.318359 0.79408,-0.221269 1.61964,-0.423828 1.61964,-0.423828 a 2.0008098,2.0002 0 0 0 0,-3.898438 c 0,0 -0.82556,-0.202559 -1.61964,-0.423828 0.51844,-0.662152 1.06869,-1.318359 1.06869,-1.318359 a 2.0008098,2.0002 0 0 0 -2.21748,-3.177735 c 0,0 -0.81288,0.29437 -1.59423,0.5625 0.0136,-0.826569 0.043,-1.689453 0.043,-1.689453 a 2.0008098,2.0002 0 0 0 -2.0514,-2.08789 z"/>
         <path id="path42686" style="opacity:1;fill:url(#radialGradient43118);fill-opacity:1;stroke-width:2;stroke-linejoin:round;paint-order:markers stroke fill" d="m 118,46 c 0,0 3.87337,-0.88931 4.05381,-1.444655 0.18044,-0.555345 -2.43045,-3.55152 -2.43045,-3.55152 0,0 3.8289,1.431865 4.12874,1.21402 0.29984,-0.217845 0.12126,-4.301826 0.12126,-4.301826 0,0 2.02025,3.408981 2.62664,3.408981 0.60639,0 2.62664,-3.40898 2.62664,-3.40898 0,0 -0.17858,4.08398 0.12126,4.301826 0.29984,0.217846 4.12874,-1.21402 4.12874,-1.21402 0,0 -2.57925,2.996174 -2.43045,3.55152 C 131.09499,45.110692 135,46 135,46 c 0,0 -3.90501,0.88931 -4.05381,1.444655 -0.1488,0.555345 2.43045,3.55152 2.43045,3.55152 0,0 -3.8289,-1.431865 -4.12874,-1.21402 -0.29984,0.217845 -0.12126,4.301826 -0.12126,4.301826 0,0 -2.12664,-3.408981 -2.62664,-3.408981 -0.5,0 -2.62664,3.40898 -2.62664,3.40898 0,0 0.17858,-4.08398 -0.12126,-4.301826 -0.29984,-0.217846 -4.12874,1.21402 -4.12874,1.21402 0,0 2.61089,-2.996174 2.43045,-3.55152 C 121.87337,46.889308 118,46 118,46 Z" transform="translate(0,34)"/>
         <path id="path45326" style="opacity:1;mix-blend-mode:normal;fill:#2d1e3c;fill-opacity:1;stroke-width:2;stroke-linejoin:round;paint-order:markers stroke fill" d="m 123.87284,88.083981 c 0,0 0.0161,-0.470829 0.0312,-1.052734 0.0946,-0.159046 2.00418,-3.355469 2.5957,-3.355469 0.59152,0 2.50109,3.196423 2.5957,3.355469 0.0151,0.581905 0.0312,1.052734 0.0312,1.052734 0,0 -2.13775,-3.408203 -2.62695,-3.408203 -0.4892,0 -2.62695,3.408203 -2.62695,3.408203 z m 0.0488,-2.857422 c -0.0128,-0.744156 -0.0581,-1.364081 -0.16993,-1.445312 -0.29984,-0.217845 -4.1289,1.214844 -4.1289,1.214844 0,0 0.57286,-0.659981 1.16211,-1.414063 1.15567,-0.405527 2.77293,-0.941632 2.96679,-0.800781 0.161,0.116968 0.18308,1.3298 0.16993,2.445312 z m 5.15624,0 c -0.0132,-1.115512 0.009,-2.328343 0.16993,-2.445312 0.1947,-0.141463 1.82624,0.398665 2.98242,0.804688 0.58374,0.752007 1.14648,1.410156 1.14648,1.410156 0,0 -3.82906,-1.43269 -4.1289,-1.214844 -0.11181,0.08123 -0.1571,0.701156 -0.16993,1.445312 z m -7.30468,-4.033203 c -0.91978,-0.537103 -3.77341,-1.193359 -3.77341,-1.193359 0,0 0.93696,-0.215511 1.91016,-0.5 1.00654,0.294238 2.05279,0.662963 2.14453,0.945312 0.0433,0.133275 -0.0777,0.408771 -0.28125,0.748047 z m 9.46094,-0.0098 c -0.2015,-0.334634 -0.32442,-0.606324 -0.28907,-0.738282 0.0756,-0.282338 1.12216,-0.651081 2.13281,-0.945312 0.97729,0.284542 1.92191,0.500035 1.92191,0.500035 0,0 -2.84191,0.648257 -3.76562,1.183594 z"/>
         <path id="path44023" style="opacity:0.145408;mix-blend-mode:screen;fill:#ffffff;fill-opacity:1;stroke-width:2;stroke-linejoin:round;paint-order:markers stroke fill" d="m 123.87305,37.916016 c 0,0 0.0161,0.470829 0.0312,1.052734 0.0946,0.159046 2.00418,3.355469 2.5957,3.355469 0.59152,0 2.50109,-3.196423 2.5957,-3.355469 0.0151,-0.581905 0.0312,-1.052734 0.0312,-1.052734 0,0 -2.02056,3.408203 -2.62695,3.408203 -0.60639,0 -2.62695,-3.408203 -2.62695,-3.408203 z m 0.0488,2.857422 c -0.0128,0.744156 -0.0581,1.364081 -0.16993,1.445312 -0.29984,0.217845 -4.1289,-1.214844 -4.1289,-1.214844 0,0 0.57286,0.659981 1.16211,1.414063 1.15567,0.405527 2.77293,0.941632 2.96679,0.800781 0.161,-0.116968 0.18308,-1.3298 0.16993,-2.445312 z m 5.15624,0 c -0.0132,1.115512 0.009,2.328343 0.16993,2.445312 0.1947,0.141463 1.82624,-0.398665 2.98242,-0.804688 0.58374,-0.752007 1.14648,-1.410156 1.14648,-1.410156 0,0 -3.82906,1.43269 -4.1289,1.214844 -0.11181,-0.08123 -0.1571,-0.701156 -0.16993,-1.445312 z m -7.30468,4.033203 C 120.85363,45.343744 118,46 118,46 c 0,0 0.93696,0.215511 1.91016,0.5 1.00654,-0.294238 2.05279,-0.662963 2.14453,-0.945312 0.0433,-0.133275 -0.0777,-0.408771 -0.28125,-0.748047 z m 9.46094,0.0098 c -0.2015,0.334634 -0.32442,0.606324 -0.28907,0.738282 0.0756,0.282338 1.12216,0.651081 2.13281,0.945312 C 134.05538,46.215493 135,46 135,46 c 0,0 -2.84191,-0.648257 -3.76562,-1.183594 z" transform="translate(0,34)"/>
      </g>
   </g>
</svg>
