<?xml version="1.0" encoding="utf-8"?>
<!-- Generator: Adobe Illustrator 24.1.2, SVG Export Plug-In . SVG Version: 6.00 Build 0)  -->
<svg version="1.1" id="Capa_1" xmlns="http://www.w3.org/2000/svg" xmlns:xlink="http://www.w3.org/1999/xlink" x="0px" y="0px"
	 width="1px" height="1.35px" viewBox="0 0 1 1.35" enable-background="new 0 0 1 1.35" xml:space="preserve">
<circle id="circle16099" fill="#0A0F32" fill-opacity="0.2" cx="0.5" cy="0.85" r="0.5"/>
<g>
	<ellipse fill="#5B062D" cx="0.5" cy="0.625" rx="0.5" ry="0.425"/>
	<path fill="#8F1852" d="M0.925,0.625c0,0.193-0.19,0.35-0.425,0.35s-0.425-0.157-0.425-0.35c0-0.017,0.002-0.034,0.005-0.05
		c0.029-0.17,0.206-0.3,0.42-0.3s0.392,0.13,0.42,0.3C0.923,0.591,0.925,0.608,0.925,0.625z"/>
	<path fill="#EC22AC" d="M0.92,0.575c-0.029,0.17-0.206,0.3-0.42,0.3s-0.392-0.13-0.42-0.3c0.009-0.054,0.033-0.103,0.068-0.146
		C0.224,0.336,0.354,0.275,0.5,0.275s0.276,0.061,0.352,0.154C0.887,0.472,0.911,0.521,0.92,0.575z"/>
	<path fill="#B11A76" d="M0.849,0.433C0.85,0.438,0.85,0.445,0.85,0.45c0,0.034-0.008,0.066-0.023,0.095c-0.001,0-0.001,0-0.001,0
		C0.824,0.546,0.823,0.548,0.822,0.549v0.002c0.001,0.005,0.001,0.01,0.001,0.014c0,0.102-0.083,0.185-0.185,0.185
		c-0.056,0-0.105-0.024-0.139-0.063C0.467,0.726,0.417,0.75,0.361,0.75c-0.102,0-0.185-0.083-0.185-0.185
		c0-0.005,0-0.009,0.001-0.014V0.549C0.177,0.548,0.176,0.546,0.174,0.545c0,0,0,0-0.001,0C0.158,0.516,0.15,0.484,0.15,0.45
		c0-0.005,0-0.012,0.001-0.017C0.15,0.432,0.148,0.43,0.148,0.429C0.224,0.336,0.354,0.275,0.5,0.275s0.276,0.061,0.352,0.154
		C0.852,0.43,0.85,0.432,0.849,0.433z"/>
	<path fill="#5B062D" d="M0.868,0.408C0.863,0.417,0.856,0.425,0.849,0.433C0.85,0.438,0.85,0.445,0.85,0.45
		c0,0.034-0.008,0.066-0.023,0.095c-0.001,0-0.001,0-0.001,0C0.824,0.548,0.823,0.549,0.822,0.551C0.788,0.61,0.723,0.65,0.65,0.65
		c-0.06,0-0.114-0.027-0.15-0.068C0.464,0.623,0.41,0.65,0.35,0.65c-0.073,0-0.137-0.04-0.172-0.099
		C0.177,0.549,0.176,0.548,0.174,0.545c0,0,0,0-0.001,0C0.158,0.516,0.15,0.484,0.15,0.45c0-0.005,0-0.012,0.001-0.017
		C0.144,0.425,0.138,0.417,0.132,0.408C0.111,0.377,0.1,0.34,0.1,0.3c0-0.111,0.089-0.2,0.2-0.2c0.009,0,0.017,0.001,0.026,0.002
		C0.36,0.041,0.425,0,0.5,0s0.14,0.041,0.174,0.102C0.683,0.101,0.691,0.1,0.7,0.1c0.111,0,0.2,0.089,0.2,0.2
		C0.9,0.34,0.889,0.377,0.868,0.408z"/>
	<path fill="#EB607B" d="M0.817,0.301c0,0.008-0.001,0.016-0.002,0.023c0,0,0,0,0,0C0.811,0.348,0.801,0.369,0.785,0.386
		C0.772,0.4,0.767,0.419,0.77,0.437v0.006c0,0.071-0.057,0.128-0.128,0.128c-0.036,0-0.072-0.016-0.096-0.044
		C0.535,0.515,0.518,0.507,0.5,0.507c-0.018,0-0.035,0.008-0.046,0.021C0.429,0.556,0.394,0.571,0.358,0.571
		c-0.071,0-0.128-0.057-0.128-0.128V0.438C0.233,0.42,0.228,0.4,0.215,0.386C0.199,0.369,0.189,0.348,0.184,0.325c0,0,0,0,0,0
		C0.183,0.317,0.183,0.309,0.183,0.301c0-0.071,0.057-0.128,0.128-0.128c0.006,0,0.01,0,0.014,0.001
		c0.004,0,0.008,0.001,0.011,0.001c0.022,0,0.043-0.012,0.054-0.032C0.411,0.104,0.454,0.079,0.5,0.079s0.089,0.025,0.111,0.065
		c0.011,0.02,0.032,0.032,0.054,0.032c0.003,0,0.007,0,0.011-0.001c0.003,0,0.008-0.001,0.014-0.001
		C0.76,0.173,0.817,0.231,0.817,0.301z"/>
	<path fill="#C84D6E" d="M0.816,0.325C0.816,0.325,0.815,0.325,0.816,0.325C0.811,0.348,0.801,0.369,0.785,0.386
		C0.772,0.4,0.767,0.419,0.77,0.437v0.006c0,0.071-0.057,0.128-0.128,0.128c-0.036,0-0.072-0.016-0.096-0.044
		C0.535,0.515,0.518,0.507,0.5,0.507c-0.018,0-0.035,0.008-0.046,0.021C0.429,0.556,0.394,0.571,0.358,0.571
		c-0.071,0-0.128-0.057-0.128-0.128V0.438C0.233,0.42,0.228,0.4,0.215,0.386C0.199,0.369,0.189,0.348,0.184,0.325c0,0,0,0,0,0
		C0.196,0.265,0.248,0.221,0.31,0.221c0.006,0,0.01,0,0.014,0.001c0.004,0,0.008,0.001,0.011,0.001c0.022,0,0.043-0.012,0.054-0.032
		C0.411,0.151,0.454,0.126,0.5,0.126s0.089,0.025,0.111,0.065c0.011,0.02,0.032,0.032,0.054,0.032c0.003,0,0.007,0,0.011-0.001
		c0.003,0,0.008-0.001,0.014-0.001C0.752,0.221,0.804,0.265,0.816,0.325z"/>
	
		<radialGradient id="SVGID_1_" cx="0.5" cy="0.35" r="0.1804" gradientTransform="matrix(1 0 0 0.8344 0 0.058)" gradientUnits="userSpaceOnUse">
		<stop  offset="0" style="stop-color:#411223"/>
		<stop  offset="0.4162" style="stop-color:#681E39"/>
		<stop  offset="0.7905" style="stop-color:#9F2D56;stop-opacity:0.6"/>
		<stop  offset="1" style="stop-color:#C84D6E;stop-opacity:0.4"/>
	</radialGradient>
	<ellipse fill="url(#SVGID_1_)" cx="0.5" cy="0.35" rx="0.2" ry="0.15"/>
</g>
</svg>
