<?xml version="1.0" encoding="UTF-8" standalone="no"?>
<!-- Created with Inkscape (http://www.inkscape.org/) -->

<svg
   width="0.26458332mm"
   height="0.28741691mm"
   viewBox="0 0 0.26458332 0.28741691"
   version="1.1"
   id="svg18467"
   inkscape:version="1.3.2 (091e20e, 2023-11-25, custom)"
   sodipodi:docname="skull_blue.svg"
   xml:space="preserve"
   xmlns:inkscape="http://www.inkscape.org/namespaces/inkscape"
   xmlns:sodipodi="http://sodipodi.sourceforge.net/DTD/sodipodi-0.dtd"
   xmlns="http://www.w3.org/2000/svg"
   xmlns:svg="http://www.w3.org/2000/svg"
   xmlns:rdf="http://www.w3.org/1999/02/22-rdf-syntax-ns#"
   xmlns:cc="http://creativecommons.org/ns#"
   xmlns:dc="http://purl.org/dc/elements/1.1/"><defs
     id="defs18461" /><sodipodi:namedview
     id="base"
     pagecolor="#ffffff"
     bordercolor="#666666"
     borderopacity="1.0"
     inkscape:pageopacity="0.0"
     inkscape:pageshadow="2"
     inkscape:zoom="256"
     inkscape:cx="0.98046875"
     inkscape:cy="0.49023438"
     inkscape:document-units="mm"
     inkscape:current-layer="layer1"
     showgrid="false"
     inkscape:window-width="1366"
     inkscape:window-height="705"
     inkscape:window-x="-8"
     inkscape:window-y="-8"
     inkscape:window-maximized="1"
     inkscape:showpageshadow="0"
     inkscape:pagecheckerboard="1"
     inkscape:deskcolor="#505050" /><metadata
     id="metadata18464"><rdf:RDF><cc:Work
         rdf:about=""><dc:format>image/svg+xml</dc:format><dc:type
           rdf:resource="http://purl.org/dc/dcmitype/StillImage" /></cc:Work></rdf:RDF></metadata><g
     inkscape:label="Layer 1"
     inkscape:groupmode="layer"
     id="layer1"
     transform="translate(-86.828878,-86.522948)"><g
       id="g14957"
       transform="matrix(0.04808023,0,0,0.04808023,103.96419,129.88007)"><rect
         style="opacity:1;fill:#000000;fill-opacity:0.18000004;fill-rule:nonzero;stroke:none;stroke-width:4.05429649;stroke-linecap:round;stroke-linejoin:round;stroke-miterlimit:4;stroke-dasharray:none;stroke-dashoffset:0;stroke-opacity:1;paint-order:markers stroke fill"
         id="rect14939"
         width="5.4455767"
         height="5.4933634"
         x="-356.38998"
         y="-901.28162"
         ry="2.7227886" /><path
         inkscape:connector-curvature="0"
         style="opacity:1;fill:#361b50;fill-opacity:1;fill-rule:nonzero;stroke:#361b50;stroke-width:0.89999998;stroke-linecap:round;stroke-linejoin:miter;stroke-miterlimit:4;stroke-dasharray:none;stroke-dashoffset:0;stroke-opacity:1;paint-order:markers stroke fill"
         d="m -352.816,-901.02513 c -1.14083,-0.48059 -2.52452,0.0595 -2.99365,1.17309 -0.30599,0.72637 0.007,1.48943 0.40732,1.90734 l -0.10105,0.23988 c -0.0554,0.13161 0.006,0.28219 0.13749,0.33763 l 0.85689,0.36097 0.85689,0.36098 c 0.1316,0.0554 0.28219,-0.006 0.33763,-0.13749 l 0.10105,-0.23988 c 0.57893,-0.005 1.34332,-0.31459 1.64931,-1.04096 0.46911,-1.11361 -0.11111,-2.48085 -1.25188,-2.96156 z"
         id="path14941" /><path
         id="path825"
         d="m -352.816,-901.02513 c -1.14083,-0.48059 -2.52452,0.0595 -2.99365,1.17309 -0.30599,0.72637 0.007,1.48943 0.40732,1.90734 l -0.10105,0.23988 c -0.0554,0.13161 0.006,0.28219 0.13749,0.33763 l 0.85689,0.36097 0.85689,0.36098 c 0.1316,0.0554 0.28219,-0.006 0.33763,-0.13749 l 0.10105,-0.23988 c 0.57893,-0.005 1.34332,-0.31459 1.64931,-1.04096 0.46911,-1.11361 -0.11111,-2.48085 -1.25188,-2.96156 z"
         style="opacity:1;fill:#86c9ff;fill-opacity:1;fill-rule:nonzero;stroke:none;stroke-width:0.89999998;stroke-linecap:round;stroke-linejoin:miter;stroke-miterlimit:4;stroke-dasharray:none;stroke-dashoffset:0;stroke-opacity:1;paint-order:markers stroke fill"
         inkscape:connector-curvature="0" /><path
         d="m -355.42266,-897.96133 a 3.5145823,3.5145823 0 0 1 -0.0967,-0.8061 3.5145823,3.5145823 0 0 1 0.77385,-2.19258 c -0.46794,0.22913 -0.85563,0.61231 -1.06405,1.10704 -0.30091,0.71431 -0.004,1.4695 0.38693,1.89164 z"
         style="fill:#548ad3;fill-opacity:1;stroke:none;stroke-width:0.9;stroke-linecap:round;paint-order:markers stroke fill"
         id="path4"
         transform="translate(3.4664276e-7,1.3865713e-5)" /><path
         d="m -355.2077,-897.30571 a 3.5145823,3.5145823 0 0 1 -0.20421,-0.61263 l -0.0967,0.21496 c -0.0554,0.13161 0.008,0.27774 0.13972,0.33318 z"
         style="fill:#548ad3;fill-opacity:1;stroke-width:0.9;stroke-linecap:round;paint-order:markers stroke fill"
         id="path2"
         transform="translate(3.4664276e-7,1.3865713e-5)" /><path
         d="m -351.53184,-898.15479 a 3.0309246,3.0309246 0 0 0 -2.63324,-2.99868 c -0.20175,0.0395 -0.39746,0.104 -0.58028,0.19343 a 3.5145823,3.5145823 0 0 0 -0.77391,2.19259 3.5145823,3.5145823 0 0 0 0.0978,0.80615 c 0.007,0.007 0.0155,0.0152 0.0208,0.0208 l -0.0107,0.0208 a 3.5145823,3.5145823 0 0 0 0.20382,0.61252 l 0.69862,0.30096 0.85982,0.35461 c 0.13103,0.0562 0.27766,0.002 0.33319,-0.12895 l 0.10815,-0.24729 c 0.57883,-0.005 1.33839,-0.31614 1.64434,-1.04263 0.0104,-0.025 0.0229,-0.0499 0.0312,-0.0749 a 3.0309246,3.0309246 0 0 1 0,-0.0108 z"
         style="fill:#5eafff;fill-opacity:1;stroke:none;stroke-width:0;stroke-linecap:round;stroke-linejoin:round;paint-order:markers fill stroke"
         id="path7"
         transform="translate(3.4664276e-7,1.3865713e-5)" /><path
         d="m -353.67074,-901.20722 c -0.15161,-0.002 -0.30346,0.027 -0.45142,0.0537 a 3.0309245,3.0309245 0 0 1 2.59026,2.99868 c 0.4072,-1.09726 -0.16668,-2.40092 -1.27901,-2.8697 -0.27734,-0.11684 -0.56903,-0.17942 -0.85983,-0.18272 z"
         style="fill:#86c9ff;fill-opacity:1;stroke:#548ad3;stroke-width:0;stroke-linecap:round;stroke-linejoin:round;paint-order:markers fill stroke"
         id="path6"
         transform="translate(3.4664276e-7,1.3865713e-5)" /><ellipse
         style="opacity:1;fill:#361b50;fill-opacity:1;fill-rule:nonzero;stroke:none;stroke-width:0.04113487;stroke-linecap:round;stroke-linejoin:miter;stroke-miterlimit:4;stroke-dasharray:none;stroke-dashoffset:0;stroke-opacity:1;paint-order:markers stroke fill"
         id="ellipse14945"
         cx="-675.95636"
         cy="-690.70551"
         rx="0.66854781"
         ry="0.69210625"
         transform="rotate(22.843686)" /><ellipse
         ry="0.69210625"
         rx="0.66854781"
         cy="-690.70551"
         cx="-673.86957"
         id="ellipse14947"
         style="opacity:1;fill:#361b50;fill-opacity:1;fill-rule:nonzero;stroke:none;stroke-width:0.04113487;stroke-linecap:round;stroke-linejoin:miter;stroke-miterlimit:4;stroke-dasharray:none;stroke-dashoffset:0;stroke-opacity:1;paint-order:markers stroke fill"
         transform="rotate(22.843686)" /><path
         style="opacity:1;fill:#361b50;fill-opacity:1;fill-rule:nonzero;stroke:none;stroke-width:0.01975339;stroke-linecap:round;stroke-linejoin:miter;stroke-miterlimit:4;stroke-dasharray:none;stroke-dashoffset:0;stroke-opacity:1;paint-order:markers stroke fill"
         inkscape:transform-center-x="-4.5872882e-006"
         inkscape:transform-center-y="-0.18273362"
         d="m -354.49076,-897.9412 0.55167,-0.38946 0.0856,0.65791 z"
         id="path14949"
         inkscape:connector-curvature="0"
         sodipodi:nodetypes="cccc" /><rect
         style="opacity:1;fill:#361b50;fill-opacity:1;fill-rule:nonzero;stroke:none;stroke-width:0.01948564;stroke-linecap:round;stroke-linejoin:miter;stroke-miterlimit:4;stroke-dasharray:none;stroke-dashoffset:0;stroke-opacity:1;paint-order:markers stroke fill"
         id="rect14951"
         width="0.73251706"
         height="0.31600735"
         x="-966.84558"
         y="-11.543047"
         transform="rotate(67.843686)"
         rx="0.13345289"
         ry="0.15570208" /><rect
         ry="0.15570208"
         rx="0.13345289"
         transform="matrix(-0.92615841,0.37713473,0.37713473,0.92615841,0,0)"
         y="-966.03583"
         x="-12.352781"
         height="0.31600735"
         width="0.73251706"
         id="rect14953"
         style="opacity:1;fill:#361b50;fill-opacity:1;fill-rule:nonzero;stroke:none;stroke-width:0.01948564;stroke-linecap:round;stroke-linejoin:miter;stroke-miterlimit:4;stroke-dasharray:none;stroke-dashoffset:0;stroke-opacity:1;paint-order:markers stroke fill" /><rect
         style="opacity:1;fill:none;fill-opacity:1;fill-rule:nonzero;stroke:none;stroke-width:0.04788959;stroke-linecap:round;stroke-linejoin:round;stroke-miterlimit:4;stroke-dasharray:none;stroke-dashoffset:0;stroke-opacity:1;paint-order:markers stroke fill"
         id="rect14955"
         width="5.4445133"
         height="5.4445133"
         x="-356.33154"
         y="-901.76611" /></g></g></svg>
