<?xml version="1.0" encoding="utf-8"?>
<!-- Generator: Adobe Illustrator 24.1.2, SVG Export Plug-In . SVG Version: 6.00 Build 0)  -->
<svg version="1.1" id="Capa_1" xmlns="http://www.w3.org/2000/svg" xmlns:xlink="http://www.w3.org/1999/xlink" x="0px" y="0px"
	 width="1px" height="1.8px" viewBox="0 0 1 1.8" enable-background="new 0 0 1 1.8" xml:space="preserve">
<g>
	<path id="rect10315" fill="#0A0F32" fill-opacity="0.2" d="M0.1,1.35h0.8C0.956,1.35,1,1.401,1,1.463v0.225
		C1,1.749,0.955,1.8,0.9,1.8H0.1C0.045,1.8,0,1.749,0,1.688V1.463C0,1.401,0.045,1.35,0.1,1.35z"/>
</g>
<g>
	<rect y="0.75" fill="#142037" width="1" height="0.75"/>
	<rect x="0.1" y="0.75" fill="#09326D" width="0.8" height="0.65"/>
	<path fill="#052858" d="M0.9,0.9v0.25c0,0.083-0.067,0.15-0.15,0.15h-0.5C0.167,1.3,0.1,1.233,0.1,1.15V0.9
		c0-0.083,0.067-0.15,0.15-0.15h0.5C0.833,0.75,0.9,0.817,0.9,0.9z"/>
	<path fill="#244C9E" d="M1,0.25V0.9c0,0.138-0.113,0.25-0.25,0.25h-0.5C0.112,1.15,0,1.038,0,0.9V0.25C0,0.112,0.112,0,0.25,0h0.5
		C0.887,0,1,0.112,1,0.25z"/>
	<path fill="#7D95CC" d="M0.9,0.275v0.6c0,0.096-0.079,0.175-0.175,0.175h-0.45C0.179,1.05,0.1,0.971,0.1,0.875v-0.6
		C0.1,0.179,0.179,0.1,0.275,0.1h0.45C0.821,0.1,0.9,0.179,0.9,0.275z"/>
	<path fill="#B2C3E4" d="M0.9,0.275v0.35C0.9,0.721,0.821,0.8,0.725,0.8h-0.45C0.179,0.8,0.1,0.721,0.1,0.625v-0.35
		C0.1,0.179,0.179,0.1,0.275,0.1h0.45C0.821,0.1,0.9,0.179,0.9,0.275z"/>
	<circle fill="#C9D4EC" cx="0.675" cy="0.325" r="0.075"/>
</g>
</svg>
