<?xml version="1.0" encoding="utf-8"?>
<!-- Generator: Adobe Illustrator 24.1.2, SVG Export Plug-In . SVG Version: 6.00 Build 0)  -->
<svg version="1.1" id="Capa_1" xmlns="http://www.w3.org/2000/svg" xmlns:xlink="http://www.w3.org/1999/xlink" x="0px" y="0px"
	 width="1.3px" height="2px" viewBox="0 0 1.3 2" enable-background="new 0 0 1.3 2" xml:space="preserve">
<g>
	<g>
		<circle id="circle16099" fill="#0A0F32" fill-opacity="0.2" cx="0.65" cy="1.5" r="0.5"/>
	</g>
</g>
<g>
	<path fill="#173386" d="M1.198,1.095C1.199,1.113,1.2,1.132,1.2,1.15c0,0.304-0.246,0.55-0.55,0.55S0.1,1.454,0.1,1.15
		c0-0.018,0.001-0.037,0.002-0.055C0.039,1.048,0,0.977,0,0.9c0-0.118,0.089-0.216,0.21-0.243c0.015-0.074,0.049-0.142,0.098-0.199
		C0.286,0.383,0.313,0.302,0.375,0.251C0.352,0.158,0.39,0.061,0.471,0.02C0.498,0.007,0.525,0,0.555,0
		c0.047,0,0.093,0.018,0.13,0.051c0.024-0.01,0.05-0.015,0.076-0.015c0.058,0,0.112,0.025,0.148,0.07
		C0.945,0.151,0.958,0.212,0.945,0.27c0.047,0.05,0.066,0.122,0.047,0.188c0.05,0.057,0.083,0.125,0.098,0.199
		C1.211,0.684,1.3,0.782,1.3,0.9C1.3,0.977,1.261,1.048,1.198,1.095z"/>
	
		<radialGradient id="SVGID_1_" cx="0.65" cy="2.85" r="0.45" gradientTransform="matrix(1 0 0 -1 0 4)" gradientUnits="userSpaceOnUse">
		<stop  offset="0" style="stop-color:#AEC3E5"/>
		<stop  offset="0.25" style="stop-color:#AEC3E5"/>
		<stop  offset="1" style="stop-color:#7693CB"/>
	</radialGradient>
	<path fill="url(#SVGID_1_)" d="M1.1,1.15c0,0.248-0.202,0.45-0.45,0.45S0.2,1.398,0.2,1.15c0-0.005,0-0.01,0.001-0.015
		c0.003-0.108,0.045-0.207,0.111-0.282C0.394,0.76,0.515,0.7,0.65,0.7s0.256,0.06,0.338,0.154c0.067,0.075,0.108,0.174,0.111,0.282
		C1.1,1.14,1.1,1.145,1.1,1.15z"/>
	
		<radialGradient id="SVGID_2_" cx="0.9745" cy="-149.502" r="0.1372" gradientTransform="matrix(1 0 0 -0.8 0 -118.5996)" gradientUnits="userSpaceOnUse">
		<stop  offset="0" style="stop-color:#8AA0D2"/>
		<stop  offset="0.25" style="stop-color:#7A90C9"/>
		<stop  offset="1" style="stop-color:#5879BB"/>
	</radialGradient>
	<path opacity="0.3" fill="url(#SVGID_2_)" enable-background="new    " d="M1.099,1.135C1.077,1.145,1.052,1.15,1.025,1.15
		C0.929,1.15,0.85,1.083,0.85,1c0-0.072,0.059-0.132,0.138-0.146C1.055,0.929,1.096,1.027,1.099,1.135z"/>
	
		<radialGradient id="SVGID_3_" cx="0.3255" cy="-149.5018" r="0.1369" gradientTransform="matrix(1 0 0 -0.8 0 -118.5996)" gradientUnits="userSpaceOnUse">
		<stop  offset="0" style="stop-color:#8AA0D2"/>
		<stop  offset="0.25" style="stop-color:#7A90C9"/>
		<stop  offset="1" style="stop-color:#5879BB"/>
	</radialGradient>
	<path opacity="0.3" fill="url(#SVGID_3_)" enable-background="new    " d="M0.45,1c0,0.083-0.079,0.15-0.175,0.15
		c-0.027,0-0.052-0.005-0.074-0.015c0.003-0.108,0.045-0.207,0.111-0.282C0.391,0.868,0.45,0.928,0.45,1z"/>
	<circle fill="#081239" cx="0.65" cy="1.15" r="0.05"/>
	<circle fill="#081239" cx="0.65" cy="1.3" r="0.05"/>
	
		<radialGradient id="SVGID_4_" cx="0.65" cy="3.25" r="0.35" gradientTransform="matrix(1 0 0 -1 0 4)" gradientUnits="userSpaceOnUse">
		<stop  offset="0" style="stop-color:#B8C7E7"/>
		<stop  offset="0.5" style="stop-color:#B8C7E7"/>
		<stop  offset="0.85" style="stop-color:#7893CB"/>
		<stop  offset="1" style="stop-color:#7893CB"/>
	</radialGradient>
	<circle fill="url(#SVGID_4_)" cx="0.65" cy="0.75" r="0.35"/>
	
		<radialGradient id="SVGID_5_" cx="0.275" cy="-149.4" r="0.163" gradientTransform="matrix(1 0 0 -0.8 0 -118.62)" gradientUnits="userSpaceOnUse">
		<stop  offset="0" style="stop-color:#B8C7E7"/>
		<stop  offset="0.25" style="stop-color:#B8C7E7"/>
		<stop  offset="0.88" style="stop-color:#7893CB"/>
		<stop  offset="1" style="stop-color:#7893CB"/>
	</radialGradient>
	<ellipse fill="url(#SVGID_5_)" cx="0.275" cy="0.9" rx="0.175" ry="0.15"/>
	
		<radialGradient id="SVGID_6_" cx="1.025" cy="-149.4" r="0.163" gradientTransform="matrix(1 0 0 -0.8 0 -118.62)" gradientUnits="userSpaceOnUse">
		<stop  offset="0" style="stop-color:#B8C7E7"/>
		<stop  offset="0.25" style="stop-color:#B8C7E7"/>
		<stop  offset="0.88" style="stop-color:#7893CB"/>
		<stop  offset="1" style="stop-color:#7893CB"/>
	</radialGradient>
	<ellipse fill="url(#SVGID_6_)" cx="1.025" cy="0.9" rx="0.175" ry="0.15"/>
	<g>
		<path fill="#6783C2" d="M0.894,0.44c-0.02,0.05-0.08,0.071-0.135,0.047C0.751,0.483,0.743,0.479,0.736,0.474
			c0.001,0.005,0.002,0.01,0.002,0.015c0,0.061-0.042,0.11-0.094,0.11C0.592,0.6,0.55,0.55,0.55,0.49c0-0.003,0-0.005,0.001-0.007
			c-0.004,0.001-0.007,0.003-0.01,0.004C0.487,0.511,0.426,0.49,0.406,0.441c-0.02-0.05,0.008-0.108,0.063-0.132
			C0.487,0.301,0.505,0.298,0.523,0.3C0.505,0.288,0.491,0.272,0.481,0.251C0.454,0.197,0.47,0.133,0.517,0.109
			C0.563,0.085,0.622,0.11,0.649,0.165C0.654,0.176,0.658,0.188,0.66,0.2c0.007-0.013,0.017-0.026,0.029-0.036
			c0.046-0.039,0.109-0.037,0.142,0.004c0.031,0.038,0.025,0.096-0.013,0.136c0.005,0.001,0.009,0.003,0.013,0.005
			C0.886,0.332,0.914,0.391,0.894,0.44z"/>
		<circle fill="#B5C7E7" cx="0.65" cy="0.338" r="0.063"/>
	</g>
	<circle fill="#07173C" cx="0.525" cy="0.675" r="0.075"/>
	<circle fill="#07173C" cx="0.775" cy="0.675" r="0.075"/>
	<path fill="#07173C" d="M0.8,0.8c0,0.055-0.067,0.1-0.15,0.1S0.5,0.855,0.5,0.8H0.8z"/>
</g>
</svg>
