<?xml version="1.0" encoding="utf-8"?>
<!-- Generator: Adobe Illustrator 24.1.2, SVG Export Plug-In . SVG Version: 6.00 Build 0)  -->
<svg version="1.1" id="Capa_1" xmlns="http://www.w3.org/2000/svg" xmlns:xlink="http://www.w3.org/1999/xlink" x="0px" y="0px"
	 width="1px" height="1.75px" viewBox="0 0 1 1.75" enable-background="new 0 0 1 1.75" xml:space="preserve">
<path id="rect10315" fill="#0A0F32" fill-opacity="0.2" d="M0.1,1.35h0.8c0.055,0,0.1,0.045,0.1,0.1v0.2c0,0.055-0.045,0.1-0.1,0.1
	H0.1C0.045,1.75,0,1.705,0,1.65v-0.2C0,1.395,0.045,1.35,0.1,1.35z"/>
<g>
	<path fill="#1A2A66" d="M1,0.2v1.05c0,0.11-0.09,0.2-0.2,0.2H0.2C0.09,1.45,0,1.36,0,1.25V0.2C0,0.09,0.09,0,0.2,0h0.6
		C0.91,0,1,0.09,1,0.2z"/>
	<path fill="#153F77" d="M0.9,0.6v0.7c0,0.027-0.023,0.05-0.05,0.05h-0.7C0.123,1.35,0.1,1.327,0.1,1.3V0.6H0.9z"/>
	<path fill="#8095D3" d="M0.9,0.2v0.35H0.1V0.2c0-0.055,0.045-0.1,0.1-0.1h0.6C0.855,0.1,0.9,0.145,0.9,0.2z"/>
	<path fill="#435592" d="M0.9,0.3v0.25H0.1V0.3c0-0.055,0.045-0.1,0.1-0.1h0.6C0.855,0.2,0.9,0.245,0.9,0.3z"/>
	<path fill="#8095D3" d="M0.9,0.35v0.2H0.1v-0.2c0-0.055,0.045-0.1,0.1-0.1h0.6C0.855,0.25,0.9,0.295,0.9,0.35z"/>
	<path fill="#113260" d="M0.9,1v0.15c0,0.055-0.045,0.1-0.1,0.1H0.2c-0.055,0-0.1-0.045-0.1-0.1V1H0.9z"/>
	<path fill="#4D609C" d="M0.9,0.5v0.55c0,0.055-0.045,0.1-0.1,0.1H0.2c-0.055,0-0.1-0.045-0.1-0.1V0.5c0-0.055,0.045-0.1,0.1-0.1
		h0.6C0.855,0.4,0.9,0.445,0.9,0.5z"/>
	<path fill="#232B50" d="M0.8,0.55V0.7c0,0.027-0.023,0.05-0.05,0.05H0.6c-0.027,0-0.05-0.023-0.05-0.05V0.55
		c0-0.027,0.023-0.05,0.05-0.05h0.15C0.777,0.5,0.8,0.523,0.8,0.55z"/>
	<path fill="#232B50" d="M0.45,0.85V1c0,0.027-0.023,0.05-0.05,0.05H0.25C0.223,1.05,0.2,1.027,0.2,1V0.85
		c0-0.027,0.023-0.05,0.05-0.05H0.4C0.427,0.8,0.45,0.823,0.45,0.85z"/>
	<path fill="#232B50" d="M0.8,0.85V1c0,0.027-0.023,0.05-0.05,0.05H0.6C0.573,1.05,0.55,1.027,0.55,1V0.85
		c0-0.027,0.023-0.05,0.05-0.05h0.15C0.777,0.8,0.8,0.823,0.8,0.85z"/>
	<path fill="#232B50" d="M0.45,0.55V0.7c0,0.027-0.023,0.05-0.05,0.05H0.25C0.223,0.75,0.2,0.727,0.2,0.7V0.55
		c0-0.027,0.023-0.05,0.05-0.05H0.4C0.427,0.5,0.45,0.523,0.45,0.55z"/>
</g>
</svg>
