<?xml version="1.0" encoding="utf-8"?>
<!-- Generator: Adobe Illustrator 24.1.2, SVG Export Plug-In . SVG Version: 6.00 Build 0)  -->
<svg version="1.1" id="Capa_1" xmlns="http://www.w3.org/2000/svg" xmlns:xlink="http://www.w3.org/1999/xlink" x="0px" y="0px"
	 width="1px" height="1.9px" viewBox="0 0 1 1.9" enable-background="new 0 0 1 1.9" xml:space="preserve">
<g>
	<g>
		<circle id="circle16099" fill="#0A0F32" fill-opacity="0.2" cx="0.5" cy="1.4" r="0.5"/>
	</g>
</g>
<g>
	<path fill="#683406" d="M0.8,1.3v0.05c0,0.11-0.061,0.207-0.15,0.259V1.75c0,0.041-0.017,0.079-0.044,0.106
		C0.579,1.883,0.541,1.9,0.5,1.9c-0.083,0-0.15-0.068-0.15-0.15V1.609C0.261,1.557,0.2,1.46,0.2,1.35V1.3
		c0-0.089,0.039-0.168,0.1-0.223V0.75c0-0.051,0.019-0.096,0.05-0.132V0.15C0.35,0.067,0.417,0,0.5,0s0.15,0.067,0.15,0.15v0.468
		C0.681,0.654,0.7,0.699,0.7,0.75v0.327C0.704,1.08,0.708,1.084,0.712,1.088C0.766,1.142,0.8,1.217,0.8,1.3z"/>
	<path fill="#E9A824" d="M0.4,1.127v0.395C0.34,1.488,0.3,1.423,0.3,1.35V1.3c0-0.027,0.005-0.054,0.016-0.077
		C0.322,1.207,0.33,1.193,0.34,1.18c0.007-0.008,0.014-0.017,0.021-0.023C0.373,1.145,0.386,1.135,0.4,1.127z"/>
	<path fill="#E9A824" d="M0.7,1.3v0.05c0,0.073-0.04,0.138-0.1,0.173V1.127c0.006,0.004,0.012,0.007,0.017,0.011
		C0.619,1.14,0.62,1.141,0.622,1.142c0.007,0.005,0.012,0.011,0.017,0.015L0.642,1.16C0.65,1.168,0.658,1.177,0.665,1.188
		c0,0,0.001,0,0.001,0.001C0.673,1.199,0.679,1.21,0.684,1.223C0.695,1.246,0.7,1.273,0.7,1.3z"/>
	<path fill="#F7B63C" d="M0.4,1.127v0.346C0.34,1.438,0.3,1.374,0.3,1.3c0-0.027,0.005-0.054,0.016-0.077
		C0.322,1.207,0.33,1.193,0.34,1.18c0.007-0.008,0.014-0.017,0.021-0.023C0.373,1.145,0.386,1.135,0.4,1.127z"/>
	<path fill="#F7B63C" d="M0.7,1.3c0,0.074-0.04,0.138-0.1,0.173V1.127C0.606,1.13,0.612,1.135,0.617,1.139
		C0.619,1.14,0.62,1.141,0.622,1.142c0.007,0.005,0.012,0.011,0.017,0.015L0.642,1.16C0.65,1.168,0.658,1.177,0.665,1.188
		c0,0,0.001,0,0.001,0.001C0.673,1.199,0.679,1.21,0.684,1.223C0.695,1.246,0.7,1.273,0.7,1.3z"/>
	<path fill="#E6A223" d="M0.55,0.15v0.459C0.535,0.603,0.517,0.6,0.5,0.6S0.465,0.603,0.45,0.609V0.15c0-0.027,0.023-0.05,0.05-0.05
		S0.55,0.123,0.55,0.15z"/>
	<path fill="#FFBF43" d="M0.55,0.15v0.459C0.535,0.603,0.517,0.6,0.5,0.6V0.1C0.527,0.1,0.55,0.123,0.55,0.15z"/>
	<path fill="#E6A223" d="M0.6,0.75V1.1c0-0.027-0.011-0.052-0.03-0.071C0.552,1.011,0.527,1,0.5,1C0.445,1,0.4,1.045,0.4,1.1V0.75
		c0-0.055,0.045-0.1,0.1-0.1c0.027,0,0.052,0.011,0.07,0.029C0.589,0.698,0.6,0.723,0.6,0.75z"/>
	<path fill="#FCBF40" d="M0.5,0.85L0.5,0.85c-0.055,0-0.1-0.045-0.1-0.1v0c0-0.055,0.045-0.1,0.1-0.1h0c0.055,0,0.1,0.045,0.1,0.1v0
		C0.6,0.805,0.555,0.85,0.5,0.85z"/>
	<path fill="#E6A223" d="M0.55,1.1v0.65c0,0.027-0.023,0.05-0.05,0.05S0.45,1.777,0.45,1.75V1.1c0-0.027,0.023-0.05,0.05-0.05
		S0.55,1.073,0.55,1.1z"/>
	<path fill="#FCBF40" d="M0.55,1.1v0.65c0,0.027-0.023,0.05-0.05,0.05V1.05C0.527,1.05,0.55,1.073,0.55,1.1z"/>
</g>
</svg>
