<?xml version="1.0" encoding="utf-8"?>
<!-- Generator: Adobe Illustrator 24.1.2, SVG Export Plug-In . SVG Version: 6.00 Build 0)  -->
<svg version="1.1" id="Capa_1" xmlns="http://www.w3.org/2000/svg" xmlns:xlink="http://www.w3.org/1999/xlink" x="0px" y="0px"
	 width="1px" height="1.4px" viewBox="0 0 1 1.4" enable-background="new 0 0 1 1.4" xml:space="preserve">
<g>
	<g>
		<circle id="circle16099_1_" fill="#0A0F32" fill-opacity="0.2" cx="0.5" cy="0.9" r="0.5"/>
	</g>
</g>
<g>
	<path fill="#683406" d="M1,0.2v0.6H0.8c0,0.082-0.034,0.157-0.088,0.212C0.658,1.066,0.583,1.1,0.5,1.1c-0.165,0-0.3-0.135-0.3-0.3
		H0V0.2h0.3C0.3,0.09,0.39,0,0.5,0c0.055,0,0.105,0.023,0.141,0.059C0.677,0.095,0.7,0.145,0.7,0.2H1z"/>
	<path fill="#E9A824" d="M0.7,0.75V0.8c0,0.055-0.023,0.105-0.059,0.141C0.605,0.977,0.555,1,0.5,1C0.39,1,0.3,0.91,0.3,0.8V0.75
		h0.05c0,0.082,0.067,0.15,0.15,0.15s0.15-0.068,0.15-0.15H0.7z"/>
	<path fill="#F7B63C" d="M0.7,0.75c0,0.11-0.089,0.2-0.2,0.2s-0.2-0.09-0.2-0.2h0.05c0,0.082,0.067,0.15,0.15,0.15
		s0.15-0.068,0.15-0.15H0.7z"/>
	<path fill="#E9A824" d="M0.5,0.85L0.5,0.85c-0.055,0-0.1-0.045-0.1-0.1V0.2c0-0.055,0.045-0.1,0.1-0.1h0c0.055,0,0.1,0.045,0.1,0.1
		v0.55C0.6,0.805,0.555,0.85,0.5,0.85z"/>
	<circle fill="#FCBF40" cx="0.5" cy="0.2" r="0.1"/>
	<rect y="0.65" fill="#E9A824" width="0.35" height="0.05"/>
	<rect y="0.6" fill="#F7B63C" width="0.35" height="0.05"/>
	<rect y="0.35" fill="#E9A824" width="0.35" height="0.05"/>
	<rect y="0.3" fill="#F7B63C" width="0.35" height="0.05"/>
	<rect y="0.45" fill="#972060" width="0.35" height="0.15"/>
	<rect y="0.55" fill="#792455" width="0.35" height="0.05"/>
	<rect x="0.65" y="0.65" fill="#E9A824" width="0.35" height="0.05"/>
	<rect x="0.65" y="0.6" fill="#F7B63C" width="0.35" height="0.05"/>
	<rect x="0.65" y="0.35" fill="#E9A824" width="0.35" height="0.05"/>
	<rect x="0.65" y="0.3" fill="#F7B63C" width="0.35" height="0.05"/>
	<rect x="0.65" y="0.45" fill="#972060" width="0.35" height="0.15"/>
	<rect x="0.65" y="0.55" fill="#792455" width="0.35" height="0.05"/>
</g>
</svg>
