<?xml version="1.0" encoding="utf-8"?>
<!-- Generator: Adobe Illustrator 24.1.2, SVG Export Plug-In . SVG Version: 6.00 Build 0)  -->
<svg version="1.1" id="Capa_1" xmlns="http://www.w3.org/2000/svg" xmlns:xlink="http://www.w3.org/1999/xlink" x="0px" y="0px"
	 width="1px" height="1.9px" viewBox="0 0 1 1.9" enable-background="new 0 0 1 1.9" xml:space="preserve">
<g>
	<g>
		<circle id="circle16099" fill="#0A0F32" fill-opacity="0.2" cx="0.5" cy="1.4" r="0.5"/>
	</g>
</g>
<g>
	<path fill="#683406" d="M0,0.7l0,0.6h0.154C0.178,1.47,0.324,1.6,0.5,1.6c0.193,0,0.35-0.157,0.35-0.35v-0.1
		c0-0.1-0.042-0.191-0.11-0.254L0.92,0.86c0.03-0.006,0.056-0.025,0.069-0.053c0.014-0.028,0.014-0.061,0-0.089L0.929,0.592
		l0.064-0.166c0.01-0.026,0.009-0.054-0.002-0.079C0.98,0.323,0.958,0.304,0.933,0.295L0.72,0.222L0.577,0.038
		C0.558,0.014,0.53,0,0.5,0C0.47,0,0.442,0.014,0.423,0.038L0.28,0.222L0.067,0.295C0.042,0.304,0.02,0.323,0.01,0.348
		c-0.011,0.025-0.012,0.053-0.002,0.079l0.064,0.166L0.02,0.7H0z"/>
	<path fill="#E9A824" d="M0.25,1.25c0,0.069,0.028,0.131,0.073,0.176C0.369,1.472,0.431,1.5,0.5,1.5c0.137,0,0.25-0.112,0.25-0.25
		v-0.1c0-0.017-0.002-0.034-0.005-0.051C0.742,1.083,0.736,1.068,0.73,1.053C0.727,1.045,0.723,1.038,0.72,1.031
		C0.696,0.988,0.661,0.954,0.619,0.93C0.612,0.926,0.605,0.923,0.597,0.92c-0.015-0.006-0.03-0.011-0.046-0.015
		C0.534,0.902,0.517,0.9,0.5,0.9S0.466,0.902,0.449,0.905C0.433,0.908,0.418,0.913,0.403,0.92C0.395,0.923,0.388,0.926,0.381,0.93
		C0.37,0.936,0.36,0.943,0.35,0.951V1.25H0.25z"/>
	<path fill="#D69C31" d="M0.271,1.25C0.31,1.338,0.398,1.4,0.5,1.4c0.13,0,0.236-0.099,0.248-0.224c0.001-0.001,0-0.001,0-0.001
		C0.749,1.166,0.75,1.158,0.75,1.15c0-0.017-0.002-0.034-0.005-0.051C0.742,1.083,0.737,1.068,0.73,1.053
		C0.727,1.045,0.723,1.038,0.72,1.031C0.696,0.988,0.661,0.954,0.619,0.93C0.612,0.926,0.605,0.923,0.597,0.92
		c-0.015-0.007-0.03-0.011-0.046-0.015C0.534,0.902,0.517,0.9,0.5,0.9S0.466,0.902,0.449,0.905C0.433,0.908,0.418,0.913,0.403,0.92
		C0.395,0.923,0.388,0.926,0.381,0.93C0.37,0.936,0.36,0.942,0.35,0.95v0.3H0.271z"/>
	<path fill="#F7B63C" d="M0.271,1.25C0.31,1.338,0.398,1.4,0.5,1.4c0.13,0,0.236-0.099,0.248-0.224c0.001-0.001,0-0.001,0-0.001
		C0.736,1.048,0.63,0.95,0.5,0.95C0.443,0.95,0.392,0.968,0.35,1v0.25H0.271z"/>
	<rect x="0" y="1.15" transform="matrix(-1 -4.677426e-11 4.677426e-11 -1 0.35 2.35)" fill="#E9A824" width="0.35" height="0.05"/>
	<rect x="0" y="1.1" transform="matrix(-1 -4.547486e-11 4.547486e-11 -1 0.3 2.25)" fill="#F7B63C" width="0.3" height="0.05"/>
	<polygon fill="#E9A824" points="0,0.85 0,0.9 0.3,0.9 0.3,0.86 0.29,0.858 0.276,0.855 0.25,0.851 0.248,0.85 	"/>
	<polygon fill="#F7B63C" points="0,0.8 0,0.85 0.248,0.85 	"/>
	<rect x="0" y="0.95" transform="matrix(-1 -4.547486e-11 4.547486e-11 -1 0.3 2.05)" fill="#972060" width="0.3" height="0.15"/>
	<rect x="0" y="1.05" transform="matrix(-1 -4.547486e-11 4.547486e-11 -1 0.3 2.15)" fill="#792455" width="0.3" height="0.05"/>
	<path fill="#7B2152" d="M0.5,0.55L0.5,0.55c0.11,0,0.2,0.09,0.2,0.2v0.4c0,0.11-0.09,0.2-0.2,0.2h0c-0.11,0-0.2-0.09-0.2-0.2v-0.4
		C0.3,0.64,0.39,0.55,0.5,0.55z"/>
	<path fill="#BE6891" d="M0.35,1.025V1.15c0,0.041,0.017,0.079,0.044,0.106C0.421,1.283,0.458,1.3,0.5,1.3
		c0.083,0,0.15-0.067,0.15-0.15V1.025c0,0.083-0.067,0.15-0.15,0.15c-0.042,0-0.079-0.017-0.106-0.044
		C0.367,1.104,0.35,1.066,0.35,1.025z"/>
	<path fill="#962461" d="M0.35,0.882v0.143c0,0.041,0.017,0.079,0.044,0.106C0.421,1.158,0.458,1.175,0.5,1.175
		c0.083,0,0.15-0.067,0.15-0.15V0.882L0.649,0.882C0.646,0.961,0.58,1.025,0.5,1.025c-0.042,0-0.079-0.017-0.106-0.044
		C0.368,0.955,0.352,0.92,0.35,0.882L0.35,0.882z"/>
	<path fill="#BE6891" d="M0.351,0.882C0.352,0.92,0.368,0.955,0.394,0.981C0.421,1.008,0.458,1.025,0.5,1.025
		c0.08,0,0.146-0.064,0.149-0.143C0.613,0.923,0.56,0.95,0.5,0.95c-0.055,0-0.105-0.023-0.141-0.059
		C0.356,0.888,0.353,0.885,0.351,0.882z"/>
	<g>
		<path fill="#FFFFA4" d="M0.338,0.307l0.041,0.074C0.414,0.361,0.456,0.35,0.5,0.35V0.1L0.338,0.307z"/>
		<path fill="#FFCC61" d="M0.093,0.39l0.185,0.095c0.023-0.044,0.058-0.08,0.101-0.104L0.338,0.307L0.093,0.39z"/>
		<path fill="#D18D0E" d="M0.093,0.39l0.082,0.207L0.25,0.598c0.001-0.04,0.011-0.079,0.028-0.112L0.093,0.39z"/>
		<path fill="#F1CC7C" d="M0.093,0.762l0.174-0.07C0.257,0.664,0.25,0.633,0.25,0.6V0.598L0.175,0.597L0.093,0.762z"/>
		<path fill="#D39411" d="M0.5,0.1v0.25c0.044,0,0.086,0.011,0.121,0.032l0.041-0.074L0.5,0.1z"/>
		<path fill="#FFCC66" d="M0.621,0.382c0.043,0.024,0.078,0.06,0.101,0.104L0.907,0.39L0.663,0.307L0.621,0.382z"/>
		<path fill="#BF760E" d="M0.722,0.485C0.739,0.519,0.749,0.557,0.75,0.598l0.075-0.001L0.907,0.39L0.722,0.485z"/>
		<path fill="#FFCC66" d="M0.732,0.693l0.174,0.07L0.825,0.597L0.75,0.598V0.6C0.75,0.633,0.743,0.664,0.732,0.693z"/>
		<path fill="#BA7C18" d="M0.665,0.787l0.017,0.019l0.224-0.043l-0.174-0.07C0.718,0.729,0.695,0.761,0.665,0.787z"/>
		<path fill="#BA7C18" d="M0.093,0.762l0.224,0.043l0.017-0.019C0.305,0.761,0.282,0.729,0.268,0.693L0.093,0.762z"/>
	</g>
	<path fill="#864D05" d="M0.3,0.7v0.05c0,0.051,0.019,0.096,0.05,0.132l0.001,0.001c0.002,0.003,0.005,0.006,0.008,0.009
		C0.395,0.927,0.445,0.95,0.5,0.95c0.06,0,0.113-0.027,0.149-0.068L0.65,0.882C0.681,0.846,0.7,0.801,0.7,0.75V0.7
		c0-0.051-0.019-0.097-0.051-0.132C0.613,0.526,0.56,0.5,0.5,0.5S0.387,0.526,0.351,0.568C0.319,0.603,0.3,0.649,0.3,0.7z"/>
	<path fill="#CB8813" d="M0.5,0.45L0.5,0.45c0.11,0,0.2,0.09,0.2,0.2V0.7c0,0.11-0.09,0.2-0.2,0.2h0c-0.11,0-0.2-0.09-0.2-0.2V0.65
		C0.3,0.54,0.39,0.45,0.5,0.45z"/>
	<g>
		<path fill="#854C29" d="M0.25,0.598V0.6c0,0.033,0.007,0.064,0.018,0.093c0.014,0.036,0.037,0.068,0.067,0.094
			C0.379,0.826,0.436,0.85,0.5,0.85s0.121-0.024,0.165-0.063c0.029-0.026,0.052-0.058,0.067-0.094C0.743,0.664,0.75,0.633,0.75,0.6
			V0.598c-0.001-0.04-0.011-0.079-0.028-0.112c-0.023-0.044-0.058-0.08-0.101-0.104C0.586,0.361,0.544,0.35,0.5,0.35
			S0.414,0.361,0.379,0.382c-0.043,0.024-0.078,0.06-0.101,0.104C0.261,0.519,0.251,0.557,0.25,0.598z"/>
		<path fill="#FFDDBB" d="M0.37,0.752C0.342,0.717,0.325,0.673,0.325,0.625c0-0.111,0.089-0.2,0.2-0.2
			c0.048,0,0.092,0.017,0.127,0.045C0.615,0.427,0.561,0.4,0.5,0.4c-0.111,0-0.2,0.089-0.2,0.2C0.3,0.661,0.327,0.715,0.37,0.752z"
			/>
		<path fill="#BF7E04" d="M0.361,0.739C0.364,0.744,0.367,0.748,0.37,0.752c0.001,0.001,0.002,0.002,0.003,0.002
			C0.408,0.783,0.452,0.8,0.5,0.8c0.111,0,0.2-0.09,0.2-0.2c0-0.048-0.017-0.093-0.045-0.127C0.654,0.472,0.653,0.471,0.652,0.47
			C0.648,0.467,0.644,0.464,0.639,0.461c0.023,0.032,0.036,0.071,0.036,0.114c0,0.11-0.089,0.2-0.2,0.2
			C0.433,0.775,0.393,0.762,0.361,0.739z"/>
		<path fill="#E39A01" d="M0.325,0.625c0,0.042,0.013,0.082,0.036,0.113c0,0,0,0.001,0.001,0.001
			c0.032,0.023,0.071,0.036,0.114,0.036c0.111,0,0.2-0.09,0.2-0.2c0-0.042-0.013-0.082-0.036-0.114c0-0.001-0.001-0.001-0.001-0.001
			C0.607,0.438,0.567,0.425,0.525,0.425C0.414,0.425,0.325,0.514,0.325,0.625z"/>
	</g>
</g>
</svg>
