<?xml version="1.0" encoding="utf-8"?>
<!-- Generator: Adobe Illustrator 24.1.2, SVG Export Plug-In . SVG Version: 6.00 Build 0)  -->
<svg version="1.1" id="Capa_1" xmlns="http://www.w3.org/2000/svg" xmlns:xlink="http://www.w3.org/1999/xlink" x="0px" y="0px"
	 width="1px" height="1.9px" viewBox="0 0 1 1.9" enable-background="new 0 0 1 1.9" xml:space="preserve">
<g>
	<g>
		<circle id="circle16099" fill="#0A0F32" fill-opacity="0.2" cx="0.5" cy="1.4" r="0.5"/>
	</g>
</g>
<g>
	<path fill="#683406" d="M0.989,0.807C0.976,0.835,0.95,0.854,0.92,0.86L0.74,0.896C0.808,0.959,0.85,1.05,0.85,1.15v0.1
		c0,0.193-0.157,0.35-0.35,0.35S0.15,1.443,0.15,1.25v-0.1c0-0.1,0.042-0.191,0.11-0.254L0.08,0.86
		C0.05,0.854,0.024,0.835,0.011,0.807c-0.014-0.028-0.014-0.061,0-0.089l0.061-0.126L0.007,0.426
		c-0.01-0.026-0.009-0.054,0.002-0.079C0.02,0.323,0.042,0.304,0.067,0.295L0.28,0.222l0.143-0.184C0.442,0.014,0.47,0,0.5,0
		s0.058,0.014,0.077,0.038L0.72,0.222l0.213,0.073C0.958,0.304,0.98,0.323,0.99,0.348c0.011,0.025,0.013,0.053,0.002,0.079
		L0.929,0.592l0.061,0.126C1.004,0.746,1.004,0.779,0.989,0.807z"/>
	<path fill="#E9A824" d="M0.5,0.9L0.5,0.9c-0.138,0-0.25,0.112-0.25,0.25v0.1c0,0.137,0.112,0.25,0.25,0.25h0
		c0.137,0,0.25-0.112,0.25-0.25v-0.1C0.75,1.012,0.638,0.9,0.5,0.9z"/>
	<path fill="#D69C31" d="M0.75,1.15c0,0.008-0.001,0.016-0.002,0.024c0,0.001,0.001,0.001,0,0.001C0.736,1.301,0.63,1.4,0.5,1.4
		S0.264,1.301,0.252,1.176c-0.001-0.001,0-0.001,0-0.001C0.251,1.166,0.25,1.158,0.25,1.15c0-0.138,0.112-0.25,0.25-0.25
		S0.75,1.012,0.75,1.15z"/>
	<path fill="#F7B63C" d="M0.748,1.174c0,0.001,0.001,0.001,0,0.001C0.736,1.301,0.63,1.4,0.5,1.4S0.264,1.301,0.252,1.176
		c-0.001-0.001,0-0.001,0-0.001C0.264,1.048,0.37,0.95,0.5,0.95S0.736,1.048,0.748,1.174z"/>
	<path fill="#7B2152" d="M0.5,0.55L0.5,0.55c-0.11,0-0.2,0.09-0.2,0.2v0.4c0,0.11,0.09,0.2,0.2,0.2h0c0.11,0,0.2-0.09,0.2-0.2v-0.4
		C0.7,0.64,0.61,0.55,0.5,0.55z"/>
	<path fill="#BE6891" d="M0.65,1.025V1.15c0,0.041-0.017,0.079-0.044,0.106C0.579,1.283,0.542,1.3,0.5,1.3
		c-0.083,0-0.15-0.067-0.15-0.15V1.025c0,0.083,0.067,0.15,0.15,0.15c0.042,0,0.079-0.017,0.106-0.044
		C0.633,1.104,0.65,1.066,0.65,1.025z"/>
	<path fill="#962461" d="M0.65,0.882v0.143c0,0.041-0.017,0.079-0.044,0.106C0.579,1.158,0.542,1.175,0.5,1.175
		c-0.083,0-0.15-0.067-0.15-0.15V0.882l0.001,0.001C0.354,0.961,0.42,1.025,0.5,1.025c0.042,0,0.079-0.017,0.106-0.044
		C0.632,0.955,0.648,0.92,0.65,0.882L0.65,0.882z"/>
	<path fill="#BE6891" d="M0.649,0.882C0.648,0.92,0.632,0.955,0.606,0.981C0.579,1.008,0.542,1.025,0.5,1.025
		c-0.08,0-0.146-0.064-0.149-0.143C0.387,0.923,0.44,0.95,0.5,0.95c0.055,0,0.105-0.023,0.141-0.059
		C0.644,0.888,0.647,0.885,0.649,0.882z"/>
	<g>
		<path fill="#FFFFA4" d="M0.663,0.307L0.621,0.382C0.586,0.361,0.544,0.35,0.5,0.35V0.1L0.663,0.307z"/>
		<path fill="#FFCC61" d="M0.907,0.39L0.722,0.485c-0.023-0.044-0.058-0.08-0.101-0.104l0.041-0.074L0.907,0.39z"/>
		<path fill="#D18D0E" d="M0.907,0.39L0.825,0.597L0.75,0.598c-0.001-0.04-0.011-0.079-0.028-0.112L0.907,0.39z"/>
		<path fill="#F1CC7C" d="M0.907,0.762l-0.174-0.07C0.743,0.664,0.75,0.633,0.75,0.6V0.598l0.075-0.001L0.907,0.762z"/>
		<path fill="#D39411" d="M0.5,0.1v0.25c-0.044,0-0.086,0.011-0.121,0.032L0.338,0.307L0.5,0.1z"/>
		<path fill="#FFCC66" d="M0.379,0.382c-0.043,0.024-0.078,0.06-0.101,0.104L0.093,0.39l0.244-0.083L0.379,0.382z"/>
		<path fill="#BF760E" d="M0.278,0.485C0.261,0.519,0.251,0.557,0.25,0.598L0.175,0.597L0.093,0.39L0.278,0.485z"/>
		<path fill="#FFCC66" d="M0.268,0.693l-0.174,0.07l0.082-0.165L0.25,0.598V0.6C0.25,0.633,0.257,0.664,0.268,0.693z"/>
		<path fill="#BA7C18" d="M0.335,0.787L0.317,0.806L0.093,0.762l0.174-0.07C0.282,0.729,0.305,0.761,0.335,0.787z"/>
		<path fill="#BA7C18" d="M0.907,0.762L0.683,0.806L0.665,0.787c0.029-0.026,0.052-0.058,0.067-0.094L0.907,0.762z"/>
	</g>
	<path fill="#864D05" d="M0.7,0.7v0.05c0,0.051-0.019,0.096-0.05,0.132L0.649,0.882C0.647,0.885,0.644,0.888,0.641,0.891
		C0.605,0.927,0.555,0.95,0.5,0.95c-0.06,0-0.113-0.027-0.149-0.068L0.35,0.882C0.319,0.846,0.3,0.801,0.3,0.75V0.7
		c0-0.051,0.019-0.097,0.051-0.132C0.387,0.526,0.44,0.5,0.5,0.5s0.113,0.026,0.149,0.068C0.681,0.603,0.7,0.649,0.7,0.7z"/>
	<path fill="#CB8813" d="M0.5,0.45L0.5,0.45c-0.11,0-0.2,0.09-0.2,0.2V0.7c0,0.11,0.09,0.2,0.2,0.2h0c0.11,0,0.2-0.09,0.2-0.2V0.65
		C0.7,0.54,0.61,0.45,0.5,0.45z"/>
	<g>
		<path fill="#854C29" d="M0.75,0.598V0.6c0,0.033-0.007,0.064-0.018,0.093C0.718,0.729,0.695,0.761,0.665,0.787
			C0.621,0.826,0.564,0.85,0.5,0.85S0.379,0.826,0.335,0.787C0.305,0.761,0.282,0.729,0.268,0.693C0.257,0.664,0.25,0.633,0.25,0.6
			V0.598c0.001-0.04,0.011-0.079,0.028-0.112c0.023-0.044,0.058-0.08,0.101-0.104C0.414,0.361,0.456,0.35,0.5,0.35
			s0.086,0.011,0.121,0.032c0.043,0.024,0.078,0.06,0.101,0.104C0.739,0.519,0.749,0.557,0.75,0.598z"/>
		<path fill="#FFDDBB" d="M0.63,0.752c0.028-0.035,0.045-0.079,0.045-0.127c0-0.111-0.089-0.2-0.2-0.2
			c-0.048,0-0.092,0.017-0.127,0.045C0.385,0.427,0.439,0.4,0.5,0.4c0.111,0,0.2,0.089,0.2,0.2C0.7,0.661,0.673,0.715,0.63,0.752z"
			/>
		<path fill="#BF7E04" d="M0.639,0.739C0.636,0.744,0.633,0.748,0.63,0.752C0.629,0.753,0.628,0.754,0.627,0.754
			C0.592,0.783,0.548,0.8,0.5,0.8c-0.111,0-0.2-0.09-0.2-0.2c0-0.048,0.017-0.093,0.045-0.127C0.346,0.472,0.347,0.471,0.348,0.47
			c0.004-0.004,0.008-0.007,0.013-0.009C0.338,0.493,0.325,0.533,0.325,0.575c0,0.11,0.089,0.2,0.2,0.2
			C0.567,0.775,0.607,0.762,0.639,0.739z"/>
		<path fill="#E39A01" d="M0.675,0.625c0,0.042-0.013,0.082-0.036,0.113c0,0,0,0.001-0.001,0.001
			C0.607,0.762,0.567,0.775,0.525,0.775c-0.111,0-0.2-0.09-0.2-0.2c0-0.042,0.013-0.082,0.036-0.114
			c0-0.001,0.001-0.001,0.001-0.001c0.032-0.022,0.071-0.035,0.114-0.035C0.586,0.425,0.675,0.514,0.675,0.625z"/>
	</g>
</g>
</svg>
