<?xml version="1.0" encoding="utf-8"?>
<!-- Generator: Adobe Illustrator 24.1.2, SVG Export Plug-In . SVG Version: 6.00 Build 0)  -->
<svg version="1.1"
	 id="svg3893" xmlns:cc="http://creativecommons.org/ns#" xmlns:dc="http://purl.org/dc/elements/1.1/" xmlns:inkscape="http://www.inkscape.org/namespaces/inkscape" xmlns:rdf="http://www.w3.org/1999/02/22-rdf-syntax-ns#" xmlns:sodipodi="http://sodipodi.sourceforge.net/DTD/sodipodi-0.dtd" xmlns:svg="http://www.w3.org/2000/svg"
	 xmlns="http://www.w3.org/2000/svg" xmlns:xlink="http://www.w3.org/1999/xlink" x="0px" y="0px" viewBox="0 0 1 1.75"
	 enable-background="new 0 0 1 1.75" xml:space="preserve">
<g>
	<ellipse id="ellipse4999" fill-opacity="0.18" cx="0.5" cy="1.25" rx="0.5" ry="0.5"/>
	<path id="path5001_1_" fill="#6E1600" d="M0.5,0.749c-0.179,0-0.325,0.147-0.325,0.325v0.1C0.175,1.353,0.321,1.5,0.5,1.5
		s0.325-0.147,0.325-0.325v-0.1C0.825,0.896,0.679,0.749,0.5,0.749z"/>
	<path id="path5003_1_" fill="#AE6801" d="M0.5,0.825c-0.139,0-0.251,0.112-0.251,0.251l0,0v0.1c0,0.139,0.112,0.251,0.251,0.251
		l0,0c0.139,0,0.251-0.112,0.251-0.251l0,0V1.075C0.751,0.937,0.639,0.825,0.5,0.825L0.5,0.825z"/>
	<circle id="circle5005_1_" fill="#AC660B" cx="0.5" cy="1.075" r="0.251"/>
	<path id="path5007_1_" sodipodi:nodetypes="sssssss" fill="#3F1938" d="M0.5,0.196c-0.096,0-0.175,0.08-0.175,0.176v0.703
		c0,0.096,0.079,0.176,0.175,0.176s0.175-0.08,0.175-0.176V0.372C0.675,0.276,0.596,0.196,0.5,0.196z"/>
	<path id="path5009_1_" fill="#BD790B" d="M0.251,1.053c0,0.008-0.001,0.016-0.001,0.024c0,0.139,0.112,0.251,0.251,0.251l0,0
		c0.139,0,0.251-0.112,0.251-0.251l0,0c0-0.008,0-0.016-0.001-0.025C0.736,1.18,0.629,1.277,0.5,1.277
		C0.372,1.277,0.264,1.18,0.251,1.053z"/>
	<linearGradient id="SVGID_1_" gradientUnits="userSpaceOnUse" x1="0.6" y1="0.7373" x2="0.4003" y2="0.7373">
		<stop  offset="0" style="stop-color:#4E0D41"/>
		<stop  offset="1" style="stop-color:#38082D"/>
	</linearGradient>
	<path fill="url(#SVGID_1_)" d="M0.6,0.4v0.675c0,0.055-0.044,0.1-0.1,0.1c-0.023,0-0.043-0.007-0.059-0.019
		C0.437,1.153,0.433,1.149,0.429,1.145C0.412,1.128,0.4,1.103,0.4,1.075V0.4c0-0.055,0.044-0.1,0.1-0.1
		c0.019,0,0.036,0.005,0.051,0.015C0.58,0.331,0.6,0.363,0.6,0.4z"/>
	<polygon fill="#C195CF" points="0.6,0.648 0.6,0.829 0.4,0.995 0.4,0.815 	"/>
	<path fill="#C195CF" d="M0.6,1.023v0.052c0,0.055-0.044,0.1-0.1,0.1c-0.023,0-0.043-0.007-0.059-0.019L0.6,1.023z"/>
	<path fill="#C195CF" d="M0.485,0.549L0.4,0.62V0.531C0.427,0.541,0.456,0.548,0.485,0.549z"/>
	<path fill="#6E1600" d="M0.775,0.275c0,0.152-0.124,0.275-0.275,0.275c-0.005,0-0.009,0-0.015-0.001
		c-0.029,0-0.059-0.007-0.085-0.017c-0.103-0.04-0.175-0.14-0.175-0.256C0.225,0.124,0.349,0,0.5,0S0.775,0.124,0.775,0.275z"/>
	
		<radialGradient id="circle5015_2_" cx="-41.7721" cy="-107.1045" r="1.4112" gradientTransform="matrix(0.1417 0 0 -0.1417 6.4875 -14.9741)" gradientUnits="userSpaceOnUse">
		<stop  offset="0" style="stop-color:#EFA518"/>
		<stop  offset="1" style="stop-color:#AB6506"/>
	</radialGradient>
	<circle id="circle5015_1_" fill="url(#circle5015_2_)" cx="0.5" cy="0.275" r="0.2"/>
</g>
</svg>
