<?xml version="1.0" encoding="utf-8"?>
<!-- Generator: Adobe Illustrator 24.1.2, SVG Export Plug-In . SVG Version: 6.00 Build 0)  -->
<svg version="1.1" id="Capa_1" xmlns="http://www.w3.org/2000/svg" xmlns:xlink="http://www.w3.org/1999/xlink" x="0px" y="0px"
	 width="1.2px" height="1.9px" viewBox="0 0 1.2 1.9" enable-background="new 0 0 1.2 1.9" xml:space="preserve">
<g>
	<g>
		<circle id="circle16099" fill="#0A0F32" fill-opacity="0.2" cx="0.6" cy="1.4" r="0.5"/>
	</g>
</g>
<g>
	<path fill="#5B2F18" d="M1.2,1.25c0,0.138-0.137,0.234-0.346,0.248C0.812,1.548,0.743,1.6,0.65,1.6
		c-0.092,0-0.161-0.051-0.204-0.101C0.295,1.492,0,1.454,0,1.25c0-0.015,0.004-0.095,0.08-0.171C0.095,1.063,0.099,1.05,0.1,1.045
		v-0.72C0.1,0.146,0.246,0,0.425,0h0.35C0.954,0,1.1,0.146,1.1,0.325v0.72C1.101,1.05,1.105,1.063,1.12,1.079
		C1.134,1.092,1.2,1.163,1.2,1.25z"/>
	<path fill="#6B4025" d="M0.397,1.394C0.381,1.393,0.364,1.391,0.346,1.388C0.233,1.373,0.1,1.336,0.1,1.25c0,0,0-0.05,0.05-0.1
		C0.2,1.1,0.2,1.05,0.2,1.05C0.2,1.196,0.28,1.324,0.397,1.394z"/>
	<path fill="#804C2B" d="M1.1,1.25c0,0.093-0.13,0.143-0.269,0.149C0.932,1.337,1,1.226,1,1.1V1.05c0,0,0,0.038,0.033,0.082
		C1.039,1.138,1.044,1.144,1.05,1.15C1.05,1.15,1.1,1.2,1.1,1.25z"/>
	<path fill="#734021" d="M1,0.325V1.1c0,0.126-0.068,0.237-0.169,0.299c-0.005,0-0.011,0.001-0.015,0.001
		C0.811,1.4,0.805,1.4,0.8,1.4c0,0-0.002,0.004-0.006,0.01C0.792,1.414,0.789,1.418,0.786,1.423c0,0,0,0,0,0
		C0.773,1.44,0.752,1.463,0.724,1.48C0.704,1.491,0.679,1.5,0.65,1.5c-0.004,0-0.007,0-0.01-0.001
		C0.595,1.496,0.561,1.473,0.538,1.45C0.536,1.448,0.533,1.446,0.532,1.444C0.511,1.421,0.5,1.4,0.5,1.4s-0.044,0-0.103-0.006
		C0.28,1.324,0.2,1.196,0.2,1.05V0.325c0-0.077,0.039-0.146,0.1-0.187C0.336,0.114,0.379,0.1,0.425,0.1h0.35
		c0.046,0,0.089,0.014,0.125,0.038C0.961,0.179,1,0.248,1,0.325z"/>
	<path fill="none" d="M1.1,1.25c0,0.093-0.13,0.143-0.27,0.149C0.932,1.338,1,1.226,1,1.1V1.05c0,0,0,0.05,0.05,0.1
		C1.05,1.15,1.1,1.2,1.1,1.25z"/>
	<path fill="#8F552D" d="M1,0.325V1.1c0,0.126-0.068,0.238-0.17,0.299C0.82,1.4,0.81,1.4,0.8,1.4c0,0-0.005,0.01-0.014,0.023
		c0,0,0,0,0,0C0.773,1.44,0.752,1.463,0.724,1.48C0.704,1.491,0.679,1.5,0.65,1.5c-0.004,0-0.007,0-0.01-0.001
		C0.614,1.484,0.59,1.467,0.567,1.448C0.405,1.32,0.3,1.121,0.3,0.9V0.138C0.336,0.114,0.379,0.1,0.425,0.1h0.35
		c0.046,0,0.089,0.014,0.125,0.038C0.961,0.179,1,0.248,1,0.325z"/>
	<path fill="#894D26" d="M0.9,0.138V1.1c0,0.151-0.068,0.288-0.176,0.38C0.704,1.491,0.679,1.5,0.65,1.5
		c-0.004,0-0.007,0-0.01-0.001C0.437,1.377,0.3,1.154,0.3,0.9V0.138C0.336,0.114,0.379,0.1,0.425,0.1h0.35
		C0.821,0.1,0.864,0.114,0.9,0.138z"/>
	<g>
		<path fill="none" d="M0.756,1.457C0.742,1.47,0.723,1.482,0.702,1.491c0,0,0,0-0.001,0C0.686,1.496,0.669,1.5,0.65,1.5
			c-0.1,0-0.15-0.1-0.15-0.1c0-0.083,0.015-0.15,0.045-0.193C0.557,1.202,0.57,1.199,0.583,1.199
			C0.586,1.198,0.59,1.198,0.594,1.198C0.688,1.198,0.741,1.394,0.756,1.457z"/>
		<path fill="#78411F" d="M0.756,1.457C0.742,1.47,0.723,1.482,0.702,1.491c0,0,0,0-0.001,0C0.686,1.496,0.669,1.5,0.65,1.5
			c-0.1,0-0.15-0.1-0.15-0.1c0-0.083,0.015-0.15,0.045-0.193C0.557,1.202,0.57,1.199,0.583,1.199
			C0.586,1.198,0.59,1.198,0.594,1.198C0.688,1.198,0.741,1.394,0.756,1.457z"/>
		<path fill="#8B4C25" d="M0.756,1.457C0.742,1.47,0.723,1.482,0.702,1.491c0,0,0,0-0.001,0c-0.004,0-0.008,0-0.012,0
			c-0.1,0-0.15-0.1-0.15-0.1c0-0.081,0.015-0.148,0.044-0.192C0.586,1.198,0.59,1.198,0.594,1.198
			C0.688,1.198,0.741,1.394,0.756,1.457z"/>
		<path fill="#935D2F" d="M0.8,1.4c0,0-0.014,0.029-0.044,0.057C0.741,1.394,0.688,1.198,0.594,1.198c-0.004,0-0.008,0-0.011,0.001
			C0.57,1.199,0.557,1.202,0.545,1.207C0.568,1.173,0.6,1.153,0.64,1.151C0.643,1.15,0.646,1.15,0.65,1.15
			C0.75,1.15,0.8,1.4,0.8,1.4z"/>
	</g>
	<g>
		<path fill="#794D2F" d="M0.45,1.2c-0.139,0-0.157-0.144-0.155-0.233C0.295,0.92,0.305,0.871,0.332,0.832
			c0.03-0.046,0.063-0.056,0.076-0.031C0.417,0.818,0.417,0.851,0.4,0.9C0.364,1.079,0.405,1.155,0.432,1.185
			C0.442,1.196,0.45,1.2,0.45,1.2z"/>
		<path fill="#6C3E21" d="M0.432,1.185C0.355,1.145,0.343,1.038,0.345,0.967C0.345,0.92,0.355,0.871,0.382,0.832
			C0.39,0.818,0.399,0.808,0.408,0.801C0.417,0.818,0.417,0.851,0.4,0.9C0.364,1.079,0.405,1.155,0.432,1.185z"/>
	</g>
	<g>
		<path fill="#6C3E21" d="M0.751,1.042c0,0-0.001,0.001-0.001,0.001C0.744,1.048,0.74,1.05,0.74,1.05
			c0.033-0.099,0.023-0.155,0.012-0.18C0.746,0.856,0.74,0.85,0.74,0.85l0.1-0.05C0.882,0.924,0.785,1.015,0.751,1.042z"/>
		<path fill="#794D2F" d="M0.751,1.042c0,0-0.001,0.001-0.001,0.001C0.744,1.048,0.74,1.05,0.74,1.05
			c0.033-0.099,0.023-0.155,0.012-0.18L0.79,0.85C0.817,0.932,0.786,0.998,0.751,1.042z"/>
	</g>
	<path fill="#D3804E" d="M1,0.325v0.35C1,0.698,0.996,0.72,0.99,0.741C0.962,0.833,0.876,0.9,0.775,0.9h-0.35
		C0.301,0.9,0.2,0.799,0.2,0.675v-0.35c0-0.112,0.083-0.206,0.191-0.223C0.402,0.101,0.414,0.1,0.425,0.1h0.35
		c0.007,0,0.014,0.001,0.02,0.001c0.006,0.001,0.012,0.001,0.017,0.003c0.005,0,0.009,0.001,0.014,0.002
		C0.83,0.107,0.835,0.108,0.839,0.11C0.841,0.11,0.842,0.11,0.843,0.11c0.005,0.002,0.009,0.003,0.013,0.005
		C0.861,0.117,0.864,0.118,0.868,0.12C0.874,0.123,0.88,0.126,0.885,0.129C0.896,0.135,0.907,0.142,0.916,0.15
		c0.006,0.004,0.011,0.01,0.017,0.015c0.003,0.003,0.007,0.006,0.009,0.01c0.012,0.013,0.023,0.028,0.032,0.043
		C0.98,0.231,0.986,0.245,0.99,0.26c0.003,0.01,0.005,0.019,0.007,0.029c0.001,0.006,0.001,0.011,0.002,0.017
		C0.999,0.311,1,0.318,1,0.325z"/>
	<path fill="#824D28" d="M0.9,0.425V0.6c0,0.045-0.02,0.085-0.051,0.112C0.842,0.718,0.836,0.723,0.828,0.728
		C0.805,0.742,0.779,0.75,0.75,0.75h-0.3c-0.011,0-0.022-0.001-0.032-0.004c-0.016-0.003-0.032-0.01-0.046-0.018
		c-0.008-0.005-0.014-0.01-0.021-0.016C0.32,0.685,0.3,0.645,0.3,0.6V0.425C0.3,0.301,0.401,0.2,0.525,0.2h0.15
		C0.799,0.2,0.9,0.301,0.9,0.425z"/>
	<path fill="#CD7A48" d="M0.9,0.6v0.05c0,0.054-0.029,0.101-0.072,0.128C0.805,0.792,0.779,0.8,0.75,0.8h-0.3
		c-0.029,0-0.055-0.008-0.078-0.022C0.329,0.751,0.3,0.704,0.3,0.65V0.6c0,0.054,0.029,0.101,0.072,0.128
		C0.395,0.742,0.421,0.75,0.45,0.75h0.3c0.029,0,0.055-0.008,0.078-0.022C0.871,0.701,0.9,0.654,0.9,0.6z"/>
	<path fill="#CA7B4A" d="M0.85,0.5v0.2c0,0.004,0,0.008-0.001,0.012C0.842,0.718,0.836,0.723,0.828,0.728
		C0.805,0.742,0.779,0.75,0.75,0.75h-0.3c-0.011,0-0.022-0.001-0.032-0.004c-0.016-0.003-0.032-0.01-0.046-0.018
		c-0.008-0.005-0.014-0.01-0.021-0.016C0.35,0.708,0.35,0.704,0.35,0.7V0.5c0-0.11,0.09-0.2,0.2-0.2h0.1
		C0.76,0.3,0.85,0.39,0.85,0.5z"/>
	<g>
		<path fill="#EF9661" d="M0.85,0.5v0.2c0,0.004,0,0.008-0.001,0.012C0.842,0.718,0.836,0.723,0.828,0.728
			C0.805,0.742,0.779,0.75,0.75,0.75H0.739c0,0,0.12-0.175,0.033-0.33C0.686,0.266,0.395,0.371,0.395,0.525
			c0.046,0.142,0.179,0.041,0.179,0.041L0.495,0.55c-0.05,0,0.15-0.2,0.2-0.05c0.043,0.169-0.201,0.231-0.277,0.246
			c-0.016-0.003-0.032-0.01-0.046-0.018c-0.008-0.005-0.014-0.01-0.021-0.016C0.35,0.708,0.35,0.704,0.35,0.7V0.5
			c0-0.11,0.09-0.2,0.2-0.2h0.1C0.76,0.3,0.85,0.39,0.85,0.5z"/>
		<path fill="#CA7B4A" d="M0.739,0.75H0.45c-0.011,0-0.022-0.001-0.032-0.004C0.495,0.731,0.738,0.669,0.695,0.5
			c-0.05-0.15-0.25,0.05-0.2,0.05l0.079,0.016c0,0-0.133,0.101-0.179-0.041c0-0.154,0.29-0.259,0.377-0.105
			C0.86,0.575,0.739,0.75,0.739,0.75z"/>
	</g>
	<path fill="#EE9965" d="M1,0.325v0.35C1,0.698,0.996,0.72,0.99,0.741C0.966,0.729,0.95,0.704,0.95,0.675v-0.35
		c0-0.096-0.079-0.175-0.175-0.175H0.5c-0.043,0-0.082-0.018-0.109-0.048C0.402,0.101,0.414,0.1,0.425,0.1h0.35
		c0.007,0,0.014,0.001,0.02,0.001c0.006,0.001,0.012,0.001,0.017,0.003c0.005,0,0.009,0.001,0.014,0.002
		C0.83,0.107,0.835,0.108,0.839,0.11C0.841,0.11,0.842,0.11,0.843,0.11c0.005,0.002,0.009,0.003,0.013,0.005
		C0.861,0.117,0.864,0.118,0.868,0.12C0.874,0.123,0.88,0.126,0.885,0.129C0.896,0.135,0.907,0.142,0.916,0.15
		c0.006,0.004,0.011,0.01,0.017,0.015c0.003,0.003,0.007,0.006,0.009,0.01c0.012,0.013,0.023,0.028,0.032,0.043
		C0.98,0.231,0.986,0.245,0.99,0.26c0.003,0.01,0.005,0.019,0.007,0.029c0.001,0.006,0.001,0.011,0.002,0.017
		C0.999,0.311,1,0.318,1,0.325z"/>
</g>
</svg>
