<?xml version="1.0" encoding="UTF-8" standalone="no"?>
<!-- Created with Inkscape (http://www.inkscape.org/) -->

<svg
   width="1"
   height="1.7"
   viewBox="0 0 1 1.7"
   version="1.1"
   id="svg5"
   sodipodi:docname="stuntshow_fence_r.svg"
   inkscape:version="1.1 (c68e22c387, 2021-05-23)"
   xmlns:inkscape="http://www.inkscape.org/namespaces/inkscape"
   xmlns:sodipodi="http://sodipodi.sourceforge.net/DTD/sodipodi-0.dtd"
   xmlns:xlink="http://www.w3.org/1999/xlink"
   xmlns="http://www.w3.org/2000/svg"
   xmlns:svg="http://www.w3.org/2000/svg">
  <sodipodi:namedview
     id="namedview7"
     pagecolor="#171717"
     bordercolor="#999999"
     borderopacity="1"
     inkscape:pageshadow="0"
     inkscape:pageopacity="0"
     inkscape:pagecheckerboard="0"
     inkscape:document-units="px"
     showgrid="false"
     units="px"
     inkscape:zoom="256"
     inkscape:cx="0.32421875"
     inkscape:cy="1.0527344"
     inkscape:window-width="1284"
     inkscape:window-height="1041"
     inkscape:window-x="208"
     inkscape:window-y="0"
     inkscape:window-maximized="0"
     inkscape:current-layer="layer1"
     inkscape:object-paths="true"
     inkscape:snap-intersection-paths="true"
     inkscape:snap-smooth-nodes="true"
     inkscape:snap-midpoints="true"
     inkscape:snap-object-midpoints="true">
    <inkscape:grid
       type="xygrid"
       id="grid836"
       originx="0"
       originy="0" />
  </sodipodi:namedview>
  <defs
     id="defs2">
    <linearGradient
       inkscape:collect="always"
       xlink:href="#linearGradient43734"
       id="linearGradient140399"
       gradientUnits="userSpaceOnUse"
       gradientTransform="translate(-954.0078,-23)"
       x1="959"
       y1="30"
       x2="958"
       y2="32" />
    <linearGradient
       inkscape:collect="always"
       id="linearGradient43734">
      <stop
         style="stop-color:#7480b8;stop-opacity:1;"
         offset="0"
         id="stop43730" />
      <stop
         style="stop-color:#5060a4;stop-opacity:1"
         offset="1"
         id="stop43732" />
    </linearGradient>
  </defs>
  <g
     inkscape:label="Layer 1"
     inkscape:groupmode="layer"
     id="layer1">
    <g
       id="g171014"
       transform="scale(0.05)"
       style="stroke-width:20">
      <rect
         style="fill:#0a0f32;fill-opacity:0.2;stroke:none;stroke-width:80;stroke-linecap:round;stroke-linejoin:miter;stroke-miterlimit:4;stroke-dasharray:none;stroke-opacity:1;paint-order:markers stroke fill"
         id="rect148690"
         width="18"
         height="12"
         x="-20"
         y="22"
         transform="scale(-1,1)" />
      <path
         id="path148654"
         style="color:#000000;fill:#2c2854;fill-opacity:1;stroke-width:20;stroke-linecap:round;stroke-linejoin:round;-inkscape-stroke:none;paint-order:markers stroke fill"
         d="m 8,4 c 3.8423,0 7,3.157688 7,7 v 10 c 0,3.842312 -3.1577,7 -7,7 C 4.1577,28 1,24.842312 1,21 V 11 C 1,7.157688 4.1577,4 8,4 Z" />
      <path
         id="path148656"
         style="fill:#383870;fill-opacity:1;stroke:none;stroke-width:80;stroke-linecap:round;stroke-linejoin:round;stroke-miterlimit:4;stroke-dasharray:none;paint-order:markers stroke fill"
         d="m 3,19 v 2 a -5,5 0 0 0 5,5 -5,5 0 0 0 5,-5 V 19 A -5,5 0 0 1 8,24 -5,5 0 0 1 3,19 Z" />
      <path
         id="path148658"
         style="fill:#404080;fill-opacity:1;stroke:none;stroke-width:80;stroke-linecap:round;stroke-linejoin:round;stroke-miterlimit:4;stroke-dasharray:none;paint-order:markers stroke fill"
         d="M 13,19 A -5,5 0 0 1 8.9414,23.900391 -5,5 0 0 0 10.5098,25.324219 -5,5 0 0 0 13,21 Z" />
      <path
         id="path148660"
         style="fill:#383870;fill-opacity:1;stroke:none;stroke-width:80;stroke-linecap:round;stroke-linejoin:round;stroke-miterlimit:4;stroke-dasharray:none;paint-order:markers stroke fill"
         d="m 3,15 v 2 a -5,5 0 0 0 5,5 -5,5 0 0 0 5,-5 V 15 A -5,5 0 0 1 8,20 -5,5 0 0 1 3,15 Z" />
      <path
         id="path148664"
         style="fill:#383870;fill-opacity:1;stroke:none;stroke-width:80;stroke-linecap:round;stroke-linejoin:round;stroke-miterlimit:4;stroke-dasharray:none;paint-order:markers stroke fill"
         d="m 3,11 v 2 a -5,5 0 0 0 5,5 -5,5 0 0 0 5,-5 V 11 A -5,5 0 0 1 8,16 -5,5 0 0 1 3,11 Z" />
      <path
         id="path144610"
         style="color:#000000;fill:#780c38;fill-opacity:1;stroke-width:20;stroke-linecap:round;-inkscape-stroke:none;paint-order:markers stroke fill"
         d="M 20,0 V 24 H 11 C 7.71,24 5,21.290039 5,18 V 16 L 4.932,15.90039 C 2.1434,15.389908 0,12.925705 0,10 V 8 C 0,4.996275 2.2594,2.478369 5.1562,2.0625 5.5582,0.876104 6.6932,0 8,0 Z"
         sodipodi:nodetypes="ccssccsscsc" />
      <path
         id="path140466"
         style="fill:#7c1c48;fill-opacity:1;stroke:none;stroke-width:80;stroke-linecap:round;stroke-linejoin:miter;stroke-miterlimit:4;stroke-dasharray:none;paint-order:markers stroke fill"
         d="m 6,4 a -4,4 0 0 1 4,4 v 2 A -4,4 0 0 1 6,14 -4,4 0 0 1 2,10 V 8 A -4,4 0 0 1 6,4 Z" />
      <path
         id="circle135026"
         style="fill:#7c1c48;fill-opacity:1;stroke:none;stroke-width:80;stroke-linecap:round;stroke-linejoin:miter;stroke-miterlimit:4;stroke-dasharray:none;paint-order:markers stroke fill"
         d="m 20,16 v 6 H 11 C 8.7909,22 7,20.209139 7,18 v -3 z"
         sodipodi:nodetypes="ccsscc" />
      <path
         style="fill:#902854;fill-opacity:1;stroke:none;stroke-width:20px;stroke-linecap:butt;stroke-linejoin:miter;stroke-opacity:1"
         d="M 20,16 H 7 C 7,15 6,14 6,13 l 14,-1 z"
         id="path138698"
         sodipodi:nodetypes="ccccc" />
      <path
         style="color:#000000;fill:#b82868;stroke-width:80;stroke-linecap:round;-inkscape-stroke:none;paint-order:markers stroke fill"
         d="M 20,2 H 8 A -1,1 0 0 0 7,3 v 8 H 6 v 2 h 14 z"
         id="path148545" />
      <circle
         style="fill:#2c2854;fill-opacity:1;stroke-width:151.181;stroke-linecap:round;stroke-linejoin:round;paint-order:markers stroke fill"
         id="circle140391"
         cx="-6"
         cy="7"
         r="5"
         transform="scale(-1,1)" />
      <path
         id="path140393"
         style="fill:#443c64;fill-opacity:1;stroke-width:151.181;stroke-linecap:round;stroke-linejoin:round;paint-order:markers stroke fill"
         d="M 9,7 A -3,3 0 0 1 8.8203,8 H 3.1797 A -3,3 0 0 1 3,7 Z" />
      <path
         id="path140395"
         style="fill:#3c3454;fill-opacity:1;stroke-width:151.181;stroke-linecap:round;stroke-linejoin:round;paint-order:markers stroke fill"
         d="M 9,7 H 3 A -3,3 0 0 1 3.1719,6 H 8.8203 A -3,3 0 0 1 9,7 Z" />
      <path
         id="path140397"
         style="fill:url(#linearGradient140399);fill-opacity:1;stroke-width:151.181;stroke-linecap:round;stroke-linejoin:round;paint-order:markers stroke fill"
         d="M 5.9922,4 A -3,3 0 0 0 3.1719,6 H 8.8203 A -3,3 0 0 0 5.9922,4 Z M 3.1719,8 a -3,3 0 0 0 2.8203,2 -3,3 0 0 0 2.8203,-2 z" />
    </g>
  </g>
</svg>
