<?xml version="1.0" encoding="utf-8"?>
<!-- Generator: Adobe Illustrator 24.1.2, SVG Export Plug-In . SVG Version: 6.00 Build 0)  -->
<svg version="1.1" id="Capa_1" xmlns="http://www.w3.org/2000/svg" xmlns:xlink="http://www.w3.org/1999/xlink" x="0px" y="0px"
	 width="1px" height="1.8px" viewBox="0 0 1 1.8" enable-background="new 0 0 1 1.8" xml:space="preserve">
<g>
	<path id="rect10315" fill="#0A0F32" fill-opacity="0.2" d="M0.1,1.35h0.8C0.956,1.35,1,1.401,1,1.463v0.225
		C1,1.749,0.955,1.8,0.9,1.8H0.1C0.045,1.8,0,1.749,0,1.688V1.463C0,1.401,0.045,1.35,0.1,1.35z"/>
</g>
<g>
	<path fill="#321E4C" d="M1,0.2v1.3H0V0.2C0,0.089,0.089,0,0.2,0h0.6C0.911,0,1,0.089,1,0.2z"/>
	<rect x="0.1" y="0.8" fill="#341D5B" width="0.8" height="0.6"/>
	<rect x="0.4" y="0.95" fill="#3E226F" width="0.1" height="0.45"/>
	<rect x="0.5" y="0.95" fill="#2C184F" width="0.1" height="0.45"/>
	<path opacity="0.15" d="M0.9,0.325v0.7c0,0.069-0.056,0.125-0.125,0.125h-0.55C0.156,1.15,0.1,1.094,0.1,1.025v-0.7
		C0.1,0.256,0.156,0.2,0.225,0.2h0.55C0.844,0.2,0.9,0.256,0.9,0.325z"/>
	<path fill="#632984" d="M0.9,0.225v0.7c0,0.069-0.056,0.125-0.125,0.125h-0.55C0.156,1.05,0.1,0.994,0.1,0.925v-0.7
		C0.1,0.156,0.156,0.1,0.225,0.1h0.55C0.844,0.1,0.9,0.156,0.9,0.225z"/>
	<path fill="#9966CC" d="M0.9,0.225v0.45C0.9,0.744,0.844,0.8,0.775,0.8h-0.55C0.156,0.8,0.1,0.744,0.1,0.675v-0.45
		C0.1,0.156,0.156,0.1,0.225,0.1h0.55C0.844,0.1,0.9,0.156,0.9,0.225z"/>
	<path fill="#864DB2" d="M0.8,0.275v0.35C0.8,0.666,0.767,0.7,0.725,0.7h-0.45C0.233,0.7,0.2,0.666,0.2,0.625v-0.35
		C0.2,0.233,0.233,0.2,0.275,0.2h0.45C0.767,0.2,0.8,0.233,0.8,0.275z"/>
	<g>
		<ellipse opacity="0.3" cx="0.325" cy="0.35" rx="0.175" ry="0.15"/>
		<ellipse fill="#272B58" cx="0.325" cy="0.3" rx="0.175" ry="0.15"/>
		<path fill="#636BD6" d="M0.45,0.3c0,0.012-0.002,0.024-0.008,0.035C0.424,0.373,0.379,0.4,0.325,0.4C0.256,0.4,0.2,0.355,0.2,0.3
			c0-0.036,0.023-0.067,0.058-0.085C0.277,0.205,0.301,0.2,0.325,0.2C0.394,0.2,0.45,0.245,0.45,0.3z"/>
		<path fill="#6B84EF" d="M0.45,0.3c0,0.012-0.002,0.024-0.008,0.035C0.423,0.345,0.399,0.35,0.375,0.35
			c-0.069,0-0.125-0.045-0.125-0.1c0-0.012,0.002-0.024,0.008-0.035C0.277,0.205,0.301,0.2,0.325,0.2C0.394,0.2,0.45,0.245,0.45,0.3
			z"/>
	</g>
	<g>
		<ellipse opacity="0.3" cx="0.675" cy="0.65" rx="0.175" ry="0.15"/>
		<ellipse fill="#272B58" cx="0.675" cy="0.6" rx="0.175" ry="0.15"/>
		<path fill="#636BD6" d="M0.8,0.6c0,0.012-0.002,0.024-0.008,0.035C0.774,0.673,0.729,0.7,0.675,0.7C0.606,0.7,0.55,0.655,0.55,0.6
			c0-0.036,0.023-0.067,0.058-0.085C0.627,0.505,0.651,0.5,0.675,0.5C0.744,0.5,0.8,0.545,0.8,0.6z"/>
		<path fill="#6B84EF" d="M0.8,0.6c0,0.012-0.002,0.024-0.008,0.035C0.773,0.645,0.749,0.65,0.725,0.65
			C0.656,0.65,0.6,0.605,0.6,0.55c0-0.012,0.002-0.024,0.008-0.035C0.627,0.505,0.651,0.5,0.675,0.5C0.744,0.5,0.8,0.545,0.8,0.6z"
			/>
	</g>
</g>
</svg>
