<?xml version="1.0" encoding="utf-8"?>
<!-- Generator: Adobe Illustrator 24.1.2, SVG Export Plug-In . SVG Version: 6.00 Build 0)  -->
<svg version="1.1" id="Capa_1" xmlns="http://www.w3.org/2000/svg" xmlns:xlink="http://www.w3.org/1999/xlink" x="0px" y="0px"
	 width="1px" height="1.65px" viewBox="0 0 1 1.65" enable-background="new 0 0 1 1.65" xml:space="preserve">
<circle id="circle16099" fill="#0A0F32" fill-opacity="0.2" cx="0.5" cy="1.15" r="0.5"/>
<g>
	<path fill="#672605" d="M1,0.75c0,0.133-0.052,0.258-0.147,0.353C0.809,1.148,0.757,1.183,0.7,1.208
		C0.695,1.287,0.63,1.35,0.55,1.35h-0.1c-0.08,0-0.145-0.063-0.15-0.142c-0.057-0.025-0.109-0.06-0.153-0.105
		C0.052,1.008,0,0.883,0,0.75c0-0.08,0.019-0.158,0.056-0.229C0.052,0.498,0.05,0.474,0.05,0.45C0.05,0.202,0.252,0,0.5,0
		s0.45,0.202,0.45,0.45c0,0.024-0.002,0.048-0.006,0.071C0.981,0.592,1,0.67,1,0.75z"/>
	<path fill="#A96136" d="M0.6,1v0.2c0,0.027-0.023,0.05-0.05,0.05h-0.1C0.423,1.25,0.4,1.227,0.4,1.2V1
		c0-0.027,0.023-0.05,0.05-0.05h0.1C0.577,0.95,0.6,0.973,0.6,1z"/>
	<path fill="#F8A942" d="M0.5,0.35L0.5,0.35c-0.22,0-0.4,0.18-0.4,0.4v0c0,0.22,0.18,0.4,0.4,0.4h0c0.22,0,0.4-0.18,0.4-0.4v0
		C0.9,0.53,0.72,0.35,0.5,0.35z"/>
	<circle fill="#D49137" cx="0.5" cy="0.525" r="0.325"/>
	<circle fill="#CF4330" cx="0.5" cy="0.45" r="0.35"/>
	<path fill="#CACAD4" d="M0.5,0.2c-0.138,0-0.25,0.112-0.25,0.25S0.362,0.7,0.5,0.7s0.25-0.112,0.25-0.25S0.638,0.2,0.5,0.2z
		 M0.5,0.6c-0.083,0-0.15-0.067-0.15-0.15c0-0.083,0.067-0.15,0.15-0.15s0.15,0.067,0.15,0.15C0.65,0.533,0.583,0.6,0.5,0.6z"/>
</g>
</svg>
