<?xml version="1.0" encoding="utf-8"?>
<!-- Generator: Adobe Illustrator 24.1.2, SVG Export Plug-In . SVG Version: 6.00 Build 0)  -->
<svg version="1.1" id="Capa_1" xmlns="http://www.w3.org/2000/svg" xmlns:xlink="http://www.w3.org/1999/xlink" x="0px" y="0px"
	 width="3.15px" height="3.35px" viewBox="0 0 3.15 3.35" enable-background="new 0 0 3.15 3.35" xml:space="preserve">
<path opacity="0.2" enable-background="new    " d="M2.575,3.35h-2c-0.221,0-0.4-0.179-0.4-0.4v-2c0-0.221,0.179-0.4,0.4-0.4h2
	c0.221,0,0.4,0.179,0.4,0.4v2C2.975,3.171,2.796,3.35,2.575,3.35z"/>
<g>
	<g>
		<path fill="#122A4D" d="M3.15,2.573v0.128c0,0.067-0.026,0.13-0.073,0.177L2.878,3.076C2.831,3.124,2.768,3.15,2.702,3.15
			c-0.067,0-0.13-0.026-0.177-0.074L2.073,2.625c-0.041-0.04-0.066-0.093-0.072-0.152L2,2.467V2.3l0.001-0.005
			c0.006-0.058,0.031-0.11,0.073-0.151l0.199-0.199c0.046-0.047,0.11-0.073,0.176-0.073c0.067,0,0.13,0.026,0.177,0.073l0.452,0.453
			C3.124,2.444,3.15,2.507,3.15,2.573z"/>
		<path fill="#303B54" d="M3.05,2.573v0.128c0,0.039-0.015,0.077-0.044,0.106L2.808,3.006c-0.059,0.058-0.154,0.058-0.212,0
			L2.143,2.554C2.117,2.528,2.104,2.496,2.1,2.463V2.335c0.002,0.017,0.007,0.034,0.014,0.049s0.017,0.029,0.029,0.042l0.452,0.452
			c0.058,0.058,0.154,0.058,0.212,0l0.198-0.199c0.013-0.013,0.023-0.027,0.03-0.042C3.045,2.617,3.05,2.595,3.05,2.573z"/>
		<path fill="#8899BB" d="M3.05,2.573c0,0.022-0.005,0.044-0.014,0.064c-0.007,0.015-0.017,0.029-0.03,0.042L2.805,2.88
			c-0.058,0.056-0.152,0.055-0.21-0.002L2.193,2.476l-0.05-0.05C2.131,2.413,2.121,2.399,2.114,2.384
			C2.107,2.368,2.102,2.351,2.1,2.335v-0.03C2.104,2.272,2.117,2.24,2.143,2.214l0.199-0.199c0.058-0.058,0.154-0.058,0.212,0
			l0.451,0.452C3.035,2.496,3.05,2.535,3.05,2.573z"/>
		<path fill="#556688" d="M2.97,2.714L2.805,2.88c-0.058,0.056-0.152,0.055-0.21-0.002L2.193,2.476
			C2.181,2.463,2.171,2.449,2.164,2.434C2.157,2.418,2.152,2.401,2.15,2.385v-0.03C2.154,2.322,2.167,2.29,2.193,2.264L2.267,2.19
			c0.058-0.058,0.154-0.058,0.212,0L2.93,2.642C2.952,2.663,2.965,2.688,2.97,2.714z"/>
	</g>
	<g>
		<path fill="#122A4D" d="M0,2.573v0.128c0,0.067,0.026,0.13,0.073,0.177l0.199,0.199C0.319,3.124,0.382,3.15,0.448,3.15
			c0.067,0,0.13-0.026,0.177-0.074l0.452-0.451C1.118,2.584,1.144,2.532,1.15,2.473V2.467V2.3L1.149,2.295
			c-0.006-0.058-0.031-0.11-0.073-0.151l-0.198-0.2c-0.046-0.047-0.11-0.073-0.176-0.073c-0.067,0-0.13,0.026-0.177,0.073
			L0.073,2.397C0.026,2.444,0,2.507,0,2.573z"/>
		<path fill="#303B54" d="M0.1,2.573v0.128c0,0.039,0.015,0.077,0.044,0.106l0.198,0.199c0.059,0.058,0.154,0.058,0.212,0
			l0.452-0.452c0.026-0.026,0.04-0.058,0.043-0.091V2.335C1.048,2.351,1.043,2.368,1.036,2.384C1.029,2.399,1.019,2.413,1.007,2.426
			L0.555,2.878c-0.058,0.058-0.154,0.058-0.212,0L0.144,2.679c-0.013-0.013-0.023-0.027-0.03-0.042C0.105,2.617,0.1,2.595,0.1,2.573
			z"/>
		<path fill="#707EA4" d="M1.05,2.305v0.029c-0.002,0.017-0.007,0.034-0.014,0.05C1.029,2.399,1.019,2.413,1.007,2.426l-0.05,0.05
			L0.555,2.878C0.498,2.935,0.404,2.936,0.345,2.88L0.144,2.679C0.137,2.672,0.13,2.664,0.125,2.655
			C0.121,2.649,0.117,2.643,0.114,2.637C0.105,2.617,0.1,2.595,0.1,2.573c0-0.038,0.015-0.076,0.044-0.106l0.451-0.452
			C0.642,1.969,0.711,1.96,0.766,1.986c0.015,0.007,0.029,0.017,0.042,0.029l0.199,0.199C1.033,2.24,1.046,2.272,1.05,2.305z"/>
		<path fill="#5A698E" d="M1.05,2.305v0.029c-0.002,0.017-0.007,0.034-0.014,0.05C1.029,2.399,1.019,2.413,1.007,2.426l-0.05,0.05
			L0.555,2.878C0.498,2.935,0.404,2.936,0.345,2.88L0.144,2.679C0.137,2.672,0.13,2.664,0.125,2.655
			C0.13,2.62,0.147,2.587,0.174,2.56l0.537-0.537c0.016-0.016,0.035-0.029,0.055-0.037c0.015,0.007,0.029,0.017,0.042,0.029
			l0.199,0.199C1.033,2.24,1.046,2.272,1.05,2.305z"/>
	</g>
	<g>
		<path fill="#122A4D" d="M1.95,0.701v0.128c0,0.067,0.026,0.13,0.073,0.177l0.199,0.199c0.047,0.048,0.11,0.074,0.176,0.074
			c0.067,0,0.13-0.026,0.177-0.074l0.452-0.451C3.068,0.713,3.093,0.66,3.099,0.601L3.1,0.596V0.429L3.099,0.423
			c-0.006-0.058-0.031-0.11-0.073-0.151L2.828,0.073C2.782,0.026,2.718,0,2.652,0c-0.067,0-0.13,0.026-0.177,0.073L2.023,0.526
			C1.976,0.573,1.95,0.635,1.95,0.701z"/>
		<path fill="#303B54" d="M2.05,0.701v0.128c0,0.039,0.015,0.077,0.044,0.106l0.198,0.199c0.059,0.058,0.154,0.058,0.212,0
			l0.452-0.452C2.983,0.657,2.996,0.624,3,0.591V0.463C2.998,0.48,2.993,0.497,2.986,0.512c-0.007,0.016-0.017,0.03-0.029,0.042
			L2.505,1.007c-0.058,0.058-0.154,0.058-0.212,0l-0.199-0.2C2.082,0.795,2.071,0.78,2.064,0.765C2.055,0.745,2.05,0.723,2.05,0.701
			z"/>
		<path fill="#8899BB" d="M3,0.434v0.029C2.998,0.48,2.993,0.497,2.986,0.512c-0.007,0.016-0.017,0.03-0.029,0.042L2.9,0.611
			L2.505,1.007c-0.057,0.057-0.151,0.058-0.21,0.002L2.094,0.807C2.082,0.795,2.071,0.78,2.064,0.765
			C2.055,0.745,2.05,0.723,2.05,0.701c0-0.038,0.015-0.076,0.044-0.106l0.417-0.417l0.035-0.035c0.059-0.058,0.154-0.058,0.212,0
			l0.199,0.199C2.983,0.368,2.996,0.401,3,0.434z"/>
		<path fill="#636F94" d="M2.9,0.579v0.032L2.505,1.007c-0.057,0.057-0.151,0.058-0.21,0.002L2.094,0.807
			C2.082,0.795,2.071,0.78,2.064,0.765C2.055,0.745,2.05,0.723,2.05,0.701c0-0.038,0.015-0.076,0.044-0.106l0.417-0.417
			C2.546,0.184,2.58,0.201,2.607,0.227l0.241,0.241C2.879,0.5,2.896,0.539,2.9,0.579z"/>
	</g>
	<g>
		<path fill="#122A4D" d="M1.15,0.701v0.128c0,0.067-0.026,0.13-0.073,0.177L0.878,1.205c-0.047,0.048-0.11,0.074-0.176,0.074
			c-0.067,0-0.13-0.026-0.177-0.074L0.073,0.754C0.032,0.713,0.007,0.66,0.001,0.601L0,0.596V0.429l0.001-0.005
			c0.006-0.058,0.031-0.11,0.073-0.151l0.199-0.199C0.318,0.026,0.382,0,0.448,0c0.067,0,0.13,0.026,0.177,0.073l0.452,0.453
			C1.124,0.573,1.15,0.635,1.15,0.701z"/>
		<path fill="#303B54" d="M1.05,0.701v0.128c0,0.039-0.015,0.077-0.044,0.106l-0.198,0.2c-0.059,0.058-0.154,0.058-0.212,0
			L0.143,0.682C0.117,0.657,0.104,0.624,0.1,0.591V0.463C0.102,0.48,0.107,0.497,0.114,0.512c0.007,0.015,0.017,0.029,0.029,0.042
			l0.452,0.452c0.058,0.058,0.154,0.058,0.212,0l0.198-0.199c0.012-0.012,0.023-0.027,0.03-0.042C1.045,0.745,1.05,0.723,1.05,0.701
			z"/>
		<path fill="#8899BB" d="M1.05,0.701c0,0.022-0.005,0.044-0.014,0.064c-0.007,0.015-0.018,0.03-0.03,0.042L0.805,1.008
			C0.78,1.033,0.747,1.046,0.714,1.049C0.671,1.053,0.627,1.038,0.595,1.007L0.193,0.604l-0.05-0.05
			C0.131,0.542,0.121,0.528,0.114,0.512C0.107,0.497,0.102,0.48,0.1,0.463V0.434c0.004-0.033,0.017-0.065,0.043-0.092L0.285,0.2
			l0.057-0.057c0.058-0.058,0.154-0.058,0.212,0l0.451,0.452C1.035,0.625,1.05,0.663,1.05,0.701z"/>
		<path fill="#63739C" d="M0.9,0.801c0,0.022-0.005,0.044-0.014,0.064c-0.007,0.015-0.018,0.03-0.03,0.042L0.714,1.049
			C0.671,1.053,0.627,1.038,0.595,1.007L0.193,0.604l-0.05-0.05C0.131,0.542,0.121,0.528,0.114,0.512
			C0.107,0.497,0.102,0.48,0.1,0.463V0.434c0.004-0.033,0.017-0.065,0.043-0.092L0.285,0.2c0.042-0.004,0.086,0.01,0.119,0.043
			l0.451,0.452C0.885,0.725,0.9,0.763,0.9,0.801z"/>
	</g>
	<path fill="#122A4D" d="M3.1,0.97v1.16c0,0.04-0.016,0.078-0.044,0.106l-0.82,0.82C2.208,3.084,2.17,3.1,2.13,3.1H0.97
		c-0.04,0-0.078-0.016-0.106-0.044l-0.82-0.82C0.016,2.208,0,2.17,0,2.13V0.97c0-0.04,0.016-0.078,0.044-0.106l0.82-0.82
		C0.892,0.016,0.93,0,0.97,0h1.16c0.04,0,0.078,0.016,0.106,0.044l0.82,0.82C3.084,0.892,3.1,0.93,3.1,0.97z"/>
	<polygon fill="#AD4200" points="2.13,0.15 0.97,0.15 0.15,0.97 0.15,2.13 0.97,2.95 2.13,2.95 2.95,2.13 2.95,0.97 	"/>
	<linearGradient id="SVGID_1_" gradientUnits="userSpaceOnUse" x1="1.55" y1="2.85" x2="1.55" y2="0.25">
		<stop  offset="0" style="stop-color:#C9A200"/>
		<stop  offset="0.46" style="stop-color:#C6A500"/>
		<stop  offset="0.54" style="stop-color:#FFCD00"/>
		<stop  offset="1" style="stop-color:#FFCC00"/>
	</linearGradient>
	<polygon fill="url(#SVGID_1_)" points="2.088,0.25 1.012,0.25 0.25,1.012 0.25,2.088 1.012,2.85 2.088,2.85 2.85,2.088 2.85,1.012 
			"/>
	<polygon fill="#FFEC00" points="2.85,1.011 2.85,1.111 2.039,0.3 0.961,0.3 1.011,0.25 2.089,0.25 	"/>
	<polygon fill="#ECD800" points="1.964,2.55 1.914,2.6 1.086,2.6 0.5,2.014 0.5,1.186 0.55,1.136 0.55,1.964 1.136,2.55 	"/>
	<polygon fill="#AD4200" points="1.964,0.55 1.136,0.55 0.55,1.136 0.55,1.964 1.136,2.55 1.964,2.55 2.55,1.964 2.55,1.136 	"/>
	<polygon fill="#36435E" points="1.923,0.65 1.177,0.65 0.65,1.177 0.65,1.923 1.177,2.45 1.923,2.45 2.45,1.923 2.45,1.177 	"/>
	<polygon fill="#182C4B" points="1.881,0.75 1.219,0.75 0.75,1.219 0.75,1.881 1.219,2.35 1.881,2.35 2.35,1.881 2.35,1.219 	"/>
	<g>
		<polygon fill="#F07906" points="2.25,1.26 2.25,1.84 1.84,2.25 1.26,2.25 0.85,1.84 0.85,1.26 1.26,0.85 1.84,0.85 		"/>
		<polygon fill="#F7B508" points="2.25,1.26 2.25,1.56 1.84,1.15 1.26,1.15 0.85,1.56 0.85,1.26 1.26,0.85 1.84,0.85 		"/>
		<polygon opacity="0.2" enable-background="new    " points="1.99,1 1.11,1 1.21,0.9 1.89,0.9 		"/>
		<polygon opacity="0.2" enable-background="new    " points="2.19,1.2 0.91,1.2 1.01,1.1 2.09,1.1 		"/>
		<rect x="0.85" y="1.3" opacity="0.2" enable-background="new    " width="1.4" height="0.1"/>
		<rect x="0.85" y="1.5" opacity="0.2" enable-background="new    " width="1.4" height="0.1"/>
		<rect x="0.85" y="1.7" opacity="0.2" enable-background="new    " width="1.4" height="0.1"/>
		<polygon opacity="0.2" enable-background="new    " points="2.19,1.9 2.09,2 1.01,2 0.91,1.9 		"/>
		<polygon opacity="0.2" enable-background="new    " points="1.99,2.1 1.89,2.2 1.21,2.2 1.11,2.1 		"/>
	</g>
</g>
</svg>
