<?xml version="1.0" ?>
<svg xmlns="http://www.w3.org/2000/svg" xmlns:xlink="http://www.w3.org/1999/xlink" width="1.0000088500000002" height="2.0500000000000003" viewBox="0 0 1.0000088500000002 2.0500000000000003" version="1.1" id="svg5" xml:space="preserve">
   <defs id="defs2">
      <linearGradient id="linearGradient18738">
         <stop style="stop-color:#103748;stop-opacity:1;" offset="0" id="stop18730"/>
         <stop style="stop-color:#04142c;stop-opacity:1;" offset="1" id="stop18736"/>
      </linearGradient>
      <linearGradient id="linearGradient16413">
         <stop style="stop-color:#4868b4;stop-opacity:1" offset="0" id="stop16409"/>
         <stop style="stop-color:#587cc4;stop-opacity:1" offset="0.33333245" id="stop18403"/>
         <stop style="stop-color:#8898e8;stop-opacity:1" offset="0.79487145" id="stop17797"/>
         <stop style="stop-color:#7c8cdc;stop-opacity:1" offset="1" id="stop16411"/>
      </linearGradient>
      <linearGradient id="linearGradient14157">
         <stop style="stop-color:#88a8f9;stop-opacity:0.78431374" offset="0" id="stop14153"/>
         <stop style="stop-color:#91b4f6;stop-opacity:0.90980393" offset="0.66666633" id="stop15717"/>
         <stop style="stop-color:#8caff6;stop-opacity:0.90980393" offset="1" id="stop14155"/>
      </linearGradient>
      <radialGradient xlink:href="#linearGradient14157" id="radialGradient14159" cx="38" cy="95" fx="38" fy="95" r="3" gradientUnits="userSpaceOnUse" gradientTransform="matrix(1.0000002,-0.9999986,0.99999941,1.0000006,-94.999951,37.99989)"/>
      <radialGradient xlink:href="#linearGradient16413" id="radialGradient16415" cx="41" cy="102" fx="41" fy="102" r="2" gradientUnits="userSpaceOnUse" gradientTransform="matrix(1.5000005,-1.4999991,1.5000009,1.5000024,-173.50011,10.499719)"/>
      <linearGradient xlink:href="#linearGradient18738" id="linearGradient18590" x1="40" y1="100" x2="40" y2="103" gradientUnits="userSpaceOnUse"/>
      <linearGradient xlink:href="#linearGradient18738" id="linearGradient20073" x1="43.5" y1="100.45508" x2="42.030689" y2="103" gradientUnits="userSpaceOnUse"/>
      <linearGradient xlink:href="#linearGradient18738" id="linearGradient20081" x1="36.5" y1="100.45455" x2="37.969616" y2="103" gradientUnits="userSpaceOnUse"/>
   </defs>
   <g id="layer1" transform="scale(0.05) translate(-29.999823,-90)">
      <g id="g21464">
         <circle style="opacity:1;fill:#0a0f32;fill-opacity:0.2;stroke:none;stroke-width:2;stroke-linejoin:round;stroke-dasharray:none;paint-order:markers stroke fill" id="path21397" cx="40" cy="121" r="10"/>
         <path id="path20905" style="color:#000000;fill:#24182c;fill-opacity:1;stroke-linejoin:round;paint-order:markers stroke fill" d="m 37,97 a 2.0002,2.0002 0 0 0 -1.695312,0.939453 l -2.5,3.999997 a 2.0002,2.0002 0 0 0 -0.277344,0.73243 c -0.274808,1.64883 -0.598841,4.65412 -1.011719,7.64843 -0.412878,2.99433 -1.024417,6.10764 -1.359375,6.9043 a 2.0002,2.0002 0 0 0 0.949219,2.56445 c 1.284453,0.64223 2.105472,2.10548 3.105469,4.10547 A 2.0002,2.0002 0 0 0 36,125 h 8 a 2.0002,2.0002 0 0 0 1.789062,-1.10547 c 0.977967,-1.95593 1.888933,-3.45024 3.158204,-4.13281 a 2.0002,2.0002 0 0 0 0.949218,-2.39453 c -0.373507,-1.12053 -0.921895,-4.18318 -1.355468,-7.15625 -0.433575,-2.97308 -0.800587,-5.93244 -1.06836,-7.53906 a 2.0002,2.0002 0 0 0 -0.277344,-0.73243 l -2.5,-3.999997 A 2.0002,2.0002 0 0 0 43,97 Z"/>
         <path style="opacity:1;fill:#342044;fill-opacity:1;stroke:none;stroke-width:4;stroke-linejoin:round;stroke-dasharray:none" d="m 34.5,103 c -0.5,3 -1.34375,12.25 -2.5,15 2,1 3,3 4,5 l 4,-17 z" id="path12635"/>
         <path style="opacity:1;fill:#482c58;fill-opacity:1;stroke:none;stroke-width:4;stroke-linejoin:round;stroke-dasharray:none" d="m 45.5,103 -5.5,3 4,17 c 1,-2 2.074677,-3.96462 4,-5 -1,-3 -2,-12 -2.5,-15 z" id="path12637"/>
         <path style="opacity:1;fill:#3c284c;fill-opacity:1;stroke:none;stroke-width:4;stroke-linejoin:round;stroke-dasharray:none" d="m 37,107 c 0,3 -1,13 -1,16 h 8 c 0,-3 -1,-13 -1,-16 l -3,-1 z" id="path12633"/>
         <path style="opacity:1;fill:#7c4898;fill-opacity:1;stroke:none;stroke-width:3.82971;stroke-linejoin:round;stroke-dasharray:none" d="M 34.5,103 37,99 h 6 l 2.5,4 -2.5,4 h -6 z" id="path12631"/>
         <path style="opacity:1;fill:#04142c;fill-opacity:1;stroke:none;stroke-width:2.43708;stroke-linejoin:round;stroke-dasharray:none" d="m 36.5,103 1.590909,-2.54545 h 3.818182 L 43.5,103 l -1.590909,2.54545 h -3.818182 z" id="path12639"/>
         <path id="rect18578" style="opacity:1;fill:url(#linearGradient20081);fill-opacity:1;stroke:none;stroke-width:4;stroke-linejoin:round;stroke-dasharray:none" d="M 38.091797,100.45508 36.5,103 l 1.591797,2.54492 z"/>
         <path id="rect18580" style="opacity:1;fill:url(#linearGradient20073);fill-opacity:1;stroke:none;stroke-width:4;stroke-linejoin:round;stroke-dasharray:none" d="m 41.908203,100.45508 v 5.08984 L 43.5,103 Z"/>
         <rect style="opacity:1;fill:url(#linearGradient18590);fill-opacity:1;stroke:none;stroke-width:4;stroke-linejoin:round;stroke-dasharray:none" id="rect18582" width="3.8181839" height="4.2649117" x="38.090908" y="100.45455"/>
         <path id="path20090" style="color:#000000;fill:#263367;fill-opacity:1;stroke-width:2;stroke-linejoin:round" d="m 39,90 c -2.19729,0 -4,1.80271 -4,4 0,2.19729 1.80271,4 4,4 2.19729,0 4,-1.80271 4,-4 0,-2.19729 -1.80271,-4 -4,-4 z m 3,8 c -1.645006,0 -3,1.354994 -3,3 0,1.64501 1.354994,3 3,3 1.645006,0 3,-1.35499 3,-3 0,-1.645006 -1.354994,-3 -3,-3 z"/>
         <circle style="opacity:1;fill:url(#radialGradient14159);fill-opacity:1;stroke:none;stroke-width:4;stroke-linejoin:round;stroke-dasharray:none" id="circle12643" cx="39" cy="94" r="3"/>
         <circle style="opacity:1;fill:url(#radialGradient16415);fill-opacity:1;stroke:none;stroke-width:4;stroke-linejoin:round;stroke-dasharray:none" id="circle12641" cx="42" cy="101" r="2"/>
      </g>
   </g>
</svg>
