<?xml version="1.0" encoding="UTF-8" standalone="no"?>
<!-- Created with Inkscape (http://www.inkscape.org/) -->

<svg
   width="1"
   height="1.75"
   viewBox="0 0 1 1.75"
   version="1.1"
   id="svg5"
   sodipodi:docname="ticket_booth.svg"
   inkscape:version="1.2 (dc2aedaf03, 2022-05-15)"
   xml:space="preserve"
   xmlns:inkscape="http://www.inkscape.org/namespaces/inkscape"
   xmlns:sodipodi="http://sodipodi.sourceforge.net/DTD/sodipodi-0.dtd"
   xmlns="http://www.w3.org/2000/svg"
   xmlns:svg="http://www.w3.org/2000/svg"><sodipodi:namedview
     id="namedview7"
     pagecolor="#171717"
     bordercolor="#999999"
     borderopacity="1"
     inkscape:pageshadow="0"
     inkscape:pageopacity="0"
     inkscape:pagecheckerboard="0"
     inkscape:document-units="px"
     showgrid="true"
     units="px"
     inkscape:zoom="132.81823"
     inkscape:cx="0.52327155"
     inkscape:cy="1.0465431"
     inkscape:window-width="3440"
     inkscape:window-height="1417"
     inkscape:window-x="-8"
     inkscape:window-y="-8"
     inkscape:window-maximized="1"
     inkscape:current-layer="layer1"
     inkscape:object-paths="true"
     inkscape:snap-intersection-paths="true"
     inkscape:snap-smooth-nodes="true"
     inkscape:snap-midpoints="true"
     inkscape:snap-object-midpoints="true"
     showguides="true"
     inkscape:snap-global="true"
     inkscape:showpageshadow="0"
     inkscape:deskcolor="#171717"><inkscape:grid
       type="xygrid"
       id="grid836"
       originx="0"
       originy="0" /></sodipodi:namedview><defs
     id="defs2"><linearGradient
       id="linearGradient48485"
       inkscape:swatch="solid"><stop
         style="stop-color:#ffa420;stop-opacity:1;"
         offset="0"
         id="stop48483" /></linearGradient></defs><g
     inkscape:label="Layer 1"
     inkscape:groupmode="layer"
     id="layer1"><g
       id="g11711"
       transform="scale(0.05)"><rect
         style="fill:#0a0f32;fill-opacity:0.2;stroke-linejoin:round;paint-order:fill markers stroke"
         id="rect1948-6"
         width="20"
         height="10"
         x="0"
         y="25"
         ry="2" /><rect
         style="fill:#043048;fill-opacity:1;stroke:none;stroke-width:8;stroke-linecap:square;stroke-linejoin:round;paint-order:markers stroke fill"
         id="rect3187"
         width="20"
         height="29"
         x="0"
         y="0"
         ry="4" /><rect
         style="fill:#0c4464;fill-opacity:1;stroke:none;stroke-width:8;stroke-linecap:square;stroke-linejoin:round;paint-order:markers stroke fill"
         id="rect3189"
         width="16"
         height="17"
         x="2"
         y="10"
         ry="2" /><rect
         style="fill:#187890;fill-opacity:1;stroke:none;stroke-width:8;stroke-linecap:square;stroke-linejoin:round;paint-order:markers stroke fill"
         id="rect3191"
         width="16"
         height="12"
         x="2"
         y="2"
         ry="2" /><rect
         style="fill:#146080;fill-opacity:1;stroke:none;stroke-width:8;stroke-linecap:square;stroke-linejoin:round;paint-order:markers stroke fill"
         id="rect3193"
         width="12"
         height="8"
         x="4"
         y="4" /><rect
         style="fill:#343474;fill-opacity:1;stroke:none;stroke-width:8;stroke-linecap:square;stroke-linejoin:round;paint-order:markers stroke fill"
         id="rect3195"
         width="14"
         height="4"
         x="3"
         y="22"
         ry="1" /><rect
         style="fill:#20204c;fill-opacity:1;stroke:none;stroke-width:8;stroke-linecap:square;stroke-linejoin:round;paint-order:markers stroke fill"
         id="rect3197"
         width="12"
         height="2"
         x="4"
         y="23" /><rect
         style="fill:#101028;fill-opacity:1;stroke:none;stroke-width:8;stroke-linecap:square;stroke-linejoin:round;paint-order:markers stroke fill"
         id="rect3199"
         width="12"
         height="1"
         x="4"
         y="23" /><rect
         style="fill:#20204c;fill-opacity:1;stroke:none;stroke-width:8;stroke-linecap:square;stroke-linejoin:round;paint-order:markers stroke fill"
         id="rect3201"
         width="14"
         height="6"
         x="3"
         y="15"
         ry="1" /><path
         id="rect3203"
         style="fill:#ffa018;fill-opacity:1;stroke:none;stroke-width:8;stroke-linecap:square;stroke-linejoin:round;paint-order:markers stroke fill"
         d="m 5,17 c -0.553999,0 -1,0.446001 -1,1 v 1 c 0,0.554 0.446001,1 1,1 h 1 c 0.553999,0 1,-0.446 1,-1 V 18 C 7,17.446001 6.553999,17 6,17 Z m 4,0 c -0.553999,0 -1,0.446001 -1,1 v 1 c 0,0.554 0.446001,1 1,1 h 2 c 0.553999,0 1,-0.446 1,-1 v -1 c 0,-0.553999 -0.446001,-1 -1,-1 z m 5,0 c -0.553999,0 -1,0.446001 -1,1 v 1 c 0,0.554 0.446001,1 1,1 h 1 c 0.553999,0 1,-0.446 1,-1 v -1 c 0,-0.553999 -0.446001,-1 -1,-1 z" /></g></g></svg>
