<?xml version="1.0" encoding="utf-8"?>
<!-- Generator: Adobe Illustrator 24.1.2, SVG Export Plug-In . SVG Version: 6.00 Build 0)  -->
<svg version="1.1" id="Capa_1" xmlns="http://www.w3.org/2000/svg" xmlns:xlink="http://www.w3.org/1999/xlink" x="0px" y="0px"
	 width="1px" height="1.7px" viewBox="0 0 1 1.7" enable-background="new 0 0 1 1.7" xml:space="preserve">
<g>
	<g>
		<circle id="circle16099" fill="#0A0F32" fill-opacity="0.2" cx="0.5" cy="1.2" r="0.5"/>
	</g>
</g>
<g>
	<path id="path16824_1_" fill="#693C14" d="M0.5,0C0.111,0,0,0.403,0,0.65v0.1C0,0.997,0.111,1.4,0.5,1.4C0.889,1.4,1,0.997,1,0.75
		v-0.1C1,0.403,0.889,0,0.5,0z"/>
	<path id="path16838_1_" fill="#F78C42" d="M0.5,0.1c-0.128,0-0.246,0.07-0.307,0.183C0.129,0.392,0.1,0.541,0.1,0.65v0.1
		c0,0.109,0.027,0.258,0.091,0.368C0.255,1.227,0.34,1.3,0.5,1.3s0.246-0.073,0.309-0.182C0.873,1.008,0.9,0.859,0.9,0.75v-0.1
		c0-0.106-0.028-0.25-0.088-0.359C0.752,0.174,0.632,0.1,0.5,0.1z"/>
	<ellipse id="ellipse16828_1_" fill="#F7A36A" cx="0.5" cy="0.45" rx="0.35" ry="0.35"/>
	<ellipse id="ellipse16830_1_" fill="#D97E42" cx="0.5" cy="0.45" rx="0.2" ry="0.2"/>
	<path fill="#B46836" d="M0.7,0.45c0,0.026-0.005,0.051-0.014,0.075c-0.014-0.033-0.035-0.06-0.061-0.08V0.45
		c0,0.069-0.056,0.125-0.125,0.125S0.375,0.519,0.375,0.45V0.445c-0.026,0.02-0.047,0.048-0.061,0.08
		C0.305,0.501,0.3,0.476,0.3,0.45c0-0.111,0.089-0.2,0.2-0.2S0.7,0.339,0.7,0.45z"/>
	<path id="path6402_1_" fill="#80512D" d="M0.113,0.65C0.109,0.66,0.104,0.671,0.101,0.682C0.1,0.688,0.1,0.694,0.1,0.7v0.05
		C0.1,0.716,0.105,0.682,0.113,0.65L0.113,0.65z M0.887,0.652C0.896,0.684,0.9,0.717,0.9,0.75c0,0.221-0.179,0.4-0.4,0.4
		c0,0,0,0,0,0c-0.21,0-0.384-0.162-0.399-0.372c0.004,0.104,0.031,0.235,0.088,0.335C0.269,1.201,0.382,1.25,0.5,1.25
		c0.118,0,0.231-0.05,0.312-0.137C0.874,1.004,0.9,0.858,0.9,0.75V0.7c0-0.005,0-0.011-0.001-0.017
		C0.896,0.673,0.892,0.662,0.887,0.652L0.887,0.652z"/>
	<path fill="#80512D" d="M0.9,0.7v0.016C0.87,0.799,0.817,0.869,0.75,0.918C0.72,0.94,0.686,0.959,0.65,0.973
		C0.634,0.979,0.617,0.984,0.6,0.988C0.583,0.992,0.567,0.995,0.55,0.997C0.539,0.998,0.527,0.999,0.515,0.999
		C0.511,1,0.505,1,0.5,1C0.465,1,0.432,0.996,0.4,0.988c-0.017-0.004-0.034-0.01-0.05-0.015c-0.036-0.014-0.07-0.032-0.1-0.055
		C0.183,0.869,0.13,0.8,0.1,0.717V0.7c0-0.035,0.004-0.074,0.01-0.115C0.149,0.768,0.312,0.9,0.5,0.9s0.351-0.131,0.39-0.315
		C0.897,0.626,0.9,0.665,0.9,0.7z"/>
	<path fill="#F2A427" d="M0.55,0.997C0.567,0.995,0.583,0.992,0.6,0.988v0.099c-0.017,0.004-0.036,0.007-0.054,0.01L0.45,1.025
		v0.072C0.433,1.095,0.417,1.091,0.4,1.088V0.988C0.432,0.996,0.465,1,0.5,1c0.005,0,0.011,0,0.015-0.001L0.55,1.025V0.997z"/>
	<path fill="#F2A427" d="M0.25,0.918c0.03,0.023,0.064,0.041,0.1,0.055v0.098C0.333,1.064,0.316,1.055,0.3,1.046V0.95H0.25V0.918z"
		/>
	<path fill="#F2A427" d="M0.75,0.918V0.95H0.7v0.096c-0.016,0.01-0.033,0.018-0.05,0.025V0.973C0.686,0.959,0.72,0.94,0.75,0.918z"
		/>
	<path opacity="0.2" fill="#F2A427" d="M0.45,0.95l0.065,0.049C0.511,1,0.505,1,0.5,1C0.465,1,0.432,0.996,0.4,0.988V0.95H0.35
		v0.023c-0.036-0.014-0.07-0.032-0.1-0.055V0.9h0.051C0.346,0.924,0.397,0.941,0.45,0.947V0.95z"/>
	<path opacity="0.2" fill="#F2A427" d="M0.75,0.9v0.018C0.72,0.94,0.686,0.959,0.65,0.973V0.95H0.6v0.038
		C0.583,0.992,0.567,0.995,0.55,0.997v-0.05C0.603,0.941,0.654,0.924,0.699,0.9H0.75z"/>
	<path fill="#395A73" d="M0.9,0.65v0.016C0.899,0.667,0.899,0.669,0.898,0.67C0.863,0.771,0.79,0.852,0.699,0.9
		C0.654,0.924,0.603,0.941,0.55,0.947C0.533,0.949,0.517,0.95,0.5,0.95S0.467,0.949,0.45,0.947C0.397,0.941,0.346,0.924,0.301,0.9
		c-0.09-0.048-0.163-0.129-0.199-0.23C0.101,0.67,0.101,0.668,0.1,0.667V0.65c0-0.006,0.001-0.012,0.001-0.018
		c0.001-0.03,0.004-0.064,0.009-0.098C0.149,0.718,0.312,0.85,0.5,0.85s0.351-0.131,0.39-0.315c0.005,0.034,0.008,0.067,0.009,0.098
		C0.9,0.639,0.9,0.645,0.9,0.65z"/>
	<path id="path16905_1_" fill="#395A73" d="M0.7,1.046c-0.016,0.01-0.033,0.018-0.05,0.025C0.634,1.077,0.617,1.083,0.6,1.088
		c-0.017,0.004-0.036,0.007-0.054,0.01C0.531,1.099,0.515,1.1,0.5,1.1c-0.017,0-0.033-0.001-0.05-0.003
		C0.433,1.095,0.417,1.091,0.4,1.088c-0.017-0.005-0.034-0.01-0.05-0.017C0.333,1.064,0.316,1.055,0.3,1.046
		C0.27,1.029,0.242,1.007,0.217,0.983C0.145,0.91,0.1,0.81,0.1,0.7v0.05c0,0.073,0.012,0.164,0.04,0.251
		C0.18,1.064,0.236,1.115,0.3,1.15h0.001C0.361,1.182,0.43,1.2,0.5,1.2s0.139-0.018,0.199-0.05H0.7
		c0.064-0.035,0.12-0.086,0.16-0.149C0.887,0.915,0.9,0.823,0.9,0.75V0.7C0.9,0.848,0.82,0.977,0.7,1.046z M0.899,0.633
		c-0.004-0.01-0.007-0.021-0.013-0.032c0.006,0.023,0.01,0.046,0.011,0.069C0.899,0.68,0.9,0.69,0.9,0.7V0.65
		C0.9,0.645,0.9,0.639,0.899,0.633z M0.101,0.632C0.101,0.638,0.1,0.644,0.1,0.65V0.7c0-0.01,0.001-0.02,0.002-0.03
		c0.001-0.024,0.005-0.048,0.012-0.071C0.108,0.61,0.105,0.621,0.101,0.632z"/>
	<g>
		<path fill="#613D16" d="M0.222,0.077C0.211,0.115,0.22,0.152,0.243,0.179c0.008,0.007,0.015,0.013,0.022,0.02
			C0.265,0.2,0.265,0.2,0.266,0.2c0.055,0.055,0.096,0.124,0.118,0.201c0.002,0.005,0.003,0.011,0.004,0.016
			c0.015,0.043,0.055,0.074,0.103,0.074c0.056,0,0.103-0.043,0.109-0.098V0.391c0-0.01-0.001-0.019-0.002-0.029
			C0.598,0.361,0.598,0.36,0.598,0.359c-0.015-0.138-0.091-0.257-0.2-0.332C0.397,0.026,0.396,0.025,0.395,0.025
			C0.387,0.019,0.378,0.014,0.37,0.009H0.369c-0.017-0.008-0.036-0.01-0.055-0.008C0.272,0.005,0.234,0.036,0.222,0.077z"/>
		<path fill="#84521D" d="M0.277,0.116c0,0.015,0.006,0.028,0.015,0.038c0.003,0.003,0.005,0.005,0.009,0.007
			c0.066,0.053,0.115,0.132,0.136,0.226v0.001C0.438,0.39,0.438,0.393,0.439,0.396v0.001c0.007,0.022,0.027,0.038,0.052,0.038
			c0.031,0,0.055-0.024,0.055-0.055c0-0.004-0.001-0.008-0.001-0.011C0.528,0.24,0.458,0.131,0.361,0.074
			C0.357,0.072,0.354,0.07,0.351,0.068C0.35,0.068,0.35,0.068,0.349,0.068c-0.006-0.003-0.013-0.004-0.02-0.004
			C0.3,0.063,0.277,0.087,0.277,0.116z"/>
	</g>
</g>
</svg>
