<?xml version="1.0" encoding="utf-8"?>
<!-- Generator: Adobe Illustrator 24.1.2, SVG Export Plug-In . SVG Version: 6.00 Build 0)  -->
<svg version="1.1" id="Capa_1" xmlns="http://www.w3.org/2000/svg" xmlns:xlink="http://www.w3.org/1999/xlink" x="0px" y="0px"
	 width="1px" height="1.8px" viewBox="0 0 1 1.8" enable-background="new 0 0 1 1.8" xml:space="preserve">
<circle id="circle16099" fill="#0A0F32" fill-opacity="0.2" cx="0.5" cy="1.3" r="0.5"/>
<g>
	<g>
		<path fill="#1A3468" d="M1,0.4v0.65C1,1.298,0.776,1.5,0.5,1.5S0,1.298,0,1.05V0.4c0-0.207,0.194-0.379,0.452-0.398
			C0.467,0.001,0.483,0,0.5,0c0.017,0,0.033,0.001,0.048,0.002C0.806,0.021,1,0.193,1,0.4z"/>
	</g>
	<path fill="#374B76" d="M0.9,0.95v0.1c0,0.193-0.179,0.35-0.4,0.35S0.1,1.243,0.1,1.05v-0.1C0.1,0.967,0.102,0.983,0.104,1
		C0.132,1.17,0.298,1.3,0.5,1.3S0.868,1.17,0.896,1C0.898,0.983,0.9,0.967,0.9,0.95z"/>
	<path fill="#5777BA" d="M0.9,0.95C0.9,0.967,0.898,0.983,0.896,1C0.868,1.17,0.702,1.3,0.5,1.3S0.132,1.17,0.104,1
		C0.102,0.983,0.1,0.967,0.1,0.95c0-0.193,0.179-0.35,0.4-0.35S0.9,0.757,0.9,0.95z"/>
	<path fill="#405B90" d="M0.85,0.58v0.37c0,0.035-0.007,0.068-0.02,0.1c-0.048,0.116-0.177,0.2-0.33,0.2s-0.282-0.084-0.33-0.2
		c-0.013-0.032-0.02-0.065-0.02-0.1V0.58H0.85z"/>
	<g>
		<path fill="#30446D" d="M0.55,1v0.196C0.533,1.199,0.517,1.2,0.5,1.2S0.467,1.199,0.45,1.196V1H0.55z"/>
		<path fill="#30446D" d="M0.35,0.85v0.321C0.313,1.156,0.279,1.135,0.25,1.11V0.85H0.35z"/>
		<path fill="#30446D" d="M0.2,0.75v0.304C0.188,1.037,0.178,1.019,0.17,1C0.157,0.968,0.15,0.935,0.15,0.9V0.75H0.2z"/>
		<path fill="#30446D" d="M0.75,0.85v0.26c-0.029,0.026-0.063,0.046-0.1,0.061V0.85H0.75z"/>
		<path fill="#30446D" d="M0.85,0.75V0.9c0,0.035-0.007,0.068-0.02,0.1C0.822,1.019,0.812,1.037,0.8,1.054V0.75H0.85z"/>
	</g>
	<path fill="#374B76" d="M0.9,0.65v0.1c0,0.193-0.179,0.35-0.4,0.35S0.1,0.943,0.1,0.75v-0.1c0,0.017,0.002,0.033,0.004,0.05
		C0.132,0.87,0.298,1,0.5,1s0.368-0.13,0.396-0.3C0.898,0.683,0.9,0.667,0.9,0.65z"/>
	<ellipse fill="#5B7ABF" cx="0.5" cy="0.65" rx="0.4" ry="0.35"/>
	<path fill="#38184D" d="M0.818,0.662C0.805,0.716,0.777,0.766,0.737,0.805C0.695,0.846,0.64,0.877,0.578,0.891
		C0.553,0.897,0.527,0.9,0.5,0.9c-0.157,0-0.287-0.102-0.318-0.238C0.255,0.746,0.37,0.8,0.5,0.8c0.02,0,0.04-0.002,0.059-0.004
		c0.052-0.007,0.099-0.021,0.143-0.043C0.747,0.729,0.786,0.698,0.818,0.662z"/>
	<path fill="#865D20" d="M0.737,0.805C0.695,0.846,0.64,0.877,0.578,0.891L0.559,0.796L0.55,0.75H0.7l0.002,0.002L0.737,0.805z"/>
	<path fill="#446095" d="M0.9,0.4v0.05c0,0.08-0.03,0.153-0.082,0.212C0.745,0.746,0.63,0.8,0.5,0.8S0.255,0.746,0.182,0.662
		C0.13,0.603,0.1,0.53,0.1,0.45V0.4c0,0.008,0.001,0.015,0.002,0.023c0.005,0.057,0.032,0.11,0.074,0.154
		C0.249,0.651,0.367,0.7,0.5,0.7s0.251-0.049,0.324-0.124C0.866,0.533,0.893,0.48,0.899,0.423C0.899,0.415,0.9,0.408,0.9,0.4z"/>
	<path fill="#698DD9" d="M0.9,0.4c0,0.008-0.001,0.015-0.001,0.023C0.883,0.578,0.711,0.7,0.5,0.7S0.117,0.578,0.102,0.423
		C0.101,0.415,0.1,0.408,0.1,0.4c0-0.155,0.158-0.283,0.359-0.299C0.473,0.101,0.486,0.1,0.5,0.1c0.014,0,0.027,0.001,0.041,0.001
		C0.742,0.117,0.9,0.245,0.9,0.4z"/>
	<rect x="0.3" y="0.35" fill="#516CA6" width="0.4" height="0.15"/>
	<rect x="0.35" y="0.4" fill="#5E7DB9" width="0.3" height="0.05"/>
	<path fill="#5775B3" d="M0.35,0.4v0.1H0.3V0.45C0.3,0.423,0.323,0.4,0.35,0.4z"/>
	<path fill="#5775B3" d="M0.7,0.45V0.5H0.65V0.4C0.677,0.4,0.7,0.423,0.7,0.45z"/>
	<path fill="#7498E5" d="M0.7,0.3v0.15c0-0.027-0.023-0.05-0.05-0.05h-0.3C0.323,0.4,0.3,0.423,0.3,0.45V0.3
		c0-0.027,0.023-0.05,0.05-0.05h0.3C0.677,0.25,0.7,0.273,0.7,0.3z"/>
</g>
</svg>
