<?xml version="1.0" encoding="UTF-8" standalone="no"?>
<!-- Created with Inkscape (http://www.inkscape.org/) -->

<svg
   width="0.26458332mm"
   height="0.41853103mm"
   viewBox="0 0 0.26458332 0.41853103"
   version="1.1"
   id="svg19080"
   inkscape:version="1.3.2 (091e20e, 2023-11-25, custom)"
   sodipodi:docname="vase_rumble.svg"
   xml:space="preserve"
   xmlns:inkscape="http://www.inkscape.org/namespaces/inkscape"
   xmlns:sodipodi="http://sodipodi.sourceforge.net/DTD/sodipodi-0.dtd"
   xmlns:xlink="http://www.w3.org/1999/xlink"
   xmlns="http://www.w3.org/2000/svg"
   xmlns:svg="http://www.w3.org/2000/svg"
   xmlns:rdf="http://www.w3.org/1999/02/22-rdf-syntax-ns#"
   xmlns:cc="http://creativecommons.org/ns#"
   xmlns:dc="http://purl.org/dc/elements/1.1/"><defs
     id="defs19074"><linearGradient
       id="linearGradient25"
       inkscape:collect="always"><stop
         id="stop22"
         offset="0"
         style="stop-color:#c65e64;stop-opacity:1;" /><stop
         style="stop-color:#bd5863;stop-opacity:1;"
         offset="0.62762976"
         id="stop23" /><stop
         style="stop-color:#bd5863;stop-opacity:1;"
         offset="0.88828921"
         id="stop24" /><stop
         id="stop25"
         offset="1"
         style="stop-color:#a4444a;stop-opacity:1;" /></linearGradient><linearGradient
       id="linearGradient9"
       inkscape:collect="always"><stop
         id="stop6"
         offset="0"
         style="stop-color:#c5414c;stop-opacity:1;" /><stop
         style="stop-color:#c5434c;stop-opacity:1;"
         offset="0.62762976"
         id="stop7" /><stop
         style="stop-color:#c3434e;stop-opacity:1;"
         offset="0.88828921"
         id="stop8" /><stop
         id="stop9"
         offset="1"
         style="stop-color:#c45059;stop-opacity:1;" /></linearGradient><linearGradient
       id="linearGradient5"
       inkscape:collect="always"><stop
         id="stop2"
         offset="0"
         style="stop-color:#fe7684;stop-opacity:1;" /><stop
         style="stop-color:#fe7684;stop-opacity:1;"
         offset="0.62762976"
         id="stop3" /><stop
         style="stop-color:#ff7986;stop-opacity:1;"
         offset="0.88828921"
         id="stop4" /><stop
         id="stop5"
         offset="1"
         style="stop-color:#ff6b73;stop-opacity:1;" /></linearGradient><radialGradient
       inkscape:collect="always"
       xlink:href="#linearGradient12652"
       id="radialGradient12732"
       gradientUnits="userSpaceOnUse"
       gradientTransform="matrix(2.2267889,-2.5681034e-5,2.673595e-5,2.3182602,1688.5745,5908.376)"
       cx="-1376.3203"
       cy="-4486.25"
       fx="-1376.3203"
       fy="-4486.25"
       r="7.8534999" /><linearGradient
       id="linearGradient12652"
       inkscape:collect="always"><stop
         id="stop12650"
         offset="0"
         style="stop-color:#fe5172;stop-opacity:1;" /><stop
         style="stop-color:#fd5071;stop-opacity:1"
         offset="0.62762976"
         id="stop12658" /><stop
         style="stop-color:#ff6e7b;stop-opacity:1"
         offset="0.88828921"
         id="stop12656" /><stop
         id="stop12648"
         offset="1"
         style="stop-color:#ff6e7b;stop-opacity:1" /></linearGradient><radialGradient
       inkscape:collect="always"
       xlink:href="#linearGradient12652"
       id="radialGradient12732-5-8"
       gradientUnits="userSpaceOnUse"
       gradientTransform="matrix(0.58917122,-6.7947735e-6,7.0738867e-6,0.613373,446.76866,1563.2578)"
       cx="-1376.3203"
       cy="-4486.25"
       fx="-1376.3203"
       fy="-4486.25"
       r="7.8534999" /><radialGradient
       inkscape:collect="always"
       xlink:href="#linearGradient5"
       id="radialGradient12732-5-2"
       gradientUnits="userSpaceOnUse"
       gradientTransform="matrix(0.58917122,-6.7947735e-6,7.0738867e-6,0.613373,446.76866,1563.2578)"
       cx="-1376.3203"
       cy="-4486.25"
       fx="-1376.3203"
       fy="-4486.25"
       r="7.8534999" /><radialGradient
       inkscape:collect="always"
       xlink:href="#linearGradient9"
       id="radialGradient12732-5-23"
       gradientUnits="userSpaceOnUse"
       gradientTransform="matrix(0.58917122,-6.7947735e-6,7.0738867e-6,0.613373,446.76866,1563.2578)"
       cx="-1376.3203"
       cy="-4486.25"
       fx="-1376.3203"
       fy="-4486.25"
       r="7.8534999" /><radialGradient
       inkscape:collect="always"
       xlink:href="#linearGradient25"
       id="radialGradient12732-5-23-3"
       gradientUnits="userSpaceOnUse"
       gradientTransform="matrix(0.58917122,-6.7947735e-6,7.0738867e-6,0.613373,446.76866,1563.2578)"
       cx="-1376.3203"
       cy="-4486.25"
       fx="-1376.3203"
       fy="-4486.25"
       r="7.8534999" /><radialGradient
       inkscape:collect="always"
       xlink:href="#linearGradient12652"
       id="radialGradient12732-7"
       gradientUnits="userSpaceOnUse"
       gradientTransform="matrix(0.58917122,-6.7947735e-6,7.0738867e-6,0.613373,446.76866,1563.2578)"
       cx="-1376.3203"
       cy="-4486.25"
       fx="-1376.3203"
       fy="-4486.25"
       r="7.8534999" /></defs><sodipodi:namedview
     id="base"
     pagecolor="#ffffff"
     bordercolor="#666666"
     borderopacity="1.0"
     inkscape:pageopacity="0.0"
     inkscape:pageshadow="2"
     inkscape:zoom="256"
     inkscape:cx="-0.1640625"
     inkscape:cy="0.66992188"
     inkscape:document-units="mm"
     inkscape:current-layer="g12730"
     showgrid="true"
     inkscape:window-width="1366"
     inkscape:window-height="705"
     inkscape:window-x="-8"
     inkscape:window-y="-8"
     inkscape:window-maximized="1"
     inkscape:showpageshadow="0"
     inkscape:pagecheckerboard="1"
     inkscape:deskcolor="#505050"><inkscape:grid
       id="grid1"
       units="px"
       originx="0"
       originy="0"
       spacingx="0.26458334"
       spacingy="0.26458333"
       empcolor="#3f3fff"
       empopacity="0.25098039"
       color="#3f3fff"
       opacity="0.1254902"
       empspacing="5"
       dotted="false"
       gridanglex="30"
       gridanglez="30"
       visible="true" /></sodipodi:namedview><metadata
     id="metadata19077"><rdf:RDF><cc:Work
         rdf:about=""><dc:format>image/svg+xml</dc:format><dc:type
           rdf:resource="http://purl.org/dc/dcmitype/StillImage" /></cc:Work></rdf:RDF></metadata><g
     inkscape:label="Layer 1"
     inkscape:groupmode="layer"
     id="layer1"
     transform="translate(-127.30102,-120.97181)"><g
       id="g12730"
       transform="matrix(0.04858683,0,0,0.04858683,145.12633,178.85578)"><rect
         ry="2.7227886"
         y="-1188.2302"
         x="-366.87524"
         height="5.4933634"
         width="5.4455767"
         id="rect12714"
         style="opacity:1;fill:#000000;fill-opacity:0.18000004;fill-rule:nonzero;stroke:none;stroke-width:4.05429649;stroke-linecap:round;stroke-linejoin:round;stroke-miterlimit:4;stroke-dasharray:none;stroke-dashoffset:0;stroke-opacity:1;paint-order:markers stroke fill" /><path
         style="opacity:1;fill:url(#radialGradient12732);fill-opacity:1;fill-rule:nonzero;stroke:#9d212b;stroke-width:3.40157485;stroke-linecap:round;stroke-linejoin:round;stroke-miterlimit:4;stroke-dasharray:none;stroke-dashoffset:0;stroke-opacity:1;paint-order:markers stroke fill"
         d="m -1376.3203,-4501.043 c -3.2019,10e-5 -5.7974,2.1347 -5.7969,4.7676 0,0.7062 0.2469,0.9279 0.2188,2.0566 -0.023,0.9304 -1.4894,1.8924 -2.0274,4.1934 -0.1149,0.4917 -0.248,0.9635 -0.248,1.5996 -10e-5,5.4243 3.2291,11.4785 7.8535,11.4785 4.6244,0 7.8536,-6.0545 7.8535,-11.4785 0,-0.6361 -0.133,-1.1079 -0.248,-1.5996 -0.5383,-2.301 -2.0056,-3.2628 -2.0274,-4.1934 -0.028,-1.1287 0.2188,-1.3506 0.2188,-2.0566 5e-4,-2.6328 -2.595,-4.7676 -5.7969,-4.7676 z"
         transform="scale(0.26458333)"
         id="path12716"
         inkscape:connector-curvature="0" /><path
         style="fill:url(#radialGradient12732-7);fill-opacity:1;fill-rule:nonzero;stroke:none;stroke-width:0.899999;stroke-linecap:round;stroke-linejoin:round;stroke-miterlimit:4;stroke-dasharray:none;stroke-dashoffset:0;stroke-opacity:1;paint-order:markers stroke fill"
         d="m -364.15141,-1190.9009 c -0.84717,0 -1.53389,0.5648 -1.53376,1.2614 0,0.1868 0.0653,0.2455 0.0579,0.5441 -0.006,0.2462 -0.39407,0.5007 -0.53642,1.1095 -0.0304,0.1301 -0.0656,0.255 -0.0656,0.4233 -3e-5,1.4351 0.85436,3.037 2.0779,3.037 1.22354,0 2.07793,-1.6019 2.07791,-3.037 0,-0.1683 -0.0352,-0.2932 -0.0656,-0.4233 -0.14242,-0.6088 -0.53065,-0.8633 -0.53642,-1.1095 -0.007,-0.2986 0.0579,-0.3573 0.0579,-0.5441 1.4e-4,-0.6966 -0.68659,-1.2614 -1.53376,-1.2614 z"
         id="path12716-2"
         inkscape:connector-curvature="0" /><path
         d="m -364.15256,-1190.9043 c -0.84717,0 -1.53169,0.569 -1.53156,1.2656 0,0.1868 0.0606,0.2439 0.0532,0.5425 -0.003,0.1376 -0.12278,0.2753 -0.25526,0.4786 a 1.9873847,2.1788306 0 0 1 1.3614,-0.585 1.9873847,2.1788306 0 0 1 1.97827,2.1804 1.9873847,2.1788306 0 0 1 -1.97827,2.1697 1.9873847,2.1788306 0 0 1 -0.71261,-0.1489 c 0.30932,0.2945 0.67383,0.4786 1.08486,0.4786 1.22354,0 2.07402,-1.6068 2.074,-3.0419 0,-0.1683 -0.0334,-0.2953 -0.0638,-0.4254 -0.14242,-0.6088 -0.52603,-0.8599 -0.5318,-1.1061 -0.007,-0.2986 0.0532,-0.3557 0.0532,-0.5425 1.4e-4,-0.6966 -0.6844,-1.2656 -1.53157,-1.2656 z"
         style="vector-effect:none;fill:url(#radialGradient12732-5-2);stroke-width:0.899999;stroke-linecap:round;stroke-linejoin:round;paint-order:markers stroke fill;stop-color:#000000"
         id="path2"
         transform="translate(-2.1439282e-6)" /><path
         d="m -364.15256,-1190.9043 c -0.84717,0 -1.53169,0.569 -1.53156,1.2656 0,0.1868 0.0606,0.2439 0.0532,0.5425 -0.006,0.2462 -0.38944,0.4973 -0.53179,1.1061 -0.0304,0.1301 -0.0638,0.2571 -0.0638,0.4254 -3e-5,1.4351 0.85047,3.0419 2.074,3.0419 0.0939,0 0.1872,-0.014 0.27654,-0.032 a 3.1269526,3.1269526 0 0 1 -0.95723,-2.2442 3.1269526,3.1269526 0 0 1 2.21226,-2.9887 c -0.0895,-0.6264 -0.74565,-1.1167 -1.53157,-1.1167 z"
         style="vector-effect:none;fill:url(#radialGradient12732-5-23);stroke-width:0.899999;stroke-linecap:round;stroke-linejoin:round;paint-order:markers stroke fill;stop-color:#000000"
         id="path5" /><path
         d="m -363.87602,-1184.5547 a 3.1269526,3.1269526 0 0 1 -0.29781,-0.3403 1.9873847,2.1788306 0 0 1 -0.35098,0.043 1.9873847,2.1788306 0 0 1 -0.71261,-0.1489 c 0.15365,0.1469 0.31865,0.2688 0.49989,0.351 0.0133,0.01 0.0291,0 0.0425,0.011 0.0313,0.013 0.0637,0.032 0.0957,0.043 0,0 0.0106,0 0.0106,0 0.0945,0.031 0.18686,0.053 0.28717,0.064 0.0105,0 0.0214,-10e-4 0.0319,0 0.0375,0 0.0788,0.011 0.11699,0.011 0.0382,0 0.0795,-0.01 0.117,-0.011 0.0539,-0.01 0.10762,-0.011 0.15954,-0.021 z"
         style="vector-effect:none;fill:url(#radialGradient12732-5-23-3);stroke-width:0.899999;stroke-linecap:round;stroke-linejoin:round;paint-order:markers stroke fill;stop-color:#000000"
         id="path22" /><ellipse
         style="opacity:1;fill:#ff6e7b;fill-opacity:1;fill-rule:nonzero;stroke:none;stroke-width:0.99686664;stroke-linecap:round;stroke-linejoin:round;stroke-miterlimit:4;stroke-dasharray:none;stroke-dashoffset:0;stroke-opacity:1;paint-order:markers stroke fill"
         id="ellipse12722"
         cx="-364.15155"
         cy="-1189.6398"
         rx="1.5338426"
         ry="1.2612492" /><ellipse
         ry="0.77569354"
         rx="0.94334394"
         cy="-1189.6398"
         cx="-364.15155"
         id="ellipse12724"
         style="opacity:1;fill:#8b1c24;fill-opacity:1;fill-rule:nonzero;stroke:none;stroke-width:0.61309296;stroke-linecap:round;stroke-linejoin:round;stroke-miterlimit:4;stroke-dasharray:none;stroke-dashoffset:0;stroke-opacity:1;paint-order:markers stroke fill" /><rect
         style="opacity:1;fill:none;fill-opacity:1;fill-rule:nonzero;stroke:none;stroke-width:0.04788959;stroke-linecap:round;stroke-linejoin:round;stroke-miterlimit:4;stroke-dasharray:none;stroke-dashoffset:0;stroke-opacity:1;paint-order:markers stroke fill"
         id="rect12728"
         width="5.4445133"
         height="5.4445133"
         x="-366.87469"
         y="-1189.2146" /><path
         d="m -364.66308,-1188.0858 c -0.48245,0.048 -0.86151,0.4618 -0.86151,0.9572 v 0.8296 c 0,0.528 0.42929,0.9572 0.95723,0.9572 h 0.8296 c 0.52795,0 0.95723,-0.4292 0.95723,-0.9572 v -0.8296 c 0,-0.5279 -0.42928,-0.9572 -0.95723,-0.9572 h -0.8296 c -0.0165,0 -0.0369,-8e-4 -0.0532,0 -0.0158,8e-4 -0.027,-0 -0.0425,0 z m 0.20208,0.5637 c 0.0189,-0 0.0444,0 0.0638,0 h 0.48925 c 0.31112,0 0.5637,0.2526 0.5637,0.5637 v 0.4892 c 0,0.3112 -0.25258,0.5637 -0.5637,0.5637 h -0.48925 c -0.31112,0 -0.5637,-0.2525 -0.5637,-0.5637 v -0.4892 c 0,-0.2917 0.21601,-0.5351 0.49988,-0.5637 z m 0.10636,0.3616 c -0.14233,0.028 -0.24462,0.1574 -0.24462,0.3085 v 0.2765 c 0,0.1718 0.13662,0.3084 0.30844,0.3084 h 0.27653 c 0.17182,0 0.30844,-0.1366 0.30844,-0.3084 v -0.2765 c 0,-0.1719 -0.13662,-0.3085 -0.30844,-0.3085 h -0.27653 c -0.0107,0 -0.0215,-10e-4 -0.0319,0 -0.01,10e-4 -0.0224,-0 -0.0319,0 z"
         style="fill:#dcc115;stroke:#000000;stroke-width:0;stroke-linecap:round;stroke-linejoin:round;paint-order:markers fill stroke;fill-opacity:1"
         id="path21" /></g></g></svg>
