<?xml version="1.0" encoding="UTF-8" standalone="no"?>
<!-- Created with Inkscape (http://www.inkscape.org/) -->

<svg
   width="1.1000006"
   height="1.0000002"
   viewBox="0 0 1.1000006 1.0000002"
   version="1.1"
   id="svg5"
   sodipodi:docname="wall_plant_ver.svg"
   inkscape:version="1.1 (c68e22c387, 2021-05-23)"
   xmlns:inkscape="http://www.inkscape.org/namespaces/inkscape"
   xmlns:sodipodi="http://sodipodi.sourceforge.net/DTD/sodipodi-0.dtd"
   xmlns:xlink="http://www.w3.org/1999/xlink"
   xmlns="http://www.w3.org/2000/svg"
   xmlns:svg="http://www.w3.org/2000/svg">
  <sodipodi:namedview
     id="namedview7"
     pagecolor="#171717"
     bordercolor="#999999"
     borderopacity="1"
     inkscape:pageshadow="0"
     inkscape:pageopacity="0"
     inkscape:pagecheckerboard="0"
     inkscape:document-units="px"
     showgrid="false"
     units="px"
     inkscape:zoom="256"
     inkscape:cx="0.40234375"
     inkscape:cy="0.98242188"
     inkscape:window-width="1284"
     inkscape:window-height="1041"
     inkscape:window-x="208"
     inkscape:window-y="0"
     inkscape:window-maximized="0"
     inkscape:current-layer="layer1"
     inkscape:object-paths="true"
     inkscape:snap-intersection-paths="true"
     inkscape:snap-smooth-nodes="true"
     inkscape:snap-midpoints="true"
     inkscape:snap-object-midpoints="true">
    <inkscape:grid
       type="xygrid"
       id="grid836"
       originx="3.2965496e-13"
       originy="-7.9092205e-13" />
  </sodipodi:namedview>
  <defs
     id="defs2">
    <radialGradient
       inkscape:collect="always"
       xlink:href="#linearGradient106018"
       id="radialGradient106020"
       cx="356"
       cy="152"
       fx="356"
       fy="152"
       r="5"
       gradientTransform="matrix(1,0,0,0.8,-344.99999,-114.59999)"
       gradientUnits="userSpaceOnUse" />
    <linearGradient
       inkscape:collect="always"
       id="linearGradient106018">
      <stop
         style="stop-color:#172c6b;stop-opacity:0.35693213"
         offset="0"
         id="stop106014" />
      <stop
         style="stop-color:#172c6b;stop-opacity:0.35693213"
         offset="0.66141838"
         id="stop106214" />
      <stop
         style="stop-color:#27345b;stop-opacity:0;"
         offset="1"
         id="stop106016" />
    </linearGradient>
  </defs>
  <g
     inkscape:label="Layer 1"
     inkscape:groupmode="layer"
     id="layer1">
    <g
       id="g158531"
       transform="scale(0.05)"
       style="stroke-width:20">
      <path
         id="path147608"
         style="color:#000000;fill:#002155;fill-opacity:0.847059;stroke-width:40;stroke-linejoin:round;-inkscape-stroke:none"
         d="m 2.0000155,2.0000035 c -0.55226,6e-5 -0.99994,0.44775 -1,1 0,1 -0.003,2.28053 0.13086,3.48633 0.13398,1.2058 0.30856,2.36715 1.16211,3.2207 0.61785,0.6178505 1.52601,1.2397705 2.69141,1.4062505 1.16539,0.16649 2.54588,-0.22947 3.72265,-1.4062505 1.17678,-1.17677 1.5746905,-2.55728 1.4082005,-3.72266 -0.1664805,-1.16538 -0.7903505,-2.07355 -1.4082005,-2.6914 -0.87639,-0.87639 -2.07016,-1.02868 -3.29687,-1.16211 -1.22672,-0.13343 -2.50707,-0.13086 -3.41016,-0.13086 z m 18.1308605,7 c -0.90309,0 -2.18344,-0.003 -3.41016,0.13086 -1.22671,0.13343 -2.42048,0.28572 -3.29687,1.1621105 -0.61785,0.61785 -1.24172,1.52601 -1.40821,2.69141 -0.16649,1.16539 0.23143,2.54588 1.40821,3.72265 1.17677,1.17678 2.55729,1.57469 3.72265,1.4082 1.1654,-0.16648 2.07356,-0.79035 2.69141,-1.4082 0.85355,-0.85355 1.02813,-2.0149 1.16211,-3.2207 0.13398,-1.2058 0.13086,-2.48633 0.13086,-3.48633 -6e-5,-0.5522605 -0.44774,-0.9999405 -1,-1.0000005 z"
         sodipodi:nodetypes="sccsssssssccsssssssc" />
      <path
         id="path108154"
         style="color:#000000;fill:#044e1f;fill-opacity:1;stroke-width:40;stroke-linejoin:round;-inkscape-stroke:none"
         d="M 1.0000055,3.5360706e-6 A 1.0001,1.0001 0 0 0 5.5212411e-6,1.0000035 c 0,1 -0.00300000124,2.28053 0.1308599987589,3.48633 0.13398,1.2058 0.30856,2.36715 1.16210998,3.2207 0.61785,0.61785 1.52603,1.24172 2.69141,1.4082 1.16539,0.16649 2.54588,-0.23142 3.72265,-1.4082 1.17678,-1.17677 1.57469,-2.55727 1.4082,-3.72265 -0.16648,-1.16538 -0.79035,-2.07356 -1.4082,-2.69141 C 6.8306455,0.41658354 5.6368755,0.26429354 4.4101655,0.13086354 3.1834455,-0.00256646 1.9030955,3.5360706e-6 1.0000055,3.5360706e-6 Z M 21.000006,7.0000035 c -0.90309,0 -2.18344,-0.003 -3.41016,0.13086 -1.22671,0.13343 -2.42048,0.28572 -3.29687,1.16211 -0.61785,0.61785 -1.24172,1.52603 -1.4082,2.6914105 -0.16649,1.16539 0.23142,2.54588 1.4082,3.72265 1.17677,1.17678 2.55728,1.57469 3.72265,1.4082 1.1654,-0.16648 2.07356,-0.79035 2.69141,-1.4082 0.85355,-0.85355 1.02813,-2.0149 1.16211,-3.2207 0.13398,-1.2058 0.13086,-2.4863305 0.13086,-3.4863305 a 1.0001,1.0001 0 0 0 -1,-1 z" />
      <path
         id="path108111"
         style="fill:#08c14c;fill-opacity:1;stroke:none;stroke-width:40;stroke-linecap:butt;stroke-linejoin:miter;stroke-miterlimit:4;stroke-dasharray:none;stroke-opacity:1"
         d="m 1.0000055,1.0000035 c 0,2 0,5 1,6 1,1 3,2 5,0 2,-2 1,-4 0,-5 -1,-1 -4.19381,-1 -6,-1 z m 20.0000005,7 c -1.80619,0 -5,0 -6,1 -1,1.0000005 -2,3.0000005 0,5.0000005 2,2 4,1 5,0 1,-1 1,-4 1,-6.0000005 z" />
      <rect
         style="fill:#002c64;fill-opacity:1;stroke:none;stroke-width:80;stroke-linecap:round;stroke-linejoin:round;stroke-miterlimit:4;stroke-dasharray:none;stroke-opacity:0.258856;paint-order:markers stroke fill"
         id="rect90038"
         width="14"
         height="20"
         x="4.0000057"
         y="3.5360706e-06" />
      <path
         id="rect90040"
         style="fill:#1878b4;fill-opacity:1;stroke:none;stroke-width:80;stroke-linecap:round;stroke-linejoin:round;stroke-miterlimit:4;stroke-dasharray:none;stroke-opacity:0.258856;paint-order:markers stroke fill"
         d="M 6.0000055,3.5360706e-6 V 8.6933635 c 1.07688,-1.62019 2.91821,-2.69336 5.0000005,-2.69336 2.08179,0 3.92312,1.07317 5,2.69336 V 3.5360706e-6 Z M 11.000006,8.0000035 6.0000055,12.166024 v 7.83398 H 16.000006 v -7.83398 z" />
      <path
         id="rect90042"
         style="fill:#40a8e0;fill-opacity:1;stroke:none;stroke-width:80;stroke-linecap:round;stroke-linejoin:round;stroke-miterlimit:4;stroke-dasharray:none;stroke-opacity:0.258856;paint-order:markers stroke fill"
         d="M 9.0000055,3.5360706e-6 V 6.3457035 c 0.62627,-0.22297 1.2993505,-0.3457 2.0000005,-0.3457 0.70065,0 1.37373,0.12273 2,0.3457 V 3.5360706e-6 Z M 11.000006,8.0000035 9.0000055,9.6660235 V 20.000004 H 13.000006 V 9.6660235 Z" />
      <path
         style="color:#000000;fill:#64bce8;fill-opacity:1;stroke-width:40;stroke-linecap:round;stroke-linejoin:round;-inkscape-stroke:none;paint-order:markers stroke fill"
         d="M 11.000006,7.0000035 A 5,5 0 0 0 6.0000055,12.000004 v 3 a 5,5 0 0 1 5.0000005,-5 5,5 0 0 1 5,5 v -3 a 5,5 0 0 0 -5,-5.0000005 z"
         id="path100755" />
      <path
         id="path104201"
         style="color:#000000;fill:url(#radialGradient106020);fill-opacity:1;stroke-width:40;stroke-linecap:round;stroke-linejoin:round;-inkscape-stroke:none;paint-order:markers stroke fill"
         d="m 11.000006,3.0000035 a 5,5 0 0 0 -5.0000005,5 v 0.69336 c 1.07688,-1.62019 2.91821,-2.69336 5.0000005,-2.69336 a 5,5 0 0 1 0.26953,0.008 c 1.97012,0.0885 3.7005,1.13593 4.73047,2.68555 v -0.69355 a 5,5 0 0 0 -5,-5 z" />
    </g>
  </g>
</svg>
