<?xml version="1.0" encoding="UTF-8" standalone="no"?>
<!-- Created with Inkscape (http://www.inkscape.org/) -->

<svg
   width="1"
   height="1.7"
   viewBox="0 0 1 1.7"
   version="1.1"
   id="svg5"
   sodipodi:docname="wall_voxel_hor.svg"
   inkscape:version="1.1 (c68e22c387, 2021-05-23)"
   xmlns:inkscape="http://www.inkscape.org/namespaces/inkscape"
   xmlns:sodipodi="http://sodipodi.sourceforge.net/DTD/sodipodi-0.dtd"
   xmlns="http://www.w3.org/2000/svg"
   xmlns:svg="http://www.w3.org/2000/svg">
  <sodipodi:namedview
     id="namedview7"
     pagecolor="#171717"
     bordercolor="#999999"
     borderopacity="1"
     inkscape:pageshadow="0"
     inkscape:pageopacity="0"
     inkscape:pagecheckerboard="0"
     inkscape:document-units="px"
     showgrid="false"
     units="px"
     inkscape:zoom="187.83333"
     inkscape:cx="0.39396628"
     inkscape:cy="0.95031056"
     inkscape:window-width="1284"
     inkscape:window-height="1041"
     inkscape:window-x="208"
     inkscape:window-y="0"
     inkscape:window-maximized="0"
     inkscape:current-layer="layer1"
     inkscape:object-paths="true"
     inkscape:snap-intersection-paths="true"
     inkscape:snap-smooth-nodes="true"
     inkscape:snap-midpoints="true"
     inkscape:snap-object-midpoints="true">
    <inkscape:grid
       type="xygrid"
       id="grid836"
       originx="2.2902"
       originy="129.39421" />
  </sodipodi:namedview>
  <defs
     id="defs2" />
  <g
     inkscape:label="Layer 1"
     inkscape:groupmode="layer"
     id="layer1"
     transform="translate(2.2902,129.39421)">
    <g
       id="g149097"
       transform="matrix(0.05,0,0,0.05,-59.7902,-118.19421)"
       style="stroke-width:20">
      <rect
         style="fill:#0f0f37;fill-opacity:0.2;stroke:none;stroke-width:755.906;stroke-linecap:round;stroke-linejoin:round;paint-order:markers stroke fill"
         id="rect18363-4"
         width="20"
         height="7"
         x="1150"
         y="-197" />
      <path
         id="path99809"
         style="opacity:1;fill:#00403c;fill-opacity:1;stroke:none;stroke-width:755.906;stroke-linecap:round;stroke-linejoin:round;paint-order:markers stroke fill"
         d="m 1150,-224 v 2 l 10,1 10,-1 v -2 z m 0,13 v 2 h 2 v 2 h -2 v 2 l 10,1 10,-1 v -2 h -2 v -2 h 2 v -2 l -10,-1 z m 0,14 v 2 h 20 v -2 l -10,-1 z"
         sodipodi:nodetypes="ccccccccccccccccccccccccccc" />
      <path
         id="path99811"
         style="opacity:1;fill:#085048;fill-opacity:1;stroke-width:755.906;stroke-linecap:round;stroke-linejoin:round;paint-order:markers stroke fill"
         d="m 1150,-200 10,-1 10,1 v 3 h -20 z"
         sodipodi:nodetypes="cccccc" />
      <rect
         style="opacity:1;fill:#187864;fill-opacity:1;stroke:none;stroke-width:755.906;stroke-linecap:round;stroke-linejoin:round;paint-order:markers stroke fill"
         id="rect99813"
         width="20"
         height="5"
         x="1150"
         y="-205" />
      <path
         id="path99815"
         style="opacity:1;fill:#04544c;fill-opacity:1;stroke-width:755.906;stroke-linecap:round;stroke-linejoin:round;paint-order:markers stroke fill"
         d="m 1150,-215 10,-1 10,1 v 4 h -20 z"
         sodipodi:nodetypes="cccccc" />
      <rect
         style="opacity:1;fill:#20a890;fill-opacity:1;stroke:none;stroke-width:755.906;stroke-linecap:round;stroke-linejoin:round;paint-order:markers stroke fill"
         id="rect99817"
         width="20"
         height="7"
         x="1150"
         y="-222" />
      <path
         id="path99819"
         style="opacity:1;fill:#146858;fill-opacity:1;stroke:none;stroke-width:755.906;stroke-linecap:round;stroke-linejoin:round;paint-order:markers stroke fill"
         d="m 1155,-204 -1,3 v 1 h 2 v -1 h 8 v 1 h 2 v -1 l -1,-3 z"
         sodipodi:nodetypes="ccccccccccc" />
      <path
         id="path99821"
         style="opacity:1;fill:#dc6800;fill-opacity:1;stroke:none;stroke-width:755.906;stroke-linecap:round;stroke-linejoin:round;paint-order:markers stroke fill"
         d="m 1158,-208 -2,3 h -2 v 2 l 1,1 1,-1 4,-1 4,1 1,1 1,-1 v -2 h -2 l -2,-3 z"
         sodipodi:nodetypes="cccccccccccccc" />
      <path
         id="path99823"
         style="opacity:1;fill:#fc9034;fill-opacity:1;stroke:none;stroke-width:755.906;stroke-linecap:round;stroke-linejoin:round;paint-order:markers stroke fill"
         d="m 1154,-209 v 2 h 2 v 4 h 8 v -4 h 2 v -2 z m 10,6 v 2 h 2 v -2 z m -8,0 h -2 v 2 h 2 z m 2,-4 h 4 v 2 h -4 z"
         sodipodi:nodetypes="cccccccccccccccccccccccc" />
      <rect
         style="opacity:1;fill:#24a088;fill-opacity:1;stroke:none;stroke-width:755.906;stroke-linecap:round;stroke-linejoin:round;paint-order:markers stroke fill"
         id="rect99825"
         width="20"
         height="3"
         x="1150"
         y="-220" />
    </g>
  </g>
</svg>
