<?xml version="1.0" encoding="UTF-8" standalone="no"?>
<!-- Created with Inkscape (http://www.inkscape.org/) -->

<svg
   width="1.000005"
   height="1.8"
   viewBox="0 0 1.000005 1.8"
   version="1.1"
   id="svg5"
   sodipodi:docname="wall_plant_hor.svg"
   inkscape:version="1.1 (c68e22c387, 2021-05-23)"
   xmlns:inkscape="http://www.inkscape.org/namespaces/inkscape"
   xmlns:sodipodi="http://sodipodi.sourceforge.net/DTD/sodipodi-0.dtd"
   xmlns="http://www.w3.org/2000/svg"
   xmlns:svg="http://www.w3.org/2000/svg">
  <sodipodi:namedview
     id="namedview7"
     pagecolor="#171717"
     bordercolor="#999999"
     borderopacity="1"
     inkscape:pageshadow="0"
     inkscape:pageopacity="0"
     inkscape:pagecheckerboard="0"
     inkscape:document-units="px"
     showgrid="false"
     units="px"
     inkscape:zoom="187.83333"
     inkscape:cx="0.55900621"
     inkscape:cy="1.0780834"
     inkscape:window-width="1284"
     inkscape:window-height="1041"
     inkscape:window-x="208"
     inkscape:window-y="0"
     inkscape:window-maximized="0"
     inkscape:current-layer="layer1"
     inkscape:object-paths="true"
     inkscape:snap-intersection-paths="true"
     inkscape:snap-smooth-nodes="true"
     inkscape:snap-midpoints="true"
     inkscape:snap-object-midpoints="true">
    <inkscape:grid
       type="xygrid"
       id="grid836"
       originx="-884.99984"
       originy="-393.00001" />
  </sodipodi:namedview>
  <defs
     id="defs2" />
  <g
     inkscape:label="Layer 1"
     inkscape:groupmode="layer"
     id="layer1">
    <g
       id="g159094"
       transform="scale(0.05)"
       style="stroke-width:20">
      <circle
         style="fill:#0a0f32;fill-opacity:0.2;stroke:none;stroke-width:80;stroke-linecap:square;stroke-linejoin:round;stroke-miterlimit:4;stroke-dasharray:none;paint-order:markers stroke fill"
         id="circle49384"
         cx="10.000051"
         cy="26"
         r="10" />
      <path
         id="path49386"
         style="color:#000000;fill:#044e1f;fill-opacity:1;stroke-width:80;stroke-linejoin:round;-inkscape-stroke:none"
         d="m 6.3496601,21.76758 c -2.35584,-0.006 -4.21355,1.48764 -5.13867,3.33789 C -0.02752986,27.58249 5.0140545e-5,30 5.0140545e-5,32 A 2.0002,2.0002 0 0 0 2.0000501,34 c 2,0 4.41751,0.0276 6.89453,-1.21094 0.41134,-0.20566 0.74725,-0.52727 1.1054699,-0.8164 0.35822,0.28913 0.69413,0.61074 1.10547,0.8164 C 13.58254,34.02758 16.00005,34 18.00005,34 a 2.0002,2.0002 0 0 0 2,-2 c 0,-2 0.0276,-4.41751 -1.21094,-6.89453 -0.74014,-1.48029 -2.04284,-2.69406 -3.77539,-3.1582 -1.58711,-0.42519 -3.46627,0.0954 -4.98242,1.37304 C 8.9211501,22.35648 7.6240701,21.77085 6.3496601,21.76758 Z" />
      <path
         id="path49388"
         style="fill:#08c24c;fill-opacity:1;stroke:none;stroke-width:20px;stroke-linecap:butt;stroke-linejoin:miter;stroke-opacity:1"
         d="m 6.3438001,23.76758 c -1.43925,-0.004 -2.71875,0.98242 -3.34375,2.23242 -1,2 -1,4 -1,6 2,0 4,0 6,-1 0.88493,-0.44246 1.63717,-1.21372 1.9999999,-2.13672 0.36283,0.923 1.11507,1.69426 2,2.13672 2,1 4,1 6,1 0,-2 0,-4 -1,-6 -1,-2 -3.67578,-3.32422 -6,-1 -0.48228,0.48228 -0.80534,0.98017 -1,1.47461 C 9.8053901,25.98017 9.4823301,25.48228 9.0000501,25 c -0.87158,-0.87158 -1.7927,-1.2302 -2.65625,-1.23242 z" />
      <path
         id="path49390"
         style="fill:#08923f;fill-opacity:1;stroke:none;stroke-width:20px;stroke-linecap:butt;stroke-linejoin:miter;stroke-opacity:1"
         d="m 6.3438001,23.76758 c -0.22279,-5.7e-4 -0.441,0.0242 -0.6543,0.0684 -1.10877,1.64706 -1.5553,3.99944 -0.68945,6.16406 1.40463,0.46821 2.7534,0.55046 3.94531,0.35352 0.45883,-0.41196 0.83126,-0.92185 1.0546899,-1.49024 0.22343,0.56839 0.59586,1.07828 1.05469,1.49024 1.19191,0.19694 2.54068,0.11469 3.94531,-0.35352 0.86663,-2.16658 0.41774,-4.51918 -0.69336,-6.16602 -1.03908,-0.21378 -2.21161,0.071 -3.30664,1.16602 -0.48228,0.48228 -0.80534,0.98017 -1,1.47461 -0.1946599,-0.49444 -0.5177199,-0.99233 -0.9999999,-1.47461 -0.87158,-0.87158 -1.7927,-1.2302 -2.65625,-1.23242 z" />
      <path
         id="path49664"
         style="color:#000000;fill:#002c64;fill-opacity:1;stroke-width:20;-inkscape-stroke:none"
         d="M 5.0140545e-5,0 V 24.76172 C 1.9424001,26.47312 5.4955501,29 10.00005,29 c 4.5045,0 8.05765,-2.52688 10,-4.23828 V 0 C 16.83339,0 13.97081,1.49448 11.8145,3.36328 11.09378,3.98791 10.56626,4.70134 10.00005,5.39648 9.4338401,4.70134 8.9063201,3.98791 8.1856001,3.36328 6.0292901,1.49448 3.1667101,0 5.0140545e-5,0 Z" />
      <path
         style="color:#000000;fill:#1878b4;stroke-width:80;-inkscape-stroke:none"
         d="M 5.0140545e-5,2 V 22 C 1.0000501,23 5.0000501,27 10.00005,27 c 5,0 9,-4 10,-5 V 2 c -5,0 -10,5 -10,8 0,-3 -4.9999999,-8 -9.999999859455,-8 z"
         id="path49662" />
      <path
         id="path46389"
         style="fill:#40a8e0;fill-opacity:1;stroke:none;stroke-width:20px;stroke-linecap:butt;stroke-linejoin:miter;stroke-opacity:1"
         d="M 5.0140545e-5,2 V 17 C 1.0000501,18 5.0000501,22 10.00005,22 c 5,0 9,-4 10,-5 V 2 c -5,0 -10,5 -10,8 0,-3 -4.9999999,-8 -9.999999859455,-8 z" />
      <path
         id="path46386"
         style="fill:#64bce8;fill-opacity:1;stroke:none;stroke-width:20px;stroke-linecap:butt;stroke-linejoin:miter;stroke-opacity:1"
         d="M 5.0140545e-5,2 V 7 C 5.0000501,7 10.00005,12 10.00005,15 c 0,-3 5,-8 10,-8 V 2 c -5,0 -10,5 -10,8 0,-3 -4.9999999,-8 -9.999999859455,-8 z" />
      <path
         id="path50971"
         style="color:#000000;fill:#041840;fill-opacity:0.77;stroke-width:40;stroke-linejoin:round;-inkscape-stroke:none"
         d="m 3.3672401,6.86265 c -0.56846,-5.9e-4 -1.13721,0.0835 -1.6836,0.26562 a 1.0001,1.0001 0 0 0 -0.63281,0.63281 c -0.64756996,1.94272 -0.0555,4.16208 1.16797,5.69141 0.61173,0.76467 1.4392,1.38242 2.45898,1.52148 1.01979,0.13907 2.12217,-0.28231 3.0293,-1.18945 0.90714,-0.90713 1.32852,-2.00951 1.18945,-3.0293 -0.13906,-1.01978 -0.75681,-1.84725 -1.52148,-2.45898 -0.76467,-0.61173 -1.70268,-1.06519 -2.69141,-1.28516 -0.43256,-0.0962 -0.87427,-0.14798 -1.3164,-0.14843 z m 13.2441399,10 c -1.45322,0.001 -2.90861,0.55422 -4.00781,1.43359 -0.76467,0.61173 -1.38243,1.4392 -1.52149,2.45898 -0.13907,1.01979 0.28231,2.12217 1.18945,3.0293 0.90713,0.90714 2.00951,1.32852 3.0293,1.18945 1.01978,-0.13906 1.84726,-0.75681 2.45899,-1.52148 0.61173,-0.76467 1.06518,-1.70268 1.28515,-2.69141 0.0962,-0.43256 0.14799,-0.87427 0.14844,-1.3164 5.9e-4,-0.56846 -0.0835,-1.13721 -0.26563,-1.6836 a 1.0001,1.0001 0 0 0 -0.63281,-0.63281 c -0.54639,-0.18213 -1.11494,-0.26608 -1.68359,-0.26562 z" />
      <path
         id="path49394"
         style="color:#000000;fill:#044e1f;fill-opacity:1;stroke-width:40;stroke-linejoin:round;-inkscape-stroke:none"
         d="m 3.3672401,4.78516 c -0.56846,-5.9e-4 -1.13721,0.0835 -1.6836,0.26562 a 1.0001,1.0001 0 0 0 -0.63281,0.63281 c -0.64756996,1.94272 -0.0555,4.16208 1.16797,5.69141 0.61173,0.76467 1.4392,1.38242 2.45898,1.52148 1.01979,0.13907 2.12217,-0.28231 3.0293,-1.18945 0.90714,-0.90713 1.32852,-2.00951 1.18945,-3.0293 -0.13906,-1.01978 -0.75681,-1.84725 -1.52148,-2.45898 -0.76467,-0.61173 -1.70268,-1.06519 -2.69141,-1.28516 -0.43256,-0.0962 -0.87427,-0.14798 -1.3164,-0.14843 z m 13.2441399,10 c -1.45322,0.001 -2.90861,0.55422 -4.00781,1.43359 -0.76467,0.61173 -1.38243,1.4392 -1.52149,2.45898 -0.13907,1.01979 0.28231,2.12217 1.18945,3.0293 0.90713,0.90714 2.00951,1.32852 3.0293,1.18945 1.01978,-0.13906 1.84726,-0.75681 2.45899,-1.52148 0.61173,-0.76467 1.06518,-1.70268 1.28515,-2.69141 0.0962,-0.43256 0.14799,-0.87427 0.14844,-1.3164 5.9e-4,-0.56846 -0.0835,-1.13721 -0.26563,-1.6836 A 1.0001,1.0001 0 0 0 18.29497,15.05078 C 17.74858,14.86865 17.18003,14.7847 16.61138,14.78516 Z" />
      <path
         id="path49396"
         style="fill:#08c14c;fill-opacity:1;stroke:none;stroke-width:20px;stroke-linecap:butt;stroke-linejoin:miter;stroke-opacity:1"
         d="m 3.1992701,5.80469 c -0.41797,0.008 -0.82422,0.0703 -1.19922,0.19531 -1,3 2,8 5,5 2.625,-2.625 -0.875,-5.25 -3.80078,-5.19531 z m 13.6015599,10 C 13.87505,15.75 10.37505,18.375 13.00005,21 c 3,3 6,-2 5,-5 -0.375,-0.125 -0.78125,-0.1875 -1.19922,-0.19531 z" />
    </g>
  </g>
</svg>
