<?xml version="1.0" encoding="UTF-8" standalone="no"?>
<!-- Created with Inkscape (http://www.inkscape.org/) -->

<svg
   width="1.0500025"
   height="1.8"
   viewBox="0 0 1.0500025 1.8"
   version="1.1"
   id="svg5"
   sodipodi:docname="wall_plant_l.svg"
   inkscape:version="1.1 (c68e22c387, 2021-05-23)"
   xmlns:inkscape="http://www.inkscape.org/namespaces/inkscape"
   xmlns:sodipodi="http://sodipodi.sourceforge.net/DTD/sodipodi-0.dtd"
   xmlns="http://www.w3.org/2000/svg"
   xmlns:svg="http://www.w3.org/2000/svg">
  <sodipodi:namedview
     id="namedview7"
     pagecolor="#171717"
     bordercolor="#999999"
     borderopacity="1"
     inkscape:pageshadow="0"
     inkscape:pageopacity="0"
     inkscape:pagecheckerboard="0"
     inkscape:document-units="px"
     showgrid="false"
     units="px"
     inkscape:zoom="187.83333"
     inkscape:cx="0.67613133"
     inkscape:cy="1.216504"
     inkscape:window-width="1284"
     inkscape:window-height="1041"
     inkscape:window-x="215"
     inkscape:window-y="0"
     inkscape:window-maximized="0"
     inkscape:current-layer="layer1"
     inkscape:object-paths="true"
     inkscape:snap-intersection-paths="true"
     inkscape:snap-smooth-nodes="true"
     inkscape:snap-midpoints="true"
     inkscape:snap-object-midpoints="true">
    <inkscape:grid
       type="xygrid"
       id="grid836"
       originx="0"
       originy="0" />
  </sodipodi:namedview>
  <defs
     id="defs2" />
  <g
     inkscape:label="Layer 1"
     inkscape:groupmode="layer"
     id="layer1">
    <g
       id="g157897"
       transform="scale(0.05)"
       style="stroke-width:20">
      <circle
         style="fill:#0a0f32;fill-opacity:0.2;stroke:none;stroke-width:80;stroke-linecap:square;stroke-linejoin:round;stroke-miterlimit:4;stroke-dasharray:none;paint-order:markers stroke fill"
         id="circle34041-6-4"
         cx="-10.000051"
         cy="26"
         r="10"
         transform="scale(-1,1)" />
      <path
         id="path32681"
         style="color:#000000;fill:#044e1f;fill-opacity:1;stroke-width:80;stroke-linejoin:round;-inkscape-stroke:none"
         d="m 13.65044,21.76758 c 2.35584,-0.006 4.21355,1.48764 5.13867,3.33789 C 20.02763,27.58249 20.00005,30 20.00005,32 a -2.0002,2.0002 0 0 1 -2,2 c -2,0 -4.41751,0.0276 -6.89453,-1.21094 C 10.69418,32.5834 10.35827,32.26179 10.00005,31.97266 9.6418302,32.26179 9.3059202,32.5834 8.8945802,32.78906 6.4175602,34.02758 4.0000502,34 2.0000502,34 A -2.0002,2.0002 0 0 1 5.0245043e-5,32 c 0,-2 -0.02759999504,-4.41751 1.210939954957,-6.89453 0.74014,-1.48029 2.04284,-2.69406 3.77539,-3.1582 1.58711,-0.42519 3.46627,0.0954 4.98242,1.37304 C 11.07895,22.35648 12.37603,21.77085 13.65044,21.76758 Z" />
      <path
         id="path33940"
         style="fill:#08c24c;fill-opacity:1;stroke:none;stroke-width:20px;stroke-linecap:butt;stroke-linejoin:miter;stroke-opacity:1"
         d="M 13.6563,23.76758 C 15.09555,23.76388 16.37505,24.75 17.00005,26 c 1,2 1,4 1,6 -2,0 -4,0 -6,-1 -0.88493,-0.44246 -1.63717,-1.21372 -2,-2.13672 -0.3628298,0.923 -1.1150698,1.69426 -1.9999998,2.13672 -2,1 -4,1 -6,1 0,-2 0,-4 1,-6 1,-2 3.67578,-3.32422 6,-1 0.48228,0.48228 0.80534,0.98017 0.9999998,1.47461 0.19466,-0.49444 0.51772,-0.99233 1,-1.47461 0.87158,-0.87158 1.7927,-1.2302 2.65625,-1.23242 z" />
      <path
         id="path28611"
         style="fill:#08923f;fill-opacity:1;stroke:none;stroke-width:20px;stroke-linecap:butt;stroke-linejoin:miter;stroke-opacity:1"
         d="m 13.6563,23.76758 c 0.22279,-5.7e-4 0.441,0.0242 0.6543,0.0684 1.10877,1.64706 1.5553,3.99944 0.68945,6.16406 -1.40463,0.46821 -2.7534,0.55046 -3.94531,0.35352 -0.45883,-0.41196 -0.83126,-0.92185 -1.05469,-1.49024 -0.2234298,0.56839 -0.5958598,1.07828 -1.0546898,1.49024 -1.19191,0.19694 -2.54068,0.11469 -3.94531,-0.35352 -0.86663,-2.16658 -0.41774,-4.51918 0.69336,-6.16602 1.03908,-0.21378 2.21161,0.071 3.30664,1.16602 0.48228,0.48228 0.80534,0.98017 0.9999998,1.47461 0.19466,-0.49444 0.51772,-0.99233 1,-1.47461 0.87158,-0.87158 1.7927,-1.2302 2.65625,-1.23242 z" />
      <path
         id="path17843"
         style="color:#000000;fill:#002c64;fill-opacity:1;stroke-width:80;-inkscape-stroke:none"
         d="M 5.0245043e-5,0 C 3.1667102,0 5.7363502,1.61502 7.4023902,3.58398 c 0.35006,0.41371 0.52517,0.87909 0.8086,1.31641 C 9.3687602,3.82457 10.9453,3 13.00005,3 c 5,0 8,3.66667 8,7 0,1.33333 -0.2074,2.53552 -1.21094,3.53906 -0.50177,0.50177 -1.34091,0.9041 -2.1875,0.84766 -0.24353,-0.0162 -0.36439,-0.20882 -0.58008,-0.2793 0.04115,1.33272 0.97852,3.28321 0.97852,5.89258 0,1.30401 -0.23393,3.30515 -1.35742,5.26367 C 15.51914,27.2222 13.18718,29.03113 9.9805202,29 5.4553102,28.956 1.9276002,26.45669 5.0245043e-5,24.76172 Z" />
      <path
         style="fill:#1878b4;fill-opacity:1;stroke:none;stroke-width:20px;stroke-linecap:butt;stroke-linejoin:miter;stroke-opacity:1"
         d="m 17.00005,12 c 1,1 2,0 2,-2 0,-2 -2,-5 -6,-5 -3.9999998,0 -4.9999998,3 -4.9999998,5 0,-3 -3,-8 -7.999999954957,-8 V 22 C 1.0000502,23 4.9120802,26.95057 10.00005,27 c 5.08797,0.0494 6,-5 6,-7 0,-2 -1,-4 -1,-6 0,-2 1,-3 2,-2 z"
         id="path4026"
         sodipodi:nodetypes="zzzccczzzz" />
      <path
         id="path39650"
         style="fill:#40a8e0;fill-opacity:1;stroke:none;stroke-width:20px;stroke-linecap:butt;stroke-linejoin:miter;stroke-opacity:1"
         d="M 5.0245043e-5,2 C 5.0000502,2 8.0000502,7 8.0000502,10 c 0,-2 1,-5 4.9999998,-5 4,0 6,3 6,5 0,2 -1,3 -2,2 -1,-1 -2,0 -2,2 0,1.17638 0.34396,2.35292 0.62891,3.5293 C 15.01606,19.66495 13.49263,22.03391 10.00005,22 4.9120802,21.9506 1.0000502,18 5.0245043e-5,17 Z" />
      <path
         id="path37394"
         style="fill:#64bce8;fill-opacity:1;stroke:none;stroke-width:20px;stroke-linecap:butt;stroke-linejoin:miter;stroke-opacity:1"
         d="M 5.0245043e-5,2 C 5.0000502,2 8.0000502,7 8.0000502,10 c 0,-2 1,-5 4.9999998,-5 2.38332,0 4.05041,1.06759 5.01367,2.35156 C 17.70477,7.45288 17.35296,7.35256 17.00005,7 c -1,-1 -2,0 -2,2 0,0.43937 0.0498,0.87897 0.125,1.31836 C 14.49348,10.11702 13.78608,10 13.00005,10 c -3.9999998,0 -4.9999998,3 -4.9999998,5 0,-3 -3,-8 -7.999999954957,-8 z"
         sodipodi:nodetypes="ccscsscsccc" />
      <path
         id="path41082"
         style="color:#000000;fill:#041840;fill-opacity:0.772549;stroke-width:40;stroke-linejoin:round;-inkscape-stroke:none"
         d="m 17.35161,15.87109 c 0.28561,1.13123 0.64844,2.48485 0.64844,4.12891 0,0.94069 -0.12759,2.24622 -0.61719,3.63477 -0.32602,0.16822 -0.67964,0.2879 -1.06054,0.33984 -1.01979,0.13907 -2.12217,-0.28231 -3.0293,-1.18945 -0.90714,-0.90713 -1.32852,-2.00951 -1.18945,-3.0293 0.13906,-1.01978 0.75681,-1.84726 1.52148,-2.45898 0.76467,-0.61173 1.70268,-1.06519 2.69141,-1.28516 0.34096,-0.0758 0.68709,-0.12338 1.03515,-0.14063 z" />
      <path
         id="path20192"
         style="color:#000000;fill:#044e1f;fill-opacity:1;stroke-width:40;stroke-linejoin:round;-inkscape-stroke:none"
         d="m 17.63286,13.78516 c 0.56846,-5.9e-4 1.13721,0.0835 1.6836,0.26562 a -1.0001,1.0001 0 0 1 0.63281,0.63281 c 0.64757,1.94272 0.0555,4.16208 -1.16797,5.69141 -0.61173,0.76467 -1.4392,1.38242 -2.45898,1.52148 -1.01979,0.13907 -2.12217,-0.28231 -3.0293,-1.18945 -0.90714,-0.90713 -1.32852,-2.00951 -1.18945,-3.0293 0.13906,-1.01978 0.75681,-1.84725 1.52148,-2.45898 0.76467,-0.61173 1.70268,-1.06519 2.69141,-1.28516 0.43256,-0.0962 0.87427,-0.14798 1.3164,-0.14843 z" />
      <path
         style="fill:#08c14c;fill-opacity:1;stroke:none;stroke-width:20px;stroke-linecap:butt;stroke-linejoin:miter;stroke-opacity:1"
         d="m 19.00005,15 c -3,-1 -8,2 -5,5 3,3 6,-2 5,-5 z"
         id="path11583"
         sodipodi:nodetypes="czc" />
    </g>
  </g>
</svg>
