<?xml version="1.0" encoding="utf-8"?>
<!-- Generator: Adobe Illustrator 24.1.2, SVG Export Plug-In . SVG Version: 6.00 Build 0)  -->
<svg version="1.1" id="Capa_1" xmlns="http://www.w3.org/2000/svg" xmlns:xlink="http://www.w3.org/1999/xlink" x="0px" y="0px"
	 width="1px" height="1.65px" viewBox="0 0 1 1.65" enable-background="new 0 0 1 1.65" xml:space="preserve">
<path id="rect10315" fill="#0A0F32" fill-opacity="0.2" d="M0.1,1.25h0.8c0.055,0,0.1,0.045,0.1,0.1v0.2c0,0.055-0.045,0.1-0.1,0.1
	H0.1C0.045,1.65,0,1.605,0,1.55v-0.2C0,1.295,0.045,1.25,0.1,1.25z"/>
<g>
	<path fill="#5F2900" d="M1,1.3c0,0.083-0.067,0.15-0.15,0.15H0.786c-0.051,0-0.097-0.033-0.113-0.082L0.661,1.334
		C0.655,1.314,0.635,1.3,0.614,1.3H0.386c-0.022,0-0.041,0.014-0.047,0.034L0.327,1.368C0.311,1.417,0.265,1.45,0.214,1.45H0.15
		C0.067,1.45,0,1.383,0,1.3l0.082-1.069C0.092,0.101,0.201,0,0.332,0h0.337c0.13,0,0.239,0.101,0.249,0.231L1,1.3z"/>
	<path fill="#FFC601" d="M0.846,1.35h-0.06c-0.022,0-0.041-0.014-0.047-0.034L0.7,1.2H0.3L0.261,1.316
		C0.255,1.336,0.235,1.35,0.214,1.35h-0.06c-0.029,0-0.052-0.025-0.05-0.054l0.088-1.104C0.197,0.14,0.24,0.1,0.292,0.1h0.415
		c0.052,0,0.095,0.04,0.1,0.092l0.088,1.104C0.898,1.325,0.875,1.35,0.846,1.35z"/>
	<path fill="#E5970F" d="M0.845,1.35H0.786c-0.022,0-0.041-0.014-0.047-0.034L0.7,1.2H0.3L0.261,1.316
		C0.255,1.336,0.235,1.35,0.214,1.35H0.155c-0.029,0-0.052-0.025-0.05-0.055l0.088-0.964C0.197,0.285,0.24,0.25,0.292,0.25h0.415
		c0.052,0,0.095,0.035,0.1,0.081l0.088,0.964C0.898,1.325,0.875,1.35,0.845,1.35z"/>
	<path fill="#FEC601" d="M0.7,0.5v0.05c0,0.027-0.023,0.05-0.05,0.05h-0.3C0.323,0.6,0.3,0.577,0.3,0.55V0.5
		c0-0.027,0.023-0.05,0.05-0.05h0.3C0.677,0.45,0.7,0.473,0.7,0.5z"/>
	<path fill="#AD7002" d="M0.7,0.5v0.025c0,0.014-0.011,0.025-0.025,0.025h-0.35C0.311,0.55,0.3,0.539,0.3,0.525V0.5
		c0-0.028,0.022-0.05,0.05-0.05h0.3C0.678,0.45,0.7,0.472,0.7,0.5z"/>
	<rect x="0.3" y="1.1" fill="#4A2A19" width="0.4" height="0.05"/>
	<g>
		<path fill="#4A2A19" d="M0.725,0.776C0.724,0.78,0.699,0.877,0.584,0.894c-0.01,0.017-0.023,0.035-0.041,0.05
			c-0.01,0.01-0.023,0.019-0.036,0.025C0.453,0.993,0.414,1.042,0.414,1.042c-0.005,0.006-0.012,0.01-0.02,0.01
			c-0.005,0-0.011-0.001-0.015-0.005C0.368,1.038,0.366,1.023,0.375,1.011c0.002-0.002,0.046-0.058,0.11-0.088
			c-0.026-0.02-0.052-0.029-0.078-0.028C0.356,0.898,0.319,0.938,0.319,0.938C0.309,0.949,0.294,0.95,0.283,0.941
			c-0.011-0.01-0.012-0.025-0.003-0.036c0.003-0.002,0.051-0.057,0.124-0.06c0.029-0.001,0.055,0.006,0.082,0.02
			c0.003-0.003,0.005-0.005,0.007-0.008c-0.06-0.03-0.072-0.099-0.07-0.135C0.424,0.71,0.436,0.699,0.45,0.7
			c0.014,0.001,0.024,0.013,0.023,0.026C0.473,0.73,0.47,0.791,0.518,0.814c0.005-0.01,0.016-0.015,0.027-0.013L0.591,0.81
			c0.007,0.002,0.013,0.006,0.017,0.012C0.61,0.826,0.611,0.83,0.611,0.835c0.051-0.022,0.064-0.069,0.064-0.072
			c0.004-0.013,0.017-0.021,0.03-0.018C0.72,0.749,0.728,0.762,0.725,0.776z"/>
	</g>
	<circle fill="#4A2A19" cx="0.576" cy="0.75" r="0.05"/>
</g>
</svg>
