<?xml version="1.0" encoding="utf-8"?>
<!-- Generator: Adobe Illustrator 24.1.2, SVG Export Plug-In . SVG Version: 6.00 Build 0)  -->
<svg version="1.1"
	 id="svg24431" inkscape:version="0.92.4 (5da689c313, 2019-01-14)" sodipodi:docname="00000010.svg" xmlns:cc="http://creativecommons.org/ns#" xmlns:dc="http://purl.org/dc/elements/1.1/" xmlns:inkscape="http://www.inkscape.org/namespaces/inkscape" xmlns:rdf="http://www.w3.org/1999/02/22-rdf-syntax-ns#" xmlns:sodipodi="http://sodipodi.sourceforge.net/DTD/sodipodi-0.dtd" xmlns:svg="http://www.w3.org/2000/svg"
	 xmlns="http://www.w3.org/2000/svg" xmlns:xlink="http://www.w3.org/1999/xlink" x="0px" y="0px" width="1px" height="1px"
	 viewBox="0 0 1 1" enable-background="new 0 0 1 1" xml:space="preserve">
<g id="layer1" transform="translate(-43.693527,-177.36089)" inkscape:groupmode="layer" inkscape:label="Layer 1">
	<g id="g9558" transform="matrix(0,0.04999975,-0.04999975,0,-12.033799,156.0885)">
		<path id="path9550" inkscape:connector-curvature="0" sodipodi:nodetypes="sccsccs" fill="#003B54" d="M430.007-1134.547
			c-2.525,0-4.559,2.034-4.559,4.559v10.883c0,2.525,2.034,4.548,4.559,4.559h15.441v-20H430.007z"/>
		<path id="path9552" inkscape:connector-curvature="0" sodipodi:nodetypes="sccsccs" fill="#007778" d="M430.448-1132.547
			c-1.662,0-3,1.338-3,3v10c0,1.662,1.338,2.986,3,3h15v-16H430.448z"/>
		<path id="path9554" inkscape:connector-curvature="0" sodipodi:nodetypes="sccsccs" fill="#00D0B4" d="M431.448-1130.547
			c-1.108,0-2,0.892-2,2v8c0,1.108,0.892,2,2,2h14v-12H431.448z"/>
		<path id="path9556" inkscape:connector-curvature="0" sodipodi:nodetypes="sccsccs" fill="#00ACA7" d="M434.073-1127.547
			c-0.9,0-1.625,0.725-1.625,1.625v2.75c0,0.9,0.725,1.625,1.625,1.625h11.375v-6H434.073z"/>
	</g>
</g>
</svg>
