<?xml version="1.0" encoding="utf-8"?>
<!-- Generator: Adobe Illustrator 24.1.2, SVG Export Plug-In . SVG Version: 6.00 Build 0)  -->
<svg version="1.1"
	 id="svg32014" inkscape:version="0.92.4 (5da689c313, 2019-01-14)" sodipodi:docname="00000000.svg" xmlns:cc="http://creativecommons.org/ns#" xmlns:dc="http://purl.org/dc/elements/1.1/" xmlns:inkscape="http://www.inkscape.org/namespaces/inkscape" xmlns:rdf="http://www.w3.org/1999/02/22-rdf-syntax-ns#" xmlns:sodipodi="http://sodipodi.sourceforge.net/DTD/sodipodi-0.dtd" xmlns:svg="http://www.w3.org/2000/svg"
	 xmlns="http://www.w3.org/2000/svg" xmlns:xlink="http://www.w3.org/1999/xlink" x="0px" y="0px" width="1px" height="1px"
	 viewBox="0 0 1 1" enable-background="new 0 0 1 1" xml:space="preserve">
<g id="layer1" transform="translate(-3.7104144,-324.09905)" inkscape:groupmode="layer" inkscape:label="Layer 1">
	<g id="g13433" transform="matrix(0.05,0,0,0.05,-17.853127,379.42978)">
		<path id="path13403" inkscape:connector-curvature="0" fill="#003B54" d="M435.829-1106.615c-2.525,0-4.559,2.034-4.559,4.559
			v10.883c0,2.525,2.034,4.548,4.559,4.559h10.883c2.525-0.01,4.559-2.034,4.559-4.559v-10.883c0-2.525-2.033-4.559-4.559-4.559
			H435.829z"/>
		<path id="path13405" inkscape:connector-curvature="0" fill="#007778" d="M436.271-1104.615c-1.662,0-3,1.338-3,3v10
			c0,1.662,1.338,2.986,3,3h10c1.662-0.014,3-1.338,3-3v-10c0-1.662-1.338-3-3-3H436.271z"/>
		<path id="path13407" inkscape:connector-curvature="0" fill="#00D0B4" d="M437.271-1102.615c-1.108,0-2,0.892-2,2v8
			c0,1.108,0.892,2,2,2h8c1.108,0,2-0.892,2-2v-8c0-1.108-0.892-2-2-2H437.271z"/>
		<path id="path13409" inkscape:connector-curvature="0" fill="#00ACA7" d="M439.896-1099.615c-0.9,0-1.625,0.725-1.625,1.625v2.75
			c0,0.9,0.725,1.625,1.625,1.625h2.75c0.9,0,1.625-0.725,1.625-1.625v-2.75c0-0.9-0.725-1.625-1.625-1.625H439.896z"/>
	</g>
</g>
</svg>
