<?xml version="1.0" encoding="utf-8"?>
<!-- Generator: Adobe Illustrator 24.1.2, SVG Export Plug-In . SVG Version: 6.00 Build 0)  -->
<svg version="1.1"
	 id="svg29130" inkscape:version="0.92.4 (5da689c313, 2019-01-14)" sodipodi:docname="00010010.svg" xmlns:cc="http://creativecommons.org/ns#" xmlns:dc="http://purl.org/dc/elements/1.1/" xmlns:inkscape="http://www.inkscape.org/namespaces/inkscape" xmlns:rdf="http://www.w3.org/1999/02/22-rdf-syntax-ns#" xmlns:sodipodi="http://sodipodi.sourceforge.net/DTD/sodipodi-0.dtd" xmlns:svg="http://www.w3.org/2000/svg"
	 xmlns="http://www.w3.org/2000/svg" xmlns:xlink="http://www.w3.org/1999/xlink" x="0px" y="0px" width="1px" height="1px"
	 viewBox="0 0 1 1" enable-background="new 0 0 1 1" xml:space="preserve">
<g id="layer1" transform="translate(-25.580831,-120.0017)" inkscape:groupmode="layer" inkscape:label="Layer 1">
	<g id="g14044-3-0" transform="matrix(0.04999997,0,0,-0.04999969,2.0990744,64.935893)">
		<path id="path9455-2-3-5" inkscape:connector-curvature="0" sodipodi:nodetypes="cccccc" fill="#003B54" d="M485.077-1101.316
			c2.525,0,4.559-2.033,4.559-4.558v-15.441h-20v20L485.077-1101.316z"/>
		<path id="path9459-5-0-8" inkscape:connector-curvature="0" sodipodi:nodetypes="cccccc" fill="#007778" d="M484.635-1103.316
			c1.662,0,3-1.339,3-3c0-5,0-10,0-15c-6,0-12,0-18,0c0,6.646,0,11.847,0,18C474.635-1103.316,479.635-1103.316,484.635-1103.316
			L484.635-1103.316z"/>
		<path id="path9467-9-4-2" inkscape:connector-curvature="0" sodipodi:nodetypes="cccccc" fill="#00D0B4" d="M483.635-1105.316
			c1.108,0,2-0.892,2-2v-14h-16v16H483.635z"/>
		<path id="path9469-9-1-7" inkscape:connector-curvature="0" sodipodi:nodetypes="cccccc" fill="#00ACA7" d="M481.01-1108.316
			c0.9,0,1.625-0.725,1.625-1.625v-11.375h-13v13L481.01-1108.316z"/>
		<path id="path8507-4-4-4-9" inkscape:connector-curvature="0" fill="#00D0B4" d="M469.635-1114.316c3.866,0,7-3.134,7-7l0,0h-7
			V-1114.316z"/>
		<path id="path8509-0-6-14" inkscape:connector-curvature="0" fill="#007778" d="M469.635-1117.316c2.209,0,4-1.791,4-4h-4
			V-1117.316z"/>
		<path id="path8511-6-23-5-66" inkscape:connector-curvature="0" fill="#003B54" d="M469.635-1119.316c1.105,0,2-0.896,2-2l0,0h-2
			V-1119.316z"/>
	</g>
</g>
</svg>
