<?xml version="1.0" encoding="utf-8"?>
<!-- Generator: Adobe Illustrator 24.1.2, SVG Export Plug-In . SVG Version: 6.00 Build 0)  -->
<svg version="1.1"
	 id="svg25587" inkscape:version="0.92.4 (5da689c313, 2019-01-14)" sodipodi:docname="00011000.svg" xmlns:cc="http://creativecommons.org/ns#" xmlns:dc="http://purl.org/dc/elements/1.1/" xmlns:inkscape="http://www.inkscape.org/namespaces/inkscape" xmlns:rdf="http://www.w3.org/1999/02/22-rdf-syntax-ns#" xmlns:sodipodi="http://sodipodi.sourceforge.net/DTD/sodipodi-0.dtd" xmlns:svg="http://www.w3.org/2000/svg"
	 xmlns="http://www.w3.org/2000/svg" xmlns:xlink="http://www.w3.org/1999/xlink" x="0px" y="0px" width="1px" height="1px"
	 viewBox="0 0 1 1" enable-background="new 0 0 1 1" xml:space="preserve">
<g id="layer1" transform="translate(-104.21808,-240.91585)" inkscape:groupmode="layer" inkscape:label="Layer 1">
	<g id="g14399-8-70" transform="matrix(0,0.05000029,-0.05,0,48.490479,217.60593)">
		
			<rect id="rect14173-5-1-77" x="466.199" y="-1134.552" transform="matrix(2.535182e-06 1 -1 2.535182e-06 -648.3545 -1600.7479)" fill="#003B54" width="20" height="20"/>
		
			<rect id="rect14175-1-8-4" x="466.199" y="-1132.552" transform="matrix(2.535182e-06 1 -1 2.535182e-06 -648.3544 -1600.748)" fill="#007778" width="20" height="16"/>
		
			<rect id="rect14177-4-7-80" x="466.199" y="-1130.552" transform="matrix(2.535182e-06 1 -1 2.535182e-06 -648.3544 -1600.7482)" fill="#00D0B4" width="20" height="12"/>
		
			<rect id="rect14179-0-1-0" x="466.199" y="-1127.552" transform="matrix(2.535182e-06 1 -1 2.535182e-06 -648.3544 -1600.748)" fill="#00ACA7" width="20" height="6"/>
	</g>
</g>
</svg>
