<?xml version="1.0" encoding="utf-8"?>
<!-- Generator: Adobe Illustrator 24.1.2, SVG Export Plug-In . SVG Version: 6.00 Build 0)  -->
<svg version="1.1"
	 id="svg42559" inkscape:version="0.92.4 (5da689c313, 2019-01-14)" sodipodi:docname="01011000.svg" xmlns:cc="http://creativecommons.org/ns#" xmlns:dc="http://purl.org/dc/elements/1.1/" xmlns:inkscape="http://www.inkscape.org/namespaces/inkscape" xmlns:rdf="http://www.w3.org/1999/02/22-rdf-syntax-ns#" xmlns:sodipodi="http://sodipodi.sourceforge.net/DTD/sodipodi-0.dtd" xmlns:svg="http://www.w3.org/2000/svg"
	 xmlns="http://www.w3.org/2000/svg" xmlns:xlink="http://www.w3.org/1999/xlink" x="0px" y="0px" width="1px" height="1px"
	 viewBox="0 0 1 1" enable-background="new 0 0 1 1" xml:space="preserve">
<g id="layer1" transform="translate(-262.98564,-340.78633)" inkscape:groupmode="layer" inkscape:label="Layer 1">
	<g id="g13838-9-0" transform="matrix(0,0.04999997,-0.04999967,0,207.91985,317.6353)">
		
			<rect id="rect9306-0-6-3" x="463.022" y="-1121.316" transform="matrix(2.535182e-06 1 -1 2.535182e-06 -638.2953 -1584.3348)" fill="#00ACA7" width="20" height="20"/>
		
			<rect id="rect9308-2-6-1" x="469.522" y="-1114.816" transform="matrix(2.535182e-06 1 -1 2.535182e-06 -631.7953 -1590.8348)" fill="#00D0B4" width="20" height="7"/>
		
			<rect id="rect9310-5-8-4" x="471.022" y="-1113.316" transform="matrix(2.535182e-06 1 -1 2.535182e-06 -630.2953 -1592.3348)" fill="#007778" width="20" height="4"/>
		
			<rect id="rect9312-4-3-1" x="472.022" y="-1112.316" transform="matrix(2.535182e-06 1 -1 2.535182e-06 -629.2953 -1593.3348)" fill="#003B54" width="20" height="2"/>
		<path id="path13732-9-4-04" inkscape:connector-curvature="0" fill="#00D0B4" d="M463.022-1114.315c3.866,0,7-3.134,7-7l0,0h-7
			V-1114.315z"/>
		<path id="path13734-7-2-99" inkscape:connector-curvature="0" fill="#007778" d="M463.022-1117.316c2.209,0,4-1.791,4-4h-4
			V-1117.316z"/>
		<path id="path13736-3-5-0" inkscape:connector-curvature="0" fill="#003B54" d="M463.022-1119.316c1.105,0,2-0.896,2-2l0,0h-2
			V-1119.316z"/>
		<path id="path13738-5-1-5" inkscape:connector-curvature="0" fill="#00D0B4" d="M470.022-1101.316c0-3.866-3.134-7-7-7h0v7
			H470.022z"/>
		<path id="path13740-4-2-4" inkscape:connector-curvature="0" fill="#007778" d="M467.022-1101.316c0-2.209-1.791-4-4-4v4H467.022z
			"/>
		<path id="path13742-2-9-3" inkscape:connector-curvature="0" fill="#003B54" d="M465.022-1101.316c0-1.105-0.895-2-2-2
			c0,0,0,0,0,0v2H465.022z"/>
	</g>
</g>
</svg>
