<?xml version="1.0" encoding="utf-8"?>
<!-- Generator: Adobe Illustrator 24.1.2, SVG Export Plug-In . SVG Version: 6.00 Build 0)  -->
<svg version="1.1"
	 id="svg40193" inkscape:version="0.92.4 (5da689c313, 2019-01-14)" sodipodi:docname="01111010.svg" xmlns:cc="http://creativecommons.org/ns#" xmlns:dc="http://purl.org/dc/elements/1.1/" xmlns:inkscape="http://www.inkscape.org/namespaces/inkscape" xmlns:rdf="http://www.w3.org/1999/02/22-rdf-syntax-ns#" xmlns:sodipodi="http://sodipodi.sourceforge.net/DTD/sodipodi-0.dtd" xmlns:svg="http://www.w3.org/2000/svg"
	 xmlns="http://www.w3.org/2000/svg" xmlns:xlink="http://www.w3.org/1999/xlink" x="0px" y="0px" width="1px" height="1px"
	 viewBox="0 0 1 1" enable-background="new 0 0 1 1" xml:space="preserve">
<g id="layer1" transform="translate(-5.1676381,-140.37728)" inkscape:groupmode="layer" inkscape:label="Layer 1">
	<g id="g13531-8-8" transform="matrix(0.05000006,0,0,0.04999969,-16.991241,195.70767)">
		<path id="path8505-5-8-0" inkscape:connector-curvature="0" fill="#00ACA7" d="M463.177-1086.607v-20h-20v20H463.177z"/>
		<path id="path8507-4-9-1-84" inkscape:connector-curvature="0" fill="#00D0B4" d="M443.178-1099.607c3.866,0,7-3.134,7-7l0,0h-7
			V-1099.607z"/>
		<path id="path8509-6-2-6" inkscape:connector-curvature="0" fill="#007778" d="M443.178-1102.607c2.209,0,4-1.791,4-4h-4
			V-1102.607z"/>
		<path id="path8511-6-2-4-3" inkscape:connector-curvature="0" fill="#003B54" d="M443.178-1104.607c1.105,0,2-0.896,2-2l0,0h-2
			V-1104.607z"/>
		<path id="path13474-4-8" inkscape:connector-curvature="0" fill="#00D0B4" d="M463.177-1093.608c-3.866,0-7,3.134-7,7l0,0h7
			V-1093.608z"/>
		<path id="path13476-7-88" inkscape:connector-curvature="0" fill="#007778" d="M463.177-1090.608c-2.209,0-4,1.791-4,4h4
			V-1090.608z"/>
		<path id="path13478-7-9" inkscape:connector-curvature="0" fill="#003B54" d="M463.177-1088.607c-1.104,0-2,0.896-2,2l0,0h2
			V-1088.607z"/>
		<path id="path13484-4-7" inkscape:connector-curvature="0" fill="#00D0B4" d="M450.178-1086.607c0-3.866-3.134-7-7-7h0v7H450.178z
			"/>
		<path id="path13486-8-8" inkscape:connector-curvature="0" fill="#007778" d="M447.178-1086.607c0-2.209-1.791-4-4-4v4H447.178z"
			/>
		<path id="path13488-2-3" inkscape:connector-curvature="0" fill="#003B54" d="M445.178-1086.607c0-1.104-0.895-2-2-2c0,0,0,0,0,0
			v2H445.178z"/>
	</g>
</g>
</svg>
