<?xml version="1.0" encoding="utf-8"?>
<!-- Generator: Adobe Illustrator 24.1.2, SVG Export Plug-In . SVG Version: 6.00 Build 0)  -->
<svg version="1.1"
	 id="svg13339" inkscape:version="0.92.4 (5da689c313, 2019-01-14)" sodipodi:docname="01111110.svg" xmlns:cc="http://creativecommons.org/ns#" xmlns:dc="http://purl.org/dc/elements/1.1/" xmlns:inkscape="http://www.inkscape.org/namespaces/inkscape" xmlns:rdf="http://www.w3.org/1999/02/22-rdf-syntax-ns#" xmlns:sodipodi="http://sodipodi.sourceforge.net/DTD/sodipodi-0.dtd" xmlns:svg="http://www.w3.org/2000/svg"
	 xmlns="http://www.w3.org/2000/svg" xmlns:xlink="http://www.w3.org/1999/xlink" x="0px" y="0px" width="1px" height="1px"
	 viewBox="0 0 1 1" enable-background="new 0 0 1 1" xml:space="preserve">
<g id="layer1" transform="translate(158.72001,-32.971076)" inkscape:groupmode="layer" inkscape:label="Layer 1">
	<g id="g13531-8-9-72" transform="matrix(0.05000006,0,0,0.04999969,-180.87889,88.301463)">
		<path id="path8505-5-8-6-9" inkscape:connector-curvature="0" fill="#00ACA7" d="M463.178-1086.608v-20h-20v20H463.178z"/>
		<path id="path8507-4-9-1-8-6" inkscape:connector-curvature="0" fill="#00D0B4" d="M443.178-1099.608c3.866,0,7-3.134,7-7l0,0h-7
			V-1099.608z"/>
		<path id="path8509-6-2-9-64" inkscape:connector-curvature="0" fill="#007778" d="M443.178-1102.608c2.209,0,4-1.791,4-4h-4
			V-1102.608z"/>
		<path id="path8511-6-2-4-4-4" inkscape:connector-curvature="0" fill="#003B54" d="M443.178-1104.608c1.105,0,2-0.896,2-2l0,0h-2
			V-1104.608z"/>
		<path id="path13474-4-5-4" inkscape:connector-curvature="0" fill="#00D0B4" d="M463.178-1093.608c-3.866,0-7,3.134-7,7l0,0h7
			V-1093.608z"/>
		<path id="path13476-7-8-1" inkscape:connector-curvature="0" fill="#007778" d="M463.178-1090.608c-2.209,0-4,1.791-4,4h4
			V-1090.608z"/>
		<path id="path13478-7-8-1" inkscape:connector-curvature="0" fill="#003B54" d="M463.178-1088.608c-1.105,0-2,0.896-2,2l0,0h2
			V-1088.608z"/>
	</g>
</g>
</svg>
