<?xml version="1.0" encoding="utf-8"?>
<!-- Generator: Adobe Illustrator 24.1.2, SVG Export Plug-In . SVG Version: 6.00 Build 0)  -->
<svg version="1.1"
	 id="svg36719" inkscape:version="0.92.4 (5da689c313, 2019-01-14)" sodipodi:docname="11111000.svg" xmlns:cc="http://creativecommons.org/ns#" xmlns:dc="http://purl.org/dc/elements/1.1/" xmlns:inkscape="http://www.inkscape.org/namespaces/inkscape" xmlns:rdf="http://www.w3.org/1999/02/22-rdf-syntax-ns#" xmlns:sodipodi="http://sodipodi.sourceforge.net/DTD/sodipodi-0.dtd" xmlns:svg="http://www.w3.org/2000/svg"
	 xmlns="http://www.w3.org/2000/svg" xmlns:xlink="http://www.w3.org/1999/xlink" x="0px" y="0px" width="1px" height="1px"
	 viewBox="0 0 1 1" enable-background="new 0 0 1 1" xml:space="preserve">
<g id="layer1" transform="translate(41.29567,-148.66797)" inkscape:groupmode="layer" inkscape:label="Layer 1">
	<g id="g9324-0-4" transform="matrix(0,-0.05000002,0.05,0,14.696517,169.33194)">
		
			<rect id="rect9322-4-6" x="393.279" y="-1119.844" transform="matrix(-2.535182e-06 -1 1 -2.535182e-06 1513.1238 -706.5677)" fill="#003B54" width="20" height="20"/>
		
			<rect id="rect9320-9-5" x="394.279" y="-1118.844" transform="matrix(-2.535182e-06 -1 1 -2.535182e-06 1514.1238 -705.5677)" fill="#007778" width="20" height="18"/>
		
			<rect id="rect9318-3-4" x="395.279" y="-1117.844" transform="matrix(-2.535182e-06 -1 1 -2.535182e-06 1515.1237 -704.5678)" fill="#00D0B4" width="20" height="16"/>
		
			<rect id="rect9316-6-5" x="396.779" y="-1116.344" transform="matrix(-2.535182e-06 -1 1 -2.535182e-06 1516.6239 -703.0676)" fill="#00ACA7" width="20" height="13"/>
	</g>
</g>
</svg>
