<?xml version="1.0" encoding="utf-8"?>
<!-- Generator: Adobe Illustrator 24.1.2, SVG Export Plug-In . SVG Version: 6.00 Build 0)  -->
<svg version="1.1"
	 id="svg24431" xmlns:cc="http://creativecommons.org/ns#" xmlns:dc="http://purl.org/dc/elements/1.1/" xmlns:inkscape="http://www.inkscape.org/namespaces/inkscape" xmlns:rdf="http://www.w3.org/1999/02/22-rdf-syntax-ns#" xmlns:sodipodi="http://sodipodi.sourceforge.net/DTD/sodipodi-0.dtd" xmlns:svg="http://www.w3.org/2000/svg"
	 xmlns="http://www.w3.org/2000/svg" xmlns:xlink="http://www.w3.org/1999/xlink" x="0px" y="0px" viewBox="0 0 1 1"
	 enable-background="new 0 0 1 1" xml:space="preserve">
<g id="layer1" transform="translate(-43.712947,-177.42723)" inkscape:groupmode="layer" inkscape:label="Layer 1">
	
		<g id="g21239" transform="matrix(0,-0.04858588,0.04858588,0,99.686138,103.57784)" inkscape:export-filename="C:\Users\Donatas\Documents\ShareX\Screenshots\2019-01\BSMGWaterTileSet.png" inkscape:export-xdpi="450" inkscape:export-ydpi="450">
		<path id="path21231" inkscape:connector-curvature="0" fill="#2C6575" d="M-1540.543-1152.034v10.291v10.291h14.088
			c3.597,0,6.494-2.898,6.494-6.494v-3.797v-3.797c0-3.597-2.898-6.494-6.494-6.494H-1540.543z"/>
		<path id="path21233" inkscape:connector-curvature="0" fill="#2C6575" d="M-1540.543-1150.136v8.293v8.293h13.688
			c2.698,0,4.896-2.198,4.896-4.896v-3.397v-3.397c0-2.698-2.198-4.896-4.896-4.896H-1540.543L-1540.543-1150.136z"/>
		<path id="path21235" inkscape:connector-curvature="0" fill="#CB8EDB" d="M-1540.543-1148.139v6.394v6.395h12.689
			c2.198,0,3.997-1.799,3.997-3.997v-2.398v-2.398c0-2.198-1.798-3.997-3.997-3.997L-1540.543-1148.139L-1540.543-1148.139z"/>
		<path id="path21237" inkscape:connector-curvature="0" fill="#D65AC0" d="M-1540.543-1146.14v4.396v4.396h11.99
			c1.499,0,2.698-1.199,2.698-2.698v-1.698v-1.698c0-1.499-1.199-2.698-2.698-2.698H-1540.543L-1540.543-1146.14z"/>
	</g>
</g>
</svg>
