<?xml version="1.0" encoding="utf-8"?>
<!-- Generator: Adobe Illustrator 24.1.2, SVG Export Plug-In . SVG Version: 6.00 Build 0)  -->
<svg version="1.1"
	 id="svg31436" xmlns:cc="http://creativecommons.org/ns#" xmlns:dc="http://purl.org/dc/elements/1.1/" xmlns:inkscape="http://www.inkscape.org/namespaces/inkscape" xmlns:rdf="http://www.w3.org/1999/02/22-rdf-syntax-ns#" xmlns:sodipodi="http://sodipodi.sourceforge.net/DTD/sodipodi-0.dtd" xmlns:svg="http://www.w3.org/2000/svg"
	 xmlns="http://www.w3.org/2000/svg" xmlns:xlink="http://www.w3.org/1999/xlink" x="0px" y="0px" viewBox="0 0 1 1"
	 enable-background="new 0 0 1 1" xml:space="preserve">
<g id="layer1" transform="translate(-18.766519,-253.77842)" inkscape:groupmode="layer" inkscape:label="Layer 1">
	
		<g id="g21229" transform="matrix(-0.04858588,0,0,-0.04858588,-55.082875,198.06981)" inkscape:export-filename="C:\Users\Donatas\Documents\ShareX\Screenshots\2019-01\BSMGWaterTileSet.png" inkscape:export-xdpi="450" inkscape:export-ydpi="450">
		<path id="path21221" inkscape:connector-curvature="0" fill="#2C6575" d="M-1540.539-1167.168v10.291v10.291h14.131
			c3.575,0,6.451-2.879,6.451-6.453v-3.838v-3.838c0-3.575-2.876-6.453-6.451-6.453H-1540.539z"/>
		<path id="path21223" inkscape:connector-curvature="0" fill="#2C6575" d="M-1540.539-1165.205v8.328v8.328h13.67
			c2.741,0,4.949-2.208,4.949-4.95v-3.379v-3.379c0-2.741-2.208-4.95-4.949-4.95L-1540.539-1165.205L-1540.539-1165.205z"/>
		<path id="path21225" inkscape:connector-curvature="0" fill="#CB8EDB" d="M-1540.539-1163.24v6.363v6.363h12.663
			c2.212,0,3.995-1.78,3.995-3.992v-2.371v-2.371c0-2.212-1.781-3.992-3.995-3.992L-1540.539-1163.24L-1540.539-1163.24z"/>
		<path id="path21227" inkscape:connector-curvature="0" fill="#D65AC0" d="M-1540.539-1161.277v4.4v4.4h11.958
			c1.515,0,2.735-1.219,2.735-2.735v-1.667v-1.667c0-1.515-1.22-2.735-2.735-2.735h-11.958V-1161.277z"/>
	</g>
</g>
</svg>
