<?xml version="1.0" encoding="utf-8"?>
<!-- Generator: Adobe Illustrator 24.1.2, SVG Export Plug-In . SVG Version: 6.00 Build 0)  -->
<svg version="1.1"
	 id="svg32014" xmlns:cc="http://creativecommons.org/ns#" xmlns:dc="http://purl.org/dc/elements/1.1/" xmlns:inkscape="http://www.inkscape.org/namespaces/inkscape" xmlns:rdf="http://www.w3.org/1999/02/22-rdf-syntax-ns#" xmlns:sodipodi="http://sodipodi.sourceforge.net/DTD/sodipodi-0.dtd" xmlns:svg="http://www.w3.org/2000/svg"
	 xmlns="http://www.w3.org/2000/svg" xmlns:xlink="http://www.w3.org/1999/xlink" x="0px" y="0px" viewBox="0 0 1 1"
	 enable-background="new 0 0 1 1" xml:space="preserve">
<g id="layer1" transform="translate(-3.6474708,-324.08199)" inkscape:groupmode="layer" inkscape:label="Layer 1">
	
		<g id="g21249" transform="matrix(0.04858588,0,0,0.04858588,77.286238,379.83984)" inkscape:export-filename="C:\Users\Donatas\Documents\ShareX\Screenshots\2019-01\BSMGWaterTileSet.png" inkscape:export-xdpi="450" inkscape:export-ydpi="450">
		<path id="path21241" inkscape:connector-curvature="0" fill="#2C6575" d="M-1509.135-1147.605c-3.597,0-6.494,2.897-6.494,6.494
			v3.797v3.797c0,3.597,2.897,6.494,6.494,6.494h3.797h3.797c3.597,0,6.494-2.897,6.494-6.494v-3.797v-3.797
			c0-3.597-2.897-6.494-6.494-6.494h-3.797H-1509.135z"/>
		<path id="path21243" inkscape:connector-curvature="0" fill="#2C6575" d="M-1508.636-1145.607c-2.698,0-4.896,2.198-4.896,4.896
			v3.397v3.397c0,2.698,2.198,4.896,4.896,4.896h3.397h3.397c2.698,0,4.896-2.198,4.896-4.896v-3.397v-3.397
			c0-2.698-2.198-4.896-4.896-4.896h-3.397H-1508.636z"/>
		<path id="path21245" inkscape:connector-curvature="0" fill="#CB8EDB" d="M-1507.637-1143.709c-2.198,0-3.996,1.798-3.996,3.997
			v2.398v2.398c0,2.198,1.798,3.996,3.996,3.996h2.398h2.398c2.198,0,3.996-1.798,3.996-3.996v-2.398v-2.398
			c0-2.198-1.798-3.997-3.996-3.997h-2.398H-1507.637z"/>
		<path id="path21247" inkscape:connector-curvature="0" fill="#D65AC0" d="M-1506.937-1141.71c-1.499,0-2.698,1.199-2.698,2.698
			v1.698v1.698c0,1.499,1.199,2.698,2.698,2.698h1.698h1.698c1.499,0,2.698-1.199,2.698-2.698v-1.698v-1.698
			c0-1.499-1.199-2.698-2.698-2.698h-1.698H-1506.937z"/>
	</g>
</g>
</svg>
