<?xml version="1.0" encoding="utf-8"?>
<!-- Generator: Adobe Illustrator 24.1.2, SVG Export Plug-In . SVG Version: 6.00 Build 0)  -->
<svg version="1.1"
	 id="svg28537" xmlns:cc="http://creativecommons.org/ns#" xmlns:dc="http://purl.org/dc/elements/1.1/" xmlns:inkscape="http://www.inkscape.org/namespaces/inkscape" xmlns:rdf="http://www.w3.org/1999/02/22-rdf-syntax-ns#" xmlns:sodipodi="http://sodipodi.sourceforge.net/DTD/sodipodi-0.dtd" xmlns:svg="http://www.w3.org/2000/svg"
	 xmlns="http://www.w3.org/2000/svg" xmlns:xlink="http://www.w3.org/1999/xlink" x="0px" y="0px" viewBox="0 0 1 1"
	 enable-background="new 0 0 1 1" xml:space="preserve">
<g id="layer1" transform="translate(-87.558177,-100.32009)" inkscape:groupmode="layer" inkscape:label="Layer 1">
	
		<g id="g21434" transform="matrix(0.04858588,0,0,0.04858588,161.6487,155.44336)" inkscape:export-filename="C:\Users\Donatas\Documents\ShareX\Screenshots\2019-01\BSMGWaterTileSet.png" inkscape:export-xdpi="450" inkscape:export-ydpi="450">
		<path id="path21414" inkscape:connector-curvature="0" fill="#2C6575" d="M-1504.338-1113.957v-20.582h-20.581v20.582H-1504.338z"
			/>
		<path id="path21416" inkscape:connector-curvature="0" fill="#2C6575" d="M-1504.338-1113.957v-18.618h-20.581v18.618H-1504.338z"
			/>
		<path id="path21418" inkscape:connector-curvature="0" fill="#CB8EDB" d="M-1504.338-1113.957v-16.654h-20.581v16.654H-1504.338z"
			/>
		<path id="path21420" inkscape:connector-curvature="0" fill="#D65AC0" d="M-1504.338-1113.957v-14.69h-20.581v14.69H-1504.338z"/>
		<path id="path21422" inkscape:connector-curvature="0" fill="#CB8EDB" d="M-1524.92-1119.848c3.253,0,5.89,2.637,5.89,5.889
			c0,0,0,0,0,0.001h-5.89V-1119.848z"/>
		<path id="path21424" inkscape:connector-curvature="0" fill="#2C6575" d="M-1524.92-1117.885c2.169,0,3.928,1.759,3.928,3.928l0,0
			h-3.928V-1117.885z"/>
		<path id="path21426" inkscape:connector-curvature="0" fill="#2C6575" d="M-1524.92-1115.921c1.084,0,1.963,0.879,1.963,1.963
			c0,0,0,0,0,0.001h-1.963V-1115.921z"/>
		<path id="path21428" inkscape:connector-curvature="0" fill="#CB8EDB" d="M-1504.338-1119.849c-3.253,0-5.891,2.637-5.891,5.889
			c0,0,0,0,0,0.001h5.891V-1119.849z"/>
		<path id="path21430" inkscape:connector-curvature="0" fill="#2C6575" d="M-1504.338-1117.886c-2.169,0-3.928,1.759-3.928,3.928
			l0,0h3.928V-1117.886z"/>
		<path id="path21432" inkscape:connector-curvature="0" fill="#2C6575" d="M-1504.338-1115.921c-1.084,0-1.963,0.879-1.963,1.963
			c0,0,0,0,0,0.001h1.963V-1115.921z"/>
	</g>
</g>
</svg>
