<?xml version="1.0" encoding="utf-8"?>
<!-- Generator: Adobe Illustrator 24.1.2, SVG Export Plug-In . SVG Version: 6.00 Build 0)  -->
<svg version="1.1"
	 id="svg29130" xmlns:cc="http://creativecommons.org/ns#" xmlns:dc="http://purl.org/dc/elements/1.1/" xmlns:inkscape="http://www.inkscape.org/namespaces/inkscape" xmlns:rdf="http://www.w3.org/1999/02/22-rdf-syntax-ns#" xmlns:sodipodi="http://sodipodi.sourceforge.net/DTD/sodipodi-0.dtd" xmlns:svg="http://www.w3.org/2000/svg"
	 xmlns="http://www.w3.org/2000/svg" xmlns:xlink="http://www.w3.org/1999/xlink" x="0px" y="0px" viewBox="0 0 1 1"
	 enable-background="new 0 0 1 1" xml:space="preserve">
<g id="layer1" transform="translate(-25.570092,-119.97485)" inkscape:groupmode="layer" inkscape:label="Layer 1">
	
		<g id="g21412" transform="matrix(0.04858588,0,0,0.04858588,99.370785,175.09812)" inkscape:export-filename="C:\Users\Donatas\Documents\ShareX\Screenshots\2019-01\BSMGWaterTileSet.png" inkscape:export-xdpi="450" inkscape:export-ydpi="450">
		<path id="path21398" inkscape:connector-curvature="0" fill="#2C6575" d="M-1498.373-1113.957v-14.129
			c0-3.575-2.876-6.453-6.452-6.453h-14.13v20.582H-1498.373z"/>
		<path id="path21400" inkscape:connector-curvature="0" fill="#2C6575" d="M-1500.336-1113.957v-13.669
			c0-2.741-2.208-4.949-4.949-4.949h-13.669v18.618C-1518.954-1113.957-1500.336-1113.957-1500.336-1113.957z"/>
		<path id="path21402" inkscape:connector-curvature="0" fill="#CB8EDB" d="M-1502.3-1113.957v-12.662
			c0-2.212-1.781-3.992-3.993-3.992h-12.662v16.654C-1518.955-1113.957-1502.3-1113.957-1502.3-1113.957z"/>
		<path id="path21404" inkscape:connector-curvature="0" fill="#D65AC0" d="M-1504.264-1113.957v-11.957
			c0-1.515-1.22-2.735-2.735-2.735h-11.957v14.692H-1504.264z"/>
		<path id="path21406" inkscape:connector-curvature="0" fill="#CB8EDB" d="M-1518.954-1119.849c3.253,0,5.891,2.637,5.891,5.889
			c0,0,0,0,0,0.001h-5.891V-1119.849z"/>
		<path id="path21408" inkscape:connector-curvature="0" fill="#2C6575" d="M-1518.954-1117.886c2.169,0,3.928,1.759,3.928,3.928
			l0,0h-3.928V-1117.886z"/>
		<path id="path21410" inkscape:connector-curvature="0" fill="#2C6575" d="M-1518.954-1115.921c1.084,0,1.963,0.879,1.963,1.963
			c0,0,0,0,0,0.001h-1.963V-1115.921z"/>
	</g>
</g>
</svg>
