<?xml version="1.0" encoding="utf-8"?>
<!-- Generator: Adobe Illustrator 24.1.2, SVG Export Plug-In . SVG Version: 6.00 Build 0)  -->
<svg version="1.1"
	 id="svg41969" xmlns:cc="http://creativecommons.org/ns#" xmlns:dc="http://purl.org/dc/elements/1.1/" xmlns:inkscape="http://www.inkscape.org/namespaces/inkscape" xmlns:rdf="http://www.w3.org/1999/02/22-rdf-syntax-ns#" xmlns:sodipodi="http://sodipodi.sourceforge.net/DTD/sodipodi-0.dtd" xmlns:svg="http://www.w3.org/2000/svg"
	 xmlns="http://www.w3.org/2000/svg" xmlns:xlink="http://www.w3.org/1999/xlink" x="0px" y="0px" viewBox="0 0 1 1"
	 enable-background="new 0 0 1 1" xml:space="preserve">
<g id="layer1" transform="translate(41.331696,-148.70104)" inkscape:groupmode="layer" inkscape:label="Layer 1">
	
		<g id="g20955" transform="matrix(-0.04858588,0,0,-0.04858588,-114.86781,93.84236)" inkscape:export-filename="C:\Users\Donatas\Documents\ShareX\Screenshots\2019-01\BSMGWaterTileSet.png" inkscape:export-xdpi="450" inkscape:export-ydpi="450">
		<path id="path20941" inkscape:connector-curvature="0" fill="#2C6575" d="M-1513.509-1129.093v-14.129
			c0-3.575-2.876-6.453-6.451-6.453h-14.13v20.582H-1513.509z"/>
		<path id="path20943" inkscape:connector-curvature="0" fill="#2C6575" d="M-1515.472-1129.093v-13.669
			c0-2.741-2.208-4.949-4.949-4.949h-13.669v18.618C-1534.09-1129.093-1515.472-1129.093-1515.472-1129.093z"/>
		<path id="path20945" inkscape:connector-curvature="0" fill="#CB8EDB" d="M-1517.434-1129.093v-12.662
			c0-2.212-1.781-3.992-3.993-3.992h-12.662v16.654C-1534.089-1129.093-1517.434-1129.093-1517.434-1129.093z"/>
		<path id="path20947" inkscape:connector-curvature="0" fill="#D65AC0" d="M-1519.4-1129.093v-11.957
			c0-1.515-1.22-2.735-2.735-2.735h-11.957v14.69h14.692V-1129.093z"/>
		<path id="path20949" inkscape:connector-curvature="0" fill="#CB8EDB" d="M-1534.09-1134.985c3.253,0,5.891,2.637,5.891,5.889
			c0,0,0,0,0,0.001h-5.891V-1134.985z"/>
		<path id="path20951" inkscape:connector-curvature="0" fill="#2C6575" d="M-1534.09-1133.022c2.169,0,3.928,1.759,3.928,3.928l0,0
			h-3.928V-1133.022z"/>
		<path id="path20953" inkscape:connector-curvature="0" fill="#2C6575" d="M-1534.09-1131.057c1.084,0,1.963,0.879,1.963,1.963
			c0,0,0,0,0,0.001h-1.963V-1131.057z"/>
	</g>
</g>
</svg>
