<?xml version="1.0" encoding="utf-8"?>
<!-- Generator: Adobe Illustrator 24.1.2, SVG Export Plug-In . SVG Version: 6.00 Build 0)  -->
<svg version="1.1"
	 id="svg26764" xmlns:cc="http://creativecommons.org/ns#" xmlns:dc="http://purl.org/dc/elements/1.1/" xmlns:inkscape="http://www.inkscape.org/namespaces/inkscape" xmlns:rdf="http://www.w3.org/1999/02/22-rdf-syntax-ns#" xmlns:sodipodi="http://sodipodi.sourceforge.net/DTD/sodipodi-0.dtd" xmlns:svg="http://www.w3.org/2000/svg"
	 xmlns="http://www.w3.org/2000/svg" xmlns:xlink="http://www.w3.org/1999/xlink" x="0px" y="0px" viewBox="0 0 1 1"
	 enable-background="new 0 0 1 1" xml:space="preserve">
<g id="layer1" transform="translate(-100.40937,-143.40938)" inkscape:groupmode="layer" inkscape:label="Layer 1">
	
		<g id="g21330" transform="matrix(0.04858588,0,0,0.04858588,175.65918,198.53264)" inkscape:export-filename="C:\Users\Donatas\Documents\ShareX\Screenshots\2019-01\BSMGWaterTileSet.png" inkscape:export-xdpi="450" inkscape:export-ydpi="450">
		<path id="path21315" inkscape:connector-curvature="0" fill="#D65AC0" d="M-1528.196-1113.957v-20.582h-20.583v20.582H-1528.196z"
			/>
		<path id="path21317" inkscape:connector-curvature="0" fill="#CB8EDB" d="M-1548.78-1128.647c3.254,0,5.891-2.638,5.891-5.89
			c0,0,0,0,0-0.001h-5.891V-1128.647z"/>
		<path id="path21320" inkscape:connector-curvature="0" fill="#2C6575" d="M-1548.78-1130.61c2.169,0,3.928-1.759,3.928-3.928l0,0
			h-3.928V-1130.61z"/>
		<path id="path21322" inkscape:connector-curvature="0" fill="#2C6575" d="M-1548.78-1132.575c1.084,0,1.963-0.879,1.963-1.963
			c0,0,0,0,0-0.001h-1.963V-1132.575z"/>
		<path id="path21324" inkscape:connector-curvature="0" fill="#CB8EDB" d="M-1528.196-1128.647c-3.253,0-5.891-2.638-5.891-5.89
			c0,0,0,0,0-0.001h5.891V-1128.647z"/>
		<path id="path21326" inkscape:connector-curvature="0" fill="#2C6575" d="M-1528.196-1130.61c-2.169,0-3.928-1.759-3.928-3.928
			l0,0h3.928V-1130.61z"/>
		<path id="path21328" inkscape:connector-curvature="0" fill="#2C6575" d="M-1528.196-1132.574c-1.084,0-1.963-0.879-1.963-1.963
			c0,0,0,0,0-0.001h1.963V-1132.574z"/>
	</g>
</g>
</svg>
