<?xml version="1.0" encoding="utf-8"?>
<!-- Generator: Adobe Illustrator 24.1.2, SVG Export Plug-In . SVG Version: 6.00 Build 0)  -->
<svg version="1.1"
	 id="svg27354" xmlns:cc="http://creativecommons.org/ns#" xmlns:dc="http://purl.org/dc/elements/1.1/" xmlns:inkscape="http://www.inkscape.org/namespaces/inkscape" xmlns:rdf="http://www.w3.org/1999/02/22-rdf-syntax-ns#" xmlns:sodipodi="http://sodipodi.sourceforge.net/DTD/sodipodi-0.dtd" xmlns:svg="http://www.w3.org/2000/svg"
	 xmlns="http://www.w3.org/2000/svg" xmlns:xlink="http://www.w3.org/1999/xlink" x="0px" y="0px" viewBox="0 0 1 1"
	 enable-background="new 0 0 1 1" xml:space="preserve">
<g id="layer1" transform="translate(-117.04032,-30.016525)" inkscape:groupmode="layer" inkscape:label="Layer 1">
	
		<g id="g21032" transform="matrix(-0.04858588,0,0,0.04858588,42.05511,85.139786)" inkscape:export-filename="C:\Users\Donatas\Documents\ShareX\Screenshots\2019-01\BSMGWaterTileSet.png" inkscape:export-xdpi="450" inkscape:export-ydpi="450">
		<path id="path21001" inkscape:connector-curvature="0" fill="#D65AC0" d="M-1543.334-1113.959v-20.579h-20.581v20.579H-1543.334z"
			/>
		<path id="path21003" inkscape:connector-curvature="0" fill="#CB8EDB" d="M-1563.916-1128.647c3.253,0,5.89-2.637,5.89-5.889
			c0,0,0,0,0-0.001h-5.89V-1128.647z"/>
		<path id="path21007" inkscape:connector-curvature="0" fill="#2C6575" d="M-1563.916-1130.61c2.169,0,3.928-1.759,3.928-3.928l0,0
			h-3.928V-1130.61z"/>
		<path id="path21010" inkscape:connector-curvature="0" fill="#2C6575" d="M-1563.916-1132.575c1.084,0,1.963-0.879,1.963-1.963
			c0,0,0,0,0-0.001h-1.963V-1132.575z"/>
		<path id="path21012" inkscape:connector-curvature="0" fill="#CB8EDB" d="M-1543.334-1128.647c-3.253,0-5.89-2.637-5.89-5.889
			c0,0,0,0,0-0.001h5.89V-1128.647z"/>
		<path id="path21014" inkscape:connector-curvature="0" fill="#2C6575" d="M-1543.334-1130.61c-2.169,0-3.928-1.759-3.928-3.928
			l0,0h3.928V-1130.61z"/>
		<path id="path21016" inkscape:connector-curvature="0" fill="#2C6575" d="M-1543.334-1132.574c-1.084,0-1.963-0.879-1.963-1.963
			c0,0,0,0,0-0.001h1.963V-1132.574z"/>
		<path id="path21020" inkscape:connector-curvature="0" fill="#CB8EDB" d="M-1563.915-1119.849c3.253,0,5.89,2.637,5.89,5.889
			c0,0,0,0,0,0.001h-5.89V-1119.849z"/>
		<path id="path21026" inkscape:connector-curvature="0" fill="#2C6575" d="M-1563.915-1117.886c2.169,0,3.928,1.759,3.928,3.928
			l0,0h-3.928V-1117.886z"/>
		<path id="path21029" inkscape:connector-curvature="0" fill="#2C6575" d="M-1563.915-1115.921c1.084,0,1.963,0.879,1.963,1.963
			c0,0,0,0,0,0.001h-1.963V-1115.921z"/>
	</g>
</g>
</svg>
