<?xml version="1.0" encoding="utf-8"?>
<!-- Generator: Adobe Illustrator 24.1.2, SVG Export Plug-In . SVG Version: 6.00 Build 0)  -->
<svg version="1.1"
	 id="svg35551" xmlns:cc="http://creativecommons.org/ns#" xmlns:dc="http://purl.org/dc/elements/1.1/" xmlns:inkscape="http://www.inkscape.org/namespaces/inkscape" xmlns:rdf="http://www.w3.org/1999/02/22-rdf-syntax-ns#" xmlns:sodipodi="http://sodipodi.sourceforge.net/DTD/sodipodi-0.dtd" xmlns:svg="http://www.w3.org/2000/svg"
	 xmlns="http://www.w3.org/2000/svg" xmlns:xlink="http://www.w3.org/1999/xlink" x="0px" y="0px" viewBox="0 0 1 1"
	 enable-background="new 0 0 1 1" xml:space="preserve">
<g id="layer1" transform="translate(-269.74271,-76.885557)" inkscape:groupmode="layer" inkscape:label="Layer 1">
	
		<g id="g21478" transform="matrix(0,0.04858588,-0.04858588,0,214.88402,150.97608)" inkscape:export-filename="C:\Users\Donatas\Documents\ShareX\Screenshots\2019-01\BSMGWaterTileSet.png" inkscape:export-xdpi="450" inkscape:export-ydpi="450">
		<path id="path21458" inkscape:connector-curvature="0" fill="#2C6575" d="M-1504.338-1129.094v-20.583h-20.581v20.583H-1504.338z"
			/>
		<path id="path21460" inkscape:connector-curvature="0" fill="#2C6575" d="M-1504.338-1129.094v-18.619h-20.581v18.619H-1504.338z"
			/>
		<path id="path21462" inkscape:connector-curvature="0" fill="#CB8EDB" d="M-1504.338-1129.094v-16.655h-20.581v16.655H-1504.338z"
			/>
		<path id="path21464" inkscape:connector-curvature="0" fill="#D65AC0" d="M-1504.338-1129.094v-14.691h-20.581v14.691H-1504.338z"
			/>
		<path id="path21466" inkscape:connector-curvature="0" fill="#CB8EDB" d="M-1524.92-1134.984c3.253,0,5.891,2.637,5.891,5.889
			c0,0,0,0,0,0.001h-5.891V-1134.984z"/>
		<path id="path21468" inkscape:connector-curvature="0" fill="#2C6575" d="M-1524.92-1133.021c2.169,0,3.928,1.759,3.928,3.928l0,0
			h-3.928V-1133.021z"/>
		<path id="path21470" inkscape:connector-curvature="0" fill="#2C6575" d="M-1524.92-1131.056c1.084,0,1.963,0.879,1.963,1.963
			c0,0,0,0,0,0.001h-1.963V-1131.056z"/>
		<path id="path21472" inkscape:connector-curvature="0" fill="#CB8EDB" d="M-1504.338-1134.986c-3.253,0-5.891,2.637-5.891,5.889
			c0,0,0,0,0,0.001h5.891V-1134.986z"/>
		<path id="path21474" inkscape:connector-curvature="0" fill="#2C6575" d="M-1504.338-1133.023c-2.169,0-3.928,1.759-3.928,3.928
			l0,0h3.928V-1133.023z"/>
		<path id="path21476" inkscape:connector-curvature="0" fill="#2C6575" d="M-1504.338-1131.057c-1.084,0-1.963,0.879-1.963,1.963
			c0,0,0,0,0,0.001h1.963V-1131.057z"/>
	</g>
</g>
</svg>
