<?xml version="1.0" encoding="utf-8"?>
<!-- Generator: Adobe Illustrator 24.1.2, SVG Export Plug-In . SVG Version: 6.00 Build 0)  -->
<svg version="1.1"
	 id="svg42559" xmlns:cc="http://creativecommons.org/ns#" xmlns:dc="http://purl.org/dc/elements/1.1/" xmlns:inkscape="http://www.inkscape.org/namespaces/inkscape" xmlns:rdf="http://www.w3.org/1999/02/22-rdf-syntax-ns#" xmlns:sodipodi="http://sodipodi.sourceforge.net/DTD/sodipodi-0.dtd" xmlns:svg="http://www.w3.org/2000/svg"
	 xmlns="http://www.w3.org/2000/svg" xmlns:xlink="http://www.w3.org/1999/xlink" x="0px" y="0px" viewBox="0 0 1 1"
	 enable-background="new 0 0 1 1" xml:space="preserve">
<g id="layer1" transform="translate(-262.93913,-340.71295)" inkscape:groupmode="layer" inkscape:label="Layer 1">
	
		<g id="g21456" transform="matrix(0.04858588,0,0,-0.04858588,337.02965,285.85426)" inkscape:export-filename="C:\Users\Donatas\Documents\ShareX\Screenshots\2019-01\BSMGWaterTileSet.png" inkscape:export-xdpi="450" inkscape:export-ydpi="450">
		<path id="path21436" inkscape:connector-curvature="0" fill="#2C6575" d="M-1504.337-1129.092v-20.582h-20.581v20.582H-1504.337z"
			/>
		<path id="path21438" inkscape:connector-curvature="0" fill="#2C6575" d="M-1504.337-1129.092v-18.619h-20.581v18.619H-1504.337z"
			/>
		<path id="path21440" inkscape:connector-curvature="0" fill="#CB8EDB" d="M-1504.337-1129.092v-16.654h-20.581v16.654H-1504.337z"
			/>
		<path id="path21442" inkscape:connector-curvature="0" fill="#D65AC0" d="M-1504.337-1129.092v-14.692h-20.581v14.692H-1504.337z"
			/>
		<path id="path21444" inkscape:connector-curvature="0" fill="#CB8EDB" d="M-1524.919-1134.983c3.253,0,5.89,2.637,5.89,5.889
			c0,0,0,0,0,0.001h-5.89V-1134.983z"/>
		<path id="path21446" inkscape:connector-curvature="0" fill="#2C6575" d="M-1524.919-1133.02c2.169,0,3.928,1.759,3.928,3.928l0,0
			h-3.928V-1133.02z"/>
		<path id="path21448" inkscape:connector-curvature="0" fill="#2C6575" d="M-1524.919-1131.056c1.084,0,1.963,0.879,1.963,1.963
			c0,0,0,0,0,0.001h-1.963V-1131.056z"/>
		<path id="path21450" inkscape:connector-curvature="0" fill="#CB8EDB" d="M-1504.337-1134.984c-3.253,0-5.891,2.637-5.891,5.889
			c0,0,0,0,0,0.001h5.891V-1134.984z"/>
		<path id="path21452" inkscape:connector-curvature="0" fill="#2C6575" d="M-1504.337-1133.021c-2.169,0-3.928,1.759-3.928,3.928
			l0,0h3.928V-1133.021z"/>
		<path id="path21454" inkscape:connector-curvature="0" fill="#2C6575" d="M-1504.337-1131.056c-1.084,0-1.963,0.879-1.963,1.963
			c0,0,0,0,0,0.001h1.963V-1131.056z"/>
	</g>
</g>
</svg>
