<?xml version="1.0" encoding="utf-8"?>
<!-- Generator: Adobe Illustrator 24.1.2, SVG Export Plug-In . SVG Version: 6.00 Build 0)  -->
<svg version="1.1"
	 id="svg33766" xmlns:cc="http://creativecommons.org/ns#" xmlns:dc="http://purl.org/dc/elements/1.1/" xmlns:inkscape="http://www.inkscape.org/namespaces/inkscape" xmlns:rdf="http://www.w3.org/1999/02/22-rdf-syntax-ns#" xmlns:sodipodi="http://sodipodi.sourceforge.net/DTD/sodipodi-0.dtd" xmlns:svg="http://www.w3.org/2000/svg"
	 xmlns="http://www.w3.org/2000/svg" xmlns:xlink="http://www.w3.org/1999/xlink" x="0px" y="0px" viewBox="0 0 1 1"
	 enable-background="new 0 0 1 1" xml:space="preserve">
<g id="layer1" transform="translate(-158.61772,-243.95103)" inkscape:groupmode="layer" inkscape:label="Layer 1">
	
		<g id="g21396" transform="matrix(0.04858588,0,0,0.04858588,233.57769,298.78448)" inkscape:export-filename="C:\Users\Donatas\Documents\ShareX\Screenshots\2019-01\BSMGWaterTileSet.png" inkscape:export-xdpi="450" inkscape:export-ydpi="450">
		<path id="path21370" inkscape:connector-curvature="0" fill="#D65AC0" d="M-1522.235-1107.991h-20.579v-20.581h20.579V-1107.991z"
			/>
		<path id="path21372" inkscape:connector-curvature="0" fill="#CB8EDB" d="M-1536.924-1128.573c0,3.253-2.637,5.89-5.889,5.89
			c0,0,0,0-0.001,0v-5.89H-1536.924z"/>
		<path id="path21374" inkscape:connector-curvature="0" fill="#2C6575" d="M-1538.887-1128.573c0,2.169-1.759,3.928-3.928,3.928
			l0,0v-3.928H-1538.887z"/>
		<path id="path21376" inkscape:connector-curvature="0" fill="#2C6575" d="M-1540.852-1128.573c0,1.084-0.879,1.963-1.963,1.963
			c0,0,0,0-0.001,0v-1.963H-1540.852z"/>
		<path id="path21378" inkscape:connector-curvature="0" fill="#CB8EDB" d="M-1536.924-1107.991c0-3.253-2.636-5.891-5.889-5.891
			c0,0,0,0-0.001,0v5.891H-1536.924z"/>
		<path id="path21380" inkscape:connector-curvature="0" fill="#2C6575" d="M-1538.887-1107.991c0-2.169-1.759-3.928-3.928-3.928
			l0,0v3.928H-1538.887z"/>
		<path id="path21382" inkscape:connector-curvature="0" fill="#2C6575" d="M-1540.851-1107.991c0-1.084-0.879-1.963-1.963-1.963
			c0,0,0,0-0.001,0v1.963H-1540.851z"/>
		<path id="path21384" inkscape:connector-curvature="0" fill="#CB8EDB" d="M-1528.126-1128.572c0,3.253,2.637,5.891,5.889,5.891
			c0,0,0,0,0.001,0v-5.891H-1528.126z"/>
		<path id="path21386" inkscape:connector-curvature="0" fill="#2C6575" d="M-1526.162-1128.572c0,2.169,1.759,3.928,3.928,3.928
			l0,0v-3.928H-1526.162z"/>
		<path id="path21388" inkscape:connector-curvature="0" fill="#2C6575" d="M-1524.198-1128.572c0,1.084,0.879,1.963,1.963,1.963
			c0,0,0,0,0.001,0v-1.963H-1524.198z"/>
		<path id="path21390" inkscape:connector-curvature="0" fill="#CB8EDB" d="M-1528.126-1107.99c0-3.253,2.637-5.891,5.889-5.891
			c0,0,0,0,0.001,0v5.891H-1528.126z"/>
		<path id="path21392" inkscape:connector-curvature="0" fill="#2C6575" d="M-1526.163-1107.99c0-2.169,1.759-3.928,3.928-3.928l0,0
			v3.928H-1526.163z"/>
		<path id="path21394" inkscape:connector-curvature="0" fill="#2C6575" d="M-1524.198-1107.99c0-1.084,0.879-1.963,1.963-1.963
			c0,0,0,0,0.001,0v1.963H-1524.198z"/>
	</g>
</g>
</svg>
