<?xml version="1.0" encoding="utf-8"?>
<!-- Generator: Adobe Illustrator 24.1.2, SVG Export Plug-In . SVG Version: 6.00 Build 0)  -->
<svg version="1.1"
	 id="svg40193" xmlns:cc="http://creativecommons.org/ns#" xmlns:dc="http://purl.org/dc/elements/1.1/" xmlns:inkscape="http://www.inkscape.org/namespaces/inkscape" xmlns:rdf="http://www.w3.org/1999/02/22-rdf-syntax-ns#" xmlns:sodipodi="http://sodipodi.sourceforge.net/DTD/sodipodi-0.dtd" xmlns:svg="http://www.w3.org/2000/svg"
	 xmlns="http://www.w3.org/2000/svg" xmlns:xlink="http://www.w3.org/1999/xlink" x="0px" y="0px" viewBox="0 0 1 1"
	 enable-background="new 0 0 1 1" xml:space="preserve">
<g id="layer1" transform="translate(-5.1593699,-140.38557)" inkscape:groupmode="layer" inkscape:label="Layer 1">
	
		<g id="g21313" transform="matrix(0.04858588,0,0,-0.04858588,80.409176,85.526881)" inkscape:export-filename="C:\Users\Donatas\Documents\ShareX\Screenshots\2019-01\BSMGWaterTileSet.png" inkscape:export-xdpi="450" inkscape:export-ydpi="450">
		<path id="path21293" inkscape:connector-curvature="0" fill="#D65AC0" d="M-1528.198-1129.094v-20.579h-20.581v20.579H-1528.198z"
			/>
		<path id="path21295" inkscape:connector-curvature="0" fill="#CB8EDB" d="M-1548.78-1143.782c3.253,0,5.891-2.637,5.891-5.889
			c0,0,0,0,0-0.001h-5.891V-1143.782z"/>
		<path id="path21297" inkscape:connector-curvature="0" fill="#2C6575" d="M-1548.78-1145.745c2.169,0,3.928-1.759,3.928-3.928l0,0
			h-3.928V-1145.745z"/>
		<path id="path21299" inkscape:connector-curvature="0" fill="#2C6575" d="M-1548.78-1147.71c1.084,0,1.963-0.879,1.963-1.963
			c0,0,0,0,0-0.001h-1.963V-1147.71z"/>
		<path id="path21301" inkscape:connector-curvature="0" fill="#CB8EDB" d="M-1528.198-1143.782c-3.253,0-5.89-2.636-5.89-5.889
			c0,0,0,0,0-0.001h5.89V-1143.782z"/>
		<path id="path21303" inkscape:connector-curvature="0" fill="#2C6575" d="M-1528.198-1145.745c-2.169,0-3.928-1.759-3.928-3.928
			l0,0h3.928V-1145.745z"/>
		<path id="path21305" inkscape:connector-curvature="0" fill="#2C6575" d="M-1528.198-1147.71c-1.084,0-1.963-0.879-1.963-1.963
			c0,0,0,0,0-0.001h1.963V-1147.71z"/>
		<path id="path21307" inkscape:connector-curvature="0" fill="#CB8EDB" d="M-1548.779-1134.984c3.253,0,5.89,2.637,5.89,5.889
			c0,0,0,0,0,0.001h-5.89V-1134.984z"/>
		<path id="path21309" inkscape:connector-curvature="0" fill="#2C6575" d="M-1548.779-1133.021c2.169,0,3.928,1.759,3.928,3.928
			l0,0h-3.928V-1133.021z"/>
		<path id="path21311" inkscape:connector-curvature="0" fill="#2C6575" d="M-1548.779-1131.056c1.084,0,1.963,0.879,1.963,1.963
			c0,0,0,0,0,0.001h-1.963V-1131.056z"/>
	</g>
</g>
</svg>
