<?xml version="1.0" encoding="utf-8"?>
<!-- Generator: Adobe Illustrator 24.1.2, SVG Export Plug-In . SVG Version: 6.00 Build 0)  -->
<svg version="1.1"
	 id="svg41376" xmlns:cc="http://creativecommons.org/ns#" xmlns:dc="http://purl.org/dc/elements/1.1/" xmlns:inkscape="http://www.inkscape.org/namespaces/inkscape" xmlns:rdf="http://www.w3.org/1999/02/22-rdf-syntax-ns#" xmlns:sodipodi="http://sodipodi.sourceforge.net/DTD/sodipodi-0.dtd" xmlns:svg="http://www.w3.org/2000/svg"
	 xmlns="http://www.w3.org/2000/svg" xmlns:xlink="http://www.w3.org/1999/xlink" x="0px" y="0px" viewBox="0 0 1 1"
	 enable-background="new 0 0 1 1" xml:space="preserve">
<g id="layer1" transform="translate(381.88825,31.971571)" inkscape:groupmode="layer" inkscape:label="Layer 1">
	
		<g id="g20978" transform="matrix(-0.04858588,0,0,-0.04858588,-456.87346,-86.830262)" inkscape:export-filename="C:\Users\Donatas\Documents\ShareX\Screenshots\2019-01\BSMGWaterTileSet.png" inkscape:export-xdpi="450" inkscape:export-ydpi="450">
		<path id="path20957" inkscape:connector-curvature="0" fill="#D65AC0" d="M-1543.334-1129.094v-20.579h-20.581v20.579H-1543.334z"
			/>
		<path id="path20959" inkscape:connector-curvature="0" fill="#CB8EDB" d="M-1563.916-1143.784c3.253,0,5.89-2.637,5.89-5.889
			c0,0,0,0,0-0.001h-5.89V-1143.784z"/>
		<path id="path20961" inkscape:connector-curvature="0" fill="#2C6575" d="M-1563.916-1145.746c2.169,0,3.928-1.759,3.928-3.928
			l0,0h-3.928V-1145.746z"/>
		<path id="path20963" inkscape:connector-curvature="0" fill="#2C6575" d="M-1563.916-1147.71c1.084,0,1.963-0.879,1.963-1.963
			c0,0,0,0,0-0.001h-1.963V-1147.71z"/>
		<path id="path20965" inkscape:connector-curvature="0" fill="#CB8EDB" d="M-1543.334-1143.782c-3.253,0-5.89-2.637-5.89-5.889
			c0,0,0,0,0-0.001h5.89V-1143.782z"/>
		<path id="path20967" inkscape:connector-curvature="0" fill="#2C6575" d="M-1543.334-1145.745c-2.169,0-3.928-1.759-3.928-3.928
			l0,0h3.928V-1145.745z"/>
		<path id="path20970" inkscape:connector-curvature="0" fill="#2C6575" d="M-1543.334-1147.71c-1.084,0-1.963-0.879-1.963-1.963
			c0,0,0,0,0-0.001h1.963V-1147.71z"/>
		<path id="path20972" inkscape:connector-curvature="0" fill="#CB8EDB" d="M-1563.915-1134.984c3.253,0,5.89,2.637,5.89,5.889
			c0,0,0,0,0,0.001h-5.89V-1134.984z"/>
		<path id="path20974" inkscape:connector-curvature="0" fill="#2C6575" d="M-1563.915-1133.021c2.169,0,3.928,1.759,3.928,3.928
			l0,0h-3.928V-1133.021z"/>
		<path id="path20976" inkscape:connector-curvature="0" fill="#2C6575" d="M-1563.915-1131.056c1.084,0,1.963,0.879,1.963,1.963
			c0,0,0,0,0,0.001h-1.963V-1131.056z"/>
	</g>
</g>
</svg>
