<?xml version="1.0" encoding="UTF-8" standalone="no"?>
<!-- Created with Inkscape (http://www.inkscape.org/) -->

<svg
   width="1.1"
   height="1.2"
   viewBox="0 0 1.1 1.2"
   version="1.1"
   id="svg5"
   sodipodi:docname="00010000.svg"
   inkscape:version="1.1 (c68e22c387, 2021-05-23)"
   xmlns:inkscape="http://www.inkscape.org/namespaces/inkscape"
   xmlns:sodipodi="http://sodipodi.sourceforge.net/DTD/sodipodi-0.dtd"
   xmlns="http://www.w3.org/2000/svg"
   xmlns:svg="http://www.w3.org/2000/svg">
  <sodipodi:namedview
     id="namedview7"
     pagecolor="#171717"
     bordercolor="#999999"
     borderopacity="1"
     inkscape:pageshadow="0"
     inkscape:pageopacity="0"
     inkscape:pagecheckerboard="0"
     inkscape:document-units="px"
     showgrid="false"
     units="px"
     inkscape:zoom="187.83333"
     inkscape:cx="0.40461402"
     inkscape:cy="0.65217391"
     inkscape:window-width="1284"
     inkscape:window-height="1041"
     inkscape:window-x="208"
     inkscape:window-y="0"
     inkscape:window-maximized="0"
     inkscape:current-layer="layer1"
     inkscape:object-paths="true"
     inkscape:snap-intersection-paths="true"
     inkscape:snap-smooth-nodes="true"
     inkscape:snap-midpoints="true"
     inkscape:snap-object-midpoints="true">
    <inkscape:grid
       type="xygrid"
       id="grid836"
       originx="0"
       originy="0" />
  </sodipodi:namedview>
  <defs
     id="defs2" />
  <g
     inkscape:label="Layer 1"
     inkscape:groupmode="layer"
     id="layer1">
    <g
       id="g2342"
       transform="matrix(-0.05,0,0,0.05,1.1,0)"
       style="stroke-width:20">
      <rect
         style="fill:#002450;fill-opacity:1;stroke:none;stroke-width:755.907;stroke-linecap:round;stroke-linejoin:round;paint-order:markers stroke fill"
         id="rect83755"
         width="17"
         height="11"
         x="5"
         y="8" />
      <path
         id="path83753"
         style="fill:#084038;fill-opacity:1;stroke:none;stroke-width:755.907;stroke-linecap:round;stroke-linejoin:round;paint-order:markers stroke fill"
         d="M 4,0 V 2 H 2 V 4 H 0 v 16 h 2 v 2 h 2 v 2 H 22 V 20 H 4 V 7 H 22 V 0 Z" />
      <path
         id="path83757"
         style="fill:#105c50;fill-opacity:1;stroke:none;stroke-width:755.907;stroke-linecap:round;stroke-linejoin:round;paint-order:markers stroke fill"
         d="M 9,2 2,8 v 4 H 6 V 9 H 22 V 2 Z m 11,16 v 4 h 2 v -4 z"
         sodipodi:nodetypes="ccccccccccccc" />
      <path
         id="path83759"
         style="fill:#1c907c;fill-opacity:1;stroke:none;stroke-width:755.907;stroke-linecap:round;stroke-linejoin:round;paint-order:markers stroke fill"
         d="M 4,2 V 4 H 2 V 9 H 6 V 6 H 9 V 2 Z m 7,0 V 6 H 21 V 2 Z m -9,9 v 9 h 2 v 2 H 21 V 18 H 6 v -7 z" />
      <path
         id="path83761"
         style="fill:#0c443c;fill-opacity:1;stroke:none;stroke-width:755.907;stroke-linecap:round;stroke-linejoin:round;paint-order:markers stroke fill"
         d="m 9,6 v 3 h 2 V 6 Z m 12,0 v 3 h 1 V 6 Z" />
    </g>
  </g>
</svg>
